M48
;Layer_Color=9474304
;FILE_FORMAT=2:5
INCH,LZ
;TYPE=PLATED
T1F00S00C0.00787
T2F00S00C0.01200
T4F00S00C0.02559
T6F00S00C0.03543
T7F00S00C0.04331
T8F00S00C0.04724
T9F00S00C0.08268
;TYPE=NON_PLATED
T10F00S00C0.04921
%
T01
X-0001Y0014
X00018
X00046
X00074
X00102
X0013
X0022Y0016
Y0018901
X00235Y0006
X004356Y0010987
X004581
X004806
X005031
X005256
Y001332
X005031
X004806
X004581
X004356
Y0015653
X004581
X004806
X005031
X005256
Y0017987
X005031
X004806
X004581
X004356
X004Y0032
Y0034165
X0038118Y00365
X00405Y004
X0040771Y0049061
X0041Y0052
X0042Y0055
X0045
X0051595Y0053508
X0054171Y0045911
X005429Y0039382
X0050941Y0034
X003Y0034
X0027Y0036941
X0022
X0021Y0034
X0013Y0036
X00102
X00074
X00046
X00018
X-0001
X0001326Y0030898
Y0028
Y0025102
Y0022203
Y0019304
X0005
Y0022203
Y0025102
Y0028
Y0030898
X0032897Y0051142
X0059348Y0046031
Y0039382
X0065385Y0049213
X0067189Y0050788
X0073Y0052
X0072Y0054
X0077Y0031302
X0094
X0093826Y004
X0091661
X0089
X0101Y0024
Y0018
X011Y0008
X011374Y0008059
X012Y0011
X0123441Y0014441
X0117Y0025
X0117559Y0035
X0132Y0042
X0133Y0054
X0158
X01608
X01636
X01664
X01692
X0172
Y0047
X01692
X01664
X01636
X01608
X0158
X0173Y0032
X0176Y0034
X0181Y0036
X01838
X01866
X01894
X01922
X0195
X0193326Y0030898
Y0028
Y0025102
Y0022203
Y0019304
X0197
Y0022203
Y0025102
Y0028
Y0030898
X0191Y0014
X01882
X01854
X01826
X01798
X0177
X0072Y0018
X0066559Y0006
X0062Y0064
X0061004Y0067996
X0061Y0072
X0057542Y0069295
X0059Y0084441
X0064Y00845
X0072631Y0088862
X0075866Y0086847
X0079441Y0091
X0091441
X0091485Y00845
X0096469Y0084532
X0101485Y0084476
Y0072341
X0090125Y0060484
X008056Y0060396
X0082Y0066
X01225Y0064
X0122Y0081382
X01275
X0133
Y009
X01275
X0127252Y0094937
X0122Y009
X0105335Y0094059
X0090329Y0102465
X0099963Y0112441
X0158Y0107
Y01042
Y01014
Y00986
Y00958
Y0093
X0162
Y00958
Y00986
Y01014
Y01042
Y0107
X0159412Y0066749
X0156514
X0153615
X0150717
X0147818
Y0063075
X0150717
X0153615
X0156514
X0159412
X0050789Y0064
Y0058775
X0045Y0058
X0042
Y0061
X0045
X0047Y0076
X0051Y0084
X0047392Y0090263
X0029Y0091
Y0088488
X003Y0081
X0021638Y0085575
Y0102446
X0023118Y0109559
X0004708Y0102425
Y0085575
T02
X0079063Y0046063
X0079064Y0050001
X0083
Y0053937
X0079064
X0086937
Y005
Y0046063
X0083002Y0046065
T04
X0071378Y0099142
X0048622
T06
X0005158Y0055126
X0024843
Y0063
Y0070874
X0005158
Y0063
T07
X0123709Y0106114
X0138669
T08
X0141Y0012
X0161
T09
X0090551Y0007874
X0165354Y0037008
X0189126Y0110126
X0033465Y0110236
T10
X016971Y0069
Y0088291
M30
