G04*
G04 #@! TF.GenerationSoftware,Altium Limited,Altium Designer,22.2.1 (43)*
G04*
G04 Layer_Color=8388736*
%FSLAX25Y25*%
%MOIN*%
G70*
G04*
G04 #@! TF.SameCoordinates,7E0105E5-CDA3-4412-BB16-D98C73C22E17*
G04*
G04*
G04 #@! TF.FilePolarity,Negative*
G04*
G01*
G75*
%ADD55R,0.03800X0.03800*%
G04:AMPARAMS|DCode=56|XSize=48mil|YSize=43mil|CornerRadius=0mil|HoleSize=0mil|Usage=FLASHONLY|Rotation=180.000|XOffset=0mil|YOffset=0mil|HoleType=Round|Shape=Octagon|*
%AMOCTAGOND56*
4,1,8,-0.02400,0.01075,-0.02400,-0.01075,-0.01325,-0.02150,0.01325,-0.02150,0.02400,-0.01075,0.02400,0.01075,0.01325,0.02150,-0.01325,0.02150,-0.02400,0.01075,0.0*
%
%ADD56OCTAGOND56*%

%ADD57R,0.04800X0.04300*%
%ADD58R,0.16148X0.16148*%
%ADD59R,0.01187X0.03018*%
%ADD60R,0.03018X0.01187*%
%ADD61R,0.03800X0.03800*%
%ADD62R,0.05120X0.03550*%
%ADD63R,0.05120X0.03160*%
%ADD64R,0.02965X0.06706*%
%ADD65O,0.02965X0.06706*%
%ADD66R,0.13398X0.09855*%
%ADD67R,0.02769X0.05524*%
%ADD68R,0.05918X0.01981*%
%ADD69R,0.09461X0.07887*%
%ADD70R,0.02572X0.04737*%
%ADD71R,0.03943X0.12211*%
%ADD72R,0.04337X0.05518*%
G04:AMPARAMS|DCode=73|XSize=51.24mil|YSize=35.5mil|CornerRadius=0mil|HoleSize=0mil|Usage=FLASHONLY|Rotation=45.000|XOffset=0mil|YOffset=0mil|HoleType=Round|Shape=Rectangle|*
%AMROTATEDRECTD73*
4,1,4,-0.00557,-0.03067,-0.03067,-0.00557,0.00557,0.03067,0.03067,0.00557,-0.00557,-0.03067,0.0*
%
%ADD73ROTATEDRECTD73*%

G04:AMPARAMS|DCode=74|XSize=51.24mil|YSize=35.5mil|CornerRadius=0mil|HoleSize=0mil|Usage=FLASHONLY|Rotation=315.000|XOffset=0mil|YOffset=0mil|HoleType=Round|Shape=Rectangle|*
%AMROTATEDRECTD74*
4,1,4,-0.03067,0.00557,-0.00557,0.03067,0.03067,-0.00557,0.00557,-0.03067,-0.03067,0.00557,0.0*
%
%ADD74ROTATEDRECTD74*%

%ADD75R,0.05918X0.05524*%
%ADD76R,0.08674X0.04147*%
%ADD77R,0.08674X0.13398*%
%ADD78R,0.04737X0.03950*%
G04:AMPARAMS|DCode=79|XSize=47.37mil|YSize=39.5mil|CornerRadius=0mil|HoleSize=0mil|Usage=FLASHONLY|Rotation=180.000|XOffset=0mil|YOffset=0mil|HoleType=Round|Shape=Octagon|*
%AMOCTAGOND79*
4,1,8,-0.02368,0.00987,-0.02368,-0.00987,-0.01381,-0.01975,0.01381,-0.01975,0.02368,-0.00987,0.02368,0.00987,0.01381,0.01975,-0.01381,0.01975,-0.02368,0.00987,0.0*
%
%ADD79OCTAGOND79*%

%ADD80R,0.01981X0.06706*%
%ADD81R,0.07887X0.02965*%
%ADD82O,0.07887X0.02965*%
%ADD83R,0.05524X0.03359*%
%ADD84R,0.10642X0.05524*%
%ADD85R,0.21076X0.12611*%
%ADD86O,0.07880X0.04730*%
%ADD87R,0.09855X0.09855*%
%ADD88C,0.09855*%
%ADD89C,0.05131*%
%ADD90C,0.06706*%
%ADD91R,0.06706X0.06706*%
%ADD92C,0.12611*%
%ADD93C,0.05721*%
%ADD94O,0.04737X0.09068*%
%ADD95O,0.04737X0.07099*%
%ADD96C,0.03359*%
D55*
X23118Y113000D02*
D03*
X18000D02*
D03*
X70441Y11000D02*
D03*
X75559D02*
D03*
X109000Y35000D02*
D03*
X114118D02*
D03*
X82882Y91000D02*
D03*
X88000D02*
D03*
X54289Y64000D02*
D03*
X59407D02*
D03*
X54289Y58775D02*
D03*
X59407D02*
D03*
X54289Y53549D02*
D03*
X59407D02*
D03*
X64559Y28000D02*
D03*
X59441D02*
D03*
X54441Y34000D02*
D03*
X59559D02*
D03*
X48614Y40033D02*
D03*
X43496D02*
D03*
X38118Y40000D02*
D03*
X33000D02*
D03*
X114142Y30382D02*
D03*
X109024D02*
D03*
D56*
X6000Y113000D02*
D03*
X70000Y6000D02*
D03*
D57*
X12000Y113000D02*
D03*
X76000Y6000D02*
D03*
D58*
X83000Y50001D02*
D03*
D59*
X72764Y63416D02*
D03*
X74338D02*
D03*
X75913D02*
D03*
X77488D02*
D03*
X79063D02*
D03*
X80638D02*
D03*
X82212D02*
D03*
X83787D02*
D03*
X85362D02*
D03*
X86937D02*
D03*
X88512D02*
D03*
X90086D02*
D03*
X91661D02*
D03*
X93236D02*
D03*
Y36585D02*
D03*
X91661D02*
D03*
X90086D02*
D03*
X88512D02*
D03*
X86937D02*
D03*
X85362D02*
D03*
X83787D02*
D03*
X82212D02*
D03*
X80638D02*
D03*
X79063D02*
D03*
X77488D02*
D03*
X75913D02*
D03*
X74338D02*
D03*
X72764D02*
D03*
D60*
X96415Y60237D02*
D03*
Y58662D02*
D03*
Y57087D02*
D03*
Y55513D02*
D03*
Y53938D02*
D03*
Y52363D02*
D03*
Y50788D02*
D03*
Y49213D02*
D03*
Y47639D02*
D03*
Y46064D02*
D03*
Y44489D02*
D03*
Y42914D02*
D03*
Y41339D02*
D03*
Y39765D02*
D03*
X69584D02*
D03*
Y41339D02*
D03*
Y42914D02*
D03*
Y44489D02*
D03*
Y46064D02*
D03*
Y47639D02*
D03*
Y49213D02*
D03*
Y50788D02*
D03*
Y52363D02*
D03*
Y53938D02*
D03*
Y55513D02*
D03*
Y57087D02*
D03*
Y58662D02*
D03*
Y60237D02*
D03*
D61*
X27000Y21118D02*
D03*
Y16000D02*
D03*
X143000Y50441D02*
D03*
Y55559D02*
D03*
X154000Y38535D02*
D03*
Y33417D02*
D03*
X132000Y38559D02*
D03*
Y33441D02*
D03*
X127000Y38559D02*
D03*
Y33441D02*
D03*
X88098Y22615D02*
D03*
Y27733D02*
D03*
X82098Y22615D02*
D03*
Y27733D02*
D03*
X120000Y19559D02*
D03*
Y14441D02*
D03*
X127500Y84882D02*
D03*
Y90000D02*
D03*
X122000Y84882D02*
D03*
Y90000D02*
D03*
X101485Y80976D02*
D03*
Y75858D02*
D03*
X96485Y81000D02*
D03*
Y75882D02*
D03*
X91485D02*
D03*
Y81000D02*
D03*
X69000D02*
D03*
Y75882D02*
D03*
X64000D02*
D03*
Y81000D02*
D03*
X59000D02*
D03*
Y75882D02*
D03*
X50000D02*
D03*
Y81000D02*
D03*
X44322Y75882D02*
D03*
Y81000D02*
D03*
X38678Y75858D02*
D03*
Y80976D02*
D03*
X33000Y75858D02*
D03*
Y80976D02*
D03*
X59348Y42882D02*
D03*
Y48000D02*
D03*
X54290Y42882D02*
D03*
Y48000D02*
D03*
X27000Y45559D02*
D03*
Y40441D02*
D03*
X22000Y45559D02*
D03*
Y40441D02*
D03*
X133000Y90000D02*
D03*
X27000Y11118D02*
D03*
X133000Y84882D02*
D03*
X27000Y6000D02*
D03*
D62*
X12480Y35630D02*
D03*
Y14370D02*
D03*
X184520D02*
D03*
Y35630D02*
D03*
D63*
X12480Y30910D02*
D03*
Y26970D02*
D03*
Y23030D02*
D03*
Y19090D02*
D03*
X184520D02*
D03*
Y23030D02*
D03*
Y26970D02*
D03*
Y30910D02*
D03*
D64*
X32897Y47642D02*
D03*
D65*
X36834D02*
D03*
X40771D02*
D03*
X48645D02*
D03*
X44708D02*
D03*
X32897Y68527D02*
D03*
X36834D02*
D03*
X48645D02*
D03*
X44708D02*
D03*
X40771D02*
D03*
D66*
Y58084D02*
D03*
D67*
X143000Y42910D02*
D03*
X146740Y33910D02*
D03*
X139260D02*
D03*
D68*
X127941Y52231D02*
D03*
Y66011D02*
D03*
Y64042D02*
D03*
Y62074D02*
D03*
Y60105D02*
D03*
Y58137D02*
D03*
Y56168D02*
D03*
Y54200D02*
D03*
D69*
X118110Y72507D02*
D03*
X118110Y45735D02*
D03*
D70*
X113740Y11500D02*
D03*
X110000D02*
D03*
X106260D02*
D03*
Y22500D02*
D03*
X110000D02*
D03*
X113740D02*
D03*
D71*
X149694Y104146D02*
D03*
X112686D02*
D03*
D72*
X127252Y98437D02*
D03*
X135126D02*
D03*
X119379D02*
D03*
X143001D02*
D03*
D73*
X116702Y114422D02*
D03*
D74*
X145678Y114423D02*
D03*
D75*
X84134Y83346D02*
D03*
X75866D02*
D03*
Y76653D02*
D03*
X84134D02*
D03*
D76*
X35000Y26055D02*
D03*
Y17000D02*
D03*
Y7945D02*
D03*
D77*
X60500Y17000D02*
D03*
D78*
X40512Y88000D02*
D03*
D79*
X29488D02*
D03*
D80*
X57047Y93079D02*
D03*
X60984D02*
D03*
X62953D02*
D03*
X59016D02*
D03*
X70039D02*
D03*
X51142D02*
D03*
X68858D02*
D03*
X49961D02*
D03*
X73189D02*
D03*
X72008D02*
D03*
X66890D02*
D03*
X64921D02*
D03*
X55079D02*
D03*
X53110D02*
D03*
X47992D02*
D03*
X46811D02*
D03*
D81*
X84665Y112500D02*
D03*
D82*
Y107500D02*
D03*
X105335D02*
D03*
Y102500D02*
D03*
X84665D02*
D03*
Y97500D02*
D03*
X105335Y112500D02*
D03*
Y97500D02*
D03*
D83*
X21638Y97461D02*
D03*
X4708D02*
D03*
Y90539D02*
D03*
X21638D02*
D03*
X4708Y82075D02*
D03*
X21638D02*
D03*
Y105925D02*
D03*
X4708D02*
D03*
D84*
X153568Y64866D02*
D03*
Y74709D02*
D03*
Y82583D02*
D03*
Y92425D02*
D03*
D85*
X164986Y50299D02*
D03*
Y106992D02*
D03*
D86*
X-2480Y7990D02*
D03*
Y42010D02*
D03*
X12480Y7990D02*
D03*
Y42010D02*
D03*
X199480D02*
D03*
Y7990D02*
D03*
X184520Y42010D02*
D03*
Y7990D02*
D03*
D87*
X141000Y12000D02*
D03*
D88*
X161000D02*
D03*
D89*
X123709Y106114D02*
D03*
X138669D02*
D03*
D90*
X24843Y55126D02*
D03*
X5158Y63000D02*
D03*
Y55126D02*
D03*
X24843Y70874D02*
D03*
Y63000D02*
D03*
D91*
X5158Y70874D02*
D03*
D92*
X33465Y110236D02*
D03*
X90551Y7874D02*
D03*
X165354Y37008D02*
D03*
X189126Y110126D02*
D03*
D93*
X169710Y69000D02*
D03*
Y88291D02*
D03*
D94*
X77028Y97173D02*
D03*
X42972D02*
D03*
D95*
X77028Y112921D02*
D03*
X42972D02*
D03*
D96*
X48622Y99142D02*
D03*
X71378D02*
D03*
M02*
