G04*
G04 #@! TF.GenerationSoftware,Altium Limited,Altium Designer,22.2.1 (43)*
G04*
G04 Layer_Physical_Order=3*
G04 Layer_Color=128*
%FSLAX25Y25*%
%MOIN*%
G70*
G04*
G04 #@! TF.SameCoordinates,7E0105E5-CDA3-4412-BB16-D98C73C22E17*
G04*
G04*
G04 #@! TF.FilePolarity,Negative*
G04*
G01*
G75*
%ADD122C,0.04000*%
%ADD125C,0.08724*%
%ADD126O,0.09910X0.06760*%
%ADD127C,0.08331*%
%ADD128C,0.07543*%
%ADD130C,0.08921*%
%ADD133C,0.06559*%
%ADD134C,0.04787*%
%ADD135C,0.12268*%
%ADD136O,0.06362X0.10693*%
%ADD137O,0.06362X0.08724*%
%ADD138C,0.05200*%
G36*
X139896Y107949D02*
X140505Y107340D01*
X140834Y106544D01*
Y106114D01*
Y105683D01*
X140505Y104887D01*
X139896Y104278D01*
X139100Y103948D01*
X138238D01*
X137443Y104278D01*
X136833Y104887D01*
X136504Y105683D01*
Y106114D01*
Y106544D01*
X136833Y107340D01*
X137443Y107949D01*
X138238Y108279D01*
X139100D01*
X139896Y107949D01*
D02*
G37*
G36*
X124936D02*
X125545Y107340D01*
X125874Y106544D01*
Y106114D01*
Y105683D01*
X125545Y104887D01*
X124936Y104278D01*
X124140Y103948D01*
X123278D01*
X122482Y104278D01*
X121873Y104887D01*
X121544Y105683D01*
Y106114D01*
Y106544D01*
X121873Y107340D01*
X122482Y107949D01*
X123278Y108279D01*
X124140D01*
X124936Y107949D01*
D02*
G37*
D122*
X124140Y108279D02*
X124936Y107949D01*
X125545Y107340D01*
X125874Y106544D01*
Y106114D02*
Y106544D01*
Y105683D02*
Y106114D01*
X125545Y104887D02*
X125874Y105683D01*
X124936Y104278D02*
X125545Y104887D01*
X124140Y103948D02*
X124936Y104278D01*
X123278Y103948D02*
X124140D01*
X122482Y104278D02*
X123278Y103948D01*
X121873Y104887D02*
X122482Y104278D01*
X121544Y105683D02*
X121873Y104887D01*
X121544Y105683D02*
Y106114D01*
Y106544D01*
X121873Y107340D01*
X122482Y107949D01*
X123278Y108279D01*
X124140D01*
X139100D02*
X139896Y107949D01*
X140505Y107340D01*
X140834Y106544D01*
Y106114D02*
Y106544D01*
Y105683D02*
Y106114D01*
X140505Y104887D02*
X140834Y105683D01*
X139896Y104278D02*
X140505Y104887D01*
X139100Y103948D02*
X139896Y104278D01*
X138238Y103948D02*
X139100D01*
X137443Y104278D02*
X138238Y103948D01*
X136833Y104887D02*
X137443Y104278D01*
X136504Y105683D02*
X136833Y104887D01*
X136504Y105683D02*
Y106114D01*
Y106544D01*
X136833Y107340D01*
X137443Y107949D01*
X138238Y108279D01*
X139100D01*
X196850Y46000D02*
Y118110D01*
X0Y46000D02*
Y118110D01*
X-5000Y46000D02*
X0D01*
X-8000Y43000D02*
X-5000Y46000D01*
X-8000Y7000D02*
Y43000D01*
Y7000D02*
X-5000Y4000D01*
X0D01*
Y0D02*
Y4000D01*
X196850Y0D02*
Y4000D01*
X201850D01*
X204850Y7000D01*
Y43000D01*
X201850Y46000D02*
X204850Y43000D01*
X196850Y46000D02*
X201850D01*
X0Y118110D02*
X196850D01*
X0Y0D02*
X196850D01*
D125*
X141000Y12000D02*
D03*
X161000D02*
D03*
D126*
X-2480Y7990D02*
D03*
Y42010D02*
D03*
X12480Y7990D02*
D03*
Y42010D02*
D03*
X199480D02*
D03*
Y7990D02*
D03*
X184520Y42010D02*
D03*
Y7990D02*
D03*
D127*
X123709Y106114D02*
D03*
X138669D02*
D03*
D128*
X24843Y55126D02*
D03*
X5158Y70874D02*
D03*
Y63000D02*
D03*
Y55126D02*
D03*
X24843Y70874D02*
D03*
Y63000D02*
D03*
D130*
X169710Y69000D02*
D03*
Y88291D02*
D03*
D133*
X48622Y99142D02*
D03*
X71378D02*
D03*
D134*
X110000Y8000D02*
D03*
X13000Y14000D02*
D03*
X7400D02*
D03*
X10200D02*
D03*
X4600D02*
D03*
X1800D02*
D03*
X-1000D02*
D03*
X13000Y36000D02*
D03*
X7400D02*
D03*
X10200D02*
D03*
X4600D02*
D03*
X1800D02*
D03*
X-1000D02*
D03*
X22000Y16000D02*
D03*
Y18901D02*
D03*
X40500Y40000D02*
D03*
X42000Y61000D02*
D03*
Y58000D02*
D03*
Y55000D02*
D03*
X45000D02*
D03*
Y58000D02*
D03*
Y61000D02*
D03*
X162000Y93000D02*
D03*
Y98600D02*
D03*
Y95800D02*
D03*
Y101400D02*
D03*
Y104200D02*
D03*
Y107000D02*
D03*
X158000Y93000D02*
D03*
Y98600D02*
D03*
Y95800D02*
D03*
Y101400D02*
D03*
Y104200D02*
D03*
Y107000D02*
D03*
Y47000D02*
D03*
X163600D02*
D03*
X160800D02*
D03*
X166400D02*
D03*
X169200D02*
D03*
X172000D02*
D03*
X158000Y54000D02*
D03*
X163600D02*
D03*
X160800D02*
D03*
X166400D02*
D03*
X169200D02*
D03*
X172000D02*
D03*
X181000Y36000D02*
D03*
X186600D02*
D03*
X183800D02*
D03*
X189400D02*
D03*
X192200D02*
D03*
X195000D02*
D03*
X191000Y14000D02*
D03*
X188200D02*
D03*
X185400D02*
D03*
X179800D02*
D03*
X182600D02*
D03*
X177000D02*
D03*
X79441Y91000D02*
D03*
X66559Y6000D02*
D03*
X117559Y35000D02*
D03*
X101000Y18000D02*
D03*
X117000Y25000D02*
D03*
X54290Y39382D02*
D03*
X41000Y52000D02*
D03*
X40771Y49061D02*
D03*
X65385Y49213D02*
D03*
X67189Y50788D02*
D03*
X50789Y58775D02*
D03*
X82000Y66000D02*
D03*
X57542Y69295D02*
D03*
X61004Y67996D02*
D03*
X73000Y52000D02*
D03*
X72000Y54000D02*
D03*
X40000Y34165D02*
D03*
Y32000D02*
D03*
X30000Y34000D02*
D03*
X21000D02*
D03*
X38118Y36500D02*
D03*
X173000Y32000D02*
D03*
X176000Y34000D02*
D03*
X101000Y24000D02*
D03*
X122000Y90000D02*
D03*
X133000D02*
D03*
X127500D02*
D03*
X30000Y81000D02*
D03*
X29000Y88488D02*
D03*
Y91000D02*
D03*
X47392Y90263D02*
D03*
X72631Y88862D02*
D03*
X51000Y84000D02*
D03*
X21638Y102446D02*
D03*
X61000Y72000D02*
D03*
X47000Y76000D02*
D03*
X89000Y40000D02*
D03*
X91661D02*
D03*
X93826D02*
D03*
X122500Y64000D02*
D03*
X122000Y81382D02*
D03*
X127500D02*
D03*
X133000D02*
D03*
X127252Y94937D02*
D03*
X90329Y102465D02*
D03*
X4708Y102425D02*
D03*
Y85575D02*
D03*
X21638D02*
D03*
X101485Y84476D02*
D03*
X91485Y84500D02*
D03*
X75866Y86847D02*
D03*
X64000Y84500D02*
D03*
X50789Y64000D02*
D03*
X59348Y39382D02*
D03*
X23500Y6000D02*
D03*
X22000Y36941D02*
D03*
X27000D02*
D03*
X50941Y34000D02*
D03*
X72000Y18000D02*
D03*
X197000Y30898D02*
D03*
X193326Y28000D02*
D03*
Y30898D02*
D03*
X197000Y28000D02*
D03*
Y25102D02*
D03*
X193326D02*
D03*
X159412Y66749D02*
D03*
X156514Y63075D02*
D03*
Y66749D02*
D03*
X159412Y63075D02*
D03*
X197000Y22203D02*
D03*
Y19304D02*
D03*
X193326D02*
D03*
Y22203D02*
D03*
X150717Y66749D02*
D03*
X153615D02*
D03*
X150717Y63075D02*
D03*
X147818D02*
D03*
Y66749D02*
D03*
X153615Y63075D02*
D03*
X5000Y25102D02*
D03*
Y22203D02*
D03*
Y30898D02*
D03*
X1326Y28000D02*
D03*
Y30898D02*
D03*
X5000Y28000D02*
D03*
X1326Y22203D02*
D03*
Y25102D02*
D03*
X5000Y19304D02*
D03*
X1326D02*
D03*
D135*
X33465Y110236D02*
D03*
X90551Y7874D02*
D03*
X165354Y37008D02*
D03*
X189126Y110126D02*
D03*
D136*
X77028Y97173D02*
D03*
X42972D02*
D03*
D137*
X77028Y112921D02*
D03*
X42972D02*
D03*
D138*
X83000Y50001D02*
D03*
Y53937D02*
D03*
X83002Y46065D02*
D03*
X79063Y46063D02*
D03*
X86937D02*
D03*
X79064Y53937D02*
D03*
Y50001D02*
D03*
X86937Y53937D02*
D03*
Y50000D02*
D03*
M02*
