G04*
G04 #@! TF.GenerationSoftware,Altium Limited,Altium Designer,22.2.1 (43)*
G04*
G04 Layer_Color=16711935*
%FSLAX25Y25*%
%MOIN*%
G70*
G04*
G04 #@! TF.SameCoordinates,7E0105E5-CDA3-4412-BB16-D98C73C22E17*
G04*
G04*
G04 #@! TF.FilePolarity,Negative*
G04*
G01*
G75*
%ADD86O,0.07880X0.04730*%
%ADD87R,0.09855X0.09855*%
%ADD88C,0.09855*%
%ADD89C,0.05131*%
%ADD90C,0.06706*%
%ADD91R,0.06706X0.06706*%
%ADD92C,0.12611*%
%ADD93C,0.05721*%
%ADD94O,0.04737X0.09068*%
%ADD95O,0.04737X0.07099*%
%ADD96C,0.03359*%
%ADD143R,0.06300X0.07000*%
D86*
X-2480Y7990D02*
D03*
Y42010D02*
D03*
X12480Y7990D02*
D03*
Y42010D02*
D03*
X199480D02*
D03*
Y7990D02*
D03*
X184520Y42010D02*
D03*
Y7990D02*
D03*
D87*
X141000Y12000D02*
D03*
D88*
X161000D02*
D03*
D89*
X123709Y106114D02*
D03*
X138669D02*
D03*
D90*
X24843Y55126D02*
D03*
X5158Y63000D02*
D03*
Y55126D02*
D03*
X24843Y70874D02*
D03*
Y63000D02*
D03*
D91*
X5158Y70874D02*
D03*
D92*
X33465Y110236D02*
D03*
X90551Y7874D02*
D03*
X165354Y37008D02*
D03*
X189126Y110126D02*
D03*
D93*
X169710Y69000D02*
D03*
Y88291D02*
D03*
D94*
X77028Y97173D02*
D03*
X42972D02*
D03*
D95*
X77028Y112921D02*
D03*
X42972D02*
D03*
D96*
X48622Y99142D02*
D03*
X71378D02*
D03*
D143*
X100291Y25000D02*
D03*
X111512D02*
D03*
M02*
