G04*
G04 #@! TF.GenerationSoftware,Altium Limited,Altium Designer,22.2.1 (43)*
G04*
G04 Layer_Color=255*
%FSLAX25Y25*%
%MOIN*%
G70*
G04*
G04 #@! TF.SameCoordinates,7E0105E5-CDA3-4412-BB16-D98C73C22E17*
G04*
G04*
G04 #@! TF.FilePolarity,Positive*
G04*
G01*
G75*
%ADD109O,0.07480X0.04330*%
%ADD110R,0.09055X0.09055*%
%ADD111C,0.09055*%
%ADD112C,0.04331*%
%ADD113C,0.05906*%
%ADD114R,0.05906X0.05906*%
%ADD115C,0.11811*%
%ADD116C,0.04921*%
%ADD117O,0.03937X0.08268*%
%ADD118O,0.03937X0.06299*%
%ADD119C,0.02559*%
%ADD139R,0.05500X0.06200*%
D109*
X-2480Y7990D02*
D03*
Y42010D02*
D03*
X12480Y7990D02*
D03*
Y42010D02*
D03*
X199480D02*
D03*
Y7990D02*
D03*
X184520Y42010D02*
D03*
Y7990D02*
D03*
D110*
X141000Y12000D02*
D03*
D111*
X161000D02*
D03*
D112*
X123709Y106114D02*
D03*
X138669D02*
D03*
D113*
X24843Y55126D02*
D03*
X5158Y63000D02*
D03*
Y55126D02*
D03*
X24843Y70874D02*
D03*
Y63000D02*
D03*
D114*
X5158Y70874D02*
D03*
D115*
X33465Y110236D02*
D03*
X90551Y7874D02*
D03*
X165354Y37008D02*
D03*
X189126Y110126D02*
D03*
D116*
X169710Y69000D02*
D03*
Y88291D02*
D03*
D117*
X77028Y97173D02*
D03*
X42972D02*
D03*
D118*
X77028Y112921D02*
D03*
X42972D02*
D03*
D119*
X48622Y99142D02*
D03*
X71378D02*
D03*
D139*
X100291Y25000D02*
D03*
X111512D02*
D03*
M02*
