G04*
G04 #@! TF.GenerationSoftware,Altium Limited,Altium Designer,22.2.1 (43)*
G04*
G04 Layer_Color=32896*
%FSLAX25Y25*%
%MOIN*%
G70*
G04*
G04 #@! TF.SameCoordinates,7E0105E5-CDA3-4412-BB16-D98C73C22E17*
G04*
G04*
G04 #@! TF.FilePolarity,Positive*
G04*
G01*
G75*
%ADD15C,0.01000*%
%ADD144C,0.00026*%
G36*
X76517Y58556D02*
X76560Y58540D01*
X76599Y58518D01*
X76604Y58512D01*
X76609D01*
X76664Y58474D01*
X76708Y58436D01*
X76735Y58403D01*
X76740Y58398D01*
X76746Y58392D01*
X76784Y58338D01*
X76817Y58288D01*
X76828Y58267D01*
X76839Y58256D01*
X76844Y58245D01*
Y58239D01*
X76866Y58179D01*
X76877Y58130D01*
X76882Y58108D01*
Y58092D01*
Y58086D01*
Y58081D01*
X76877Y58048D01*
X76866Y58026D01*
X76855Y58004D01*
X76850Y57999D01*
X76817Y57977D01*
X76790Y57961D01*
X76768Y57950D01*
X76757Y57944D01*
X76713Y57928D01*
X76675Y57923D01*
X76642Y57912D01*
X76631D01*
X76577Y57906D01*
X76533Y57901D01*
X76489D01*
X76424Y57906D01*
X76364Y57923D01*
X76315Y57939D01*
X76276Y57966D01*
X76249Y57988D01*
X76227Y58004D01*
X76216Y58021D01*
X76211Y58026D01*
X76178Y58075D01*
X76156Y58119D01*
X76145Y58152D01*
X76140Y58157D01*
Y58163D01*
X76123Y58217D01*
X76118Y58267D01*
X76113Y58288D01*
Y58299D01*
Y58310D01*
Y58316D01*
X76118Y58365D01*
X76123Y58403D01*
X76135Y58425D01*
X76140Y58436D01*
X76162Y58469D01*
X76184Y58490D01*
X76200Y58507D01*
X76211Y58512D01*
X76244Y58529D01*
X76282Y58540D01*
X76309Y58551D01*
X76320D01*
X76369Y58556D01*
X76418Y58561D01*
X76468D01*
X76517Y58556D01*
D02*
G37*
G36*
X49599Y58556D02*
X49643Y58540D01*
X49681Y58518D01*
X49686Y58512D01*
X49692D01*
X49746Y58474D01*
X49790Y58436D01*
X49817Y58403D01*
X49823Y58398D01*
X49828Y58392D01*
X49866Y58337D01*
X49899Y58288D01*
X49910Y58267D01*
X49921Y58256D01*
X49926Y58245D01*
Y58239D01*
X49948Y58179D01*
X49959Y58130D01*
X49965Y58108D01*
Y58092D01*
Y58086D01*
Y58081D01*
X49959Y58048D01*
X49948Y58026D01*
X49937Y58004D01*
X49932Y57999D01*
X49899Y57977D01*
X49872Y57961D01*
X49850Y57950D01*
X49839Y57944D01*
X49795Y57928D01*
X49757Y57923D01*
X49724Y57912D01*
X49714D01*
X49659Y57906D01*
X49615Y57901D01*
X49572D01*
X49506Y57906D01*
X49446Y57923D01*
X49397Y57939D01*
X49359Y57966D01*
X49331Y57988D01*
X49310Y58004D01*
X49299Y58021D01*
X49293Y58026D01*
X49260Y58075D01*
X49238Y58119D01*
X49228Y58152D01*
X49222Y58157D01*
Y58163D01*
X49206Y58217D01*
X49200Y58267D01*
X49195Y58288D01*
Y58299D01*
Y58310D01*
Y58316D01*
X49200Y58365D01*
X49206Y58403D01*
X49217Y58425D01*
X49222Y58436D01*
X49244Y58469D01*
X49266Y58490D01*
X49282Y58507D01*
X49293Y58512D01*
X49326Y58529D01*
X49364Y58540D01*
X49391Y58551D01*
X49402D01*
X49451Y58556D01*
X49501Y58561D01*
X49550D01*
X49599Y58556D01*
D02*
G37*
G36*
X68851Y58283D02*
X68889Y58277D01*
X68922Y58267D01*
X68949Y58250D01*
X68971Y58234D01*
X68987Y58223D01*
X68993Y58217D01*
X68998Y58212D01*
X69042Y58152D01*
X69075Y58086D01*
X69086Y58059D01*
X69096Y58043D01*
X69102Y58026D01*
Y58021D01*
X69124Y57939D01*
X69140Y57863D01*
X69146Y57830D01*
X69151Y57808D01*
X69157Y57792D01*
Y57786D01*
X69168Y57699D01*
X69178Y57661D01*
X69184Y57622D01*
X69189Y57595D01*
X69195Y57573D01*
X69200Y57562D01*
Y57557D01*
X69206Y57524D01*
X69211Y57486D01*
X69217Y57453D01*
X69222Y57448D01*
Y57442D01*
X69233Y57388D01*
X69249Y57338D01*
X69255Y57316D01*
Y57300D01*
X69260Y57289D01*
Y57284D01*
X69271Y57224D01*
X69288Y57164D01*
X69293Y57142D01*
Y57125D01*
X69298Y57114D01*
Y57109D01*
X69315Y57049D01*
X69326Y57000D01*
X69337Y56962D01*
X69342Y56956D01*
Y56951D01*
X69353Y56902D01*
X69370Y56863D01*
X69375Y56841D01*
X69380Y56831D01*
X69391Y56803D01*
X69402Y56792D01*
X69408Y56787D01*
X69473D01*
X69501Y56782D01*
X69511D01*
X69561Y56776D01*
X69604Y56770D01*
X69637Y56765D01*
X69648D01*
X69697Y56760D01*
X69741D01*
X69768Y56754D01*
X69779D01*
X69817Y56749D01*
X69943D01*
X69970Y56743D01*
X69981D01*
X70030Y56738D01*
X70068Y56727D01*
X70096Y56721D01*
X70101Y56716D01*
X70107D01*
X70145Y56700D01*
X70178Y56683D01*
X70199Y56667D01*
X70205Y56661D01*
X70227Y56634D01*
X70238Y56607D01*
X70243Y56585D01*
Y56574D01*
X70238Y56503D01*
X70232Y56448D01*
X70227Y56432D01*
Y56416D01*
X70221Y56410D01*
Y56405D01*
X70199Y56366D01*
X70178Y56334D01*
X70161Y56312D01*
X70156Y56306D01*
X70117Y56285D01*
X70079Y56268D01*
X70047Y56263D01*
X70041Y56257D01*
X70036D01*
X69976Y56252D01*
X69915Y56246D01*
X69872D01*
X69948Y56170D01*
X70003Y56121D01*
X70052Y56077D01*
X70096Y56033D01*
X70129Y56006D01*
X70150Y55984D01*
X70156Y55979D01*
X70276Y55875D01*
X70336Y55826D01*
X70390Y55788D01*
X70434Y55755D01*
X70467Y55728D01*
X70489Y55711D01*
X70500Y55706D01*
X70582Y55651D01*
X70653Y55608D01*
X70685Y55591D01*
X70707Y55575D01*
X70724Y55569D01*
X70729Y55564D01*
X70816Y55520D01*
X70860Y55498D01*
X70898Y55482D01*
X70931Y55466D01*
X70958Y55455D01*
X70975Y55444D01*
X70980D01*
X71078Y55411D01*
X71122Y55395D01*
X71160Y55384D01*
X71199Y55373D01*
X71226Y55367D01*
X71242Y55362D01*
X71248D01*
X71341Y55345D01*
X71384Y55340D01*
X71417D01*
X71450Y55335D01*
X71494D01*
X71559Y55340D01*
X71614Y55345D01*
X71635Y55351D01*
X71652D01*
X71657Y55356D01*
X71663D01*
X71712Y55378D01*
X71750Y55400D01*
X71777Y55417D01*
X71788Y55422D01*
X71821Y55455D01*
X71848Y55482D01*
X71865Y55504D01*
X71870Y55515D01*
X71887Y55558D01*
X71898Y55591D01*
X71903Y55619D01*
Y55629D01*
X71794Y55711D01*
X71750Y55744D01*
X71706Y55771D01*
X71674Y55799D01*
X71652Y55815D01*
X71635Y55826D01*
X71630Y55831D01*
X71548Y55897D01*
X71510Y55924D01*
X71477Y55951D01*
X71455Y55973D01*
X71433Y55990D01*
X71422Y55995D01*
X71417Y56001D01*
X71319Y56094D01*
X71226Y56181D01*
X71149Y56257D01*
X71089Y56328D01*
X71040Y56388D01*
X71002Y56437D01*
X70980Y56465D01*
X70975Y56476D01*
X70920Y56563D01*
X70882Y56645D01*
X70855Y56721D01*
X70838Y56787D01*
X70822Y56841D01*
X70816Y56885D01*
Y56912D01*
Y56923D01*
X70822Y57005D01*
X70827Y57076D01*
X70833Y57104D01*
X70838Y57125D01*
X70844Y57136D01*
Y57142D01*
X70871Y57218D01*
X70898Y57278D01*
X70909Y57300D01*
X70920Y57316D01*
X70926Y57328D01*
X70931Y57333D01*
X70980Y57388D01*
X71035Y57426D01*
X71057Y57442D01*
X71073Y57453D01*
X71084Y57459D01*
X71089D01*
X71160Y57486D01*
X71231Y57502D01*
X71264Y57508D01*
X71308D01*
X71373Y57502D01*
X71428Y57497D01*
X71455Y57491D01*
X71472Y57486D01*
X71482Y57480D01*
X71488D01*
X71553Y57459D01*
X71603Y57442D01*
X71624Y57431D01*
X71641Y57420D01*
X71652Y57415D01*
X71657D01*
X71712Y57382D01*
X71761Y57349D01*
X71794Y57322D01*
X71799Y57316D01*
X71805Y57311D01*
X71854Y57273D01*
X71892Y57235D01*
X71919Y57207D01*
X71930Y57202D01*
Y57196D01*
X71985Y57136D01*
X72028Y57076D01*
X72072Y57022D01*
X72110Y56973D01*
X72138Y56929D01*
X72160Y56891D01*
X72171Y56869D01*
X72176Y56863D01*
X72241Y56732D01*
X72269Y56672D01*
X72296Y56623D01*
X72312Y56574D01*
X72329Y56541D01*
X72334Y56519D01*
X72340Y56508D01*
X72378Y56377D01*
X72394Y56317D01*
X72405Y56263D01*
X72416Y56214D01*
X72422Y56181D01*
X72427Y56159D01*
Y56148D01*
X72443Y56017D01*
X72449Y55951D01*
Y55897D01*
X72454Y55853D01*
Y55815D01*
Y55793D01*
Y55782D01*
X72449Y55695D01*
X72443Y55613D01*
X72433Y55542D01*
X72416Y55471D01*
X72400Y55405D01*
X72383Y55351D01*
X72362Y55296D01*
X72340Y55247D01*
X72318Y55209D01*
X72296Y55171D01*
X72280Y55143D01*
X72263Y55116D01*
X72247Y55100D01*
X72236Y55083D01*
X72225Y55078D01*
Y55072D01*
X72181Y55029D01*
X72132Y54996D01*
X72023Y54936D01*
X71914Y54898D01*
X71810Y54865D01*
X71717Y54849D01*
X71679Y54843D01*
X71646D01*
X71614Y54838D01*
X71575D01*
X71439Y54849D01*
X71373Y54854D01*
X71319Y54865D01*
X71270Y54876D01*
X71231Y54881D01*
X71210Y54892D01*
X71199D01*
X71057Y54941D01*
X70991Y54969D01*
X70937Y54996D01*
X70887Y55018D01*
X70849Y55034D01*
X70827Y55045D01*
X70816Y55051D01*
X70675Y55133D01*
X70609Y55171D01*
X70549Y55209D01*
X70500Y55242D01*
X70461Y55269D01*
X70440Y55285D01*
X70429Y55291D01*
X70358Y55345D01*
X70292Y55395D01*
X70232Y55444D01*
X70178Y55487D01*
X70134Y55531D01*
X70096Y55558D01*
X70074Y55580D01*
X70068Y55586D01*
X69943Y55706D01*
X69888Y55760D01*
X69839Y55815D01*
X69801Y55859D01*
X69768Y55892D01*
X69746Y55919D01*
X69741Y55924D01*
X69632Y56055D01*
X69582Y56115D01*
X69539Y56170D01*
X69506Y56219D01*
X69484Y56245D01*
X69490Y56214D01*
X69495Y56186D01*
X69501Y56181D01*
Y56175D01*
X69511Y56121D01*
X69522Y56066D01*
X69528Y56044D01*
Y56028D01*
X69533Y56017D01*
Y56012D01*
X69544Y55941D01*
X69561Y55881D01*
X69566Y55853D01*
Y55831D01*
X69572Y55821D01*
Y55815D01*
X69588Y55744D01*
X69599Y55690D01*
X69604Y55668D01*
X69610Y55651D01*
X69615Y55640D01*
Y55635D01*
X69643Y55493D01*
X69659Y55427D01*
X69664Y55367D01*
X69675Y55318D01*
X69681Y55280D01*
X69686Y55258D01*
Y55247D01*
X69692Y55176D01*
X69697Y55111D01*
X69703Y55051D01*
Y55001D01*
X69708Y54958D01*
Y54925D01*
Y54903D01*
Y54898D01*
X69703Y54827D01*
X69697Y54767D01*
X69692Y54745D01*
Y54729D01*
X69686Y54718D01*
Y54712D01*
X69664Y54652D01*
X69637Y54603D01*
X69615Y54570D01*
X69610Y54565D01*
Y54559D01*
X69566Y54510D01*
X69528Y54477D01*
X69495Y54450D01*
X69490Y54445D01*
X69484D01*
X69430Y54417D01*
X69380Y54406D01*
X69359Y54401D01*
X69326D01*
X69288Y54406D01*
X69255Y54412D01*
X69233Y54417D01*
X69222Y54423D01*
X69178Y54439D01*
X69146Y54456D01*
X69124Y54466D01*
X69113Y54472D01*
X69075Y54499D01*
X69047Y54521D01*
X69031Y54543D01*
X69025Y54548D01*
X69004Y54576D01*
X68993Y54608D01*
X68987Y54630D01*
Y54636D01*
X68993Y54679D01*
X69004Y54712D01*
X69015Y54734D01*
X69020Y54739D01*
X69047Y54761D01*
X69075Y54783D01*
X69091Y54799D01*
X69102Y54805D01*
X69140Y54843D01*
X69151Y54854D01*
X69157Y54860D01*
X69173Y54898D01*
X69178Y54936D01*
X69184Y54969D01*
Y54980D01*
Y54985D01*
Y55007D01*
X69178Y55029D01*
Y55045D01*
Y55051D01*
X69173Y55089D01*
Y55122D01*
X69168Y55149D01*
Y55160D01*
X69162Y55203D01*
X69157Y55247D01*
X69151Y55274D01*
Y55280D01*
Y55285D01*
X69140Y55335D01*
X69135Y55373D01*
X69129Y55400D01*
Y55411D01*
X69118Y55455D01*
X69113Y55493D01*
X69107Y55515D01*
Y55526D01*
X69102Y55558D01*
X69096Y55586D01*
X69091Y55602D01*
Y55608D01*
X69064Y55733D01*
X69053Y55793D01*
X69042Y55848D01*
X69031Y55892D01*
X69020Y55930D01*
X69015Y55951D01*
Y55963D01*
X68976Y56104D01*
X68960Y56170D01*
X68944Y56230D01*
X68933Y56279D01*
X68922Y56323D01*
X68911Y56345D01*
Y56356D01*
X68878Y56361D01*
X68840Y56366D01*
X68818Y56372D01*
X68807D01*
X68764Y56377D01*
X68720D01*
X68687Y56383D01*
X68676D01*
X68621Y56388D01*
X68578Y56394D01*
X68545Y56399D01*
X68534D01*
X68480Y56405D01*
X68430Y56410D01*
X68398Y56416D01*
X68387D01*
X68310Y56427D01*
X68245Y56437D01*
X68217Y56443D01*
X68196Y56448D01*
X68174D01*
X68086Y56459D01*
X68043Y56470D01*
X68010Y56476D01*
X67977Y56481D01*
X67955D01*
X67939Y56487D01*
X67933D01*
X67841Y56508D01*
X67797Y56519D01*
X67759Y56525D01*
X67746Y56529D01*
X67753Y56519D01*
X67808Y56437D01*
X67835Y56405D01*
X67852Y56377D01*
X67863Y56356D01*
X67868Y56350D01*
X67928Y56241D01*
X67955Y56192D01*
X67983Y56148D01*
X68005Y56110D01*
X68021Y56077D01*
X68026Y56055D01*
X68032Y56050D01*
X68081Y55935D01*
X68103Y55881D01*
X68119Y55831D01*
X68130Y55788D01*
X68141Y55755D01*
X68152Y55733D01*
Y55728D01*
X68179Y55608D01*
X68185Y55553D01*
X68190Y55504D01*
X68196Y55460D01*
Y55427D01*
Y55405D01*
Y55400D01*
X68190Y55335D01*
X68179Y55269D01*
Y55242D01*
X68174Y55220D01*
X68168Y55209D01*
Y55203D01*
X68147Y55127D01*
X68119Y55062D01*
X68103Y55034D01*
X68097Y55012D01*
X68086Y55001D01*
Y54996D01*
X68037Y54931D01*
X67988Y54881D01*
X67972Y54865D01*
X67955Y54849D01*
X67945Y54843D01*
X67939Y54838D01*
X67906Y54816D01*
X67868Y54799D01*
X67803Y54783D01*
X67775Y54778D01*
X67753Y54772D01*
X67737D01*
X67682Y54778D01*
X67633Y54783D01*
X67611D01*
X67595Y54789D01*
X67579D01*
X67513Y54805D01*
X67458Y54827D01*
X67442Y54832D01*
X67426Y54838D01*
X67415Y54843D01*
X67409D01*
X67349Y54870D01*
X67295Y54892D01*
X67273Y54903D01*
X67256Y54909D01*
X67251Y54914D01*
X67246D01*
X67191Y54941D01*
X67153Y54969D01*
X67125Y54985D01*
X67115Y54991D01*
X67054Y55034D01*
X67005Y55072D01*
X66983Y55089D01*
X66967Y55105D01*
X66956Y55111D01*
X66951Y55116D01*
X66885Y55171D01*
X66831Y55225D01*
X66809Y55247D01*
X66792Y55258D01*
X66782Y55269D01*
X66776Y55274D01*
X66716Y55335D01*
X66667Y55389D01*
X66650Y55405D01*
X66634Y55422D01*
X66629Y55433D01*
X66623Y55438D01*
X66574Y55498D01*
X66541Y55553D01*
X66514Y55586D01*
X66509Y55591D01*
Y55597D01*
X66487Y55526D01*
X66459Y55460D01*
X66448Y55438D01*
X66443Y55422D01*
X66432Y55411D01*
Y55405D01*
X66388Y55345D01*
X66350Y55296D01*
X66317Y55264D01*
X66312Y55258D01*
X66307Y55253D01*
X66252Y55214D01*
X66197Y55182D01*
X66175Y55171D01*
X66164Y55160D01*
X66154Y55154D01*
X66148D01*
X66083Y55133D01*
X66028Y55122D01*
X66012Y55116D01*
X65979D01*
X65908Y55122D01*
X65842Y55127D01*
X65782Y55138D01*
X65728Y55149D01*
X65684Y55160D01*
X65646Y55165D01*
X65624Y55176D01*
X65618D01*
X65493Y55231D01*
X65438Y55258D01*
X65384Y55285D01*
X65346Y55307D01*
X65313Y55324D01*
X65291Y55335D01*
X65285Y55340D01*
X65171Y55417D01*
X65122Y55455D01*
X65078Y55487D01*
X65040Y55520D01*
X65007Y55542D01*
X64991Y55558D01*
X64985Y55564D01*
X64876Y55657D01*
X64832Y55700D01*
X64789Y55739D01*
X64750Y55771D01*
X64723Y55799D01*
X64707Y55815D01*
X64701Y55821D01*
X64669Y55853D01*
X64641Y55881D01*
X64619Y55902D01*
X64619Y55903D01*
X64625Y55848D01*
X64630Y55799D01*
X64636Y55760D01*
Y55728D01*
X64641Y55706D01*
Y55690D01*
Y55684D01*
X64647Y55629D01*
Y55586D01*
X64652Y55553D01*
Y55547D01*
Y55542D01*
X64657Y55498D01*
Y55460D01*
X64663Y55438D01*
Y55427D01*
Y55389D01*
Y55351D01*
X64669Y55324D01*
Y55318D01*
Y55313D01*
Y55274D01*
Y55236D01*
Y55209D01*
Y55203D01*
Y55198D01*
Y55100D01*
X64657Y55012D01*
X64652Y54941D01*
X64641Y54881D01*
X64630Y54838D01*
X64625Y54805D01*
X64614Y54783D01*
Y54778D01*
X64587Y54734D01*
X64554Y54701D01*
X64516Y54674D01*
X64483Y54658D01*
X64450Y54647D01*
X64423Y54641D01*
X64395D01*
X64368Y54647D01*
X64341Y54652D01*
X64319Y54658D01*
X64314D01*
X64281Y54663D01*
X64253Y54674D01*
X64237Y54679D01*
X64232Y54685D01*
X64204Y54701D01*
X64183Y54712D01*
X64172Y54723D01*
X64166Y54729D01*
X64144Y54750D01*
X64133Y54767D01*
X64122Y54783D01*
Y54789D01*
X64106Y54832D01*
X64101Y54870D01*
X64095Y54892D01*
Y54898D01*
X64084Y54936D01*
X64079Y54969D01*
X64068Y54996D01*
Y55007D01*
X64046Y55094D01*
X64035Y55133D01*
X64024Y55165D01*
X64013Y55193D01*
X64008Y55214D01*
X64002Y55225D01*
Y55231D01*
X63975Y55307D01*
X63948Y55373D01*
X63937Y55400D01*
X63926Y55422D01*
X63920Y55433D01*
Y55438D01*
X63882Y55526D01*
X63866Y55564D01*
X63850Y55597D01*
X63833Y55629D01*
X63822Y55651D01*
X63811Y55662D01*
Y55668D01*
X63762Y55749D01*
X63718Y55815D01*
X63702Y55842D01*
X63686Y55864D01*
X63680Y55875D01*
X63675Y55881D01*
X63620Y55951D01*
X63577Y56006D01*
X63560Y56028D01*
X63544Y56044D01*
X63538Y56055D01*
X63533Y56061D01*
X63484Y56115D01*
X63440Y56164D01*
X63407Y56192D01*
X63402Y56203D01*
X63396D01*
X63342Y56252D01*
X63282Y56290D01*
X63161Y56361D01*
X63047Y56410D01*
X62938Y56448D01*
X62839Y56470D01*
X62801Y56481D01*
X62763Y56487D01*
X62736D01*
X62714Y56492D01*
X62605D01*
X62588Y56487D01*
X62534D01*
X62517Y56481D01*
X62473D01*
X62446Y56487D01*
X62419Y56498D01*
X62408Y56508D01*
X62403Y56514D01*
X62381Y56536D01*
X62364Y56552D01*
X62359Y56568D01*
X62353Y56574D01*
X62337Y56601D01*
X62326Y56623D01*
X62321Y56639D01*
Y56645D01*
X62315Y56672D01*
X62310Y56689D01*
Y56700D01*
Y56705D01*
X62321Y56754D01*
X62337Y56792D01*
X62353Y56814D01*
X62364Y56825D01*
X62408Y56863D01*
X62446Y56891D01*
X62479Y56912D01*
X62490Y56918D01*
X62495D01*
X62555Y56945D01*
X62616Y56962D01*
X62637Y56967D01*
X62659D01*
X62670Y56973D01*
X62676D01*
X62747Y56984D01*
X62807Y56994D01*
X62867D01*
X62927Y56989D01*
X62981Y56984D01*
X63009Y56978D01*
X63025Y56973D01*
X63036Y56967D01*
X63041D01*
X63118Y56945D01*
X63183Y56918D01*
X63211Y56902D01*
X63232Y56896D01*
X63249Y56885D01*
X63254D01*
X63358Y56831D01*
X63407Y56798D01*
X63451Y56770D01*
X63484Y56743D01*
X63511Y56727D01*
X63527Y56710D01*
X63533Y56705D01*
X63626Y56618D01*
X63664Y56579D01*
X63702Y56541D01*
X63729Y56503D01*
X63751Y56476D01*
X63768Y56459D01*
X63773Y56454D01*
X63850Y56345D01*
X63888Y56296D01*
X63915Y56246D01*
X63942Y56203D01*
X63964Y56170D01*
X63975Y56148D01*
X63981Y56143D01*
X64052Y56023D01*
X64079Y55963D01*
X64106Y55908D01*
X64128Y55864D01*
X64144Y55831D01*
X64155Y55810D01*
X64161Y55799D01*
X64150Y55842D01*
X64144Y55886D01*
X64133Y55924D01*
Y55930D01*
Y55935D01*
X64122Y55995D01*
X64106Y56055D01*
X64101Y56077D01*
Y56094D01*
X64095Y56104D01*
Y56110D01*
X64073Y56181D01*
X64062Y56246D01*
X64052Y56274D01*
Y56296D01*
X64046Y56306D01*
Y56312D01*
X64030Y56388D01*
X64013Y56454D01*
X64008Y56481D01*
Y56503D01*
X64002Y56514D01*
Y56519D01*
X63986Y56596D01*
X63975Y56656D01*
Y56683D01*
X63970Y56700D01*
Y56710D01*
Y56716D01*
X63964Y56782D01*
X63959Y56831D01*
Y56863D01*
Y56869D01*
Y56874D01*
Y56918D01*
X63964Y56940D01*
X63975Y56956D01*
X63981Y56973D01*
X63986Y56978D01*
X64002Y57005D01*
X64019Y57027D01*
X64035Y57038D01*
X64041Y57043D01*
X64062Y57065D01*
X64084Y57076D01*
X64106Y57087D01*
X64112Y57093D01*
X64139Y57104D01*
X64166Y57114D01*
X64188D01*
X64232Y57109D01*
X64275Y57104D01*
X64308Y57093D01*
X64335Y57076D01*
X64363Y57060D01*
X64379Y57049D01*
X64385Y57043D01*
X64390Y57038D01*
X64434Y56978D01*
X64466Y56912D01*
X64477Y56885D01*
X64483Y56863D01*
X64488Y56847D01*
Y56841D01*
X64505Y56754D01*
X64521Y56672D01*
X64526Y56634D01*
X64532Y56607D01*
X64537Y56585D01*
Y56579D01*
X64548Y56510D01*
X64565Y56498D01*
X64592Y56476D01*
X64614Y56454D01*
X64625Y56448D01*
X64657Y56416D01*
X64685Y56394D01*
X64701Y56372D01*
X64707Y56366D01*
X64728Y56345D01*
X64739Y56334D01*
X64745Y56328D01*
X64849Y56225D01*
X64898Y56175D01*
X64942Y56137D01*
X64974Y56104D01*
X65001Y56077D01*
X65023Y56061D01*
X65029Y56055D01*
X65133Y55968D01*
X65182Y55930D01*
X65225Y55897D01*
X65258Y55870D01*
X65285Y55848D01*
X65307Y55837D01*
X65313Y55831D01*
X65411Y55771D01*
X65460Y55744D01*
X65504Y55722D01*
X65537Y55706D01*
X65569Y55695D01*
X65586Y55684D01*
X65591D01*
X65695Y55657D01*
X65744Y55646D01*
X65788Y55640D01*
X65820D01*
X65848Y55635D01*
X65875D01*
X65919Y55640D01*
X65957Y55651D01*
X65979Y55662D01*
X65990Y55668D01*
X66022Y55700D01*
X66050Y55728D01*
X66072Y55749D01*
X66077Y55760D01*
X66099Y55804D01*
X66115Y55848D01*
X66126Y55881D01*
X66132Y55886D01*
Y55892D01*
X66143Y55941D01*
X66148Y55984D01*
Y56017D01*
Y56023D01*
Y56028D01*
X66143Y56099D01*
X66137Y56164D01*
X66132Y56192D01*
Y56214D01*
X66126Y56225D01*
Y56230D01*
X66110Y56306D01*
X66093Y56377D01*
X66088Y56399D01*
Y56421D01*
X66083Y56432D01*
Y56437D01*
X66066Y56514D01*
X66050Y56574D01*
X66044Y56601D01*
Y56618D01*
X66039Y56629D01*
Y56634D01*
X66028Y56700D01*
X66017Y56754D01*
Y56787D01*
Y56792D01*
Y56798D01*
X66022Y56825D01*
X66028Y56852D01*
X66034Y56874D01*
X66039Y56885D01*
X66055Y56923D01*
X66072Y56962D01*
X66083Y56984D01*
X66088Y56994D01*
X66110Y57038D01*
X66132Y57071D01*
X66148Y57093D01*
X66154Y57104D01*
X66175Y57136D01*
X66197Y57158D01*
X66214Y57169D01*
X66219Y57175D01*
X66252Y57191D01*
X66285Y57202D01*
X66307Y57207D01*
X66317D01*
X66356Y57218D01*
X66394Y57224D01*
X66421Y57229D01*
X66432D01*
X66476Y57235D01*
X66519Y57240D01*
X66558D01*
X66601Y57246D01*
X66678D01*
X66760Y57235D01*
X66836Y57218D01*
X66869Y57207D01*
X66896Y57202D01*
X66913Y57191D01*
X66918D01*
X67016Y57147D01*
X67065Y57120D01*
X67109Y57098D01*
X67142Y57076D01*
X67175Y57060D01*
X67191Y57049D01*
X67196Y57043D01*
X67298Y56974D01*
X67306Y56978D01*
X67322Y56989D01*
X67393D01*
X67431Y56984D01*
X67458Y56978D01*
X67469D01*
X67519Y56973D01*
X67562Y56967D01*
X67595Y56962D01*
X67601Y56956D01*
X67606D01*
X67660Y56945D01*
X67715Y56934D01*
X67742Y56929D01*
X67759D01*
X67770Y56923D01*
X67775D01*
X67852Y56912D01*
X67933Y56902D01*
X67966Y56896D01*
X67994D01*
X68010Y56891D01*
X68015D01*
X68103Y56880D01*
X68141Y56874D01*
X68201D01*
X68223Y56869D01*
X68239D01*
X68316Y56863D01*
X68376D01*
X68403Y56858D01*
X68436D01*
X68501Y56852D01*
X68813D01*
Y56858D01*
Y56863D01*
X68807Y56885D01*
X68802Y56907D01*
Y56918D01*
X68791Y56978D01*
X68780Y57038D01*
X68774Y57065D01*
X68769Y57087D01*
X68764Y57104D01*
Y57109D01*
X68742Y57202D01*
X68731Y57251D01*
X68720Y57295D01*
X68709Y57333D01*
X68703Y57360D01*
X68698Y57382D01*
Y57388D01*
X68665Y57513D01*
X68649Y57568D01*
X68632Y57622D01*
X68621Y57671D01*
X68611Y57704D01*
X68600Y57731D01*
Y57737D01*
X68583Y57797D01*
X68572Y57852D01*
X68567Y57868D01*
X68561Y57884D01*
Y57895D01*
Y57901D01*
X68556Y57961D01*
X68550Y58004D01*
Y58037D01*
Y58043D01*
Y58048D01*
Y58092D01*
X68561Y58130D01*
X68572Y58163D01*
X68583Y58190D01*
X68594Y58212D01*
X68605Y58223D01*
X68611Y58234D01*
X68616D01*
X68643Y58250D01*
X68671Y58267D01*
X68736Y58283D01*
X68764Y58288D01*
X68807D01*
X68851Y58283D01*
D02*
G37*
G36*
X77903Y58469D02*
X77969Y58452D01*
X77996Y58441D01*
X78018Y58430D01*
X78029Y58425D01*
X78035D01*
X78105Y58387D01*
X78166Y58354D01*
X78193Y58338D01*
X78209Y58321D01*
X78220Y58316D01*
X78226Y58310D01*
X78286Y58256D01*
X78340Y58201D01*
X78362Y58179D01*
X78378Y58163D01*
X78384Y58152D01*
X78389Y58147D01*
X78439Y58081D01*
X78482Y58026D01*
X78493Y58004D01*
X78504Y57988D01*
X78515Y57977D01*
Y57972D01*
X78559Y57895D01*
X78592Y57824D01*
X78602Y57797D01*
X78613Y57775D01*
X78619Y57764D01*
Y57759D01*
X78646Y57688D01*
X78668Y57622D01*
X78679Y57595D01*
X78684Y57573D01*
X78690Y57562D01*
Y57557D01*
X78706Y57480D01*
X78723Y57415D01*
X78728Y57388D01*
X78733Y57366D01*
X78739Y57349D01*
Y57344D01*
X78750Y57257D01*
X78766Y57175D01*
X78772Y57142D01*
Y57114D01*
X78777Y57098D01*
Y57093D01*
X78783Y57027D01*
X78794Y56973D01*
X78799Y56940D01*
Y56934D01*
Y56929D01*
X78804Y56885D01*
X78810Y56847D01*
X78815Y56825D01*
Y56814D01*
X78826Y56776D01*
X78843Y56743D01*
X78853Y56721D01*
X78859Y56710D01*
X78886Y56672D01*
X78914Y56629D01*
X78935Y56596D01*
X78941Y56590D01*
X78946Y56585D01*
X78996Y56525D01*
X79028Y56476D01*
X79056Y56432D01*
X79072Y56405D01*
X79083Y56377D01*
X79088Y56361D01*
X79094Y56356D01*
Y56350D01*
X79088Y56323D01*
X79083Y56296D01*
X79077Y56279D01*
X79072Y56274D01*
X79050Y56246D01*
X79034Y56225D01*
X79023Y56208D01*
X79017Y56203D01*
X78996Y56181D01*
X78979Y56164D01*
X78968Y56154D01*
X78963Y56148D01*
X78952Y56132D01*
X78941Y56121D01*
Y56115D01*
Y56110D01*
Y56077D01*
Y56044D01*
X78946Y56017D01*
Y56012D01*
Y56006D01*
Y55968D01*
Y55930D01*
X78952Y55902D01*
Y55897D01*
Y55892D01*
X78957Y55848D01*
Y55815D01*
X78963Y55793D01*
Y55782D01*
X78968Y55749D01*
Y55722D01*
X78974Y55706D01*
Y55700D01*
X78985Y55597D01*
Y55547D01*
X78990Y55509D01*
X78996Y55471D01*
Y55444D01*
X79001Y55427D01*
Y55422D01*
X79012Y55324D01*
X79023Y55274D01*
X79028Y55231D01*
X79034Y55198D01*
Y55165D01*
X79039Y55149D01*
Y55143D01*
X79056Y55040D01*
X79066Y54991D01*
X79072Y54947D01*
X79077Y54909D01*
X79083Y54881D01*
X79088Y54860D01*
Y54854D01*
X79110Y54745D01*
X79116Y54696D01*
X79127Y54647D01*
X79132Y54608D01*
X79137Y54576D01*
X79143Y54554D01*
Y54548D01*
X79154Y54494D01*
X79170Y54439D01*
X79176Y54423D01*
Y54406D01*
X79181Y54395D01*
Y54390D01*
X79192Y54330D01*
X79208Y54281D01*
X79214Y54248D01*
X79219Y54243D01*
Y54237D01*
X79236Y54188D01*
X79252Y54144D01*
X79268Y54117D01*
X79274Y54111D01*
Y54106D01*
X79301Y54068D01*
X79323Y54040D01*
X79339Y54024D01*
X79345Y54019D01*
X79378Y54024D01*
X79394D01*
X79427Y54030D01*
X79438Y54035D01*
X79443D01*
X79476Y54040D01*
X79487Y54046D01*
X79525D01*
X79563Y54040D01*
X79591Y54030D01*
X79612Y54019D01*
X79618Y54013D01*
X79645Y53986D01*
X79667Y53953D01*
X79678Y53937D01*
X79684Y53926D01*
X79705Y53888D01*
X79722Y53855D01*
X79727Y53833D01*
X79733Y53822D01*
X79743Y53784D01*
X79749Y53757D01*
X79754Y53735D01*
Y53729D01*
X79749Y53702D01*
X79738Y53675D01*
X79727Y53658D01*
X79722Y53653D01*
X79700Y53620D01*
X79678Y53598D01*
X79656Y53582D01*
X79651Y53576D01*
X79618Y53555D01*
X79580Y53538D01*
X79558Y53527D01*
X79547Y53522D01*
X79503Y53511D01*
X79465Y53505D01*
X79438Y53500D01*
X79427D01*
X79334Y53511D01*
X79247Y53533D01*
X79170Y53566D01*
X79099Y53609D01*
X79050Y53647D01*
X79006Y53680D01*
X78985Y53702D01*
X78974Y53713D01*
X78908Y53789D01*
X78859Y53860D01*
X78837Y53888D01*
X78821Y53909D01*
X78815Y53926D01*
X78810Y53931D01*
X78761Y54013D01*
X78728Y54090D01*
X78712Y54122D01*
X78701Y54144D01*
X78695Y54161D01*
Y54166D01*
X78668Y54243D01*
X78646Y54319D01*
X78641Y54357D01*
X78635Y54384D01*
X78630Y54401D01*
Y54406D01*
X78608Y54510D01*
X78597Y54554D01*
X78592Y54598D01*
X78586Y54630D01*
X78580Y54658D01*
X78575Y54674D01*
Y54679D01*
X78570Y54734D01*
X78564Y54789D01*
X78559Y54816D01*
X78553Y54838D01*
Y54849D01*
Y54854D01*
X78542Y54941D01*
X78526Y55029D01*
X78521Y55062D01*
Y55089D01*
X78515Y55111D01*
Y55116D01*
X78499Y55225D01*
X78493Y55280D01*
X78488Y55324D01*
X78482Y55362D01*
X78477Y55395D01*
Y55417D01*
Y55422D01*
X78460Y55537D01*
X78455Y55591D01*
X78449Y55635D01*
X78444Y55673D01*
X78439Y55706D01*
Y55722D01*
Y55728D01*
X78422Y55826D01*
X78417Y55870D01*
X78411Y55908D01*
Y55941D01*
X78406Y55963D01*
Y55979D01*
Y55984D01*
X78400Y56023D01*
X78395Y56061D01*
X78389Y56088D01*
Y56110D01*
X78384Y56137D01*
Y56148D01*
X78264D01*
X78220Y56154D01*
X78182D01*
X78155Y56159D01*
X78144D01*
X78095Y56164D01*
X78045D01*
X78013Y56170D01*
X78002D01*
X77942Y56181D01*
X77882Y56186D01*
X77854D01*
X77833Y56192D01*
X77816D01*
X77723Y56203D01*
X77680D01*
X77641Y56208D01*
X77609Y56214D01*
X77581Y56219D01*
X77560D01*
X77467Y56235D01*
X77423Y56241D01*
X77390Y56252D01*
X77363Y56257D01*
X77336D01*
X77325Y56263D01*
X77319D01*
X77237Y56285D01*
X77177Y56296D01*
X77171Y56299D01*
X77172Y56290D01*
X77183Y56219D01*
Y56192D01*
X77188Y56170D01*
Y56159D01*
Y56154D01*
X77194Y56088D01*
Y56039D01*
Y56012D01*
Y56001D01*
Y55902D01*
X77188Y55853D01*
Y55815D01*
Y55777D01*
X77183Y55749D01*
Y55728D01*
Y55722D01*
X77172Y55619D01*
X77166Y55569D01*
X77156Y55526D01*
X77150Y55493D01*
X77145Y55466D01*
X77139Y55444D01*
Y55438D01*
X77112Y55335D01*
X77095Y55291D01*
X77084Y55253D01*
X77068Y55220D01*
X77063Y55193D01*
X77052Y55176D01*
Y55171D01*
X77003Y55083D01*
X76981Y55045D01*
X76954Y55012D01*
X76937Y54985D01*
X76921Y54963D01*
X76910Y54952D01*
X76904Y54947D01*
X76833Y54881D01*
X76762Y54832D01*
X76735Y54816D01*
X76713Y54805D01*
X76697Y54794D01*
X76691D01*
X76593Y54761D01*
X76544Y54750D01*
X76495Y54745D01*
X76457D01*
X76424Y54739D01*
X76397D01*
X76342Y54745D01*
X76287Y54750D01*
X76238Y54761D01*
X76189Y54772D01*
X76151Y54783D01*
X76118Y54789D01*
X76096Y54799D01*
X76091D01*
X75971Y54854D01*
X75911Y54887D01*
X75862Y54920D01*
X75818Y54941D01*
X75785Y54963D01*
X75763Y54980D01*
X75758Y54985D01*
X75638Y55078D01*
X75583Y55122D01*
X75534Y55160D01*
X75496Y55193D01*
X75468Y55220D01*
X75446Y55236D01*
X75441Y55242D01*
X75332Y55340D01*
X75288Y55389D01*
X75244Y55427D01*
X75212Y55466D01*
X75184Y55493D01*
X75168Y55509D01*
X75163Y55515D01*
X75075Y55608D01*
X75042Y55646D01*
X75010Y55684D01*
X74982Y55717D01*
X74961Y55739D01*
X74950Y55755D01*
X74944Y55760D01*
X74879Y55840D01*
X74884Y55799D01*
X74890Y55760D01*
Y55728D01*
X74895Y55706D01*
Y55690D01*
Y55684D01*
X74901Y55629D01*
Y55586D01*
X74906Y55553D01*
Y55547D01*
Y55542D01*
X74911Y55498D01*
Y55460D01*
X74917Y55438D01*
Y55427D01*
Y55389D01*
Y55351D01*
X74922Y55324D01*
Y55318D01*
Y55313D01*
Y55274D01*
Y55236D01*
Y55209D01*
Y55203D01*
Y55198D01*
Y55100D01*
X74911Y55012D01*
X74906Y54941D01*
X74895Y54881D01*
X74884Y54838D01*
X74879Y54805D01*
X74868Y54783D01*
Y54778D01*
X74840Y54734D01*
X74808Y54701D01*
X74770Y54674D01*
X74737Y54658D01*
X74704Y54647D01*
X74677Y54641D01*
X74649D01*
X74622Y54647D01*
X74595Y54652D01*
X74573Y54658D01*
X74567D01*
X74535Y54663D01*
X74507Y54674D01*
X74491Y54679D01*
X74485Y54685D01*
X74458Y54701D01*
X74436Y54712D01*
X74426Y54723D01*
X74420Y54729D01*
X74398Y54750D01*
X74387Y54767D01*
X74376Y54783D01*
Y54789D01*
X74360Y54832D01*
X74354Y54870D01*
X74349Y54892D01*
Y54898D01*
X74338Y54936D01*
X74333Y54969D01*
X74322Y54996D01*
Y55007D01*
X74300Y55094D01*
X74289Y55133D01*
X74278Y55165D01*
X74267Y55193D01*
X74262Y55214D01*
X74256Y55225D01*
Y55231D01*
X74229Y55307D01*
X74202Y55373D01*
X74191Y55400D01*
X74180Y55422D01*
X74174Y55433D01*
Y55438D01*
X74136Y55526D01*
X74120Y55564D01*
X74103Y55597D01*
X74087Y55629D01*
X74076Y55651D01*
X74065Y55662D01*
Y55668D01*
X74016Y55749D01*
X73972Y55815D01*
X73956Y55842D01*
X73940Y55864D01*
X73934Y55875D01*
X73929Y55881D01*
X73874Y55951D01*
X73830Y56006D01*
X73814Y56028D01*
X73798Y56044D01*
X73792Y56055D01*
X73787Y56061D01*
X73738Y56115D01*
X73694Y56164D01*
X73661Y56192D01*
X73656Y56203D01*
X73650D01*
X73596Y56252D01*
X73536Y56290D01*
X73415Y56361D01*
X73301Y56410D01*
X73191Y56448D01*
X73093Y56470D01*
X73055Y56481D01*
X73017Y56487D01*
X72989D01*
X72968Y56492D01*
X72859D01*
X72842Y56487D01*
X72787D01*
X72771Y56481D01*
X72727D01*
X72700Y56487D01*
X72673Y56498D01*
X72662Y56508D01*
X72656Y56514D01*
X72635Y56536D01*
X72618Y56552D01*
X72613Y56568D01*
X72607Y56574D01*
X72591Y56601D01*
X72580Y56623D01*
X72575Y56639D01*
Y56645D01*
X72569Y56672D01*
X72564Y56689D01*
Y56700D01*
Y56705D01*
X72575Y56754D01*
X72591Y56792D01*
X72607Y56814D01*
X72618Y56825D01*
X72662Y56863D01*
X72700Y56891D01*
X72733Y56912D01*
X72744Y56918D01*
X72749D01*
X72809Y56945D01*
X72869Y56962D01*
X72891Y56967D01*
X72913D01*
X72924Y56973D01*
X72929D01*
X73000Y56984D01*
X73061Y56994D01*
X73120D01*
X73181Y56989D01*
X73235Y56984D01*
X73263Y56978D01*
X73279Y56973D01*
X73290Y56967D01*
X73295D01*
X73372Y56945D01*
X73437Y56918D01*
X73465Y56902D01*
X73486Y56896D01*
X73503Y56885D01*
X73508D01*
X73612Y56831D01*
X73661Y56798D01*
X73705Y56770D01*
X73738Y56743D01*
X73765Y56727D01*
X73781Y56710D01*
X73787Y56705D01*
X73879Y56618D01*
X73918Y56579D01*
X73956Y56541D01*
X73983Y56503D01*
X74005Y56476D01*
X74021Y56459D01*
X74027Y56454D01*
X74103Y56345D01*
X74142Y56296D01*
X74169Y56246D01*
X74196Y56203D01*
X74218Y56170D01*
X74229Y56148D01*
X74234Y56143D01*
X74305Y56023D01*
X74333Y55963D01*
X74360Y55908D01*
X74382Y55864D01*
X74398Y55831D01*
X74409Y55810D01*
X74415Y55799D01*
X74404Y55842D01*
X74398Y55886D01*
X74387Y55924D01*
Y55930D01*
Y55935D01*
X74376Y55995D01*
X74360Y56055D01*
X74354Y56077D01*
Y56094D01*
X74349Y56104D01*
Y56110D01*
X74327Y56181D01*
X74316Y56246D01*
X74305Y56274D01*
Y56296D01*
X74300Y56306D01*
Y56312D01*
X74283Y56388D01*
X74267Y56454D01*
X74262Y56481D01*
Y56503D01*
X74256Y56514D01*
Y56519D01*
X74240Y56596D01*
X74229Y56656D01*
Y56683D01*
X74224Y56700D01*
Y56710D01*
Y56716D01*
X74218Y56782D01*
X74212Y56831D01*
Y56863D01*
Y56869D01*
Y56874D01*
Y56918D01*
X74218Y56940D01*
X74229Y56956D01*
X74234Y56973D01*
X74240Y56978D01*
X74256Y57005D01*
X74273Y57027D01*
X74289Y57038D01*
X74294Y57043D01*
X74316Y57065D01*
X74338Y57076D01*
X74360Y57087D01*
X74365Y57093D01*
X74393Y57104D01*
X74420Y57114D01*
X74442D01*
X74485Y57109D01*
X74529Y57104D01*
X74562Y57093D01*
X74589Y57076D01*
X74617Y57060D01*
X74633Y57049D01*
X74638Y57043D01*
X74644Y57038D01*
X74688Y56978D01*
X74720Y56912D01*
X74731Y56885D01*
X74737Y56863D01*
X74742Y56847D01*
Y56841D01*
X74758Y56754D01*
X74775Y56672D01*
X74780Y56634D01*
X74786Y56607D01*
X74791Y56585D01*
Y56579D01*
X74808Y56470D01*
X74810Y56451D01*
X74830Y56427D01*
X74835Y56421D01*
X74840Y56416D01*
X74851Y56394D01*
X74857Y56388D01*
X74901Y56334D01*
X74950Y56279D01*
X74971Y56257D01*
X74988Y56241D01*
X74999Y56230D01*
X75004Y56225D01*
X75075Y56154D01*
X75135Y56094D01*
X75163Y56072D01*
X75184Y56050D01*
X75195Y56039D01*
X75201Y56033D01*
X75277Y55963D01*
X75348Y55897D01*
X75375Y55875D01*
X75397Y55853D01*
X75408Y55842D01*
X75414Y55837D01*
X75485Y55771D01*
X75545Y55722D01*
X75567Y55706D01*
X75583Y55690D01*
X75594Y55684D01*
X75599Y55678D01*
X75687Y55608D01*
X75769Y55547D01*
X75840Y55493D01*
X75911Y55455D01*
X75965Y55417D01*
X76003Y55395D01*
X76031Y55378D01*
X76042Y55373D01*
X76118Y55335D01*
X76173Y55313D01*
X76195Y55307D01*
X76211Y55302D01*
X76222Y55296D01*
X76227D01*
X76282Y55291D01*
X76331Y55285D01*
X76380D01*
X76418Y55296D01*
X76451Y55313D01*
X76473Y55329D01*
X76478Y55340D01*
X76506Y55384D01*
X76528Y55433D01*
X76538Y55455D01*
X76544Y55471D01*
X76549Y55482D01*
Y55487D01*
X76566Y55558D01*
X76582Y55624D01*
X76588Y55651D01*
Y55673D01*
X76593Y55690D01*
Y55695D01*
X76599Y55782D01*
X76604Y55859D01*
Y55892D01*
Y55913D01*
Y55930D01*
Y55935D01*
Y56023D01*
X76599Y56104D01*
Y56137D01*
X76593Y56164D01*
Y56181D01*
Y56186D01*
X76582Y56296D01*
X76577Y56350D01*
X76566Y56399D01*
X76560Y56443D01*
X76555Y56476D01*
X76549Y56498D01*
Y56503D01*
X76538Y56574D01*
X76528Y56639D01*
X76522Y56661D01*
X76517Y56683D01*
Y56694D01*
Y56700D01*
X76506Y56776D01*
X76500Y56836D01*
Y56858D01*
Y56874D01*
Y56885D01*
Y56891D01*
X76506Y56956D01*
X76522Y57000D01*
X76549Y57033D01*
X76577Y57060D01*
X76609Y57071D01*
X76631Y57076D01*
X76653Y57082D01*
X76659D01*
X76713Y57076D01*
X76768Y57065D01*
X76811Y57049D01*
X76855Y57033D01*
X76888Y57011D01*
X76915Y56994D01*
X76932Y56984D01*
X76937Y56978D01*
X76981Y56940D01*
X77019Y56902D01*
X77046Y56863D01*
X77068Y56825D01*
X77084Y56798D01*
X77095Y56776D01*
X77106Y56760D01*
Y56754D01*
X77117Y56705D01*
X77123Y56672D01*
X77161Y56667D01*
X77194Y56661D01*
X77215D01*
X77232Y56656D01*
X77237D01*
X77319Y56645D01*
X77396Y56634D01*
X77423D01*
X77445Y56629D01*
X77467D01*
X77549Y56623D01*
X77625Y56618D01*
X77652Y56612D01*
X77696D01*
X77783Y56607D01*
X78089D01*
X78138Y56612D01*
X78176D01*
X78204Y56618D01*
X78215D01*
X78253Y56623D01*
X78280D01*
X78302Y56629D01*
X78307D01*
X78324Y56639D01*
X78335Y56645D01*
X78340Y56650D01*
Y56749D01*
X78329Y56836D01*
X78319Y56912D01*
X78313Y56945D01*
Y56973D01*
X78307Y56989D01*
Y56994D01*
X78286Y57098D01*
X78280Y57147D01*
X78269Y57186D01*
X78264Y57224D01*
X78258Y57251D01*
X78253Y57267D01*
Y57273D01*
X78226Y57377D01*
X78215Y57420D01*
X78204Y57459D01*
X78193Y57491D01*
X78187Y57513D01*
X78182Y57529D01*
Y57535D01*
X78166Y57579D01*
X78155Y57617D01*
X78144Y57650D01*
X78133Y57677D01*
X78127Y57699D01*
X78122Y57715D01*
X78116Y57721D01*
Y57726D01*
X78095Y57770D01*
X78078Y57802D01*
X78062Y57830D01*
X78056Y57841D01*
X78029Y57884D01*
X78007Y57917D01*
X77991Y57939D01*
X77985Y57950D01*
X77958Y57988D01*
X77936Y58015D01*
X77920Y58032D01*
X77914Y58037D01*
X77893Y58059D01*
X77876Y58065D01*
X77865Y58070D01*
X77860D01*
X77833Y58065D01*
X77816Y58048D01*
X77805Y58032D01*
X77800Y58026D01*
X77783Y57994D01*
X77772Y57961D01*
X77762Y57933D01*
Y57928D01*
Y57923D01*
X77751Y57879D01*
X77745Y57835D01*
X77740Y57808D01*
Y57802D01*
Y57797D01*
X77734Y57753D01*
Y57721D01*
Y57699D01*
Y57693D01*
Y57628D01*
X77740Y57568D01*
X77745Y57540D01*
Y57519D01*
X77751Y57508D01*
Y57502D01*
X77762Y57426D01*
X77778Y57349D01*
X77783Y57322D01*
X77789Y57300D01*
X77794Y57284D01*
Y57278D01*
X77751D01*
X77696Y57284D01*
X77652Y57306D01*
X77609Y57333D01*
X77570Y57371D01*
X77538Y57404D01*
X77516Y57431D01*
X77500Y57453D01*
X77494Y57459D01*
X77429Y57562D01*
X77385Y57655D01*
X77352Y57748D01*
X77325Y57824D01*
X77314Y57884D01*
X77308Y57933D01*
X77303Y57966D01*
Y57977D01*
X77308Y58048D01*
X77330Y58119D01*
X77352Y58179D01*
X77385Y58228D01*
X77412Y58272D01*
X77439Y58305D01*
X77461Y58327D01*
X77467Y58332D01*
X77521Y58381D01*
X77581Y58414D01*
X77641Y58441D01*
X77701Y58458D01*
X77751Y58469D01*
X77789Y58474D01*
X77827D01*
X77903Y58469D01*
D02*
G37*
G36*
X56724Y58583D02*
X56773Y58567D01*
X56806Y58551D01*
X56811Y58545D01*
X56817D01*
X56855Y58512D01*
X56883Y58479D01*
X56904Y58452D01*
X56910Y58447D01*
Y58441D01*
X56921Y58420D01*
X56932Y58398D01*
X56948Y58338D01*
X56954Y58310D01*
X56959Y58288D01*
X56964Y58272D01*
Y58267D01*
X56970Y58217D01*
X56975Y58163D01*
X56981Y58108D01*
X56986Y58059D01*
Y58010D01*
X56992Y57977D01*
Y57955D01*
Y57944D01*
X56997Y57846D01*
X57003Y57797D01*
X57008Y57753D01*
Y57721D01*
X57013Y57688D01*
Y57671D01*
Y57666D01*
X57025Y57568D01*
Y57524D01*
X57030Y57480D01*
X57035Y57448D01*
Y57420D01*
X57041Y57404D01*
Y57398D01*
X57052Y57306D01*
Y57267D01*
X57057Y57229D01*
X57063Y57202D01*
Y57180D01*
X57068Y57164D01*
Y57158D01*
X57079Y57076D01*
X57090Y57011D01*
X57095Y56989D01*
Y56967D01*
X57101Y56956D01*
Y56951D01*
X57117Y57022D01*
X57139Y57087D01*
X57166Y57142D01*
X57188Y57186D01*
X57210Y57218D01*
X57227Y57246D01*
X57237Y57262D01*
X57243Y57267D01*
X57281Y57306D01*
X57325Y57333D01*
X57368Y57355D01*
X57407Y57366D01*
X57445Y57377D01*
X57472Y57382D01*
X57565D01*
X57625Y57377D01*
X57685Y57371D01*
X57734Y57360D01*
X57772Y57355D01*
X57805Y57344D01*
X57827Y57338D01*
X57832D01*
X57936Y57300D01*
X57985Y57278D01*
X58024Y57257D01*
X58056Y57240D01*
X58084Y57224D01*
X58100Y57213D01*
X58105Y57207D01*
X58198Y57136D01*
X58237Y57104D01*
X58275Y57071D01*
X58302Y57038D01*
X58324Y57016D01*
X58340Y57000D01*
X58346Y56994D01*
X58428Y56896D01*
X58466Y56847D01*
X58504Y56803D01*
X58531Y56765D01*
X58553Y56732D01*
X58570Y56710D01*
X58575Y56705D01*
X58641Y56607D01*
X58672Y56558D01*
X58673Y56558D01*
X58701Y56547D01*
X58723Y56530D01*
X58733Y56525D01*
X58772Y56498D01*
X58799Y56476D01*
X58821Y56454D01*
X58832Y56448D01*
X58864Y56416D01*
X58892Y56394D01*
X58908Y56372D01*
X58914Y56366D01*
X58935Y56345D01*
X58946Y56334D01*
X58952Y56328D01*
X59056Y56225D01*
X59105Y56175D01*
X59148Y56137D01*
X59181Y56104D01*
X59209Y56077D01*
X59230Y56061D01*
X59236Y56055D01*
X59339Y55968D01*
X59389Y55930D01*
X59432Y55897D01*
X59465Y55870D01*
X59492Y55848D01*
X59514Y55837D01*
X59520Y55831D01*
X59618Y55771D01*
X59667Y55744D01*
X59711Y55722D01*
X59743Y55706D01*
X59776Y55695D01*
X59793Y55684D01*
X59798D01*
X59902Y55657D01*
X59951Y55646D01*
X59995Y55640D01*
X60027D01*
X60055Y55635D01*
X60082D01*
X60126Y55640D01*
X60164Y55651D01*
X60186Y55662D01*
X60197Y55668D01*
X60229Y55700D01*
X60257Y55728D01*
X60279Y55749D01*
X60284Y55760D01*
X60306Y55804D01*
X60322Y55848D01*
X60333Y55881D01*
X60339Y55886D01*
Y55892D01*
X60350Y55941D01*
X60355Y55984D01*
Y56017D01*
Y56023D01*
Y56028D01*
X60350Y56099D01*
X60344Y56164D01*
X60339Y56192D01*
Y56214D01*
X60333Y56225D01*
Y56230D01*
X60317Y56306D01*
X60300Y56377D01*
X60295Y56399D01*
Y56421D01*
X60290Y56432D01*
Y56437D01*
X60273Y56514D01*
X60257Y56574D01*
X60251Y56601D01*
Y56618D01*
X60246Y56629D01*
Y56634D01*
X60235Y56700D01*
X60224Y56754D01*
Y56787D01*
Y56792D01*
Y56798D01*
X60229Y56825D01*
X60235Y56852D01*
X60240Y56874D01*
X60246Y56885D01*
X60262Y56923D01*
X60279Y56962D01*
X60290Y56984D01*
X60295Y56994D01*
X60317Y57038D01*
X60339Y57071D01*
X60355Y57093D01*
X60360Y57104D01*
X60382Y57136D01*
X60404Y57158D01*
X60421Y57169D01*
X60426Y57175D01*
X60459Y57191D01*
X60492Y57202D01*
X60513Y57207D01*
X60524D01*
X60562Y57218D01*
X60601Y57224D01*
X60628Y57229D01*
X60639D01*
X60683Y57235D01*
X60726Y57240D01*
X60765D01*
X60808Y57246D01*
X60885D01*
X60967Y57235D01*
X61043Y57218D01*
X61076Y57207D01*
X61103Y57202D01*
X61120Y57191D01*
X61125D01*
X61223Y57147D01*
X61272Y57120D01*
X61316Y57098D01*
X61349Y57076D01*
X61382Y57060D01*
X61398Y57049D01*
X61403Y57043D01*
X61507Y56973D01*
X61551Y56940D01*
X61594Y56907D01*
X61627Y56880D01*
X61655Y56858D01*
X61671Y56841D01*
X61676Y56836D01*
X61764Y56754D01*
X61802Y56716D01*
X61835Y56678D01*
X61857Y56650D01*
X61878Y56629D01*
X61889Y56612D01*
X61895Y56607D01*
X61960Y56519D01*
X62015Y56437D01*
X62042Y56405D01*
X62059Y56377D01*
X62069Y56356D01*
X62075Y56350D01*
X62135Y56241D01*
X62162Y56192D01*
X62190Y56148D01*
X62212Y56110D01*
X62228Y56077D01*
X62233Y56055D01*
X62239Y56050D01*
X62288Y55935D01*
X62310Y55881D01*
X62326Y55831D01*
X62337Y55788D01*
X62348Y55755D01*
X62359Y55733D01*
Y55728D01*
X62386Y55608D01*
X62392Y55553D01*
X62397Y55504D01*
X62403Y55460D01*
Y55427D01*
Y55405D01*
Y55400D01*
X62397Y55335D01*
X62386Y55269D01*
Y55242D01*
X62381Y55220D01*
X62375Y55209D01*
Y55203D01*
X62353Y55127D01*
X62326Y55062D01*
X62310Y55034D01*
X62304Y55012D01*
X62293Y55001D01*
Y54996D01*
X62244Y54931D01*
X62195Y54881D01*
X62179Y54865D01*
X62162Y54849D01*
X62151Y54843D01*
X62146Y54838D01*
X62113Y54816D01*
X62075Y54799D01*
X62009Y54783D01*
X61982Y54778D01*
X61960Y54772D01*
X61944D01*
X61889Y54778D01*
X61840Y54783D01*
X61818D01*
X61802Y54789D01*
X61786D01*
X61720Y54805D01*
X61665Y54827D01*
X61649Y54832D01*
X61633Y54838D01*
X61622Y54843D01*
X61616D01*
X61556Y54870D01*
X61502Y54892D01*
X61480Y54903D01*
X61463Y54909D01*
X61458Y54914D01*
X61453D01*
X61398Y54941D01*
X61360Y54969D01*
X61332Y54985D01*
X61322Y54991D01*
X61261Y55034D01*
X61212Y55072D01*
X61190Y55089D01*
X61174Y55105D01*
X61163Y55111D01*
X61158Y55116D01*
X61092Y55171D01*
X61038Y55225D01*
X61016Y55247D01*
X60999Y55258D01*
X60988Y55269D01*
X60983Y55274D01*
X60923Y55335D01*
X60874Y55389D01*
X60857Y55405D01*
X60841Y55422D01*
X60835Y55433D01*
X60830Y55438D01*
X60781Y55498D01*
X60748Y55553D01*
X60721Y55586D01*
X60715Y55591D01*
Y55597D01*
X60694Y55526D01*
X60666Y55460D01*
X60655Y55438D01*
X60650Y55422D01*
X60639Y55411D01*
Y55405D01*
X60595Y55345D01*
X60557Y55296D01*
X60524Y55264D01*
X60519Y55258D01*
X60513Y55253D01*
X60459Y55214D01*
X60404Y55182D01*
X60382Y55171D01*
X60371Y55160D01*
X60360Y55154D01*
X60355D01*
X60290Y55133D01*
X60235Y55122D01*
X60219Y55116D01*
X60186D01*
X60115Y55122D01*
X60049Y55127D01*
X59989Y55138D01*
X59935Y55149D01*
X59891Y55160D01*
X59853Y55165D01*
X59831Y55176D01*
X59825D01*
X59700Y55231D01*
X59645Y55258D01*
X59591Y55285D01*
X59552Y55307D01*
X59520Y55324D01*
X59498Y55335D01*
X59492Y55340D01*
X59378Y55417D01*
X59329Y55455D01*
X59285Y55487D01*
X59247Y55520D01*
X59214Y55542D01*
X59197Y55558D01*
X59192Y55564D01*
X59113Y55631D01*
X59116Y55624D01*
X59121Y55619D01*
Y55613D01*
X59137Y55569D01*
X59143Y55526D01*
X59154Y55493D01*
Y55482D01*
Y55476D01*
X59159Y55411D01*
Y55345D01*
Y55318D01*
Y55302D01*
Y55285D01*
Y55280D01*
X59154Y55220D01*
X59148Y55160D01*
X59143Y55138D01*
Y55122D01*
X59137Y55111D01*
Y55105D01*
X59116Y55040D01*
X59094Y54985D01*
X59088Y54963D01*
X59077Y54947D01*
X59072Y54941D01*
Y54936D01*
X59034Y54887D01*
X58995Y54849D01*
X58963Y54827D01*
X58957Y54816D01*
X58952D01*
X58897Y54789D01*
X58843Y54778D01*
X58821Y54772D01*
X58788D01*
X58684Y54778D01*
X58592Y54789D01*
X58499Y54805D01*
X58422Y54827D01*
X58351Y54843D01*
X58302Y54860D01*
X58269Y54870D01*
X58264Y54876D01*
X58258D01*
X58166Y54920D01*
X58073Y54974D01*
X57991Y55029D01*
X57914Y55083D01*
X57849Y55127D01*
X57805Y55165D01*
X57772Y55193D01*
X57762Y55203D01*
X57696Y55269D01*
X57636Y55335D01*
X57614Y55356D01*
X57598Y55378D01*
X57587Y55389D01*
X57581Y55395D01*
X57516Y55471D01*
X57461Y55542D01*
X57445Y55569D01*
X57428Y55591D01*
X57418Y55602D01*
X57412Y55608D01*
X57352Y55690D01*
X57303Y55760D01*
X57287Y55793D01*
X57270Y55815D01*
X57265Y55826D01*
X57259Y55831D01*
X57205Y55913D01*
X57161Y55979D01*
X57145Y56006D01*
X57128Y56028D01*
X57123Y56039D01*
X57117Y56044D01*
X57106Y55968D01*
X57095Y55897D01*
X57090Y55837D01*
X57079Y55777D01*
X57074Y55728D01*
X57068Y55695D01*
X57063Y55673D01*
Y55662D01*
X57052Y55597D01*
X57035Y55537D01*
X57019Y55482D01*
X57003Y55438D01*
X56992Y55400D01*
X56981Y55367D01*
X56970Y55351D01*
Y55345D01*
X56948Y55302D01*
X56921Y55258D01*
X56893Y55220D01*
X56866Y55193D01*
X56844Y55171D01*
X56828Y55154D01*
X56817Y55143D01*
X56811Y55138D01*
X56768Y55111D01*
X56724Y55094D01*
X56637Y55072D01*
X56599Y55067D01*
X56571Y55062D01*
X56544D01*
X56489Y55067D01*
X56435Y55083D01*
X56413Y55089D01*
X56397Y55094D01*
X56386Y55100D01*
X56380D01*
X56309Y55133D01*
X56249Y55165D01*
X56222Y55176D01*
X56200Y55187D01*
X56189Y55198D01*
X56184D01*
X56107Y55247D01*
X56036Y55302D01*
X56009Y55318D01*
X55987Y55335D01*
X55976Y55345D01*
X55971Y55351D01*
X55889Y55422D01*
X55812Y55487D01*
X55785Y55515D01*
X55763Y55537D01*
X55747Y55547D01*
X55741Y55553D01*
X55660Y55635D01*
X55594Y55700D01*
X55567Y55728D01*
X55545Y55749D01*
X55534Y55760D01*
X55528Y55766D01*
X55452Y55842D01*
X55392Y55908D01*
X55370Y55935D01*
X55354Y55957D01*
X55343Y55968D01*
X55337Y55973D01*
Y55968D01*
X55277Y56039D01*
X55234Y56094D01*
X55217Y56115D01*
X55206Y56132D01*
X55195Y56137D01*
Y56143D01*
X55171Y56174D01*
X55173Y56137D01*
X55179Y56110D01*
Y56088D01*
X55184Y56077D01*
Y56072D01*
X55195Y55990D01*
X55206Y55924D01*
X55212Y55902D01*
Y55881D01*
X55217Y55870D01*
Y55864D01*
X55223Y55799D01*
X55234Y55749D01*
Y55728D01*
X55239Y55711D01*
Y55700D01*
Y55695D01*
X55244Y55635D01*
X55250Y55580D01*
X55255Y55564D01*
Y55547D01*
Y55537D01*
Y55531D01*
Y55471D01*
Y55417D01*
Y55389D01*
Y55373D01*
Y55362D01*
Y55356D01*
X55250Y55280D01*
X55244Y55209D01*
Y55182D01*
X55239Y55160D01*
Y55149D01*
Y55143D01*
X55217Y55072D01*
X55195Y55018D01*
X55190Y54996D01*
X55179Y54985D01*
X55173Y54974D01*
Y54969D01*
X55135Y54920D01*
X55097Y54887D01*
X55070Y54860D01*
X55064Y54854D01*
X55059D01*
X55004Y54832D01*
X54950Y54821D01*
X54922Y54816D01*
X54890Y54816D01*
X54840Y54821D01*
X54797Y54832D01*
X54769Y54843D01*
X54759Y54849D01*
X54715Y54876D01*
X54677Y54909D01*
X54655Y54931D01*
X54649Y54941D01*
X54622Y54980D01*
X54600Y55018D01*
X54578Y55045D01*
X54573Y55051D01*
Y55056D01*
X54540Y55111D01*
X54513Y55154D01*
X54491Y55187D01*
X54486Y55193D01*
Y55198D01*
X54453Y55253D01*
X54426Y55302D01*
X54409Y55335D01*
X54404Y55340D01*
Y55345D01*
X54376Y55395D01*
X54349Y55433D01*
X54338Y55455D01*
X54333Y55466D01*
X54289Y55542D01*
X54245Y55613D01*
X54207Y55678D01*
X54174Y55733D01*
X54142Y55782D01*
X54120Y55815D01*
X54109Y55842D01*
X54103Y55848D01*
X54065Y55913D01*
X54027Y55968D01*
X53989Y56023D01*
X53961Y56066D01*
X53934Y56104D01*
X53918Y56132D01*
X53907Y56148D01*
X53901Y56154D01*
X53869Y56203D01*
X53836Y56241D01*
X53808Y56279D01*
X53787Y56306D01*
X53770Y56328D01*
X53754Y56345D01*
X53749Y56356D01*
X53743Y56361D01*
X53716Y56388D01*
X53699Y56405D01*
X53667Y56427D01*
X53650Y56437D01*
X53645D01*
X53634Y56432D01*
X53628Y56410D01*
X53623Y56383D01*
X53617Y56350D01*
X53612Y56312D01*
X53606Y56285D01*
Y56263D01*
Y56257D01*
X53601Y56186D01*
X53596Y56104D01*
X53590Y56023D01*
Y55941D01*
X53585Y55870D01*
Y55815D01*
Y55793D01*
Y55777D01*
Y55766D01*
Y55760D01*
Y55689D01*
X53579Y55629D01*
X53574Y55569D01*
Y55520D01*
X53568Y55482D01*
X53563Y55455D01*
Y55433D01*
Y55427D01*
X53557Y55378D01*
X53546Y55335D01*
X53535Y55291D01*
X53530Y55258D01*
X53519Y55231D01*
X53514Y55214D01*
X53508Y55203D01*
Y55198D01*
X53470Y55143D01*
X53432Y55100D01*
X53404Y55078D01*
X53399Y55067D01*
X53394D01*
X53333Y55045D01*
X53279Y55034D01*
X53252Y55029D01*
X53213D01*
X53159Y55034D01*
X53110Y55051D01*
X53077Y55067D01*
X53071Y55072D01*
X53066D01*
X53011Y55116D01*
X52968Y55160D01*
X52946Y55182D01*
X52930Y55198D01*
X52924Y55209D01*
X52918Y55214D01*
X52864Y55291D01*
X52809Y55362D01*
X52788Y55395D01*
X52777Y55416D01*
X52766Y55433D01*
X52760Y55438D01*
X52695Y55542D01*
X52662Y55597D01*
X52635Y55640D01*
X52613Y55684D01*
X52591Y55717D01*
X52580Y55739D01*
X52575Y55744D01*
X52520Y55842D01*
X52493Y55881D01*
X52471Y55924D01*
X52454Y55951D01*
X52438Y55979D01*
X52433Y55995D01*
X52427Y56001D01*
X52372Y56088D01*
X52351Y56126D01*
X52329Y56159D01*
X52312Y56181D01*
X52302Y56203D01*
X52291Y56214D01*
Y56219D01*
X52247Y56285D01*
X52209Y56334D01*
X52187Y56361D01*
X52181Y56372D01*
X52165Y56394D01*
X52154Y56405D01*
X52132Y56427D01*
X52127Y56432D01*
X52121D01*
X52116Y56427D01*
Y56410D01*
X52110Y56394D01*
Y56388D01*
X52105Y56356D01*
Y56317D01*
Y56290D01*
Y56285D01*
Y56279D01*
X52100Y56235D01*
Y56192D01*
X52094Y56164D01*
Y56159D01*
Y56154D01*
X52089Y56115D01*
Y56088D01*
Y56072D01*
Y56066D01*
X52078Y55957D01*
X52061Y55864D01*
X52045Y55782D01*
X52029Y55711D01*
X52018Y55657D01*
X52007Y55613D01*
X51996Y55591D01*
Y55580D01*
X51974Y55515D01*
X51947Y55455D01*
X51925Y55405D01*
X51903Y55367D01*
X51887Y55335D01*
X51870Y55313D01*
X51865Y55296D01*
X51859Y55291D01*
X51832Y55253D01*
X51799Y55225D01*
X51772Y55198D01*
X51750Y55182D01*
X51728Y55165D01*
X51712Y55154D01*
X51701Y55149D01*
X51696D01*
X51630Y55127D01*
X51570Y55116D01*
X51548Y55111D01*
X51515D01*
X51439Y55116D01*
X51368Y55133D01*
X51341Y55138D01*
X51319Y55143D01*
X51308Y55149D01*
X51302D01*
X51221Y55182D01*
X51149Y55220D01*
X51122Y55231D01*
X51100Y55242D01*
X51089Y55253D01*
X51084D01*
X51007Y55296D01*
X50942Y55340D01*
X50915Y55356D01*
X50898Y55373D01*
X50887Y55378D01*
X50882Y55384D01*
X50816Y55433D01*
X50767Y55471D01*
X50745Y55487D01*
X50729Y55498D01*
X50724Y55509D01*
X50718D01*
X50653Y55569D01*
X50598Y55619D01*
X50576Y55640D01*
X50560Y55657D01*
X50549Y55668D01*
X50543Y55673D01*
X50478Y55739D01*
X50423Y55793D01*
X50402Y55815D01*
X50385Y55831D01*
X50380Y55842D01*
X50374Y55848D01*
X50314Y55908D01*
X50276Y55956D01*
Y55902D01*
X50270Y55853D01*
Y55815D01*
Y55777D01*
X50265Y55749D01*
Y55728D01*
Y55722D01*
X50254Y55619D01*
X50249Y55569D01*
X50238Y55526D01*
X50232Y55493D01*
X50227Y55466D01*
X50221Y55444D01*
Y55438D01*
X50194Y55335D01*
X50178Y55291D01*
X50167Y55253D01*
X50150Y55220D01*
X50145Y55193D01*
X50134Y55176D01*
Y55171D01*
X50085Y55083D01*
X50063Y55045D01*
X50036Y55012D01*
X50019Y54985D01*
X50003Y54963D01*
X49992Y54952D01*
X49986Y54947D01*
X49916Y54881D01*
X49845Y54832D01*
X49817Y54816D01*
X49795Y54805D01*
X49779Y54794D01*
X49774D01*
X49675Y54761D01*
X49626Y54750D01*
X49577Y54745D01*
X49539D01*
X49506Y54739D01*
X49479D01*
X49424Y54745D01*
X49369Y54750D01*
X49320Y54761D01*
X49271Y54772D01*
X49233Y54783D01*
X49200Y54789D01*
X49178Y54799D01*
X49173D01*
X49053Y54854D01*
X48993Y54887D01*
X48944Y54920D01*
X48900Y54941D01*
X48867Y54963D01*
X48845Y54980D01*
X48840Y54985D01*
X48720Y55078D01*
X48665Y55122D01*
X48616Y55160D01*
X48578Y55193D01*
X48551Y55220D01*
X48529Y55236D01*
X48523Y55242D01*
X48414Y55340D01*
X48370Y55389D01*
X48327Y55427D01*
X48294Y55466D01*
X48267Y55493D01*
X48250Y55509D01*
X48245Y55515D01*
X48157Y55608D01*
X48125Y55646D01*
X48092Y55684D01*
X48065Y55717D01*
X48043Y55739D01*
X48032Y55755D01*
X48026Y55760D01*
X47991Y55804D01*
X47994Y55777D01*
Y55722D01*
X47999Y55678D01*
Y55651D01*
Y55629D01*
Y55624D01*
X47994Y55531D01*
X47988Y55449D01*
X47972Y55378D01*
X47950Y55318D01*
X47928Y55264D01*
X47901Y55214D01*
X47873Y55171D01*
X47846Y55138D01*
X47819Y55111D01*
X47792Y55089D01*
X47743Y55062D01*
X47704Y55045D01*
X47699Y55040D01*
X47693D01*
X47633Y55067D01*
X47584Y55100D01*
X47562Y55116D01*
X47546Y55127D01*
X47535Y55133D01*
X47530Y55138D01*
X47458Y55193D01*
X47404Y55247D01*
X47377Y55269D01*
X47360Y55285D01*
X47349Y55296D01*
X47344Y55302D01*
X47278Y55373D01*
X47224Y55433D01*
X47202Y55460D01*
X47186Y55482D01*
X47175Y55493D01*
X47169Y55498D01*
X47109Y55569D01*
X47065Y55629D01*
X47049Y55651D01*
X47038Y55668D01*
X47027Y55678D01*
Y55684D01*
X46967Y55771D01*
X46907Y55848D01*
X46863Y55913D01*
X46820Y55968D01*
X46792Y56006D01*
X46765Y56039D01*
X46754Y56061D01*
X46749Y56066D01*
X46711Y56121D01*
X46678Y56164D01*
X46650Y56203D01*
X46623Y56230D01*
X46607Y56252D01*
X46590Y56274D01*
X46585Y56279D01*
X46580Y56285D01*
X46530Y56334D01*
X46498Y56361D01*
X46470Y56377D01*
X46465Y56383D01*
X46427Y56399D01*
X46399Y56405D01*
X46378Y56410D01*
X46367D01*
X46345Y56405D01*
X46328Y56388D01*
X46312Y56366D01*
X46301Y56345D01*
X46290Y56317D01*
X46279Y56296D01*
X46274Y56279D01*
Y56274D01*
X46257Y56219D01*
X46246Y56159D01*
X46230Y56099D01*
X46219Y56039D01*
X46214Y55990D01*
X46208Y55946D01*
X46203Y55919D01*
Y55908D01*
X46186Y55788D01*
X46175Y55728D01*
X46165Y55678D01*
X46154Y55640D01*
X46148Y55608D01*
X46143Y55586D01*
Y55580D01*
X46104Y55471D01*
X46083Y55427D01*
X46066Y55384D01*
X46050Y55351D01*
X46033Y55324D01*
X46028Y55307D01*
X46023Y55302D01*
X45957Y55220D01*
X45924Y55187D01*
X45897Y55160D01*
X45870Y55138D01*
X45848Y55122D01*
X45832Y55116D01*
X45826Y55111D01*
X45777Y55089D01*
X45728Y55072D01*
X45679Y55056D01*
X45629Y55051D01*
X45591Y55045D01*
X45553Y55040D01*
X45526D01*
X45449Y55045D01*
X45384Y55051D01*
X45356Y55056D01*
X45340D01*
X45329Y55062D01*
X45324D01*
X45258Y55078D01*
X45204Y55100D01*
X45182Y55111D01*
X45165Y55116D01*
X45154Y55122D01*
X45149D01*
X45089Y55149D01*
X45034Y55182D01*
X45013Y55193D01*
X44996Y55203D01*
X44991Y55209D01*
X44985D01*
X44925Y55247D01*
X44870Y55280D01*
X44854Y55296D01*
X44838Y55307D01*
X44827Y55318D01*
X44821D01*
X44739Y55373D01*
X44668Y55427D01*
X44641Y55455D01*
X44619Y55471D01*
X44608Y55482D01*
X44603Y55487D01*
X44521Y55558D01*
X44456Y55624D01*
X44428Y55651D01*
X44406Y55673D01*
X44396Y55684D01*
X44390Y55689D01*
X44314Y55771D01*
X44248Y55842D01*
X44226Y55870D01*
X44204Y55892D01*
X44194Y55902D01*
X44188Y55908D01*
X44117Y55984D01*
X44062Y56055D01*
X44041Y56077D01*
X44024Y56099D01*
X44019Y56110D01*
X44013Y56115D01*
X43991Y56143D01*
X43975Y56164D01*
X43964Y56186D01*
X43959Y56192D01*
X43937Y56230D01*
X43920Y56257D01*
X43909Y56279D01*
X43904Y56290D01*
X43888Y56328D01*
X43871Y56366D01*
X43866Y56388D01*
X43860Y56399D01*
X43850Y56437D01*
X43844Y56470D01*
Y56492D01*
Y56503D01*
Y56525D01*
X43850Y56541D01*
X43855Y56547D01*
Y56552D01*
X43871Y56579D01*
X43877Y56585D01*
X43882D01*
X43909Y56596D01*
X43915Y56601D01*
X43920D01*
X43942Y56607D01*
X43953D01*
X43981Y56601D01*
X44008Y56596D01*
X44024Y56585D01*
X44030Y56579D01*
X44057Y56558D01*
X44084Y56541D01*
X44106Y56519D01*
X44112Y56514D01*
X44139Y56487D01*
X44172Y56454D01*
X44188Y56437D01*
X44199Y56427D01*
X44232Y56388D01*
X44259Y56356D01*
X44281Y56334D01*
X44286Y56323D01*
X44401Y56214D01*
X44450Y56164D01*
X44494Y56121D01*
X44537Y56083D01*
X44565Y56055D01*
X44587Y56033D01*
X44592Y56028D01*
X44701Y55935D01*
X44756Y55892D01*
X44800Y55859D01*
X44838Y55826D01*
X44865Y55804D01*
X44887Y55793D01*
X44892Y55788D01*
X44996Y55717D01*
X45045Y55689D01*
X45089Y55668D01*
X45122Y55651D01*
X45149Y55635D01*
X45165Y55629D01*
X45171Y55624D01*
X45220Y55602D01*
X45264Y55591D01*
X45302Y55580D01*
X45340Y55569D01*
X45367D01*
X45389Y55564D01*
X45411D01*
X45466Y55569D01*
X45504Y55591D01*
X45531Y55608D01*
X45542Y55613D01*
X45575Y55657D01*
X45602Y55700D01*
X45619Y55739D01*
X45624Y55744D01*
Y55749D01*
X45640Y55815D01*
X45657Y55870D01*
X45662Y55897D01*
Y55913D01*
X45668Y55924D01*
Y55930D01*
X45679Y56001D01*
X45689Y56066D01*
Y56088D01*
X45695Y56110D01*
Y56121D01*
Y56126D01*
X45711Y56257D01*
X45717Y56312D01*
X45728Y56361D01*
X45733Y56405D01*
X45739Y56437D01*
X45744Y56459D01*
Y56465D01*
X45755Y56519D01*
X45771Y56574D01*
X45782Y56618D01*
X45799Y56656D01*
X45810Y56689D01*
X45821Y56710D01*
X45826Y56727D01*
X45832Y56732D01*
X45881Y56809D01*
X45930Y56863D01*
X45952Y56885D01*
X45973Y56902D01*
X45984Y56907D01*
X45990Y56912D01*
X46028Y56934D01*
X46072Y56951D01*
X46154Y56973D01*
X46192D01*
X46219Y56978D01*
X46246D01*
X46339Y56973D01*
X46378Y56967D01*
X46416Y56956D01*
X46443Y56951D01*
X46465Y56940D01*
X46481Y56934D01*
X46487D01*
X46563Y56902D01*
X46623Y56863D01*
X46650Y56852D01*
X46667Y56836D01*
X46678Y56831D01*
X46683Y56825D01*
X46749Y56770D01*
X46803Y56721D01*
X46825Y56694D01*
X46842Y56678D01*
X46852Y56667D01*
X46858Y56661D01*
X46918Y56590D01*
X46973Y56530D01*
X46989Y56503D01*
X47005Y56481D01*
X47016Y56470D01*
X47022Y56465D01*
X47071Y56405D01*
X47109Y56345D01*
X47131Y56323D01*
X47142Y56306D01*
X47147Y56296D01*
X47153Y56290D01*
X47202Y56225D01*
X47240Y56164D01*
X47262Y56143D01*
X47273Y56126D01*
X47278Y56115D01*
X47284Y56110D01*
X47328Y56050D01*
X47366Y55995D01*
X47382Y55973D01*
X47393Y55957D01*
X47398Y55951D01*
X47404Y55946D01*
X47442Y55892D01*
X47475Y55853D01*
X47497Y55826D01*
X47502Y55815D01*
X47497Y55859D01*
X47491Y55902D01*
X47480Y55941D01*
Y55946D01*
Y55951D01*
X47464Y56017D01*
X47448Y56072D01*
X47442Y56088D01*
Y56104D01*
X47437Y56115D01*
Y56121D01*
X47420Y56181D01*
X47404Y56235D01*
X47398Y56257D01*
Y56274D01*
X47393Y56279D01*
Y56285D01*
X47377Y56339D01*
X47366Y56383D01*
X47355Y56410D01*
Y56421D01*
X47338Y56476D01*
X47328Y56519D01*
X47317Y56547D01*
Y56558D01*
X47306Y56601D01*
X47295Y56639D01*
X47284Y56661D01*
Y56672D01*
X47267Y56710D01*
X47262Y56743D01*
X47256Y56765D01*
Y56776D01*
X47251Y56814D01*
X47246Y56852D01*
Y56874D01*
Y56885D01*
Y56929D01*
X47251Y56967D01*
X47256Y56989D01*
X47262Y56994D01*
X47273Y57027D01*
X47289Y57054D01*
X47300Y57071D01*
X47306Y57076D01*
X47322Y57104D01*
X47344Y57120D01*
X47360Y57125D01*
X47366Y57131D01*
X47393Y57142D01*
X47415Y57147D01*
X47491D01*
X47513Y57142D01*
X47519D01*
X47546Y57136D01*
X47573Y57131D01*
X47590Y57125D01*
X47595Y57120D01*
X47622Y57104D01*
X47650Y57087D01*
X47666Y57076D01*
X47671Y57071D01*
X47693Y57043D01*
X47715Y57011D01*
X47732Y56989D01*
X47737Y56984D01*
Y56978D01*
X47770Y56896D01*
X47797Y56825D01*
X47808Y56792D01*
X47819Y56770D01*
X47824Y56754D01*
Y56749D01*
X47852Y56661D01*
X47863Y56618D01*
X47873Y56579D01*
X47879Y56547D01*
X47884Y56525D01*
X47890Y56508D01*
Y56503D01*
X47901Y56440D01*
X47912Y56427D01*
X47917Y56421D01*
X47923Y56416D01*
X47934Y56394D01*
X47939Y56388D01*
X47983Y56334D01*
X48032Y56279D01*
X48054Y56257D01*
X48070Y56241D01*
X48081Y56230D01*
X48086Y56225D01*
X48157Y56154D01*
X48217Y56094D01*
X48245Y56072D01*
X48267Y56050D01*
X48278Y56039D01*
X48283Y56033D01*
X48359Y55963D01*
X48430Y55897D01*
X48458Y55875D01*
X48480Y55853D01*
X48491Y55842D01*
X48496Y55837D01*
X48567Y55771D01*
X48627Y55722D01*
X48649Y55706D01*
X48665Y55689D01*
X48676Y55684D01*
X48682Y55678D01*
X48769Y55608D01*
X48851Y55547D01*
X48922Y55493D01*
X48993Y55455D01*
X49047Y55416D01*
X49086Y55395D01*
X49113Y55378D01*
X49124Y55373D01*
X49200Y55335D01*
X49255Y55313D01*
X49277Y55307D01*
X49293Y55302D01*
X49304Y55296D01*
X49310D01*
X49364Y55291D01*
X49413Y55285D01*
X49462D01*
X49501Y55296D01*
X49533Y55313D01*
X49555Y55329D01*
X49561Y55340D01*
X49588Y55384D01*
X49610Y55433D01*
X49621Y55455D01*
X49626Y55471D01*
X49632Y55482D01*
Y55487D01*
X49648Y55558D01*
X49664Y55624D01*
X49670Y55651D01*
Y55673D01*
X49675Y55689D01*
Y55695D01*
X49681Y55782D01*
X49686Y55859D01*
Y55892D01*
Y55913D01*
Y55930D01*
Y55935D01*
Y56023D01*
X49681Y56104D01*
Y56137D01*
X49675Y56164D01*
Y56181D01*
Y56186D01*
X49664Y56296D01*
X49659Y56350D01*
X49648Y56399D01*
X49643Y56443D01*
X49637Y56476D01*
X49632Y56498D01*
Y56503D01*
X49621Y56574D01*
X49610Y56639D01*
X49604Y56661D01*
X49599Y56683D01*
Y56694D01*
Y56700D01*
X49588Y56776D01*
X49582Y56836D01*
Y56858D01*
Y56874D01*
Y56885D01*
Y56891D01*
X49588Y56956D01*
X49604Y57000D01*
X49632Y57033D01*
X49659Y57060D01*
X49692Y57071D01*
X49714Y57076D01*
X49735Y57082D01*
X49741D01*
X49795Y57076D01*
X49850Y57065D01*
X49894Y57049D01*
X49937Y57033D01*
X49970Y57011D01*
X49997Y56994D01*
X50014Y56984D01*
X50019Y56978D01*
X50063Y56940D01*
X50101Y56902D01*
X50129Y56863D01*
X50150Y56825D01*
X50167Y56798D01*
X50178Y56776D01*
X50188Y56760D01*
Y56754D01*
X50200Y56705D01*
X50210Y56645D01*
X50216Y56623D01*
Y56601D01*
X50221Y56590D01*
Y56585D01*
X50232Y56508D01*
X50239Y56463D01*
X50254Y56448D01*
X50303Y56394D01*
X50325Y56372D01*
X50341Y56356D01*
X50347Y56350D01*
X50352Y56345D01*
X50407Y56290D01*
X50451Y56241D01*
X50483Y56208D01*
X50489Y56203D01*
X50494Y56197D01*
X50549Y56148D01*
X50593Y56104D01*
X50631Y56072D01*
X50636Y56066D01*
X50642Y56061D01*
X50696Y56012D01*
X50740Y55973D01*
X50778Y55946D01*
X50784Y55941D01*
X50789Y55935D01*
X50844Y55892D01*
X50898Y55853D01*
X50915Y55837D01*
X50931Y55826D01*
X50942Y55821D01*
X50947Y55815D01*
X51007Y55777D01*
X51062Y55744D01*
X51078Y55728D01*
X51095Y55722D01*
X51106Y55711D01*
X51111D01*
X51166Y55678D01*
X51210Y55651D01*
X51242Y55635D01*
X51248Y55629D01*
X51253D01*
X51297Y55613D01*
X51330Y55608D01*
X51357Y55602D01*
X51362D01*
X51395Y55608D01*
X51423Y55624D01*
X51450Y55646D01*
X51472Y55673D01*
X51488Y55700D01*
X51499Y55722D01*
X51510Y55739D01*
Y55744D01*
X51526Y55804D01*
X51543Y55870D01*
X51553Y55935D01*
X51565Y56001D01*
X51575Y56055D01*
X51581Y56099D01*
X51586Y56132D01*
Y56143D01*
X51597Y56241D01*
X51603Y56285D01*
Y56317D01*
Y56350D01*
X51608Y56372D01*
Y56388D01*
Y56394D01*
Y56476D01*
X51614Y56541D01*
Y56568D01*
X51619Y56585D01*
Y56596D01*
Y56601D01*
X51625Y56667D01*
X51635Y56721D01*
X51641Y56743D01*
Y56760D01*
X51646Y56765D01*
Y56770D01*
X51663Y56831D01*
X51685Y56874D01*
X51701Y56907D01*
X51706Y56912D01*
Y56918D01*
X51723Y56940D01*
X51739Y56956D01*
X51756Y56967D01*
X51761Y56973D01*
X51788Y56989D01*
X51816Y57005D01*
X51832Y57011D01*
X51843Y57016D01*
X51876Y57033D01*
X51903Y57038D01*
X51925Y57043D01*
X51936D01*
X51968Y57049D01*
X52001Y57054D01*
X52056D01*
X52078Y57043D01*
X52127Y57027D01*
X52149Y57016D01*
X52165Y57005D01*
X52176Y57000D01*
X52181Y56994D01*
X52241Y56945D01*
X52302Y56891D01*
X52323Y56869D01*
X52340Y56847D01*
X52351Y56836D01*
X52356Y56831D01*
X52427Y56754D01*
X52487Y56678D01*
X52509Y56650D01*
X52531Y56623D01*
X52542Y56607D01*
X52547Y56601D01*
X52613Y56503D01*
X52645Y56459D01*
X52667Y56416D01*
X52689Y56383D01*
X52706Y56350D01*
X52716Y56334D01*
X52722Y56328D01*
X52760Y56257D01*
X52798Y56192D01*
X52809Y56164D01*
X52820Y56143D01*
X52831Y56132D01*
Y56126D01*
X52869Y56050D01*
X52908Y55990D01*
X52918Y55963D01*
X52930Y55946D01*
X52940Y55935D01*
Y55930D01*
X52973Y55870D01*
X53006Y55821D01*
X53028Y55788D01*
X53033Y55782D01*
Y55777D01*
X53044Y55755D01*
X53061Y55744D01*
X53077Y55722D01*
X53088Y55717D01*
X53093D01*
X53099Y55722D01*
Y55744D01*
X53104Y55760D01*
Y55766D01*
Y55810D01*
Y55853D01*
X53110Y55886D01*
Y55892D01*
Y55897D01*
Y55963D01*
Y56023D01*
Y56044D01*
Y56066D01*
Y56077D01*
Y56083D01*
Y56159D01*
Y56225D01*
X53115Y56246D01*
Y56268D01*
Y56279D01*
Y56285D01*
X53121Y56361D01*
Y56421D01*
X53126Y56443D01*
Y56459D01*
Y56470D01*
Y56476D01*
X53132Y56541D01*
X53137Y56585D01*
X53142Y56618D01*
X53148Y56629D01*
X53164Y56689D01*
X53181Y56743D01*
X53202Y56787D01*
X53224Y56825D01*
X53246Y56858D01*
X53263Y56880D01*
X53273Y56891D01*
X53279Y56896D01*
X53317Y56929D01*
X53361Y56956D01*
X53399Y56973D01*
X53437Y56989D01*
X53470Y56994D01*
X53497Y57000D01*
X53579D01*
X53628Y56989D01*
X53672Y56978D01*
X53710Y56967D01*
X53743Y56956D01*
X53770Y56945D01*
X53787Y56940D01*
X53792Y56934D01*
X53836Y56907D01*
X53879Y56880D01*
X53918Y56847D01*
X53951Y56820D01*
X53978Y56792D01*
X54000Y56770D01*
X54010Y56754D01*
X54016Y56749D01*
X54054Y56700D01*
X54092Y56650D01*
X54109Y56634D01*
X54120Y56618D01*
X54125Y56607D01*
X54131Y56601D01*
X54174Y56541D01*
X54218Y56481D01*
X54234Y56459D01*
X54245Y56443D01*
X54251Y56432D01*
X54256Y56427D01*
X54305Y56361D01*
X54344Y56301D01*
X54360Y56274D01*
X54371Y56257D01*
X54376Y56246D01*
X54382Y56241D01*
X54420Y56181D01*
X54453Y56132D01*
X54475Y56094D01*
X54480Y56088D01*
Y56083D01*
X54486Y56072D01*
X54497Y56050D01*
X54507Y56033D01*
X54513Y56028D01*
X54529Y55995D01*
X54546Y55963D01*
X54562Y55941D01*
X54567Y55935D01*
Y55930D01*
X54595Y55886D01*
X54617Y55848D01*
X54633Y55821D01*
X54638Y55815D01*
Y55810D01*
X54660Y55766D01*
X54682Y55728D01*
X54698Y55706D01*
X54704Y55695D01*
X54726Y55657D01*
X54742Y55629D01*
X54753Y55608D01*
X54759Y55602D01*
X54769Y55580D01*
X54780Y55564D01*
X54786Y55553D01*
X54780Y55597D01*
X54775Y55646D01*
X54769Y55668D01*
X54764Y55684D01*
Y55695D01*
Y55700D01*
X54748Y55777D01*
X54731Y55842D01*
X54726Y55870D01*
X54720Y55892D01*
X54715Y55908D01*
Y55913D01*
X54693Y56006D01*
X54688Y56044D01*
X54677Y56083D01*
X54671Y56115D01*
X54666Y56143D01*
X54660Y56159D01*
Y56164D01*
X54638Y56257D01*
X54633Y56301D01*
X54628Y56339D01*
X54617Y56372D01*
Y56394D01*
X54611Y56410D01*
Y56416D01*
X54595Y56503D01*
X54589Y56536D01*
X54584Y56568D01*
X54578Y56596D01*
X54573Y56618D01*
Y56629D01*
Y56634D01*
X54562Y56700D01*
X54557Y56749D01*
Y56781D01*
Y56792D01*
Y56841D01*
X54562Y56880D01*
X54567Y56907D01*
Y56918D01*
X54573Y56962D01*
X54584Y57000D01*
X54595Y57022D01*
X54600Y57027D01*
X54622Y57060D01*
X54638Y57082D01*
X54660Y57098D01*
X54666Y57104D01*
X54704Y57120D01*
X54742Y57125D01*
X54775Y57131D01*
X54786D01*
X54840Y57125D01*
X54890Y57120D01*
X54917Y57109D01*
X54922Y57104D01*
X54928D01*
X54966Y57082D01*
X54993Y57060D01*
X55015Y57038D01*
X55021Y57033D01*
X55042Y57005D01*
X55059Y56973D01*
X55070Y56956D01*
X55075Y56945D01*
X55086Y56912D01*
X55097Y56891D01*
X55102Y56869D01*
Y56863D01*
X55114Y56809D01*
X55124Y56760D01*
Y56738D01*
X55130Y56721D01*
Y56710D01*
Y56705D01*
X55135Y56639D01*
X55141Y56607D01*
X55179Y56601D01*
X55206Y56590D01*
X55228Y56574D01*
X55234Y56568D01*
X55305Y56498D01*
X55375Y56427D01*
X55408Y56399D01*
X55430Y56377D01*
X55446Y56366D01*
X55452Y56361D01*
X55539Y56279D01*
X55583Y56241D01*
X55621Y56208D01*
X55654Y56181D01*
X55676Y56159D01*
X55692Y56143D01*
X55698Y56137D01*
X55791Y56055D01*
X55834Y56017D01*
X55872Y55990D01*
X55900Y55963D01*
X55927Y55941D01*
X55943Y55930D01*
X55949Y55924D01*
X56042Y55853D01*
X56085Y55821D01*
X56124Y55793D01*
X56151Y55771D01*
X56178Y55755D01*
X56195Y55744D01*
X56200Y55739D01*
X56227Y55722D01*
X56249Y55711D01*
X56271Y55700D01*
X56276Y55695D01*
X56304Y55678D01*
X56331Y55668D01*
X56353Y55657D01*
X56358Y55651D01*
X56386Y55640D01*
X56413Y55629D01*
X56429Y55624D01*
X56435Y55619D01*
X56462Y55613D01*
X56489Y55608D01*
X56511D01*
X56544Y55613D01*
X56555Y55619D01*
X56560D01*
X56582Y55646D01*
X56588Y55651D01*
X56593Y55657D01*
X56615Y55690D01*
X56620Y55695D01*
Y55700D01*
X56631Y55728D01*
Y55739D01*
X56637Y55793D01*
X56642Y55848D01*
X56648Y55870D01*
Y55881D01*
Y55892D01*
Y55897D01*
X56653Y55957D01*
Y56012D01*
X56659Y56028D01*
Y56044D01*
Y56055D01*
Y56061D01*
Y56126D01*
Y56181D01*
Y56197D01*
Y56214D01*
Y56225D01*
Y56230D01*
Y56290D01*
Y56339D01*
Y56372D01*
Y56377D01*
Y56383D01*
X56653Y56503D01*
Y56558D01*
X56648Y56607D01*
Y56645D01*
X56642Y56678D01*
Y56700D01*
Y56705D01*
X56626Y56831D01*
X56615Y56891D01*
X56609Y56945D01*
X56604Y56989D01*
X56599Y57027D01*
X56593Y57049D01*
Y57060D01*
X56588Y57071D01*
Y57082D01*
X56582Y57093D01*
Y57098D01*
X56577Y57125D01*
Y57153D01*
X56571Y57175D01*
Y57180D01*
X56566Y57218D01*
X56560Y57251D01*
X56555Y57273D01*
Y57284D01*
X56549Y57322D01*
X56544Y57355D01*
X56538Y57377D01*
Y57388D01*
X56533Y57420D01*
X56528Y57448D01*
X56522Y57469D01*
Y57475D01*
X56517Y57502D01*
Y57519D01*
Y57524D01*
Y57529D01*
X56500Y57600D01*
X56489Y57671D01*
X56479Y57731D01*
X56467Y57781D01*
X56462Y57824D01*
X56457Y57852D01*
X56451Y57873D01*
Y57879D01*
X56440Y57933D01*
X56429Y57983D01*
X56418Y58021D01*
X56413Y58059D01*
X56407Y58092D01*
Y58114D01*
X56402Y58125D01*
Y58130D01*
X56386Y58201D01*
X56375Y58250D01*
X56369Y58283D01*
Y58294D01*
X56358Y58338D01*
X56353Y58370D01*
Y58387D01*
Y58392D01*
X56358Y58414D01*
X56364Y58436D01*
X56375Y58452D01*
X56380Y58458D01*
X56402Y58485D01*
X56418Y58507D01*
X56440Y58518D01*
X56446Y58523D01*
X56479Y58540D01*
X56511Y58556D01*
X56533Y58561D01*
X56544Y58567D01*
X56582Y58578D01*
X56620Y58589D01*
X56659D01*
X56724Y58583D01*
D02*
G37*
G36*
X81387Y58392D02*
X81480Y58387D01*
X81562Y58370D01*
X81638Y58359D01*
X81704Y58343D01*
X81753Y58327D01*
X81786Y58321D01*
X81791Y58316D01*
X81796D01*
X81884Y58283D01*
X81966Y58250D01*
X82048Y58217D01*
X82113Y58179D01*
X82168Y58152D01*
X82211Y58125D01*
X82239Y58108D01*
X82250Y58103D01*
X82326Y58048D01*
X82402Y57994D01*
X82473Y57939D01*
X82534Y57890D01*
X82583Y57846D01*
X82621Y57813D01*
X82643Y57792D01*
X82654Y57781D01*
X82719Y57710D01*
X82785Y57639D01*
X82845Y57573D01*
X82894Y57513D01*
X82932Y57459D01*
X82965Y57420D01*
X82987Y57393D01*
X82992Y57382D01*
X83030Y57322D01*
X83069Y57257D01*
X83085Y57229D01*
X83096Y57213D01*
X83101Y57196D01*
X83107Y57191D01*
X83145Y57109D01*
X83183Y57033D01*
X83200Y57000D01*
X83211Y56973D01*
X83216Y56956D01*
X83222Y56951D01*
X83260Y56852D01*
X83276Y56809D01*
X83293Y56765D01*
X83309Y56732D01*
X83314Y56700D01*
X83325Y56683D01*
Y56678D01*
X83358Y56574D01*
X83374Y56525D01*
X83391Y56481D01*
X83402Y56448D01*
X83413Y56421D01*
X83418Y56399D01*
Y56394D01*
X83445Y56296D01*
X83456Y56252D01*
X83462Y56214D01*
X83467Y56181D01*
X83473Y56154D01*
X83478Y56137D01*
Y56132D01*
X83489Y56050D01*
X83495Y56012D01*
Y55979D01*
X83500Y55957D01*
Y55935D01*
Y55924D01*
Y55919D01*
X83495Y55848D01*
X83489Y55782D01*
X83462Y55657D01*
X83418Y55547D01*
X83374Y55449D01*
X83331Y55367D01*
X83309Y55335D01*
X83287Y55307D01*
X83271Y55280D01*
X83260Y55264D01*
X83249Y55258D01*
Y55253D01*
X83151Y55154D01*
X83047Y55067D01*
X82943Y54996D01*
X82850Y54936D01*
X82763Y54887D01*
X82725Y54870D01*
X82692Y54854D01*
X82670Y54843D01*
X82648Y54832D01*
X82637Y54827D01*
X82632D01*
X82495Y54783D01*
X82435Y54767D01*
X82381Y54756D01*
X82332Y54745D01*
X82299Y54734D01*
X82271Y54729D01*
X82266D01*
X82130Y54707D01*
X82069Y54701D01*
X82015Y54696D01*
X81966Y54690D01*
X81796D01*
X81747Y54696D01*
X81660D01*
X81627Y54701D01*
X81600D01*
X81474Y54712D01*
X81414Y54718D01*
X81365Y54729D01*
X81322Y54734D01*
X81283Y54739D01*
X81261Y54745D01*
X81256D01*
X81125Y54767D01*
X81065Y54778D01*
X81010Y54789D01*
X80961Y54799D01*
X80928Y54805D01*
X80901Y54810D01*
X80896D01*
X80765Y54849D01*
X80710Y54865D01*
X80655Y54881D01*
X80612Y54898D01*
X80579Y54909D01*
X80557Y54920D01*
X80552D01*
X80437Y54969D01*
X80382Y54996D01*
X80339Y55018D01*
X80300Y55040D01*
X80268Y55056D01*
X80251Y55062D01*
X80246Y55067D01*
X80148Y55133D01*
X80109Y55160D01*
X80071Y55187D01*
X80044Y55214D01*
X80022Y55231D01*
X80011Y55242D01*
X80006Y55247D01*
X79973Y55329D01*
X79957Y55405D01*
X79951Y55438D01*
Y55466D01*
Y55482D01*
Y55487D01*
Y55504D01*
X79957Y55520D01*
X79962Y55531D01*
X79967Y55537D01*
X79984Y55558D01*
X80000Y55575D01*
X80011Y55586D01*
X80016Y55591D01*
X80038Y55608D01*
X80060Y55624D01*
X80082Y55629D01*
X80088Y55635D01*
X80115Y55646D01*
X80142Y55651D01*
X80186D01*
X80202Y55646D01*
X80218Y55640D01*
X80224Y55635D01*
X80251Y55624D01*
X80273Y55608D01*
X80290Y55597D01*
X80295Y55591D01*
X80322Y55575D01*
X80350Y55558D01*
X80371Y55547D01*
X80377Y55542D01*
X80404Y55520D01*
X80421Y55504D01*
X80431Y55493D01*
X80437Y55487D01*
X80497Y55449D01*
X80557Y55422D01*
X80579Y55405D01*
X80601Y55400D01*
X80612Y55389D01*
X80617D01*
X80694Y55356D01*
X80765Y55329D01*
X80792Y55318D01*
X80814Y55307D01*
X80825Y55302D01*
X80830D01*
X80906Y55274D01*
X80983Y55247D01*
X81010Y55242D01*
X81032Y55231D01*
X81049Y55225D01*
X81054D01*
X81141Y55203D01*
X81212Y55182D01*
X81245Y55176D01*
X81267Y55171D01*
X81283Y55165D01*
X81289D01*
X81376Y55149D01*
X81447Y55133D01*
X81480Y55127D01*
X81502D01*
X81518Y55122D01*
X81524D01*
X81605Y55111D01*
X81671Y55105D01*
X81736D01*
X81873Y55111D01*
X81938Y55116D01*
X81993Y55122D01*
X82037Y55127D01*
X82069Y55133D01*
X82097Y55138D01*
X82102D01*
X82222Y55171D01*
X82277Y55187D01*
X82321Y55209D01*
X82359Y55225D01*
X82386Y55236D01*
X82408Y55242D01*
X82414Y55247D01*
X82495Y55291D01*
X82566Y55335D01*
X82594Y55351D01*
X82616Y55367D01*
X82626Y55373D01*
X82632Y55378D01*
X82708Y55438D01*
X82768Y55493D01*
X82796Y55515D01*
X82812Y55531D01*
X82823Y55542D01*
X82828Y55547D01*
X82883Y55608D01*
X82927Y55668D01*
X82938Y55690D01*
X82948Y55706D01*
X82960Y55717D01*
Y55722D01*
X82987Y55793D01*
X82998Y55859D01*
X83003Y55886D01*
Y55908D01*
Y55919D01*
Y55924D01*
X82998Y55990D01*
X82992Y56055D01*
Y56077D01*
X82987Y56099D01*
Y56110D01*
Y56115D01*
X82970Y56197D01*
X82948Y56268D01*
X82943Y56296D01*
X82938Y56317D01*
X82932Y56334D01*
Y56339D01*
X82905Y56427D01*
X82894Y56470D01*
X82883Y56503D01*
X82872Y56536D01*
X82861Y56558D01*
X82856Y56574D01*
Y56579D01*
X82823Y56667D01*
X82807Y56710D01*
X82796Y56743D01*
X82785Y56770D01*
X82774Y56798D01*
X82768Y56809D01*
Y56814D01*
X82730Y56896D01*
X82697Y56962D01*
X82687Y56989D01*
X82675Y57011D01*
X82665Y57022D01*
Y57027D01*
X82626Y57093D01*
X82594Y57147D01*
X82572Y57180D01*
X82561Y57186D01*
Y57191D01*
X82473Y57300D01*
X82430Y57349D01*
X82386Y57398D01*
X82353Y57431D01*
X82326Y57464D01*
X82304Y57480D01*
X82299Y57486D01*
X82179Y57584D01*
X82124Y57628D01*
X82075Y57666D01*
X82031Y57693D01*
X81993Y57721D01*
X81971Y57731D01*
X81966Y57737D01*
X81835Y57808D01*
X81775Y57841D01*
X81720Y57868D01*
X81676Y57884D01*
X81644Y57901D01*
X81616Y57906D01*
X81611Y57912D01*
X81540Y57933D01*
X81480Y57955D01*
X81420Y57966D01*
X81371Y57972D01*
X81327Y57977D01*
X81294Y57983D01*
X81234D01*
X81207Y57977D01*
X81185Y57972D01*
X81174Y57966D01*
X81130Y57955D01*
X81098Y57939D01*
X81070Y57928D01*
X81059Y57923D01*
X81016Y57906D01*
X80977Y57890D01*
X80950Y57873D01*
X80939Y57868D01*
X80896Y57841D01*
X80863Y57819D01*
X80841Y57797D01*
X80830Y57792D01*
X80792Y57764D01*
X80759Y57742D01*
X80743Y57726D01*
X80737Y57721D01*
X80710Y57699D01*
X80688Y57677D01*
X80677Y57655D01*
X80672Y57650D01*
X80650Y57617D01*
X80628Y57584D01*
X80612Y57562D01*
X80606Y57557D01*
Y57551D01*
X80579Y57502D01*
X80546Y57448D01*
X80535Y57426D01*
X80524Y57404D01*
X80513Y57393D01*
Y57388D01*
X80459Y57278D01*
X80415Y57180D01*
X80388Y57087D01*
X80366Y57011D01*
X80355Y56945D01*
X80344Y56896D01*
Y56863D01*
Y56858D01*
Y56852D01*
X80350Y56770D01*
X80366Y56705D01*
X80377Y56672D01*
X80388Y56650D01*
X80393Y56639D01*
Y56634D01*
X80431Y56563D01*
X80475Y56503D01*
X80492Y56481D01*
X80508Y56465D01*
X80513Y56454D01*
X80519Y56448D01*
X80573Y56394D01*
X80623Y56350D01*
X80644Y56339D01*
X80661Y56328D01*
X80672Y56317D01*
X80677D01*
X80737Y56290D01*
X80781Y56274D01*
X80814Y56268D01*
X80846D01*
X80868Y56274D01*
X80879D01*
X80890Y56290D01*
Y56301D01*
Y56328D01*
Y56356D01*
Y56366D01*
Y56372D01*
X80885Y56394D01*
Y56416D01*
X80879Y56427D01*
Y56432D01*
X80868Y56454D01*
X80863Y56476D01*
X80857Y56492D01*
Y56498D01*
X80846Y56530D01*
X80835Y56558D01*
X80830Y56579D01*
X80825Y56590D01*
X80786Y56678D01*
X80770Y56716D01*
X80759Y56749D01*
X80748Y56770D01*
X80743Y56787D01*
X80737Y56798D01*
Y56803D01*
X80726Y56831D01*
X80715Y56858D01*
X80710Y56891D01*
X80704Y56907D01*
Y56912D01*
X80715Y56978D01*
X80737Y57022D01*
X80775Y57055D01*
X80814Y57082D01*
X80857Y57093D01*
X80896Y57098D01*
X80917Y57104D01*
X80956D01*
X80961Y57098D01*
X80988D01*
Y57120D01*
Y57147D01*
X80994Y57175D01*
X80999Y57186D01*
X81005Y57191D01*
X81016Y57213D01*
X81032Y57229D01*
X81043Y57240D01*
X81049Y57246D01*
X81125Y57300D01*
X81196Y57338D01*
X81223Y57349D01*
X81245Y57360D01*
X81261Y57366D01*
X81267D01*
X81360Y57388D01*
X81409Y57393D01*
X81453D01*
X81491Y57398D01*
X81551D01*
X81622Y57393D01*
X81687Y57377D01*
X81715Y57366D01*
X81736Y57355D01*
X81747Y57349D01*
X81753D01*
X81824Y57311D01*
X81884Y57273D01*
X81911Y57257D01*
X81928Y57240D01*
X81938Y57235D01*
X81944Y57229D01*
X82004Y57175D01*
X82059Y57125D01*
X82080Y57104D01*
X82097Y57087D01*
X82102Y57076D01*
X82108Y57071D01*
X82162Y57011D01*
X82206Y56956D01*
X82222Y56940D01*
X82233Y56923D01*
X82239Y56912D01*
X82244Y56907D01*
X82310Y56820D01*
X82337Y56776D01*
X82364Y56743D01*
X82381Y56716D01*
X82397Y56694D01*
X82402Y56678D01*
X82408Y56672D01*
X82446Y56596D01*
X82479Y56530D01*
X82490Y56503D01*
X82501Y56481D01*
X82506Y56470D01*
Y56465D01*
X82528Y56399D01*
X82550Y56339D01*
X82555Y56317D01*
Y56301D01*
X82561Y56290D01*
Y56285D01*
X82572Y56225D01*
X82577Y56170D01*
Y56154D01*
Y56137D01*
Y56126D01*
Y56121D01*
X82572Y56061D01*
X82555Y56012D01*
X82544Y55990D01*
X82539Y55973D01*
X82534Y55963D01*
Y55957D01*
X82495Y55897D01*
X82452Y55848D01*
X82419Y55810D01*
X82414Y55804D01*
X82408Y55799D01*
X82348Y55755D01*
X82293Y55717D01*
X82266Y55706D01*
X82250Y55695D01*
X82239Y55684D01*
X82233D01*
X82157Y55657D01*
X82091Y55646D01*
X82064Y55640D01*
X82026D01*
X81971Y55646D01*
X81917Y55657D01*
X81889D01*
X81873Y55662D01*
X81862Y55668D01*
X81857D01*
X81780Y55690D01*
X81715Y55711D01*
X81687Y55722D01*
X81665Y55728D01*
X81655Y55733D01*
X81649D01*
X81567Y55766D01*
X81502Y55799D01*
X81474Y55810D01*
X81453Y55821D01*
X81442Y55826D01*
X81436D01*
X81365Y55864D01*
X81305Y55897D01*
X81283Y55913D01*
X81267Y55919D01*
X81261Y55930D01*
X81256D01*
X81196Y55881D01*
X81141Y55837D01*
X81114Y55826D01*
X81098Y55815D01*
X81087Y55804D01*
X81081D01*
X81005Y55777D01*
X80934Y55760D01*
X80906D01*
X80885Y55755D01*
X80846D01*
X80814Y55760D01*
X80748Y55782D01*
X80721Y55788D01*
X80694Y55799D01*
X80677Y55804D01*
X80672D01*
X80628Y55815D01*
X80590Y55826D01*
X80568Y55831D01*
X80563D01*
X80530Y55842D01*
X80513Y55848D01*
X80502Y55853D01*
X80399Y55908D01*
X80355Y55935D01*
X80317Y55968D01*
X80290Y55990D01*
X80268Y56012D01*
X80251Y56023D01*
X80246Y56028D01*
X80169Y56115D01*
X80109Y56192D01*
X80088Y56225D01*
X80066Y56252D01*
X80060Y56268D01*
X80055Y56274D01*
X80000Y56377D01*
X79978Y56427D01*
X79962Y56470D01*
X79945Y56508D01*
X79935Y56536D01*
X79929Y56558D01*
Y56563D01*
X79902Y56678D01*
X79896Y56732D01*
X79891Y56776D01*
X79886Y56820D01*
Y56847D01*
Y56869D01*
Y56874D01*
X79891Y56956D01*
X79902Y57038D01*
X79913Y57114D01*
X79929Y57186D01*
X79951Y57251D01*
X79962Y57300D01*
X79973Y57333D01*
X79978Y57338D01*
Y57344D01*
X80011Y57431D01*
X80022Y57475D01*
X80038Y57508D01*
X80049Y57535D01*
X80060Y57562D01*
X80071Y57573D01*
Y57579D01*
X80115Y57661D01*
X80153Y57726D01*
X80169Y57753D01*
X80186Y57770D01*
X80191Y57781D01*
X80197Y57786D01*
X80273Y57884D01*
X80311Y57923D01*
X80344Y57961D01*
X80377Y57988D01*
X80399Y58015D01*
X80415Y58026D01*
X80421Y58032D01*
X80513Y58114D01*
X80557Y58147D01*
X80595Y58174D01*
X80628Y58196D01*
X80655Y58212D01*
X80672Y58223D01*
X80677Y58228D01*
X80781Y58283D01*
X80830Y58305D01*
X80874Y58321D01*
X80912Y58338D01*
X80945Y58349D01*
X80967Y58354D01*
X80972D01*
X81087Y58381D01*
X81141Y58387D01*
X81185Y58392D01*
X81229Y58398D01*
X81289D01*
X81387Y58392D01*
D02*
G37*
G36*
X45843Y65650D02*
X45959Y65643D01*
X46055Y65636D01*
X46137Y65629D01*
X46205Y65623D01*
X46246Y65616D01*
X46260D01*
X46383Y65595D01*
X46492Y65575D01*
X46602Y65554D01*
X46704Y65534D01*
X46786Y65513D01*
X46847Y65493D01*
X46888Y65486D01*
X46895Y65479D01*
X46902D01*
Y64618D01*
X46765Y64653D01*
X46636Y64673D01*
X46526Y64694D01*
X46431Y64714D01*
X46356Y64728D01*
X46301Y64735D01*
X46267Y64741D01*
X46253D01*
X46158Y64755D01*
X46062Y64762D01*
X45980Y64769D01*
X45905D01*
X45843Y64776D01*
X45755D01*
X45625Y64769D01*
X45570Y64762D01*
X45522D01*
X45481Y64755D01*
X45447Y64748D01*
X45427Y64741D01*
X45420D01*
X45311Y64714D01*
X45263Y64700D01*
X45222Y64680D01*
X45188Y64666D01*
X45167Y64653D01*
X45154Y64646D01*
X45147Y64639D01*
X45072Y64578D01*
X45017Y64502D01*
X45003Y64475D01*
X44990Y64448D01*
X44976Y64434D01*
Y64427D01*
X44956Y64373D01*
X44935Y64318D01*
X44914Y64209D01*
X44908Y64168D01*
Y64127D01*
Y64099D01*
Y64093D01*
X44914Y64011D01*
X44921Y63936D01*
X44942Y63860D01*
X44956Y63792D01*
X44976Y63737D01*
X44997Y63696D01*
X45003Y63669D01*
X45010Y63655D01*
X45051Y63573D01*
X45106Y63485D01*
X45160Y63396D01*
X45222Y63321D01*
X45276Y63246D01*
X45318Y63191D01*
X45345Y63157D01*
X45358Y63150D01*
Y63143D01*
X45461Y63027D01*
X45570Y62911D01*
X45686Y62795D01*
X45796Y62686D01*
X45898Y62597D01*
X45980Y62522D01*
X46014Y62494D01*
X46035Y62474D01*
X46048Y62460D01*
X46055Y62453D01*
X46233Y62296D01*
X46424Y62139D01*
X46615Y61975D01*
X46800Y61825D01*
X46881Y61757D01*
X46964Y61695D01*
X47032Y61641D01*
X47093Y61593D01*
X47141Y61552D01*
X47175Y61524D01*
X47203Y61504D01*
X47209Y61497D01*
Y60568D01*
X43719D01*
Y61443D01*
X45920D01*
X45707Y61613D01*
X45509Y61777D01*
X45324Y61927D01*
X45174Y62057D01*
X45037Y62173D01*
X44983Y62228D01*
X44935Y62269D01*
X44894Y62310D01*
X44853Y62337D01*
X44826Y62365D01*
X44805Y62385D01*
X44798Y62392D01*
X44792Y62399D01*
X44669Y62522D01*
X44552Y62638D01*
X44457Y62747D01*
X44375Y62836D01*
X44313Y62918D01*
X44266Y62979D01*
X44238Y63013D01*
X44232Y63027D01*
X44163Y63136D01*
X44102Y63239D01*
X44047Y63341D01*
X44013Y63423D01*
X43979Y63498D01*
X43958Y63553D01*
X43951Y63587D01*
X43945Y63601D01*
X43917Y63710D01*
X43897Y63813D01*
X43883Y63915D01*
X43870Y64004D01*
Y64086D01*
X43863Y64147D01*
Y64188D01*
Y64195D01*
Y64202D01*
X43870Y64338D01*
X43883Y64461D01*
X43904Y64578D01*
X43938Y64687D01*
X43972Y64782D01*
X44013Y64871D01*
X44054Y64953D01*
X44095Y65028D01*
X44143Y65090D01*
X44184Y65144D01*
X44225Y65192D01*
X44259Y65226D01*
X44293Y65260D01*
X44313Y65281D01*
X44327Y65288D01*
X44334Y65295D01*
X44423Y65356D01*
X44518Y65418D01*
X44621Y65465D01*
X44730Y65506D01*
X44935Y65568D01*
X45140Y65609D01*
X45235Y65629D01*
X45318Y65636D01*
X45399Y65643D01*
X45468Y65650D01*
X45522Y65657D01*
X45720D01*
X45843Y65650D01*
D02*
G37*
G36*
X80622Y64564D02*
X80752Y64550D01*
X80868Y64530D01*
X80970Y64509D01*
X81052Y64482D01*
X81107Y64461D01*
X81148Y64448D01*
X81161Y64441D01*
X81257Y64386D01*
X81325Y64332D01*
X81387Y64263D01*
X81421Y64202D01*
X81448Y64140D01*
X81469Y64093D01*
X81476Y64065D01*
Y64502D01*
X82500D01*
Y60568D01*
X81476D01*
Y63198D01*
X81441Y63300D01*
X81400Y63382D01*
X81359Y63451D01*
X81318Y63505D01*
X81284Y63546D01*
X81250Y63573D01*
X81230Y63587D01*
X81223Y63594D01*
X81155Y63628D01*
X81072Y63656D01*
X80997Y63676D01*
X80922Y63690D01*
X80854Y63696D01*
X80799Y63703D01*
X80752D01*
X80642Y63696D01*
X80553Y63676D01*
X80478Y63649D01*
X80417Y63621D01*
X80376Y63587D01*
X80342Y63560D01*
X80328Y63539D01*
X80321Y63533D01*
X80280Y63464D01*
X80253Y63382D01*
X80232Y63287D01*
X80219Y63205D01*
X80212Y63123D01*
X80205Y63054D01*
Y63027D01*
Y63007D01*
Y63000D01*
Y62993D01*
Y60568D01*
X79188D01*
Y63170D01*
X79153Y63280D01*
X79112Y63369D01*
X79065Y63437D01*
X79023Y63491D01*
X78983Y63539D01*
X78948Y63567D01*
X78928Y63580D01*
X78921Y63587D01*
X78846Y63628D01*
X78771Y63656D01*
X78689Y63676D01*
X78614Y63690D01*
X78545Y63696D01*
X78491Y63703D01*
X78443D01*
X78334Y63696D01*
X78238Y63676D01*
X78163Y63649D01*
X78101Y63621D01*
X78061Y63587D01*
X78026Y63560D01*
X78013Y63539D01*
X78006Y63533D01*
X77965Y63464D01*
X77938Y63382D01*
X77910Y63287D01*
X77897Y63205D01*
X77890Y63123D01*
X77883Y63054D01*
Y63027D01*
Y63007D01*
Y63000D01*
Y62993D01*
Y60568D01*
X76865D01*
Y63184D01*
Y63307D01*
X76879Y63430D01*
X76893Y63539D01*
X76913Y63635D01*
X76940Y63731D01*
X76968Y63819D01*
X76995Y63894D01*
X77022Y63963D01*
X77056Y64024D01*
X77084Y64079D01*
X77111Y64120D01*
X77139Y64154D01*
X77159Y64188D01*
X77173Y64209D01*
X77179Y64215D01*
X77186Y64222D01*
X77248Y64284D01*
X77323Y64338D01*
X77398Y64386D01*
X77480Y64427D01*
X77644Y64489D01*
X77815Y64530D01*
X77890Y64543D01*
X77965Y64550D01*
X78026Y64557D01*
X78081Y64564D01*
X78129Y64571D01*
X78197D01*
X78347Y64564D01*
X78484Y64550D01*
X78614Y64530D01*
X78723Y64502D01*
X78812Y64475D01*
X78880Y64455D01*
X78907Y64448D01*
X78928Y64441D01*
X78935Y64434D01*
X78942D01*
X79058Y64379D01*
X79153Y64311D01*
X79228Y64243D01*
X79283Y64174D01*
X79331Y64113D01*
X79358Y64058D01*
X79372Y64024D01*
X79379Y64017D01*
Y64011D01*
X79413Y64099D01*
X79467Y64174D01*
X79522Y64250D01*
X79584Y64304D01*
X79638Y64352D01*
X79686Y64386D01*
X79720Y64407D01*
X79734Y64414D01*
X79843Y64468D01*
X79966Y64502D01*
X80089Y64530D01*
X80212Y64550D01*
X80314Y64564D01*
X80362D01*
X80403Y64571D01*
X80478D01*
X80622Y64564D01*
D02*
G37*
G36*
X50604Y60568D02*
X49354D01*
X47633Y65582D01*
X48705D01*
X49955Y61787D01*
X51171Y65582D01*
X52298D01*
X50604Y60568D01*
D02*
G37*
G36*
X66265Y60568D02*
X65049D01*
X64346Y63206D01*
X63649Y60568D01*
X62440D01*
X61375Y64502D01*
X62413D01*
X63051Y61744D01*
X63786Y64502D01*
X64899D01*
X65624Y61759D01*
X66251Y64502D01*
X67310D01*
X66265Y60568D01*
D02*
G37*
G36*
X59189Y64564D02*
X59339Y64557D01*
X59476Y64543D01*
X59592Y64523D01*
X59688Y64502D01*
X59763Y64489D01*
X59790Y64482D01*
X59811D01*
X59818Y64475D01*
X59824D01*
X59947Y64434D01*
X60063Y64379D01*
X60166Y64325D01*
X60255Y64270D01*
X60323Y64222D01*
X60378Y64181D01*
X60405Y64154D01*
X60419Y64140D01*
X60507Y64045D01*
X60583Y63942D01*
X60644Y63840D01*
X60699Y63737D01*
X60740Y63649D01*
X60767Y63580D01*
X60781Y63553D01*
X60787Y63533D01*
X60794Y63519D01*
Y63512D01*
X60835Y63362D01*
X60863Y63198D01*
X60890Y63034D01*
X60904Y62877D01*
Y62809D01*
X60910Y62740D01*
Y62686D01*
X60917Y62631D01*
Y62590D01*
Y62563D01*
Y62542D01*
Y62535D01*
X60910Y62324D01*
X60897Y62132D01*
X60876Y61962D01*
X60869Y61887D01*
X60856Y61818D01*
X60842Y61757D01*
X60835Y61702D01*
X60822Y61654D01*
X60815Y61613D01*
X60808Y61586D01*
X60801Y61566D01*
X60794Y61552D01*
Y61545D01*
X60740Y61408D01*
X60678Y61286D01*
X60617Y61176D01*
X60555Y61087D01*
X60501Y61012D01*
X60460Y60958D01*
X60432Y60930D01*
X60419Y60917D01*
X60323Y60835D01*
X60220Y60766D01*
X60125Y60712D01*
X60029Y60664D01*
X59947Y60630D01*
X59879Y60609D01*
X59859Y60602D01*
X59838Y60596D01*
X59831Y60589D01*
X59824D01*
X59688Y60562D01*
X59551Y60541D01*
X59421Y60520D01*
X59292Y60514D01*
X59189Y60507D01*
X59141Y60500D01*
X59025D01*
X58855Y60507D01*
X58691Y60514D01*
X58547Y60527D01*
X58417Y60541D01*
X58315Y60555D01*
X58267D01*
X58233Y60562D01*
X58206Y60568D01*
X58185Y60575D01*
X58165D01*
X58028Y60609D01*
X57905Y60643D01*
X57803Y60678D01*
X57714Y60712D01*
X57646Y60739D01*
X57598Y60760D01*
X57564Y60773D01*
X57557Y60780D01*
Y61600D01*
X57632Y61579D01*
X57693Y61559D01*
X57755Y61545D01*
X57803Y61531D01*
X57844Y61518D01*
X57871Y61511D01*
X57891Y61504D01*
X57898D01*
X58001Y61477D01*
X58096Y61449D01*
X58131Y61436D01*
X58165Y61429D01*
X58185Y61422D01*
X58192D01*
X58315Y61395D01*
X58370Y61388D01*
X58424Y61374D01*
X58465Y61367D01*
X58506D01*
X58527Y61361D01*
X58534D01*
X58657Y61347D01*
X58718D01*
X58766Y61340D01*
X58971D01*
X59066Y61347D01*
X59148Y61361D01*
X59223Y61374D01*
X59353Y61408D01*
X59462Y61443D01*
X59544Y61484D01*
X59599Y61511D01*
X59633Y61538D01*
X59647Y61545D01*
X59722Y61627D01*
X59777Y61723D01*
X59824Y61825D01*
X59852Y61921D01*
X59872Y62003D01*
X59879Y62078D01*
X59886Y62105D01*
Y62125D01*
Y62132D01*
Y62139D01*
X57407Y62296D01*
X57393Y62406D01*
X57386Y62453D01*
X57379Y62501D01*
Y62535D01*
X57372Y62563D01*
Y62583D01*
Y62590D01*
X57366Y62692D01*
X57359Y62781D01*
Y62815D01*
Y62843D01*
Y62856D01*
Y62863D01*
Y62986D01*
X57372Y63109D01*
X57379Y63218D01*
X57393Y63314D01*
X57407Y63396D01*
X57413Y63457D01*
X57427Y63498D01*
Y63512D01*
X57454Y63621D01*
X57495Y63731D01*
X57536Y63819D01*
X57577Y63901D01*
X57618Y63970D01*
X57652Y64017D01*
X57673Y64045D01*
X57680Y64058D01*
X57755Y64140D01*
X57837Y64215D01*
X57926Y64284D01*
X58008Y64338D01*
X58076Y64379D01*
X58137Y64407D01*
X58178Y64427D01*
X58185Y64434D01*
X58192D01*
X58322Y64482D01*
X58458Y64516D01*
X58602Y64536D01*
X58732Y64557D01*
X58848Y64564D01*
X58895D01*
X58943Y64571D01*
X59025D01*
X59189Y64564D01*
D02*
G37*
G36*
X75766Y60568D02*
X74700D01*
Y62146D01*
X74133D01*
X73949Y62153D01*
X73778Y62160D01*
X73635Y62173D01*
X73505Y62194D01*
X73402Y62208D01*
X73361Y62214D01*
X73321Y62221D01*
X73293Y62228D01*
X73273D01*
X73266Y62235D01*
X73259D01*
X73129Y62276D01*
X73006Y62324D01*
X72904Y62371D01*
X72815Y62426D01*
X72747Y62467D01*
X72692Y62508D01*
X72665Y62535D01*
X72651Y62542D01*
X72562Y62624D01*
X72494Y62713D01*
X72433Y62809D01*
X72378Y62890D01*
X72344Y62966D01*
X72316Y63027D01*
X72303Y63068D01*
X72296Y63075D01*
Y63082D01*
X72255Y63212D01*
X72228Y63348D01*
X72207Y63485D01*
X72193Y63608D01*
X72187Y63724D01*
X72180Y63772D01*
Y63806D01*
Y63840D01*
Y63867D01*
Y63881D01*
Y63888D01*
X72187Y64045D01*
X72193Y64188D01*
X72207Y64318D01*
X72228Y64434D01*
X72248Y64523D01*
X72262Y64591D01*
X72269Y64612D01*
Y64632D01*
X72276Y64639D01*
Y64646D01*
X72316Y64762D01*
X72371Y64871D01*
X72426Y64960D01*
X72480Y65042D01*
X72528Y65103D01*
X72569Y65144D01*
X72597Y65179D01*
X72610Y65185D01*
X72706Y65260D01*
X72801Y65322D01*
X72904Y65377D01*
X73000Y65418D01*
X73088Y65445D01*
X73157Y65472D01*
X73184Y65479D01*
X73204D01*
X73211Y65486D01*
X73218D01*
X73368Y65520D01*
X73519Y65540D01*
X73676Y65561D01*
X73819Y65568D01*
X73942Y65575D01*
X73997Y65582D01*
X75766D01*
Y60568D01*
D02*
G37*
G36*
X54565Y64564D02*
X54627Y64557D01*
X54681D01*
X54722Y64550D01*
X54763Y64543D01*
X54784Y64536D01*
X54791D01*
X54914Y64509D01*
X54968Y64489D01*
X55023Y64468D01*
X55064Y64448D01*
X55098Y64434D01*
X55119Y64427D01*
X55125Y64420D01*
X55235Y64345D01*
X55289Y64304D01*
X55330Y64263D01*
X55364Y64229D01*
X55392Y64202D01*
X55412Y64181D01*
X55419Y64174D01*
X55460Y64113D01*
X55487Y64052D01*
X55501Y64011D01*
Y64502D01*
X56525D01*
Y60568D01*
X55501D01*
Y62890D01*
X55480Y62972D01*
X55460Y63041D01*
X55440Y63102D01*
X55412Y63157D01*
X55392Y63198D01*
X55371Y63232D01*
X55364Y63253D01*
X55358Y63259D01*
X55276Y63362D01*
X55235Y63396D01*
X55194Y63430D01*
X55166Y63457D01*
X55139Y63478D01*
X55125Y63485D01*
X55119Y63491D01*
X55016Y63546D01*
X54914Y63587D01*
X54879Y63601D01*
X54845Y63608D01*
X54825Y63614D01*
X54818D01*
X54695Y63635D01*
X54640Y63642D01*
X54586D01*
X54545Y63649D01*
X54319D01*
X54285Y64571D01*
X54442D01*
X54565Y64564D01*
D02*
G37*
G36*
X69803D02*
X69953Y64557D01*
X70090Y64543D01*
X70206Y64523D01*
X70302Y64502D01*
X70377Y64489D01*
X70404Y64482D01*
X70425D01*
X70431Y64475D01*
X70438D01*
X70561Y64434D01*
X70677Y64379D01*
X70780Y64325D01*
X70868Y64270D01*
X70937Y64222D01*
X70991Y64181D01*
X71019Y64154D01*
X71032Y64140D01*
X71121Y64045D01*
X71196Y63942D01*
X71258Y63840D01*
X71312Y63737D01*
X71353Y63649D01*
X71381Y63580D01*
X71394Y63553D01*
X71401Y63533D01*
X71408Y63519D01*
Y63512D01*
X71449Y63362D01*
X71476Y63198D01*
X71504Y63034D01*
X71517Y62877D01*
Y62809D01*
X71524Y62740D01*
Y62686D01*
X71531Y62631D01*
Y62590D01*
Y62563D01*
Y62542D01*
Y62535D01*
X71524Y62324D01*
X71510Y62132D01*
X71490Y61962D01*
X71483Y61887D01*
X71470Y61818D01*
X71456Y61757D01*
X71449Y61702D01*
X71435Y61654D01*
X71429Y61613D01*
X71422Y61586D01*
X71415Y61566D01*
X71408Y61552D01*
Y61545D01*
X71353Y61408D01*
X71292Y61286D01*
X71231Y61176D01*
X71169Y61087D01*
X71114Y61012D01*
X71073Y60958D01*
X71046Y60930D01*
X71032Y60917D01*
X70937Y60835D01*
X70834Y60766D01*
X70739Y60712D01*
X70643Y60664D01*
X70561Y60630D01*
X70493Y60609D01*
X70472Y60602D01*
X70452Y60596D01*
X70445Y60589D01*
X70438D01*
X70302Y60562D01*
X70165Y60541D01*
X70035Y60520D01*
X69906Y60514D01*
X69803Y60507D01*
X69755Y60500D01*
X69639D01*
X69475Y60507D01*
X69325Y60514D01*
X69188Y60527D01*
X69072Y60548D01*
X68977Y60562D01*
X68901Y60575D01*
X68874Y60582D01*
X68854D01*
X68847Y60589D01*
X68840D01*
X68710Y60630D01*
X68594Y60684D01*
X68492Y60739D01*
X68403Y60794D01*
X68335Y60842D01*
X68280Y60883D01*
X68253Y60917D01*
X68239Y60923D01*
X68150Y61019D01*
X68075Y61121D01*
X68014Y61231D01*
X67959Y61326D01*
X67918Y61415D01*
X67884Y61490D01*
X67877Y61518D01*
X67870Y61538D01*
X67863Y61545D01*
Y61552D01*
X67822Y61709D01*
X67788Y61873D01*
X67768Y62037D01*
X67747Y62194D01*
Y62262D01*
X67740Y62330D01*
Y62385D01*
X67734Y62440D01*
Y62481D01*
Y62508D01*
Y62529D01*
Y62535D01*
X67740Y62747D01*
X67754Y62932D01*
X67774Y63095D01*
X67795Y63239D01*
X67809Y63300D01*
X67822Y63355D01*
X67836Y63396D01*
X67843Y63437D01*
X67850Y63464D01*
X67857Y63485D01*
X67863Y63498D01*
Y63505D01*
X67918Y63649D01*
X67979Y63772D01*
X68041Y63881D01*
X68102Y63970D01*
X68157Y64045D01*
X68198Y64099D01*
X68225Y64127D01*
X68239Y64140D01*
X68335Y64222D01*
X68437Y64291D01*
X68540Y64352D01*
X68628Y64400D01*
X68717Y64434D01*
X68779Y64455D01*
X68806Y64468D01*
X68826D01*
X68833Y64475D01*
X68840D01*
X68977Y64509D01*
X69113Y64530D01*
X69250Y64550D01*
X69373Y64557D01*
X69482Y64564D01*
X69523Y64571D01*
X69639D01*
X69803Y64564D01*
D02*
G37*
G36*
X170000Y25685D02*
Y21000D01*
X152548D01*
Y25685D01*
X170000D01*
D02*
G37*
G36*
X148000Y21000D02*
X131463D01*
Y25685D01*
X148000D01*
Y21000D01*
D02*
G37*
G36*
X112478Y33222D02*
Y32733D01*
X111794Y32867D01*
Y30610D01*
X111205D01*
Y33391D01*
X111641D01*
X112478Y33222D01*
D02*
G37*
G36*
X110113D02*
Y32733D01*
X109429Y32867D01*
Y30610D01*
X108841D01*
Y33391D01*
X109276D01*
X110113Y33222D01*
D02*
G37*
G36*
X115159Y30610D02*
X114548D01*
Y31622D01*
X114246D01*
X113593Y30610D01*
X112875D01*
X113658Y31687D01*
X113562Y31721D01*
X113482Y31763D01*
X113417Y31809D01*
X113360Y31855D01*
X113318Y31897D01*
X113287Y31931D01*
X113272Y31954D01*
X113264Y31958D01*
Y31962D01*
X113222Y32042D01*
X113188Y32130D01*
X113165Y32222D01*
X113150Y32309D01*
X113142Y32386D01*
X113138Y32420D01*
X113135Y32451D01*
Y32474D01*
Y32493D01*
Y32504D01*
Y32508D01*
X113138Y32596D01*
X113146Y32672D01*
X113154Y32745D01*
X113165Y32802D01*
X113180Y32852D01*
X113188Y32886D01*
X113196Y32909D01*
X113199Y32917D01*
X113226Y32978D01*
X113257Y33031D01*
X113287Y33077D01*
X113318Y33115D01*
X113348Y33146D01*
X113371Y33169D01*
X113387Y33184D01*
X113394Y33188D01*
X113444Y33226D01*
X113501Y33257D01*
X113555Y33283D01*
X113608Y33306D01*
X113654Y33322D01*
X113692Y33333D01*
X113707Y33337D01*
X113719D01*
X113723Y33341D01*
X113727D01*
X113807Y33356D01*
X113887Y33371D01*
X113967Y33379D01*
X114044Y33383D01*
X114112Y33387D01*
X114139Y33391D01*
X115159D01*
Y30610D01*
D02*
G37*
%LPC*%
G36*
X71346Y57055D02*
X71330D01*
X71313Y57038D01*
X71302Y57016D01*
X71291Y56994D01*
Y56989D01*
X71286Y56956D01*
X71280Y56923D01*
Y56902D01*
Y56891D01*
Y56847D01*
X71291Y56798D01*
X71297Y56760D01*
X71308Y56721D01*
X71319Y56694D01*
X71330Y56672D01*
X71335Y56656D01*
X71341Y56650D01*
X71390Y56574D01*
X71439Y56503D01*
X71461Y56476D01*
X71477Y56454D01*
X71488Y56443D01*
X71494Y56437D01*
X71564Y56361D01*
X71630Y56301D01*
X71657Y56274D01*
X71679Y56257D01*
X71696Y56246D01*
X71701Y56241D01*
X71783Y56175D01*
X71859Y56121D01*
X71887Y56099D01*
X71908Y56083D01*
X71925Y56072D01*
X71930Y56066D01*
X71914Y56148D01*
X71903Y56219D01*
X71887Y56290D01*
X71870Y56350D01*
X71854Y56394D01*
X71843Y56432D01*
X71832Y56459D01*
Y56465D01*
X71805Y56530D01*
X71783Y56590D01*
X71755Y56645D01*
X71734Y56694D01*
X71712Y56732D01*
X71696Y56760D01*
X71690Y56776D01*
X71685Y56782D01*
X71652Y56831D01*
X71619Y56869D01*
X71586Y56902D01*
X71559Y56934D01*
X71537Y56956D01*
X71521Y56973D01*
X71510Y56978D01*
X71504Y56984D01*
X71472Y57005D01*
X71439Y57027D01*
X71384Y57043D01*
X71362Y57049D01*
X71346Y57055D01*
D02*
G37*
G36*
X66645Y56814D02*
X66618D01*
X66607Y56809D01*
X66596Y56803D01*
X66585Y56798D01*
Y56792D01*
X66563Y56765D01*
X66558Y56754D01*
Y56749D01*
X66541Y56716D01*
X66536Y56700D01*
Y56694D01*
X66525Y56661D01*
Y56650D01*
Y56645D01*
Y56574D01*
X66536Y56508D01*
X66547Y56443D01*
X66558Y56388D01*
X66568Y56345D01*
X66580Y56312D01*
X66585Y56285D01*
X66590Y56279D01*
X66645Y56154D01*
X66667Y56099D01*
X66694Y56050D01*
X66716Y56006D01*
X66732Y55973D01*
X66743Y55951D01*
X66749Y55946D01*
X66809Y55853D01*
X66836Y55810D01*
X66869Y55771D01*
X66896Y55739D01*
X66913Y55711D01*
X66929Y55695D01*
X66934Y55690D01*
X67016Y55608D01*
X67054Y55569D01*
X67087Y55537D01*
X67120Y55509D01*
X67142Y55487D01*
X67158Y55476D01*
X67164Y55471D01*
X67246Y55405D01*
X67322Y55356D01*
X67349Y55335D01*
X67371Y55324D01*
X67387Y55318D01*
X67393Y55313D01*
X67475Y55280D01*
X67540Y55264D01*
X67562D01*
X67584Y55258D01*
X67622D01*
X67639Y55264D01*
X67650Y55269D01*
X67655D01*
X67677Y55296D01*
X67682Y55302D01*
Y55307D01*
X67693Y55340D01*
X67699Y55351D01*
Y55356D01*
Y55395D01*
Y55411D01*
Y55417D01*
X67693Y55509D01*
X67672Y55591D01*
X67666Y55629D01*
X67655Y55657D01*
X67650Y55678D01*
Y55684D01*
X67611Y55799D01*
X67590Y55848D01*
X67568Y55897D01*
X67551Y55935D01*
X67535Y55963D01*
X67529Y55984D01*
X67524Y55990D01*
X67464Y56099D01*
X67437Y56148D01*
X67409Y56192D01*
X67387Y56225D01*
X67371Y56252D01*
X67360Y56268D01*
X67355Y56274D01*
X67322Y56323D01*
X67289Y56366D01*
X67256Y56405D01*
X67235Y56432D01*
X67213Y56459D01*
X67196Y56476D01*
X67185Y56487D01*
X67180Y56492D01*
X67125Y56547D01*
X67076Y56590D01*
X67033Y56634D01*
X66989Y56667D01*
X66956Y56694D01*
X66929Y56710D01*
X66913Y56721D01*
X66907Y56727D01*
X66858Y56754D01*
X66809Y56776D01*
X66760Y56792D01*
X66711Y56803D01*
X66672Y56809D01*
X66645Y56814D01*
D02*
G37*
G36*
X60852D02*
X60825D01*
X60814Y56809D01*
X60803Y56803D01*
X60792Y56798D01*
Y56792D01*
X60770Y56765D01*
X60765Y56754D01*
Y56749D01*
X60748Y56716D01*
X60743Y56700D01*
Y56694D01*
X60732Y56661D01*
Y56650D01*
Y56645D01*
Y56574D01*
X60743Y56508D01*
X60754Y56443D01*
X60765Y56388D01*
X60776Y56345D01*
X60786Y56312D01*
X60792Y56285D01*
X60797Y56279D01*
X60852Y56154D01*
X60874Y56099D01*
X60901Y56050D01*
X60923Y56006D01*
X60939Y55973D01*
X60950Y55951D01*
X60956Y55946D01*
X61016Y55853D01*
X61043Y55810D01*
X61076Y55771D01*
X61103Y55739D01*
X61120Y55711D01*
X61136Y55695D01*
X61141Y55690D01*
X61223Y55608D01*
X61261Y55569D01*
X61294Y55537D01*
X61327Y55509D01*
X61349Y55487D01*
X61365Y55476D01*
X61371Y55471D01*
X61453Y55405D01*
X61529Y55356D01*
X61556Y55335D01*
X61578Y55324D01*
X61594Y55318D01*
X61600Y55313D01*
X61682Y55280D01*
X61747Y55264D01*
X61769D01*
X61791Y55258D01*
X61829D01*
X61846Y55264D01*
X61857Y55269D01*
X61862D01*
X61884Y55296D01*
X61889Y55302D01*
Y55307D01*
X61900Y55340D01*
X61906Y55351D01*
Y55356D01*
Y55395D01*
Y55411D01*
Y55417D01*
X61900Y55509D01*
X61878Y55591D01*
X61873Y55629D01*
X61862Y55657D01*
X61857Y55678D01*
Y55684D01*
X61818Y55799D01*
X61796Y55848D01*
X61775Y55897D01*
X61758Y55935D01*
X61742Y55963D01*
X61736Y55984D01*
X61731Y55990D01*
X61671Y56099D01*
X61644Y56148D01*
X61616Y56192D01*
X61594Y56225D01*
X61578Y56252D01*
X61567Y56268D01*
X61562Y56274D01*
X61529Y56323D01*
X61496Y56366D01*
X61463Y56405D01*
X61442Y56432D01*
X61420Y56459D01*
X61403Y56476D01*
X61392Y56487D01*
X61387Y56492D01*
X61332Y56547D01*
X61283Y56590D01*
X61240Y56634D01*
X61196Y56667D01*
X61163Y56694D01*
X61136Y56710D01*
X61120Y56721D01*
X61114Y56727D01*
X61065Y56754D01*
X61016Y56776D01*
X60967Y56792D01*
X60917Y56803D01*
X60879Y56809D01*
X60852Y56814D01*
D02*
G37*
G36*
X57652Y56951D02*
X57641D01*
X57620Y56945D01*
X57603Y56940D01*
X57587Y56934D01*
X57581Y56929D01*
X57560Y56912D01*
X57538Y56896D01*
X57527Y56885D01*
X57521Y56880D01*
X57489Y56836D01*
X57483Y56820D01*
X57478Y56814D01*
X57467Y56792D01*
X57456Y56770D01*
Y56760D01*
Y56754D01*
Y56738D01*
Y56721D01*
X57461Y56710D01*
Y56705D01*
Y56667D01*
X57467Y56650D01*
Y56645D01*
X57472Y56623D01*
Y56601D01*
X57478Y56585D01*
Y56579D01*
X57483Y56541D01*
Y56530D01*
Y56525D01*
X57478Y56487D01*
X57472Y56448D01*
X57467Y56421D01*
X57461Y56416D01*
Y56410D01*
X57439Y56372D01*
X57412Y56345D01*
X57390Y56328D01*
X57385Y56323D01*
X57396Y56296D01*
X57412Y56274D01*
X57418Y56257D01*
X57423Y56252D01*
X57439Y56225D01*
X57450Y56197D01*
X57461Y56181D01*
X57467Y56175D01*
X57483Y56154D01*
X57499Y56132D01*
X57510Y56115D01*
X57516Y56110D01*
X57532Y56088D01*
X57543Y56072D01*
X57549Y56061D01*
X57554Y56055D01*
X57598Y56006D01*
X57647Y55957D01*
X57663Y55935D01*
X57680Y55919D01*
X57691Y55908D01*
X57696Y55902D01*
X57767Y55826D01*
X57838Y55749D01*
X57865Y55717D01*
X57893Y55690D01*
X57909Y55673D01*
X57914Y55668D01*
X57964Y55619D01*
X58013Y55575D01*
X58035Y55558D01*
X58051Y55542D01*
X58062Y55537D01*
X58067Y55531D01*
X58133Y55482D01*
X58198Y55438D01*
X58226Y55417D01*
X58248Y55400D01*
X58258Y55395D01*
X58264Y55389D01*
X58335Y55345D01*
X58395Y55313D01*
X58417Y55302D01*
X58428Y55291D01*
X58439Y55285D01*
X58444D01*
X58493Y55269D01*
X58537Y55258D01*
X58559Y55253D01*
X58570D01*
X58586Y55258D01*
X58602Y55274D01*
X58613Y55296D01*
X58619Y55324D01*
Y55351D01*
X58624Y55373D01*
Y55389D01*
Y55395D01*
X58619Y55460D01*
X58602Y55531D01*
X58581Y55608D01*
X58559Y55673D01*
X58537Y55739D01*
X58515Y55788D01*
X58499Y55821D01*
X58493Y55826D01*
Y55831D01*
X58460Y55897D01*
X58433Y55963D01*
X58422Y55984D01*
X58411Y56006D01*
X58400Y56017D01*
Y56023D01*
X58351Y56104D01*
X58308Y56181D01*
X58291Y56208D01*
X58275Y56230D01*
X58269Y56246D01*
X58264Y56252D01*
X58209Y56334D01*
X58160Y56405D01*
X58138Y56437D01*
X58127Y56459D01*
X58117Y56476D01*
X58111Y56481D01*
X58046Y56568D01*
X58018Y56607D01*
X57991Y56645D01*
X57974Y56672D01*
X57958Y56694D01*
X57947Y56705D01*
X57942Y56710D01*
X57882Y56782D01*
X57827Y56836D01*
X57805Y56852D01*
X57789Y56869D01*
X57783Y56874D01*
X57778Y56880D01*
X57751Y56902D01*
X57723Y56923D01*
X57680Y56940D01*
X57652Y56951D01*
D02*
G37*
G36*
X81420Y56945D02*
X81414D01*
X81387Y56918D01*
X81376Y56912D01*
Y56907D01*
X81349Y56885D01*
X81343Y56880D01*
X81338D01*
X81343Y56874D01*
X81349Y56869D01*
X81360Y56841D01*
X81376Y56814D01*
X81381Y56809D01*
Y56803D01*
X81403Y56760D01*
X81420Y56727D01*
X81425Y56705D01*
X81431Y56694D01*
X81436Y56661D01*
X81442Y56629D01*
Y56607D01*
Y56601D01*
X81425Y56372D01*
X81431Y56361D01*
X81436Y56345D01*
X81442Y56334D01*
X81447Y56328D01*
X81474Y56301D01*
X81485Y56290D01*
X81491Y56285D01*
X81529Y56252D01*
X81567Y56230D01*
X81595Y56214D01*
X81600Y56208D01*
X81605D01*
X81644Y56186D01*
X81682Y56164D01*
X81704Y56154D01*
X81715Y56148D01*
X81747Y56132D01*
X81780Y56121D01*
X81802Y56115D01*
X81807Y56110D01*
X81835Y56104D01*
X81851Y56099D01*
X81867D01*
X81922Y56104D01*
X81960Y56110D01*
X81982Y56115D01*
X81993D01*
X82015Y56137D01*
X82026Y56164D01*
X82031Y56186D01*
Y56197D01*
X82026Y56225D01*
X82020Y56252D01*
X81998Y56312D01*
X81988Y56334D01*
X81982Y56356D01*
X81971Y56372D01*
Y56377D01*
X81938Y56432D01*
X81911Y56481D01*
X81889Y56514D01*
X81884Y56519D01*
Y56525D01*
X81851Y56579D01*
X81824Y56618D01*
X81807Y56645D01*
X81802Y56656D01*
X81769Y56694D01*
X81747Y56727D01*
X81731Y56749D01*
X81726Y56754D01*
X81704Y56776D01*
X81693Y56792D01*
X81682Y56803D01*
X81649Y56831D01*
X81616Y56852D01*
X81595Y56863D01*
X81589Y56869D01*
X81562Y56891D01*
X81540Y56902D01*
X81529Y56912D01*
X81524D01*
X81491Y56923D01*
X81480Y56929D01*
X81474D01*
X81436Y56940D01*
X81420Y56945D01*
D02*
G37*
G36*
X59114Y63758D02*
X58943D01*
X58868Y63744D01*
X58807Y63737D01*
X58752Y63724D01*
X58711Y63710D01*
X58684Y63703D01*
X58663Y63690D01*
X58657D01*
X58568Y63635D01*
X58499Y63587D01*
X58458Y63546D01*
X58445Y63533D01*
Y63526D01*
X58397Y63444D01*
X58370Y63362D01*
X58356Y63328D01*
Y63300D01*
X58349Y63280D01*
Y63273D01*
X58336Y63170D01*
X58329Y63130D01*
X58322Y63089D01*
Y63061D01*
Y63041D01*
Y63027D01*
Y63020D01*
X59886Y62897D01*
X59872Y63020D01*
X59865Y63075D01*
X59859Y63130D01*
X59852Y63177D01*
X59845Y63212D01*
X59838Y63232D01*
Y63239D01*
X59818Y63300D01*
X59797Y63362D01*
X59770Y63410D01*
X59749Y63451D01*
X59729Y63485D01*
X59708Y63505D01*
X59702Y63519D01*
X59695Y63526D01*
X59613Y63601D01*
X59531Y63656D01*
X59497Y63676D01*
X59469Y63690D01*
X59449Y63696D01*
X59442D01*
X59374Y63717D01*
X59305Y63731D01*
X59237Y63744D01*
X59169Y63751D01*
X59114Y63758D01*
D02*
G37*
G36*
X74700Y64701D02*
X74147D01*
X74058Y64694D01*
X73969Y64687D01*
X73894Y64673D01*
X73819Y64660D01*
X73758Y64646D01*
X73703Y64625D01*
X73655Y64612D01*
X73573Y64578D01*
X73519Y64550D01*
X73484Y64530D01*
X73478Y64523D01*
X73443Y64489D01*
X73409Y64441D01*
X73355Y64345D01*
X73321Y64243D01*
X73293Y64134D01*
X73280Y64031D01*
X73266Y63949D01*
Y63922D01*
Y63894D01*
Y63881D01*
Y63874D01*
Y63785D01*
X73273Y63703D01*
X73280Y63628D01*
X73293Y63573D01*
X73300Y63526D01*
X73314Y63485D01*
X73321Y63464D01*
Y63457D01*
X73341Y63403D01*
X73368Y63348D01*
X73389Y63300D01*
X73416Y63266D01*
X73443Y63239D01*
X73457Y63218D01*
X73471Y63205D01*
X73478Y63198D01*
X73519Y63164D01*
X73566Y63143D01*
X73662Y63102D01*
X73703Y63089D01*
X73737Y63075D01*
X73764Y63068D01*
X73771D01*
X73846Y63054D01*
X73922Y63048D01*
X74003Y63034D01*
X74079D01*
X74147Y63027D01*
X74700D01*
Y64701D01*
D02*
G37*
G36*
X69728Y63758D02*
X69550D01*
X69475Y63751D01*
X69400Y63737D01*
X69345Y63731D01*
X69298Y63717D01*
X69263Y63703D01*
X69243Y63696D01*
X69236D01*
X69175Y63676D01*
X69127Y63642D01*
X69079Y63614D01*
X69045Y63580D01*
X69018Y63553D01*
X68997Y63526D01*
X68983Y63512D01*
X68977Y63505D01*
X68942Y63451D01*
X68908Y63389D01*
X68867Y63266D01*
X68854Y63212D01*
X68840Y63170D01*
X68833Y63143D01*
Y63130D01*
X68819Y63034D01*
X68806Y62938D01*
X68799Y62836D01*
X68792Y62740D01*
X68785Y62658D01*
Y62597D01*
Y62569D01*
Y62549D01*
Y62542D01*
Y62535D01*
Y62406D01*
X68792Y62283D01*
X68799Y62180D01*
X68806Y62091D01*
X68819Y62023D01*
X68826Y61968D01*
X68833Y61941D01*
Y61927D01*
X68854Y61845D01*
X68874Y61770D01*
X68895Y61709D01*
X68915Y61654D01*
X68936Y61613D01*
X68956Y61586D01*
X68963Y61566D01*
X68970Y61559D01*
X69052Y61477D01*
X69134Y61415D01*
X69175Y61395D01*
X69202Y61381D01*
X69222Y61367D01*
X69229D01*
X69291Y61347D01*
X69359Y61333D01*
X69427Y61326D01*
X69496Y61320D01*
X69550Y61313D01*
X69728D01*
X69803Y61320D01*
X69871Y61333D01*
X69933Y61340D01*
X69981Y61354D01*
X70015Y61361D01*
X70035Y61367D01*
X70042D01*
X70144Y61422D01*
X70192Y61456D01*
X70227Y61484D01*
X70254Y61518D01*
X70274Y61538D01*
X70288Y61552D01*
X70295Y61559D01*
X70329Y61613D01*
X70356Y61675D01*
X70404Y61798D01*
X70418Y61845D01*
X70431Y61887D01*
X70438Y61921D01*
Y61927D01*
X70452Y62023D01*
X70459Y62119D01*
X70472Y62221D01*
Y62317D01*
X70479Y62406D01*
Y62474D01*
Y62501D01*
Y62522D01*
Y62529D01*
Y62535D01*
Y62665D01*
X70472Y62781D01*
X70465Y62884D01*
X70459Y62966D01*
X70452Y63034D01*
X70445Y63089D01*
X70438Y63116D01*
Y63130D01*
X70418Y63212D01*
X70397Y63287D01*
X70377Y63355D01*
X70349Y63410D01*
X70329Y63451D01*
X70315Y63478D01*
X70309Y63498D01*
X70302Y63505D01*
X70261Y63553D01*
X70220Y63594D01*
X70179Y63628D01*
X70138Y63656D01*
X70104Y63669D01*
X70076Y63683D01*
X70056Y63696D01*
X70049D01*
X69981Y63717D01*
X69912Y63731D01*
X69844Y63744D01*
X69783Y63751D01*
X69728Y63758D01*
D02*
G37*
G36*
X155739Y24442D02*
X154727D01*
X155739D01*
D01*
D02*
G37*
G36*
X159173Y25131D02*
X157840D01*
X157800Y25126D01*
X157756D01*
X157707Y25121D01*
X157594Y25116D01*
X157475Y25101D01*
X157352Y25087D01*
X157229Y25062D01*
X157225D01*
X157215Y25057D01*
X157200Y25052D01*
X157175Y25047D01*
X157146Y25042D01*
X157116Y25028D01*
X157038Y25003D01*
X156949Y24969D01*
X156856Y24919D01*
X156762Y24865D01*
X156674Y24796D01*
X156669D01*
X156664Y24787D01*
X156634Y24762D01*
X156595Y24718D01*
X156541Y24654D01*
X156487Y24575D01*
X156428Y24482D01*
X156369Y24373D01*
X156319Y24245D01*
Y24240D01*
X156314Y24231D01*
X156309Y24211D01*
X156300Y24181D01*
X156290Y24147D01*
X156280Y24108D01*
X156270Y24058D01*
X156255Y23999D01*
X156246Y23940D01*
X156236Y23871D01*
X156226Y23798D01*
X156216Y23714D01*
X156206Y23630D01*
X156201Y23537D01*
X156196Y23443D01*
Y23537D01*
Y23252D01*
X156201Y23207D01*
Y23158D01*
X156206Y23099D01*
X156211Y23035D01*
X156226Y22897D01*
X156250Y22755D01*
X156280Y22612D01*
X156319Y22474D01*
Y22469D01*
X156324Y22459D01*
X156334Y22440D01*
X156344Y22415D01*
X156354Y22390D01*
X156369Y22356D01*
X156408Y22277D01*
X156462Y22189D01*
X156521Y22095D01*
X156590Y22007D01*
X156674Y21923D01*
X156678D01*
X156683Y21913D01*
X156698Y21903D01*
X156713Y21889D01*
X156762Y21854D01*
X156831Y21810D01*
X156910Y21761D01*
X157003Y21712D01*
X157111Y21667D01*
X157229Y21633D01*
X157234D01*
X157244Y21628D01*
X157259Y21623D01*
X157284Y21618D01*
X157313Y21613D01*
X157352Y21608D01*
X157392Y21598D01*
X157436Y21594D01*
X157544Y21574D01*
X157667Y21564D01*
X157800Y21554D01*
X157943Y21549D01*
X159173D01*
Y25131D01*
D02*
G37*
G36*
X169500D02*
X167286D01*
X168713D01*
Y22228D01*
X167286D01*
Y22238D01*
Y22228D01*
Y21549D01*
X169500D01*
Y25131D01*
D02*
G37*
G36*
X154701Y24442D02*
X153048D01*
X154086D01*
Y23409D01*
X153048D01*
Y21756D01*
Y22794D01*
X154086D01*
Y21756D01*
X154701D01*
Y22794D01*
X155739D01*
Y23443D01*
Y23409D01*
X154701D01*
Y24442D01*
D02*
G37*
G36*
X163296Y25131D02*
X159576D01*
X160905D01*
X159576Y21549D01*
X160408D01*
X160713Y22435D01*
X162169D01*
X162479Y21549D01*
X162146D01*
X163296D01*
X161958Y25131D01*
X163296D01*
D02*
G37*
G36*
X166873Y25185D02*
X163616D01*
X165146D01*
X165102Y25180D01*
X165057D01*
X165008Y25175D01*
X164900Y25165D01*
X164782Y25151D01*
X164664Y25131D01*
X164546Y25101D01*
X164541D01*
X164531Y25096D01*
X164516Y25092D01*
X164496Y25087D01*
X164437Y25062D01*
X164368Y25033D01*
X164285Y24993D01*
X164201Y24944D01*
X164113Y24880D01*
X164034Y24806D01*
X164024Y24796D01*
X163999Y24767D01*
X163965Y24723D01*
X163916Y24659D01*
X163867Y24575D01*
X163817Y24482D01*
X163768Y24368D01*
X163724Y24240D01*
Y24236D01*
X163719Y24226D01*
X163714Y24206D01*
X163709Y24177D01*
X163699Y24142D01*
X163689Y24098D01*
X163680Y24049D01*
X163670Y23994D01*
X163660Y23935D01*
X163650Y23866D01*
X163640Y23793D01*
X163630Y23709D01*
X163626Y23625D01*
X163621Y23537D01*
X163616Y23438D01*
Y23252D01*
X163621Y23202D01*
Y23148D01*
X163626Y23089D01*
X163630Y23020D01*
X163640Y22878D01*
X163660Y22730D01*
X163689Y22578D01*
X163724Y22435D01*
Y22430D01*
X163729Y22420D01*
X163734Y22400D01*
X163744Y22376D01*
X163753Y22346D01*
X163768Y22312D01*
X163803Y22233D01*
X163847Y22140D01*
X163896Y22046D01*
X163960Y21953D01*
X164034Y21869D01*
X164044Y21859D01*
X164068Y21835D01*
X164118Y21800D01*
X164177Y21756D01*
X164250Y21707D01*
X164339Y21657D01*
X164437Y21613D01*
X164546Y21579D01*
X164550D01*
X164560Y21574D01*
X164575D01*
X164600Y21569D01*
X164629Y21559D01*
X164664Y21554D01*
X164703Y21549D01*
X164747Y21539D01*
X164851Y21525D01*
X164969Y21515D01*
X165102Y21505D01*
X165244Y21500D01*
X165308D01*
X165343Y21505D01*
X165426D01*
X165475Y21510D01*
X165584Y21520D01*
X165702Y21534D01*
X165820Y21554D01*
X165938Y21579D01*
X165943D01*
X165953Y21584D01*
X165967Y21589D01*
X165987Y21594D01*
X166041Y21618D01*
X166115Y21648D01*
X166194Y21687D01*
X166277Y21736D01*
X166361Y21795D01*
X166445Y21869D01*
Y21874D01*
X166455Y21879D01*
X166479Y21908D01*
X166514Y21953D01*
X166563Y22021D01*
X166612Y22100D01*
X166666Y22199D01*
X166720Y22307D01*
X166764Y22435D01*
Y22440D01*
X166769Y22450D01*
X166774Y22469D01*
X166779Y22499D01*
X166789Y22533D01*
X166799Y22578D01*
X166809Y22627D01*
X166819Y22681D01*
X166828Y22745D01*
X166838Y22814D01*
X166848Y22887D01*
X166858Y22966D01*
X166863Y23055D01*
X166868Y23143D01*
X166873Y23340D01*
Y23434D01*
X166868Y23478D01*
Y23532D01*
X166863Y23591D01*
X166858Y23660D01*
X166848Y23798D01*
X166828Y23950D01*
X166799Y24098D01*
X166764Y24240D01*
Y24245D01*
X166760Y24255D01*
X166755Y24275D01*
X166745Y24299D01*
X166730Y24329D01*
X166715Y24363D01*
X166681Y24447D01*
X166637Y24536D01*
X166582Y24629D01*
X166518Y24723D01*
X166445Y24806D01*
X166440Y24811D01*
X166435Y24816D01*
X166405Y24841D01*
X166361Y24880D01*
X166302Y24924D01*
X166228Y24973D01*
X166145Y25018D01*
X166046Y25067D01*
X165938Y25101D01*
X165933D01*
X165923Y25106D01*
X165908Y25111D01*
X165884Y25116D01*
X165854Y25121D01*
X165820Y25126D01*
X165780Y25136D01*
X165736Y25146D01*
X165633Y25161D01*
X165515Y25170D01*
X165387Y25180D01*
X165244Y25185D01*
X166873D01*
D02*
G37*
%LPD*%
G36*
X158386Y22218D02*
X157943D01*
X157894Y22223D01*
X157835D01*
X157771Y22228D01*
X157697Y22238D01*
X157623Y22253D01*
X157554Y22267D01*
X157544Y22272D01*
X157525Y22277D01*
X157490Y22292D01*
X157446Y22312D01*
X157397Y22336D01*
X157348Y22366D01*
X157298Y22405D01*
X157249Y22450D01*
X157244Y22455D01*
X157229Y22474D01*
X157205Y22504D01*
X157180Y22543D01*
X157151Y22592D01*
X157121Y22651D01*
X157092Y22720D01*
X157067Y22799D01*
Y22804D01*
X157062Y22809D01*
X157057Y22838D01*
X157047Y22883D01*
X157038Y22946D01*
X157028Y23025D01*
X157018Y23119D01*
X157008Y23222D01*
Y23340D01*
Y23345D01*
Y23355D01*
Y23374D01*
Y23399D01*
Y23429D01*
X157013Y23463D01*
X157018Y23542D01*
X157023Y23630D01*
X157033Y23724D01*
X157052Y23817D01*
X157072Y23901D01*
Y23906D01*
X157077Y23911D01*
X157082Y23935D01*
X157097Y23980D01*
X157116Y24029D01*
X157141Y24083D01*
X157175Y24142D01*
X157210Y24201D01*
X157254Y24250D01*
X157259Y24255D01*
X157274Y24270D01*
X157303Y24295D01*
X157338Y24319D01*
X157382Y24349D01*
X157431Y24378D01*
X157490Y24403D01*
X157559Y24422D01*
X157569D01*
X157594Y24432D01*
X157628Y24437D01*
X157682Y24447D01*
X157741Y24457D01*
X157815Y24462D01*
X157894Y24472D01*
X158386D01*
Y22218D01*
D02*
G37*
G36*
X161943Y23084D02*
X160944D01*
X161407Y24447D01*
X161471D01*
X161943Y23084D01*
D02*
G37*
G36*
X165328Y24541D02*
X165387Y24536D01*
X165451Y24531D01*
X165520Y24516D01*
X165584Y24501D01*
X165648Y24477D01*
X165653Y24472D01*
X165672Y24467D01*
X165702Y24447D01*
X165736Y24427D01*
X165776Y24398D01*
X165815Y24359D01*
X165854Y24314D01*
X165889Y24265D01*
X165894Y24260D01*
X165903Y24240D01*
X165918Y24206D01*
X165938Y24167D01*
X165958Y24113D01*
X165977Y24049D01*
X165997Y23975D01*
X166012Y23891D01*
Y23886D01*
Y23881D01*
X166017Y23866D01*
Y23852D01*
X166022Y23803D01*
X166026Y23739D01*
X166036Y23655D01*
X166041Y23562D01*
X166046Y23458D01*
Y23340D01*
Y23335D01*
Y23325D01*
Y23311D01*
Y23286D01*
Y23256D01*
Y23222D01*
X166041Y23148D01*
X166036Y23060D01*
X166031Y22966D01*
X166022Y22868D01*
X166012Y22779D01*
Y22769D01*
X166007Y22740D01*
X165997Y22701D01*
X165982Y22651D01*
X165967Y22592D01*
X165943Y22528D01*
X165918Y22469D01*
X165889Y22415D01*
X165884Y22410D01*
X165874Y22390D01*
X165854Y22366D01*
X165825Y22336D01*
X165790Y22307D01*
X165751Y22272D01*
X165702Y22243D01*
X165648Y22213D01*
X165638Y22208D01*
X165618Y22204D01*
X165584Y22194D01*
X165539Y22184D01*
X165480Y22169D01*
X165411Y22159D01*
X165333Y22154D01*
X165244Y22149D01*
X165200D01*
X165156Y22154D01*
X165097Y22159D01*
X165033Y22164D01*
X164964Y22179D01*
X164900Y22194D01*
X164836Y22213D01*
X164831Y22218D01*
X164811Y22228D01*
X164782Y22243D01*
X164747Y22263D01*
X164708Y22292D01*
X164669Y22327D01*
X164629Y22366D01*
X164595Y22415D01*
X164590Y22420D01*
X164580Y22440D01*
X164565Y22469D01*
X164546Y22513D01*
X164526Y22563D01*
X164506Y22627D01*
X164487Y22701D01*
X164472Y22779D01*
Y22784D01*
Y22789D01*
X164467Y22804D01*
Y22819D01*
X164462Y22868D01*
X164452Y22937D01*
X164447Y23020D01*
X164442Y23114D01*
X164437Y23222D01*
Y23340D01*
Y23345D01*
Y23355D01*
Y23370D01*
Y23394D01*
Y23424D01*
Y23453D01*
X164442Y23532D01*
X164447Y23616D01*
X164452Y23709D01*
X164462Y23803D01*
X164472Y23891D01*
Y23896D01*
Y23901D01*
X164477Y23931D01*
X164487Y23970D01*
X164501Y24024D01*
X164516Y24083D01*
X164536Y24147D01*
X164565Y24206D01*
X164595Y24265D01*
X164600Y24270D01*
X164610Y24290D01*
X164629Y24314D01*
X164654Y24349D01*
X164688Y24383D01*
X164733Y24418D01*
X164782Y24447D01*
X164836Y24477D01*
X164841Y24482D01*
X164865Y24486D01*
X164900Y24496D01*
X164944Y24511D01*
X165003Y24526D01*
X165072Y24536D01*
X165156Y24541D01*
X165244Y24545D01*
X165284D01*
X165328Y24541D01*
D02*
G37*
%LPC*%
G36*
X133547Y23434D02*
X131963D01*
Y22833D01*
X133547D01*
Y23434D01*
D02*
G37*
G36*
X147500Y25131D02*
X145286D01*
X146713D01*
Y22228D01*
X145286D01*
Y22233D01*
Y21549D01*
X147500D01*
Y25131D01*
D02*
G37*
G36*
X141296D02*
X137576D01*
X138905D01*
X137576Y21549D01*
X138408D01*
X138713Y22435D01*
X140169D01*
X140479Y21549D01*
X140147D01*
X141296D01*
X139958Y25131D01*
X141296D01*
D02*
G37*
G36*
X137173D02*
X135840D01*
X135800Y25126D01*
X135756D01*
X135707Y25121D01*
X135594Y25116D01*
X135476Y25101D01*
X135353Y25087D01*
X135230Y25062D01*
X135225D01*
X135215Y25057D01*
X135200Y25052D01*
X135175Y25047D01*
X135146Y25042D01*
X135116Y25028D01*
X135038Y25003D01*
X134949Y24969D01*
X134856Y24919D01*
X134762Y24865D01*
X134674Y24796D01*
X134669D01*
X134664Y24787D01*
X134634Y24762D01*
X134595Y24718D01*
X134541Y24654D01*
X134487Y24575D01*
X134428Y24482D01*
X134369Y24373D01*
X134319Y24245D01*
Y24240D01*
X134314Y24231D01*
X134309Y24211D01*
X134300Y24181D01*
X134290Y24147D01*
X134280Y24108D01*
X134270Y24058D01*
X134255Y23999D01*
X134246Y23940D01*
X134236Y23871D01*
X134226Y23798D01*
X134216Y23714D01*
X134206Y23630D01*
X134201Y23537D01*
X134196Y23443D01*
Y23252D01*
X134201Y23207D01*
Y23158D01*
X134206Y23099D01*
X134211Y23035D01*
X134226Y22897D01*
X134250Y22755D01*
X134280Y22612D01*
X134319Y22474D01*
Y22469D01*
X134324Y22459D01*
X134334Y22440D01*
X134344Y22415D01*
X134354Y22390D01*
X134369Y22356D01*
X134408Y22277D01*
X134462Y22189D01*
X134521Y22095D01*
X134590Y22007D01*
X134674Y21923D01*
X134678D01*
X134683Y21913D01*
X134698Y21903D01*
X134713Y21889D01*
X134762Y21854D01*
X134831Y21810D01*
X134910Y21761D01*
X135003Y21712D01*
X135111Y21667D01*
X135230Y21633D01*
X135234D01*
X135244Y21628D01*
X135259Y21623D01*
X135284Y21618D01*
X135313Y21613D01*
X135353Y21608D01*
X135392Y21598D01*
X135436Y21594D01*
X135544Y21574D01*
X135667Y21564D01*
X135800Y21554D01*
X135943Y21549D01*
X137173D01*
Y25131D01*
D02*
G37*
G36*
X143244Y25185D02*
X143146D01*
X143102Y25180D01*
X143057D01*
X143008Y25175D01*
X142900Y25165D01*
X142782Y25151D01*
X142664Y25131D01*
X142546Y25101D01*
X142541D01*
X142531Y25096D01*
X142516Y25092D01*
X142496Y25087D01*
X142437Y25062D01*
X142368Y25033D01*
X142285Y24993D01*
X142201Y24944D01*
X142113Y24880D01*
X142034Y24806D01*
X142024Y24796D01*
X141999Y24767D01*
X141965Y24723D01*
X141916Y24659D01*
X141867Y24575D01*
X141817Y24482D01*
X141768Y24368D01*
X141724Y24240D01*
Y24236D01*
X141719Y24226D01*
X141714Y24206D01*
X141709Y24177D01*
X141699Y24142D01*
X141690Y24098D01*
X141680Y24049D01*
X141670Y23994D01*
X141660Y23935D01*
X141650Y23866D01*
X141640Y23793D01*
X141630Y23709D01*
X141625Y23625D01*
X141621Y23537D01*
X141616Y23438D01*
Y23252D01*
X141621Y23202D01*
Y23148D01*
X141625Y23089D01*
X141630Y23020D01*
X141640Y22878D01*
X141660Y22730D01*
X141690Y22578D01*
X141724Y22435D01*
Y22430D01*
X141729Y22420D01*
X141734Y22400D01*
X141744Y22376D01*
X141753Y22346D01*
X141768Y22312D01*
X141803Y22233D01*
X141847Y22140D01*
X141896Y22046D01*
X141960Y21953D01*
X142034Y21869D01*
X142044Y21859D01*
X142068Y21835D01*
X142118Y21800D01*
X142177Y21756D01*
X142250Y21707D01*
X142339Y21657D01*
X142437Y21613D01*
X142546Y21579D01*
X142551D01*
X142560Y21574D01*
X142575D01*
X142600Y21569D01*
X142629Y21559D01*
X142664Y21554D01*
X142703Y21549D01*
X142747Y21539D01*
X142851Y21525D01*
X142969Y21515D01*
X143102Y21505D01*
X143244Y21500D01*
X141616D01*
D01*
X144873D01*
Y23434D01*
X144868Y23478D01*
Y23532D01*
X144863Y23591D01*
X144858Y23660D01*
X144848Y23798D01*
X144828Y23950D01*
X144799Y24098D01*
X144764Y24240D01*
Y24245D01*
X144760Y24255D01*
X144755Y24275D01*
X144745Y24299D01*
X144730Y24329D01*
X144715Y24363D01*
X144681Y24447D01*
X144637Y24536D01*
X144582Y24629D01*
X144518Y24723D01*
X144445Y24806D01*
X144440Y24811D01*
X144435Y24816D01*
X144405Y24841D01*
X144361Y24880D01*
X144302Y24924D01*
X144228Y24973D01*
X144145Y25018D01*
X144046Y25067D01*
X143938Y25101D01*
X143933D01*
X143923Y25106D01*
X143908Y25111D01*
X143884Y25116D01*
X143854Y25121D01*
X143820Y25126D01*
X143781Y25136D01*
X143736Y25146D01*
X143633Y25161D01*
X143515Y25170D01*
X143387Y25180D01*
X143244Y25185D01*
D02*
G37*
%LPD*%
G36*
X139943Y23084D02*
X138944D01*
X139407Y24447D01*
X139471D01*
X139943Y23084D01*
D02*
G37*
G36*
X136386Y22218D02*
X135943D01*
X135894Y22223D01*
X135835D01*
X135771Y22228D01*
X135697Y22238D01*
X135623Y22253D01*
X135554Y22267D01*
X135544Y22272D01*
X135525Y22277D01*
X135490Y22292D01*
X135446Y22312D01*
X135397Y22336D01*
X135348Y22366D01*
X135298Y22405D01*
X135249Y22450D01*
X135244Y22455D01*
X135230Y22474D01*
X135205Y22504D01*
X135180Y22543D01*
X135151Y22592D01*
X135121Y22651D01*
X135092Y22720D01*
X135067Y22799D01*
Y22804D01*
X135062Y22809D01*
X135057Y22838D01*
X135047Y22883D01*
X135038Y22946D01*
X135028Y23025D01*
X135018Y23119D01*
X135008Y23222D01*
Y23340D01*
Y23345D01*
Y23355D01*
Y23374D01*
Y23399D01*
Y23429D01*
X135013Y23463D01*
X135018Y23542D01*
X135023Y23630D01*
X135033Y23724D01*
X135052Y23817D01*
X135072Y23901D01*
Y23906D01*
X135077Y23911D01*
X135082Y23935D01*
X135097Y23980D01*
X135116Y24029D01*
X135141Y24083D01*
X135175Y24142D01*
X135210Y24201D01*
X135254Y24250D01*
X135259Y24255D01*
X135274Y24270D01*
X135303Y24295D01*
X135338Y24319D01*
X135382Y24349D01*
X135431Y24378D01*
X135490Y24403D01*
X135559Y24422D01*
X135569D01*
X135594Y24432D01*
X135628Y24437D01*
X135682Y24447D01*
X135741Y24457D01*
X135815Y24462D01*
X135894Y24472D01*
X136386D01*
Y22218D01*
D02*
G37*
G36*
X143328Y24541D02*
X143387Y24536D01*
X143451Y24531D01*
X143520Y24516D01*
X143584Y24501D01*
X143648Y24477D01*
X143653Y24472D01*
X143672Y24467D01*
X143702Y24447D01*
X143736Y24427D01*
X143776Y24398D01*
X143815Y24359D01*
X143854Y24314D01*
X143889Y24265D01*
X143894Y24260D01*
X143904Y24240D01*
X143918Y24206D01*
X143938Y24167D01*
X143958Y24113D01*
X143977Y24049D01*
X143997Y23975D01*
X144012Y23891D01*
Y23886D01*
Y23881D01*
X144017Y23866D01*
Y23852D01*
X144022Y23803D01*
X144027Y23739D01*
X144036Y23655D01*
X144041Y23562D01*
X144046Y23458D01*
Y23340D01*
Y23335D01*
Y23325D01*
Y23311D01*
Y23286D01*
Y23256D01*
Y23222D01*
X144041Y23148D01*
X144036Y23060D01*
X144031Y22966D01*
X144022Y22868D01*
X144012Y22779D01*
Y22769D01*
X144007Y22740D01*
X143997Y22701D01*
X143982Y22651D01*
X143967Y22592D01*
X143943Y22528D01*
X143918Y22469D01*
X143889Y22415D01*
X143884Y22410D01*
X143874Y22390D01*
X143854Y22366D01*
X143825Y22336D01*
X143790Y22307D01*
X143751Y22272D01*
X143702Y22243D01*
X143648Y22213D01*
X143638Y22208D01*
X143618Y22204D01*
X143584Y22194D01*
X143539Y22184D01*
X143480Y22169D01*
X143412Y22159D01*
X143333Y22154D01*
X143244Y22149D01*
X143200D01*
X143156Y22154D01*
X143097Y22159D01*
X143033Y22164D01*
X142964Y22179D01*
X142900Y22194D01*
X142836Y22213D01*
X142831Y22218D01*
X142811Y22228D01*
X142782Y22243D01*
X142747Y22263D01*
X142708Y22292D01*
X142669Y22327D01*
X142629Y22366D01*
X142595Y22415D01*
X142590Y22420D01*
X142580Y22440D01*
X142565Y22469D01*
X142546Y22513D01*
X142526Y22563D01*
X142506Y22627D01*
X142487Y22701D01*
X142472Y22779D01*
Y22784D01*
Y22789D01*
X142467Y22804D01*
Y22819D01*
X142462Y22868D01*
X142452Y22937D01*
X142447Y23020D01*
X142442Y23114D01*
X142437Y23222D01*
Y23340D01*
Y23345D01*
Y23355D01*
Y23370D01*
Y23394D01*
Y23424D01*
Y23453D01*
X142442Y23532D01*
X142447Y23616D01*
X142452Y23709D01*
X142462Y23803D01*
X142472Y23891D01*
Y23896D01*
Y23901D01*
X142477Y23931D01*
X142487Y23970D01*
X142501Y24024D01*
X142516Y24083D01*
X142536Y24147D01*
X142565Y24206D01*
X142595Y24265D01*
X142600Y24270D01*
X142610Y24290D01*
X142629Y24314D01*
X142654Y24349D01*
X142688Y24383D01*
X142733Y24418D01*
X142782Y24447D01*
X142836Y24477D01*
X142841Y24482D01*
X142865Y24486D01*
X142900Y24496D01*
X142944Y24511D01*
X143003Y24526D01*
X143072Y24536D01*
X143156Y24541D01*
X143244Y24545D01*
X143284D01*
X143328Y24541D01*
D02*
G37*
G36*
X144873Y21500D02*
X143308D01*
X143343Y21505D01*
X143426D01*
X143475Y21510D01*
X143584Y21520D01*
X143702Y21534D01*
X143820Y21554D01*
X143938Y21579D01*
X143943D01*
X143953Y21584D01*
X143967Y21589D01*
X143987Y21594D01*
X144041Y21618D01*
X144115Y21648D01*
X144194Y21687D01*
X144277Y21736D01*
X144361Y21795D01*
X144445Y21869D01*
Y21874D01*
X144455Y21879D01*
X144479Y21908D01*
X144514Y21953D01*
X144563Y22021D01*
X144612Y22100D01*
X144666Y22199D01*
X144720Y22307D01*
X144764Y22435D01*
Y22440D01*
X144769Y22450D01*
X144774Y22469D01*
X144779Y22499D01*
X144789Y22533D01*
X144799Y22578D01*
X144809Y22627D01*
X144819Y22681D01*
X144828Y22745D01*
X144838Y22814D01*
X144848Y22887D01*
X144858Y22966D01*
X144863Y23055D01*
X144868Y23143D01*
X144873Y23340D01*
Y21500D01*
D02*
G37*
%LPC*%
G36*
X114548Y32909D02*
X114250D01*
X114197Y32905D01*
X114155D01*
X114116Y32901D01*
X114086Y32898D01*
X114063D01*
X114048Y32894D01*
X114044D01*
X114005Y32886D01*
X113971Y32879D01*
X113941Y32867D01*
X113914Y32860D01*
X113895Y32848D01*
X113879Y32840D01*
X113872Y32837D01*
X113868Y32833D01*
X113826Y32795D01*
X113795Y32756D01*
X113784Y32737D01*
X113776Y32722D01*
X113772Y32714D01*
Y32710D01*
X113761Y32680D01*
X113753Y32646D01*
X113746Y32581D01*
X113742Y32554D01*
Y32531D01*
Y32512D01*
Y32508D01*
Y32462D01*
X113746Y32420D01*
X113750Y32382D01*
X113757Y32351D01*
X113761Y32325D01*
X113769Y32306D01*
X113772Y32294D01*
Y32290D01*
X113799Y32233D01*
X113814Y32210D01*
X113830Y32191D01*
X113845Y32176D01*
X113856Y32164D01*
X113864Y32160D01*
X113868Y32157D01*
X113895Y32141D01*
X113921Y32126D01*
X113979Y32107D01*
X114005Y32099D01*
X114025Y32096D01*
X114040Y32092D01*
X114044D01*
X114086Y32088D01*
X114128Y32084D01*
X114174Y32080D01*
X114212D01*
X114250Y32076D01*
X114548D01*
Y32909D01*
D02*
G37*
%LPD*%
D15*
X96157Y20600D02*
Y29400D01*
X115646Y20600D02*
Y29400D01*
X96157Y20600D02*
X115646D01*
X96157Y29400D02*
X115646D01*
D144*
X91130Y54870D02*
X92590D01*
X91104Y54896D02*
X92590D01*
X91078Y54922D02*
X92616D01*
X91052Y54948D02*
X92616D01*
X91026Y54974D02*
X92668D01*
X91000Y55000D02*
X92694D01*
X90974Y55026D02*
X92694D01*
X90948Y55052D02*
X92720D01*
X90922Y55078D02*
X92747D01*
X90922Y55104D02*
X92773D01*
X90870Y55130D02*
X92799D01*
X90844Y55156D02*
X92799D01*
X90817Y55182D02*
X92851D01*
X90817Y55208D02*
X92851D01*
X90791Y55235D02*
X92877D01*
X90765Y55261D02*
X92903D01*
X90713Y55287D02*
X92929D01*
X90713Y55313D02*
X92955D01*
X90687Y55339D02*
X92955D01*
X90661Y55365D02*
X92981D01*
X90635Y55391D02*
X93007D01*
X90609Y55417D02*
X93033D01*
X90609Y55443D02*
X93059D01*
X90583Y55469D02*
X93059D01*
X90531Y55495D02*
X93111D01*
X90505Y55521D02*
X93111D01*
X90505Y55547D02*
X93138D01*
X90479Y55573D02*
X93138D01*
X90426Y55599D02*
X93190D01*
X90400Y55626D02*
X93216D01*
X90400Y55652D02*
X93216D01*
X90374Y55678D02*
X93242D01*
X91834Y55704D02*
X93268D01*
X90348D02*
X91782D01*
X91860Y55730D02*
X93294D01*
X90322D02*
X91756D01*
X91860Y55756D02*
X93320D01*
X90296D02*
X91756D01*
X90296Y55782D02*
X91730D01*
X91886D02*
X93320D01*
X91912Y55808D02*
X93346D01*
X90244D02*
X91678D01*
X90218Y55834D02*
X91652D01*
X91938D02*
X93372D01*
X90192Y55860D02*
X91652D01*
X91965D02*
X93398D01*
X91965Y55886D02*
X93424D01*
X90192D02*
X91626D01*
X91991Y55912D02*
X93450D01*
X90140D02*
X91600D01*
X92043Y55938D02*
X93450D01*
X90114D02*
X91547D01*
X92043Y55964D02*
X93476D01*
X90088D02*
X91547D01*
X90088Y55990D02*
X91521D01*
X92069D02*
X93502D01*
X90062Y56017D02*
X91495D01*
X92095D02*
X93528D01*
X90009Y56043D02*
X91469D01*
X92121D02*
X93555D01*
X90009Y56069D02*
X91443D01*
X92147D02*
X93581D01*
X89983Y56095D02*
X91417D01*
X92147D02*
X93581D01*
X89957Y56121D02*
X91391D01*
X92173D02*
X93633D01*
X89931Y56147D02*
X91365D01*
X92199D02*
X93633D01*
X89905Y56173D02*
X91339D01*
X92225D02*
X93659D01*
X92225Y56199D02*
X93685D01*
X89879D02*
X91339D01*
X89853Y56225D02*
X91313D01*
X92277D02*
X93711D01*
X92277Y56251D02*
X93737D01*
X89827D02*
X91261D01*
X92303Y56277D02*
X93737D01*
X89801D02*
X91235D01*
X92329Y56303D02*
X93763D01*
X89775D02*
X91235D01*
X92356Y56329D02*
X93789D01*
X89749D02*
X91208D01*
X89749Y56356D02*
X91156D01*
X92382D02*
X93815D01*
X92382Y56381D02*
X93841D01*
X89723D02*
X91156D01*
X89697Y56408D02*
X91130D01*
X92408D02*
X93841D01*
X92434Y56434D02*
X93867D01*
X89671D02*
X91104D01*
X92460Y56460D02*
X93893D01*
X89644D02*
X91078D01*
X89618Y56486D02*
X91052D01*
X92486D02*
X93919D01*
X89592Y56512D02*
X91026D01*
X92486D02*
X93946D01*
X92512Y56538D02*
X93972D01*
X89566D02*
X91000D01*
X92538Y56564D02*
X93972D01*
X89540D02*
X90974D01*
X89514Y56590D02*
X90948D01*
X92564D02*
X93998D01*
X92590Y56616D02*
X94024D01*
X89488D02*
X90922D01*
X92590Y56642D02*
X94050D01*
X89462D02*
X90922D01*
X89462Y56668D02*
X90896D01*
X92642D02*
X94076D01*
X89410Y56694D02*
X90870D01*
X92668D02*
X94076D01*
X92668Y56720D02*
X94102D01*
X89410D02*
X90844D01*
X89358Y56747D02*
X90817D01*
X92694D02*
X94154D01*
X92720Y56773D02*
X94154D01*
X89358D02*
X90791D01*
X89332Y56799D02*
X90765D01*
X92747D02*
X94180D01*
X92747Y56825D02*
X94180D01*
X89306D02*
X90739D01*
X89253Y56851D02*
X90713D01*
X92799D02*
X94232D01*
X89253Y56877D02*
X90687D01*
X92799D02*
X94258D01*
X89227Y56903D02*
X90661D01*
X92825D02*
X94258D01*
X89201Y56929D02*
X90635D01*
X92851D02*
X94284D01*
X92877Y56955D02*
X94310D01*
X89175D02*
X90609D01*
X89149Y56981D02*
X90583D01*
X92903D02*
X94337D01*
X92903Y57007D02*
X94363D01*
X89149D02*
X90557D01*
X92929Y57033D02*
X94363D01*
X89123D02*
X90531D01*
X92955Y57059D02*
X94389D01*
X89071D02*
X90505D01*
X89045Y57085D02*
X90505D01*
X92981D02*
X94415D01*
X89045Y57111D02*
X90479D01*
X93007D02*
X94441D01*
X89019Y57138D02*
X90453D01*
X93007D02*
X94467D01*
X88967Y57164D02*
X90426D01*
X93033D02*
X94467D01*
X93059Y57190D02*
X94493D01*
X88941D02*
X90400D01*
X88941Y57216D02*
X90374D01*
X93085D02*
X94519D01*
X88915Y57242D02*
X90348D01*
X93111D02*
X94545D01*
X88889Y57268D02*
X90322D01*
X93111D02*
X94571D01*
X93164Y57294D02*
X94597D01*
X88863D02*
X90296D01*
X93164Y57320D02*
X94597D01*
X88836D02*
X90270D01*
X93190Y57346D02*
X94623D01*
X88836D02*
X90244D01*
X88784Y57372D02*
X90218D01*
X93216D02*
X94675D01*
X93242Y57398D02*
X94675D01*
X88758D02*
X90192D01*
X93268Y57424D02*
X94701D01*
X88732D02*
X90192D01*
X93268Y57450D02*
X94701D01*
X88732D02*
X90166D01*
X88680Y57476D02*
X90140D01*
X93294D02*
X94754D01*
X88654Y57502D02*
X90088D01*
X93320D02*
X94780D01*
X88628Y57529D02*
X90088D01*
X93346D02*
X94780D01*
X93372Y57555D02*
X94806D01*
X88628D02*
X90062D01*
X88602Y57581D02*
X90035D01*
X93398D02*
X94832D01*
X88576Y57607D02*
X89983D01*
X93424D02*
X94858D01*
X88550Y57633D02*
X89983D01*
X93424D02*
X94884D01*
X88524Y57659D02*
X89957D01*
X93450D02*
X94884D01*
X93476Y57685D02*
X94910D01*
X88498D02*
X89931D01*
X93502Y57711D02*
X94936D01*
X88472D02*
X89905D01*
X88445Y57737D02*
X89879D01*
X93528D02*
X94962D01*
X93528Y57763D02*
X94988D01*
X88419D02*
X89879D01*
X88393Y57789D02*
X89853D01*
X93555D02*
X94988D01*
X88367Y57815D02*
X89801D01*
X93581D02*
X95014D01*
X88341Y57841D02*
X89775D01*
X93607D02*
X95040D01*
X88315Y57867D02*
X89775D01*
X93633D02*
X95066D01*
X93633Y57893D02*
X95092D01*
X88315D02*
X89749D01*
X93659Y57920D02*
X95119D01*
X88289D02*
X89697D01*
X93685Y57946D02*
X95119D01*
X88263D02*
X89671D01*
X88237Y57972D02*
X89671D01*
X93711D02*
X95145D01*
X91860Y65036D02*
X93685D01*
X91912Y65010D02*
X93737D01*
X91965Y64984D02*
X93763D01*
X91991Y64958D02*
X93789D01*
X92017Y64931D02*
X93815D01*
X92043Y64905D02*
X93867D01*
X92095Y64879D02*
X93893D01*
X92121Y64853D02*
X93946D01*
X92173Y64801D02*
X94024D01*
X92251Y64775D02*
X94050D01*
X92277Y64749D02*
X94076D01*
X92173Y64827D02*
X93946D01*
X92564Y64540D02*
X94363D01*
X99263Y64619D02*
X99837D01*
X99211Y64593D02*
X99837D01*
X99159Y64540D02*
X99863D01*
X101453Y64749D02*
X102730D01*
X101453Y64723D02*
X102730D01*
X101453Y64697D02*
X102756D01*
X101453Y64671D02*
X102756D01*
X101479Y64645D02*
X102782D01*
X101479Y64619D02*
X102782D01*
X101479Y64593D02*
X102782D01*
X101505Y64567D02*
X102808D01*
X101505Y64540D02*
X102808D01*
X91730Y65140D02*
X93528D01*
X91600Y65244D02*
X93398D01*
X91626Y65218D02*
X93450D01*
X91678Y65192D02*
X93476D01*
X91756Y65114D02*
X93581D01*
X91808Y65088D02*
X93633D01*
X91860Y65062D02*
X93633D01*
X91704Y65166D02*
X93502D01*
X99367Y64801D02*
X99785D01*
X99367Y64775D02*
X99785D01*
X99341Y64749D02*
X99785D01*
X99341Y64723D02*
X99785D01*
X99289Y64697D02*
X99811D01*
X99263Y64671D02*
X99811D01*
X99263Y64645D02*
X99811D01*
X101453Y64775D02*
X102730D01*
X101427Y64801D02*
X102704D01*
X100853Y66678D02*
X102157D01*
X100853Y66652D02*
X102157D01*
X100853Y66626D02*
X102157D01*
X100879Y66600D02*
X102183D01*
X100879Y66574D02*
X102183D01*
X100906Y66548D02*
X102183D01*
X100906Y66522D02*
X102183D01*
X100906Y66496D02*
X102183D01*
X100932Y66470D02*
X102209D01*
X100932Y66417D02*
X102209D01*
X100932Y66391D02*
X102235D01*
X100932Y66443D02*
X102209D01*
X100932Y66365D02*
X102235D01*
X100958Y66339D02*
X102261D01*
X100958Y66313D02*
X102261D01*
X100958Y66287D02*
X102261D01*
X100984Y66261D02*
X102287D01*
X100984Y66235D02*
X102287D01*
X101010Y66209D02*
X102287D01*
X101010Y66183D02*
X102287D01*
X101010Y66157D02*
X102313D01*
X101036Y66131D02*
X102313D01*
X101036Y66079D02*
X102313D01*
X101036Y66052D02*
X102339D01*
X101036Y66105D02*
X102313D01*
X101036Y66026D02*
X102339D01*
X101062Y66000D02*
X102365D01*
X101062Y65974D02*
X102365D01*
X101062Y65948D02*
X102365D01*
X101088Y65922D02*
X102391D01*
X101088Y65870D02*
X102391D01*
X101114Y65844D02*
X102391D01*
X101114Y65818D02*
X102391D01*
X101140Y65792D02*
X102417D01*
X101140Y65766D02*
X102417D01*
X101140Y65740D02*
X102443D01*
X101140Y65714D02*
X102443D01*
X101088Y65896D02*
X102391D01*
X101140Y65688D02*
X102443D01*
X101166Y65661D02*
X102443D01*
X101166Y65635D02*
X102470D01*
X101166Y65609D02*
X102470D01*
X101192Y65583D02*
X102496D01*
X101192Y65557D02*
X102496D01*
X101192Y65531D02*
X102496D01*
X101218Y65505D02*
X102496D01*
X101218Y65479D02*
X102496D01*
X101244Y65453D02*
X102522D01*
X101244Y65427D02*
X102522D01*
X101244Y65401D02*
X102548D01*
X101244Y65375D02*
X102548D01*
X101244Y65349D02*
X102548D01*
X101270Y65323D02*
X102574D01*
X101270Y65297D02*
X102574D01*
X101270Y65270D02*
X102574D01*
X101322Y65140D02*
X102600D01*
X99602Y65062D02*
X99680D01*
X99576Y65036D02*
X99706D01*
X99576Y65010D02*
X99706D01*
X101296Y65244D02*
X102600D01*
X101296Y65218D02*
X102600D01*
X101296Y65192D02*
X102600D01*
X101322Y65166D02*
X102600D01*
X101349Y65114D02*
X102626D01*
X101349Y65088D02*
X102626D01*
X99628D02*
X99680D01*
X99524Y64958D02*
X99732D01*
X99498Y64931D02*
X99732D01*
X99472Y64905D02*
X99758D01*
X99446Y64879D02*
X99758D01*
X99446Y64853D02*
X99758D01*
X99420Y64827D02*
X99785D01*
X101427D02*
X102704D01*
X101401Y64853D02*
X102704D01*
X99550Y64984D02*
X99732D01*
X92303Y64723D02*
X94102D01*
X92329Y64697D02*
X94154D01*
X92382Y64671D02*
X94180D01*
X92408Y64645D02*
X94206D01*
X92434Y64619D02*
X94258D01*
X92486Y64593D02*
X94284D01*
X99185Y64567D02*
X99863D01*
X92538D02*
X94337D01*
X101349Y65062D02*
X102652D01*
X101349Y65036D02*
X102652D01*
X101349Y65010D02*
X102652D01*
X101375Y64984D02*
X102678D01*
X101375Y64958D02*
X102678D01*
X101375Y64931D02*
X102678D01*
X101401Y64905D02*
X102704D01*
X101401Y64879D02*
X102704D01*
X93972Y58284D02*
X95405D01*
X93946Y58258D02*
X95405D01*
X93946Y58232D02*
X95379D01*
X93919Y58206D02*
X95353D01*
X93893Y58180D02*
X95301D01*
X93867Y58154D02*
X95301D01*
X93841Y58128D02*
X95301D01*
X93815Y58102D02*
X95275D01*
X93789Y58076D02*
X95223D01*
X93763Y58024D02*
X95197D01*
X93737Y57998D02*
X95197D01*
X93789Y58050D02*
X95197D01*
X94571Y63055D02*
X96370D01*
X94154Y63367D02*
X95953D01*
X94154Y63341D02*
X96005D01*
X94232Y63315D02*
X96031D01*
X94258Y63289D02*
X96057D01*
X94284Y63263D02*
X96083D01*
X94310Y63237D02*
X96135D01*
X94363Y63211D02*
X96161D01*
X94415Y63159D02*
X96240D01*
X94467Y63133D02*
X96266D01*
X94493Y63107D02*
X96318D01*
X94545Y63081D02*
X96344D01*
X94597Y63029D02*
X96422D01*
X94649Y63003D02*
X96448D01*
X94467Y58884D02*
X95927D01*
X94389Y63185D02*
X96213D01*
X93659Y63732D02*
X95458D01*
X93685Y63706D02*
X95483D01*
X93711Y63680D02*
X95510D01*
X93737Y63654D02*
X95562D01*
X93789Y63628D02*
X95614D01*
X93841Y63602D02*
X95614D01*
X93841Y63576D02*
X95666D01*
X93893Y63550D02*
X95718D01*
X93946Y63524D02*
X95744D01*
X93972Y63498D02*
X95770D01*
X94024Y63446D02*
X95849D01*
X94076Y63420D02*
X95901D01*
X94102Y63394D02*
X95927D01*
X93998Y63472D02*
X95796D01*
X93607Y63758D02*
X95431D01*
X93398Y63915D02*
X95197D01*
X93424Y63889D02*
X95223D01*
X93450Y63863D02*
X95301D01*
X93528Y63837D02*
X95301D01*
X93528Y63811D02*
X95353D01*
X93581Y63785D02*
X95379D01*
X93372Y63941D02*
X95171D01*
X85083Y61360D02*
X91208D01*
X85109Y61334D02*
X91208D01*
X85135Y61308D02*
X91208D01*
X85135Y61282D02*
X91208D01*
X85161Y61256D02*
X91208D01*
X85187Y61230D02*
X91208D01*
X85213Y61204D02*
X91208D01*
X85239Y61178D02*
X91208D01*
X85265Y61152D02*
X91208D01*
X85317Y61100D02*
X91208D01*
X85343Y61074D02*
X91208D01*
X85291Y61126D02*
X91208D01*
X85369Y61048D02*
X91208D01*
X85422Y60969D02*
X91208D01*
X85396Y61022D02*
X91208D01*
X85422Y60995D02*
X91208D01*
X85448Y60943D02*
X91208D01*
X85500Y60917D02*
X91208D01*
X85500Y60891D02*
X91208D01*
X85526Y60865D02*
X91208D01*
X85552Y60839D02*
X91208D01*
X85604Y60813D02*
X91208D01*
X85604Y60787D02*
X91208D01*
X85656Y60735D02*
X91208D01*
X85682Y60709D02*
X91208D01*
X85630Y60761D02*
X91208D01*
X85708Y60683D02*
X91208D01*
X85943Y60422D02*
X87377D01*
X85969Y60396D02*
X87403D01*
X86021Y60370D02*
X87429D01*
X86021Y60344D02*
X87455D01*
X86047Y60318D02*
X87455D01*
X86073Y60292D02*
X87507D01*
X86099Y60265D02*
X87507D01*
X86125Y60239D02*
X87533D01*
X86125Y60213D02*
X87559D01*
X86178Y60187D02*
X87585D01*
X86204Y60161D02*
X87611D01*
X86230Y60135D02*
X87637D01*
X86230Y60109D02*
X87663D01*
X87246Y61647D02*
X91183D01*
X84874Y61621D02*
X91208D01*
X84874Y61595D02*
X91208D01*
X84874Y61569D02*
X91208D01*
X84900Y61543D02*
X91208D01*
X84926Y61517D02*
X91208D01*
X84952Y61491D02*
X91208D01*
X85005Y61439D02*
X91208D01*
X85031Y61413D02*
X91208D01*
X85057Y61386D02*
X91208D01*
X84978Y61465D02*
X91208D01*
X86256Y60083D02*
X87690D01*
X86282Y60057D02*
X87716D01*
X86334Y60031D02*
X87742D01*
X86334Y60005D02*
X87768D01*
X86360Y59979D02*
X87794D01*
X86386Y59953D02*
X87794D01*
X86412Y59927D02*
X87820D01*
X86438Y59901D02*
X87846D01*
X86438Y59874D02*
X87898D01*
X86490Y59848D02*
X87898D01*
X86516Y59822D02*
X87924D01*
X86543Y59796D02*
X87950D01*
X86543Y59770D02*
X88002D01*
X85734Y60656D02*
X87168D01*
X85760Y60631D02*
X87168D01*
X85787Y60604D02*
X87194D01*
X85813Y60578D02*
X87220D01*
X85813Y60552D02*
X87246D01*
X85839Y60526D02*
X87272D01*
X85865Y60500D02*
X87299D01*
X85917Y60474D02*
X87325D01*
X85917Y60448D02*
X87351D01*
X92903Y64280D02*
X94728D01*
X92929Y64254D02*
X94754D01*
X92981Y64228D02*
X94780D01*
X93007Y64202D02*
X94806D01*
X93033Y64176D02*
X94858D01*
X93085Y64149D02*
X94884D01*
X93138Y64097D02*
X94962D01*
X93190Y64071D02*
X94988D01*
X93216Y64045D02*
X95040D01*
X93268Y64019D02*
X95066D01*
X93294Y63993D02*
X95092D01*
X93111Y64123D02*
X94910D01*
X93320Y63967D02*
X95145D01*
X94675Y62976D02*
X96474D01*
X94701Y62950D02*
X96526D01*
X94728Y62924D02*
X96552D01*
X94780Y62898D02*
X96604D01*
X94806Y62872D02*
X96631D01*
X94858Y62846D02*
X96657D01*
X94936Y62794D02*
X96735D01*
X94962Y62768D02*
X96761D01*
X94884Y62820D02*
X96709D01*
X94988Y62742D02*
X96787D01*
X92590Y64514D02*
X94389D01*
X92616Y64488D02*
X94441D01*
X92668Y64462D02*
X94467D01*
X92694Y64436D02*
X94493D01*
X92720Y64410D02*
X94519D01*
X92799Y64358D02*
X94597D01*
X92825Y64332D02*
X94649D01*
X92877Y64306D02*
X94675D01*
X92747Y64384D02*
X94571D01*
X98116Y63289D02*
X99576D01*
X98116Y63263D02*
X99550D01*
X98090Y63237D02*
X99524D01*
X98064Y63211D02*
X99498D01*
X98038Y63185D02*
X99472D01*
X98012Y63133D02*
X99446D01*
X98012Y63159D02*
X99472D01*
X98142Y63315D02*
X99576D01*
X90661Y67173D02*
X90791D01*
X90661Y67147D02*
X90817D01*
X90661Y67121D02*
X90817D01*
X90661Y67095D02*
X90896D01*
X90661Y67069D02*
X90922D01*
X90661Y67043D02*
X90948D01*
X90661Y67017D02*
X90974D01*
X90661Y66991D02*
X91026D01*
X90661Y67199D02*
X90739D01*
X95014Y62716D02*
X96839D01*
X95066Y62690D02*
X96865D01*
X95092Y62664D02*
X96917D01*
X95119Y62638D02*
X96943D01*
X95171Y62612D02*
X96969D01*
X95197Y62586D02*
X97022D01*
X95249Y62559D02*
X97048D01*
X95275Y62533D02*
X97074D01*
X95301Y62507D02*
X97126D01*
X95353Y62481D02*
X97178D01*
X95379Y62455D02*
X97178D01*
X95405Y62429D02*
X97230D01*
X95431Y62403D02*
X97282D01*
X90687Y65922D02*
X92486D01*
X90713Y65896D02*
X92512D01*
X90739Y65870D02*
X92538D01*
X90765Y65844D02*
X92590D01*
X90817Y65818D02*
X92616D01*
X90844Y65792D02*
X92642D01*
X90896Y65766D02*
X92694D01*
X90922Y65740D02*
X92720D01*
X90974Y65714D02*
X92773D01*
X91026Y65661D02*
X92825D01*
X91052Y65635D02*
X92877D01*
X91000Y65688D02*
X92799D01*
X91104Y65609D02*
X92903D01*
X91130Y65583D02*
X92929D01*
X91156Y65557D02*
X92955D01*
X91208Y65531D02*
X93007D01*
X91235Y65505D02*
X93033D01*
X91261Y65479D02*
X93085D01*
X91313Y65453D02*
X93111D01*
X91391Y65401D02*
X93190D01*
X91417Y65375D02*
X93216D01*
X91443Y65349D02*
X93242D01*
X91469Y65323D02*
X93294D01*
X91339Y65427D02*
X93164D01*
X91547Y65297D02*
X93320D01*
X91547Y65270D02*
X93372D01*
X90661Y66052D02*
X92303D01*
X90661Y66000D02*
X92382D01*
X90661Y65974D02*
X92408D01*
X90661Y65948D02*
X92460D01*
X90661Y66026D02*
X92329D01*
X90661Y66782D02*
X91313D01*
X90661Y66756D02*
X91339D01*
X90661Y66730D02*
X91365D01*
X90661Y66704D02*
X91417D01*
X90661Y66678D02*
X91443D01*
X90661Y66652D02*
X91495D01*
X90661Y66626D02*
X91521D01*
X90661Y66600D02*
X91547D01*
X90661Y66574D02*
X91600D01*
X90661Y66548D02*
X91626D01*
X90661Y66522D02*
X91652D01*
X90661Y66470D02*
X91756D01*
X90661Y66443D02*
X91756D01*
X90661Y66417D02*
X91808D01*
X90661Y66496D02*
X91678D01*
X90661Y66391D02*
X91834D01*
X90661Y66365D02*
X91886D01*
X90661Y66339D02*
X91912D01*
X90661Y66313D02*
X91938D01*
X90661Y66287D02*
X91965D01*
X90661Y66261D02*
X92043D01*
X90661Y66235D02*
X92069D01*
X90661Y66209D02*
X92069D01*
X90661Y66183D02*
X92121D01*
X90661Y66157D02*
X92173D01*
X90661Y66131D02*
X92199D01*
X90661Y66105D02*
X92225D01*
X90661Y66079D02*
X92251D01*
X100749Y67017D02*
X102052D01*
X100749Y66991D02*
X102052D01*
X100775Y66965D02*
X102052D01*
X100775Y66939D02*
X102078D01*
X100775Y66913D02*
X102078D01*
X100801Y66887D02*
X102078D01*
X100801Y66861D02*
X102078D01*
X100801Y66834D02*
X102078D01*
X100827Y66808D02*
X102104D01*
X100827Y66756D02*
X102104D01*
X100827Y66730D02*
X102131D01*
X100827Y66782D02*
X102104D01*
X100827Y66704D02*
X102131D01*
X90661Y66808D02*
X91261D01*
X90661Y66939D02*
X91104D01*
X90661Y66913D02*
X91130D01*
X90661Y66887D02*
X91183D01*
X90661Y66861D02*
X91208D01*
X90661Y66834D02*
X91235D01*
X90661Y66965D02*
X91052D01*
X100697Y67199D02*
X101974D01*
X100697Y67173D02*
X101974D01*
X100723Y67147D02*
X102000D01*
X100723Y67095D02*
X102026D01*
X100723Y67069D02*
X102026D01*
X100723Y67043D02*
X102026D01*
X100723Y67121D02*
X102000D01*
X86803Y59510D02*
X88211D01*
X86829Y59483D02*
X88237D01*
X86855Y59457D02*
X88289D01*
X86855Y59431D02*
X88315D01*
X86881Y59405D02*
X88315D01*
X86908Y59379D02*
X88341D01*
X86960Y59353D02*
X88367D01*
X86960Y59327D02*
X88393D01*
X86986Y59301D02*
X88419D01*
X87038Y59249D02*
X88472D01*
X87064Y59223D02*
X88498D01*
X87012Y59275D02*
X88445D01*
X87090Y59197D02*
X88524D01*
X87377Y58884D02*
X88810D01*
X87116Y59171D02*
X88524D01*
X87142Y59145D02*
X88576D01*
X87168Y59119D02*
X88602D01*
X87194Y59092D02*
X88628D01*
X87194Y59066D02*
X88628D01*
X87220Y59040D02*
X88680D01*
X87272Y59014D02*
X88706D01*
X87272Y58988D02*
X88732D01*
X87325Y58936D02*
X88758D01*
X87377Y58910D02*
X88784D01*
X87299Y58962D02*
X88732D01*
X87403Y58858D02*
X88836D01*
X87768Y58467D02*
X89201D01*
X87794Y58441D02*
X89227D01*
X87820Y58415D02*
X89253D01*
X87846Y58389D02*
X89280D01*
X87872Y58363D02*
X89306D01*
X87898Y58337D02*
X89332D01*
X87898Y58311D02*
X89358D01*
X87950Y58284D02*
X89358D01*
X87976Y58258D02*
X89384D01*
X88002Y58232D02*
X89410D01*
X88002Y58206D02*
X89462D01*
X88054Y58154D02*
X89488D01*
X88081Y58128D02*
X89514D01*
X88107Y58102D02*
X89540D01*
X88054Y58180D02*
X89462D01*
X86595Y59744D02*
X88002D01*
X86595Y59718D02*
X88028D01*
X86621Y59692D02*
X88054D01*
X86647Y59666D02*
X88081D01*
X86673Y59640D02*
X88107D01*
X86725Y59588D02*
X88133D01*
X86751Y59562D02*
X88185D01*
X86777Y59536D02*
X88211D01*
X86699Y59614D02*
X88133D01*
X87742Y58493D02*
X89175D01*
X87455Y58806D02*
X88889D01*
X87481Y58780D02*
X88915D01*
X87481Y58754D02*
X88941D01*
X87533Y58728D02*
X88967D01*
X87559Y58701D02*
X88993D01*
X87585Y58675D02*
X88993D01*
X87585Y58649D02*
X89019D01*
X87611Y58623D02*
X89045D01*
X87663Y58597D02*
X89071D01*
X87690Y58571D02*
X89097D01*
X87690Y58545D02*
X89123D01*
X87716Y58519D02*
X89149D01*
X87429Y58832D02*
X88863D01*
X88133Y58076D02*
X89566D01*
X88159Y58050D02*
X89592D01*
X88185Y58024D02*
X89618D01*
X88211Y57998D02*
X89644D01*
X100228Y58884D02*
X102052D01*
X100045Y59014D02*
X101870D01*
X100097Y58988D02*
X101896D01*
X100097Y58962D02*
X101922D01*
X100150Y58936D02*
X101974D01*
X100202Y58910D02*
X102000D01*
X100254Y58858D02*
X102078D01*
X100280Y58832D02*
X102131D01*
X100436Y58728D02*
X102261D01*
X100514Y58675D02*
X102313D01*
X100540Y58649D02*
X102365D01*
X100567Y58623D02*
X102417D01*
X100619Y58597D02*
X102443D01*
X100645Y58571D02*
X102470D01*
X99863Y59145D02*
X101688D01*
X99941Y59092D02*
X101766D01*
X99967Y59066D02*
X101792D01*
X99993Y59040D02*
X101844D01*
X99915Y59119D02*
X101740D01*
X100332Y58806D02*
X102157D01*
X100358Y58780D02*
X102183D01*
X100410Y58754D02*
X102209D01*
X101766Y57763D02*
X103564D01*
X99654Y59301D02*
X101479D01*
X99680Y59275D02*
X101505D01*
X99732Y59249D02*
X101557D01*
X99785Y59223D02*
X101583D01*
X99785Y59197D02*
X101609D01*
X99837Y59171D02*
X101661D01*
X99628Y59327D02*
X101453D01*
X96578Y61439D02*
X98585D01*
X96578Y61413D02*
X98612D01*
X96552Y61386D02*
X98638D01*
X96552Y61360D02*
X98690D01*
X96500Y61334D02*
X98716D01*
X96474Y61308D02*
X98742D01*
X96474Y61282D02*
X98794D01*
X96448Y61256D02*
X98820D01*
X96422Y61230D02*
X98872D01*
X96370Y61178D02*
X98924D01*
X96344Y61152D02*
X98950D01*
X96396Y61204D02*
X98898D01*
X96344Y61126D02*
X99003D01*
X96213Y60969D02*
X99211D01*
X96318Y61100D02*
X99055D01*
X96292Y61074D02*
X99055D01*
X96266Y61048D02*
X99081D01*
X96240Y61022D02*
X99159D01*
X96240Y60995D02*
X99185D01*
X96187Y60943D02*
X99237D01*
X96161Y60917D02*
X99289D01*
X96135Y60891D02*
X99315D01*
X96135Y60865D02*
X99341D01*
X96083Y60813D02*
X97491D01*
X96057Y60787D02*
X97491D01*
X96109Y60839D02*
X97543D01*
X96031Y60761D02*
X97491D01*
X96031Y60735D02*
X97465D01*
X95979Y60709D02*
X97413D01*
X95953Y60683D02*
X97386D01*
X95953Y60656D02*
X97386D01*
X95927Y60631D02*
X97360D01*
X95901Y60604D02*
X97334D01*
X95875Y60578D02*
X97308D01*
X95849Y60552D02*
X97282D01*
X95849Y60526D02*
X97282D01*
X95796Y60474D02*
X97230D01*
X95770Y60448D02*
X97204D01*
X95822Y60500D02*
X97256D01*
X95744Y60422D02*
X97178D01*
X95119Y59666D02*
X96552D01*
X95092Y59640D02*
X96552D01*
X95092Y59614D02*
X96526D01*
X95066Y59588D02*
X96500D01*
X95040Y59562D02*
X96474D01*
X95014Y59536D02*
X96448D01*
X94988Y59510D02*
X96448D01*
X94988Y59483D02*
X96422D01*
X94936Y59457D02*
X96396D01*
X94910Y59405D02*
X96344D01*
X94884Y59379D02*
X96344D01*
X94910Y59431D02*
X96370D01*
X94858Y59353D02*
X96318D01*
X94832Y59327D02*
X96266D01*
X94832Y59301D02*
X96240D01*
X94806Y59275D02*
X96240D01*
X94780Y59249D02*
X96213D01*
X94754Y59223D02*
X96187D01*
X94728Y59197D02*
X96161D01*
X94701Y59171D02*
X96135D01*
X94675Y59145D02*
X96135D01*
X94675Y59119D02*
X96109D01*
X94623Y59066D02*
X96057D01*
X94597Y59040D02*
X96031D01*
X94649Y59092D02*
X96083D01*
X94571Y59014D02*
X96031D01*
X94571Y58988D02*
X96005D01*
X94545Y58962D02*
X95979D01*
X94519Y58936D02*
X95953D01*
X94493Y58910D02*
X95927D01*
X94467Y58858D02*
X95901D01*
X94415Y58832D02*
X95875D01*
X94389Y58806D02*
X95822D01*
X94389Y58780D02*
X95822D01*
X94363Y58754D02*
X95822D01*
X94310Y58701D02*
X95744D01*
X94310Y58675D02*
X95718D01*
X94337Y58728D02*
X95796D01*
X94284Y58649D02*
X95718D01*
X94258Y58623D02*
X95718D01*
X94232Y58597D02*
X95666D01*
X94232Y58571D02*
X95640D01*
X94180Y58545D02*
X95640D01*
X94154Y58519D02*
X95614D01*
X94154Y58493D02*
X95588D01*
X94128Y58467D02*
X95562D01*
X94102Y58441D02*
X95536D01*
X94076Y58415D02*
X95510D01*
X94050Y58389D02*
X95510D01*
X94050Y58363D02*
X95483D01*
X94024Y58337D02*
X95458D01*
X93998Y58311D02*
X95431D01*
Y60031D02*
X96865D01*
X95405Y60005D02*
X96865D01*
X95379Y59979D02*
X96839D01*
X95353Y59953D02*
X96787D01*
X95353Y59927D02*
X96761D01*
X95327Y59901D02*
X96761D01*
X95301Y59874D02*
X96735D01*
X95275Y59848D02*
X96709D01*
X95249Y59822D02*
X96683D01*
X95223Y59796D02*
X96657D01*
X95197Y59744D02*
X96631D01*
X95171Y59718D02*
X96604D01*
X95145Y59692D02*
X96578D01*
X95197Y59770D02*
X96657D01*
X95431Y60057D02*
X96891D01*
X95718Y60370D02*
X97152D01*
X95692Y60344D02*
X97126D01*
X95666Y60318D02*
X97100D01*
X95640Y60292D02*
X97074D01*
X95614Y60265D02*
X97074D01*
X95614Y60239D02*
X97048D01*
X95588Y60213D02*
X97022D01*
X95562Y60187D02*
X96995D01*
X95536Y60161D02*
X96969D01*
X95510Y60135D02*
X96969D01*
X95510Y60109D02*
X96943D01*
X95458Y60083D02*
X96917D01*
X95718Y60396D02*
X97178D01*
X102391Y61673D02*
X103669D01*
X102391Y61647D02*
X103695D01*
X102391Y61621D02*
X103695D01*
X102391Y61595D02*
X103721D01*
X102417Y61569D02*
X103721D01*
X102417Y61543D02*
X103721D01*
X102417Y61517D02*
X103747D01*
X102443Y61491D02*
X103747D01*
X102470Y61439D02*
X103747D01*
X102443Y61465D02*
X103747D01*
X102470Y61413D02*
X103747D01*
X102391Y61699D02*
X103669D01*
X100488Y58701D02*
X102287D01*
X102365Y61751D02*
X103669D01*
X102365Y61725D02*
X103669D01*
X102365Y61777D02*
X103642D01*
X96292D02*
X98325D01*
X96344Y61751D02*
X98299D01*
X96370Y61725D02*
X98273D01*
X96396Y61699D02*
X98247D01*
X96448Y61673D02*
X98247D01*
X96474Y61647D02*
X98299D01*
X96526Y61621D02*
X98325D01*
X96552Y61595D02*
X98351D01*
X96578Y61569D02*
X98403D01*
X96657Y61517D02*
X98481D01*
X96657Y61491D02*
X98507D01*
X96631Y61465D02*
X98533D01*
X96631Y61543D02*
X98429D01*
X104242Y55912D02*
X105441D01*
X104294Y55886D02*
X105467D01*
X104320Y55860D02*
X105467D01*
X104372Y55834D02*
X105467D01*
X104372Y55808D02*
X105467D01*
X104451Y55782D02*
X105493D01*
X104477Y55756D02*
X105493D01*
X104503Y55730D02*
X105519D01*
X104529Y55704D02*
X105519D01*
X104607Y55652D02*
X105519D01*
X104633Y55626D02*
X105519D01*
X104581Y55678D02*
X105519D01*
X104685Y55599D02*
X105519D01*
X105180Y55235D02*
X105624D01*
X104711Y55573D02*
X105545D01*
X104763Y55547D02*
X105545D01*
X104789Y55521D02*
X105571D01*
X104815Y55495D02*
X105571D01*
X104868Y55469D02*
X105571D01*
X104894Y55443D02*
X105571D01*
X104920Y55417D02*
X105597D01*
X104946Y55391D02*
X105597D01*
X105050Y55339D02*
X105624D01*
X105076Y55313D02*
X105624D01*
X105102Y55287D02*
X105624D01*
X104998Y55365D02*
X105624D01*
X105154Y55261D02*
X105624D01*
X103799Y56251D02*
X105337D01*
X103825Y56225D02*
X105363D01*
X103877Y56199D02*
X105363D01*
X103903Y56173D02*
X105363D01*
X103929Y56147D02*
X105389D01*
X103955Y56121D02*
X105389D01*
X104007Y56095D02*
X105389D01*
X104060Y56069D02*
X105415D01*
X104060Y56043D02*
X105415D01*
X104164Y55990D02*
X105415D01*
X104190Y55964D02*
X105415D01*
X104112Y56017D02*
X105415D01*
X104216Y55938D02*
X105441D01*
X103121Y59249D02*
X104451D01*
X103121Y59223D02*
X104451D01*
X103121Y59197D02*
X104451D01*
X103147Y59171D02*
X104451D01*
X103147Y59145D02*
X104477D01*
X103173Y59119D02*
X104477D01*
X103173Y59092D02*
X104477D01*
X103199Y59066D02*
X104477D01*
X103199Y59040D02*
X104503D01*
X103225Y58988D02*
X104503D01*
X103225Y58962D02*
X104503D01*
X103199Y59014D02*
X104503D01*
X103225Y58936D02*
X104529D01*
X103225Y58884D02*
X104555D01*
X103225Y58910D02*
X104529D01*
X103252Y58858D02*
X104555D01*
X103252Y58832D02*
X104581D01*
X103252Y58806D02*
X104581D01*
X103278Y58780D02*
X104581D01*
X103278Y58754D02*
X104581D01*
X103278Y58728D02*
X104581D01*
X103304Y58701D02*
X104607D01*
X103304Y58675D02*
X104607D01*
X103330Y58623D02*
X104633D01*
X103330Y58597D02*
X104633D01*
X103304Y58649D02*
X104607D01*
X103330Y58571D02*
X104633D01*
X103330Y58545D02*
X104659D01*
X100671D02*
X102496D01*
X103356Y58519D02*
X104659D01*
X100723D02*
X102548D01*
X103356Y58493D02*
X104685D01*
X100749D02*
X102600D01*
X103356Y58467D02*
X104685D01*
X100801D02*
X102600D01*
X103382Y58441D02*
X104685D01*
X103382Y58415D02*
X104685D01*
X100853D02*
X102704D01*
X100827Y58441D02*
X102652D01*
X100906Y58389D02*
X102730D01*
X103408D02*
X104685D01*
X103408Y58363D02*
X104685D01*
X100932D02*
X102756D01*
X103408Y58337D02*
X104711D01*
X100958D02*
X102782D01*
X103434Y58311D02*
X104711D01*
X100984D02*
X102834D01*
X103434Y58284D02*
X104737D01*
X101036D02*
X102860D01*
X103434Y58258D02*
X104737D01*
X103434Y58232D02*
X104737D01*
X101062Y58258D02*
X102913D01*
X101114Y58232D02*
X102913D01*
X103434Y58206D02*
X104763D01*
X101140D02*
X102991D01*
X103460Y58180D02*
X104763D01*
X101192D02*
X103017D01*
X103460Y58154D02*
X104789D01*
X101218D02*
X103043D01*
X103460Y58128D02*
X104789D01*
X101244D02*
X103069D01*
X103486Y58102D02*
X104789D01*
X103486Y58076D02*
X104789D01*
X101349D02*
X103147D01*
X101270Y58102D02*
X103121D01*
X103486Y58050D02*
X104789D01*
X101349D02*
X103173D01*
X103512Y58024D02*
X104789D01*
X101375D02*
X103225D01*
X103512Y57998D02*
X104815D01*
X101427D02*
X103252D01*
X103538Y57972D02*
X104815D01*
X101453D02*
X103304D01*
X103538Y57946D02*
X104842D01*
X101505D02*
X103330D01*
X103538Y57920D02*
X104842D01*
X103538Y57893D02*
X104842D01*
X101531Y57920D02*
X103356D01*
X101557Y57893D02*
X103408D01*
X103538Y57867D02*
X104868D01*
X101609D02*
X103434D01*
X103564Y57841D02*
X104868D01*
X101635D02*
X103460D01*
X103564Y57815D02*
X104894D01*
X101661D02*
X103486D01*
X103564Y57789D02*
X104894D01*
X101688D02*
X103538D01*
X103590Y57763D02*
X104894D01*
X101792Y57711D02*
X104894D01*
X101844Y57685D02*
X104920D01*
X101766Y57737D02*
X104894D01*
X101896Y57659D02*
X104920D01*
X101922Y57633D02*
X104920D01*
X101974Y57607D02*
X104946D01*
X101974Y57581D02*
X104946D01*
X102026Y57555D02*
X104972D01*
X102078Y57529D02*
X104972D01*
X102078Y57502D02*
X104972D01*
X102131Y57476D02*
X104998D01*
X102183Y57450D02*
X104998D01*
X102209Y57424D02*
X104998D01*
X102261Y57372D02*
X104998D01*
X102313Y57346D02*
X104998D01*
X102235Y57398D02*
X104998D01*
X102339Y57320D02*
X105024D01*
X102391Y57294D02*
X105024D01*
X102391Y57268D02*
X105050D01*
X102470Y57242D02*
X105050D01*
X102496Y57216D02*
X105050D01*
X102522Y57190D02*
X105076D01*
X102548Y57164D02*
X105076D01*
X102600Y57138D02*
X105102D01*
X102626Y57111D02*
X105102D01*
X102652Y57085D02*
X105102D01*
X102730Y57033D02*
X105102D01*
X102782Y57007D02*
X105128D01*
X102704Y57059D02*
X105102D01*
X102808Y56981D02*
X105128D01*
X103043Y56799D02*
X105180D01*
X102834Y56955D02*
X105128D01*
X102886Y56929D02*
X105154D01*
X102913Y56903D02*
X105154D01*
X102939Y56877D02*
X105154D01*
X102965Y56851D02*
X105180D01*
X103017Y56825D02*
X105180D01*
X103095Y56773D02*
X105207D01*
X103121Y56747D02*
X105207D01*
X103173Y56720D02*
X105207D01*
X103225Y56668D02*
X105233D01*
X103252Y56642D02*
X105233D01*
X103199Y56694D02*
X105207D01*
X103304Y56616D02*
X105233D01*
X103330Y56590D02*
X105259D01*
X103356Y56564D02*
X105259D01*
X103408Y56538D02*
X105259D01*
X103434Y56512D02*
X105285D01*
X103486Y56486D02*
X105285D01*
X103512Y56460D02*
X105285D01*
X103538Y56434D02*
X105311D01*
X103590Y56408D02*
X105311D01*
X103642Y56356D02*
X105311D01*
X103669Y56329D02*
X105311D01*
X103747Y56303D02*
X105337D01*
X103642Y56381D02*
X105311D01*
X103747Y56277D02*
X105337D01*
X103017Y59666D02*
X104294D01*
X103017Y59640D02*
X104320D01*
X103017Y59614D02*
X104320D01*
X102991Y59692D02*
X104294D01*
X105207Y55208D02*
X105650D01*
X105233Y55182D02*
X105650D01*
X105311Y55156D02*
X105676D01*
X105311Y55130D02*
X105676D01*
X105337Y55104D02*
X105676D01*
X105389Y55078D02*
X105702D01*
X105441Y55052D02*
X105702D01*
X105467Y55026D02*
X105702D01*
X105493Y55000D02*
X105728D01*
X105519Y54974D02*
X105728D01*
X105571Y54948D02*
X105728D01*
X105624Y54896D02*
X105728D01*
X105597Y54922D02*
X105728D01*
X105650Y54870D02*
X105728D01*
X89671Y60656D02*
X91208D01*
X99003Y64332D02*
X99915D01*
X98976Y64306D02*
X99915D01*
X98950Y64280D02*
X99941D01*
X98950Y64254D02*
X99941D01*
X98924Y64228D02*
X99941D01*
X98898Y64202D02*
X99967D01*
X98872Y64176D02*
X99967D01*
X98846Y64149D02*
X99967D01*
X98820Y64123D02*
X99993D01*
X98768Y64071D02*
X99993D01*
X98768Y64045D02*
X99993D01*
X98820Y64097D02*
X99993D01*
X98742Y64019D02*
X99993D01*
X98742Y63993D02*
X100019D01*
X98690Y63967D02*
X100019D01*
X98664Y63941D02*
X100019D01*
X98638Y63915D02*
X100045D01*
X98638Y63889D02*
X100045D01*
X98612Y63863D02*
X100045D01*
X98585Y63837D02*
X100019D01*
X98559Y63811D02*
X99993D01*
X98533Y63785D02*
X99993D01*
X98507Y63732D02*
X99941D01*
X98481Y63706D02*
X99915D01*
X98533Y63758D02*
X99967D01*
X98455Y63680D02*
X99889D01*
X98429Y63654D02*
X99889D01*
X98429Y63628D02*
X99863D01*
X98403Y63602D02*
X99837D01*
X98377Y63576D02*
X99811D01*
X98351Y63550D02*
X99785D01*
X98325Y63524D02*
X99758D01*
X98299Y63472D02*
X99732D01*
X98247Y63446D02*
X99706D01*
X98247Y63420D02*
X99680D01*
X98221Y63394D02*
X99654D01*
X98221Y63367D02*
X99628D01*
X98325Y63498D02*
X99758D01*
X98168Y63341D02*
X99628D01*
X97934Y63055D02*
X99367D01*
X97960Y63081D02*
X99394D01*
X97908Y63029D02*
X99367D01*
X97908Y63003D02*
X99341D01*
X97882Y62976D02*
X99315D01*
X97830Y62924D02*
X99263D01*
X97803Y62898D02*
X99237D01*
X97856Y62950D02*
X99289D01*
X97986Y63107D02*
X99420D01*
X97803Y62872D02*
X99237D01*
X97386Y62403D02*
X98846D01*
X97386Y62377D02*
X98820D01*
X97360Y62351D02*
X98794D01*
X95562Y62325D02*
X98768D01*
X95588Y62299D02*
X98742D01*
X95640Y62273D02*
X98742D01*
X95666Y62247D02*
X98716D01*
X95692Y62221D02*
X98690D01*
X95718Y62195D02*
X98664D01*
X95796Y62168D02*
X98638D01*
X95510Y62377D02*
X97308D01*
X95510Y62351D02*
X97334D01*
X95822Y62142D02*
X98612D01*
X102157Y62403D02*
X103460D01*
X102183Y62377D02*
X103460D01*
X102183Y62351D02*
X103486D01*
X102183Y62325D02*
X103486D01*
X102183Y62299D02*
X103486D01*
X102183Y62273D02*
X103512D01*
X102209Y62247D02*
X103512D01*
X102209Y62195D02*
X103538D01*
X102235Y62168D02*
X103538D01*
X102209Y62221D02*
X103512D01*
X102235Y62142D02*
X103538D01*
X96240Y61830D02*
X98351D01*
X96240Y61804D02*
X98325D01*
X102287Y62064D02*
X103564D01*
X102287Y62038D02*
X103564D01*
X102287Y62012D02*
X103590D01*
X102287Y61986D02*
X103590D01*
X102287Y61960D02*
X103590D01*
X102287Y61934D02*
X103616D01*
X102313Y61882D02*
X103616D01*
X102339Y61856D02*
X103642D01*
X102339Y61830D02*
X103642D01*
X102313Y61908D02*
X103616D01*
X102339Y61804D02*
X103642D01*
X101505Y64514D02*
X102808D01*
X101531Y64488D02*
X102808D01*
X101531Y64462D02*
X102808D01*
X101557Y64436D02*
X102834D01*
X101557Y64410D02*
X102834D01*
X101557Y64384D02*
X102860D01*
X101557Y64358D02*
X102860D01*
X101557Y64332D02*
X102860D01*
X101557Y64306D02*
X102886D01*
X101583Y64280D02*
X102886D01*
X101583Y64254D02*
X102886D01*
X101609Y64228D02*
X102913D01*
X101609Y64202D02*
X102913D01*
X101609Y64176D02*
X102913D01*
X101635Y64149D02*
X102913D01*
X101635Y64123D02*
X102913D01*
X101635Y64097D02*
X102939D01*
X101661Y64071D02*
X102939D01*
X101661Y64045D02*
X102939D01*
X101661Y64019D02*
X102965D01*
X101661Y63993D02*
X102965D01*
X101688Y63967D02*
X102991D01*
X101688Y63941D02*
X102991D01*
X101688Y63915D02*
X102991D01*
X101714Y63889D02*
X103017D01*
X101714Y63863D02*
X103017D01*
X101740Y63837D02*
X103017D01*
X101740Y63811D02*
X103017D01*
X101740Y63785D02*
X103017D01*
X101740Y63758D02*
X103043D01*
X101766Y63732D02*
X103043D01*
X101766Y63706D02*
X103043D01*
X101766Y63680D02*
X103069D01*
X101766Y63654D02*
X103069D01*
X101792Y63628D02*
X103095D01*
X101792Y63576D02*
X103095D01*
X101818Y63550D02*
X103121D01*
X101792Y63602D02*
X103095D01*
X101818Y63524D02*
X103121D01*
X99159Y64514D02*
X99863D01*
X99133Y64488D02*
X99889D01*
X99107Y64462D02*
X99889D01*
X99055Y64410D02*
X99889D01*
X99055Y64384D02*
X99889D01*
X99029Y64358D02*
X99915D01*
X99081Y64436D02*
X99889D01*
X97777Y62846D02*
X99211D01*
X97725Y62820D02*
X99185D01*
X97725Y62794D02*
X99159D01*
X97699Y62768D02*
X99133D01*
X102052Y62794D02*
X103330D01*
X102052Y62768D02*
X103330D01*
X101818Y63498D02*
X103121D01*
X101844Y63472D02*
X103121D01*
X101844Y63446D02*
X103147D01*
X101844Y63420D02*
X103147D01*
X101870Y63394D02*
X103147D01*
X101870Y63367D02*
X103173D01*
X101870Y63341D02*
X103173D01*
X101870Y63315D02*
X103173D01*
X101896Y63289D02*
X103199D01*
X101896Y63237D02*
X103199D01*
X101922Y63211D02*
X103225D01*
X101896Y63263D02*
X103199D01*
X101922Y63185D02*
X103225D01*
X101974Y63055D02*
X103252D01*
X101922Y63159D02*
X103225D01*
X101948Y63133D02*
X103225D01*
X101948Y63107D02*
X103225D01*
X101974Y63081D02*
X103252D01*
X101974Y63029D02*
X103278D01*
X101974Y63003D02*
X103278D01*
X101974Y62976D02*
X103278D01*
X101974Y62950D02*
X103304D01*
X102000Y62924D02*
X103304D01*
X102000Y62872D02*
X103330D01*
X102026Y62846D02*
X103330D01*
X102000Y62898D02*
X103304D01*
X102026Y62820D02*
X103330D01*
X97517Y62559D02*
X98950D01*
X97517Y62533D02*
X98950D01*
X97491Y62507D02*
X98924D01*
X97465Y62481D02*
X98898D01*
X97439Y62455D02*
X98872D01*
X97413Y62429D02*
X98846D01*
X102157D02*
X103434D01*
X102157Y62455D02*
X103434D01*
X95822Y62116D02*
X98612D01*
X95875Y62090D02*
X98585D01*
X95927Y62064D02*
X98533D01*
X95953Y62038D02*
X98533D01*
X95979Y62012D02*
X98507D01*
X96031Y61986D02*
X98507D01*
X96057Y61960D02*
X98455D01*
X96083Y61934D02*
X98429D01*
X96135Y61908D02*
X98429D01*
X96135Y61882D02*
X98403D01*
X96213Y61856D02*
X98377D01*
X102261Y62090D02*
X103538D01*
X102261Y62116D02*
X103538D01*
X99159Y59666D02*
X101010D01*
X99211Y59640D02*
X101036D01*
X99237Y59614D02*
X101036D01*
X99263Y59588D02*
X101088D01*
X99289Y59562D02*
X101140D01*
X99367Y59536D02*
X101166D01*
X99367Y59510D02*
X101192D01*
X99394Y59483D02*
X101218D01*
X99446Y59457D02*
X101270D01*
X99472Y59431D02*
X101296D01*
X103017Y59562D02*
X104346D01*
X103017Y59588D02*
X104320D01*
X99524Y59405D02*
X101349D01*
X99550Y59379D02*
X101375D01*
X99576Y59353D02*
X101427D01*
X103043Y59536D02*
X104346D01*
X103043Y59510D02*
X104346D01*
X103043Y59483D02*
X104372D01*
X103069Y59457D02*
X104372D01*
X103069Y59431D02*
X104372D01*
X103069Y59405D02*
X104372D01*
X103095Y59379D02*
X104398D01*
X103121Y59327D02*
X104398D01*
X103121Y59301D02*
X104425D01*
X103095Y59353D02*
X104398D01*
X103121Y59275D02*
X104425D01*
X97986Y60526D02*
X99785D01*
X98038Y60500D02*
X99863D01*
X98090Y60474D02*
X99889D01*
X98116Y60448D02*
X99915D01*
X98116Y60422D02*
X99941D01*
X98168Y60396D02*
X99993D01*
X98221Y60370D02*
X100019D01*
X98247Y60344D02*
X100071D01*
X98273Y60318D02*
X100097D01*
X98351Y60265D02*
X100176D01*
X98377Y60239D02*
X100202D01*
X98325Y60292D02*
X100150D01*
X98429Y60213D02*
X100228D01*
X98455Y60187D02*
X100280D01*
X98507Y60161D02*
X100306D01*
X98533Y60135D02*
X100332D01*
X98559Y60109D02*
X100384D01*
X98585Y60083D02*
X100410D01*
X98638Y60057D02*
X100462D01*
X98664Y60031D02*
X100488D01*
X98690Y60005D02*
X100514D01*
X98742Y59979D02*
X100567D01*
X98768Y59953D02*
X100593D01*
X102913Y60005D02*
X104190D01*
X102886Y60031D02*
X104190D01*
X98820Y59927D02*
X100619D01*
X102913Y59979D02*
X104216D01*
X102913Y59953D02*
X104216D01*
X102913Y59927D02*
X104216D01*
X102913Y59901D02*
X104242D01*
X102939Y59874D02*
X104242D01*
X102939Y59848D02*
X104242D01*
X102939Y59822D02*
X104268D01*
X102965Y59770D02*
X104268D01*
X102965Y59744D02*
X104268D01*
X102965Y59796D02*
X104268D01*
X102991Y59718D02*
X104268D01*
X102600Y60969D02*
X103903D01*
X102574Y61074D02*
X103851D01*
X102574Y61048D02*
X103877D01*
X102600Y61022D02*
X103877D01*
X102600Y60995D02*
X103903D01*
X102600Y60943D02*
X103903D01*
X102626Y60917D02*
X103929D01*
X102626Y60891D02*
X103929D01*
X102626Y60865D02*
X103955D01*
X102626Y60839D02*
X103955D01*
X102652Y60787D02*
X103955D01*
X102678Y60761D02*
X103955D01*
X102652Y60813D02*
X103955D01*
X102678Y60735D02*
X103955D01*
X102678Y60709D02*
X103981D01*
X102704Y60683D02*
X103981D01*
X102704Y60656D02*
X104007D01*
X102704Y60631D02*
X104007D01*
X102704Y60604D02*
X104007D01*
X102704Y60578D02*
X104034D01*
X102730Y60552D02*
X104034D01*
X102730Y60526D02*
X104034D01*
X102730Y60500D02*
X104060D01*
X102756Y60448D02*
X104060D01*
X102756Y60422D02*
X104060D01*
X102756Y60474D02*
X104060D01*
X102782Y60396D02*
X104086D01*
X102808Y60370D02*
X104086D01*
X102808Y60344D02*
X104086D01*
X102808Y60318D02*
X104112D01*
X102808Y60292D02*
X104112D01*
X102808Y60265D02*
X104112D01*
X102808Y60239D02*
X104138D01*
X102834Y60213D02*
X104138D01*
X102834Y60187D02*
X104164D01*
X102834Y60161D02*
X104164D01*
X102860Y60109D02*
X104164D01*
X102886Y60083D02*
X104164D01*
X102860Y60135D02*
X104164D01*
X102886Y60057D02*
X104164D01*
X97803Y60683D02*
X99602D01*
X97803Y60656D02*
X99628D01*
X97882Y60604D02*
X99706D01*
X97934Y60578D02*
X99758D01*
X97960Y60552D02*
X99785D01*
X97856Y60631D02*
X99654D01*
X98846Y59901D02*
X100645D01*
X98872Y59874D02*
X100723D01*
X98924Y59848D02*
X100723D01*
X98950Y59822D02*
X100775D01*
X98976Y59796D02*
X100801D01*
X99055Y59744D02*
X100879D01*
X99081Y59718D02*
X100906D01*
X99133Y59692D02*
X100932D01*
X99029Y59770D02*
X100853D01*
X102470Y61386D02*
X103773D01*
X102496Y61360D02*
X103773D01*
X102496Y61334D02*
X103799D01*
X102496Y61308D02*
X103799D01*
X102496Y61282D02*
X103799D01*
X102496Y61256D02*
X103825D01*
X102522Y61230D02*
X103825D01*
X102522Y61204D02*
X103851D01*
X102548Y61152D02*
X103851D01*
X102548Y61126D02*
X103851D01*
X102574Y61100D02*
X103851D01*
X102522Y61178D02*
X103851D01*
X102078Y62742D02*
X103356D01*
X102078Y62716D02*
X103356D01*
X102078Y62690D02*
X103382D01*
X102078Y62664D02*
X103382D01*
X102078Y62638D02*
X103382D01*
X102078Y62612D02*
X103408D01*
X102104Y62586D02*
X103408D01*
X102131Y62533D02*
X103434D01*
X102131Y62507D02*
X103434D01*
X102104Y62559D02*
X103408D01*
X102131Y62481D02*
X103434D01*
X97569Y60839D02*
X99367D01*
X97621Y60813D02*
X99446D01*
X97647Y60787D02*
X99472D01*
X97699Y60761D02*
X99472D01*
X97699Y60735D02*
X99524D01*
X97751Y60709D02*
X99576D01*
X97699Y62742D02*
X99133D01*
X97647Y62716D02*
X99107D01*
X97621Y62690D02*
X99055D01*
X97595Y62664D02*
X99055D01*
X97595Y62638D02*
X99029D01*
X97569Y62612D02*
X99029D01*
X97543Y62586D02*
X98976D01*
M02*
