M48
;Layer_Color=9474304
;FILE_FORMAT=2:5
INCH,LZ
;TYPE=PLATED
T1F00S00C0.01181
T2F00S00C0.01200
T4F00S00C0.02559
T6F00S00C0.03543
T7F00S00C0.04724
T8F00S00C0.12500
;TYPE=NON_PLATED
T9F00S00C0.04921
%
T01
X0031Y0003
X00345Y003
X00475Y0028
X00471Y00426
X0047Y00466
Y00506
X00517
Y00466
X00518Y00426
X00426Y00423
X00295Y00545
X0009Y00535
Y0056083
X0006
Y00535
X0003
Y0056083
X0
Y00535
X00145Y00475
X00631Y00463
Y00424
X00668Y00444
X0077Y0031
X0083
X00915Y00315
X01025
X01065Y0033
Y0025
X01197Y0028
X0125Y0024
X01303Y0028
X01335Y00365
X01217Y00435
X01198Y00419
X01175Y00409
X01182Y0050664
X01241Y00496
X01266
X0146Y0054
X01525Y00546
X01551
X01565Y00475
X01751Y00476
X01853Y0045292
Y00425
Y0039708
X01881
Y00425
Y0045292
X01909
Y00425
Y0039708
X01937
Y00425
Y0045292
X01965
Y00425
Y0039708
X01993
Y00425
Y0045292
X01039Y00469
X01038Y00522
X00944Y00403
X00865Y0009
X02172Y00994
X023Y010225
Y0104833
Y0107417
Y011
Y0112583
Y0115167
Y011775
X0233
Y0115167
Y0112583
Y011
Y0107417
Y0104833
Y010225
X0236
Y0104833
Y0107417
Y011
Y0112583
Y0115167
Y011775
X0239
Y0115167
Y0112583
Y011
Y0107417
Y0104833
Y010225
X02171Y01207
X01836Y01008
X01794Y0103
X01723Y0097
X017235Y0093836
X0172701Y0091499
X01727Y0089137
X01727Y0086774
X01726Y00826
X0168Y0067
X01551Y00604
X01525
Y00576
X01551Y00575
X01409Y00599
Y00741
X01475Y00725
X01488Y00782
X01461Y00797
X014337Y0080862
X01413Y0082
X01317Y00798
X01286Y00804
X01288Y00776
X01248Y00788
X01229Y00773
X01199Y0077491
X0110578Y00688
Y00664
X01104Y00638
X01113Y00599
X01109Y00568
X01031Y006
X0101231Y0061445
X01068Y0072
X01115Y0091269
X01152Y00957
X01188Y01089
X013Y01088
X01302Y012
X0145Y01198
X01533
X015106Y0094203
X01487Y00941
X01461
X01374Y0132
X01174Y01279
X01101Y01355
X00916Y01295
X00769Y01291
X00705Y01295
X00674Y01294
X00643
X00682Y0123097
X0068Y01184
X00762Y00942
X0079584Y0093667
X00806Y00958
X00837Y00953
X009Y00938
X00985Y00924
X01004Y00899
X00792Y00885
X00758Y00897
X00837Y00757
X00579Y0142211
X01991Y00724
Y00697
X02022
X02021Y00723
X0028904Y0065796
X00221Y00578
X0009Y0058667
Y006125
Y0063833
Y0066417
Y0069
X0006Y0066417
Y0063833
Y006125
Y0058667
X0003
Y006125
Y0063833
Y0066417
Y0069
X0
Y0066417
Y0063833
Y006125
Y0058667
X00144Y00745
X00295Y01126
X00294Y0118
X00315Y01296
X00348Y01295
X00378
X00405Y01229
X00395Y0108
X0043173Y0142211
X0046119
X0049064
X0052009
X0054955
T02
X0116627Y005598
X0120563
X0124501Y0055979
X0124499Y0059918
X0124501Y0063853
X0120564
X0116627
Y0059916
X0120563
T04
X0062378Y0138142
X0039622
T06
X01485Y00069
Y00169
X01585
Y00069
X01685
Y00169
X01785
Y00069
X01885
Y00169
X01985
Y00069
X0065274Y0064657
X00574
Y0084342
X0065274
X0049526
Y0064657
X0018Y0092
Y0102
Y0112
Y0122
X0007
Y0112
Y0102
Y0092
T07
X01761Y01441
X01961
T08
X0015748Y0015748
X0220472
Y0141732
X0015748Y0142252
T09
X0207Y0048
Y0067291
M30
