G04*
G04 #@! TF.GenerationSoftware,Altium Limited,Altium Designer,22.2.1 (43)*
G04*
G04 Layer_Color=8421504*
%FSLAX25Y25*%
%MOIN*%
G70*
G04*
G04 #@! TF.SameCoordinates,8776665F-13AD-43F5-9AD3-E0C3E71DBBC6*
G04*
G04*
G04 #@! TF.FilePolarity,Positive*
G04*
G01*
G75*
%ADD23R,0.03000X0.03000*%
%ADD24R,0.05906X0.02165*%
%ADD25O,0.05906X0.02165*%
%ADD26R,0.09055X0.12598*%
%ADD27R,0.04720X0.03150*%
%ADD28R,0.04720X0.02760*%
%ADD29R,0.15748X0.15748*%
%ADD30R,0.02618X0.00787*%
%ADD31R,0.00787X0.02618*%
%ADD32R,0.01181X0.05906*%
%ADD33R,0.09843X0.04724*%
%ADD34R,0.20276X0.11811*%
G04:AMPARAMS|DCode=35|XSize=47.24mil|YSize=31.5mil|CornerRadius=0mil|HoleSize=0mil|Usage=FLASHONLY|Rotation=315.000|XOffset=0mil|YOffset=0mil|HoleType=Round|Shape=Rectangle|*
%AMROTATEDRECTD35*
4,1,4,-0.02784,0.00557,-0.00557,0.02784,0.02784,-0.00557,0.00557,-0.02784,-0.02784,0.00557,0.0*
%
%ADD35ROTATEDRECTD35*%

G04:AMPARAMS|DCode=36|XSize=47.24mil|YSize=31.5mil|CornerRadius=0mil|HoleSize=0mil|Usage=FLASHONLY|Rotation=45.000|XOffset=0mil|YOffset=0mil|HoleType=Round|Shape=Rectangle|*
%AMROTATEDRECTD36*
4,1,4,-0.00557,-0.02784,-0.02784,-0.00557,0.00557,0.02784,0.02784,0.00557,-0.00557,-0.02784,0.0*
%
%ADD36ROTATEDRECTD36*%

%ADD37R,0.03937X0.05118*%
%ADD38R,0.03543X0.11811*%
%ADD39R,0.03937X0.04134*%
%ADD40R,0.04134X0.08661*%
%ADD41R,0.03000X0.03000*%
%ADD42R,0.04724X0.05118*%
%ADD43R,0.03500X0.04000*%
G04:AMPARAMS|DCode=44|XSize=40mil|YSize=35mil|CornerRadius=0mil|HoleSize=0mil|Usage=FLASHONLY|Rotation=270.000|XOffset=0mil|YOffset=0mil|HoleType=Round|Shape=Octagon|*
%AMOCTAGOND44*
4,1,8,-0.00875,-0.02000,0.00875,-0.02000,0.01750,-0.01125,0.01750,0.01125,0.00875,0.02000,-0.00875,0.02000,-0.01750,0.01125,-0.01750,-0.01125,-0.00875,-0.02000,0.0*
%
%ADD44OCTAGOND44*%

%ADD45R,0.07087X0.02165*%
%ADD46O,0.07087X0.02165*%
%ADD47R,0.02559X0.04724*%
%ADD48R,0.03937X0.01772*%
%ADD49R,0.05118X0.01181*%
%ADD50R,0.08661X0.07087*%
%ADD51R,0.07874X0.03347*%
%ADD52R,0.07874X0.12598*%
G36*
X239786Y128840D02*
X240395Y128231D01*
X240725Y127436D01*
Y126574D01*
X240395Y125779D01*
X239786Y125170D01*
X238991Y124840D01*
X234979D01*
X234184Y125170D01*
X233575Y125779D01*
X233245Y126574D01*
Y127436D01*
X233575Y128231D01*
X234184Y128840D01*
X234979Y129170D01*
X238991D01*
X239786Y128840D01*
D02*
G37*
G36*
X224816D02*
X225425Y128231D01*
X225755Y127436D01*
Y126574D01*
X225425Y125779D01*
X224816Y125170D01*
X224021Y124840D01*
X220009D01*
X219214Y125170D01*
X218605Y125779D01*
X218275Y126574D01*
Y127436D01*
X218605Y128231D01*
X219214Y128840D01*
X220009Y129170D01*
X224021D01*
X224816Y128840D01*
D02*
G37*
G36*
X224380Y119060D02*
X219660D01*
Y122200D01*
X224380D01*
Y119060D01*
D02*
G37*
G36*
Y114530D02*
X219660D01*
Y117280D01*
X224380D01*
Y114530D01*
D02*
G37*
G36*
Y110590D02*
X219660D01*
Y113350D01*
X224380D01*
Y110590D01*
D02*
G37*
G36*
Y106650D02*
X219660D01*
Y109410D01*
X224380D01*
Y106650D01*
D02*
G37*
G36*
Y102720D02*
X219660D01*
Y105470D01*
X224380D01*
Y102720D01*
D02*
G37*
G36*
Y97800D02*
X219660D01*
Y100940D01*
X224380D01*
Y97800D01*
D02*
G37*
G36*
X239786Y94830D02*
X240395Y94221D01*
X240725Y93426D01*
Y92564D01*
X240395Y91769D01*
X239786Y91160D01*
X238991Y90830D01*
X234979D01*
X234184Y91160D01*
X233575Y91769D01*
X233245Y92564D01*
Y93426D01*
X233575Y94221D01*
X234184Y94830D01*
X234979Y95160D01*
X238991D01*
X239786Y94830D01*
D02*
G37*
G36*
X224816D02*
X225425Y94221D01*
X225755Y93426D01*
Y92564D01*
X225425Y91769D01*
X224816Y91160D01*
X224021Y90830D01*
X220009D01*
X219214Y91160D01*
X218605Y91769D01*
X218275Y92564D01*
Y93426D01*
X218605Y94221D01*
X219214Y94830D01*
X220009Y95160D01*
X224021D01*
X224816Y94830D01*
D02*
G37*
G36*
X17286Y79840D02*
X17895Y79231D01*
X18225Y78436D01*
Y77574D01*
X17895Y76779D01*
X17286Y76170D01*
X16491Y75840D01*
X12479D01*
X11684Y76170D01*
X11075Y76779D01*
X10745Y77574D01*
Y78436D01*
X11075Y79231D01*
X11684Y79840D01*
X12479Y80170D01*
X16491D01*
X17286Y79840D01*
D02*
G37*
G36*
X2316D02*
X2925Y79231D01*
X3255Y78436D01*
Y77574D01*
X2925Y76779D01*
X2316Y76170D01*
X1521Y75840D01*
X-2491D01*
X-3286Y76170D01*
X-3895Y76779D01*
X-4225Y77574D01*
Y78436D01*
X-3895Y79231D01*
X-3286Y79840D01*
X-2491Y80170D01*
X1521D01*
X2316Y79840D01*
D02*
G37*
G36*
X131193Y72022D02*
X130405D01*
Y74640D01*
X131193D01*
Y72022D01*
D02*
G37*
G36*
X129619D02*
X128831D01*
Y74640D01*
X129619D01*
Y72022D01*
D02*
G37*
G36*
X128044D02*
X127256D01*
Y74640D01*
X128044D01*
Y72022D01*
D02*
G37*
G36*
X126469D02*
X125681D01*
Y74640D01*
X126469D01*
Y72022D01*
D02*
G37*
G36*
X124894D02*
X124106D01*
Y74640D01*
X124894D01*
Y72022D01*
D02*
G37*
G36*
X123319D02*
X122531D01*
Y74640D01*
X123319D01*
Y72022D01*
D02*
G37*
G36*
X121745D02*
X120957D01*
Y74640D01*
X121745D01*
Y72022D01*
D02*
G37*
G36*
X120170D02*
X119382D01*
Y74640D01*
X120170D01*
Y72022D01*
D02*
G37*
G36*
X118595D02*
X117807D01*
Y74640D01*
X118595D01*
Y72022D01*
D02*
G37*
G36*
X117020D02*
X116232D01*
Y74640D01*
X117020D01*
Y72022D01*
D02*
G37*
G36*
X115445D02*
X114657D01*
Y74640D01*
X115445D01*
Y72022D01*
D02*
G37*
G36*
X113871D02*
X113083D01*
Y74640D01*
X113871D01*
Y72022D01*
D02*
G37*
G36*
X112296D02*
X111508D01*
Y74640D01*
X112296D01*
Y72022D01*
D02*
G37*
G36*
X110721D02*
X109933D01*
Y74640D01*
X110721D01*
Y72022D01*
D02*
G37*
G36*
X16840Y70060D02*
X12120D01*
Y73200D01*
X16840D01*
Y70060D01*
D02*
G37*
G36*
X135288Y69758D02*
X132670D01*
Y70546D01*
X135288D01*
Y69758D01*
D02*
G37*
G36*
X108457D02*
X105839D01*
Y70546D01*
X108457D01*
Y69758D01*
D02*
G37*
G36*
X135288Y68183D02*
X132670D01*
Y68971D01*
X135288D01*
Y68183D01*
D02*
G37*
G36*
X108457D02*
X105839D01*
Y68971D01*
X108457D01*
Y68183D01*
D02*
G37*
G36*
X135288Y66608D02*
X132670D01*
Y67396D01*
X135288D01*
Y66608D01*
D02*
G37*
G36*
X108457D02*
X105839D01*
Y67396D01*
X108457D01*
Y66608D01*
D02*
G37*
G36*
X16840Y65530D02*
X12120D01*
Y68280D01*
X16840D01*
Y65530D01*
D02*
G37*
G36*
X135288Y65034D02*
X132670D01*
Y65822D01*
X135288D01*
Y65034D01*
D02*
G37*
G36*
X108457D02*
X105839D01*
Y65822D01*
X108457D01*
Y65034D01*
D02*
G37*
G36*
X135288Y63459D02*
X132670D01*
Y64247D01*
X135288D01*
Y63459D01*
D02*
G37*
G36*
X108457D02*
X105839D01*
Y64247D01*
X108457D01*
Y63459D01*
D02*
G37*
G36*
X135288Y61884D02*
X132670D01*
Y62672D01*
X135288D01*
Y61884D01*
D02*
G37*
G36*
X108457D02*
X105839D01*
Y62672D01*
X108457D01*
Y61884D01*
D02*
G37*
G36*
X16840Y61590D02*
X12120D01*
Y64350D01*
X16840D01*
Y61590D01*
D02*
G37*
G36*
X135288Y60309D02*
X132670D01*
Y61097D01*
X135288D01*
Y60309D01*
D02*
G37*
G36*
X108457D02*
X105839D01*
Y61097D01*
X108457D01*
Y60309D01*
D02*
G37*
G36*
X135288Y58734D02*
X132670D01*
Y59522D01*
X135288D01*
Y58734D01*
D02*
G37*
G36*
X108457D02*
X105839D01*
Y59522D01*
X108457D01*
Y58734D01*
D02*
G37*
G36*
X16840Y57650D02*
X12120D01*
Y60410D01*
X16840D01*
Y57650D01*
D02*
G37*
G36*
X135288Y57160D02*
X132670D01*
Y57948D01*
X135288D01*
Y57160D01*
D02*
G37*
G36*
X108457D02*
X105839D01*
Y57948D01*
X108457D01*
Y57160D01*
D02*
G37*
G36*
X135288Y55585D02*
X132670D01*
Y56373D01*
X135288D01*
Y55585D01*
D02*
G37*
G36*
X108457D02*
X105839D01*
Y56373D01*
X108457D01*
Y55585D01*
D02*
G37*
G36*
X135288Y54010D02*
X132670D01*
Y54798D01*
X135288D01*
Y54010D01*
D02*
G37*
G36*
X108457D02*
X105839D01*
Y54798D01*
X108457D01*
Y54010D01*
D02*
G37*
G36*
X16840Y53720D02*
X12120D01*
Y56470D01*
X16840D01*
Y53720D01*
D02*
G37*
G36*
X126862Y53617D02*
X114264D01*
Y66215D01*
X126862D01*
Y53617D01*
D02*
G37*
G36*
X135288Y52435D02*
X132670D01*
Y53223D01*
X135288D01*
Y52435D01*
D02*
G37*
G36*
X108457D02*
X105839D01*
Y53223D01*
X108457D01*
Y52435D01*
D02*
G37*
G36*
X135288Y50860D02*
X132670D01*
Y51648D01*
X135288D01*
Y50860D01*
D02*
G37*
G36*
X108457D02*
X105839D01*
Y51648D01*
X108457D01*
Y50860D01*
D02*
G37*
G36*
X135288Y49286D02*
X132670D01*
Y50074D01*
X135288D01*
Y49286D01*
D02*
G37*
G36*
X108457D02*
X105839D01*
Y50074D01*
X108457D01*
Y49286D01*
D02*
G37*
G36*
X16840Y48800D02*
X12120D01*
Y51940D01*
X16840D01*
Y48800D01*
D02*
G37*
G36*
X131193Y45191D02*
X130405D01*
Y47809D01*
X131193D01*
Y45191D01*
D02*
G37*
G36*
X129619D02*
X128831D01*
Y47809D01*
X129619D01*
Y45191D01*
D02*
G37*
G36*
X128044D02*
X127256D01*
Y47809D01*
X128044D01*
Y45191D01*
D02*
G37*
G36*
X126469D02*
X125681D01*
Y47809D01*
X126469D01*
Y45191D01*
D02*
G37*
G36*
X124894D02*
X124106D01*
Y47809D01*
X124894D01*
Y45191D01*
D02*
G37*
G36*
X123319D02*
X122531D01*
Y47809D01*
X123319D01*
Y45191D01*
D02*
G37*
G36*
X121745D02*
X120957D01*
Y47809D01*
X121745D01*
Y45191D01*
D02*
G37*
G36*
X120170D02*
X119382D01*
Y47809D01*
X120170D01*
Y45191D01*
D02*
G37*
G36*
X118595D02*
X117807D01*
Y47809D01*
X118595D01*
Y45191D01*
D02*
G37*
G36*
X117020D02*
X116232D01*
Y47809D01*
X117020D01*
Y45191D01*
D02*
G37*
G36*
X115445D02*
X114657D01*
Y47809D01*
X115445D01*
Y45191D01*
D02*
G37*
G36*
X113871D02*
X113083D01*
Y47809D01*
X113871D01*
Y45191D01*
D02*
G37*
G36*
X112296D02*
X111508D01*
Y47809D01*
X112296D01*
Y45191D01*
D02*
G37*
G36*
X110721D02*
X109933D01*
Y47809D01*
X110721D01*
Y45191D01*
D02*
G37*
G36*
X17286Y45830D02*
X17895Y45221D01*
X18225Y44426D01*
Y43564D01*
X17895Y42769D01*
X17286Y42160D01*
X16491Y41830D01*
X12479D01*
X11684Y42160D01*
X11075Y42769D01*
X10745Y43564D01*
Y44426D01*
X11075Y45221D01*
X11684Y45830D01*
X12479Y46160D01*
X16491D01*
X17286Y45830D01*
D02*
G37*
G36*
X2316D02*
X2925Y45221D01*
X3255Y44426D01*
Y43564D01*
X2925Y42769D01*
X2316Y42160D01*
X1521Y41830D01*
X-2491D01*
X-3286Y42160D01*
X-3895Y42769D01*
X-4225Y43564D01*
Y44426D01*
X-3895Y45221D01*
X-3286Y45830D01*
X-2491Y46160D01*
X1521D01*
X2316Y45830D01*
D02*
G37*
D23*
X64600Y123359D02*
D03*
Y118241D02*
D03*
X111827Y26201D02*
D03*
Y31319D02*
D03*
X99401Y31418D02*
D03*
Y36536D02*
D03*
X83000Y27759D02*
D03*
Y22641D02*
D03*
X94342Y31418D02*
D03*
Y36536D02*
D03*
X110000Y138941D02*
D03*
Y144059D02*
D03*
X175000Y47442D02*
D03*
Y52560D02*
D03*
Y62117D02*
D03*
Y67235D02*
D03*
X136500Y91293D02*
D03*
Y96411D02*
D03*
X130000Y122941D02*
D03*
Y128059D02*
D03*
X145000Y122941D02*
D03*
Y128059D02*
D03*
X153500Y122941D02*
D03*
Y128059D02*
D03*
X119600Y31418D02*
D03*
Y36536D02*
D03*
X124883Y31418D02*
D03*
Y36536D02*
D03*
X130200Y36512D02*
D03*
Y31394D02*
D03*
X31000Y6441D02*
D03*
Y11559D02*
D03*
X31000Y30059D02*
D03*
Y24941D02*
D03*
X26000Y49059D02*
D03*
Y43941D02*
D03*
Y60059D02*
D03*
Y54941D02*
D03*
X77000Y14759D02*
D03*
Y9641D02*
D03*
X77000Y27759D02*
D03*
Y22641D02*
D03*
X66800Y54059D02*
D03*
Y48941D02*
D03*
X66833Y43259D02*
D03*
Y38141D02*
D03*
X88146Y75559D02*
D03*
Y70441D02*
D03*
X111500Y91269D02*
D03*
Y96387D02*
D03*
X106000Y96411D02*
D03*
Y91293D02*
D03*
X26000Y65941D02*
D03*
Y71059D02*
D03*
D24*
X59900Y38440D02*
D03*
D25*
Y42377D02*
D03*
Y46314D02*
D03*
Y54188D02*
D03*
Y50251D02*
D03*
X39015Y38440D02*
D03*
Y42377D02*
D03*
Y54188D02*
D03*
Y50251D02*
D03*
Y46314D02*
D03*
D26*
X49457D02*
D03*
D27*
X222020Y99370D02*
D03*
Y120630D02*
D03*
X14480Y71630D02*
D03*
Y50370D02*
D03*
D28*
X222020Y104090D02*
D03*
Y108030D02*
D03*
Y111970D02*
D03*
Y115910D02*
D03*
X14480Y66910D02*
D03*
Y62970D02*
D03*
Y59030D02*
D03*
Y55090D02*
D03*
D29*
X120563Y59916D02*
D03*
D30*
X107148Y49680D02*
D03*
Y51254D02*
D03*
Y52829D02*
D03*
Y54404D02*
D03*
Y55979D02*
D03*
Y57554D02*
D03*
Y59128D02*
D03*
Y60703D02*
D03*
Y62278D02*
D03*
Y63853D02*
D03*
Y65428D02*
D03*
Y67002D02*
D03*
Y68577D02*
D03*
Y70152D02*
D03*
X133979D02*
D03*
Y68577D02*
D03*
Y67002D02*
D03*
Y65428D02*
D03*
Y63853D02*
D03*
Y62278D02*
D03*
Y60703D02*
D03*
Y59128D02*
D03*
Y57554D02*
D03*
Y55979D02*
D03*
Y54404D02*
D03*
Y52829D02*
D03*
Y51254D02*
D03*
Y49680D02*
D03*
D31*
X110327Y73331D02*
D03*
X111902D02*
D03*
X113477D02*
D03*
X115051D02*
D03*
X116626D02*
D03*
X118201D02*
D03*
X119776D02*
D03*
X121351D02*
D03*
X122925D02*
D03*
X124500D02*
D03*
X126075D02*
D03*
X127650D02*
D03*
X129225D02*
D03*
X130799D02*
D03*
Y46500D02*
D03*
X129225D02*
D03*
X127650D02*
D03*
X126075D02*
D03*
X124500D02*
D03*
X122925D02*
D03*
X121351D02*
D03*
X119776D02*
D03*
X118201D02*
D03*
X116626D02*
D03*
X115051D02*
D03*
X113477D02*
D03*
X111902D02*
D03*
X110327D02*
D03*
D32*
X37811Y132079D02*
D03*
X38992D02*
D03*
X40961D02*
D03*
X42142D02*
D03*
X44110D02*
D03*
X46079D02*
D03*
X48047D02*
D03*
X50016D02*
D03*
X51984D02*
D03*
X53953D02*
D03*
X55921D02*
D03*
X57890D02*
D03*
X59858D02*
D03*
X61039D02*
D03*
X63008D02*
D03*
X64189D02*
D03*
D33*
X190858Y43866D02*
D03*
Y53709D02*
D03*
Y61583D02*
D03*
Y71425D02*
D03*
D34*
X202276Y29299D02*
D03*
Y85992D02*
D03*
D35*
X155926Y152486D02*
D03*
D36*
X126950Y152485D02*
D03*
D37*
X153249Y136500D02*
D03*
X129627D02*
D03*
X145374D02*
D03*
X137500D02*
D03*
D38*
X122934Y142209D02*
D03*
X159942D02*
D03*
D39*
X111827Y14083D02*
D03*
D40*
X106020Y8079D02*
D03*
X117634D02*
D03*
D41*
X106661Y21000D02*
D03*
X111779D02*
D03*
X99435Y45000D02*
D03*
X94317D02*
D03*
Y50250D02*
D03*
X99435D02*
D03*
X94317Y55500D02*
D03*
X99435D02*
D03*
X106661Y36511D02*
D03*
X111779D02*
D03*
X79941Y129000D02*
D03*
X85059D02*
D03*
X146059Y57000D02*
D03*
X140941D02*
D03*
X31059Y38500D02*
D03*
X25941D02*
D03*
X164759Y67200D02*
D03*
X159641D02*
D03*
X146059Y71100D02*
D03*
X140941D02*
D03*
X164783Y47500D02*
D03*
X159665D02*
D03*
X99459Y64800D02*
D03*
X94341D02*
D03*
Y75533D02*
D03*
X99459D02*
D03*
X96441Y129500D02*
D03*
X101559D02*
D03*
D42*
X80554Y55166D02*
D03*
Y63434D02*
D03*
X87247D02*
D03*
Y55166D02*
D03*
D43*
X83000Y15200D02*
D03*
X116000Y139500D02*
D03*
D44*
X83000Y9200D02*
D03*
X116000Y145500D02*
D03*
D45*
X55635Y107900D02*
D03*
D46*
Y112900D02*
D03*
Y117900D02*
D03*
Y122900D02*
D03*
X34965Y107900D02*
D03*
Y112900D02*
D03*
Y117900D02*
D03*
Y122900D02*
D03*
D47*
X86425Y153238D02*
D03*
Y136309D02*
D03*
X77961Y153238D02*
D03*
Y136309D02*
D03*
X102811Y153238D02*
D03*
Y136309D02*
D03*
X94347Y153238D02*
D03*
Y136309D02*
D03*
D48*
X129500Y97162D02*
D03*
Y93422D02*
D03*
Y89682D02*
D03*
X118500D02*
D03*
Y93422D02*
D03*
Y97162D02*
D03*
X168600Y53560D02*
D03*
Y61040D02*
D03*
X159671Y57300D02*
D03*
D49*
X178331Y83610D02*
D03*
Y97390D02*
D03*
Y95421D02*
D03*
Y93453D02*
D03*
Y91484D02*
D03*
Y89516D02*
D03*
Y87547D02*
D03*
Y85579D02*
D03*
D50*
X168500Y103886D02*
D03*
X168500Y77114D02*
D03*
D51*
X41500Y28055D02*
D03*
Y19000D02*
D03*
Y9945D02*
D03*
D52*
X67000Y19000D02*
D03*
M02*
