G04*
G04 #@! TF.GenerationSoftware,Altium Limited,Altium Designer,22.2.1 (43)*
G04*
G04 Layer_Color=8388736*
%FSLAX25Y25*%
%MOIN*%
G70*
G04*
G04 #@! TF.SameCoordinates,8776665F-13AD-43F5-9AD3-E0C3E71DBBC6*
G04*
G04*
G04 #@! TF.FilePolarity,Positive*
G04*
G01*
G75*
%ADD12C,0.01968*%
%ADD13C,0.00591*%
%ADD18C,0.00787*%
%ADD142C,0.01180*%
%ADD143C,0.01575*%
G36*
X-8750Y61390D02*
X-870D01*
Y60610D01*
X-8750D01*
Y59030D01*
X-10720Y61000D01*
X-8750Y62970D01*
Y61390D01*
D02*
G37*
G36*
X7000Y70840D02*
Y51160D01*
Y49190D01*
X-6780D01*
Y51160D01*
X5030D01*
Y70840D01*
X-6780D01*
Y72810D01*
X7000D01*
Y70840D01*
D02*
G37*
G36*
X113008Y9564D02*
X113195Y9428D01*
X113496Y9077D01*
X113709Y8668D01*
X113823Y8220D01*
X113827Y7989D01*
Y7591D01*
X113523Y6856D01*
X112960Y6294D01*
X112225Y5989D01*
X111430D01*
X110694Y6294D01*
X110132Y6856D01*
X109827Y7591D01*
Y7989D01*
X109832Y8220D01*
X109946Y8668D01*
X110159Y9077D01*
X110460Y9428D01*
X110646Y9564D01*
Y9564D01*
Y12853D01*
X113008D01*
X113008Y9564D01*
D02*
G37*
G36*
X146894Y167328D02*
X141359Y167958D01*
X135980Y167310D01*
X138210Y172840D01*
X144666D01*
X146894Y167328D01*
D02*
G37*
G36*
X247220Y110000D02*
X245250Y108030D01*
Y109610D01*
X237370D01*
Y110390D01*
X245250D01*
Y111970D01*
X247220Y110000D01*
D02*
G37*
G36*
X243280Y119840D02*
X231470D01*
Y100160D01*
X243280D01*
Y98190D01*
X229500D01*
Y100160D01*
Y119840D01*
Y121810D01*
X243280D01*
Y119840D01*
D02*
G37*
D12*
X130922Y135493D02*
G03*
X130922Y135493I-984J0D01*
G01*
D13*
X110622Y44955D02*
G03*
X110622Y44955I-295J0D01*
G01*
D18*
X112221Y15079D02*
G03*
X112221Y15079I-394J0D01*
G01*
D142*
X220250Y98190D02*
G03*
X220250Y98190I-590J0D01*
G01*
X17430Y72810D02*
G03*
X17430Y72810I-590J0D01*
G01*
D143*
X149704Y144177D02*
G03*
X149704Y144177I-787J0D01*
G01*
X134744D02*
G03*
X134744Y144177I-787J0D01*
G01*
M02*
