M48
;Layer_Color=9474304
;FILE_FORMAT=2:5
INCH,LZ
;TYPE=PLATED
T3F00S00C0.02362
T5F00S00C0.02760
;TYPE=NON_PLATED
%
G90
G05
T03
G00X0077028Y0099339
M15
G01Y0095008
M16
G00X0077028Y0114102
M15
G01Y011174
M16
G00X0042972Y0114102
M15
G01Y011174
M16
G00X0042972Y0099339
M15
G01Y0095008
M16
T05
G00X-0004055Y000799
M15
G01X-0000905
M16
G00X0010905Y000799
M15
G01X0014055
M16
G00X0010905Y004201
M15
G01X0014055
M16
G00X-0004055Y004201
M15
G01X-0000905
M16
G00X0186095Y004201
M15
G01X0182945
M16
G00X0201055Y004201
M15
G01X0197905
M16
G00X0201055Y000799
M15
G01X0197905
M16
G00X0186095Y000799
M15
G01X0182945
M16
M17
M30
