G04*
G04 #@! TF.GenerationSoftware,Altium Limited,Altium Designer,22.2.1 (43)*
G04*
G04 Layer_Physical_Order=4*
G04 Layer_Color=16711680*
%FSLAX25Y25*%
%MOIN*%
G70*
G04*
G04 #@! TF.SameCoordinates,5917ED16-7F16-4460-A846-6834CAD0EC44*
G04*
G04*
G04 #@! TF.FilePolarity,Positive*
G04*
G01*
G75*
%ADD15C,0.01000*%
%ADD17C,0.00500*%
%ADD97C,0.02000*%
%ADD105R,0.07702X0.15448*%
%ADD109O,0.07480X0.04330*%
%ADD110R,0.09055X0.09055*%
%ADD111C,0.09055*%
%ADD112C,0.04331*%
%ADD113C,0.05906*%
%ADD114R,0.05906X0.05906*%
%ADD115C,0.11811*%
%ADD116C,0.04921*%
%ADD117O,0.03937X0.08268*%
%ADD118O,0.03937X0.06299*%
%ADD119C,0.02559*%
%ADD120C,0.02400*%
%ADD121C,0.01772*%
%ADD139R,0.05500X0.06200*%
%ADD140C,0.09843*%
%ADD141R,0.06000X0.16000*%
%ADD142R,0.15448X0.07702*%
G36*
X41477Y49611D02*
X41550Y49548D01*
X41623Y49493D01*
X41698Y49445D01*
X41772Y49404D01*
X41847Y49371D01*
X41923Y49345D01*
X41999Y49326D01*
X42075Y49315D01*
X42152Y49311D01*
Y48811D01*
X42075Y48808D01*
X41999Y48797D01*
X41923Y48778D01*
X41847Y48752D01*
X41772Y48719D01*
X41698Y48678D01*
X41623Y48630D01*
X41550Y48575D01*
X41477Y48512D01*
X41404Y48441D01*
Y49681D01*
X41477Y49611D01*
D02*
G37*
G36*
X40660Y34763D02*
X40696Y34742D01*
X40739Y34724D01*
X40790Y34709D01*
X40849Y34695D01*
X40916Y34685D01*
X41074Y34670D01*
X41263Y34665D01*
Y33665D01*
X41164Y33664D01*
X40916Y33646D01*
X40849Y33635D01*
X40790Y33622D01*
X40739Y33606D01*
X40696Y33588D01*
X40660Y33568D01*
X40633Y33545D01*
Y34785D01*
X40660Y34763D01*
D02*
G37*
G36*
X29367Y33380D02*
X29340Y33403D01*
X29305Y33423D01*
X29261Y33441D01*
X29210Y33457D01*
X29151Y33470D01*
X29084Y33481D01*
X28927Y33495D01*
X28737Y33500D01*
Y34500D01*
X28836Y34501D01*
X29084Y34519D01*
X29151Y34530D01*
X29210Y34543D01*
X29261Y34559D01*
X29305Y34577D01*
X29340Y34597D01*
X29367Y34620D01*
Y33380D01*
D02*
G37*
G36*
X21660Y34597D02*
X21696Y34577D01*
X21739Y34559D01*
X21790Y34543D01*
X21849Y34530D01*
X21916Y34519D01*
X22073Y34505D01*
X22263Y34500D01*
Y33500D01*
X22164Y33499D01*
X21916Y33481D01*
X21849Y33470D01*
X21790Y33457D01*
X21739Y33441D01*
X21696Y33423D01*
X21660Y33403D01*
X21633Y33380D01*
Y34620D01*
X21660Y34597D01*
D02*
G37*
G36*
X40660Y32597D02*
X40696Y32577D01*
X40739Y32559D01*
X40790Y32543D01*
X40849Y32530D01*
X40916Y32519D01*
X41074Y32505D01*
X41263Y32500D01*
Y31500D01*
X41164Y31499D01*
X40916Y31481D01*
X40849Y31470D01*
X40790Y31457D01*
X40739Y31441D01*
X40696Y31423D01*
X40660Y31403D01*
X40633Y31380D01*
Y32620D01*
X40660Y32597D01*
D02*
G37*
G36*
X41800Y50846D02*
X41743Y50898D01*
X41681Y50945D01*
X41614Y50985D01*
X41542Y51020D01*
X41466Y51050D01*
X41384Y51074D01*
X41298Y51092D01*
X41206Y51105D01*
X41110Y51113D01*
X41009Y51114D01*
X41886Y51991D01*
X41888Y51890D01*
X41895Y51794D01*
X41908Y51702D01*
X41926Y51616D01*
X41950Y51534D01*
X41980Y51458D01*
X42015Y51386D01*
X42055Y51319D01*
X42102Y51257D01*
X42153Y51200D01*
X41800Y50846D01*
D02*
G37*
G36*
X57292Y67914D02*
X57288Y67990D01*
X57277Y68067D01*
X57259Y68143D01*
X57233Y68219D01*
X57200Y68294D01*
X57159Y68368D01*
X57111Y68443D01*
X57055Y68516D01*
X56992Y68590D01*
X56922Y68662D01*
X58162D01*
X58092Y68590D01*
X58029Y68516D01*
X57973Y68443D01*
X57925Y68368D01*
X57885Y68294D01*
X57851Y68219D01*
X57825Y68143D01*
X57807Y68067D01*
X57796Y67990D01*
X57792Y67914D01*
X57292D01*
D02*
G37*
G36*
X61804Y66842D02*
X61747Y66894D01*
X61685Y66940D01*
X61618Y66981D01*
X61546Y67016D01*
X61470Y67046D01*
X61388Y67070D01*
X61302Y67088D01*
X61210Y67101D01*
X61114Y67108D01*
X61013Y67110D01*
X61890Y67987D01*
X61892Y67886D01*
X61899Y67790D01*
X61912Y67698D01*
X61930Y67612D01*
X61954Y67530D01*
X61984Y67453D01*
X62019Y67382D01*
X62060Y67315D01*
X62106Y67253D01*
X62158Y67196D01*
X61804Y66842D01*
D02*
G37*
G36*
X61800Y70846D02*
X61743Y70898D01*
X61681Y70944D01*
X61614Y70985D01*
X61542Y71020D01*
X61466Y71050D01*
X61384Y71074D01*
X61298Y71092D01*
X61206Y71105D01*
X61110Y71113D01*
X61009Y71114D01*
X61886Y71991D01*
X61888Y71890D01*
X61895Y71794D01*
X61908Y71702D01*
X61926Y71616D01*
X61950Y71534D01*
X61980Y71458D01*
X62015Y71386D01*
X62055Y71319D01*
X62102Y71257D01*
X62154Y71200D01*
X61800Y70846D01*
D02*
G37*
G36*
X61250Y73381D02*
X61254Y73304D01*
X61265Y73228D01*
X61283Y73152D01*
X61309Y73076D01*
X61343Y73001D01*
X61383Y72926D01*
X61431Y72852D01*
X61487Y72779D01*
X61550Y72705D01*
X61620Y72633D01*
X60380D01*
X60450Y72705D01*
X60513Y72779D01*
X60569Y72852D01*
X60617Y72926D01*
X60658Y73001D01*
X60691Y73076D01*
X60717Y73152D01*
X60735Y73228D01*
X60746Y73304D01*
X60750Y73381D01*
X61250D01*
D02*
G37*
G36*
X52381Y83750D02*
X52304Y83746D01*
X52228Y83735D01*
X52152Y83717D01*
X52076Y83691D01*
X52001Y83657D01*
X51926Y83617D01*
X51852Y83569D01*
X51779Y83513D01*
X51705Y83450D01*
X51633Y83380D01*
Y84620D01*
X51705Y84550D01*
X51779Y84487D01*
X51852Y84431D01*
X51926Y84383D01*
X52001Y84342D01*
X52076Y84309D01*
X52152Y84283D01*
X52228Y84265D01*
X52304Y84254D01*
X52381Y84250D01*
Y83750D01*
D02*
G37*
G36*
X64173Y49779D02*
X64239Y49782D01*
X64310Y49789D01*
X64384Y49801D01*
X64545Y49839D01*
X64631Y49865D01*
X64914Y49973D01*
X65016Y50018D01*
X64573Y48860D01*
X64534Y48940D01*
X64490Y49011D01*
X64442Y49074D01*
X64389Y49128D01*
X64331Y49175D01*
X64268Y49212D01*
X64201Y49242D01*
X64129Y49263D01*
X64052Y49275D01*
X63970Y49279D01*
X64173Y49779D01*
D02*
G37*
G36*
X65808Y51038D02*
X65885Y51042D01*
X65961Y51053D01*
X66037Y51071D01*
X66113Y51097D01*
X66188Y51130D01*
X66263Y51171D01*
X66337Y51219D01*
X66411Y51275D01*
X66484Y51338D01*
X66557Y51408D01*
Y50168D01*
X66484Y50238D01*
X66411Y50301D01*
X66337Y50357D01*
X66263Y50405D01*
X66188Y50445D01*
X66113Y50479D01*
X66037Y50505D01*
X65961Y50523D01*
X65885Y50534D01*
X65808Y50538D01*
Y51038D01*
D02*
G37*
G36*
X72250Y55381D02*
X72254Y55304D01*
X72265Y55228D01*
X72283Y55152D01*
X72309Y55076D01*
X72342Y55001D01*
X72383Y54927D01*
X72431Y54852D01*
X72487Y54779D01*
X72550Y54705D01*
X72620Y54633D01*
X71380D01*
X71450Y54705D01*
X71513Y54779D01*
X71569Y54852D01*
X71617Y54927D01*
X71658Y55001D01*
X71691Y55076D01*
X71717Y55152D01*
X71735Y55228D01*
X71746Y55304D01*
X71750Y55381D01*
X72250D01*
D02*
G37*
G36*
X90153Y40800D02*
X90102Y40743D01*
X90056Y40681D01*
X90015Y40614D01*
X89980Y40542D01*
X89950Y40466D01*
X89926Y40384D01*
X89908Y40298D01*
X89895Y40206D01*
X89887Y40110D01*
X89886Y40009D01*
X89009Y40886D01*
X89110Y40887D01*
X89206Y40895D01*
X89298Y40908D01*
X89384Y40926D01*
X89466Y40950D01*
X89542Y40980D01*
X89614Y41015D01*
X89681Y41056D01*
X89743Y41102D01*
X89800Y41153D01*
X90153Y40800D01*
D02*
G37*
G36*
X94076Y41381D02*
X94080Y41304D01*
X94091Y41228D01*
X94110Y41152D01*
X94136Y41076D01*
X94169Y41001D01*
X94210Y40927D01*
X94258Y40852D01*
X94313Y40779D01*
X94376Y40705D01*
X94446Y40633D01*
X93206D01*
X93277Y40705D01*
X93340Y40779D01*
X93395Y40852D01*
X93443Y40927D01*
X93484Y41001D01*
X93517Y41076D01*
X93543Y41152D01*
X93562Y41228D01*
X93573Y41304D01*
X93576Y41381D01*
X94076D01*
D02*
G37*
G36*
X80619Y66250D02*
X80696Y66254D01*
X80772Y66265D01*
X80848Y66283D01*
X80924Y66309D01*
X80999Y66343D01*
X81073Y66383D01*
X81148Y66431D01*
X81221Y66487D01*
X81295Y66550D01*
X81367Y66620D01*
Y65380D01*
X81295Y65450D01*
X81221Y65513D01*
X81148Y65569D01*
X81073Y65617D01*
X80999Y65658D01*
X80924Y65691D01*
X80848Y65717D01*
X80772Y65735D01*
X80696Y65746D01*
X80619Y65750D01*
Y66250D01*
D02*
G37*
G36*
X160760Y29921D02*
X159787Y30020D01*
X158916Y30315D01*
X158148Y30807D01*
X157482Y31496D01*
X156919Y32382D01*
X156458Y33465D01*
X156099Y34744D01*
X155843Y36220D01*
X155689Y37894D01*
X155638Y39764D01*
X145796D01*
X145697Y37894D01*
X145402Y36220D01*
X144910Y34744D01*
X144221Y33465D01*
X143335Y32382D01*
X142252Y31496D01*
X140973Y30807D01*
X139496Y30315D01*
X137823Y30020D01*
X135953Y29921D01*
X150717Y20079D01*
D01*
D01*
D01*
D01*
D01*
D01*
D01*
D01*
D01*
D01*
X160760Y29921D01*
D02*
G37*
G36*
X173500Y33263D02*
X173501Y33164D01*
X173519Y32916D01*
X173530Y32849D01*
X173543Y32790D01*
X173559Y32739D01*
X173577Y32695D01*
X173597Y32660D01*
X173620Y32633D01*
X172380D01*
X172403Y32660D01*
X172423Y32695D01*
X172441Y32739D01*
X172457Y32790D01*
X172470Y32849D01*
X172481Y32916D01*
X172495Y33073D01*
X172500Y33263D01*
X173500D01*
D02*
G37*
G36*
X176648Y35136D02*
X176648Y35036D01*
X176673Y34665D01*
X176682Y34616D01*
X176692Y34576D01*
X176704Y34544D01*
X176717Y34520D01*
X175494Y34727D01*
X175523Y34753D01*
X175549Y34786D01*
X175572Y34828D01*
X175592Y34877D01*
X175609Y34935D01*
X175623Y35001D01*
X175634Y35074D01*
X175646Y35246D01*
X175648Y35344D01*
X176648Y35136D01*
D02*
G37*
G36*
X120846Y89200D02*
X120898Y89257D01*
X120944Y89319D01*
X120985Y89386D01*
X121020Y89458D01*
X121050Y89534D01*
X121074Y89616D01*
X121092Y89702D01*
X121105Y89794D01*
X121113Y89890D01*
X121114Y89991D01*
X121991Y89114D01*
X121890Y89113D01*
X121794Y89105D01*
X121702Y89092D01*
X121616Y89074D01*
X121534Y89050D01*
X121458Y89020D01*
X121386Y88985D01*
X121319Y88945D01*
X121257Y88898D01*
X121200Y88846D01*
X120846Y89200D01*
D02*
G37*
G36*
X126346D02*
X126398Y89257D01*
X126444Y89319D01*
X126485Y89386D01*
X126520Y89458D01*
X126550Y89534D01*
X126574Y89616D01*
X126592Y89702D01*
X126605Y89794D01*
X126612Y89890D01*
X126614Y89991D01*
X127491Y89114D01*
X127390Y89113D01*
X127294Y89105D01*
X127202Y89092D01*
X127116Y89074D01*
X127034Y89050D01*
X126957Y89020D01*
X126886Y88985D01*
X126819Y88945D01*
X126757Y88898D01*
X126700Y88846D01*
X126346Y89200D01*
D02*
G37*
G36*
X131846D02*
X131898Y89257D01*
X131944Y89319D01*
X131985Y89386D01*
X132020Y89458D01*
X132050Y89534D01*
X132074Y89616D01*
X132092Y89702D01*
X132105Y89794D01*
X132112Y89890D01*
X132114Y89991D01*
X132991Y89114D01*
X132890Y89113D01*
X132793Y89105D01*
X132702Y89092D01*
X132615Y89074D01*
X132534Y89050D01*
X132457Y89020D01*
X132386Y88985D01*
X132319Y88945D01*
X132257Y88898D01*
X132200Y88846D01*
X131846Y89200D01*
D02*
G37*
D15*
X98343Y32000D02*
X105000D01*
X95736Y34606D02*
X98343Y32000D01*
X59000Y34606D02*
X95736D01*
X40000Y32000D02*
X56394D01*
X59000Y34606D01*
X105000Y32000D02*
X145354Y72354D01*
X176000Y34000D02*
X176148Y34148D01*
Y36309D01*
X177394Y37555D01*
X176000Y38132D02*
Y68000D01*
X173000Y35132D02*
X176000Y38132D01*
X171646Y72354D02*
X176000Y68000D01*
X173000Y32000D02*
Y35132D01*
X171971Y74000D02*
X177394Y68577D01*
Y37555D02*
Y68577D01*
X143000Y74000D02*
X171971D01*
X105000Y36000D02*
X143000Y74000D01*
X145354Y72354D02*
X171646D01*
X49000Y36000D02*
X105000D01*
X40000Y34165D02*
X47165D01*
X49000Y36000D01*
X21000Y34000D02*
X30000D01*
D17*
X61004Y67996D02*
X72000Y57000D01*
Y54000D02*
Y57000D01*
X71594Y52243D02*
X72757D01*
X57542Y66295D02*
X71594Y52243D01*
X72757D02*
X73000Y52000D01*
X57542Y66295D02*
Y69295D01*
X65041Y49213D02*
X65385D01*
X50315Y49061D02*
X50783Y49529D01*
X64724D01*
X40771Y49061D02*
X50315D01*
X64724Y49529D02*
X65041Y49213D01*
X42212Y50788D02*
X67189D01*
X41000Y52000D02*
X42212Y50788D01*
X61000Y72000D02*
X67000Y66000D01*
X82000D01*
X98000Y51000D02*
X124000Y77000D01*
X98000Y42000D02*
Y51000D01*
X94471Y38471D02*
X98000Y42000D01*
X124000Y81000D02*
X133000Y90000D01*
X124000Y77000D02*
Y81000D01*
X120000Y82500D02*
X127500Y90000D01*
X120000Y78000D02*
Y82500D01*
X117000Y78000D02*
Y85000D01*
X122000Y90000D01*
X51000Y84000D02*
X53000D01*
X61000Y76000D01*
Y72000D02*
Y76000D01*
X92000Y53000D02*
X117000Y78000D01*
X89000Y40000D02*
X92000Y43000D01*
Y53000D01*
X93826Y40000D02*
Y51826D01*
X120000Y78000D01*
X93191Y38471D02*
X94471D01*
X91661Y40000D02*
X93191Y38471D01*
D97*
X33000Y38000D02*
X37000Y42000D01*
X30000Y74000D02*
X37000Y67000D01*
Y42000D02*
Y67000D01*
X33000Y27101D02*
Y38000D01*
X31000Y25102D02*
X33000Y27101D01*
X30000Y74000D02*
Y81000D01*
D105*
X194795Y24928D02*
D03*
X195205Y25072D02*
D03*
X3205D02*
D03*
D109*
X-2480Y7990D02*
D03*
Y42010D02*
D03*
X12480Y7990D02*
D03*
Y42010D02*
D03*
X199480D02*
D03*
Y7990D02*
D03*
X184520Y42010D02*
D03*
Y7990D02*
D03*
D110*
X141000Y12000D02*
D03*
D111*
X161000D02*
D03*
D112*
X123709Y106114D02*
D03*
X138669D02*
D03*
D113*
X24843Y55126D02*
D03*
X5158Y63000D02*
D03*
Y55126D02*
D03*
X24843Y70874D02*
D03*
Y63000D02*
D03*
D114*
X5158Y70874D02*
D03*
D115*
X33465Y110236D02*
D03*
X90551Y7874D02*
D03*
X165354Y37008D02*
D03*
X189126Y110126D02*
D03*
D116*
X169710Y69000D02*
D03*
Y88291D02*
D03*
D117*
X77028Y97173D02*
D03*
X42972D02*
D03*
D118*
X77028Y112921D02*
D03*
X42972D02*
D03*
D119*
X48622Y99142D02*
D03*
X71378D02*
D03*
D120*
X83000Y50001D02*
D03*
Y53937D02*
D03*
X83002Y46065D02*
D03*
X79063Y46063D02*
D03*
X86937D02*
D03*
X79064Y53937D02*
D03*
Y50001D02*
D03*
X86937Y53937D02*
D03*
Y50000D02*
D03*
D121*
X113740Y8059D02*
D03*
X110000Y8000D02*
D03*
X51595Y53508D02*
D03*
X13000Y14000D02*
D03*
X7400D02*
D03*
X10200D02*
D03*
X4600D02*
D03*
X1800D02*
D03*
X-1000D02*
D03*
X13000Y36000D02*
D03*
X7400D02*
D03*
X10200D02*
D03*
X4600D02*
D03*
X1800D02*
D03*
X-1000D02*
D03*
X77000Y31302D02*
D03*
X94000D02*
D03*
X22000Y16000D02*
D03*
Y18901D02*
D03*
X40500Y40000D02*
D03*
X32897Y51142D02*
D03*
X42000Y61000D02*
D03*
Y58000D02*
D03*
Y55000D02*
D03*
X45000D02*
D03*
Y58000D02*
D03*
Y61000D02*
D03*
X162000Y93000D02*
D03*
Y98600D02*
D03*
Y95800D02*
D03*
Y101400D02*
D03*
Y104200D02*
D03*
Y107000D02*
D03*
X158000Y93000D02*
D03*
Y98600D02*
D03*
Y95800D02*
D03*
Y101400D02*
D03*
Y104200D02*
D03*
Y107000D02*
D03*
Y47000D02*
D03*
X163600D02*
D03*
X160800D02*
D03*
X166400D02*
D03*
X169200D02*
D03*
X172000D02*
D03*
X158000Y54000D02*
D03*
X163600D02*
D03*
X160800D02*
D03*
X166400D02*
D03*
X169200D02*
D03*
X172000D02*
D03*
X181000Y36000D02*
D03*
X186600D02*
D03*
X183800D02*
D03*
X189400D02*
D03*
X192200D02*
D03*
X195000D02*
D03*
X191000Y14000D02*
D03*
X188200D02*
D03*
X185400D02*
D03*
X179800D02*
D03*
X182600D02*
D03*
X177000D02*
D03*
X79441Y91000D02*
D03*
X99963Y112441D02*
D03*
X105335Y94059D02*
D03*
X91441Y91000D02*
D03*
X23118Y109559D02*
D03*
X59000Y84441D02*
D03*
X66559Y6000D02*
D03*
X117559Y35000D02*
D03*
X101000Y18000D02*
D03*
X117000Y25000D02*
D03*
X123441Y14441D02*
D03*
X120000Y11000D02*
D03*
X132000Y42000D02*
D03*
X133000Y54000D02*
D03*
X101485Y72341D02*
D03*
X96469Y84532D02*
D03*
X90125Y60484D02*
D03*
X80560Y60396D02*
D03*
X62000Y64000D02*
D03*
X54171Y45911D02*
D03*
X59348Y46031D02*
D03*
X54290Y39382D02*
D03*
X52560Y13320D02*
D03*
X43560Y15653D02*
D03*
X45810Y13320D02*
D03*
X48060Y10987D02*
D03*
X52560D02*
D03*
Y17987D02*
D03*
X45810D02*
D03*
X48060D02*
D03*
Y13320D02*
D03*
X43560Y10987D02*
D03*
X52560Y15653D02*
D03*
X45810D02*
D03*
X43560Y13320D02*
D03*
X50310D02*
D03*
X43560Y17987D02*
D03*
X50310D02*
D03*
Y15653D02*
D03*
Y10987D02*
D03*
X48060Y15653D02*
D03*
X45810Y10987D02*
D03*
X41000Y52000D02*
D03*
X40771Y49061D02*
D03*
X65385Y49213D02*
D03*
X67189Y50788D02*
D03*
X50789Y58775D02*
D03*
X82000Y66000D02*
D03*
X57542Y69295D02*
D03*
X61004Y67996D02*
D03*
X73000Y52000D02*
D03*
X72000Y54000D02*
D03*
X40000Y34165D02*
D03*
Y32000D02*
D03*
X30000Y34000D02*
D03*
X21000D02*
D03*
X38118Y36500D02*
D03*
X173000Y32000D02*
D03*
X176000Y34000D02*
D03*
X101000Y24000D02*
D03*
X122000Y90000D02*
D03*
X133000D02*
D03*
X127500D02*
D03*
X30000Y81000D02*
D03*
X29000Y88488D02*
D03*
Y91000D02*
D03*
X47392Y90263D02*
D03*
X72631Y88862D02*
D03*
X51000Y84000D02*
D03*
X21638Y102446D02*
D03*
X61000Y72000D02*
D03*
X47000Y76000D02*
D03*
X89000Y40000D02*
D03*
X91661D02*
D03*
X93826D02*
D03*
X122500Y64000D02*
D03*
X122000Y81382D02*
D03*
X127500D02*
D03*
X133000D02*
D03*
X127252Y94937D02*
D03*
X90329Y102465D02*
D03*
X4708Y102425D02*
D03*
Y85575D02*
D03*
X21638D02*
D03*
X101485Y84476D02*
D03*
X91485Y84500D02*
D03*
X75866Y86847D02*
D03*
X64000Y84500D02*
D03*
X50789Y64000D02*
D03*
X59348Y39382D02*
D03*
X23500Y6000D02*
D03*
X22000Y36941D02*
D03*
X27000D02*
D03*
X50941Y34000D02*
D03*
X72000Y18000D02*
D03*
X197000Y30898D02*
D03*
X193326Y28000D02*
D03*
Y30898D02*
D03*
X197000Y28000D02*
D03*
Y25102D02*
D03*
X193326D02*
D03*
X159412Y66749D02*
D03*
X156514Y63075D02*
D03*
Y66749D02*
D03*
X159412Y63075D02*
D03*
X197000Y22203D02*
D03*
Y19304D02*
D03*
X193326D02*
D03*
Y22203D02*
D03*
X150717Y66749D02*
D03*
X153615D02*
D03*
X150717Y63075D02*
D03*
X147818D02*
D03*
Y66749D02*
D03*
X153615Y63075D02*
D03*
X5000Y25102D02*
D03*
Y22203D02*
D03*
Y30898D02*
D03*
X1326Y28000D02*
D03*
Y30898D02*
D03*
X5000Y28000D02*
D03*
X1326Y22203D02*
D03*
Y25102D02*
D03*
X5000Y19304D02*
D03*
X1326D02*
D03*
D139*
X100291Y25000D02*
D03*
X111512D02*
D03*
D140*
X5000Y25102D02*
X31000D01*
X117000Y25000D02*
X150717D01*
X111512D02*
X117000D01*
X31000Y25102D02*
X99722D01*
X150717Y25000D02*
X160760D01*
X150717D02*
Y63075D01*
X193224Y25000D02*
X193326Y25102D01*
X160760Y25000D02*
X193224D01*
X161000Y12000D02*
Y24760D01*
X160760Y25000D02*
X161000Y24760D01*
D141*
X30000Y86000D02*
D03*
D142*
X153645Y64954D02*
D03*
M02*
