G04*
G04 #@! TF.GenerationSoftware,Altium Limited,Altium Designer,22.2.1 (43)*
G04*
G04 Layer_Physical_Order=1*
G04 Layer_Color=255*
%FSLAX25Y25*%
%MOIN*%
G70*
G04*
G04 #@! TF.SameCoordinates,5917ED16-7F16-4460-A846-6834CAD0EC44*
G04*
G04*
G04 #@! TF.FilePolarity,Positive*
G04*
G01*
G75*
%ADD15C,0.01000*%
%ADD17C,0.00500*%
%ADD22C,0.00700*%
%ADD24R,0.03000X0.03000*%
G04:AMPARAMS|DCode=25|XSize=40mil|YSize=35mil|CornerRadius=0mil|HoleSize=0mil|Usage=FLASHONLY|Rotation=180.000|XOffset=0mil|YOffset=0mil|HoleType=Round|Shape=Octagon|*
%AMOCTAGOND25*
4,1,8,-0.02000,0.00875,-0.02000,-0.00875,-0.01125,-0.01750,0.01125,-0.01750,0.02000,-0.00875,0.02000,0.00875,0.01125,0.01750,-0.01125,0.01750,-0.02000,0.00875,0.0*
%
%ADD25OCTAGOND25*%

%ADD26R,0.04000X0.03500*%
%ADD27R,0.15748X0.15748*%
%ADD28R,0.00787X0.02618*%
%ADD29R,0.02618X0.00787*%
%ADD30R,0.03000X0.03000*%
%ADD31R,0.04720X0.03150*%
%ADD32R,0.04720X0.02760*%
%ADD33R,0.02165X0.05906*%
%ADD34O,0.02165X0.05906*%
%ADD35R,0.12598X0.09055*%
%ADD36R,0.01968X0.04724*%
%ADD37R,0.05118X0.01181*%
%ADD38R,0.08661X0.07087*%
%ADD39R,0.01772X0.03937*%
%ADD40R,0.03543X0.11811*%
%ADD41R,0.03937X0.05118*%
G04:AMPARAMS|DCode=42|XSize=47.24mil|YSize=31.5mil|CornerRadius=0mil|HoleSize=0mil|Usage=FLASHONLY|Rotation=45.000|XOffset=0mil|YOffset=0mil|HoleType=Round|Shape=Rectangle|*
%AMROTATEDRECTD42*
4,1,4,-0.00557,-0.02784,-0.02784,-0.00557,0.00557,0.02784,0.02784,0.00557,-0.00557,-0.02784,0.0*
%
%ADD42ROTATEDRECTD42*%

G04:AMPARAMS|DCode=43|XSize=47.24mil|YSize=31.5mil|CornerRadius=0mil|HoleSize=0mil|Usage=FLASHONLY|Rotation=315.000|XOffset=0mil|YOffset=0mil|HoleType=Round|Shape=Rectangle|*
%AMROTATEDRECTD43*
4,1,4,-0.02784,0.00557,-0.00557,0.02784,0.02784,-0.00557,0.00557,-0.02784,-0.02784,0.00557,0.0*
%
%ADD43ROTATEDRECTD43*%

%ADD44R,0.05118X0.04724*%
%ADD45R,0.07874X0.03347*%
%ADD46R,0.07874X0.12598*%
%ADD47R,0.03937X0.03150*%
G04:AMPARAMS|DCode=48|XSize=39.37mil|YSize=31.5mil|CornerRadius=0mil|HoleSize=0mil|Usage=FLASHONLY|Rotation=180.000|XOffset=0mil|YOffset=0mil|HoleType=Round|Shape=Octagon|*
%AMOCTAGOND48*
4,1,8,-0.01968,0.00787,-0.01968,-0.00787,-0.01181,-0.01575,0.01181,-0.01575,0.01968,-0.00787,0.01968,0.00787,0.01181,0.01575,-0.01181,0.01575,-0.01968,0.00787,0.0*
%
%ADD48OCTAGOND48*%

%ADD49R,0.01181X0.05906*%
%ADD50R,0.07087X0.02165*%
%ADD51O,0.07087X0.02165*%
%ADD52R,0.04724X0.02559*%
%ADD53R,0.09843X0.04724*%
%ADD54R,0.20276X0.11811*%
%ADD97C,0.02000*%
%ADD98R,0.17839X0.04001*%
%ADD99R,0.04001X0.17839*%
%ADD100R,0.09000X0.23000*%
%ADD101R,0.12000X0.14000*%
%ADD102R,0.04203X0.15000*%
%ADD103R,0.15000X0.04203*%
%ADD104R,0.16631X0.03440*%
%ADD105R,0.07702X0.15448*%
%ADD106R,0.16667X0.03440*%
%ADD107R,0.14318X0.06377*%
%ADD108R,0.15644X0.03440*%
%ADD109O,0.07480X0.04330*%
%ADD110R,0.09055X0.09055*%
%ADD111C,0.09055*%
%ADD112C,0.04331*%
%ADD113C,0.05906*%
%ADD114R,0.05906X0.05906*%
%ADD115C,0.11811*%
%ADD116C,0.04921*%
%ADD117O,0.03937X0.08268*%
%ADD118O,0.03937X0.06299*%
%ADD119C,0.02559*%
%ADD120C,0.02400*%
%ADD121C,0.01772*%
G36*
X16524Y112000D02*
X16514Y112095D01*
X16484Y112180D01*
X16433Y112255D01*
X16362Y112320D01*
X16271Y112375D01*
X16160Y112420D01*
X16028Y112455D01*
X15876Y112480D01*
X15704Y112495D01*
X15512Y112500D01*
Y113500D01*
X15704Y113505D01*
X15876Y113520D01*
X16028Y113545D01*
X16160Y113580D01*
X16271Y113625D01*
X16362Y113680D01*
X16433Y113745D01*
X16484Y113820D01*
X16514Y113905D01*
X16524Y114000D01*
Y112000D01*
D02*
G37*
G36*
X13986Y113905D02*
X14017Y113820D01*
X14067Y113745D01*
X14138Y113680D01*
X14229Y113625D01*
X14340Y113580D01*
X14472Y113545D01*
X14624Y113520D01*
X14796Y113505D01*
X14988Y113500D01*
Y112500D01*
X14796Y112495D01*
X14624Y112480D01*
X14472Y112455D01*
X14340Y112420D01*
X14229Y112375D01*
X14138Y112320D01*
X14067Y112255D01*
X14017Y112180D01*
X13986Y112095D01*
X13976Y112000D01*
Y114000D01*
X13986Y113905D01*
D02*
G37*
G36*
X7869Y112021D02*
X7849Y111980D01*
X7841Y111936D01*
X7843Y111888D01*
X7857Y111835D01*
X7880Y111780D01*
X7915Y111720D01*
X7961Y111657D01*
X8017Y111590D01*
X8084Y111520D01*
X7730Y111166D01*
X7660Y111233D01*
X7593Y111289D01*
X7530Y111335D01*
X7470Y111370D01*
X7414Y111393D01*
X7362Y111407D01*
X7314Y111409D01*
X7270Y111401D01*
X7229Y111381D01*
X7192Y111351D01*
X7899Y112058D01*
X7869Y112021D01*
D02*
G37*
G36*
X82452Y111436D02*
X82410Y111421D01*
X82372Y111395D01*
X82340Y111359D01*
X82313Y111313D01*
X82290Y111257D01*
X82272Y111190D01*
X82260Y111114D01*
X82253Y111027D01*
X82250Y110929D01*
X81750D01*
X81748Y111027D01*
X81740Y111114D01*
X81727Y111190D01*
X81710Y111257D01*
X81687Y111313D01*
X81660Y111359D01*
X81628Y111395D01*
X81590Y111421D01*
X81547Y111436D01*
X81500Y111441D01*
X82500D01*
X82452Y111436D01*
D02*
G37*
G36*
X24513Y111493D02*
X24430Y111434D01*
X24357Y111336D01*
X24294Y111199D01*
X24240Y111024D01*
X24196Y110809D01*
X24162Y110555D01*
X24123Y109930D01*
X24118Y109559D01*
X22118D01*
X22113Y109930D01*
X22040Y110809D01*
X21996Y111024D01*
X21942Y111199D01*
X21879Y111336D01*
X21806Y111434D01*
X21723Y111493D01*
X21630Y111512D01*
X24606D01*
X24513Y111493D01*
D02*
G37*
G36*
X81264Y107005D02*
X81258Y107051D01*
X81240Y107093D01*
X81209Y107130D01*
X81167Y107162D01*
X81112Y107189D01*
X81046Y107211D01*
X80967Y107228D01*
X80876Y107240D01*
X80773Y107248D01*
X80658Y107250D01*
Y107750D01*
X80773Y107752D01*
X80967Y107772D01*
X81046Y107789D01*
X81112Y107811D01*
X81167Y107838D01*
X81209Y107870D01*
X81240Y107907D01*
X81258Y107949D01*
X81264Y107995D01*
Y107005D01*
D02*
G37*
G36*
X23448Y104650D02*
X23278Y104589D01*
X23128Y104489D01*
X22998Y104348D01*
X22888Y104167D01*
X22798Y103946D01*
X22728Y103684D01*
X22678Y103382D01*
X22648Y103040D01*
X22638Y102658D01*
X20638D01*
X20628Y103040D01*
X20598Y103382D01*
X20548Y103684D01*
X20478Y103946D01*
X20388Y104167D01*
X20278Y104348D01*
X20148Y104489D01*
X19998Y104589D01*
X19828Y104650D01*
X19638Y104670D01*
X23638D01*
X23448Y104650D01*
D02*
G37*
G36*
X6519D02*
X6348Y104589D01*
X6199Y104489D01*
X6069Y104348D01*
X5959Y104167D01*
X5869Y103946D01*
X5799Y103684D01*
X5748Y103382D01*
X5719Y103040D01*
X5708Y102658D01*
X3709D01*
X3698Y103040D01*
X3669Y103382D01*
X3619Y103684D01*
X3548Y103946D01*
X3458Y104167D01*
X3348Y104348D01*
X3218Y104489D01*
X3069Y104589D01*
X2898Y104650D01*
X2709Y104670D01*
X6708D01*
X6519Y104650D01*
D02*
G37*
G36*
X101944Y101978D02*
X101936Y102009D01*
X101916Y102037D01*
X101887Y102061D01*
X101847Y102083D01*
X101797Y102100D01*
X101736Y102115D01*
X101666Y102127D01*
X101584Y102135D01*
X101391Y102141D01*
Y102641D01*
X101482Y102643D01*
X101635Y102656D01*
X101696Y102667D01*
X101747Y102682D01*
X101788Y102700D01*
X101820Y102721D01*
X101841Y102745D01*
X101853Y102773D01*
X101854Y102804D01*
X101944Y101978D01*
D02*
G37*
G36*
X87461Y103528D02*
X87553Y103515D01*
X87846Y103493D01*
X89211Y103466D01*
X89593Y103465D01*
X89426Y101465D01*
X87406Y101457D01*
Y103543D01*
X87461Y103528D01*
D02*
G37*
G36*
X133182Y97937D02*
X133176Y97984D01*
X133161Y98027D01*
X133135Y98064D01*
X133100Y98097D01*
X133054Y98124D01*
X132997Y98147D01*
X132931Y98164D01*
X132854Y98177D01*
X132767Y98184D01*
X132670Y98187D01*
Y98687D01*
X132767Y98689D01*
X132854Y98697D01*
X132931Y98709D01*
X132997Y98727D01*
X133054Y98749D01*
X133100Y98777D01*
X133135Y98809D01*
X133161Y98847D01*
X133176Y98889D01*
X133182Y98937D01*
Y97937D01*
D02*
G37*
G36*
X61247Y98655D02*
X61262Y98570D01*
X61287Y98495D01*
X61322Y98430D01*
X61367Y98375D01*
X61422Y98330D01*
X61487Y98295D01*
X61562Y98270D01*
X61647Y98255D01*
X61742Y98250D01*
X60992Y97750D01*
X60242Y98250D01*
X60337Y98255D01*
X60422Y98270D01*
X60497Y98295D01*
X60562Y98330D01*
X60617Y98375D01*
X60662Y98430D01*
X60697Y98495D01*
X60722Y98570D01*
X60737Y98655D01*
X60742Y98750D01*
X61242D01*
X61247Y98655D01*
D02*
G37*
G36*
X23981Y97913D02*
X23997Y97871D01*
X24022Y97833D01*
X24058Y97801D01*
X24104Y97773D01*
X24160Y97751D01*
X24227Y97733D01*
X24304Y97721D01*
X24391Y97713D01*
X24488Y97711D01*
Y97211D01*
X24391Y97208D01*
X24304Y97201D01*
X24227Y97188D01*
X24160Y97171D01*
X24104Y97148D01*
X24058Y97121D01*
X24022Y97088D01*
X23997Y97051D01*
X23981Y97008D01*
X23976Y96961D01*
Y97961D01*
X23981Y97913D01*
D02*
G37*
G36*
X19300Y96961D02*
X19295Y97008D01*
X19279Y97051D01*
X19253Y97088D01*
X19218Y97121D01*
X19172Y97148D01*
X19115Y97171D01*
X19049Y97188D01*
X18972Y97201D01*
X18885Y97208D01*
X18788Y97211D01*
Y97711D01*
X18885Y97713D01*
X18972Y97721D01*
X19049Y97733D01*
X19115Y97751D01*
X19172Y97773D01*
X19218Y97801D01*
X19253Y97833D01*
X19279Y97871D01*
X19295Y97913D01*
X19300Y97961D01*
Y96961D01*
D02*
G37*
G36*
X7052Y97913D02*
X7067Y97871D01*
X7093Y97833D01*
X7129Y97801D01*
X7175Y97773D01*
X7231Y97751D01*
X7298Y97733D01*
X7374Y97721D01*
X7461Y97713D01*
X7559Y97711D01*
Y97211D01*
X7461Y97208D01*
X7374Y97201D01*
X7298Y97188D01*
X7231Y97171D01*
X7175Y97148D01*
X7129Y97121D01*
X7093Y97088D01*
X7067Y97051D01*
X7052Y97008D01*
X7047Y96961D01*
Y97961D01*
X7052Y97913D01*
D02*
G37*
G36*
X63205Y96422D02*
X63213Y96335D01*
X63225Y96258D01*
X63243Y96192D01*
X63265Y96135D01*
X63293Y96089D01*
X63325Y96054D01*
X63363Y96028D01*
X63405Y96013D01*
X63453Y96008D01*
X62453D01*
X62500Y96013D01*
X62543Y96028D01*
X62580Y96054D01*
X62613Y96089D01*
X62640Y96135D01*
X62663Y96192D01*
X62680Y96258D01*
X62693Y96335D01*
X62700Y96422D01*
X62703Y96520D01*
X63203D01*
X63205Y96422D01*
D02*
G37*
G36*
X59327D02*
X59334Y96335D01*
X59347Y96258D01*
X59364Y96192D01*
X59387Y96135D01*
X59414Y96089D01*
X59447Y96054D01*
X59484Y96028D01*
X59527Y96013D01*
X59574Y96008D01*
X58574D01*
X58622Y96013D01*
X58664Y96028D01*
X58702Y96054D01*
X58734Y96089D01*
X58762Y96135D01*
X58784Y96192D01*
X58802Y96258D01*
X58814Y96335D01*
X58822Y96422D01*
X58824Y96520D01*
X59324D01*
X59327Y96422D01*
D02*
G37*
G36*
X57300D02*
X57307Y96335D01*
X57320Y96258D01*
X57337Y96192D01*
X57360Y96135D01*
X57387Y96089D01*
X57420Y96054D01*
X57457Y96028D01*
X57500Y96013D01*
X57547Y96008D01*
X56547D01*
X56595Y96013D01*
X56637Y96028D01*
X56675Y96054D01*
X56707Y96089D01*
X56735Y96135D01*
X56757Y96192D01*
X56775Y96258D01*
X56787Y96335D01*
X56795Y96422D01*
X56797Y96520D01*
X57297D01*
X57300Y96422D01*
D02*
G37*
G36*
X121307Y96558D02*
X121293Y96512D01*
Y96459D01*
X121307Y96399D01*
X121336Y96332D01*
X121378Y96257D01*
X121434Y96176D01*
X121505Y96087D01*
X121689Y95890D01*
X121336Y95536D01*
X121233Y95635D01*
X121049Y95791D01*
X120968Y95847D01*
X120894Y95890D01*
X120826Y95918D01*
X120766Y95932D01*
X120713D01*
X120667Y95918D01*
X120628Y95890D01*
X121336Y96597D01*
X121307Y96558D01*
D02*
G37*
G36*
X143454Y95885D02*
X143411Y95870D01*
X143374Y95845D01*
X143341Y95810D01*
X143314Y95764D01*
X143291Y95710D01*
X143274Y95645D01*
X143261Y95570D01*
X143254Y95485D01*
X143251Y95389D01*
X142751D01*
X142749Y95485D01*
X142741Y95570D01*
X142729Y95645D01*
X142711Y95710D01*
X142689Y95764D01*
X142661Y95810D01*
X142629Y95845D01*
X142591Y95870D01*
X142549Y95885D01*
X142501Y95890D01*
X143501D01*
X143454Y95885D01*
D02*
G37*
G36*
X107145Y96412D02*
X106975Y96352D01*
X106825Y96251D01*
X106695Y96110D01*
X106585Y95929D01*
X106495Y95708D01*
X106425Y95446D01*
X106375Y95144D01*
X106345Y94802D01*
X106335Y94420D01*
X104335D01*
X104325Y94802D01*
X104295Y95144D01*
X104245Y95446D01*
X104175Y95708D01*
X104085Y95929D01*
X103975Y96110D01*
X103845Y96251D01*
X103695Y96352D01*
X103525Y96412D01*
X103335Y96432D01*
X107335D01*
X107145Y96412D01*
D02*
G37*
G36*
X122253Y91891D02*
X122260Y91804D01*
X122273Y91727D01*
X122290Y91660D01*
X122312Y91604D01*
X122340Y91558D01*
X122372Y91522D01*
X122410Y91496D01*
X122452Y91481D01*
X122500Y91476D01*
X121500D01*
X121547Y91481D01*
X121590Y91496D01*
X121627Y91522D01*
X121660Y91558D01*
X121687Y91604D01*
X121710Y91660D01*
X121728Y91727D01*
X121740Y91804D01*
X121748Y91891D01*
X121750Y91988D01*
X122250D01*
X122253Y91891D01*
D02*
G37*
G36*
X129341Y91488D02*
X129242Y91386D01*
X129087Y91202D01*
X129030Y91120D01*
X128988Y91046D01*
X128960Y90979D01*
X128945Y90919D01*
Y90866D01*
X128960Y90820D01*
X128988Y90781D01*
X128281Y91488D01*
X128320Y91460D01*
X128366Y91446D01*
X128419D01*
X128479Y91460D01*
X128546Y91488D01*
X128620Y91530D01*
X128701Y91587D01*
X128790Y91658D01*
X128988Y91842D01*
X129341Y91488D01*
D02*
G37*
G36*
X122254Y91304D02*
X122265Y91228D01*
X122283Y91152D01*
X122309Y91076D01*
X122343Y91001D01*
X122383Y90926D01*
X122431Y90852D01*
X122487Y90779D01*
X122550Y90705D01*
X122620Y90633D01*
X121380D01*
X121450Y90705D01*
X121513Y90779D01*
X121569Y90852D01*
X121617Y90926D01*
X121658Y91001D01*
X121691Y91076D01*
X121717Y91152D01*
X121735Y91228D01*
X121746Y91304D01*
X121750Y91381D01*
X122250D01*
X122254Y91304D01*
D02*
G37*
G36*
X19300Y90039D02*
X19295Y90087D01*
X19279Y90129D01*
X19253Y90167D01*
X19218Y90199D01*
X19172Y90227D01*
X19115Y90249D01*
X19049Y90267D01*
X18972Y90279D01*
X18885Y90287D01*
X18788Y90289D01*
Y90789D01*
X18885Y90792D01*
X18972Y90799D01*
X19049Y90812D01*
X19115Y90829D01*
X19172Y90852D01*
X19218Y90879D01*
X19253Y90912D01*
X19279Y90949D01*
X19295Y90992D01*
X19300Y91039D01*
Y90039D01*
D02*
G37*
G36*
X7052Y90992D02*
X7067Y90949D01*
X7093Y90912D01*
X7129Y90879D01*
X7175Y90852D01*
X7231Y90829D01*
X7298Y90812D01*
X7374Y90799D01*
X7461Y90792D01*
X7559Y90789D01*
Y90289D01*
X7461Y90287D01*
X7374Y90279D01*
X7298Y90267D01*
X7231Y90249D01*
X7175Y90227D01*
X7129Y90199D01*
X7093Y90167D01*
X7067Y90129D01*
X7052Y90087D01*
X7047Y90039D01*
Y91039D01*
X7052Y90992D01*
D02*
G37*
G36*
X128653Y90800D02*
X128602Y90743D01*
X128555Y90681D01*
X128515Y90614D01*
X128480Y90542D01*
X128450Y90466D01*
X128426Y90384D01*
X128408Y90298D01*
X128395Y90206D01*
X128387Y90110D01*
X128386Y90009D01*
X127509Y90886D01*
X127610Y90887D01*
X127706Y90895D01*
X127797Y90908D01*
X127884Y90926D01*
X127966Y90950D01*
X128042Y90980D01*
X128114Y91015D01*
X128181Y91056D01*
X128243Y91102D01*
X128300Y91154D01*
X128653Y90800D01*
D02*
G37*
G36*
X61437Y90145D02*
X61394Y90130D01*
X61357Y90104D01*
X61324Y90068D01*
X61297Y90022D01*
X61274Y89966D01*
X61257Y89899D01*
X61244Y89822D01*
X61237Y89735D01*
X61234Y89638D01*
X60734D01*
X60732Y89735D01*
X60724Y89822D01*
X60712Y89899D01*
X60694Y89966D01*
X60672Y90022D01*
X60644Y90068D01*
X60612Y90104D01*
X60574Y90130D01*
X60532Y90145D01*
X60484Y90150D01*
X61484D01*
X61437Y90145D01*
D02*
G37*
G36*
X57452D02*
X57410Y90130D01*
X57372Y90104D01*
X57340Y90068D01*
X57313Y90022D01*
X57290Y89966D01*
X57272Y89899D01*
X57260Y89822D01*
X57253Y89735D01*
X57250Y89638D01*
X56750D01*
X56748Y89735D01*
X56740Y89822D01*
X56727Y89899D01*
X56710Y89966D01*
X56687Y90022D01*
X56660Y90068D01*
X56628Y90104D01*
X56590Y90130D01*
X56547Y90145D01*
X56500Y90150D01*
X57500D01*
X57452Y90145D01*
D02*
G37*
G36*
X89508Y92395D02*
X89566Y92312D01*
X89664Y92239D01*
X89801Y92176D01*
X89976Y92122D01*
X90191Y92078D01*
X90445Y92044D01*
X91070Y92005D01*
X91441Y92000D01*
Y90000D01*
X91070Y89995D01*
X90191Y89922D01*
X89976Y89878D01*
X89801Y89824D01*
X89664Y89761D01*
X89566Y89688D01*
X89508Y89605D01*
X89488Y89512D01*
Y92488D01*
X89508Y92395D01*
D02*
G37*
G36*
X81394Y89512D02*
X81374Y89605D01*
X81316Y89688D01*
X81218Y89761D01*
X81081Y89824D01*
X80906Y89878D01*
X80691Y89922D01*
X80437Y89956D01*
X79812Y89995D01*
X79441Y90000D01*
Y92000D01*
X79812Y92005D01*
X80691Y92078D01*
X80906Y92122D01*
X81081Y92176D01*
X81218Y92239D01*
X81316Y92312D01*
X81374Y92395D01*
X81394Y92488D01*
Y89512D01*
D02*
G37*
G36*
X134493Y90452D02*
X134508Y90410D01*
X134533Y90373D01*
X134568Y90340D01*
X134613Y90312D01*
X134668Y90290D01*
X134733Y90272D01*
X134808Y90260D01*
X134893Y90253D01*
X134988Y90250D01*
Y89750D01*
X134893Y89748D01*
X134808Y89740D01*
X134733Y89727D01*
X134668Y89710D01*
X134613Y89688D01*
X134568Y89660D01*
X134533Y89627D01*
X134508Y89590D01*
X134493Y89547D01*
X134488Y89500D01*
Y90500D01*
X134493Y90452D01*
D02*
G37*
G36*
X133705Y90550D02*
X133778Y90487D01*
X133852Y90431D01*
X133926Y90383D01*
X134001Y90342D01*
X134076Y90309D01*
X134151Y90283D01*
X134228Y90265D01*
X134304Y90254D01*
X134381Y90250D01*
Y89750D01*
X134304Y89746D01*
X134228Y89735D01*
X134151Y89717D01*
X134076Y89691D01*
X134001Y89657D01*
X133926Y89617D01*
X133852Y89569D01*
X133778Y89513D01*
X133705Y89450D01*
X133632Y89380D01*
Y90620D01*
X133705Y90550D01*
D02*
G37*
G36*
X22268Y89269D02*
X22264Y89261D01*
X22261Y89247D01*
X22258Y89228D01*
X22253Y89174D01*
X22250Y89052D01*
X22250Y89000D01*
X21750D01*
X21750Y89052D01*
X21736Y89261D01*
X21732Y89269D01*
X21728Y89272D01*
X22272D01*
X22268Y89269D01*
D02*
G37*
G36*
X30004Y90704D02*
X30039Y90213D01*
X30070Y90018D01*
X30109Y89856D01*
X30157Y89728D01*
X30214Y89633D01*
X30280Y89572D01*
X30354Y89545D01*
X30437Y89551D01*
X27571Y88804D01*
X27653Y88846D01*
X27726Y88928D01*
X27790Y89049D01*
X27846Y89209D01*
X27893Y89409D01*
X27931Y89648D01*
X27961Y89927D01*
X27996Y90603D01*
X28000Y91000D01*
X30000D01*
X30004Y90704D01*
D02*
G37*
G36*
X42488Y89434D02*
X42548Y89318D01*
X42648Y89216D01*
X42788Y89128D01*
X42968Y89053D01*
X43188Y88992D01*
X43448Y88945D01*
X43748Y88911D01*
X44088Y88890D01*
X44468Y88883D01*
Y86883D01*
X44088Y86879D01*
X43188Y86812D01*
X42968Y86772D01*
X42788Y86723D01*
X42648Y86665D01*
X42548Y86598D01*
X42488Y86522D01*
X42468Y86437D01*
Y89563D01*
X42488Y89434D01*
D02*
G37*
G36*
X51629Y89620D02*
X51689Y89280D01*
X51789Y88980D01*
X51929Y88720D01*
X52109Y88500D01*
X52329Y88320D01*
X52589Y88180D01*
X52889Y88080D01*
X53229Y88020D01*
X53609Y88000D01*
X50609Y86000D01*
X47609Y88000D01*
X47989Y88020D01*
X48329Y88080D01*
X48629Y88180D01*
X48889Y88320D01*
X49109Y88500D01*
X49289Y88720D01*
X49429Y88980D01*
X49529Y89280D01*
X49589Y89620D01*
X49609Y90000D01*
X51609D01*
X51629Y89620D01*
D02*
G37*
G36*
X76868Y86626D02*
X76920Y85871D01*
X76939Y85789D01*
X76962Y85731D01*
X76987Y85696D01*
X77016Y85685D01*
X74716D01*
X74745Y85696D01*
X74770Y85731D01*
X74793Y85789D01*
X74812Y85871D01*
X74829Y85975D01*
X74853Y86254D01*
X74865Y86626D01*
X74866Y86847D01*
X76866D01*
X76868Y86626D01*
D02*
G37*
G36*
X50342Y83407D02*
X50273Y83479D01*
X50203Y83544D01*
X50132Y83601D01*
X50060Y83650D01*
X49987Y83692D01*
X49913Y83727D01*
X49839Y83753D01*
X49763Y83772D01*
X49686Y83784D01*
X49609Y83787D01*
X49631Y84287D01*
X49707Y84291D01*
X49783Y84302D01*
X49859Y84320D01*
X49936Y84345D01*
X50012Y84377D01*
X50088Y84417D01*
X50165Y84463D01*
X50241Y84517D01*
X50318Y84578D01*
X50394Y84646D01*
X50342Y83407D01*
D02*
G37*
G36*
X22648Y84960D02*
X22678Y84618D01*
X22728Y84316D01*
X22798Y84054D01*
X22888Y83833D01*
X22998Y83652D01*
X23128Y83511D01*
X23278Y83411D01*
X23448Y83350D01*
X23638Y83330D01*
X19638D01*
X19828Y83350D01*
X19998Y83411D01*
X20148Y83511D01*
X20278Y83652D01*
X20388Y83833D01*
X20478Y84054D01*
X20548Y84316D01*
X20598Y84618D01*
X20628Y84960D01*
X20638Y85342D01*
X22638D01*
X22648Y84960D01*
D02*
G37*
G36*
X5719D02*
X5748Y84618D01*
X5799Y84316D01*
X5869Y84054D01*
X5959Y83833D01*
X6069Y83652D01*
X6199Y83511D01*
X6348Y83411D01*
X6519Y83350D01*
X6708Y83330D01*
X2709D01*
X2898Y83350D01*
X3069Y83411D01*
X3218Y83511D01*
X3348Y83652D01*
X3458Y83833D01*
X3548Y84054D01*
X3619Y84316D01*
X3669Y84618D01*
X3698Y84960D01*
X3709Y85342D01*
X5708D01*
X5719Y84960D01*
D02*
G37*
G36*
X97490Y84108D02*
X97563Y83208D01*
X97607Y82988D01*
X97661Y82808D01*
X97724Y82668D01*
X97797Y82568D01*
X97880Y82508D01*
X97973Y82488D01*
X94997D01*
X95090Y82508D01*
X95173Y82568D01*
X95246Y82668D01*
X95309Y82808D01*
X95363Y82988D01*
X95407Y83208D01*
X95441Y83468D01*
X95480Y84108D01*
X95485Y84488D01*
X97485D01*
X97490Y84108D01*
D02*
G37*
G36*
X92490D02*
X92563Y83208D01*
X92607Y82988D01*
X92661Y82808D01*
X92725Y82668D01*
X92798Y82568D01*
X92881Y82508D01*
X92973Y82488D01*
X89997D01*
X90090Y82508D01*
X90173Y82568D01*
X90246Y82668D01*
X90310Y82808D01*
X90363Y82988D01*
X90407Y83208D01*
X90441Y83468D01*
X90481Y84108D01*
X90485Y84488D01*
X92485D01*
X92490Y84108D01*
D02*
G37*
G36*
X65005D02*
X65078Y83208D01*
X65122Y82988D01*
X65176Y82808D01*
X65239Y82668D01*
X65313Y82568D01*
X65396Y82508D01*
X65488Y82488D01*
X62512D01*
X62605Y82508D01*
X62688Y82568D01*
X62761Y82668D01*
X62825Y82808D01*
X62878Y82988D01*
X62922Y83208D01*
X62956Y83468D01*
X62995Y84108D01*
X63000Y84488D01*
X65000D01*
X65005Y84108D01*
D02*
G37*
G36*
X60005Y84070D02*
X60078Y83191D01*
X60122Y82976D01*
X60176Y82801D01*
X60239Y82664D01*
X60312Y82566D01*
X60395Y82507D01*
X60488Y82488D01*
X57512D01*
X57605Y82507D01*
X57688Y82566D01*
X57761Y82664D01*
X57824Y82801D01*
X57878Y82976D01*
X57922Y83191D01*
X57956Y83445D01*
X57995Y84070D01*
X58000Y84441D01*
X60000D01*
X60005Y84070D01*
D02*
G37*
G36*
X44575Y82891D02*
X44582Y82804D01*
X44595Y82727D01*
X44612Y82660D01*
X44635Y82604D01*
X44662Y82558D01*
X44695Y82522D01*
X44732Y82497D01*
X44775Y82481D01*
X44822Y82476D01*
X43822D01*
X43870Y82481D01*
X43912Y82497D01*
X43950Y82522D01*
X43982Y82558D01*
X44010Y82604D01*
X44032Y82660D01*
X44050Y82727D01*
X44062Y82804D01*
X44070Y82891D01*
X44072Y82988D01*
X44572D01*
X44575Y82891D01*
D02*
G37*
G36*
X102490Y84084D02*
X102563Y83184D01*
X102607Y82964D01*
X102660Y82784D01*
X102724Y82644D01*
X102797Y82544D01*
X102880Y82484D01*
X102973Y82464D01*
X99997D01*
X100089Y82484D01*
X100172Y82544D01*
X100246Y82644D01*
X100309Y82784D01*
X100363Y82964D01*
X100407Y83184D01*
X100441Y83444D01*
X100480Y84084D01*
X100485Y84464D01*
X102485D01*
X102490Y84084D01*
D02*
G37*
G36*
X37190Y79488D02*
X37170Y79581D01*
X37110Y79664D01*
X37010Y79737D01*
X36870Y79800D01*
X36690Y79854D01*
X36470Y79898D01*
X36210Y79932D01*
X35877Y79952D01*
X35208Y79898D01*
X34988Y79854D01*
X34808Y79800D01*
X34668Y79737D01*
X34568Y79664D01*
X34508Y79581D01*
X34488Y79488D01*
Y82464D01*
X34508Y82371D01*
X34568Y82288D01*
X34668Y82215D01*
X34808Y82152D01*
X34988Y82098D01*
X35208Y82054D01*
X35468Y82020D01*
X35800Y82000D01*
X36470Y82054D01*
X36690Y82098D01*
X36870Y82152D01*
X37010Y82215D01*
X37110Y82288D01*
X37170Y82371D01*
X37190Y82464D01*
Y79488D01*
D02*
G37*
G36*
X48616Y82741D02*
X48801Y82583D01*
X48883Y82526D01*
X48957Y82482D01*
X49024Y82452D01*
X49084Y82437D01*
X49136Y82436D01*
X49181Y82449D01*
X49219Y82476D01*
X48524Y81781D01*
X48551Y81819D01*
X48564Y81864D01*
X48563Y81916D01*
X48548Y81976D01*
X48518Y82043D01*
X48474Y82117D01*
X48417Y82199D01*
X48345Y82288D01*
X48158Y82488D01*
X48512Y82841D01*
X48616Y82741D01*
D02*
G37*
G36*
X134395Y83374D02*
X134312Y83314D01*
X134239Y83214D01*
X134175Y83074D01*
X134122Y82894D01*
X134078Y82674D01*
X134044Y82414D01*
X134005Y81774D01*
X134000Y81394D01*
X132000D01*
X131995Y81774D01*
X131922Y82674D01*
X131878Y82894D01*
X131824Y83074D01*
X131761Y83214D01*
X131687Y83314D01*
X131604Y83374D01*
X131512Y83394D01*
X134488D01*
X134395Y83374D01*
D02*
G37*
G36*
X128895D02*
X128812Y83314D01*
X128739Y83214D01*
X128675Y83074D01*
X128622Y82894D01*
X128578Y82674D01*
X128544Y82414D01*
X128505Y81774D01*
X128500Y81394D01*
X126500D01*
X126495Y81774D01*
X126422Y82674D01*
X126378Y82894D01*
X126324Y83074D01*
X126261Y83214D01*
X126188Y83314D01*
X126105Y83374D01*
X126012Y83394D01*
X128988D01*
X128895Y83374D01*
D02*
G37*
G36*
X123395D02*
X123312Y83314D01*
X123239Y83214D01*
X123176Y83074D01*
X123122Y82894D01*
X123078Y82674D01*
X123044Y82414D01*
X123005Y81774D01*
X123000Y81394D01*
X121000D01*
X120995Y81774D01*
X120922Y82674D01*
X120878Y82894D01*
X120824Y83074D01*
X120761Y83214D01*
X120688Y83314D01*
X120605Y83374D01*
X120512Y83394D01*
X123488D01*
X123395Y83374D01*
D02*
G37*
G36*
X51493Y81453D02*
X51508Y81410D01*
X51533Y81372D01*
X51568Y81340D01*
X51613Y81313D01*
X51668Y81290D01*
X51733Y81273D01*
X51808Y81260D01*
X51893Y81252D01*
X51988Y81250D01*
Y80750D01*
X51893Y80747D01*
X51808Y80740D01*
X51733Y80727D01*
X51668Y80710D01*
X51613Y80687D01*
X51568Y80660D01*
X51533Y80628D01*
X51508Y80590D01*
X51493Y80547D01*
X51488Y80500D01*
Y81500D01*
X51493Y81453D01*
D02*
G37*
G36*
X31512Y79488D02*
X31497Y79585D01*
X31451Y79672D01*
X31376Y79749D01*
X31270Y79816D01*
X31134Y79872D01*
X30968Y79918D01*
X30771Y79954D01*
X30544Y79979D01*
X30287Y79995D01*
X30000Y80000D01*
Y82000D01*
X30287Y82005D01*
X30771Y82042D01*
X30968Y82074D01*
X31134Y82116D01*
X31270Y82167D01*
X31376Y82227D01*
X31451Y82297D01*
X31497Y82376D01*
X31512Y82464D01*
Y79488D01*
D02*
G37*
G36*
X44660Y79519D02*
X44617Y79504D01*
X44580Y79478D01*
X44547Y79442D01*
X44520Y79396D01*
X44497Y79340D01*
X44480Y79273D01*
X44467Y79196D01*
X44460Y79109D01*
X44457Y79012D01*
X43957D01*
X43955Y79109D01*
X43947Y79196D01*
X43935Y79273D01*
X43917Y79340D01*
X43895Y79396D01*
X43867Y79442D01*
X43835Y79478D01*
X43797Y79504D01*
X43755Y79519D01*
X43707Y79524D01*
X44707D01*
X44660Y79519D01*
D02*
G37*
G36*
X70431Y80848D02*
X70403Y80756D01*
Y80650D01*
X70431Y80530D01*
X70488Y80396D01*
X70573Y80247D01*
X70686Y80085D01*
X70827Y79908D01*
X71195Y79512D01*
X70488Y78805D01*
X70283Y79003D01*
X69915Y79314D01*
X69753Y79427D01*
X69604Y79512D01*
X69470Y79569D01*
X69350Y79597D01*
X69244D01*
X69152Y79569D01*
X69074Y79512D01*
X70488Y80926D01*
X70431Y80848D01*
D02*
G37*
G36*
X73319Y79004D02*
X73331Y77516D01*
X73320Y77611D01*
X73289Y77696D01*
X73238Y77771D01*
X73167Y77836D01*
X73076Y77891D01*
X72965Y77936D01*
X72834Y77971D01*
X72682Y77996D01*
X72511Y78011D01*
X72319Y78016D01*
Y79016D01*
X73319Y79004D01*
D02*
G37*
G36*
X48524Y74488D02*
X48508Y74585D01*
X48462Y74672D01*
X48386Y74749D01*
X48279Y74816D01*
X48142Y74872D01*
X47974Y74918D01*
X47776Y74954D01*
X47548Y74980D01*
X47000Y75000D01*
X46774Y74998D01*
X46108Y74953D01*
X46001Y74932D01*
X45917Y74907D01*
X45858Y74879D01*
X45822Y74846D01*
X45810Y74810D01*
Y77190D01*
X45822Y77154D01*
X45858Y77121D01*
X45917Y77093D01*
X46001Y77068D01*
X46108Y77047D01*
X46239Y77030D01*
X46572Y77008D01*
X47000Y77000D01*
X47287Y77004D01*
X47968Y77059D01*
X48134Y77092D01*
X48270Y77133D01*
X48376Y77181D01*
X48452Y77237D01*
X48497Y77300D01*
X48512Y77370D01*
X48524Y74488D01*
D02*
G37*
G36*
X34988Y76858D02*
X34891Y76855D01*
X34805Y76848D01*
X34729Y76835D01*
X34662Y76818D01*
X34606Y76795D01*
X34560Y76768D01*
X34524Y76735D01*
X34498Y76698D01*
X34482Y76655D01*
X34476Y76608D01*
X34488Y77346D01*
X34493Y77348D01*
X34508Y77350D01*
X34533Y77352D01*
X34893Y77358D01*
X34988Y77358D01*
Y76858D01*
D02*
G37*
G36*
X90009Y75653D02*
X89999Y75748D01*
X89968Y75833D01*
X89917Y75908D01*
X89846Y75973D01*
X89755Y76029D01*
X89643Y76073D01*
X89512Y76108D01*
X89361Y76134D01*
X89189Y76148D01*
X88997Y76153D01*
Y77153D01*
X89187Y77156D01*
X89637Y77188D01*
X89747Y77208D01*
X89837Y77231D01*
X89907Y77260D01*
X89957Y77292D01*
X89987Y77329D01*
X89997Y77370D01*
X90009Y75653D01*
D02*
G37*
G36*
X86679Y77558D02*
X86709Y77473D01*
X86760Y77399D01*
X86831Y77333D01*
X86922Y77279D01*
X87033Y77233D01*
X87165Y77198D01*
X87317Y77174D01*
X87489Y77158D01*
X87681Y77153D01*
Y76153D01*
X87489Y76148D01*
X87317Y76134D01*
X87165Y76108D01*
X87033Y76073D01*
X86922Y76029D01*
X86831Y75973D01*
X86760Y75908D01*
X86709Y75833D01*
X86679Y75748D01*
X86669Y75653D01*
Y77653D01*
X86679Y77558D01*
D02*
G37*
G36*
X57524Y75488D02*
X57519Y75530D01*
X57505Y75567D01*
X57481Y75600D01*
X57447Y75628D01*
X57404Y75652D01*
X57351Y75672D01*
X57288Y75687D01*
X57216Y75698D01*
X57134Y75705D01*
X57043Y75707D01*
Y76207D01*
X57134Y76209D01*
X57216Y76216D01*
X57288Y76227D01*
X57351Y76242D01*
X57404Y76262D01*
X57447Y76286D01*
X57481Y76315D01*
X57505Y76347D01*
X57519Y76385D01*
X57524Y76426D01*
Y75488D01*
D02*
G37*
G36*
X62524Y75382D02*
X62519Y75429D01*
X62504Y75472D01*
X62478Y75509D01*
X62442Y75542D01*
X62396Y75569D01*
X62340Y75592D01*
X62273Y75609D01*
X62197Y75622D01*
X62110Y75629D01*
X62012Y75632D01*
Y76132D01*
X62110Y76134D01*
X62197Y76142D01*
X62273Y76154D01*
X62340Y76172D01*
X62396Y76194D01*
X62442Y76222D01*
X62478Y76254D01*
X62504Y76292D01*
X62519Y76334D01*
X62524Y76382D01*
Y75382D01*
D02*
G37*
G36*
X60493Y76334D02*
X60508Y76292D01*
X60533Y76254D01*
X60568Y76222D01*
X60613Y76194D01*
X60668Y76172D01*
X60733Y76154D01*
X60808Y76142D01*
X60893Y76134D01*
X60988Y76132D01*
Y75632D01*
X60893Y75629D01*
X60808Y75622D01*
X60733Y75609D01*
X60668Y75592D01*
X60613Y75569D01*
X60568Y75542D01*
X60533Y75509D01*
X60508Y75472D01*
X60493Y75429D01*
X60488Y75382D01*
Y76382D01*
X60493Y76334D01*
D02*
G37*
G36*
X95009Y74882D02*
X94999Y74977D01*
X94969Y75062D01*
X94918Y75137D01*
X94847Y75202D01*
X94756Y75257D01*
X94645Y75302D01*
X94513Y75337D01*
X94361Y75362D01*
X94189Y75377D01*
X93997Y75382D01*
Y76382D01*
X94189Y76387D01*
X94361Y76402D01*
X94513Y76427D01*
X94645Y76462D01*
X94756Y76507D01*
X94847Y76562D01*
X94918Y76627D01*
X94969Y76702D01*
X94999Y76787D01*
X95009Y76882D01*
Y74882D01*
D02*
G37*
G36*
X92983Y76787D02*
X93013Y76702D01*
X93063Y76627D01*
X93133Y76562D01*
X93223Y76507D01*
X93333Y76462D01*
X93463Y76427D01*
X93613Y76402D01*
X93783Y76387D01*
X93973Y76382D01*
Y75382D01*
X93783Y75377D01*
X93613Y75362D01*
X93463Y75337D01*
X93333Y75302D01*
X93223Y75257D01*
X93133Y75202D01*
X93063Y75137D01*
X93013Y75062D01*
X92983Y74977D01*
X92973Y74882D01*
Y76882D01*
X92983Y76787D01*
D02*
G37*
G36*
X65488Y74394D02*
X65457Y74389D01*
X65430Y74375D01*
X65405Y74352D01*
X65384Y74319D01*
X65366Y74277D01*
X65351Y74225D01*
X65340Y74164D01*
X65332Y74094D01*
X65327Y74014D01*
X65325Y73925D01*
X64825D01*
X64823Y74016D01*
X64816Y74097D01*
X64806Y74169D01*
X64790Y74231D01*
X64770Y74284D01*
X64746Y74327D01*
X64718Y74361D01*
X64685Y74386D01*
X64648Y74401D01*
X64606Y74406D01*
X65488Y74394D01*
D02*
G37*
G36*
X70448Y75329D02*
X70429Y75265D01*
Y75191D01*
X70448Y75107D01*
X70488Y75013D01*
X70547Y74909D01*
X70627Y74795D01*
X70726Y74671D01*
X70983Y74394D01*
X70488Y73899D01*
X70345Y74037D01*
X70087Y74255D01*
X69973Y74335D01*
X69869Y74394D01*
X69775Y74433D01*
X69691Y74453D01*
X69617D01*
X69552Y74433D01*
X69498Y74394D01*
X70488Y75384D01*
X70448Y75329D01*
D02*
G37*
G36*
X39130Y74377D02*
X39088Y74361D01*
X39050Y74336D01*
X39018Y74300D01*
X38990Y74254D01*
X38968Y74198D01*
X38950Y74131D01*
X38938Y74054D01*
X38930Y73967D01*
X38928Y73870D01*
X38428D01*
X38425Y73967D01*
X38418Y74054D01*
X38405Y74131D01*
X38388Y74198D01*
X38365Y74254D01*
X38338Y74300D01*
X38305Y74336D01*
X38268Y74361D01*
X38225Y74377D01*
X38178Y74382D01*
X39178D01*
X39130Y74377D01*
D02*
G37*
G36*
X34488Y74370D02*
X34443Y74365D01*
X34402Y74350D01*
X34367Y74325D01*
X34336Y74290D01*
X34310Y74245D01*
X34288Y74190D01*
X34271Y74125D01*
X34260Y74050D01*
X34252Y73965D01*
X34250Y73870D01*
X33750D01*
X33748Y73967D01*
X33740Y74053D01*
X33727Y74130D01*
X33710Y74196D01*
X33687Y74252D01*
X33660Y74299D01*
X33628Y74335D01*
X33590Y74360D01*
X33547Y74376D01*
X33500Y74382D01*
X34488Y74370D01*
D02*
G37*
G36*
X102880Y74350D02*
X102797Y74290D01*
X102724Y74190D01*
X102660Y74050D01*
X102607Y73870D01*
X102563Y73650D01*
X102529Y73390D01*
X102490Y72750D01*
X102485Y72370D01*
X100485D01*
X100480Y72750D01*
X100407Y73650D01*
X100363Y73870D01*
X100309Y74050D01*
X100246Y74190D01*
X100172Y74290D01*
X100089Y74350D01*
X99997Y74370D01*
X102973D01*
X102880Y74350D01*
D02*
G37*
G36*
X39937Y71588D02*
X40088Y71465D01*
X40156Y71421D01*
X40219Y71390D01*
X40277Y71370D01*
X40329Y71363D01*
X40377Y71367D01*
X40419Y71384D01*
X40456Y71412D01*
X39756Y70712D01*
X39784Y70749D01*
X39801Y70792D01*
X39805Y70839D01*
X39798Y70892D01*
X39779Y70949D01*
X39747Y71012D01*
X39704Y71080D01*
X39648Y71153D01*
X39580Y71231D01*
X39500Y71314D01*
X39854Y71668D01*
X39937Y71588D01*
D02*
G37*
G36*
X35869Y71488D02*
X36017Y71368D01*
X36082Y71327D01*
X36142Y71298D01*
X36196Y71282D01*
X36245Y71279D01*
X36288Y71288D01*
X36325Y71310D01*
X36356Y71345D01*
X35783Y70521D01*
X35805Y70564D01*
X35816Y70611D01*
X35815Y70663D01*
X35803Y70720D01*
X35780Y70781D01*
X35745Y70847D01*
X35698Y70917D01*
X35640Y70992D01*
X35571Y71072D01*
X35490Y71157D01*
X35786Y71567D01*
X35869Y71488D01*
D02*
G37*
G36*
X56799Y70397D02*
X56861Y70350D01*
X56928Y70310D01*
X57000Y70275D01*
X57076Y70245D01*
X57158Y70221D01*
X57244Y70203D01*
X57336Y70190D01*
X57432Y70182D01*
X57533Y70181D01*
X56656Y69304D01*
X56655Y69405D01*
X56647Y69501D01*
X56634Y69593D01*
X56616Y69679D01*
X56592Y69761D01*
X56562Y69837D01*
X56527Y69909D01*
X56486Y69976D01*
X56440Y70038D01*
X56388Y70095D01*
X56742Y70448D01*
X56799Y70397D01*
D02*
G37*
G36*
X60261Y69098D02*
X60323Y69051D01*
X60390Y69011D01*
X60462Y68976D01*
X60538Y68946D01*
X60620Y68922D01*
X60706Y68904D01*
X60798Y68891D01*
X60894Y68883D01*
X60995Y68882D01*
X60118Y68005D01*
X60117Y68106D01*
X60109Y68202D01*
X60096Y68294D01*
X60078Y68380D01*
X60054Y68462D01*
X60024Y68538D01*
X59989Y68610D01*
X59949Y68677D01*
X59902Y68739D01*
X59851Y68796D01*
X60204Y69149D01*
X60261Y69098D01*
D02*
G37*
G36*
X48034Y65791D02*
X48008Y65832D01*
X47975Y65859D01*
X47936Y65873D01*
X47891Y65874D01*
X47840Y65861D01*
X47782Y65834D01*
X47717Y65794D01*
X47646Y65741D01*
X47569Y65675D01*
X47486Y65595D01*
X47244Y66060D01*
X47327Y66146D01*
X47461Y66307D01*
X47511Y66381D01*
X47550Y66451D01*
X47577Y66516D01*
X47594Y66577D01*
X47600Y66634D01*
X47594Y66686D01*
X47577Y66735D01*
X48034Y65791D01*
D02*
G37*
G36*
X44097D02*
X44071Y65832D01*
X44038Y65859D01*
X43999Y65873D01*
X43954Y65874D01*
X43903Y65861D01*
X43845Y65834D01*
X43780Y65794D01*
X43709Y65741D01*
X43632Y65675D01*
X43549Y65595D01*
X43307Y66060D01*
X43390Y66146D01*
X43524Y66307D01*
X43574Y66381D01*
X43613Y66451D01*
X43640Y66516D01*
X43657Y66577D01*
X43663Y66634D01*
X43657Y66686D01*
X43640Y66735D01*
X44097Y65791D01*
D02*
G37*
G36*
X130495Y66546D02*
X130516Y66507D01*
X130551Y66473D01*
X130600Y66443D01*
X130663Y66418D01*
X130740Y66398D01*
X130831Y66382D01*
X130936Y66370D01*
X131188Y66361D01*
Y65661D01*
X131055Y65659D01*
X130831Y65640D01*
X130740Y65624D01*
X130663Y65604D01*
X130600Y65579D01*
X130551Y65549D01*
X130516Y65515D01*
X130495Y65476D01*
X130488Y65432D01*
Y66589D01*
X130495Y66546D01*
D02*
G37*
G36*
X85613Y65118D02*
X85633Y64893D01*
X85645Y64838D01*
X85659Y64793D01*
X85676Y64758D01*
X85696Y64733D01*
X85719Y64718D01*
X85744Y64713D01*
X84980D01*
X85005Y64718D01*
X85028Y64733D01*
X85048Y64758D01*
X85065Y64793D01*
X85079Y64838D01*
X85091Y64893D01*
X85100Y64958D01*
X85107Y65033D01*
X85112Y65213D01*
X85612D01*
X85613Y65118D01*
D02*
G37*
G36*
X84038D02*
X84058Y64893D01*
X84070Y64838D01*
X84084Y64793D01*
X84101Y64758D01*
X84121Y64733D01*
X84144Y64718D01*
X84169Y64713D01*
X83405D01*
X83430Y64718D01*
X83453Y64733D01*
X83473Y64758D01*
X83490Y64793D01*
X83504Y64838D01*
X83516Y64893D01*
X83525Y64958D01*
X83532Y65033D01*
X83537Y65213D01*
X84037D01*
X84038Y65118D01*
D02*
G37*
G36*
X77870Y64713D02*
X77106D01*
X77112Y64720D01*
X77118Y64741D01*
X77122Y64776D01*
X77130Y64888D01*
X77138Y65413D01*
X77838D01*
X77870Y64713D01*
D02*
G37*
G36*
X73015Y65118D02*
X73035Y64893D01*
X73047Y64838D01*
X73061Y64793D01*
X73079Y64758D01*
X73098Y64733D01*
X73121Y64718D01*
X73146Y64713D01*
X72382D01*
X72407Y64718D01*
X72430Y64733D01*
X72449Y64758D01*
X72467Y64793D01*
X72481Y64838D01*
X72493Y64893D01*
X72502Y64958D01*
X72509Y65033D01*
X72514Y65213D01*
X73014D01*
X73015Y65118D01*
D02*
G37*
G36*
X82628Y65363D02*
X82520Y65199D01*
X82477Y65119D01*
X82440Y65040D01*
X82410Y64961D01*
X82392Y64902D01*
X82394Y64893D01*
X82415Y64838D01*
X82442Y64793D01*
X82472Y64758D01*
X82508Y64733D01*
X82548Y64718D01*
X82594Y64713D01*
X82358D01*
X82356Y64657D01*
X81856Y64595D01*
X81852Y64673D01*
X81846Y64713D01*
X81830D01*
X81835Y64718D01*
X81840Y64733D01*
X81841Y64744D01*
X81840Y64750D01*
X81820Y64825D01*
X81793Y64899D01*
X81757Y64970D01*
X81713Y65039D01*
X81662Y65107D01*
X81603Y65172D01*
X81535Y65236D01*
X81460Y65298D01*
X82691Y65446D01*
X82628Y65363D01*
D02*
G37*
G36*
X125394Y63464D02*
X125384Y63475D01*
X125354Y63485D01*
X125304Y63493D01*
X125234Y63501D01*
X124904Y63516D01*
X124394Y63521D01*
Y64521D01*
X124584Y64522D01*
X125304Y64570D01*
X125354Y64585D01*
X125384Y64602D01*
X125394Y64621D01*
Y63464D01*
D02*
G37*
G36*
X123145Y64613D02*
X123180Y64594D01*
X123223Y64577D01*
X123275Y64562D01*
X123334Y64550D01*
X123401Y64539D01*
X123558Y64526D01*
X123748Y64521D01*
X123777Y63521D01*
X123678Y63520D01*
X123430Y63501D01*
X123363Y63490D01*
X123304Y63476D01*
X123253Y63459D01*
X123210Y63441D01*
X123175Y63419D01*
X123147Y63395D01*
X123118Y64635D01*
X123145Y64613D01*
D02*
G37*
G36*
X8667Y66156D02*
X8557Y66020D01*
X8459Y65845D01*
X8372Y65630D01*
X8298Y65376D01*
X8237Y65083D01*
X8187Y64751D01*
X8124Y63969D01*
X8110Y63029D01*
X5187Y65953D01*
X5676Y65954D01*
X6909Y66030D01*
X7241Y66079D01*
X7534Y66141D01*
X7788Y66215D01*
X8002Y66301D01*
X8178Y66400D01*
X8314Y66510D01*
X8667Y66156D01*
D02*
G37*
G36*
X52801Y62512D02*
X52781Y62604D01*
X52721Y62687D01*
X52621Y62761D01*
X52481Y62824D01*
X52301Y62878D01*
X52081Y62922D01*
X51821Y62956D01*
X51181Y62995D01*
X50801Y63000D01*
Y65000D01*
X51181Y65005D01*
X52081Y65078D01*
X52301Y65122D01*
X52481Y65175D01*
X52621Y65239D01*
X52721Y65312D01*
X52781Y65395D01*
X52801Y65488D01*
Y62512D01*
D02*
G37*
G36*
X81006Y62112D02*
X80994Y62091D01*
X80984Y62056D01*
X80975Y62007D01*
X80967Y61944D01*
X80955Y61776D01*
X80953Y61624D01*
X80959Y61552D01*
X80972Y61471D01*
X80990Y61394D01*
X81014Y61320D01*
X81042Y61249D01*
X81076Y61182D01*
X81115Y61118D01*
X81158Y61058D01*
X81208Y61001D01*
X79969Y61055D01*
X80022Y61107D01*
X80070Y61164D01*
X80112Y61224D01*
X80148Y61288D01*
X80179Y61357D01*
X80204Y61429D01*
X80224Y61505D01*
X80238Y61585D01*
X80246Y61669D01*
X80249Y61757D01*
X80253Y61757D01*
X80256Y62119D01*
X81020D01*
X81006Y62112D01*
D02*
G37*
G36*
X60894Y65085D02*
X60928Y65067D01*
X60983Y65052D01*
X61062Y65038D01*
X61162Y65026D01*
X61598Y65004D01*
X62000Y65000D01*
Y63001D01*
X62108Y63109D01*
X62084Y63112D01*
X62009Y63114D01*
X62886Y63991D01*
X62888Y63916D01*
X62891Y63892D01*
X63000Y64001D01*
X63013Y63891D01*
X63053Y63766D01*
X63119Y63623D01*
X63212Y63465D01*
X63331Y63290D01*
X63477Y63099D01*
X63848Y62668D01*
X64324Y62171D01*
X63829Y61676D01*
X63573Y61927D01*
X62710Y62669D01*
X62535Y62788D01*
X62377Y62881D01*
X62234Y62947D01*
X62109Y62987D01*
X61999Y63000D01*
X61788Y62999D01*
X60983Y62949D01*
X60928Y62933D01*
X60894Y62915D01*
X60883Y62895D01*
Y65105D01*
X60894Y65085D01*
D02*
G37*
G36*
X125406Y61574D02*
X125401Y61621D01*
X125385Y61664D01*
X125360Y61701D01*
X125324Y61734D01*
X125278Y61761D01*
X125222Y61784D01*
X125155Y61801D01*
X125078Y61814D01*
X124991Y61821D01*
X124894Y61824D01*
Y62324D01*
X124991Y62326D01*
X125078Y62334D01*
X125155Y62346D01*
X125222Y62364D01*
X125278Y62386D01*
X125324Y62414D01*
X125360Y62446D01*
X125385Y62484D01*
X125401Y62526D01*
X125406Y62574D01*
Y61574D01*
D02*
G37*
G36*
X76289Y62112D02*
X76283Y62091D01*
X76279Y62056D01*
X76271Y61944D01*
X76263Y61419D01*
X75563D01*
X75531Y62119D01*
X76295D01*
X76289Y62112D01*
D02*
G37*
G36*
X90465D02*
X90463Y62091D01*
X90460Y62007D01*
X90458Y61756D01*
X90458Y61750D01*
X90466Y61666D01*
X90480Y61586D01*
X90499Y61509D01*
X90524Y61436D01*
X90554Y61368D01*
X90590Y61303D01*
X90632Y61242D01*
X90678Y61184D01*
X90731Y61130D01*
X89491Y61103D01*
X89541Y61159D01*
X89586Y61219D01*
X89626Y61282D01*
X89660Y61348D01*
X89689Y61418D01*
X89713Y61492D01*
X89732Y61569D01*
X89745Y61649D01*
X89747Y61677D01*
X89723Y62091D01*
X89714Y62112D01*
X89704Y62119D01*
X90468D01*
X90465Y62112D01*
D02*
G37*
G36*
X97717Y60594D02*
X97732Y60571D01*
X97757Y60552D01*
X97792Y60534D01*
X97837Y60520D01*
X97892Y60508D01*
X97957Y60499D01*
X98032Y60492D01*
X98212Y60487D01*
Y59987D01*
X98117Y59986D01*
X97892Y59966D01*
X97837Y59954D01*
X97792Y59940D01*
X97757Y59922D01*
X97732Y59903D01*
X97717Y59880D01*
X97712Y59855D01*
Y60619D01*
X97717Y60594D01*
D02*
G37*
G36*
X70888Y60613D02*
X70909Y60607D01*
X70944Y60602D01*
X71056Y60595D01*
X71581Y60587D01*
Y59887D01*
X70881Y59855D01*
Y60619D01*
X70888Y60613D01*
D02*
G37*
G36*
X68287Y59855D02*
X68280Y59861D01*
X68259Y59867D01*
X68224Y59872D01*
X68112Y59879D01*
X67587Y59887D01*
Y60587D01*
X68287Y60619D01*
Y59855D01*
D02*
G37*
G36*
X125406Y59605D02*
X125401Y59653D01*
X125385Y59695D01*
X125360Y59733D01*
X125324Y59765D01*
X125278Y59793D01*
X125222Y59815D01*
X125155Y59833D01*
X125078Y59845D01*
X124991Y59853D01*
X124894Y59855D01*
Y60355D01*
X124991Y60358D01*
X125078Y60365D01*
X125155Y60378D01*
X125222Y60395D01*
X125278Y60418D01*
X125324Y60445D01*
X125360Y60478D01*
X125385Y60515D01*
X125401Y60558D01*
X125406Y60605D01*
Y59605D01*
D02*
G37*
G36*
X59790Y59109D02*
X59837Y59091D01*
X59901Y59075D01*
X59983Y59062D01*
X60199Y59041D01*
X60654Y59026D01*
X60840Y59025D01*
Y58525D01*
X60654Y58524D01*
X59901Y58474D01*
X59837Y58458D01*
X59790Y58441D01*
X59760Y58421D01*
Y59128D01*
X59790Y59109D01*
D02*
G37*
G36*
X97717Y59019D02*
X97732Y58996D01*
X97757Y58977D01*
X97792Y58959D01*
X97837Y58945D01*
X97892Y58933D01*
X97957Y58924D01*
X98032Y58917D01*
X98212Y58912D01*
Y58412D01*
X98117Y58411D01*
X97892Y58391D01*
X97837Y58379D01*
X97792Y58365D01*
X97757Y58347D01*
X97732Y58328D01*
X97717Y58305D01*
X97712Y58280D01*
Y59044D01*
X97717Y59019D01*
D02*
G37*
G36*
X60888Y59227D02*
X60903Y59185D01*
X60929Y59147D01*
X60965Y59115D01*
X61011Y59087D01*
X61067Y59065D01*
X61134Y59047D01*
X61211Y59035D01*
X61298Y59027D01*
X61395Y59025D01*
Y58525D01*
X61298Y58522D01*
X61211Y58515D01*
X61134Y58502D01*
X61067Y58485D01*
X61011Y58462D01*
X60965Y58435D01*
X60929Y58402D01*
X60903Y58365D01*
X60888Y58322D01*
X60883Y58275D01*
Y59275D01*
X60888Y59227D01*
D02*
G37*
G36*
X125406Y57637D02*
X125401Y57684D01*
X125385Y57727D01*
X125360Y57764D01*
X125324Y57797D01*
X125278Y57824D01*
X125222Y57847D01*
X125155Y57864D01*
X125078Y57877D01*
X124991Y57884D01*
X124894Y57887D01*
Y58387D01*
X124991Y58389D01*
X125078Y58397D01*
X125155Y58409D01*
X125222Y58427D01*
X125278Y58449D01*
X125324Y58477D01*
X125360Y58509D01*
X125385Y58547D01*
X125401Y58589D01*
X125406Y58637D01*
Y57637D01*
D02*
G37*
G36*
X52801Y57287D02*
X52781Y57379D01*
X52721Y57462D01*
X52621Y57535D01*
X52481Y57599D01*
X52301Y57653D01*
X52081Y57696D01*
X51821Y57731D01*
X51181Y57770D01*
X50801Y57775D01*
Y59775D01*
X51181Y59780D01*
X52081Y59853D01*
X52301Y59897D01*
X52481Y59950D01*
X52621Y60014D01*
X52721Y60087D01*
X52781Y60170D01*
X52801Y60263D01*
Y57287D01*
D02*
G37*
G36*
X143353Y57612D02*
X143364Y57491D01*
X143382Y57384D01*
X143406Y57291D01*
X143438Y57213D01*
X143476Y57149D01*
X143521Y57099D01*
X143574Y57064D01*
X143633Y57042D01*
X143700Y57035D01*
X142300D01*
X142367Y57042D01*
X142426Y57064D01*
X142479Y57099D01*
X142524Y57149D01*
X142562Y57213D01*
X142594Y57291D01*
X142619Y57384D01*
X142636Y57491D01*
X142647Y57612D01*
X142650Y57747D01*
X143350D01*
X143353Y57612D01*
D02*
G37*
G36*
X97717Y57444D02*
X97732Y57421D01*
X97757Y57402D01*
X97792Y57384D01*
X97837Y57370D01*
X97892Y57358D01*
X97957Y57349D01*
X98032Y57342D01*
X98212Y57337D01*
Y56837D01*
X98117Y56836D01*
X97892Y56816D01*
X97837Y56804D01*
X97792Y56790D01*
X97757Y56773D01*
X97732Y56753D01*
X97717Y56730D01*
X97712Y56705D01*
Y57469D01*
X97717Y57444D01*
D02*
G37*
G36*
X68287Y56705D02*
X68282Y56714D01*
X68267Y56721D01*
X68242Y56728D01*
X68207Y56734D01*
X68162Y56739D01*
X67967Y56748D01*
X67787Y56750D01*
Y57250D01*
X67882Y57252D01*
X67967Y57259D01*
X68042Y57270D01*
X68107Y57285D01*
X68162Y57305D01*
X68207Y57329D01*
X68242Y57357D01*
X68267Y57390D01*
X68282Y57427D01*
X68287Y57469D01*
Y56705D01*
D02*
G37*
G36*
X60312Y57277D02*
X60227Y57247D01*
X60152Y57197D01*
X60087Y57127D01*
X60032Y57037D01*
X59987Y56927D01*
X59952Y56797D01*
X59927Y56647D01*
X59912Y56477D01*
X59907Y56287D01*
X58907D01*
X58902Y56477D01*
X58887Y56647D01*
X58862Y56797D01*
X58827Y56927D01*
X58782Y57037D01*
X58727Y57127D01*
X58662Y57197D01*
X58587Y57247D01*
X58502Y57277D01*
X58407Y57287D01*
X60407D01*
X60312Y57277D01*
D02*
G37*
G36*
X125406Y55668D02*
X125401Y55716D01*
X125385Y55758D01*
X125360Y55796D01*
X125324Y55828D01*
X125278Y55856D01*
X125222Y55878D01*
X125155Y55896D01*
X125078Y55908D01*
X124991Y55916D01*
X124894Y55918D01*
Y56418D01*
X124991Y56421D01*
X125078Y56428D01*
X125155Y56441D01*
X125222Y56458D01*
X125278Y56481D01*
X125324Y56508D01*
X125360Y56541D01*
X125385Y56578D01*
X125401Y56621D01*
X125406Y56668D01*
Y55668D01*
D02*
G37*
G36*
X97717Y55870D02*
X97732Y55847D01*
X97757Y55827D01*
X97792Y55810D01*
X97837Y55796D01*
X97892Y55784D01*
X97957Y55775D01*
X98032Y55768D01*
X98212Y55763D01*
Y55263D01*
X98117Y55262D01*
X97892Y55242D01*
X97837Y55230D01*
X97792Y55216D01*
X97757Y55199D01*
X97732Y55179D01*
X97717Y55156D01*
X97712Y55131D01*
Y55895D01*
X97717Y55870D01*
D02*
G37*
G36*
X68287Y55131D02*
X68282Y55156D01*
X68267Y55179D01*
X68242Y55199D01*
X68207Y55216D01*
X68162Y55230D01*
X68107Y55242D01*
X68042Y55251D01*
X67967Y55258D01*
X67787Y55263D01*
Y55763D01*
X67882Y55764D01*
X68107Y55784D01*
X68162Y55796D01*
X68207Y55810D01*
X68242Y55827D01*
X68267Y55847D01*
X68282Y55870D01*
X68287Y55895D01*
Y55131D01*
D02*
G37*
G36*
X59912Y55845D02*
X59927Y55673D01*
X59952Y55521D01*
X59987Y55390D01*
X60032Y55278D01*
X60087Y55187D01*
X60152Y55117D01*
X60227Y55066D01*
X60312Y55036D01*
X60407Y55026D01*
X58407D01*
X58502Y55036D01*
X58587Y55066D01*
X58662Y55117D01*
X58727Y55187D01*
X58782Y55278D01*
X58827Y55390D01*
X58862Y55521D01*
X58887Y55673D01*
X58902Y55845D01*
X58907Y56037D01*
X59907D01*
X59912Y55845D01*
D02*
G37*
G36*
X71359Y54219D02*
X71381Y54219D01*
Y53719D01*
X71377Y53719D01*
X71390Y53358D01*
X71314Y53427D01*
X71238Y53488D01*
X71162Y53542D01*
X71086Y53589D01*
X71010Y53629D01*
X70950Y53654D01*
X70926Y53639D01*
X70901Y53615D01*
X70886Y53587D01*
X70881Y53556D01*
Y53679D01*
X70857Y53686D01*
X70781Y53705D01*
X70705Y53715D01*
X70628Y53719D01*
X70610Y54219D01*
X70688Y54223D01*
X70764Y54234D01*
X70840Y54253D01*
X70881Y54268D01*
Y54320D01*
X70886Y54301D01*
X70901Y54283D01*
X70910Y54278D01*
X70915Y54280D01*
X70989Y54314D01*
X71062Y54355D01*
X71135Y54404D01*
X71206Y54461D01*
X71276Y54526D01*
X71346Y54598D01*
X71359Y54219D01*
D02*
G37*
G36*
X130495Y54716D02*
X130516Y54660D01*
X130551Y54611D01*
X130600Y54568D01*
X130663Y54532D01*
X130740Y54502D01*
X130831Y54479D01*
X130936Y54463D01*
X131055Y54453D01*
X131188Y54450D01*
Y53750D01*
X131055Y53749D01*
X130663Y53718D01*
X130600Y53704D01*
X130551Y53687D01*
X130516Y53668D01*
X130495Y53646D01*
X130488Y53621D01*
Y54778D01*
X130495Y54716D01*
D02*
G37*
G36*
X196086Y46000D02*
X196144Y45707D01*
X196310Y45459D01*
X196558Y45294D01*
X196850Y45235D01*
X198000D01*
Y44698D01*
X197905D01*
X197209Y44606D01*
X196561Y44338D01*
X196004Y43911D01*
X195577Y43354D01*
X195309Y42706D01*
X195217Y42010D01*
X195309Y41314D01*
X195577Y40666D01*
X196004Y40109D01*
X196561Y39682D01*
X197209Y39414D01*
X197905Y39322D01*
X198000D01*
Y38200D01*
X197500Y38100D01*
X197383Y38383D01*
X197000Y38542D01*
X179161D01*
X178778Y38383D01*
X178619Y38001D01*
Y34000D01*
X178778Y33617D01*
X179161Y33459D01*
X180979D01*
Y32874D01*
X181295D01*
X181459Y32629D01*
Y29188D01*
X181617Y28806D01*
X181660Y28788D01*
Y27990D01*
X179452D01*
X177020Y30422D01*
Y33060D01*
X177175Y33215D01*
X177386Y33724D01*
Y34276D01*
X177175Y34785D01*
X176785Y35175D01*
X176276Y35386D01*
X175724D01*
X175215Y35175D01*
X174825Y34785D01*
X174614Y34276D01*
Y33724D01*
X174825Y33215D01*
X174980Y33060D01*
Y30000D01*
X175058Y29610D01*
X175279Y29279D01*
X178309Y26249D01*
X178640Y26028D01*
X179030Y25950D01*
X181660D01*
Y25090D01*
X181660D01*
Y24910D01*
X181660D01*
Y24050D01*
X178392D01*
X174167Y28275D01*
Y30806D01*
X174189Y30856D01*
X174191Y31037D01*
X174198Y31168D01*
X174208Y31256D01*
X174210Y31265D01*
X174211Y31269D01*
X174211Y31271D01*
X174216Y31289D01*
X174213Y31308D01*
X174386Y31724D01*
Y32276D01*
X174175Y32785D01*
X173785Y33175D01*
X173276Y33386D01*
X172724D01*
X172215Y33175D01*
X171825Y32785D01*
X171614Y32276D01*
Y31724D01*
X171825Y31215D01*
X172071Y30970D01*
X172075Y30958D01*
X172076Y30951D01*
X172081Y30942D01*
X172084Y30933D01*
X172090Y30905D01*
X172095Y30867D01*
X172105Y30730D01*
X172107Y30647D01*
X172128Y30598D01*
X172118Y30545D01*
X172128Y30530D01*
Y27852D01*
X172206Y27462D01*
X172427Y27131D01*
X177249Y22309D01*
X177580Y22088D01*
X177970Y22010D01*
X181660D01*
Y21150D01*
X181660Y21150D01*
X181623Y21064D01*
X181617Y21061D01*
X181459Y20679D01*
Y17239D01*
X181384Y17126D01*
X180979D01*
Y16542D01*
X175161D01*
X174778Y16384D01*
X174619Y16001D01*
Y12000D01*
X174778Y11617D01*
X175161Y11459D01*
X193000D01*
X193383Y11617D01*
X193541Y12000D01*
Y16001D01*
X193474Y16163D01*
X193756Y16663D01*
X198000D01*
Y10678D01*
X197905D01*
X197209Y10586D01*
X196561Y10318D01*
X196004Y9891D01*
X195577Y9334D01*
X195309Y8686D01*
X195217Y7990D01*
X195309Y7294D01*
X195577Y6646D01*
X196004Y6089D01*
X196561Y5662D01*
X197209Y5394D01*
X197905Y5302D01*
X198000D01*
Y4765D01*
X196850D01*
X196558Y4707D01*
X196310Y4541D01*
X196144Y4293D01*
X196086Y4000D01*
Y2000D01*
X95384D01*
X95199Y2500D01*
X96056Y3357D01*
X96831Y4517D01*
X97365Y5807D01*
X97542Y6693D01*
X83561D01*
X83737Y5807D01*
X84271Y4517D01*
X85047Y3357D01*
X85903Y2500D01*
X85719Y2000D01*
X64000D01*
Y10201D01*
X64937D01*
Y12799D01*
X66479D01*
X68441Y10837D01*
Y9366D01*
X68284Y8931D01*
X68062Y8708D01*
X66819Y7466D01*
Y6591D01*
X70000D01*
Y6000D01*
X70591D01*
Y3069D01*
X71715D01*
X73000Y4353D01*
X73500Y4146D01*
Y3750D01*
X78500D01*
Y8250D01*
X77020D01*
Y9000D01*
X77559D01*
Y13000D01*
X73559D01*
Y9000D01*
X74980D01*
Y8250D01*
X73500D01*
Y7854D01*
X73000Y7647D01*
X72147Y8500D01*
X72354Y9000D01*
X72441D01*
Y13000D01*
X70604D01*
X68194Y15410D01*
X67698Y15741D01*
X67112Y15858D01*
X64937D01*
Y23799D01*
X62201D01*
X62000Y24000D01*
Y25319D01*
X63969D01*
Y28000D01*
Y30681D01*
X62000D01*
Y40201D01*
X62030D01*
Y45563D01*
X62000D01*
Y52948D01*
X62090Y53009D01*
X63830Y54748D01*
X67713D01*
X67771Y54722D01*
X67775Y54722D01*
Y52381D01*
X67465Y52174D01*
X66914D01*
X66404Y51963D01*
X66014Y51573D01*
X65803Y51064D01*
Y50694D01*
X65661Y50599D01*
X65109D01*
X64600Y50388D01*
X64210Y49998D01*
X63999Y49489D01*
Y48937D01*
X64210Y48428D01*
X64600Y48038D01*
X65109Y47827D01*
X65661D01*
X66170Y48038D01*
X66560Y48428D01*
X66568Y48448D01*
X67713D01*
X67771Y48422D01*
X67775Y48422D01*
Y45389D01*
X67563Y45380D01*
X67511Y45356D01*
X66489D01*
X66157Y45290D01*
X65876Y45102D01*
X64387Y43613D01*
X64199Y43332D01*
X64133Y43000D01*
Y39000D01*
X64199Y38668D01*
X64387Y38387D01*
X68133Y34641D01*
Y26000D01*
X68199Y25668D01*
X68387Y25387D01*
X76481Y17293D01*
X76762Y17106D01*
X77094Y17040D01*
X96735D01*
X98387Y15387D01*
X98668Y15199D01*
X99000Y15133D01*
X106661D01*
X106792Y14958D01*
X106889Y14654D01*
X106204Y13969D01*
X104874D01*
Y9031D01*
X107646D01*
X107933Y8651D01*
Y8350D01*
X109409D01*
Y11500D01*
X110591D01*
Y8350D01*
X111861D01*
X112072Y8344D01*
X112354Y7970D01*
Y7783D01*
X112565Y7274D01*
X112955Y6884D01*
X113464Y6673D01*
X114016D01*
X114525Y6884D01*
X114915Y7274D01*
X115126Y7783D01*
Y8335D01*
X115044Y8531D01*
X115126Y9031D01*
X115126Y9031D01*
Y9473D01*
X115155Y9544D01*
X115140Y9580D01*
X115150Y9619D01*
X115126Y9659D01*
Y13969D01*
X112567D01*
X112354Y13969D01*
X112067Y14349D01*
Y14650D01*
X112430Y14980D01*
X114000D01*
X114390Y15058D01*
X114721Y15279D01*
X116857Y17415D01*
X117319Y17223D01*
Y16878D01*
X117848D01*
X118000Y16441D01*
X118000Y16378D01*
Y12441D01*
X118980D01*
Y11941D01*
X118825Y11785D01*
X118614Y11276D01*
Y10725D01*
X118825Y10215D01*
X119215Y9826D01*
X119724Y9614D01*
X120275D01*
X120785Y9826D01*
X121175Y10215D01*
X121386Y10725D01*
Y11276D01*
X121175Y11785D01*
X121019Y11941D01*
Y12441D01*
X122000D01*
Y13422D01*
X122500D01*
X122656Y13266D01*
X123165Y13055D01*
X123716D01*
X124226Y13266D01*
X124616Y13656D01*
X124826Y14166D01*
Y14717D01*
X124616Y15226D01*
X124226Y15616D01*
X123716Y15827D01*
X123165D01*
X122656Y15616D01*
X122500Y15461D01*
X122000D01*
Y16378D01*
X122000Y16441D01*
X122152Y16878D01*
X122681D01*
Y18969D01*
X120000D01*
Y19559D01*
X119409D01*
Y22241D01*
X118020D01*
Y24060D01*
X118175Y24215D01*
X118386Y24724D01*
Y25276D01*
X118175Y25785D01*
X117785Y26175D01*
X117276Y26386D01*
X116724D01*
X116215Y26175D01*
X115825Y25785D01*
X115614Y25276D01*
Y24997D01*
X115126Y24969D01*
X115114Y24969D01*
X112354D01*
X112067Y25349D01*
Y25650D01*
X112430Y25980D01*
X113000D01*
X113390Y26058D01*
X113721Y26279D01*
X114689Y27247D01*
X114910Y27577D01*
X114987Y27968D01*
Y28382D01*
X116142D01*
Y32319D01*
X116799D01*
Y34409D01*
X114118D01*
Y35000D01*
X113528D01*
Y37681D01*
X111437D01*
Y37152D01*
X111000Y37000D01*
Y37000D01*
X107000D01*
Y33000D01*
X108004D01*
Y32382D01*
X107024D01*
Y31283D01*
X106941Y31276D01*
X106822Y31273D01*
X106767Y31248D01*
X102382D01*
X102050Y31182D01*
X101769Y30994D01*
X91241Y20466D01*
X90779Y20658D01*
Y22025D01*
X88098D01*
Y23206D01*
X90779D01*
Y25296D01*
X90250D01*
X90098Y25733D01*
X90098D01*
Y26714D01*
X90648D01*
X91038Y26791D01*
X91369Y27012D01*
X93990Y29633D01*
X94040Y29653D01*
X94170Y29780D01*
X94268Y29868D01*
X94337Y29924D01*
X94345Y29929D01*
X94349Y29931D01*
X94351Y29933D01*
X94367Y29943D01*
X94380Y29959D01*
X94785Y30127D01*
X95175Y30517D01*
X95386Y31027D01*
Y31578D01*
X95175Y32087D01*
X94785Y32477D01*
X94276Y32688D01*
X93724D01*
X93215Y32477D01*
X92825Y32087D01*
X92614Y31578D01*
Y31221D01*
X92610Y31212D01*
X92606Y31207D01*
X92603Y31196D01*
X92599Y31189D01*
X92584Y31165D01*
X92561Y31135D01*
X92471Y31031D01*
X92414Y30972D01*
X92394Y30921D01*
X92390Y30918D01*
X92348Y30888D01*
X92345Y30872D01*
X90598Y29125D01*
X90098Y29332D01*
Y29733D01*
X89666D01*
X89459Y30233D01*
X92274Y33048D01*
X92462Y33329D01*
X92528Y33661D01*
Y34523D01*
X92552Y34580D01*
X92555Y34776D01*
X94130D01*
Y37748D01*
X94148Y37776D01*
X94138Y37831D01*
X94159Y37882D01*
X94130Y37953D01*
Y38394D01*
X94454Y38760D01*
X94611Y38825D01*
X94658Y38871D01*
X98224D01*
Y42020D01*
Y46745D01*
Y51574D01*
X98281Y51598D01*
X120320D01*
X121678Y50241D01*
X121487Y49779D01*
X113279D01*
Y41692D01*
X122941D01*
Y48324D01*
X123403Y48516D01*
X126235Y45683D01*
Y40620D01*
X126209Y40561D01*
X126209Y40559D01*
X125000D01*
Y36559D01*
X129000D01*
Y40559D01*
X127791D01*
X127791Y40561D01*
X127765Y40620D01*
Y46000D01*
X127707Y46293D01*
X127541Y46541D01*
X123115Y50967D01*
X123322Y51467D01*
X124821D01*
X124880Y51440D01*
X124882Y51440D01*
Y51141D01*
X131000D01*
Y53202D01*
X131079Y53208D01*
X131193Y53209D01*
X131251Y53233D01*
X131818D01*
X131825Y53215D01*
X132215Y52825D01*
X132724Y52614D01*
X133276D01*
X133785Y52825D01*
X134175Y53215D01*
X134386Y53724D01*
Y54276D01*
X134175Y54785D01*
X133785Y55175D01*
X133276Y55386D01*
X132724D01*
X132215Y55175D01*
X132007Y54967D01*
X131256D01*
X131201Y54991D01*
X131084Y54994D01*
X131000Y55001D01*
X131000Y55001D01*
Y60000D01*
X142133D01*
Y57816D01*
X142109Y57761D01*
X142106Y57642D01*
X142099Y57559D01*
X141000D01*
Y53559D01*
X145000D01*
Y57559D01*
X143901D01*
X143894Y57642D01*
X143891Y57761D01*
X143867Y57816D01*
Y60000D01*
X196086D01*
Y46000D01*
D02*
G37*
G36*
X97717Y54295D02*
X97732Y54272D01*
X97757Y54252D01*
X97792Y54235D01*
X97837Y54221D01*
X97892Y54209D01*
X97957Y54200D01*
X98032Y54193D01*
X98212Y54188D01*
Y53688D01*
X98117Y53687D01*
X97892Y53667D01*
X97837Y53655D01*
X97792Y53641D01*
X97757Y53623D01*
X97732Y53604D01*
X97717Y53581D01*
X97712Y53556D01*
Y54320D01*
X97717Y54295D01*
D02*
G37*
G36*
X59790Y53884D02*
X59837Y53866D01*
X59901Y53850D01*
X59983Y53837D01*
X60199Y53816D01*
X60654Y53801D01*
X60840Y53799D01*
Y53299D01*
X60654Y53298D01*
X59901Y53249D01*
X59837Y53233D01*
X59790Y53215D01*
X59760Y53196D01*
Y53903D01*
X59790Y53884D01*
D02*
G37*
G36*
X7568Y56895D02*
X8143Y56394D01*
X8415Y56190D01*
X8677Y56018D01*
X8930Y55877D01*
X9172Y55767D01*
X9404Y55689D01*
X9627Y55642D01*
X9839Y55626D01*
Y54626D01*
X9627Y54610D01*
X9404Y54563D01*
X9172Y54485D01*
X8930Y54375D01*
X8677Y54234D01*
X8415Y54062D01*
X8143Y53858D01*
X7568Y53357D01*
X7266Y53059D01*
Y57193D01*
X7568Y56895D01*
D02*
G37*
G36*
X60888Y54002D02*
X60903Y53960D01*
X60929Y53922D01*
X60965Y53890D01*
X61011Y53862D01*
X61067Y53839D01*
X61134Y53822D01*
X61211Y53809D01*
X61298Y53802D01*
X61395Y53799D01*
Y53299D01*
X61298Y53297D01*
X61211Y53290D01*
X61134Y53277D01*
X61067Y53259D01*
X61011Y53237D01*
X60965Y53210D01*
X60929Y53177D01*
X60903Y53140D01*
X60888Y53097D01*
X60883Y53049D01*
Y54049D01*
X60888Y54002D01*
D02*
G37*
G36*
X52813Y52303D02*
X52801Y52342D01*
X52764Y52377D01*
X52703Y52408D01*
X52618Y52434D01*
X52508Y52457D01*
X52375Y52476D01*
X52034Y52500D01*
X51595Y52508D01*
Y54508D01*
X51827Y54510D01*
X52508Y54560D01*
X52618Y54582D01*
X52703Y54609D01*
X52764Y54640D01*
X52801Y54675D01*
X52813Y54714D01*
Y52303D01*
D02*
G37*
G36*
X97717Y52720D02*
X97732Y52697D01*
X97757Y52678D01*
X97792Y52660D01*
X97837Y52646D01*
X97892Y52634D01*
X97957Y52625D01*
X98032Y52618D01*
X98212Y52613D01*
Y52113D01*
X98117Y52112D01*
X97892Y52092D01*
X97837Y52080D01*
X97792Y52066D01*
X97757Y52048D01*
X97732Y52029D01*
X97717Y52006D01*
X97712Y51981D01*
Y52745D01*
X97717Y52720D01*
D02*
G37*
G36*
X70875Y52672D02*
X70891Y52629D01*
X70917Y52592D01*
X70953Y52559D01*
X70999Y52532D01*
X71055Y52509D01*
X71122Y52492D01*
X71198Y52479D01*
X71285Y52472D01*
X71381Y52469D01*
Y51969D01*
X70881Y51981D01*
X70869Y52719D01*
X70875Y52672D01*
D02*
G37*
G36*
X125406Y51731D02*
X125401Y51779D01*
X125385Y51821D01*
X125360Y51859D01*
X125324Y51891D01*
X125278Y51919D01*
X125222Y51941D01*
X125155Y51959D01*
X125078Y51971D01*
X124991Y51979D01*
X124894Y51981D01*
Y52481D01*
X124991Y52484D01*
X125078Y52491D01*
X125155Y52504D01*
X125222Y52521D01*
X125278Y52544D01*
X125324Y52571D01*
X125360Y52604D01*
X125385Y52641D01*
X125401Y52684D01*
X125406Y52731D01*
Y51731D01*
D02*
G37*
G36*
X40367Y51380D02*
X40295Y51450D01*
X40221Y51513D01*
X40148Y51569D01*
X40073Y51617D01*
X39999Y51657D01*
X39924Y51691D01*
X39848Y51717D01*
X39772Y51735D01*
X39696Y51746D01*
X39619Y51750D01*
Y52250D01*
X39696Y52254D01*
X39772Y52265D01*
X39848Y52283D01*
X39924Y52309D01*
X39999Y52342D01*
X40073Y52383D01*
X40148Y52431D01*
X40221Y52487D01*
X40295Y52550D01*
X40367Y52620D01*
Y51380D01*
D02*
G37*
G36*
X27150Y53260D02*
X27077Y53110D01*
X27027Y52963D01*
X27002Y52818D01*
X27001Y52675D01*
X27023Y52535D01*
X27070Y52396D01*
X27141Y52260D01*
X27235Y52126D01*
X27354Y51995D01*
X26646Y51288D01*
X26473Y51451D01*
X26296Y51598D01*
X26116Y51728D01*
X25933Y51841D01*
X25746Y51938D01*
X25556Y52019D01*
X25362Y52083D01*
X25165Y52130D01*
X24965Y52160D01*
X24761Y52174D01*
X27247Y53412D01*
X27150Y53260D01*
D02*
G37*
G36*
X38105Y50429D02*
X38025Y50346D01*
X37902Y50195D01*
X37858Y50127D01*
X37827Y50064D01*
X37807Y50007D01*
X37800Y49954D01*
X37804Y49907D01*
X37821Y49864D01*
X37850Y49827D01*
X37149Y50528D01*
X37186Y50499D01*
X37229Y50482D01*
X37276Y50478D01*
X37329Y50485D01*
X37386Y50504D01*
X37449Y50536D01*
X37517Y50580D01*
X37590Y50635D01*
X37668Y50703D01*
X37751Y50783D01*
X38105Y50429D01*
D02*
G37*
G36*
X67895Y51338D02*
X67968Y51275D01*
X68042Y51219D01*
X68116Y51171D01*
X68190Y51130D01*
X68246Y51106D01*
X68267Y51122D01*
X68282Y51145D01*
X68287Y51170D01*
Y51090D01*
X68341Y51071D01*
X68417Y51053D01*
X68494Y51042D01*
X68571Y51038D01*
Y50538D01*
X68494Y50534D01*
X68417Y50523D01*
X68341Y50505D01*
X68287Y50486D01*
Y50406D01*
X68282Y50431D01*
X68267Y50454D01*
X68246Y50470D01*
X68190Y50445D01*
X68116Y50405D01*
X68042Y50357D01*
X67968Y50301D01*
X67895Y50238D01*
X67822Y50168D01*
Y50537D01*
X67787Y50538D01*
Y51038D01*
X67822Y51038D01*
Y51408D01*
X67895Y51338D01*
D02*
G37*
G36*
X55684Y52042D02*
X55601Y51982D01*
X55528Y51881D01*
X55465Y51741D01*
X55411Y51561D01*
X55367Y51341D01*
X55333Y51082D01*
X55317Y50823D01*
X55368Y50208D01*
X55412Y49988D01*
X55465Y49808D01*
X55529Y49668D01*
X55602Y49568D01*
X55685Y49508D01*
X55778Y49488D01*
X52802D01*
X52895Y49508D01*
X52978Y49568D01*
X53051Y49668D01*
X53114Y49808D01*
X53168Y49988D01*
X53211Y50208D01*
X53246Y50468D01*
X53261Y50727D01*
X53211Y51341D01*
X53167Y51561D01*
X53114Y51741D01*
X53050Y51881D01*
X52977Y51982D01*
X52894Y52042D01*
X52801Y52061D01*
X55777D01*
X55684Y52042D01*
D02*
G37*
G36*
X68287Y48831D02*
X68282Y48856D01*
X68267Y48879D01*
X68242Y48899D01*
X68207Y48916D01*
X68162Y48930D01*
X68107Y48942D01*
X68042Y48951D01*
X67967Y48958D01*
X67787Y48963D01*
Y49463D01*
X67882Y49464D01*
X68107Y49484D01*
X68162Y49496D01*
X68207Y49510D01*
X68242Y49527D01*
X68267Y49547D01*
X68282Y49570D01*
X68287Y49595D01*
Y48831D01*
D02*
G37*
G36*
X41321Y48356D02*
X41258Y48283D01*
X41202Y48209D01*
X41154Y48135D01*
X41114Y48060D01*
X41080Y47985D01*
X41054Y47910D01*
X41036Y47833D01*
X41025Y47757D01*
X41021Y47680D01*
X40521D01*
X40517Y47757D01*
X40506Y47833D01*
X40488Y47910D01*
X40462Y47985D01*
X40429Y48060D01*
X40388Y48135D01*
X40340Y48209D01*
X40284Y48283D01*
X40221Y48356D01*
X40151Y48429D01*
X41391D01*
X41321Y48356D01*
D02*
G37*
G36*
X27505Y47855D02*
X27520Y47683D01*
X27545Y47531D01*
X27580Y47399D01*
X27625Y47288D01*
X27680Y47197D01*
X27745Y47126D01*
X27820Y47076D01*
X27905Y47045D01*
X28000Y47035D01*
X26000D01*
X26095Y47045D01*
X26180Y47076D01*
X26255Y47126D01*
X26320Y47197D01*
X26375Y47288D01*
X26420Y47399D01*
X26455Y47531D01*
X26480Y47683D01*
X26495Y47855D01*
X26500Y48047D01*
X27500D01*
X27505Y47855D01*
D02*
G37*
G36*
X22504Y47817D02*
X22518Y47653D01*
X22541Y47508D01*
X22572Y47382D01*
X22613Y47276D01*
X22663Y47189D01*
X22722Y47122D01*
X22790Y47074D01*
X22867Y47045D01*
X22953Y47035D01*
X21047D01*
X21133Y47045D01*
X21210Y47074D01*
X21278Y47122D01*
X21337Y47189D01*
X21387Y47276D01*
X21428Y47382D01*
X21459Y47508D01*
X21482Y47653D01*
X21496Y47817D01*
X21500Y48000D01*
X22500D01*
X22504Y47817D01*
D02*
G37*
G36*
X70888Y46440D02*
X70909Y46434D01*
X70944Y46429D01*
X71056Y46422D01*
X71581Y46414D01*
Y45714D01*
X70881Y45682D01*
Y46446D01*
X70888Y46440D01*
D02*
G37*
G36*
X33565Y46876D02*
X33530Y46782D01*
X33499Y46654D01*
X33472Y46490D01*
X33430Y46058D01*
X33399Y45149D01*
X33397Y44776D01*
X32397D01*
X32395Y45149D01*
X32295Y46654D01*
X32264Y46782D01*
X32229Y46876D01*
X32190Y46935D01*
X33605D01*
X33565Y46876D01*
D02*
G37*
G36*
X20524Y44606D02*
X20514Y44692D01*
X20485Y44769D01*
X20437Y44837D01*
X20370Y44896D01*
X20283Y44946D01*
X20177Y44987D01*
X20051Y45018D01*
X19906Y45041D01*
X19742Y45055D01*
X19559Y45059D01*
Y46059D01*
X19742Y46064D01*
X19906Y46077D01*
X20051Y46100D01*
X20177Y46132D01*
X20283Y46172D01*
X20370Y46222D01*
X20437Y46281D01*
X20485Y46349D01*
X20514Y46426D01*
X20524Y46512D01*
Y44606D01*
D02*
G37*
G36*
X68287Y44107D02*
X68280Y44113D01*
X68259Y44119D01*
X68224Y44124D01*
X68112Y44131D01*
X67587Y44139D01*
Y44839D01*
X68287Y44871D01*
Y44107D01*
D02*
G37*
G36*
X26926Y44083D02*
X26849Y44138D01*
X26758Y44166D01*
X26653Y44164D01*
X26533Y44135D01*
X26399Y44077D01*
X26250Y43991D01*
X26087Y43877D01*
X25910Y43734D01*
X25512Y43364D01*
X24805Y44071D01*
X25004Y44277D01*
X25318Y44646D01*
X25432Y44809D01*
X25518Y44958D01*
X25576Y45092D01*
X25605Y45212D01*
X25606Y45318D01*
X25579Y45409D01*
X25524Y45485D01*
X26926Y44083D01*
D02*
G37*
G36*
X44988Y44729D02*
X44915Y44713D01*
X44835Y44685D01*
X44749Y44643D01*
X44656Y44589D01*
X44555Y44522D01*
X44334Y44348D01*
X44213Y44242D01*
X43950Y43992D01*
X43142Y44598D01*
X43297Y44758D01*
X43538Y45042D01*
X43624Y45165D01*
X43687Y45276D01*
X43727Y45375D01*
X43744Y45462D01*
X43738Y45536D01*
X43709Y45599D01*
X43657Y45649D01*
X44988Y44729D01*
D02*
G37*
G36*
X49498Y45116D02*
X49424Y44994D01*
X49358Y44867D01*
X49302Y44734D01*
X49254Y44595D01*
X49215Y44451D01*
X49184Y44302D01*
X49163Y44147D01*
X49150Y43986D01*
X49145Y43820D01*
X48145D01*
X48141Y43986D01*
X48128Y44147D01*
X48106Y44302D01*
X48076Y44451D01*
X48036Y44595D01*
X47989Y44734D01*
X47932Y44867D01*
X47867Y44994D01*
X47793Y45116D01*
X47710Y45232D01*
X49580D01*
X49498Y45116D01*
D02*
G37*
G36*
X33802Y44703D02*
X33717Y44673D01*
X33642Y44622D01*
X33577Y44551D01*
X33522Y44460D01*
X33477Y44349D01*
X33442Y44217D01*
X33417Y44065D01*
X33402Y43894D01*
X33397Y43701D01*
X32397D01*
X32392Y43894D01*
X32377Y44065D01*
X32352Y44217D01*
X32317Y44349D01*
X32272Y44460D01*
X32217Y44551D01*
X32152Y44622D01*
X32077Y44673D01*
X31992Y44703D01*
X31897Y44713D01*
X33897D01*
X33802Y44703D01*
D02*
G37*
G36*
X49150Y42329D02*
X49165Y42157D01*
X49190Y42005D01*
X49225Y41873D01*
X49270Y41762D01*
X49325Y41671D01*
X49390Y41600D01*
X49465Y41550D01*
X49550Y41519D01*
X49645Y41509D01*
X47645D01*
X47740Y41519D01*
X47825Y41550D01*
X47900Y41600D01*
X47965Y41671D01*
X48020Y41762D01*
X48065Y41873D01*
X48100Y42005D01*
X48125Y42157D01*
X48140Y42329D01*
X48145Y42521D01*
X49145D01*
X49150Y42329D01*
D02*
G37*
G36*
X44001D02*
X44016Y42157D01*
X44041Y42005D01*
X44076Y41873D01*
X44121Y41762D01*
X44176Y41671D01*
X44241Y41600D01*
X44316Y41550D01*
X44401Y41519D01*
X44496Y41509D01*
X42496D01*
X42591Y41519D01*
X42676Y41550D01*
X42751Y41600D01*
X42816Y41671D01*
X42871Y41762D01*
X42916Y41873D01*
X42951Y42005D01*
X42976Y42157D01*
X42991Y42329D01*
X42996Y42521D01*
X43996D01*
X44001Y42329D01*
D02*
G37*
G36*
X33402Y42298D02*
X33417Y42128D01*
X33442Y41978D01*
X33477Y41848D01*
X33522Y41738D01*
X33577Y41648D01*
X33642Y41578D01*
X33717Y41528D01*
X33802Y41498D01*
X33897Y41488D01*
X31897D01*
X31992Y41498D01*
X32077Y41528D01*
X32152Y41578D01*
X32217Y41648D01*
X32272Y41738D01*
X32317Y41848D01*
X32352Y41978D01*
X32377Y42128D01*
X32392Y42298D01*
X32397Y42488D01*
X33397D01*
X33402Y42298D01*
D02*
G37*
G36*
X94606Y56193D02*
Y51469D01*
Y46745D01*
Y41627D01*
X94190Y41349D01*
X94102Y41386D01*
X93551D01*
X93041Y41175D01*
X92744Y40877D01*
X92446Y41175D01*
X92055Y41337D01*
Y49410D01*
X83591D01*
Y40946D01*
X87351D01*
X87685Y40446D01*
X87614Y40276D01*
Y39724D01*
X87779Y39327D01*
X87747Y39168D01*
Y38456D01*
X87721Y38398D01*
X87721Y38394D01*
X73273D01*
X73082Y38856D01*
X73613Y39387D01*
X73801Y39668D01*
X73867Y40000D01*
Y40478D01*
X73945Y40946D01*
X82410D01*
Y50001D01*
X83000D01*
Y50592D01*
X92055D01*
Y59056D01*
X91363D01*
X91156Y59556D01*
X91299Y59699D01*
X91424Y60000D01*
X94606D01*
Y56193D01*
D02*
G37*
G36*
X127252Y40450D02*
X127260Y40363D01*
X127272Y40286D01*
X127290Y40219D01*
X127313Y40163D01*
X127340Y40117D01*
X127373Y40081D01*
X127410Y40056D01*
X127453Y40040D01*
X127500Y40035D01*
X126500D01*
X126548Y40040D01*
X126590Y40056D01*
X126628Y40081D01*
X126660Y40117D01*
X126688Y40163D01*
X126710Y40219D01*
X126727Y40286D01*
X126740Y40363D01*
X126748Y40450D01*
X126750Y40547D01*
X127250D01*
X127252Y40450D01*
D02*
G37*
G36*
X60744Y41374D02*
X60661Y41314D01*
X60588Y41214D01*
X60524Y41074D01*
X60470Y40894D01*
X60427Y40674D01*
X60392Y40414D01*
X60353Y39774D01*
X60348Y39394D01*
X58349D01*
X58344Y39774D01*
X58270Y40674D01*
X58227Y40894D01*
X58173Y41074D01*
X58109Y41214D01*
X58036Y41314D01*
X57953Y41374D01*
X57860Y41394D01*
X60836D01*
X60744Y41374D01*
D02*
G37*
G36*
X55685D02*
X55602Y41314D01*
X55529Y41214D01*
X55466Y41074D01*
X55412Y40894D01*
X55368Y40674D01*
X55334Y40414D01*
X55295Y39774D01*
X55290Y39394D01*
X53290D01*
X53285Y39774D01*
X53212Y40674D01*
X53168Y40894D01*
X53114Y41074D01*
X53051Y41214D01*
X52978Y41314D01*
X52895Y41374D01*
X52802Y41394D01*
X55778D01*
X55685Y41374D01*
D02*
G37*
G36*
X93647Y39133D02*
X93413Y38889D01*
X93059Y39242D01*
X93085Y39268D01*
X93183Y39380D01*
X93185Y39386D01*
X93185Y39389D01*
X93647Y39133D01*
D02*
G37*
G36*
X91652Y39114D02*
X91551Y39112D01*
X91455Y39105D01*
X91363Y39092D01*
X91277Y39074D01*
X91195Y39050D01*
X91119Y39020D01*
X91047Y38985D01*
X90980Y38945D01*
X90918Y38898D01*
X90861Y38846D01*
X90508Y39200D01*
X90559Y39257D01*
X90606Y39319D01*
X90646Y39386D01*
X90681Y39458D01*
X90711Y39534D01*
X90735Y39616D01*
X90753Y39702D01*
X90766Y39794D01*
X90773Y39890D01*
X90775Y39991D01*
X91652Y39114D01*
D02*
G37*
G36*
X93487Y38287D02*
X93507Y38062D01*
X93519Y38007D01*
X93533Y37962D01*
X93550Y37927D01*
X93570Y37902D01*
X93593Y37887D01*
X93618Y37882D01*
X92854D01*
X92879Y37887D01*
X92902Y37902D01*
X92922Y37927D01*
X92939Y37962D01*
X92953Y38007D01*
X92965Y38062D01*
X92974Y38127D01*
X92981Y38202D01*
X92986Y38382D01*
X93486D01*
X93487Y38287D01*
D02*
G37*
G36*
X90339D02*
X90358Y38062D01*
X90370Y38007D01*
X90384Y37962D01*
X90401Y37927D01*
X90421Y37902D01*
X90443Y37887D01*
X90468Y37882D01*
X89704D01*
X89730Y37887D01*
X89752Y37902D01*
X89772Y37927D01*
X89789Y37962D01*
X89804Y38007D01*
X89816Y38062D01*
X89825Y38127D01*
X89832Y38202D01*
X89837Y38382D01*
X90337D01*
X90339Y38287D01*
D02*
G37*
G36*
X88763D02*
X88783Y38062D01*
X88795Y38007D01*
X88809Y37962D01*
X88827Y37927D01*
X88846Y37902D01*
X88869Y37887D01*
X88894Y37882D01*
X88130D01*
X88155Y37887D01*
X88178Y37902D01*
X88197Y37927D01*
X88215Y37962D01*
X88229Y38007D01*
X88241Y38062D01*
X88250Y38127D01*
X88257Y38202D01*
X88262Y38382D01*
X88762D01*
X88763Y38287D01*
D02*
G37*
G36*
X28395Y38933D02*
X28312Y38873D01*
X28239Y38773D01*
X28176Y38633D01*
X28122Y38453D01*
X28078Y38233D01*
X28044Y37973D01*
X28005Y37333D01*
X28000Y36953D01*
X26000D01*
X25995Y37333D01*
X25922Y38233D01*
X25878Y38453D01*
X25824Y38633D01*
X25761Y38773D01*
X25688Y38873D01*
X25605Y38933D01*
X25512Y38953D01*
X28488D01*
X28395Y38933D01*
D02*
G37*
G36*
X23395D02*
X23312Y38873D01*
X23239Y38773D01*
X23176Y38633D01*
X23122Y38453D01*
X23078Y38233D01*
X23044Y37973D01*
X23005Y37333D01*
X23000Y36953D01*
X21000D01*
X20995Y37333D01*
X20922Y38233D01*
X20878Y38453D01*
X20824Y38633D01*
X20761Y38773D01*
X20688Y38873D01*
X20605Y38933D01*
X20512Y38953D01*
X23488D01*
X23395Y38933D01*
D02*
G37*
G36*
X39513Y38492D02*
X39430Y38432D01*
X39357Y38332D01*
X39294Y38192D01*
X39240Y38012D01*
X39196Y37792D01*
X39162Y37532D01*
X39123Y36892D01*
X39118Y36512D01*
X37118D01*
X37113Y36892D01*
X37040Y37792D01*
X36996Y38012D01*
X36942Y38192D01*
X36879Y38332D01*
X36806Y38432D01*
X36723Y38492D01*
X36630Y38512D01*
X39606D01*
X39513Y38492D01*
D02*
G37*
G36*
X92037Y35281D02*
X92031Y35260D01*
X92027Y35225D01*
X92019Y35113D01*
X92011Y34588D01*
X91311D01*
X91279Y35288D01*
X92043D01*
X92037Y35281D01*
D02*
G37*
G36*
X81014D02*
X81008Y35260D01*
X81003Y35225D01*
X80996Y35113D01*
X80988Y34588D01*
X80288D01*
X80256Y35288D01*
X81020D01*
X81014Y35281D01*
D02*
G37*
G36*
X39428Y33489D02*
X39402Y33507D01*
X39367Y33523D01*
X39325Y33537D01*
X39274Y33549D01*
X39216Y33559D01*
X39074Y33574D01*
X38900Y33582D01*
X38801Y33583D01*
X38687Y34583D01*
X38785Y34584D01*
X39032Y34605D01*
X39099Y34618D01*
X39157Y34633D01*
X39208Y34652D01*
X39251Y34673D01*
X39285Y34697D01*
X39312Y34724D01*
X39428Y33489D01*
D02*
G37*
G36*
X30598Y34659D02*
X30632Y34643D01*
X30675Y34629D01*
X30725Y34616D01*
X30784Y34606D01*
X30926Y34591D01*
X31100Y34584D01*
X31199Y34583D01*
X31313Y33583D01*
X31215Y33581D01*
X30968Y33560D01*
X30901Y33547D01*
X30843Y33532D01*
X30792Y33514D01*
X30749Y33492D01*
X30715Y33468D01*
X30688Y33442D01*
X30572Y34676D01*
X30598Y34659D01*
D02*
G37*
G36*
X20367Y33380D02*
X20340Y33403D01*
X20304Y33423D01*
X20261Y33441D01*
X20210Y33457D01*
X20151Y33470D01*
X20084Y33481D01*
X19927Y33495D01*
X19737Y33500D01*
Y34500D01*
X19836Y34501D01*
X20084Y34519D01*
X20151Y34530D01*
X20210Y34543D01*
X20261Y34559D01*
X20304Y34577D01*
X20340Y34597D01*
X20367Y34620D01*
Y33380D01*
D02*
G37*
G36*
X18622Y33646D02*
X18599Y33613D01*
X18578Y33562D01*
X18560Y33494D01*
X18544Y33408D01*
X18501Y32715D01*
X18500Y32524D01*
X17500Y33731D01*
X18000D01*
X18622Y33646D01*
D02*
G37*
G36*
X52953Y32512D02*
X52933Y32604D01*
X52873Y32687D01*
X52773Y32761D01*
X52633Y32824D01*
X52453Y32878D01*
X52233Y32922D01*
X51973Y32956D01*
X51333Y32995D01*
X50953Y33000D01*
Y35000D01*
X51333Y35005D01*
X52233Y35078D01*
X52453Y35122D01*
X52633Y35175D01*
X52773Y35239D01*
X52873Y35312D01*
X52933Y35395D01*
X52953Y35488D01*
Y32512D01*
D02*
G37*
G36*
X39367Y31380D02*
X39340Y31403D01*
X39305Y31423D01*
X39261Y31441D01*
X39210Y31457D01*
X39151Y31470D01*
X39084Y31481D01*
X38927Y31495D01*
X38737Y31500D01*
Y32500D01*
X38836Y32501D01*
X39084Y32519D01*
X39151Y32530D01*
X39210Y32543D01*
X39261Y32559D01*
X39305Y32577D01*
X39340Y32597D01*
X39367Y32620D01*
Y31380D01*
D02*
G37*
G36*
X173704Y31456D02*
X173692Y31424D01*
X173682Y31384D01*
X173673Y31335D01*
X173659Y31212D01*
X173650Y31055D01*
X173648Y30864D01*
X172648Y30656D01*
X172646Y30754D01*
X172634Y30926D01*
X172623Y30999D01*
X172609Y31065D01*
X172592Y31123D01*
X172572Y31172D01*
X172549Y31214D01*
X172523Y31247D01*
X172494Y31273D01*
X173717Y31480D01*
X173704Y31456D01*
D02*
G37*
G36*
X94144Y30428D02*
X94119Y30421D01*
X94089Y30407D01*
X94054Y30386D01*
X94013Y30357D01*
X93917Y30280D01*
X93800Y30175D01*
X93663Y30042D01*
X92803Y30595D01*
X92871Y30666D01*
X92984Y30796D01*
X93028Y30856D01*
X93065Y30912D01*
X93093Y30965D01*
X93114Y31014D01*
X93127Y31060D01*
X93132Y31102D01*
X93129Y31140D01*
X94144Y30428D01*
D02*
G37*
G36*
X108671Y30028D02*
X108660Y30029D01*
X108508Y30030D01*
X107667Y30032D01*
Y30732D01*
X108671Y30735D01*
Y30028D01*
D02*
G37*
G36*
X107548Y29682D02*
X107541Y29748D01*
X107519Y29808D01*
X107484Y29860D01*
X107434Y29906D01*
X107370Y29944D01*
X107292Y29976D01*
X107199Y30000D01*
X107092Y30018D01*
X106971Y30028D01*
X106836Y30032D01*
Y30732D01*
X106971Y30735D01*
X107092Y30746D01*
X107199Y30763D01*
X107292Y30788D01*
X107370Y30819D01*
X107434Y30858D01*
X107484Y30903D01*
X107519Y30956D01*
X107541Y31015D01*
X107548Y31082D01*
Y29682D01*
D02*
G37*
G36*
X60943Y32492D02*
X60850Y32432D01*
X60768Y32332D01*
X60697Y32192D01*
X60637Y32012D01*
X60588Y31792D01*
X60549Y31532D01*
X60522Y31232D01*
X60514Y30973D01*
X60569Y30208D01*
X60607Y29988D01*
X60654Y29808D01*
X60710Y29668D01*
X60775Y29568D01*
X60848Y29508D01*
X60929Y29488D01*
X57953D01*
X58057Y29508D01*
X58150Y29568D01*
X58232Y29668D01*
X58303Y29808D01*
X58363Y29988D01*
X58412Y30208D01*
X58451Y30468D01*
X58478Y30768D01*
X58486Y31027D01*
X58431Y31792D01*
X58393Y32012D01*
X58346Y32192D01*
X58290Y32332D01*
X58225Y32432D01*
X58152Y32492D01*
X58071Y32512D01*
X61047D01*
X60943Y32492D01*
D02*
G37*
G36*
X88451Y29786D02*
X88462Y29665D01*
X88479Y29558D01*
X88504Y29466D01*
X88535Y29387D01*
X88574Y29323D01*
X88619Y29274D01*
X88672Y29238D01*
X88731Y29217D01*
X88798Y29209D01*
X87398D01*
X87464Y29217D01*
X87524Y29238D01*
X87576Y29274D01*
X87622Y29323D01*
X87660Y29387D01*
X87692Y29466D01*
X87716Y29558D01*
X87734Y29665D01*
X87744Y29786D01*
X87748Y29921D01*
X88448D01*
X88451Y29786D01*
D02*
G37*
G36*
X82451Y29771D02*
X82461Y29653D01*
X82477Y29549D01*
X82500Y29459D01*
X82530Y29383D01*
X82567Y29320D01*
X82610Y29272D01*
X82659Y29237D01*
X82716Y29216D01*
X82779Y29209D01*
X81416D01*
X81479Y29216D01*
X81536Y29237D01*
X81585Y29272D01*
X81628Y29320D01*
X81665Y29383D01*
X81695Y29459D01*
X81718Y29549D01*
X81734Y29653D01*
X81744Y29771D01*
X81748Y29902D01*
X82447D01*
X82451Y29771D01*
D02*
G37*
G36*
X90770Y34563D02*
X90794Y34512D01*
Y34020D01*
X87485Y30711D01*
X87297Y30429D01*
X87231Y30098D01*
Y29990D01*
X87207Y29935D01*
X87204Y29817D01*
X87196Y29733D01*
X86098D01*
Y28753D01*
X84097D01*
Y29733D01*
X82997D01*
X82991Y29800D01*
X82989Y29916D01*
X82939Y30027D01*
X82898Y30234D01*
X82710Y30515D01*
X81505Y31721D01*
Y34523D01*
X81529Y34580D01*
X81532Y34776D01*
X90761D01*
X90770Y34563D01*
D02*
G37*
G36*
X71870Y36991D02*
Y34776D01*
X79738D01*
X79747Y34563D01*
X79771Y34512D01*
Y31362D01*
X79837Y31030D01*
X80025Y30749D01*
X80579Y30195D01*
X80388Y29733D01*
X80098D01*
Y28753D01*
X78991D01*
X78020Y29725D01*
Y30362D01*
X78175Y30517D01*
X78386Y31027D01*
Y31578D01*
X78175Y32087D01*
X77785Y32477D01*
X77276Y32688D01*
X76724D01*
X76215Y32477D01*
X75825Y32087D01*
X75614Y31578D01*
Y31027D01*
X75825Y30517D01*
X75980Y30362D01*
Y29302D01*
X76058Y28912D01*
X76279Y28581D01*
X77848Y27012D01*
X78179Y26791D01*
X78569Y26714D01*
X80098D01*
Y25733D01*
X80098D01*
X79945Y25296D01*
X79416D01*
Y23206D01*
X82098D01*
Y22025D01*
X79416D01*
Y19934D01*
X78944Y19867D01*
X78359D01*
X70960Y27265D01*
Y36735D01*
X71408Y37183D01*
X71870Y36991D01*
D02*
G37*
G36*
X88451Y28087D02*
X87744D01*
X87745Y28097D01*
X87746Y28249D01*
X87748Y29090D01*
X88448D01*
X88451Y28087D01*
D02*
G37*
G36*
X82451D02*
X81744D01*
X81744Y28097D01*
X81746Y28249D01*
X81748Y29090D01*
X82447D01*
X82451Y28087D01*
D02*
G37*
G36*
X14826Y27875D02*
X14856Y27790D01*
X14907Y27715D01*
X14978Y27650D01*
X15069Y27595D01*
X15180Y27550D01*
X15312Y27515D01*
X15464Y27490D01*
X15636Y27475D01*
X15828Y27470D01*
Y26470D01*
X15636Y26465D01*
X15464Y26450D01*
X15312Y26425D01*
X15180Y26390D01*
X15069Y26345D01*
X14978Y26290D01*
X14907Y26225D01*
X14856Y26150D01*
X14826Y26065D01*
X14816Y25970D01*
Y27970D01*
X14826Y27875D01*
D02*
G37*
G36*
X106822Y29491D02*
X106941Y29488D01*
X107024Y29480D01*
Y28382D01*
X107437D01*
X107461Y28319D01*
X107520Y27882D01*
X107279Y27721D01*
X105647Y26089D01*
X105426Y25758D01*
X105348Y25368D01*
Y24988D01*
X101972D01*
X101785Y25175D01*
X101276Y25386D01*
X100724D01*
X100215Y25175D01*
X99825Y24785D01*
X99614Y24276D01*
Y23724D01*
X99825Y23215D01*
X100215Y22825D01*
X100724Y22614D01*
X101276D01*
X101785Y22825D01*
X101909Y22949D01*
X104874D01*
Y20031D01*
X106519D01*
X106710Y19570D01*
X106160Y19020D01*
X102325D01*
X102276Y19041D01*
X102105Y19045D01*
X101984Y19057D01*
X101951Y19062D01*
X101928Y19067D01*
X101922Y19069D01*
X101903Y19076D01*
X101850Y19077D01*
X101848Y19077D01*
X101803Y19091D01*
X101633Y19161D01*
X101608Y19151D01*
X101583Y19159D01*
X101420Y19073D01*
X101291Y19020D01*
X101000D01*
X100610Y18942D01*
X100279Y18721D01*
X100058Y18390D01*
X99980Y18000D01*
X100058Y17610D01*
X100221Y17367D01*
X100120Y17045D01*
X99999Y16867D01*
X99359D01*
X97707Y18519D01*
X97425Y18707D01*
X97094Y18773D01*
X92652D01*
X92461Y19235D01*
X102741Y29515D01*
X106767D01*
X106822Y29491D01*
D02*
G37*
G36*
X38945Y27591D02*
X39005Y27478D01*
X39105Y27379D01*
X39245Y27293D01*
X39425Y27220D01*
X39645Y27161D01*
X39905Y27115D01*
X40205Y27082D01*
X40925Y27055D01*
Y25055D01*
X40545Y25049D01*
X39905Y24996D01*
X39645Y24949D01*
X39425Y24890D01*
X39245Y24817D01*
X39105Y24731D01*
X39005Y24632D01*
X38945Y24520D01*
X38925Y24394D01*
Y27716D01*
X38945Y27591D01*
D02*
G37*
G36*
X31075Y24394D02*
X31055Y24520D01*
X30995Y24632D01*
X30895Y24731D01*
X30755Y24817D01*
X30575Y24890D01*
X30355Y24949D01*
X30095Y24996D01*
X29795Y25029D01*
X29075Y25055D01*
Y27055D01*
X29455Y27062D01*
X30095Y27115D01*
X30355Y27161D01*
X30575Y27220D01*
X30755Y27293D01*
X30895Y27379D01*
X30995Y27478D01*
X31055Y27591D01*
X31075Y27716D01*
Y24394D01*
D02*
G37*
G36*
X60836Y26492D02*
X60754Y26432D01*
X60680Y26332D01*
X60617Y26192D01*
X60563Y26012D01*
X60519Y25792D01*
X60485Y25532D01*
X60450Y24955D01*
X60451Y24905D01*
X60481Y24563D01*
X60531Y24261D01*
X60601Y24000D01*
X60691Y23778D01*
X60801Y23597D01*
X60931Y23456D01*
X61081Y23356D01*
X61251Y23295D01*
X61441Y23275D01*
X57441D01*
X57631Y23295D01*
X57801Y23356D01*
X57951Y23456D01*
X58081Y23597D01*
X58191Y23778D01*
X58281Y24000D01*
X58351Y24261D01*
X58401Y24563D01*
X58431Y24905D01*
X58432Y24943D01*
X58363Y25792D01*
X58319Y26012D01*
X58266Y26192D01*
X58202Y26332D01*
X58129Y26432D01*
X58046Y26492D01*
X57953Y26512D01*
X60929D01*
X60836Y26492D01*
D02*
G37*
G36*
X28005Y24226D02*
X28078Y23326D01*
X28122Y23106D01*
X28176Y22926D01*
X28239Y22786D01*
X28312Y22686D01*
X28395Y22626D01*
X28488Y22606D01*
X25512D01*
X25605Y22626D01*
X25688Y22686D01*
X25761Y22786D01*
X25824Y22926D01*
X25878Y23106D01*
X25922Y23326D01*
X25956Y23586D01*
X25995Y24226D01*
X26000Y24606D01*
X28000D01*
X28005Y24226D01*
D02*
G37*
G36*
X14826Y23935D02*
X14856Y23850D01*
X14907Y23775D01*
X14978Y23710D01*
X15069Y23655D01*
X15180Y23610D01*
X15312Y23575D01*
X15464Y23550D01*
X15636Y23535D01*
X15828Y23530D01*
Y22530D01*
X15636Y22525D01*
X15464Y22510D01*
X15312Y22485D01*
X15180Y22450D01*
X15069Y22405D01*
X14978Y22350D01*
X14907Y22285D01*
X14856Y22210D01*
X14826Y22125D01*
X14816Y22030D01*
Y24030D01*
X14826Y23935D01*
D02*
G37*
G36*
X86622Y21615D02*
X86612Y21710D01*
X86581Y21795D01*
X86531Y21870D01*
X86460Y21935D01*
X86369Y21990D01*
X86257Y22035D01*
X86126Y22070D01*
X85974Y22095D01*
X85802Y22110D01*
X85610Y22115D01*
Y23115D01*
X85802Y23120D01*
X85974Y23135D01*
X86126Y23160D01*
X86257Y23195D01*
X86369Y23240D01*
X86460Y23295D01*
X86531Y23360D01*
X86581Y23435D01*
X86612Y23520D01*
X86622Y23615D01*
Y21615D01*
D02*
G37*
G36*
X83596Y23520D02*
X83626Y23435D01*
X83675Y23360D01*
X83745Y23295D01*
X83836Y23240D01*
X83946Y23195D01*
X84075Y23160D01*
X84225Y23135D01*
X84395Y23120D01*
X84585Y23115D01*
Y22115D01*
X84395Y22110D01*
X84225Y22095D01*
X84075Y22070D01*
X83946Y22035D01*
X83836Y21990D01*
X83745Y21935D01*
X83675Y21870D01*
X83626Y21795D01*
X83596Y21710D01*
X83586Y21615D01*
Y23615D01*
X83596Y23520D01*
D02*
G37*
G36*
X110540Y20543D02*
X110463Y20600D01*
X110371Y20628D01*
X110265D01*
X110144Y20600D01*
X110010Y20543D01*
X109862Y20459D01*
X109699Y20346D01*
X109522Y20204D01*
X109126Y19836D01*
X108419Y20543D01*
X108617Y20749D01*
X108928Y21116D01*
X109041Y21279D01*
X109126Y21427D01*
X109183Y21562D01*
X109211Y21682D01*
Y21788D01*
X109183Y21880D01*
X109126Y21958D01*
X110540Y20543D01*
D02*
G37*
G36*
X114374Y20537D02*
X114314Y20516D01*
X114262Y20481D01*
X114216Y20432D01*
X114178Y20369D01*
X114146Y20291D01*
X114122Y20200D01*
X114104Y20096D01*
X114094Y19976D01*
X114090Y19843D01*
X113390D01*
X113387Y19976D01*
X113376Y20096D01*
X113359Y20200D01*
X113334Y20291D01*
X113303Y20369D01*
X113264Y20432D01*
X113219Y20481D01*
X113166Y20516D01*
X113107Y20537D01*
X113040Y20543D01*
X114440D01*
X114374Y20537D01*
D02*
G37*
G36*
X25512Y19630D02*
X25494Y19628D01*
X25440Y19626D01*
X23717Y19618D01*
Y21618D01*
X24058Y21626D01*
X24363Y21650D01*
X24633Y21690D01*
X24866Y21745D01*
X25063Y21817D01*
X25225Y21904D01*
X25350Y22007D01*
X25440Y22127D01*
X25494Y22262D01*
X25512Y22413D01*
Y19630D01*
D02*
G37*
G36*
X14833Y20055D02*
X14882Y19951D01*
X14964Y19859D01*
X15078Y19779D01*
X15224Y19711D01*
X15403Y19656D01*
X15614Y19613D01*
X15858Y19582D01*
X16134Y19564D01*
X16442Y19558D01*
Y17558D01*
X14828Y17722D01*
X14816Y20172D01*
X14833Y20055D01*
D02*
G37*
G36*
X101660Y18597D02*
X101696Y18577D01*
X101739Y18559D01*
X101790Y18543D01*
X101849Y18530D01*
X101916Y18519D01*
X102074Y18505D01*
X102263Y18500D01*
Y17500D01*
X102164Y17499D01*
X101916Y17481D01*
X101849Y17470D01*
X101790Y17457D01*
X101739Y17441D01*
X101696Y17423D01*
X101660Y17403D01*
X101633Y17380D01*
Y18620D01*
X101660Y18597D01*
D02*
G37*
G36*
X38868Y16675D02*
X38840Y16583D01*
Y16477D01*
X38868Y16357D01*
X38925Y16223D01*
X39010Y16074D01*
X39123Y15912D01*
X39264Y15735D01*
X39632Y15339D01*
X38925Y14632D01*
X38720Y14830D01*
X38352Y15141D01*
X38190Y15254D01*
X38041Y15339D01*
X37907Y15395D01*
X37787Y15424D01*
X37681D01*
X37589Y15395D01*
X37511Y15339D01*
X38925Y16753D01*
X38868Y16675D01*
D02*
G37*
G36*
X28001Y14512D02*
X28488D01*
X28395Y14492D01*
X28312Y14432D01*
X28239Y14332D01*
X28176Y14192D01*
X28122Y14012D01*
X28078Y13792D01*
X28055Y13614D01*
X28078Y13326D01*
X28122Y13106D01*
X28176Y12926D01*
X28239Y12786D01*
X28312Y12686D01*
X28395Y12626D01*
X28488Y12606D01*
X28001D01*
X28000Y12512D01*
X26000D01*
X25999Y12606D01*
X25512D01*
X25605Y12626D01*
X25688Y12686D01*
X25761Y12786D01*
X25824Y12926D01*
X25878Y13106D01*
X25922Y13326D01*
X25945Y13504D01*
X25922Y13792D01*
X25878Y14012D01*
X25824Y14192D01*
X25761Y14332D01*
X25688Y14432D01*
X25605Y14492D01*
X25512Y14512D01*
X25999D01*
X26000Y14606D01*
X28000D01*
X28001Y14512D01*
D02*
G37*
G36*
X60672Y10718D02*
X60636Y10696D01*
X60604Y10660D01*
X60577Y10609D01*
X60553Y10544D01*
X60534Y10464D01*
X60519Y10370D01*
X60509Y10261D01*
X60500Y10000D01*
X59500D01*
X59498Y10138D01*
X59481Y10370D01*
X59466Y10464D01*
X59447Y10544D01*
X59423Y10609D01*
X59396Y10660D01*
X59364Y10696D01*
X59328Y10718D01*
X59287Y10725D01*
X60713D01*
X60672Y10718D01*
D02*
G37*
G36*
X28508Y12513D02*
X28568Y12430D01*
X28668Y12357D01*
X28808Y12294D01*
X28988Y12240D01*
X29208Y12196D01*
X29468Y12162D01*
X30108Y12123D01*
X30488Y12118D01*
Y10118D01*
X30108Y10113D01*
X29208Y10040D01*
X28988Y9996D01*
X28808Y9942D01*
X28668Y9879D01*
X28568Y9806D01*
X28508Y9723D01*
X28488Y9630D01*
Y12606D01*
X28508Y12513D01*
D02*
G37*
G36*
X25512Y9630D02*
X25492Y9723D01*
X25432Y9806D01*
X25332Y9879D01*
X25192Y9942D01*
X25012Y9996D01*
X24792Y10040D01*
X24532Y10074D01*
X23892Y10113D01*
X23512Y10118D01*
Y12118D01*
X23892Y12123D01*
X24792Y12196D01*
X25012Y12240D01*
X25192Y12294D01*
X25332Y12357D01*
X25432Y12430D01*
X25492Y12513D01*
X25512Y12606D01*
Y9630D01*
D02*
G37*
G36*
X34004Y10733D02*
X34035Y10283D01*
X34063Y10100D01*
X34099Y9946D01*
X34142Y9819D01*
X34193Y9721D01*
X34252Y9650D01*
X34319Y9608D01*
X34394Y9594D01*
X31606D01*
X31681Y9608D01*
X31748Y9650D01*
X31807Y9721D01*
X31858Y9819D01*
X31901Y9946D01*
X31937Y10100D01*
X31965Y10283D01*
X31984Y10494D01*
X32000Y11000D01*
X34000D01*
X34004Y10733D01*
D02*
G37*
G36*
X114543Y9533D02*
X114479Y9504D01*
X114423Y9454D01*
X114375Y9384D01*
X114334Y9294D01*
X114300Y9183D01*
X114274Y9053D01*
X114262Y8959D01*
X114270Y8908D01*
X114283Y8849D01*
X114299Y8798D01*
X114317Y8755D01*
X114337Y8719D01*
X114360Y8692D01*
X114243D01*
X114240Y8544D01*
X113240D01*
X113237Y8692D01*
X113120D01*
X113143Y8719D01*
X113163Y8755D01*
X113181Y8798D01*
X113197Y8849D01*
X113210Y8908D01*
X113216Y8947D01*
X113207Y9053D01*
X113180Y9183D01*
X113147Y9294D01*
X113106Y9384D01*
X113057Y9454D01*
X113001Y9504D01*
X112937Y9533D01*
X112866Y9544D01*
X114614D01*
X114543Y9533D01*
D02*
G37*
G36*
X25512Y4512D02*
X25492Y4605D01*
X25432Y4688D01*
X25332Y4761D01*
X25192Y4824D01*
X25012Y4878D01*
X24792Y4922D01*
X24532Y4956D01*
X23892Y4995D01*
X23512Y5000D01*
Y7000D01*
X23892Y7005D01*
X24792Y7078D01*
X25012Y7122D01*
X25192Y7176D01*
X25332Y7239D01*
X25432Y7312D01*
X25492Y7395D01*
X25512Y7488D01*
Y4512D01*
D02*
G37*
%LPC*%
G36*
X176304Y57386D02*
X165576D01*
Y50890D01*
X176304D01*
Y57386D01*
D02*
G37*
G36*
X164395D02*
X153667D01*
Y50890D01*
X164395D01*
Y57386D01*
D02*
G37*
G36*
X145000Y52441D02*
X141000D01*
Y48441D01*
X141471D01*
Y42910D01*
X141516Y42683D01*
X141516Y40428D01*
Y40411D01*
Y40411D01*
X141516Y40246D01*
X141055Y39953D01*
X141026Y39972D01*
X140441Y40088D01*
X134000D01*
Y40559D01*
X133529D01*
Y42000D01*
X133413Y42585D01*
X133081Y43081D01*
X132585Y43413D01*
X132000Y43529D01*
X131415Y43413D01*
X130919Y43081D01*
X130587Y42585D01*
X130471Y42000D01*
Y40559D01*
X130000D01*
Y36559D01*
X134000D01*
Y37030D01*
X137382D01*
X137776Y36772D01*
Y34970D01*
X134000D01*
Y35441D01*
X130000D01*
Y34970D01*
X129000D01*
Y35441D01*
X125000D01*
Y31441D01*
X129000D01*
Y31912D01*
X130000D01*
Y31441D01*
X134000D01*
Y31912D01*
X137776D01*
Y31048D01*
X140744D01*
Y33230D01*
X140789Y33457D01*
Y33910D01*
X140744Y34137D01*
Y35440D01*
X141206Y35631D01*
X143919Y32919D01*
X144415Y32587D01*
X145000Y32471D01*
X145256D01*
Y31048D01*
X148224D01*
Y32134D01*
X152000D01*
Y31417D01*
X156000D01*
Y35354D01*
X156000Y35417D01*
X156152Y35854D01*
X156681D01*
Y37944D01*
X154000D01*
Y38535D01*
D01*
Y37944D01*
X151319D01*
Y35854D01*
X151412D01*
X151685Y35354D01*
X151588Y35204D01*
X151566Y35193D01*
X148224D01*
Y36772D01*
X145256D01*
Y36560D01*
X144794Y36369D01*
X141615Y39548D01*
X141710Y39911D01*
X141806Y40048D01*
X141934Y40048D01*
X144484D01*
Y42683D01*
X144529Y42910D01*
Y48441D01*
X145000D01*
Y52441D01*
D02*
G37*
G36*
X186095Y44698D02*
X182945D01*
X182249Y44606D01*
X181601Y44338D01*
X181044Y43911D01*
X180617Y43354D01*
X180349Y42706D01*
X180257Y42010D01*
X180349Y41314D01*
X180617Y40666D01*
X181044Y40109D01*
X181601Y39682D01*
X182249Y39414D01*
X182945Y39322D01*
X186095D01*
X186791Y39414D01*
X187439Y39682D01*
X187996Y40109D01*
X188423Y40666D01*
X188691Y41314D01*
X188783Y42010D01*
X188691Y42706D01*
X188423Y43354D01*
X187996Y43911D01*
X187439Y44338D01*
X186791Y44606D01*
X186095Y44698D01*
D02*
G37*
G36*
X154590Y39494D02*
Y39126D01*
X154959D01*
X154590Y39494D01*
D02*
G37*
G36*
X153409Y41216D02*
X151319D01*
Y39126D01*
X153409D01*
Y41216D01*
D02*
G37*
G36*
X164986Y50299D02*
D01*
Y49709D01*
X153667D01*
Y43213D01*
X156528D01*
X156735Y42713D01*
X155239Y41216D01*
X154590D01*
Y40012D01*
X154601Y40017D01*
X154749Y40103D01*
X154912Y40218D01*
X155090Y40360D01*
X155488Y40730D01*
X156195Y40023D01*
X155996Y39817D01*
X155682Y39448D01*
X155568Y39285D01*
X155482Y39136D01*
X155477Y39126D01*
X156681D01*
Y39774D01*
X158721Y41814D01*
X158942Y42145D01*
X159020Y42535D01*
Y43213D01*
X161024D01*
X161169Y42734D01*
X160837Y42512D01*
X159850Y41525D01*
X159074Y40365D01*
X158540Y39075D01*
X158364Y38189D01*
X172345D01*
X172169Y39075D01*
X171634Y40365D01*
X170859Y41525D01*
X169872Y42512D01*
X169540Y42734D01*
X169685Y43213D01*
X176304D01*
Y49709D01*
X164986D01*
Y50299D01*
D02*
G37*
G36*
X116799Y37681D02*
X114709D01*
Y35591D01*
X116799D01*
Y37681D01*
D02*
G37*
G36*
X172345Y35827D02*
X166535D01*
Y30017D01*
X167421Y30194D01*
X168711Y30728D01*
X169872Y31503D01*
X170859Y32490D01*
X171634Y33651D01*
X172169Y34941D01*
X172345Y35827D01*
D02*
G37*
G36*
X164173D02*
X158364D01*
X158540Y34941D01*
X159074Y33651D01*
X159850Y32490D01*
X160837Y31503D01*
X161998Y30728D01*
X163287Y30194D01*
X164173Y30017D01*
Y35827D01*
D02*
G37*
G36*
X67241Y30681D02*
X65150D01*
Y28591D01*
X67241D01*
Y30681D01*
D02*
G37*
G36*
Y27410D02*
X65150D01*
Y25319D01*
X67241D01*
Y27410D01*
D02*
G37*
G36*
X122681Y22241D02*
X120590D01*
Y20150D01*
X122681D01*
Y22241D01*
D02*
G37*
G36*
X146709Y17709D02*
X142181D01*
Y13181D01*
X146709D01*
Y17709D01*
D02*
G37*
G36*
X139819D02*
X135291D01*
Y13181D01*
X139819D01*
Y17709D01*
D02*
G37*
G36*
X91732Y14864D02*
Y9055D01*
X97542D01*
X97365Y9941D01*
X96831Y11231D01*
X96056Y12392D01*
X95069Y13379D01*
X93908Y14154D01*
X92618Y14688D01*
X91732Y14864D01*
D02*
G37*
G36*
X89370D02*
X88484Y14688D01*
X87194Y14154D01*
X86034Y13379D01*
X85047Y12392D01*
X84271Y11231D01*
X83737Y9941D01*
X83561Y9055D01*
X89370D01*
Y14864D01*
D02*
G37*
G36*
X161662Y17028D02*
X160338D01*
X159059Y16685D01*
X157913Y16023D01*
X156977Y15087D01*
X156315Y13941D01*
X155972Y12662D01*
Y11338D01*
X156315Y10059D01*
X156977Y8913D01*
X157913Y7977D01*
X159059Y7315D01*
X160338Y6972D01*
X161662D01*
X162941Y7315D01*
X164087Y7977D01*
X165023Y8913D01*
X165685Y10059D01*
X166028Y11338D01*
Y12662D01*
X165685Y13941D01*
X165023Y15087D01*
X164087Y16023D01*
X162941Y16685D01*
X161662Y17028D01*
D02*
G37*
G36*
X146709Y10819D02*
X142181D01*
Y6291D01*
X146709D01*
Y10819D01*
D02*
G37*
G36*
X139819D02*
X135291D01*
Y6291D01*
X139819D01*
Y10819D01*
D02*
G37*
G36*
X186095Y10678D02*
X182945D01*
X182249Y10586D01*
X181601Y10318D01*
X181044Y9891D01*
X180617Y9334D01*
X180349Y8686D01*
X180257Y7990D01*
X180349Y7294D01*
X180617Y6646D01*
X181044Y6089D01*
X181601Y5662D01*
X182249Y5394D01*
X182945Y5302D01*
X186095D01*
X186791Y5394D01*
X187439Y5662D01*
X187996Y6089D01*
X188423Y6646D01*
X188691Y7294D01*
X188783Y7990D01*
X188691Y8686D01*
X188423Y9334D01*
X187996Y9891D01*
X187439Y10318D01*
X186791Y10586D01*
X186095Y10678D01*
D02*
G37*
G36*
X69410Y5409D02*
X66819D01*
Y4534D01*
X68284Y3069D01*
X69410D01*
Y5409D01*
D02*
G37*
%LPD*%
G36*
X161809Y47995D02*
X161740Y47925D01*
X161630Y47797D01*
X161589Y47740D01*
X161557Y47688D01*
X161534Y47641D01*
X161520Y47598D01*
X161515Y47560D01*
X161519Y47527D01*
X161533Y47498D01*
X160354Y47446D01*
X160369Y47774D01*
X160997Y48598D01*
X161809Y47995D01*
D02*
G37*
G36*
X160302Y46267D02*
X160273Y46281D01*
X160240Y46285D01*
X160202Y46280D01*
X160159Y46266D01*
X160112Y46243D01*
X160060Y46211D01*
X160003Y46170D01*
X159875Y46060D01*
X159804Y45991D01*
X159202Y46803D01*
X160026Y47431D01*
X160354Y47446D01*
X160302Y46267D01*
D02*
G37*
G36*
X158905Y44408D02*
X158820Y44377D01*
X158745Y44327D01*
X158680Y44256D01*
X158625Y44165D01*
X158580Y44053D01*
X158545Y43922D01*
X158520Y43770D01*
X158505Y43598D01*
X158500Y43406D01*
X157500D01*
X157495Y43598D01*
X157480Y43770D01*
X157455Y43922D01*
X157420Y44053D01*
X157375Y44165D01*
X157320Y44256D01*
X157255Y44327D01*
X157180Y44377D01*
X157095Y44408D01*
X157000Y44418D01*
X159000D01*
X158905Y44408D01*
D02*
G37*
D15*
X120000Y14441D02*
X123441D01*
X120000Y11000D02*
Y14441D01*
X113740Y8059D02*
Y11500D01*
X82098Y22615D02*
X88098D01*
X77000Y29302D02*
X78569Y27733D01*
X82098D01*
X77000Y29302D02*
Y31302D01*
X90648Y27733D02*
X94000Y31086D01*
X88098Y27733D02*
X90648D01*
X158000Y44894D02*
X163406Y50299D01*
X32897Y40103D02*
Y47642D01*
Y40103D02*
X33000Y40000D01*
X91485Y75882D02*
X96485D01*
X90714Y76653D02*
X91485Y75882D01*
X84134Y76653D02*
X90714D01*
X69000Y81000D02*
X71484Y78516D01*
X74004D01*
X75866Y76653D01*
X12000Y113000D02*
X18000D01*
X82098Y27733D02*
X88098D01*
X37264Y17000D02*
X40468Y13796D01*
Y9533D02*
X44000Y6000D01*
X40468Y9533D02*
Y13796D01*
X44000Y6000D02*
X56000D01*
X60000Y16500D02*
X60500Y17000D01*
X60000Y10000D02*
Y16500D01*
X56000Y6000D02*
X60000Y10000D01*
X35000Y17000D02*
X37264D01*
X76000Y6000D02*
Y10559D01*
X75559Y11000D02*
X76000Y10559D01*
X106583Y18000D02*
X110000Y21417D01*
X101000Y18000D02*
X106583D01*
X110000Y21417D02*
Y22500D01*
X117000Y19000D02*
Y25000D01*
X114000Y16000D02*
X117000Y19000D01*
X106260Y12583D02*
X109677Y16000D01*
X106260Y11500D02*
Y12583D01*
X109677Y16000D02*
X114000D01*
X106260Y11500D02*
X106315Y11555D01*
X113000Y27000D02*
X113968Y27968D01*
X108000Y27000D02*
X113000D01*
X106368Y25368D02*
X108000Y27000D01*
X59407Y53549D02*
Y58775D01*
X48614Y40033D02*
X48645Y40064D01*
Y47642D01*
X43496Y44244D02*
X44708Y45456D01*
X43496Y40033D02*
Y44244D01*
X44708Y45456D02*
Y47642D01*
X39917Y34083D02*
X40000Y34165D01*
X30000Y34000D02*
X30083Y34083D01*
X39917D01*
X18000Y33731D02*
X18269Y34000D01*
X21000D01*
X24500Y30500D02*
Y32320D01*
Y43059D02*
X27000Y45559D01*
X24500Y32320D02*
Y43059D01*
Y32320D02*
X24820Y32000D01*
X40000D01*
X176000Y30000D02*
Y34000D01*
X179030Y26970D02*
X184520D01*
X176000Y30000D02*
X179030Y26970D01*
X173148Y27852D02*
X177970Y23030D01*
X173148Y27852D02*
Y31852D01*
X177970Y23030D02*
X184520D01*
X173000Y32000D02*
X173148Y31852D01*
X113968Y30207D02*
X114142Y30382D01*
X113968Y27968D02*
Y30207D01*
X106368Y23968D02*
Y25368D01*
X101031Y23968D02*
X106368D01*
X106260Y22500D02*
Y23583D01*
X101000Y24000D02*
X101031Y23968D01*
X18000Y33731D02*
Y44000D01*
Y29000D02*
Y33731D01*
X17030Y23030D02*
X24500Y30500D01*
X12480Y23030D02*
X17030D01*
X19559Y45559D02*
X22000D01*
X18000Y44000D02*
X19559Y45559D01*
X15970Y26970D02*
X18000Y29000D01*
X12480Y26970D02*
X15970D01*
X24843Y53799D02*
X27000Y51641D01*
X24843Y53799D02*
Y55126D01*
X27000Y45559D02*
Y51641D01*
X22000Y45559D02*
Y48000D01*
X14874Y55126D02*
X22000Y48000D01*
X5158Y55126D02*
X14874D01*
X109024Y30382D02*
Y34976D01*
X109000Y35000D02*
X109024Y34976D01*
X163406Y50299D02*
X164986D01*
X158000Y42535D02*
Y44894D01*
X154000Y38535D02*
X158000Y42535D01*
X122521Y64021D02*
X127920D01*
X122500Y64000D02*
X122521Y64021D01*
X127920D02*
X127941Y64042D01*
D17*
X109955Y73691D02*
Y106085D01*
X104370Y68106D02*
X109955Y73691D01*
X87106Y68106D02*
X104370D01*
X104000Y69000D02*
X109000Y74000D01*
X86000Y69000D02*
X104000D01*
X109000Y74000D02*
Y83000D01*
X85362Y66362D02*
X87106Y68106D01*
X83787Y66787D02*
X86000Y69000D01*
X120637Y52363D02*
X127000Y46000D01*
Y38559D02*
Y46000D01*
X36834Y47642D02*
Y49512D01*
X39322Y52000D02*
X41000D01*
X36834Y49512D02*
X39322Y52000D01*
X40771Y47642D02*
Y49061D01*
X65385Y49213D02*
X69584D01*
X67189Y50788D02*
X69584D01*
X63513Y55513D02*
X69584D01*
X59407Y53549D02*
X61550D01*
X63513Y55513D01*
X59407Y58775D02*
X65225D01*
X67000Y57000D02*
X69497D01*
X69584Y57087D01*
X65225Y58775D02*
X67000Y57000D01*
X82106Y63522D02*
Y65894D01*
Y63522D02*
X82212Y63416D01*
X82000Y66000D02*
X82106Y65894D01*
X54713Y72123D02*
X57542Y69295D01*
X55000Y74000D02*
X61004Y67996D01*
X44170Y72123D02*
X54713D01*
X69584Y52363D02*
X69728Y52219D01*
X72781D01*
X73000Y52000D01*
X69615Y53969D02*
X71969D01*
X72000Y54000D01*
X69584Y53938D02*
X69615Y53969D01*
X40128Y78318D02*
X41605Y76840D01*
X35263Y77108D02*
X36473Y78318D01*
X40128D01*
X38678Y72491D02*
X40771Y70397D01*
X38678Y72491D02*
Y75858D01*
X40771Y68527D02*
Y70397D01*
X41605Y74688D02*
X44170Y72123D01*
X41605Y74688D02*
Y76840D01*
X33000Y75858D02*
X34250Y77108D01*
X35263D01*
X34000Y73000D02*
Y74858D01*
X33000Y75858D02*
X34000Y74858D01*
X36834Y68527D02*
Y70166D01*
X34000Y73000D02*
X36834Y70166D01*
X143001Y95001D02*
Y98437D01*
X138000Y90000D02*
X143001Y95001D01*
X133000Y90000D02*
X138000D01*
X122000D02*
Y95225D01*
X119379Y97846D02*
X122000Y95225D01*
X119379Y97846D02*
Y98437D01*
X131000Y97000D02*
X132437Y98437D01*
X135126D01*
X131000Y93500D02*
Y97000D01*
X127500Y90000D02*
X131000Y93500D01*
X135000Y98000D02*
X135126Y98126D01*
Y98437D01*
X27431Y83569D02*
X43855D01*
X22000Y89000D02*
X27431Y83569D01*
X43855D02*
X44322Y83101D01*
X34000Y86736D02*
X36274Y84463D01*
X44225D01*
X44595Y85356D02*
X45914Y84037D01*
X34894Y87106D02*
X36644Y85356D01*
X44595D01*
X44225Y84463D02*
X45544Y83144D01*
X57000Y89000D02*
X57356Y88644D01*
X60612D01*
X60984Y89016D01*
Y93079D01*
X57047Y103047D02*
X63000Y109000D01*
X57047Y93079D02*
Y103047D01*
X81000Y109000D02*
X82000Y110000D01*
X63000Y109000D02*
X81000D01*
X82000Y110000D02*
Y111667D01*
X82833Y112500D01*
X84665D01*
X60992Y98000D02*
X62000D01*
X59983D02*
X60992D01*
Y101992D02*
X66500Y107500D01*
X84665D01*
X60992Y98000D02*
Y101992D01*
X57000Y89000D02*
Y93032D01*
X57047Y93079D01*
X59074Y97091D02*
X59983Y98000D01*
X59074Y93137D02*
Y97091D01*
X59016Y93079D02*
X59074Y93137D01*
X62953Y93079D02*
Y97047D01*
X62000Y98000D02*
X62953Y97047D01*
X4708Y97461D02*
X21638D01*
X27539D01*
X47856Y83144D02*
X50000Y81000D01*
X45914Y84037D02*
X50963D01*
X51000Y84000D01*
X45544Y83144D02*
X47856D01*
X27539Y97461D02*
X34000Y91000D01*
X34894Y87106D02*
Y91370D01*
X26264Y100000D02*
X34894Y91370D01*
X19250Y100000D02*
X26264D01*
X34000Y86736D02*
Y91000D01*
X44322Y81000D02*
Y83101D01*
X22000Y89000D02*
Y90177D01*
X21638Y90539D02*
X22000Y90177D01*
X50000Y81000D02*
X52000D01*
X58925Y75957D02*
X59000Y75882D01*
X57043Y75957D02*
X58925D01*
X52000Y81000D02*
X57043Y75957D01*
X44500Y78500D02*
X52500D01*
X55000Y76000D01*
Y74000D02*
Y76000D01*
X59000Y75882D02*
X64000D01*
X6250Y113000D02*
X19250Y100000D01*
X6000Y113000D02*
X6250D01*
X44207Y78793D02*
Y80885D01*
Y78793D02*
X44500Y78500D01*
X44207Y80885D02*
X44322Y81000D01*
X4708Y90539D02*
X21638D01*
X65075Y73925D02*
X71000Y68000D01*
X65075Y73925D02*
Y74807D01*
X71000Y68000D02*
X71000D01*
X64000Y75882D02*
X65075Y74807D01*
X71000Y68000D02*
X72764Y66236D01*
Y63416D02*
Y66236D01*
X105653Y107181D02*
X108859D01*
X109955Y106085D01*
X105335Y107500D02*
X105653Y107181D01*
X99954Y100954D02*
X101391Y102391D01*
X99954Y92046D02*
Y100954D01*
X101391Y102391D02*
X105226D01*
X105335Y102500D01*
X99954Y92046D02*
X109000Y83000D01*
X83787Y63416D02*
Y66787D01*
X85362Y63416D02*
Y66362D01*
X25842Y64000D02*
X45538D01*
X48645Y67107D01*
X29070Y64930D02*
X42531D01*
X8754Y66597D02*
X27404D01*
X29070Y64930D01*
X42531D02*
X44708Y67107D01*
X24843Y63000D02*
X25842Y64000D01*
X48645Y67107D02*
Y68527D01*
X44708Y67107D02*
Y68527D01*
X5158Y63000D02*
X8754Y66597D01*
X96415Y52363D02*
X120637D01*
X90087Y36586D02*
Y38426D01*
X91661Y40000D01*
X90086Y36585D02*
X90087Y36586D01*
X88512Y36585D02*
Y39168D01*
X89000Y39656D01*
Y40000D01*
X93826Y39656D02*
Y40000D01*
X93236Y36585D02*
Y39066D01*
X93826Y39656D01*
X96415Y53938D02*
X121062D01*
X122769Y52231D02*
X127941D01*
X121062Y53938D02*
X122769Y52231D01*
X123168Y56168D02*
X127941D01*
X122513Y55513D02*
X123168Y56168D01*
X96415Y55513D02*
X122513D01*
X122351Y57087D02*
X123401Y58137D01*
X96415Y57087D02*
X122351D01*
X123401Y58137D02*
X127941D01*
X124105Y60105D02*
X127941D01*
X96415Y58662D02*
X122662D01*
X124105Y60105D01*
X120237Y60237D02*
X122074Y62074D01*
X96415Y60237D02*
X120237D01*
X122074Y62074D02*
X127941D01*
D22*
X70094Y37094D02*
X73000Y40000D01*
X69000Y26000D02*
Y35000D01*
X65000Y39000D02*
X69000Y35000D01*
Y26000D02*
X77094Y17906D01*
X70094Y26906D02*
Y37094D01*
Y26906D02*
X78000Y19000D01*
X65000Y39000D02*
Y43000D01*
X78000Y19000D02*
X91000D01*
X77094Y17906D02*
X97094D01*
X94000Y31086D02*
Y31302D01*
X88098Y30098D02*
X91661Y33661D01*
Y36585D01*
X88098Y27733D02*
Y30098D01*
X80638Y31362D02*
X82098Y29902D01*
Y27733D02*
Y29902D01*
X80638Y31362D02*
Y36585D01*
X108642Y17906D02*
X111906D01*
X106736Y16000D02*
X108642Y17906D01*
X99000Y16000D02*
X106736D01*
X97094Y17906D02*
X99000Y16000D01*
X111906Y17906D02*
X113740Y19740D01*
X128041Y54100D02*
X132900D01*
X133000Y54000D01*
X127941Y54200D02*
X128041Y54100D01*
X90105Y60504D02*
Y63397D01*
X90086Y63416D02*
X90105Y63397D01*
Y60504D02*
X90125Y60484D01*
X80599Y60435D02*
Y63377D01*
X80638Y63416D01*
X80560Y60396D02*
X80599Y60435D01*
X75913Y60913D02*
Y63416D01*
X75237Y60237D02*
X75913Y60913D01*
X69584Y60237D02*
X75237D01*
X62000Y64000D02*
X65763Y60237D01*
X69584D01*
X102382Y30382D02*
X109024D01*
X91000Y19000D02*
X102382Y30382D01*
X143000Y55559D02*
Y64000D01*
X140989Y66011D02*
X143000Y64000D01*
X127941Y66011D02*
X140989D01*
X69000Y75882D02*
X77488Y67394D01*
Y63416D02*
Y67394D01*
X65000Y43000D02*
X66489Y44489D01*
X69584D01*
X113740Y19740D02*
Y22500D01*
X73000Y40000D02*
Y45000D01*
X71936Y46064D02*
X73000Y45000D01*
X69584Y46064D02*
X71936D01*
D24*
X23118Y113000D02*
D03*
X18000D02*
D03*
X70441Y11000D02*
D03*
X75559D02*
D03*
X109000Y35000D02*
D03*
X114118D02*
D03*
X82882Y91000D02*
D03*
X88000D02*
D03*
X54289Y64000D02*
D03*
X59407D02*
D03*
X54289Y58775D02*
D03*
X59407D02*
D03*
X54289Y53549D02*
D03*
X59407D02*
D03*
X64559Y28000D02*
D03*
X59441D02*
D03*
X54441Y34000D02*
D03*
X59559D02*
D03*
X48614Y40033D02*
D03*
X43496D02*
D03*
X38118Y40000D02*
D03*
X33000D02*
D03*
X114142Y30382D02*
D03*
X109024D02*
D03*
D25*
X6000Y113000D02*
D03*
X70000Y6000D02*
D03*
D26*
X12000Y113000D02*
D03*
X76000Y6000D02*
D03*
D27*
X83000Y50001D02*
D03*
D28*
X72764Y63416D02*
D03*
X74338D02*
D03*
X75913D02*
D03*
X77488D02*
D03*
X79063D02*
D03*
X80638D02*
D03*
X82212D02*
D03*
X83787D02*
D03*
X85362D02*
D03*
X86937D02*
D03*
X88512D02*
D03*
X90086D02*
D03*
X91661D02*
D03*
X93236D02*
D03*
Y36585D02*
D03*
X91661D02*
D03*
X90086D02*
D03*
X88512D02*
D03*
X86937D02*
D03*
X85362D02*
D03*
X83787D02*
D03*
X82212D02*
D03*
X80638D02*
D03*
X79063D02*
D03*
X77488D02*
D03*
X75913D02*
D03*
X74338D02*
D03*
X72764D02*
D03*
D29*
X96415Y60237D02*
D03*
Y58662D02*
D03*
Y57087D02*
D03*
Y55513D02*
D03*
Y53938D02*
D03*
Y52363D02*
D03*
Y50788D02*
D03*
Y49213D02*
D03*
Y47639D02*
D03*
Y46064D02*
D03*
Y44489D02*
D03*
Y42914D02*
D03*
Y41339D02*
D03*
Y39765D02*
D03*
X69584D02*
D03*
Y41339D02*
D03*
Y42914D02*
D03*
Y44489D02*
D03*
Y46064D02*
D03*
Y47639D02*
D03*
Y49213D02*
D03*
Y50788D02*
D03*
Y52363D02*
D03*
Y53938D02*
D03*
Y55513D02*
D03*
Y57087D02*
D03*
Y58662D02*
D03*
Y60237D02*
D03*
D30*
X27000Y21118D02*
D03*
Y16000D02*
D03*
X143000Y50441D02*
D03*
Y55559D02*
D03*
X154000Y38535D02*
D03*
Y33417D02*
D03*
X132000Y38559D02*
D03*
Y33441D02*
D03*
X127000Y38559D02*
D03*
Y33441D02*
D03*
X88098Y22615D02*
D03*
Y27733D02*
D03*
X82098Y22615D02*
D03*
Y27733D02*
D03*
X120000Y19559D02*
D03*
Y14441D02*
D03*
X127500Y84882D02*
D03*
Y90000D02*
D03*
X122000Y84882D02*
D03*
Y90000D02*
D03*
X101485Y80976D02*
D03*
Y75858D02*
D03*
X96485Y81000D02*
D03*
Y75882D02*
D03*
X91485D02*
D03*
Y81000D02*
D03*
X69000D02*
D03*
Y75882D02*
D03*
X64000D02*
D03*
Y81000D02*
D03*
X59000D02*
D03*
Y75882D02*
D03*
X50000D02*
D03*
Y81000D02*
D03*
X44322Y75882D02*
D03*
Y81000D02*
D03*
X38678Y75858D02*
D03*
Y80976D02*
D03*
X33000Y75858D02*
D03*
Y80976D02*
D03*
X59348Y42882D02*
D03*
Y48000D02*
D03*
X54290Y42882D02*
D03*
Y48000D02*
D03*
X27000Y45559D02*
D03*
Y40441D02*
D03*
X22000Y45559D02*
D03*
Y40441D02*
D03*
X133000Y90000D02*
D03*
X27000Y11118D02*
D03*
X133000Y84882D02*
D03*
X27000Y6000D02*
D03*
D31*
X12480Y35630D02*
D03*
Y14370D02*
D03*
X184520D02*
D03*
Y35630D02*
D03*
D32*
X12480Y30910D02*
D03*
Y26970D02*
D03*
Y23030D02*
D03*
Y19090D02*
D03*
X184520D02*
D03*
Y23030D02*
D03*
Y26970D02*
D03*
Y30910D02*
D03*
D33*
X32897Y47642D02*
D03*
D34*
X36834D02*
D03*
X40771D02*
D03*
X48645D02*
D03*
X44708D02*
D03*
X32897Y68527D02*
D03*
X36834D02*
D03*
X48645D02*
D03*
X44708D02*
D03*
X40771D02*
D03*
D35*
Y58084D02*
D03*
D36*
X143000Y42910D02*
D03*
X146740Y33910D02*
D03*
X139260D02*
D03*
D37*
X127941Y52231D02*
D03*
Y66011D02*
D03*
Y64042D02*
D03*
Y62074D02*
D03*
Y60105D02*
D03*
Y58137D02*
D03*
Y56168D02*
D03*
Y54200D02*
D03*
D38*
X118110Y72507D02*
D03*
X118110Y45735D02*
D03*
D39*
X113740Y11500D02*
D03*
X110000D02*
D03*
X106260D02*
D03*
Y22500D02*
D03*
X110000D02*
D03*
X113740D02*
D03*
D40*
X149694Y104146D02*
D03*
X112686D02*
D03*
D41*
X127252Y98437D02*
D03*
X135126D02*
D03*
X119379D02*
D03*
X143001D02*
D03*
D42*
X116702Y114422D02*
D03*
D43*
X145678Y114423D02*
D03*
D44*
X84134Y83346D02*
D03*
X75866D02*
D03*
Y76653D02*
D03*
X84134D02*
D03*
D45*
X35000Y26055D02*
D03*
Y17000D02*
D03*
Y7945D02*
D03*
D46*
X60500Y17000D02*
D03*
D47*
X40512Y88000D02*
D03*
D48*
X29488D02*
D03*
D49*
X57047Y93079D02*
D03*
X60984D02*
D03*
X62953D02*
D03*
X59016D02*
D03*
X70039D02*
D03*
X51142D02*
D03*
X68858D02*
D03*
X49961D02*
D03*
X73189D02*
D03*
X72008D02*
D03*
X66890D02*
D03*
X64921D02*
D03*
X55079D02*
D03*
X53110D02*
D03*
X47992D02*
D03*
X46811D02*
D03*
D50*
X84665Y112500D02*
D03*
D51*
Y107500D02*
D03*
X105335D02*
D03*
Y102500D02*
D03*
X84665D02*
D03*
Y97500D02*
D03*
X105335Y112500D02*
D03*
Y97500D02*
D03*
D52*
X21638Y97461D02*
D03*
X4708D02*
D03*
Y90539D02*
D03*
X21638D02*
D03*
X4708Y82075D02*
D03*
X21638D02*
D03*
Y105925D02*
D03*
X4708D02*
D03*
D53*
X153568Y64866D02*
D03*
Y74709D02*
D03*
Y82583D02*
D03*
Y92425D02*
D03*
D54*
X164986Y50299D02*
D03*
Y106992D02*
D03*
D97*
X51595Y53508D02*
X53564D01*
X22000Y16000D02*
Y18901D01*
X23717Y20618D02*
X26500D01*
X27000Y21118D01*
X22000Y18901D02*
X23717Y20618D01*
X27000Y21118D02*
Y24883D01*
X28172Y26055D02*
X35000D01*
X27000Y24883D02*
X28172Y26055D01*
X12480Y19090D02*
X13012Y18558D01*
X16442D02*
X19000Y16000D01*
X13012Y18558D02*
X16442D01*
X19000Y13000D02*
Y16000D01*
Y13000D02*
X20882Y11118D01*
X27000D01*
Y16000D01*
X38118Y36500D02*
X38173Y36445D01*
X40944D01*
X43000Y34389D01*
Y28000D02*
Y34389D01*
X35000Y26055D02*
X41055D01*
X43000Y28000D01*
X38118Y40000D02*
X40500D01*
X32897Y47642D02*
Y51142D01*
X79441Y91000D02*
X82882D01*
X99963Y112441D02*
X103404D01*
X105335Y94059D02*
Y97500D01*
X88000Y91000D02*
X91441D01*
X23118Y109559D02*
Y113000D01*
X59000Y81000D02*
Y84441D01*
X146724Y34000D02*
X146740Y33984D01*
Y33910D02*
Y33984D01*
X145000Y34000D02*
X146724D01*
X140441Y38559D02*
X145000Y34000D01*
X132000Y38559D02*
X140441D01*
X132000D02*
Y42000D01*
X101485Y72341D02*
Y75858D01*
X96485Y81000D02*
Y84517D01*
X96469Y84532D02*
X96485Y84517D01*
X59407Y64000D02*
X59407Y64000D01*
X62000D01*
X54289Y48001D02*
X54290Y48000D01*
X54171Y47881D02*
X54290Y48000D01*
X54171Y45911D02*
Y47881D01*
X54289Y48001D02*
Y53549D01*
X54289Y53549D02*
X54289Y53549D01*
X59348Y46031D02*
Y48000D01*
X54290Y39382D02*
Y42882D01*
X50789Y58775D02*
X54289D01*
X38118Y36500D02*
Y40000D01*
X143000Y42910D02*
Y50441D01*
X146756Y33663D02*
X153753D01*
X154000Y33417D01*
X146740Y33679D02*
Y33910D01*
Y33679D02*
X146756Y33663D01*
X139244Y33441D02*
X139260Y33457D01*
X132000Y33441D02*
X139244D01*
X139260Y33457D02*
Y33910D01*
X127000Y33441D02*
X132000D01*
X33000Y80976D02*
X38678D01*
X30000Y81000D02*
X32976D01*
X33000Y80976D01*
X29000Y88488D02*
X29488Y88000D01*
X29000Y88488D02*
Y91000D01*
X50609Y87000D02*
Y92208D01*
X50485Y92333D02*
X50609Y92208D01*
X46364Y87000D02*
X50609D01*
X67703D01*
X47355Y90299D02*
X47392Y90263D01*
X47355Y90299D02*
Y91603D01*
X40628Y87883D02*
X45480D01*
X46364Y87000D01*
X40512Y88000D02*
X40628Y87883D01*
X67703Y87000D02*
X69481Y88778D01*
Y91871D01*
X72631Y88862D02*
Y92362D01*
X21638Y102446D02*
Y105925D01*
X44440Y76000D02*
X47000D01*
X44322Y75882D02*
X44440Y76000D01*
X47000D02*
X49882D01*
X50000Y75882D01*
X122000Y81382D02*
Y84882D01*
X127500Y81382D02*
Y84882D01*
X133000Y81382D02*
Y84882D01*
X127252Y94937D02*
Y98437D01*
X86829Y102465D02*
X90329D01*
X4708Y102425D02*
Y105925D01*
Y82075D02*
Y85575D01*
X21638Y82075D02*
Y85575D01*
X101485Y80976D02*
Y84476D01*
X91485Y81000D02*
Y84500D01*
X75866Y83346D02*
Y86847D01*
X64000Y81000D02*
Y84500D01*
X50789Y64000D02*
X54289D01*
X59348Y39382D02*
Y42882D01*
X23500Y6000D02*
X27000D01*
X22000Y36941D02*
Y40441D01*
X27000Y36941D02*
Y40441D01*
X50941Y34000D02*
X54441D01*
X32882Y11118D02*
X33000Y11000D01*
Y8618D02*
Y11000D01*
X27000Y11118D02*
X32882D01*
X33000Y8618D02*
X33673Y7945D01*
X35000D01*
X59500Y28059D02*
Y33941D01*
X59559Y34000D01*
X59441Y28000D02*
X59500Y28059D01*
X59441Y18059D02*
X60500Y17000D01*
X59441Y18059D02*
Y28000D01*
X60500Y17000D02*
X63172Y14328D01*
X67112D01*
X70441Y11000D01*
D98*
X5920Y14000D02*
D03*
Y36000D02*
D03*
X165080Y47000D02*
D03*
Y54000D02*
D03*
X188080Y36000D02*
D03*
X184080Y14000D02*
D03*
D99*
X162000Y100080D02*
D03*
X158000D02*
D03*
D100*
X159500Y101500D02*
D03*
D101*
X48000Y16000D02*
D03*
D102*
X48102Y21500D02*
D03*
D103*
X53500Y28102D02*
D03*
D104*
X190315Y30909D02*
D03*
D105*
X194795Y24928D02*
D03*
X3205Y25072D02*
D03*
D106*
X190333Y18959D02*
D03*
D107*
X153619Y65048D02*
D03*
D108*
X7155Y31041D02*
D03*
X7191Y19091D02*
D03*
D109*
X-2480Y7990D02*
D03*
Y42010D02*
D03*
X12480Y7990D02*
D03*
Y42010D02*
D03*
X199480D02*
D03*
Y7990D02*
D03*
X184520Y42010D02*
D03*
Y7990D02*
D03*
D110*
X141000Y12000D02*
D03*
D111*
X161000D02*
D03*
D112*
X123709Y106114D02*
D03*
X138669D02*
D03*
D113*
X24843Y55126D02*
D03*
X5158Y63000D02*
D03*
Y55126D02*
D03*
X24843Y70874D02*
D03*
Y63000D02*
D03*
D114*
X5158Y70874D02*
D03*
D115*
X33465Y110236D02*
D03*
X90551Y7874D02*
D03*
X165354Y37008D02*
D03*
X189126Y110126D02*
D03*
D116*
X169710Y69000D02*
D03*
Y88291D02*
D03*
D117*
X77028Y97173D02*
D03*
X42972D02*
D03*
D118*
X77028Y112921D02*
D03*
X42972D02*
D03*
D119*
X48622Y99142D02*
D03*
X71378D02*
D03*
D120*
X83000Y50001D02*
D03*
Y53937D02*
D03*
X83002Y46065D02*
D03*
X79063Y46063D02*
D03*
X86937D02*
D03*
X79064Y53937D02*
D03*
Y50001D02*
D03*
X86937Y53937D02*
D03*
Y50000D02*
D03*
D121*
X113740Y8059D02*
D03*
X110000Y8000D02*
D03*
X51595Y53508D02*
D03*
X13000Y14000D02*
D03*
X7400D02*
D03*
X10200D02*
D03*
X4600D02*
D03*
X1800D02*
D03*
X-1000D02*
D03*
X13000Y36000D02*
D03*
X7400D02*
D03*
X10200D02*
D03*
X4600D02*
D03*
X1800D02*
D03*
X-1000D02*
D03*
X77000Y31302D02*
D03*
X94000D02*
D03*
X22000Y16000D02*
D03*
Y18901D02*
D03*
X40500Y40000D02*
D03*
X32897Y51142D02*
D03*
X42000Y61000D02*
D03*
Y58000D02*
D03*
Y55000D02*
D03*
X45000D02*
D03*
Y58000D02*
D03*
Y61000D02*
D03*
X162000Y93000D02*
D03*
Y98600D02*
D03*
Y95800D02*
D03*
Y101400D02*
D03*
Y104200D02*
D03*
Y107000D02*
D03*
X158000Y93000D02*
D03*
Y98600D02*
D03*
Y95800D02*
D03*
Y101400D02*
D03*
Y104200D02*
D03*
Y107000D02*
D03*
Y47000D02*
D03*
X163600D02*
D03*
X160800D02*
D03*
X166400D02*
D03*
X169200D02*
D03*
X172000D02*
D03*
X158000Y54000D02*
D03*
X163600D02*
D03*
X160800D02*
D03*
X166400D02*
D03*
X169200D02*
D03*
X172000D02*
D03*
X181000Y36000D02*
D03*
X186600D02*
D03*
X183800D02*
D03*
X189400D02*
D03*
X192200D02*
D03*
X195000D02*
D03*
X191000Y14000D02*
D03*
X188200D02*
D03*
X185400D02*
D03*
X179800D02*
D03*
X182600D02*
D03*
X177000D02*
D03*
X79441Y91000D02*
D03*
X99963Y112441D02*
D03*
X105335Y94059D02*
D03*
X91441Y91000D02*
D03*
X23118Y109559D02*
D03*
X59000Y84441D02*
D03*
X66559Y6000D02*
D03*
X117559Y35000D02*
D03*
X101000Y18000D02*
D03*
X117000Y25000D02*
D03*
X123441Y14441D02*
D03*
X120000Y11000D02*
D03*
X132000Y42000D02*
D03*
X133000Y54000D02*
D03*
X101485Y72341D02*
D03*
X96469Y84532D02*
D03*
X90125Y60484D02*
D03*
X80560Y60396D02*
D03*
X62000Y64000D02*
D03*
X54171Y45911D02*
D03*
X59348Y46031D02*
D03*
X54290Y39382D02*
D03*
X52560Y13320D02*
D03*
X43560Y15653D02*
D03*
X45810Y13320D02*
D03*
X48060Y10987D02*
D03*
X52560D02*
D03*
Y17987D02*
D03*
X45810D02*
D03*
X48060D02*
D03*
Y13320D02*
D03*
X43560Y10987D02*
D03*
X52560Y15653D02*
D03*
X45810D02*
D03*
X43560Y13320D02*
D03*
X50310D02*
D03*
X43560Y17987D02*
D03*
X50310D02*
D03*
Y15653D02*
D03*
Y10987D02*
D03*
X48060Y15653D02*
D03*
X45810Y10987D02*
D03*
X41000Y52000D02*
D03*
X40771Y49061D02*
D03*
X65385Y49213D02*
D03*
X67189Y50788D02*
D03*
X50789Y58775D02*
D03*
X82000Y66000D02*
D03*
X57542Y69295D02*
D03*
X61004Y67996D02*
D03*
X73000Y52000D02*
D03*
X72000Y54000D02*
D03*
X40000Y34165D02*
D03*
Y32000D02*
D03*
X30000Y34000D02*
D03*
X21000D02*
D03*
X38118Y36500D02*
D03*
X173000Y32000D02*
D03*
X176000Y34000D02*
D03*
X101000Y24000D02*
D03*
X122000Y90000D02*
D03*
X133000D02*
D03*
X127500D02*
D03*
X30000Y81000D02*
D03*
X29000Y88488D02*
D03*
Y91000D02*
D03*
X47392Y90263D02*
D03*
X72631Y88862D02*
D03*
X51000Y84000D02*
D03*
X21638Y102446D02*
D03*
X61000Y72000D02*
D03*
X47000Y76000D02*
D03*
X89000Y40000D02*
D03*
X91661D02*
D03*
X93826D02*
D03*
X122500Y64000D02*
D03*
X122000Y81382D02*
D03*
X127500D02*
D03*
X133000D02*
D03*
X127252Y94937D02*
D03*
X90329Y102465D02*
D03*
X4708Y102425D02*
D03*
Y85575D02*
D03*
X21638D02*
D03*
X101485Y84476D02*
D03*
X91485Y84500D02*
D03*
X75866Y86847D02*
D03*
X64000Y84500D02*
D03*
X50789Y64000D02*
D03*
X59348Y39382D02*
D03*
X23500Y6000D02*
D03*
X22000Y36941D02*
D03*
X27000D02*
D03*
X50941Y34000D02*
D03*
X72000Y18000D02*
D03*
X197000Y30898D02*
D03*
X193326Y28000D02*
D03*
Y30898D02*
D03*
X197000Y28000D02*
D03*
Y25102D02*
D03*
X193326D02*
D03*
X159412Y66749D02*
D03*
X156514Y63075D02*
D03*
Y66749D02*
D03*
X159412Y63075D02*
D03*
X197000Y22203D02*
D03*
Y19304D02*
D03*
X193326D02*
D03*
Y22203D02*
D03*
X150717Y66749D02*
D03*
X153615D02*
D03*
X150717Y63075D02*
D03*
X147818D02*
D03*
Y66749D02*
D03*
X153615Y63075D02*
D03*
X5000Y25102D02*
D03*
Y22203D02*
D03*
Y30898D02*
D03*
X1326Y28000D02*
D03*
Y30898D02*
D03*
X5000Y28000D02*
D03*
X1326Y22203D02*
D03*
Y25102D02*
D03*
X5000Y19304D02*
D03*
X1326D02*
D03*
M02*
