G04*
G04 #@! TF.GenerationSoftware,Altium Limited,Altium Designer,22.2.1 (43)*
G04*
G04 Layer_Color=32896*
%FSLAX25Y25*%
%MOIN*%
G70*
G04*
G04 #@! TF.SameCoordinates,5917ED16-7F16-4460-A846-6834CAD0EC44*
G04*
G04*
G04 #@! TF.FilePolarity,Positive*
G04*
G01*
G75*
%ADD15C,0.01000*%
%ADD144C,0.00034*%
G36*
X67764Y71825D02*
X67819Y71804D01*
X67867Y71777D01*
X67874Y71770D01*
X67880D01*
X67949Y71722D01*
X68003Y71674D01*
X68038Y71633D01*
X68045Y71627D01*
X68051Y71620D01*
X68099Y71551D01*
X68140Y71490D01*
X68154Y71463D01*
X68167Y71449D01*
X68174Y71435D01*
Y71428D01*
X68202Y71353D01*
X68215Y71292D01*
X68222Y71264D01*
Y71244D01*
Y71237D01*
Y71230D01*
X68215Y71189D01*
X68202Y71162D01*
X68188Y71135D01*
X68181Y71128D01*
X68140Y71101D01*
X68106Y71080D01*
X68079Y71066D01*
X68065Y71060D01*
X68010Y71039D01*
X67962Y71032D01*
X67922Y71019D01*
X67908D01*
X67840Y71012D01*
X67785Y71005D01*
X67730D01*
X67648Y71012D01*
X67573Y71032D01*
X67512Y71053D01*
X67464Y71087D01*
X67430Y71114D01*
X67402Y71135D01*
X67389Y71155D01*
X67382Y71162D01*
X67341Y71223D01*
X67314Y71278D01*
X67300Y71319D01*
X67293Y71326D01*
Y71333D01*
X67273Y71401D01*
X67266Y71463D01*
X67259Y71490D01*
Y71504D01*
Y71517D01*
Y71524D01*
X67266Y71586D01*
X67273Y71633D01*
X67286Y71661D01*
X67293Y71674D01*
X67321Y71715D01*
X67348Y71743D01*
X67368Y71763D01*
X67382Y71770D01*
X67423Y71790D01*
X67471Y71804D01*
X67505Y71818D01*
X67519D01*
X67580Y71825D01*
X67642Y71831D01*
X67703D01*
X67764Y71825D01*
D02*
G37*
G36*
X34093Y71825D02*
X34147Y71804D01*
X34195Y71777D01*
X34202Y71770D01*
X34209D01*
X34277Y71722D01*
X34332Y71674D01*
X34366Y71633D01*
X34373Y71627D01*
X34379Y71620D01*
X34427Y71551D01*
X34468Y71490D01*
X34482Y71463D01*
X34495Y71449D01*
X34502Y71435D01*
Y71428D01*
X34530Y71353D01*
X34543Y71292D01*
X34550Y71264D01*
Y71244D01*
Y71237D01*
Y71230D01*
X34543Y71189D01*
X34530Y71162D01*
X34516Y71135D01*
X34509Y71128D01*
X34468Y71101D01*
X34434Y71080D01*
X34407Y71066D01*
X34393Y71060D01*
X34338Y71039D01*
X34291Y71032D01*
X34250Y71019D01*
X34236D01*
X34168Y71012D01*
X34113Y71005D01*
X34058D01*
X33976Y71012D01*
X33901Y71032D01*
X33840Y71053D01*
X33792Y71087D01*
X33758Y71114D01*
X33731Y71135D01*
X33717Y71155D01*
X33710Y71162D01*
X33669Y71223D01*
X33642Y71278D01*
X33628Y71319D01*
X33621Y71326D01*
Y71333D01*
X33601Y71401D01*
X33594Y71463D01*
X33587Y71490D01*
Y71504D01*
Y71517D01*
Y71524D01*
X33594Y71586D01*
X33601Y71633D01*
X33614Y71661D01*
X33621Y71674D01*
X33649Y71715D01*
X33676Y71743D01*
X33696Y71763D01*
X33710Y71770D01*
X33751Y71790D01*
X33799Y71804D01*
X33833Y71818D01*
X33847D01*
X33908Y71825D01*
X33970Y71831D01*
X34031D01*
X34093Y71825D01*
D02*
G37*
G36*
X58175Y71483D02*
X58223Y71476D01*
X58264Y71463D01*
X58298Y71442D01*
X58325Y71422D01*
X58346Y71408D01*
X58353Y71401D01*
X58359Y71394D01*
X58414Y71319D01*
X58455Y71237D01*
X58469Y71203D01*
X58482Y71183D01*
X58489Y71162D01*
Y71155D01*
X58517Y71053D01*
X58537Y70957D01*
X58544Y70916D01*
X58551Y70889D01*
X58558Y70868D01*
Y70862D01*
X58571Y70752D01*
X58585Y70705D01*
X58592Y70657D01*
X58599Y70622D01*
X58605Y70595D01*
X58612Y70582D01*
Y70575D01*
X58619Y70534D01*
X58626Y70486D01*
X58633Y70445D01*
X58640Y70438D01*
Y70431D01*
X58653Y70363D01*
X58674Y70302D01*
X58680Y70274D01*
Y70254D01*
X58687Y70240D01*
Y70233D01*
X58701Y70158D01*
X58722Y70083D01*
X58728Y70056D01*
Y70035D01*
X58735Y70021D01*
Y70015D01*
X58756Y69940D01*
X58769Y69878D01*
X58783Y69830D01*
X58790Y69823D01*
Y69817D01*
X58803Y69755D01*
X58824Y69707D01*
X58831Y69680D01*
X58838Y69666D01*
X58851Y69632D01*
X58865Y69618D01*
X58872Y69612D01*
X58954D01*
X58988Y69605D01*
X59001D01*
X59063Y69598D01*
X59118Y69591D01*
X59159Y69584D01*
X59172D01*
X59234Y69577D01*
X59288D01*
X59323Y69571D01*
X59336D01*
X59384Y69564D01*
X59541D01*
X59575Y69557D01*
X59589D01*
X59650Y69550D01*
X59698Y69537D01*
X59732Y69530D01*
X59739Y69523D01*
X59746D01*
X59794Y69502D01*
X59835Y69482D01*
X59862Y69461D01*
X59869Y69455D01*
X59896Y69420D01*
X59910Y69386D01*
X59917Y69359D01*
Y69345D01*
X59910Y69257D01*
X59903Y69188D01*
X59896Y69168D01*
Y69147D01*
X59889Y69140D01*
Y69134D01*
X59862Y69086D01*
X59835Y69045D01*
X59814Y69017D01*
X59807Y69011D01*
X59760Y68983D01*
X59712Y68963D01*
X59671Y68956D01*
X59664Y68949D01*
X59657D01*
X59582Y68942D01*
X59507Y68936D01*
X59452D01*
X59548Y68840D01*
X59616Y68778D01*
X59678Y68724D01*
X59732Y68669D01*
X59773Y68635D01*
X59801Y68608D01*
X59807Y68601D01*
X59958Y68471D01*
X60033Y68410D01*
X60101Y68362D01*
X60156Y68321D01*
X60197Y68287D01*
X60224Y68266D01*
X60238Y68259D01*
X60340Y68191D01*
X60429Y68136D01*
X60470Y68116D01*
X60497Y68095D01*
X60518Y68089D01*
X60525Y68082D01*
X60634Y68027D01*
X60689Y68000D01*
X60736Y67979D01*
X60777Y67959D01*
X60812Y67945D01*
X60832Y67931D01*
X60839D01*
X60962Y67891D01*
X61016Y67870D01*
X61064Y67856D01*
X61112Y67843D01*
X61146Y67836D01*
X61167Y67829D01*
X61173D01*
X61290Y67809D01*
X61344Y67802D01*
X61385D01*
X61426Y67795D01*
X61481D01*
X61563Y67802D01*
X61631Y67809D01*
X61658Y67815D01*
X61679D01*
X61686Y67822D01*
X61693D01*
X61754Y67849D01*
X61802Y67877D01*
X61836Y67897D01*
X61850Y67904D01*
X61891Y67945D01*
X61925Y67979D01*
X61945Y68007D01*
X61952Y68020D01*
X61973Y68075D01*
X61986Y68116D01*
X61993Y68150D01*
Y68164D01*
X61857Y68266D01*
X61802Y68307D01*
X61747Y68341D01*
X61706Y68375D01*
X61679Y68396D01*
X61658Y68410D01*
X61652Y68416D01*
X61549Y68498D01*
X61501Y68533D01*
X61460Y68567D01*
X61433Y68594D01*
X61406Y68615D01*
X61392Y68621D01*
X61385Y68628D01*
X61262Y68744D01*
X61146Y68853D01*
X61050Y68949D01*
X60975Y69038D01*
X60914Y69113D01*
X60866Y69174D01*
X60839Y69209D01*
X60832Y69222D01*
X60764Y69332D01*
X60716Y69434D01*
X60682Y69530D01*
X60661Y69612D01*
X60641Y69680D01*
X60634Y69735D01*
Y69769D01*
Y69782D01*
X60641Y69885D01*
X60648Y69974D01*
X60654Y70008D01*
X60661Y70035D01*
X60668Y70049D01*
Y70056D01*
X60702Y70151D01*
X60736Y70226D01*
X60750Y70254D01*
X60764Y70274D01*
X60770Y70288D01*
X60777Y70295D01*
X60839Y70363D01*
X60907Y70411D01*
X60934Y70431D01*
X60955Y70445D01*
X60969Y70452D01*
X60975D01*
X61064Y70486D01*
X61153Y70506D01*
X61194Y70513D01*
X61249D01*
X61331Y70506D01*
X61399Y70500D01*
X61433Y70493D01*
X61453Y70486D01*
X61467Y70479D01*
X61474D01*
X61556Y70452D01*
X61617Y70431D01*
X61645Y70418D01*
X61665Y70404D01*
X61679Y70397D01*
X61686D01*
X61754Y70356D01*
X61816Y70315D01*
X61857Y70281D01*
X61863Y70274D01*
X61870Y70267D01*
X61932Y70219D01*
X61979Y70172D01*
X62014Y70138D01*
X62027Y70131D01*
Y70124D01*
X62095Y70049D01*
X62150Y69974D01*
X62205Y69905D01*
X62253Y69844D01*
X62287Y69789D01*
X62314Y69741D01*
X62328Y69714D01*
X62335Y69707D01*
X62416Y69543D01*
X62451Y69468D01*
X62485Y69407D01*
X62505Y69345D01*
X62526Y69304D01*
X62533Y69277D01*
X62539Y69263D01*
X62587Y69099D01*
X62608Y69024D01*
X62621Y68956D01*
X62635Y68894D01*
X62642Y68853D01*
X62649Y68826D01*
Y68813D01*
X62669Y68649D01*
X62676Y68567D01*
Y68498D01*
X62683Y68444D01*
Y68396D01*
Y68369D01*
Y68355D01*
X62676Y68246D01*
X62669Y68143D01*
X62656Y68054D01*
X62635Y67966D01*
X62615Y67884D01*
X62594Y67815D01*
X62567Y67747D01*
X62539Y67686D01*
X62512Y67638D01*
X62485Y67590D01*
X62464Y67556D01*
X62444Y67522D01*
X62423Y67501D01*
X62410Y67481D01*
X62396Y67474D01*
Y67467D01*
X62341Y67412D01*
X62280Y67371D01*
X62143Y67296D01*
X62007Y67248D01*
X61877Y67207D01*
X61761Y67187D01*
X61713Y67180D01*
X61672D01*
X61631Y67173D01*
X61583D01*
X61413Y67187D01*
X61331Y67194D01*
X61262Y67207D01*
X61201Y67221D01*
X61153Y67228D01*
X61126Y67242D01*
X61112D01*
X60934Y67303D01*
X60852Y67337D01*
X60784Y67371D01*
X60723Y67399D01*
X60675Y67419D01*
X60648Y67433D01*
X60634Y67440D01*
X60456Y67542D01*
X60374Y67590D01*
X60299Y67638D01*
X60238Y67679D01*
X60190Y67713D01*
X60163Y67733D01*
X60149Y67740D01*
X60060Y67809D01*
X59978Y67870D01*
X59903Y67931D01*
X59835Y67986D01*
X59780Y68041D01*
X59732Y68075D01*
X59705Y68102D01*
X59698Y68109D01*
X59541Y68259D01*
X59473Y68328D01*
X59411Y68396D01*
X59364Y68451D01*
X59323Y68492D01*
X59295Y68526D01*
X59288Y68533D01*
X59152Y68696D01*
X59090Y68772D01*
X59036Y68840D01*
X58995Y68901D01*
X58968Y68934D01*
X58974Y68894D01*
X58981Y68860D01*
X58988Y68853D01*
Y68847D01*
X59001Y68778D01*
X59015Y68710D01*
X59022Y68683D01*
Y68662D01*
X59029Y68649D01*
Y68642D01*
X59043Y68553D01*
X59063Y68478D01*
X59070Y68444D01*
Y68416D01*
X59077Y68403D01*
Y68396D01*
X59097Y68307D01*
X59111Y68239D01*
X59118Y68212D01*
X59124Y68191D01*
X59131Y68177D01*
Y68170D01*
X59166Y67993D01*
X59186Y67911D01*
X59193Y67836D01*
X59206Y67774D01*
X59213Y67727D01*
X59220Y67699D01*
Y67686D01*
X59227Y67597D01*
X59234Y67515D01*
X59241Y67440D01*
Y67378D01*
X59247Y67324D01*
Y67283D01*
Y67255D01*
Y67248D01*
X59241Y67160D01*
X59234Y67085D01*
X59227Y67057D01*
Y67037D01*
X59220Y67023D01*
Y67016D01*
X59193Y66941D01*
X59159Y66880D01*
X59131Y66839D01*
X59124Y66832D01*
Y66825D01*
X59070Y66764D01*
X59022Y66723D01*
X58981Y66688D01*
X58974Y66682D01*
X58967D01*
X58899Y66647D01*
X58838Y66634D01*
X58810Y66627D01*
X58769D01*
X58722Y66634D01*
X58680Y66641D01*
X58653Y66647D01*
X58640Y66654D01*
X58585Y66675D01*
X58544Y66695D01*
X58517Y66709D01*
X58503Y66716D01*
X58455Y66750D01*
X58421Y66777D01*
X58400Y66804D01*
X58394Y66811D01*
X58366Y66846D01*
X58353Y66887D01*
X58346Y66914D01*
Y66921D01*
X58353Y66975D01*
X58366Y67016D01*
X58380Y67044D01*
X58387Y67050D01*
X58421Y67078D01*
X58455Y67105D01*
X58476Y67125D01*
X58489Y67132D01*
X58537Y67180D01*
X58551Y67194D01*
X58558Y67201D01*
X58578Y67248D01*
X58585Y67296D01*
X58592Y67337D01*
Y67351D01*
Y67358D01*
Y67385D01*
X58585Y67412D01*
Y67433D01*
Y67440D01*
X58578Y67488D01*
Y67528D01*
X58571Y67563D01*
Y67576D01*
X58564Y67631D01*
X58558Y67686D01*
X58551Y67720D01*
Y67727D01*
Y67733D01*
X58537Y67795D01*
X58530Y67843D01*
X58523Y67877D01*
Y67891D01*
X58510Y67945D01*
X58503Y67993D01*
X58496Y68020D01*
Y68034D01*
X58489Y68075D01*
X58482Y68109D01*
X58476Y68129D01*
Y68136D01*
X58442Y68293D01*
X58428Y68369D01*
X58414Y68437D01*
X58400Y68492D01*
X58387Y68539D01*
X58380Y68567D01*
Y68580D01*
X58332Y68758D01*
X58312Y68840D01*
X58291Y68915D01*
X58278Y68976D01*
X58264Y69031D01*
X58250Y69058D01*
Y69072D01*
X58209Y69079D01*
X58161Y69086D01*
X58134Y69093D01*
X58121D01*
X58066Y69099D01*
X58011D01*
X57970Y69106D01*
X57957D01*
X57888Y69113D01*
X57834Y69120D01*
X57793Y69127D01*
X57779D01*
X57711Y69134D01*
X57649Y69140D01*
X57608Y69147D01*
X57595D01*
X57499Y69161D01*
X57417Y69174D01*
X57383Y69181D01*
X57355Y69188D01*
X57328D01*
X57219Y69202D01*
X57164Y69216D01*
X57123Y69222D01*
X57082Y69229D01*
X57055D01*
X57034Y69236D01*
X57028D01*
X56912Y69263D01*
X56857Y69277D01*
X56809Y69284D01*
X56793Y69289D01*
X56802Y69277D01*
X56871Y69174D01*
X56905Y69134D01*
X56925Y69099D01*
X56939Y69072D01*
X56946Y69065D01*
X57021Y68929D01*
X57055Y68867D01*
X57089Y68813D01*
X57117Y68765D01*
X57137Y68724D01*
X57144Y68696D01*
X57151Y68690D01*
X57212Y68546D01*
X57239Y68478D01*
X57260Y68416D01*
X57274Y68362D01*
X57287Y68321D01*
X57301Y68293D01*
Y68287D01*
X57335Y68136D01*
X57342Y68068D01*
X57349Y68007D01*
X57355Y67952D01*
Y67911D01*
Y67884D01*
Y67877D01*
X57349Y67795D01*
X57335Y67713D01*
Y67679D01*
X57328Y67651D01*
X57321Y67638D01*
Y67631D01*
X57294Y67535D01*
X57260Y67453D01*
X57239Y67419D01*
X57233Y67392D01*
X57219Y67378D01*
Y67371D01*
X57157Y67290D01*
X57096Y67228D01*
X57076Y67207D01*
X57055Y67187D01*
X57041Y67180D01*
X57034Y67173D01*
X56994Y67146D01*
X56946Y67125D01*
X56864Y67105D01*
X56830Y67098D01*
X56802Y67091D01*
X56782D01*
X56713Y67098D01*
X56652Y67105D01*
X56625D01*
X56604Y67112D01*
X56584D01*
X56502Y67132D01*
X56433Y67160D01*
X56413Y67167D01*
X56393Y67173D01*
X56379Y67180D01*
X56372D01*
X56297Y67214D01*
X56229Y67242D01*
X56201Y67255D01*
X56181Y67262D01*
X56174Y67269D01*
X56167D01*
X56099Y67303D01*
X56051Y67337D01*
X56017Y67358D01*
X56003Y67365D01*
X55928Y67419D01*
X55867Y67467D01*
X55839Y67488D01*
X55819Y67508D01*
X55805Y67515D01*
X55798Y67522D01*
X55716Y67590D01*
X55648Y67658D01*
X55621Y67686D01*
X55600Y67699D01*
X55586Y67713D01*
X55580Y67720D01*
X55505Y67795D01*
X55443Y67863D01*
X55423Y67884D01*
X55402Y67904D01*
X55395Y67918D01*
X55388Y67925D01*
X55327Y68000D01*
X55286Y68068D01*
X55252Y68109D01*
X55245Y68116D01*
Y68123D01*
X55218Y68034D01*
X55184Y67952D01*
X55170Y67925D01*
X55163Y67904D01*
X55149Y67891D01*
Y67884D01*
X55095Y67809D01*
X55047Y67747D01*
X55006Y67706D01*
X54999Y67699D01*
X54992Y67692D01*
X54924Y67645D01*
X54856Y67604D01*
X54828Y67590D01*
X54815Y67576D01*
X54801Y67570D01*
X54794D01*
X54712Y67542D01*
X54644Y67528D01*
X54624Y67522D01*
X54583D01*
X54494Y67528D01*
X54412Y67535D01*
X54337Y67549D01*
X54268Y67563D01*
X54214Y67576D01*
X54166Y67583D01*
X54139Y67597D01*
X54132D01*
X53975Y67665D01*
X53906Y67699D01*
X53838Y67733D01*
X53790Y67761D01*
X53749Y67781D01*
X53722Y67795D01*
X53715Y67802D01*
X53572Y67897D01*
X53510Y67945D01*
X53456Y67986D01*
X53408Y68027D01*
X53367Y68054D01*
X53346Y68075D01*
X53339Y68082D01*
X53203Y68198D01*
X53148Y68252D01*
X53094Y68300D01*
X53046Y68341D01*
X53012Y68375D01*
X52991Y68396D01*
X52984Y68403D01*
X52943Y68444D01*
X52909Y68478D01*
X52882Y68505D01*
X52881Y68506D01*
X52889Y68437D01*
X52895Y68375D01*
X52902Y68328D01*
Y68287D01*
X52909Y68259D01*
Y68239D01*
Y68232D01*
X52916Y68164D01*
Y68109D01*
X52923Y68068D01*
Y68061D01*
Y68054D01*
X52930Y68000D01*
Y67952D01*
X52937Y67925D01*
Y67911D01*
Y67863D01*
Y67815D01*
X52943Y67781D01*
Y67774D01*
Y67768D01*
Y67720D01*
Y67672D01*
Y67638D01*
Y67631D01*
Y67624D01*
Y67501D01*
X52930Y67392D01*
X52923Y67303D01*
X52909Y67228D01*
X52895Y67173D01*
X52889Y67132D01*
X52875Y67105D01*
Y67098D01*
X52841Y67044D01*
X52800Y67003D01*
X52752Y66968D01*
X52711Y66948D01*
X52670Y66934D01*
X52636Y66927D01*
X52602D01*
X52568Y66934D01*
X52534Y66941D01*
X52506Y66948D01*
X52499D01*
X52458Y66955D01*
X52424Y66968D01*
X52404Y66975D01*
X52397Y66982D01*
X52363Y67003D01*
X52336Y67016D01*
X52322Y67030D01*
X52315Y67037D01*
X52288Y67064D01*
X52274Y67085D01*
X52260Y67105D01*
Y67112D01*
X52240Y67167D01*
X52233Y67214D01*
X52226Y67242D01*
Y67248D01*
X52213Y67296D01*
X52206Y67337D01*
X52192Y67371D01*
Y67385D01*
X52165Y67494D01*
X52151Y67542D01*
X52137Y67583D01*
X52124Y67617D01*
X52117Y67645D01*
X52110Y67658D01*
Y67665D01*
X52076Y67761D01*
X52042Y67843D01*
X52028Y67877D01*
X52014Y67904D01*
X52008Y67918D01*
Y67925D01*
X51960Y68034D01*
X51939Y68082D01*
X51919Y68123D01*
X51898Y68164D01*
X51885Y68191D01*
X51871Y68205D01*
Y68212D01*
X51810Y68314D01*
X51755Y68396D01*
X51734Y68430D01*
X51714Y68457D01*
X51707Y68471D01*
X51700Y68478D01*
X51632Y68567D01*
X51577Y68635D01*
X51557Y68662D01*
X51536Y68683D01*
X51530Y68696D01*
X51523Y68703D01*
X51461Y68772D01*
X51407Y68833D01*
X51366Y68867D01*
X51359Y68881D01*
X51352D01*
X51284Y68942D01*
X51209Y68990D01*
X51058Y69079D01*
X50915Y69140D01*
X50778Y69188D01*
X50655Y69216D01*
X50608Y69229D01*
X50560Y69236D01*
X50525D01*
X50498Y69243D01*
X50362D01*
X50341Y69236D01*
X50273D01*
X50252Y69229D01*
X50198D01*
X50164Y69236D01*
X50129Y69250D01*
X50116Y69263D01*
X50109Y69270D01*
X50082Y69297D01*
X50061Y69318D01*
X50054Y69339D01*
X50047Y69345D01*
X50027Y69379D01*
X50013Y69407D01*
X50006Y69427D01*
Y69434D01*
X50000Y69468D01*
X49993Y69489D01*
Y69502D01*
Y69509D01*
X50006Y69571D01*
X50027Y69618D01*
X50047Y69646D01*
X50061Y69660D01*
X50116Y69707D01*
X50164Y69741D01*
X50204Y69769D01*
X50218Y69776D01*
X50225D01*
X50300Y69810D01*
X50375Y69830D01*
X50403Y69837D01*
X50430D01*
X50444Y69844D01*
X50450D01*
X50539Y69858D01*
X50614Y69871D01*
X50689D01*
X50765Y69864D01*
X50833Y69858D01*
X50867Y69851D01*
X50888Y69844D01*
X50901Y69837D01*
X50908D01*
X51004Y69810D01*
X51086Y69776D01*
X51120Y69755D01*
X51147Y69748D01*
X51168Y69735D01*
X51174D01*
X51304Y69666D01*
X51366Y69625D01*
X51420Y69591D01*
X51461Y69557D01*
X51495Y69537D01*
X51516Y69516D01*
X51523Y69509D01*
X51639Y69400D01*
X51687Y69352D01*
X51734Y69304D01*
X51769Y69257D01*
X51796Y69222D01*
X51816Y69202D01*
X51823Y69195D01*
X51919Y69058D01*
X51967Y68997D01*
X52001Y68936D01*
X52035Y68881D01*
X52062Y68840D01*
X52076Y68813D01*
X52083Y68806D01*
X52171Y68656D01*
X52206Y68580D01*
X52240Y68512D01*
X52267Y68457D01*
X52288Y68416D01*
X52301Y68389D01*
X52308Y68375D01*
X52294Y68430D01*
X52288Y68485D01*
X52274Y68533D01*
Y68539D01*
Y68546D01*
X52260Y68621D01*
X52240Y68696D01*
X52233Y68724D01*
Y68744D01*
X52226Y68758D01*
Y68765D01*
X52199Y68853D01*
X52185Y68936D01*
X52171Y68970D01*
Y68997D01*
X52165Y69011D01*
Y69017D01*
X52144Y69113D01*
X52124Y69195D01*
X52117Y69229D01*
Y69257D01*
X52110Y69270D01*
Y69277D01*
X52090Y69373D01*
X52076Y69448D01*
Y69482D01*
X52069Y69502D01*
Y69516D01*
Y69523D01*
X52062Y69605D01*
X52055Y69666D01*
Y69707D01*
Y69714D01*
Y69721D01*
Y69776D01*
X52062Y69803D01*
X52076Y69823D01*
X52083Y69844D01*
X52090Y69851D01*
X52110Y69885D01*
X52131Y69912D01*
X52151Y69926D01*
X52158Y69933D01*
X52185Y69960D01*
X52213Y69974D01*
X52240Y69987D01*
X52247Y69994D01*
X52281Y70008D01*
X52315Y70021D01*
X52342D01*
X52397Y70015D01*
X52452Y70008D01*
X52493Y69994D01*
X52527Y69974D01*
X52561Y69953D01*
X52581Y69940D01*
X52588Y69933D01*
X52595Y69926D01*
X52650Y69851D01*
X52691Y69769D01*
X52704Y69735D01*
X52711Y69707D01*
X52718Y69687D01*
Y69680D01*
X52738Y69571D01*
X52759Y69468D01*
X52766Y69420D01*
X52773Y69386D01*
X52779Y69359D01*
Y69352D01*
X52793Y69265D01*
X52814Y69250D01*
X52848Y69222D01*
X52875Y69195D01*
X52889Y69188D01*
X52930Y69147D01*
X52964Y69120D01*
X52984Y69093D01*
X52991Y69086D01*
X53018Y69058D01*
X53032Y69045D01*
X53039Y69038D01*
X53169Y68908D01*
X53230Y68847D01*
X53285Y68799D01*
X53326Y68758D01*
X53360Y68724D01*
X53387Y68703D01*
X53394Y68696D01*
X53524Y68587D01*
X53585Y68539D01*
X53640Y68498D01*
X53681Y68464D01*
X53715Y68437D01*
X53742Y68423D01*
X53749Y68416D01*
X53872Y68341D01*
X53934Y68307D01*
X53988Y68280D01*
X54029Y68259D01*
X54070Y68246D01*
X54091Y68232D01*
X54098D01*
X54227Y68198D01*
X54289Y68184D01*
X54343Y68177D01*
X54384D01*
X54419Y68170D01*
X54453D01*
X54507Y68177D01*
X54555Y68191D01*
X54583Y68205D01*
X54596Y68212D01*
X54637Y68252D01*
X54671Y68287D01*
X54699Y68314D01*
X54706Y68328D01*
X54733Y68382D01*
X54753Y68437D01*
X54767Y68478D01*
X54774Y68485D01*
Y68492D01*
X54787Y68553D01*
X54794Y68608D01*
Y68649D01*
Y68656D01*
Y68662D01*
X54787Y68751D01*
X54781Y68833D01*
X54774Y68867D01*
Y68894D01*
X54767Y68908D01*
Y68915D01*
X54747Y69011D01*
X54726Y69099D01*
X54719Y69127D01*
Y69154D01*
X54712Y69168D01*
Y69174D01*
X54692Y69270D01*
X54671Y69345D01*
X54664Y69379D01*
Y69400D01*
X54658Y69414D01*
Y69420D01*
X54644Y69502D01*
X54630Y69571D01*
Y69612D01*
Y69618D01*
Y69625D01*
X54637Y69660D01*
X54644Y69694D01*
X54651Y69721D01*
X54658Y69735D01*
X54678Y69782D01*
X54699Y69830D01*
X54712Y69858D01*
X54719Y69871D01*
X54747Y69926D01*
X54774Y69967D01*
X54794Y69994D01*
X54801Y70008D01*
X54828Y70049D01*
X54856Y70076D01*
X54876Y70090D01*
X54883Y70097D01*
X54924Y70117D01*
X54965Y70131D01*
X54992Y70138D01*
X55006D01*
X55054Y70151D01*
X55102Y70158D01*
X55136Y70165D01*
X55149D01*
X55204Y70172D01*
X55259Y70179D01*
X55307D01*
X55361Y70185D01*
X55457D01*
X55559Y70172D01*
X55655Y70151D01*
X55696Y70138D01*
X55730Y70131D01*
X55751Y70117D01*
X55757D01*
X55880Y70062D01*
X55942Y70028D01*
X55996Y70001D01*
X56037Y69974D01*
X56078Y69953D01*
X56099Y69940D01*
X56106Y69933D01*
X56233Y69846D01*
X56242Y69851D01*
X56263Y69864D01*
X56352D01*
X56399Y69858D01*
X56433Y69851D01*
X56447D01*
X56509Y69844D01*
X56563Y69837D01*
X56604Y69830D01*
X56611Y69823D01*
X56618D01*
X56686Y69810D01*
X56754Y69796D01*
X56789Y69789D01*
X56809D01*
X56823Y69782D01*
X56830D01*
X56925Y69769D01*
X57028Y69755D01*
X57069Y69748D01*
X57103D01*
X57123Y69741D01*
X57130D01*
X57239Y69728D01*
X57287Y69721D01*
X57362D01*
X57390Y69714D01*
X57410D01*
X57506Y69707D01*
X57581D01*
X57615Y69700D01*
X57656D01*
X57738Y69694D01*
X58127D01*
Y69700D01*
Y69707D01*
X58121Y69735D01*
X58114Y69762D01*
Y69776D01*
X58100Y69851D01*
X58086Y69926D01*
X58079Y69960D01*
X58073Y69987D01*
X58066Y70008D01*
Y70015D01*
X58039Y70131D01*
X58025Y70192D01*
X58011Y70247D01*
X57998Y70295D01*
X57991Y70329D01*
X57984Y70356D01*
Y70363D01*
X57943Y70520D01*
X57922Y70588D01*
X57902Y70657D01*
X57888Y70718D01*
X57875Y70759D01*
X57861Y70793D01*
Y70800D01*
X57840Y70875D01*
X57827Y70943D01*
X57820Y70964D01*
X57813Y70985D01*
Y70998D01*
Y71005D01*
X57806Y71080D01*
X57800Y71135D01*
Y71176D01*
Y71183D01*
Y71189D01*
Y71244D01*
X57813Y71292D01*
X57827Y71333D01*
X57840Y71367D01*
X57854Y71394D01*
X57868Y71408D01*
X57875Y71422D01*
X57881D01*
X57916Y71442D01*
X57950Y71463D01*
X58032Y71483D01*
X58066Y71490D01*
X58121D01*
X58175Y71483D01*
D02*
G37*
G36*
X69499Y71715D02*
X69581Y71695D01*
X69615Y71681D01*
X69643Y71667D01*
X69656Y71661D01*
X69663D01*
X69752Y71613D01*
X69827Y71572D01*
X69861Y71551D01*
X69882Y71531D01*
X69895Y71524D01*
X69902Y71517D01*
X69977Y71449D01*
X70046Y71381D01*
X70073Y71353D01*
X70094Y71333D01*
X70100Y71319D01*
X70107Y71312D01*
X70169Y71230D01*
X70223Y71162D01*
X70237Y71135D01*
X70250Y71114D01*
X70264Y71101D01*
Y71094D01*
X70319Y70998D01*
X70360Y70909D01*
X70373Y70875D01*
X70387Y70848D01*
X70394Y70834D01*
Y70827D01*
X70428Y70739D01*
X70455Y70657D01*
X70469Y70622D01*
X70476Y70595D01*
X70483Y70582D01*
Y70575D01*
X70503Y70479D01*
X70524Y70397D01*
X70531Y70363D01*
X70537Y70336D01*
X70544Y70315D01*
Y70308D01*
X70558Y70199D01*
X70578Y70097D01*
X70585Y70056D01*
Y70021D01*
X70592Y70001D01*
Y69994D01*
X70599Y69912D01*
X70613Y69844D01*
X70619Y69803D01*
Y69796D01*
Y69789D01*
X70626Y69735D01*
X70633Y69687D01*
X70640Y69660D01*
Y69646D01*
X70653Y69598D01*
X70674Y69557D01*
X70688Y69530D01*
X70695Y69516D01*
X70729Y69468D01*
X70763Y69414D01*
X70790Y69373D01*
X70797Y69366D01*
X70804Y69359D01*
X70865Y69284D01*
X70906Y69222D01*
X70940Y69168D01*
X70961Y69134D01*
X70974Y69099D01*
X70981Y69079D01*
X70988Y69072D01*
Y69065D01*
X70981Y69031D01*
X70974Y68997D01*
X70968Y68976D01*
X70961Y68970D01*
X70934Y68936D01*
X70913Y68908D01*
X70899Y68888D01*
X70893Y68881D01*
X70865Y68853D01*
X70845Y68833D01*
X70831Y68819D01*
X70824Y68813D01*
X70811Y68792D01*
X70797Y68778D01*
Y68772D01*
Y68765D01*
Y68724D01*
Y68683D01*
X70804Y68649D01*
Y68642D01*
Y68635D01*
Y68587D01*
Y68539D01*
X70811Y68505D01*
Y68498D01*
Y68492D01*
X70817Y68437D01*
Y68396D01*
X70824Y68369D01*
Y68355D01*
X70831Y68314D01*
Y68280D01*
X70838Y68259D01*
Y68252D01*
X70852Y68123D01*
Y68061D01*
X70858Y68013D01*
X70865Y67966D01*
Y67931D01*
X70872Y67911D01*
Y67904D01*
X70886Y67781D01*
X70899Y67720D01*
X70906Y67665D01*
X70913Y67624D01*
Y67583D01*
X70920Y67563D01*
Y67556D01*
X70940Y67426D01*
X70954Y67365D01*
X70961Y67310D01*
X70968Y67262D01*
X70974Y67228D01*
X70981Y67201D01*
Y67194D01*
X71009Y67057D01*
X71016Y66996D01*
X71029Y66934D01*
X71036Y66887D01*
X71043Y66846D01*
X71050Y66818D01*
Y66811D01*
X71063Y66743D01*
X71084Y66675D01*
X71091Y66654D01*
Y66634D01*
X71097Y66620D01*
Y66613D01*
X71111Y66538D01*
X71132Y66477D01*
X71139Y66436D01*
X71145Y66429D01*
Y66422D01*
X71166Y66361D01*
X71186Y66306D01*
X71207Y66272D01*
X71214Y66265D01*
Y66258D01*
X71248Y66210D01*
X71275Y66176D01*
X71295Y66156D01*
X71302Y66149D01*
X71343Y66156D01*
X71364D01*
X71405Y66163D01*
X71418Y66169D01*
X71425D01*
X71466Y66176D01*
X71480Y66183D01*
X71528D01*
X71576Y66176D01*
X71610Y66163D01*
X71637Y66149D01*
X71644Y66142D01*
X71678Y66108D01*
X71705Y66067D01*
X71719Y66046D01*
X71726Y66033D01*
X71753Y65985D01*
X71774Y65944D01*
X71781Y65917D01*
X71787Y65903D01*
X71801Y65855D01*
X71808Y65821D01*
X71815Y65794D01*
Y65787D01*
X71808Y65753D01*
X71794Y65719D01*
X71781Y65698D01*
X71774Y65691D01*
X71746Y65650D01*
X71719Y65623D01*
X71692Y65602D01*
X71685Y65596D01*
X71644Y65568D01*
X71596Y65548D01*
X71569Y65534D01*
X71555Y65527D01*
X71500Y65514D01*
X71453Y65507D01*
X71418Y65500D01*
X71405D01*
X71289Y65514D01*
X71179Y65541D01*
X71084Y65582D01*
X70995Y65637D01*
X70934Y65684D01*
X70879Y65725D01*
X70852Y65753D01*
X70838Y65766D01*
X70756Y65862D01*
X70695Y65951D01*
X70667Y65985D01*
X70647Y66012D01*
X70640Y66033D01*
X70633Y66040D01*
X70572Y66142D01*
X70531Y66238D01*
X70510Y66279D01*
X70496Y66306D01*
X70490Y66326D01*
Y66333D01*
X70455Y66429D01*
X70428Y66524D01*
X70421Y66572D01*
X70415Y66606D01*
X70408Y66627D01*
Y66634D01*
X70380Y66764D01*
X70367Y66818D01*
X70360Y66873D01*
X70353Y66914D01*
X70346Y66948D01*
X70339Y66968D01*
Y66975D01*
X70332Y67044D01*
X70326Y67112D01*
X70319Y67146D01*
X70312Y67173D01*
Y67187D01*
Y67194D01*
X70298Y67303D01*
X70278Y67412D01*
X70271Y67453D01*
Y67488D01*
X70264Y67515D01*
Y67522D01*
X70244Y67658D01*
X70237Y67727D01*
X70230Y67781D01*
X70223Y67829D01*
X70216Y67870D01*
Y67897D01*
Y67904D01*
X70196Y68048D01*
X70189Y68116D01*
X70182Y68170D01*
X70175Y68218D01*
X70169Y68259D01*
Y68280D01*
Y68287D01*
X70148Y68410D01*
X70141Y68464D01*
X70134Y68512D01*
Y68553D01*
X70128Y68580D01*
Y68601D01*
Y68608D01*
X70121Y68656D01*
X70114Y68703D01*
X70107Y68737D01*
Y68765D01*
X70100Y68799D01*
Y68813D01*
X69950D01*
X69895Y68819D01*
X69848D01*
X69813Y68826D01*
X69800D01*
X69738Y68833D01*
X69677D01*
X69636Y68840D01*
X69622D01*
X69547Y68853D01*
X69472Y68860D01*
X69438D01*
X69411Y68867D01*
X69390D01*
X69274Y68881D01*
X69219D01*
X69171Y68888D01*
X69130Y68894D01*
X69096Y68901D01*
X69069D01*
X68953Y68922D01*
X68898Y68929D01*
X68857Y68942D01*
X68823Y68949D01*
X68789D01*
X68775Y68956D01*
X68768D01*
X68666Y68983D01*
X68591Y68997D01*
X68583Y69001D01*
X68584Y68990D01*
X68598Y68901D01*
Y68867D01*
X68604Y68840D01*
Y68826D01*
Y68819D01*
X68611Y68737D01*
Y68676D01*
Y68642D01*
Y68628D01*
Y68505D01*
X68604Y68444D01*
Y68396D01*
Y68348D01*
X68598Y68314D01*
Y68287D01*
Y68280D01*
X68584Y68150D01*
X68577Y68089D01*
X68563Y68034D01*
X68557Y67993D01*
X68550Y67959D01*
X68543Y67931D01*
Y67925D01*
X68509Y67795D01*
X68488Y67740D01*
X68475Y67692D01*
X68454Y67651D01*
X68447Y67617D01*
X68434Y67597D01*
Y67590D01*
X68372Y67481D01*
X68345Y67433D01*
X68311Y67392D01*
X68290Y67358D01*
X68270Y67330D01*
X68256Y67317D01*
X68249Y67310D01*
X68161Y67228D01*
X68072Y67167D01*
X68038Y67146D01*
X68010Y67132D01*
X67990Y67119D01*
X67983D01*
X67860Y67078D01*
X67799Y67064D01*
X67737Y67057D01*
X67689D01*
X67648Y67050D01*
X67614D01*
X67546Y67057D01*
X67478Y67064D01*
X67416Y67078D01*
X67355Y67091D01*
X67307Y67105D01*
X67266Y67112D01*
X67238Y67125D01*
X67232D01*
X67081Y67194D01*
X67006Y67235D01*
X66945Y67276D01*
X66890Y67303D01*
X66849Y67330D01*
X66822Y67351D01*
X66815Y67358D01*
X66665Y67474D01*
X66597Y67528D01*
X66535Y67576D01*
X66487Y67617D01*
X66453Y67651D01*
X66426Y67672D01*
X66419Y67679D01*
X66282Y67802D01*
X66228Y67863D01*
X66173Y67911D01*
X66132Y67959D01*
X66098Y67993D01*
X66077Y68013D01*
X66071Y68020D01*
X65961Y68136D01*
X65920Y68184D01*
X65879Y68232D01*
X65845Y68273D01*
X65818Y68300D01*
X65804Y68321D01*
X65797Y68328D01*
X65716Y68427D01*
X65722Y68375D01*
X65729Y68328D01*
Y68287D01*
X65736Y68259D01*
Y68239D01*
Y68232D01*
X65743Y68164D01*
Y68109D01*
X65750Y68068D01*
Y68061D01*
Y68054D01*
X65756Y68000D01*
Y67952D01*
X65763Y67925D01*
Y67911D01*
Y67863D01*
Y67815D01*
X65770Y67781D01*
Y67774D01*
Y67768D01*
Y67720D01*
Y67672D01*
Y67638D01*
Y67631D01*
Y67624D01*
Y67501D01*
X65756Y67392D01*
X65750Y67303D01*
X65736Y67228D01*
X65722Y67173D01*
X65715Y67132D01*
X65702Y67105D01*
Y67098D01*
X65668Y67044D01*
X65627Y67003D01*
X65579Y66968D01*
X65538Y66948D01*
X65497Y66934D01*
X65463Y66927D01*
X65429D01*
X65394Y66934D01*
X65360Y66941D01*
X65333Y66948D01*
X65326D01*
X65285Y66955D01*
X65251Y66968D01*
X65231Y66975D01*
X65224Y66982D01*
X65189Y67003D01*
X65162Y67016D01*
X65149Y67030D01*
X65142Y67037D01*
X65114Y67064D01*
X65101Y67085D01*
X65087Y67105D01*
Y67112D01*
X65067Y67167D01*
X65060Y67214D01*
X65053Y67242D01*
Y67248D01*
X65039Y67296D01*
X65032Y67337D01*
X65019Y67371D01*
Y67385D01*
X64991Y67494D01*
X64978Y67542D01*
X64964Y67583D01*
X64951Y67617D01*
X64944Y67645D01*
X64937Y67658D01*
Y67665D01*
X64903Y67761D01*
X64868Y67843D01*
X64855Y67877D01*
X64841Y67904D01*
X64834Y67918D01*
Y67925D01*
X64786Y68034D01*
X64766Y68082D01*
X64746Y68123D01*
X64725Y68164D01*
X64711Y68191D01*
X64698Y68205D01*
Y68212D01*
X64636Y68314D01*
X64582Y68396D01*
X64561Y68430D01*
X64541Y68457D01*
X64534Y68471D01*
X64527Y68478D01*
X64459Y68567D01*
X64404Y68635D01*
X64384Y68662D01*
X64363Y68683D01*
X64356Y68696D01*
X64349Y68703D01*
X64288Y68772D01*
X64233Y68833D01*
X64192Y68867D01*
X64186Y68881D01*
X64179D01*
X64110Y68942D01*
X64035Y68990D01*
X63885Y69079D01*
X63742Y69140D01*
X63605Y69188D01*
X63482Y69216D01*
X63434Y69229D01*
X63386Y69236D01*
X63352D01*
X63325Y69243D01*
X63188D01*
X63168Y69236D01*
X63099D01*
X63079Y69229D01*
X63024D01*
X62990Y69236D01*
X62956Y69250D01*
X62942Y69263D01*
X62936Y69270D01*
X62908Y69297D01*
X62888Y69318D01*
X62881Y69339D01*
X62874Y69345D01*
X62854Y69379D01*
X62840Y69407D01*
X62833Y69427D01*
Y69434D01*
X62826Y69468D01*
X62819Y69489D01*
Y69502D01*
Y69509D01*
X62833Y69571D01*
X62854Y69618D01*
X62874Y69646D01*
X62888Y69660D01*
X62942Y69707D01*
X62990Y69741D01*
X63031Y69769D01*
X63045Y69776D01*
X63052D01*
X63127Y69810D01*
X63202Y69830D01*
X63229Y69837D01*
X63257D01*
X63270Y69844D01*
X63277D01*
X63366Y69858D01*
X63441Y69871D01*
X63516D01*
X63591Y69864D01*
X63660Y69858D01*
X63694Y69851D01*
X63714Y69844D01*
X63728Y69837D01*
X63735D01*
X63830Y69810D01*
X63912Y69776D01*
X63946Y69755D01*
X63974Y69748D01*
X63994Y69735D01*
X64001D01*
X64131Y69666D01*
X64192Y69625D01*
X64247Y69591D01*
X64288Y69557D01*
X64322Y69537D01*
X64343Y69516D01*
X64349Y69509D01*
X64465Y69400D01*
X64513Y69352D01*
X64561Y69304D01*
X64595Y69257D01*
X64623Y69222D01*
X64643Y69202D01*
X64650Y69195D01*
X64746Y69058D01*
X64793Y68997D01*
X64828Y68936D01*
X64862Y68881D01*
X64889Y68840D01*
X64903Y68813D01*
X64909Y68806D01*
X64998Y68656D01*
X65032Y68580D01*
X65067Y68512D01*
X65094Y68457D01*
X65114Y68416D01*
X65128Y68389D01*
X65135Y68375D01*
X65121Y68430D01*
X65114Y68485D01*
X65101Y68533D01*
Y68539D01*
Y68546D01*
X65087Y68621D01*
X65067Y68696D01*
X65060Y68724D01*
Y68744D01*
X65053Y68758D01*
Y68765D01*
X65026Y68853D01*
X65012Y68936D01*
X64998Y68970D01*
Y68997D01*
X64991Y69011D01*
Y69017D01*
X64971Y69113D01*
X64951Y69195D01*
X64944Y69229D01*
Y69257D01*
X64937Y69270D01*
Y69277D01*
X64916Y69373D01*
X64903Y69448D01*
Y69482D01*
X64896Y69502D01*
Y69516D01*
Y69523D01*
X64889Y69605D01*
X64882Y69666D01*
Y69707D01*
Y69714D01*
Y69721D01*
Y69776D01*
X64889Y69803D01*
X64903Y69823D01*
X64909Y69844D01*
X64916Y69851D01*
X64937Y69885D01*
X64957Y69912D01*
X64978Y69926D01*
X64985Y69933D01*
X65012Y69960D01*
X65039Y69974D01*
X65067Y69987D01*
X65073Y69994D01*
X65108Y70008D01*
X65142Y70021D01*
X65169D01*
X65224Y70015D01*
X65278Y70008D01*
X65319Y69994D01*
X65353Y69974D01*
X65388Y69953D01*
X65408Y69940D01*
X65415Y69933D01*
X65422Y69926D01*
X65476Y69851D01*
X65517Y69769D01*
X65531Y69735D01*
X65538Y69707D01*
X65545Y69687D01*
Y69680D01*
X65565Y69571D01*
X65586Y69468D01*
X65592Y69420D01*
X65599Y69386D01*
X65606Y69359D01*
Y69352D01*
X65627Y69216D01*
X65629Y69192D01*
X65654Y69161D01*
X65661Y69154D01*
X65668Y69147D01*
X65681Y69120D01*
X65688Y69113D01*
X65743Y69045D01*
X65804Y68976D01*
X65832Y68949D01*
X65852Y68929D01*
X65866Y68915D01*
X65873Y68908D01*
X65961Y68819D01*
X66036Y68744D01*
X66071Y68717D01*
X66098Y68690D01*
X66112Y68676D01*
X66118Y68669D01*
X66214Y68580D01*
X66303Y68498D01*
X66337Y68471D01*
X66364Y68444D01*
X66378Y68430D01*
X66385Y68423D01*
X66474Y68341D01*
X66549Y68280D01*
X66576Y68259D01*
X66597Y68239D01*
X66610Y68232D01*
X66617Y68225D01*
X66726Y68136D01*
X66829Y68061D01*
X66918Y67993D01*
X67006Y67945D01*
X67075Y67897D01*
X67122Y67870D01*
X67157Y67849D01*
X67170Y67843D01*
X67266Y67795D01*
X67334Y67768D01*
X67361Y67761D01*
X67382Y67754D01*
X67396Y67747D01*
X67402D01*
X67471Y67740D01*
X67532Y67733D01*
X67594D01*
X67642Y67747D01*
X67682Y67768D01*
X67710Y67788D01*
X67717Y67802D01*
X67751Y67856D01*
X67778Y67918D01*
X67792Y67945D01*
X67799Y67966D01*
X67805Y67979D01*
Y67986D01*
X67826Y68075D01*
X67846Y68157D01*
X67853Y68191D01*
Y68218D01*
X67860Y68239D01*
Y68246D01*
X67867Y68355D01*
X67874Y68451D01*
Y68492D01*
Y68519D01*
Y68539D01*
Y68546D01*
Y68656D01*
X67867Y68758D01*
Y68799D01*
X67860Y68833D01*
Y68853D01*
Y68860D01*
X67846Y68997D01*
X67840Y69065D01*
X67826Y69127D01*
X67819Y69181D01*
X67812Y69222D01*
X67805Y69250D01*
Y69257D01*
X67792Y69345D01*
X67778Y69427D01*
X67771Y69455D01*
X67764Y69482D01*
Y69496D01*
Y69502D01*
X67751Y69598D01*
X67744Y69673D01*
Y69700D01*
Y69721D01*
Y69735D01*
Y69741D01*
X67751Y69823D01*
X67771Y69878D01*
X67805Y69919D01*
X67840Y69953D01*
X67880Y69967D01*
X67908Y69974D01*
X67935Y69981D01*
X67942D01*
X68010Y69974D01*
X68079Y69960D01*
X68133Y69940D01*
X68188Y69919D01*
X68229Y69892D01*
X68263Y69871D01*
X68283Y69858D01*
X68290Y69851D01*
X68345Y69803D01*
X68393Y69755D01*
X68427Y69707D01*
X68454Y69660D01*
X68475Y69625D01*
X68488Y69598D01*
X68502Y69577D01*
Y69571D01*
X68516Y69509D01*
X68523Y69468D01*
X68570Y69461D01*
X68611Y69455D01*
X68639D01*
X68659Y69448D01*
X68666D01*
X68768Y69434D01*
X68864Y69420D01*
X68898D01*
X68925Y69414D01*
X68953D01*
X69055Y69407D01*
X69151Y69400D01*
X69185Y69393D01*
X69240D01*
X69349Y69386D01*
X69731D01*
X69793Y69393D01*
X69841D01*
X69875Y69400D01*
X69889D01*
X69936Y69407D01*
X69971D01*
X69998Y69414D01*
X70005D01*
X70025Y69427D01*
X70039Y69434D01*
X70046Y69441D01*
Y69564D01*
X70032Y69673D01*
X70018Y69769D01*
X70012Y69810D01*
Y69844D01*
X70005Y69864D01*
Y69871D01*
X69977Y70001D01*
X69971Y70062D01*
X69957Y70110D01*
X69950Y70158D01*
X69943Y70192D01*
X69936Y70213D01*
Y70219D01*
X69902Y70349D01*
X69889Y70404D01*
X69875Y70452D01*
X69861Y70493D01*
X69854Y70520D01*
X69848Y70540D01*
Y70547D01*
X69827Y70602D01*
X69813Y70650D01*
X69800Y70691D01*
X69786Y70725D01*
X69779Y70752D01*
X69772Y70773D01*
X69766Y70780D01*
Y70786D01*
X69738Y70841D01*
X69718Y70882D01*
X69697Y70916D01*
X69691Y70930D01*
X69656Y70985D01*
X69629Y71026D01*
X69608Y71053D01*
X69602Y71066D01*
X69568Y71114D01*
X69540Y71148D01*
X69520Y71169D01*
X69513Y71176D01*
X69486Y71203D01*
X69465Y71210D01*
X69451Y71217D01*
X69445D01*
X69411Y71210D01*
X69390Y71189D01*
X69376Y71169D01*
X69370Y71162D01*
X69349Y71121D01*
X69335Y71080D01*
X69322Y71046D01*
Y71039D01*
Y71032D01*
X69308Y70978D01*
X69301Y70923D01*
X69294Y70889D01*
Y70882D01*
Y70875D01*
X69288Y70821D01*
Y70780D01*
Y70752D01*
Y70745D01*
Y70663D01*
X69294Y70588D01*
X69301Y70554D01*
Y70527D01*
X69308Y70513D01*
Y70506D01*
X69322Y70411D01*
X69342Y70315D01*
X69349Y70281D01*
X69356Y70254D01*
X69363Y70233D01*
Y70226D01*
X69308D01*
X69240Y70233D01*
X69185Y70261D01*
X69130Y70295D01*
X69083Y70342D01*
X69042Y70384D01*
X69014Y70418D01*
X68994Y70445D01*
X68987Y70452D01*
X68905Y70582D01*
X68850Y70698D01*
X68809Y70814D01*
X68775Y70909D01*
X68762Y70985D01*
X68755Y71046D01*
X68748Y71087D01*
Y71101D01*
X68755Y71189D01*
X68782Y71278D01*
X68809Y71353D01*
X68850Y71415D01*
X68885Y71469D01*
X68919Y71510D01*
X68946Y71538D01*
X68953Y71545D01*
X69021Y71606D01*
X69096Y71647D01*
X69171Y71681D01*
X69247Y71702D01*
X69308Y71715D01*
X69356Y71722D01*
X69404D01*
X69499Y71715D01*
D02*
G37*
G36*
X43006Y71859D02*
X43067Y71838D01*
X43108Y71818D01*
X43115Y71811D01*
X43122D01*
X43170Y71770D01*
X43204Y71729D01*
X43231Y71695D01*
X43238Y71688D01*
Y71681D01*
X43252Y71654D01*
X43265Y71627D01*
X43286Y71551D01*
X43292Y71517D01*
X43299Y71490D01*
X43306Y71469D01*
Y71463D01*
X43313Y71401D01*
X43320Y71333D01*
X43327Y71264D01*
X43334Y71203D01*
Y71142D01*
X43340Y71101D01*
Y71073D01*
Y71060D01*
X43347Y70937D01*
X43354Y70875D01*
X43361Y70821D01*
Y70780D01*
X43368Y70739D01*
Y70718D01*
Y70711D01*
X43381Y70588D01*
Y70534D01*
X43388Y70479D01*
X43395Y70438D01*
Y70404D01*
X43402Y70383D01*
Y70377D01*
X43415Y70261D01*
Y70213D01*
X43422Y70165D01*
X43429Y70131D01*
Y70103D01*
X43436Y70083D01*
Y70076D01*
X43450Y69974D01*
X43463Y69892D01*
X43470Y69864D01*
Y69837D01*
X43477Y69823D01*
Y69816D01*
X43497Y69905D01*
X43525Y69987D01*
X43559Y70056D01*
X43586Y70110D01*
X43613Y70151D01*
X43634Y70185D01*
X43648Y70206D01*
X43655Y70213D01*
X43702Y70261D01*
X43757Y70295D01*
X43812Y70322D01*
X43859Y70336D01*
X43907Y70349D01*
X43941Y70356D01*
X44058D01*
X44133Y70349D01*
X44208Y70342D01*
X44269Y70329D01*
X44317Y70322D01*
X44358Y70308D01*
X44385Y70302D01*
X44392D01*
X44522Y70254D01*
X44583Y70226D01*
X44631Y70199D01*
X44672Y70179D01*
X44706Y70158D01*
X44727Y70144D01*
X44734Y70138D01*
X44850Y70049D01*
X44898Y70008D01*
X44945Y69967D01*
X44980Y69926D01*
X45007Y69898D01*
X45027Y69878D01*
X45034Y69871D01*
X45137Y69748D01*
X45184Y69687D01*
X45232Y69632D01*
X45266Y69584D01*
X45294Y69543D01*
X45314Y69516D01*
X45321Y69509D01*
X45403Y69386D01*
X45443Y69325D01*
X45444Y69325D01*
X45478Y69311D01*
X45505Y69291D01*
X45519Y69284D01*
X45567Y69250D01*
X45601Y69222D01*
X45628Y69195D01*
X45642Y69188D01*
X45683Y69147D01*
X45717Y69120D01*
X45738Y69093D01*
X45744Y69086D01*
X45772Y69058D01*
X45785Y69045D01*
X45792Y69038D01*
X45922Y68908D01*
X45984Y68847D01*
X46038Y68799D01*
X46079Y68758D01*
X46113Y68724D01*
X46141Y68703D01*
X46148Y68696D01*
X46277Y68587D01*
X46339Y68539D01*
X46393Y68498D01*
X46434Y68464D01*
X46468Y68437D01*
X46496Y68423D01*
X46503Y68416D01*
X46626Y68341D01*
X46687Y68307D01*
X46742Y68280D01*
X46783Y68259D01*
X46824Y68246D01*
X46844Y68232D01*
X46851D01*
X46981Y68198D01*
X47042Y68184D01*
X47097Y68177D01*
X47138D01*
X47172Y68170D01*
X47206D01*
X47261Y68177D01*
X47309Y68191D01*
X47336Y68205D01*
X47350Y68212D01*
X47390Y68252D01*
X47425Y68287D01*
X47452Y68314D01*
X47459Y68328D01*
X47486Y68382D01*
X47507Y68437D01*
X47520Y68478D01*
X47527Y68485D01*
Y68492D01*
X47541Y68553D01*
X47548Y68608D01*
Y68649D01*
Y68655D01*
Y68662D01*
X47541Y68751D01*
X47534Y68833D01*
X47527Y68867D01*
Y68894D01*
X47520Y68908D01*
Y68915D01*
X47500Y69011D01*
X47479Y69099D01*
X47473Y69127D01*
Y69154D01*
X47466Y69168D01*
Y69174D01*
X47445Y69270D01*
X47425Y69345D01*
X47418Y69379D01*
Y69400D01*
X47411Y69414D01*
Y69420D01*
X47397Y69502D01*
X47384Y69571D01*
Y69612D01*
Y69618D01*
Y69625D01*
X47390Y69660D01*
X47397Y69694D01*
X47404Y69721D01*
X47411Y69735D01*
X47431Y69782D01*
X47452Y69830D01*
X47466Y69858D01*
X47473Y69871D01*
X47500Y69926D01*
X47527Y69967D01*
X47548Y69994D01*
X47554Y70008D01*
X47582Y70049D01*
X47609Y70076D01*
X47630Y70090D01*
X47636Y70097D01*
X47677Y70117D01*
X47718Y70131D01*
X47746Y70138D01*
X47759D01*
X47807Y70151D01*
X47855Y70158D01*
X47889Y70165D01*
X47903D01*
X47957Y70172D01*
X48012Y70179D01*
X48060D01*
X48114Y70185D01*
X48210D01*
X48313Y70172D01*
X48408Y70151D01*
X48449Y70138D01*
X48483Y70131D01*
X48504Y70117D01*
X48511D01*
X48634Y70062D01*
X48695Y70028D01*
X48750Y70001D01*
X48791Y69974D01*
X48832Y69953D01*
X48852Y69940D01*
X48859Y69933D01*
X48989Y69844D01*
X49043Y69803D01*
X49098Y69762D01*
X49139Y69728D01*
X49173Y69700D01*
X49194Y69680D01*
X49200Y69673D01*
X49310Y69571D01*
X49358Y69523D01*
X49399Y69475D01*
X49426Y69441D01*
X49453Y69414D01*
X49467Y69393D01*
X49474Y69386D01*
X49556Y69277D01*
X49624Y69174D01*
X49658Y69134D01*
X49679Y69099D01*
X49692Y69072D01*
X49699Y69065D01*
X49774Y68929D01*
X49808Y68867D01*
X49843Y68813D01*
X49870Y68765D01*
X49890Y68724D01*
X49897Y68696D01*
X49904Y68690D01*
X49965Y68546D01*
X49993Y68478D01*
X50013Y68416D01*
X50027Y68362D01*
X50041Y68321D01*
X50054Y68293D01*
Y68287D01*
X50088Y68136D01*
X50095Y68068D01*
X50102Y68007D01*
X50109Y67952D01*
Y67911D01*
Y67884D01*
Y67877D01*
X50102Y67795D01*
X50088Y67713D01*
Y67679D01*
X50082Y67651D01*
X50075Y67638D01*
Y67631D01*
X50047Y67535D01*
X50013Y67453D01*
X49993Y67419D01*
X49986Y67392D01*
X49972Y67378D01*
Y67371D01*
X49911Y67290D01*
X49849Y67228D01*
X49829Y67207D01*
X49808Y67187D01*
X49795Y67180D01*
X49788Y67173D01*
X49747Y67146D01*
X49699Y67125D01*
X49617Y67105D01*
X49583Y67098D01*
X49556Y67091D01*
X49535D01*
X49467Y67098D01*
X49405Y67105D01*
X49378D01*
X49358Y67112D01*
X49337D01*
X49255Y67132D01*
X49187Y67160D01*
X49166Y67167D01*
X49146Y67173D01*
X49132Y67180D01*
X49125D01*
X49050Y67214D01*
X48982Y67242D01*
X48955Y67255D01*
X48934Y67262D01*
X48927Y67269D01*
X48921D01*
X48852Y67303D01*
X48804Y67337D01*
X48770Y67358D01*
X48757Y67365D01*
X48681Y67419D01*
X48620Y67467D01*
X48593Y67488D01*
X48572Y67508D01*
X48559Y67515D01*
X48552Y67522D01*
X48470Y67590D01*
X48401Y67658D01*
X48374Y67686D01*
X48354Y67699D01*
X48340Y67713D01*
X48333Y67720D01*
X48258Y67795D01*
X48197Y67863D01*
X48176Y67884D01*
X48156Y67904D01*
X48149Y67918D01*
X48142Y67925D01*
X48080Y68000D01*
X48039Y68068D01*
X48005Y68109D01*
X47998Y68116D01*
Y68123D01*
X47971Y68034D01*
X47937Y67952D01*
X47923Y67925D01*
X47916Y67904D01*
X47903Y67891D01*
Y67884D01*
X47848Y67809D01*
X47800Y67747D01*
X47759Y67706D01*
X47752Y67699D01*
X47746Y67692D01*
X47677Y67645D01*
X47609Y67604D01*
X47582Y67590D01*
X47568Y67576D01*
X47554Y67570D01*
X47548D01*
X47466Y67542D01*
X47397Y67528D01*
X47377Y67522D01*
X47336D01*
X47247Y67528D01*
X47165Y67535D01*
X47090Y67549D01*
X47022Y67563D01*
X46967Y67576D01*
X46919Y67583D01*
X46892Y67597D01*
X46885D01*
X46728Y67665D01*
X46660Y67699D01*
X46591Y67733D01*
X46544Y67761D01*
X46503Y67781D01*
X46475Y67795D01*
X46468Y67802D01*
X46325Y67897D01*
X46264Y67945D01*
X46209Y67986D01*
X46161Y68027D01*
X46120Y68054D01*
X46100Y68075D01*
X46093Y68082D01*
X45994Y68165D01*
X45997Y68157D01*
X46004Y68150D01*
Y68143D01*
X46025Y68089D01*
X46031Y68034D01*
X46045Y67993D01*
Y67979D01*
Y67972D01*
X46052Y67891D01*
Y67809D01*
Y67774D01*
Y67754D01*
Y67733D01*
Y67727D01*
X46045Y67651D01*
X46038Y67576D01*
X46031Y67549D01*
Y67528D01*
X46025Y67515D01*
Y67508D01*
X45997Y67426D01*
X45970Y67358D01*
X45963Y67330D01*
X45949Y67310D01*
X45943Y67303D01*
Y67296D01*
X45895Y67235D01*
X45847Y67187D01*
X45806Y67160D01*
X45799Y67146D01*
X45792D01*
X45724Y67112D01*
X45656Y67098D01*
X45628Y67091D01*
X45587D01*
X45458Y67098D01*
X45342Y67112D01*
X45225Y67132D01*
X45130Y67160D01*
X45041Y67180D01*
X44980Y67201D01*
X44939Y67214D01*
X44932Y67221D01*
X44925D01*
X44809Y67276D01*
X44693Y67344D01*
X44590Y67412D01*
X44495Y67481D01*
X44413Y67535D01*
X44358Y67583D01*
X44317Y67617D01*
X44303Y67631D01*
X44221Y67713D01*
X44146Y67795D01*
X44119Y67822D01*
X44098Y67849D01*
X44085Y67863D01*
X44078Y67870D01*
X43996Y67966D01*
X43928Y68054D01*
X43907Y68089D01*
X43887Y68116D01*
X43873Y68129D01*
X43866Y68136D01*
X43791Y68239D01*
X43730Y68328D01*
X43709Y68369D01*
X43689Y68396D01*
X43682Y68410D01*
X43675Y68416D01*
X43607Y68519D01*
X43552Y68601D01*
X43532Y68635D01*
X43511Y68662D01*
X43504Y68676D01*
X43497Y68683D01*
X43484Y68587D01*
X43470Y68498D01*
X43463Y68423D01*
X43450Y68348D01*
X43443Y68287D01*
X43436Y68246D01*
X43429Y68218D01*
Y68205D01*
X43415Y68123D01*
X43395Y68048D01*
X43374Y67979D01*
X43354Y67925D01*
X43340Y67877D01*
X43327Y67836D01*
X43313Y67815D01*
Y67809D01*
X43286Y67754D01*
X43252Y67699D01*
X43217Y67651D01*
X43183Y67617D01*
X43156Y67590D01*
X43135Y67570D01*
X43122Y67556D01*
X43115Y67549D01*
X43060Y67515D01*
X43006Y67494D01*
X42896Y67467D01*
X42849Y67460D01*
X42814Y67453D01*
X42780D01*
X42712Y67460D01*
X42644Y67481D01*
X42616Y67488D01*
X42596Y67494D01*
X42582Y67501D01*
X42575D01*
X42487Y67542D01*
X42412Y67583D01*
X42377Y67597D01*
X42350Y67611D01*
X42336Y67624D01*
X42329D01*
X42234Y67686D01*
X42145Y67754D01*
X42111Y67774D01*
X42084Y67795D01*
X42070Y67809D01*
X42063Y67815D01*
X41961Y67904D01*
X41865Y67986D01*
X41831Y68020D01*
X41804Y68048D01*
X41783Y68061D01*
X41776Y68068D01*
X41674Y68170D01*
X41592Y68252D01*
X41558Y68287D01*
X41530Y68314D01*
X41517Y68328D01*
X41510Y68334D01*
X41414Y68430D01*
X41339Y68512D01*
X41312Y68546D01*
X41291Y68573D01*
X41278Y68587D01*
X41271Y68594D01*
Y68587D01*
X41196Y68676D01*
X41141Y68744D01*
X41121Y68772D01*
X41107Y68792D01*
X41093Y68799D01*
Y68806D01*
X41062Y68845D01*
X41066Y68799D01*
X41073Y68765D01*
Y68737D01*
X41080Y68724D01*
Y68717D01*
X41093Y68615D01*
X41107Y68533D01*
X41114Y68505D01*
Y68478D01*
X41121Y68464D01*
Y68457D01*
X41127Y68375D01*
X41141Y68314D01*
Y68287D01*
X41148Y68266D01*
Y68252D01*
Y68246D01*
X41155Y68170D01*
X41162Y68102D01*
X41168Y68082D01*
Y68061D01*
Y68048D01*
Y68041D01*
Y67966D01*
Y67897D01*
Y67863D01*
Y67843D01*
Y67829D01*
Y67822D01*
X41162Y67727D01*
X41155Y67638D01*
Y67604D01*
X41148Y67576D01*
Y67563D01*
Y67556D01*
X41121Y67467D01*
X41093Y67399D01*
X41087Y67371D01*
X41073Y67358D01*
X41066Y67344D01*
Y67337D01*
X41018Y67276D01*
X40970Y67235D01*
X40936Y67201D01*
X40929Y67194D01*
X40922D01*
X40854Y67167D01*
X40786Y67153D01*
X40752Y67146D01*
X40711D01*
X40649Y67153D01*
X40595Y67167D01*
X40560Y67180D01*
X40547Y67187D01*
X40492Y67221D01*
X40444Y67262D01*
X40417Y67289D01*
X40410Y67303D01*
X40376Y67351D01*
X40349Y67399D01*
X40321Y67433D01*
X40315Y67440D01*
Y67447D01*
X40274Y67515D01*
X40240Y67570D01*
X40212Y67611D01*
X40205Y67617D01*
Y67624D01*
X40164Y67692D01*
X40130Y67754D01*
X40110Y67795D01*
X40103Y67802D01*
Y67809D01*
X40069Y67870D01*
X40035Y67918D01*
X40021Y67945D01*
X40014Y67959D01*
X39959Y68054D01*
X39905Y68143D01*
X39857Y68225D01*
X39816Y68293D01*
X39775Y68355D01*
X39748Y68396D01*
X39734Y68430D01*
X39727Y68437D01*
X39680Y68519D01*
X39632Y68587D01*
X39584Y68655D01*
X39550Y68710D01*
X39516Y68758D01*
X39495Y68792D01*
X39481Y68813D01*
X39475Y68819D01*
X39434Y68881D01*
X39393Y68929D01*
X39358Y68976D01*
X39331Y69011D01*
X39311Y69038D01*
X39290Y69058D01*
X39283Y69072D01*
X39276Y69079D01*
X39242Y69113D01*
X39222Y69134D01*
X39181Y69161D01*
X39160Y69174D01*
X39154D01*
X39140Y69168D01*
X39133Y69140D01*
X39126Y69106D01*
X39119Y69065D01*
X39113Y69017D01*
X39106Y68983D01*
Y68956D01*
Y68949D01*
X39099Y68860D01*
X39092Y68758D01*
X39085Y68655D01*
Y68553D01*
X39078Y68464D01*
Y68396D01*
Y68369D01*
Y68348D01*
Y68334D01*
Y68328D01*
Y68239D01*
X39072Y68164D01*
X39065Y68089D01*
Y68027D01*
X39058Y67979D01*
X39051Y67945D01*
Y67918D01*
Y67911D01*
X39044Y67849D01*
X39031Y67795D01*
X39017Y67740D01*
X39010Y67699D01*
X38996Y67665D01*
X38990Y67645D01*
X38983Y67631D01*
Y67624D01*
X38935Y67556D01*
X38887Y67501D01*
X38853Y67474D01*
X38846Y67460D01*
X38839D01*
X38764Y67433D01*
X38696Y67419D01*
X38662Y67412D01*
X38614D01*
X38546Y67419D01*
X38484Y67440D01*
X38443Y67460D01*
X38436Y67467D01*
X38430D01*
X38361Y67522D01*
X38307Y67576D01*
X38279Y67604D01*
X38259Y67624D01*
X38252Y67638D01*
X38245Y67645D01*
X38177Y67740D01*
X38109Y67829D01*
X38081Y67870D01*
X38068Y67897D01*
X38054Y67918D01*
X38047Y67925D01*
X37965Y68054D01*
X37924Y68123D01*
X37890Y68177D01*
X37863Y68232D01*
X37835Y68273D01*
X37822Y68300D01*
X37815Y68307D01*
X37747Y68430D01*
X37712Y68478D01*
X37685Y68533D01*
X37665Y68567D01*
X37644Y68601D01*
X37637Y68621D01*
X37631Y68628D01*
X37562Y68737D01*
X37535Y68785D01*
X37508Y68826D01*
X37487Y68853D01*
X37473Y68881D01*
X37460Y68894D01*
Y68901D01*
X37405Y68983D01*
X37357Y69045D01*
X37330Y69079D01*
X37323Y69093D01*
X37303Y69120D01*
X37289Y69134D01*
X37262Y69161D01*
X37255Y69168D01*
X37248D01*
X37241Y69161D01*
Y69140D01*
X37234Y69120D01*
Y69113D01*
X37227Y69072D01*
Y69024D01*
Y68990D01*
Y68983D01*
Y68976D01*
X37221Y68922D01*
Y68867D01*
X37214Y68833D01*
Y68826D01*
Y68819D01*
X37207Y68772D01*
Y68737D01*
Y68717D01*
Y68710D01*
X37193Y68573D01*
X37173Y68457D01*
X37152Y68355D01*
X37132Y68266D01*
X37118Y68198D01*
X37105Y68143D01*
X37091Y68116D01*
Y68102D01*
X37064Y68020D01*
X37029Y67945D01*
X37002Y67884D01*
X36975Y67836D01*
X36954Y67795D01*
X36934Y67768D01*
X36927Y67747D01*
X36920Y67740D01*
X36886Y67692D01*
X36845Y67658D01*
X36811Y67624D01*
X36784Y67604D01*
X36756Y67583D01*
X36736Y67570D01*
X36722Y67563D01*
X36715D01*
X36633Y67535D01*
X36558Y67522D01*
X36531Y67515D01*
X36490D01*
X36394Y67522D01*
X36305Y67542D01*
X36271Y67549D01*
X36244Y67556D01*
X36230Y67563D01*
X36224D01*
X36121Y67604D01*
X36032Y67651D01*
X35998Y67665D01*
X35971Y67679D01*
X35957Y67692D01*
X35950D01*
X35855Y67747D01*
X35773Y67802D01*
X35739Y67822D01*
X35718Y67843D01*
X35704Y67849D01*
X35698Y67856D01*
X35616Y67918D01*
X35554Y67966D01*
X35527Y67986D01*
X35506Y68000D01*
X35500Y68013D01*
X35493D01*
X35411Y68089D01*
X35342Y68150D01*
X35315Y68177D01*
X35295Y68198D01*
X35281Y68212D01*
X35274Y68218D01*
X35192Y68300D01*
X35124Y68369D01*
X35096Y68396D01*
X35076Y68416D01*
X35069Y68430D01*
X35062Y68437D01*
X34987Y68512D01*
X34939Y68572D01*
Y68505D01*
X34933Y68444D01*
Y68396D01*
Y68348D01*
X34926Y68314D01*
Y68287D01*
Y68280D01*
X34912Y68150D01*
X34905Y68089D01*
X34892Y68034D01*
X34885Y67993D01*
X34878Y67959D01*
X34871Y67931D01*
Y67925D01*
X34837Y67795D01*
X34817Y67740D01*
X34803Y67692D01*
X34782Y67651D01*
X34776Y67617D01*
X34762Y67597D01*
Y67590D01*
X34700Y67481D01*
X34673Y67433D01*
X34639Y67392D01*
X34618Y67358D01*
X34598Y67330D01*
X34584Y67317D01*
X34578Y67310D01*
X34489Y67228D01*
X34400Y67167D01*
X34366Y67146D01*
X34338Y67132D01*
X34318Y67119D01*
X34311D01*
X34188Y67078D01*
X34127Y67064D01*
X34065Y67057D01*
X34017D01*
X33976Y67050D01*
X33942D01*
X33874Y67057D01*
X33806Y67064D01*
X33744Y67078D01*
X33683Y67091D01*
X33635Y67105D01*
X33594Y67112D01*
X33567Y67125D01*
X33560D01*
X33410Y67194D01*
X33334Y67235D01*
X33273Y67276D01*
X33218Y67303D01*
X33177Y67330D01*
X33150Y67351D01*
X33143Y67358D01*
X32993Y67474D01*
X32925Y67528D01*
X32863Y67576D01*
X32815Y67617D01*
X32781Y67651D01*
X32754Y67672D01*
X32747Y67679D01*
X32610Y67802D01*
X32556Y67863D01*
X32501Y67911D01*
X32460Y67959D01*
X32426Y67993D01*
X32405Y68013D01*
X32399Y68020D01*
X32289Y68136D01*
X32248Y68184D01*
X32208Y68232D01*
X32173Y68273D01*
X32146Y68300D01*
X32132Y68321D01*
X32125Y68328D01*
X32082Y68382D01*
X32085Y68348D01*
Y68280D01*
X32091Y68225D01*
Y68191D01*
Y68164D01*
Y68157D01*
X32085Y68041D01*
X32078Y67938D01*
X32057Y67849D01*
X32030Y67774D01*
X32003Y67706D01*
X31968Y67645D01*
X31934Y67590D01*
X31900Y67549D01*
X31866Y67515D01*
X31832Y67488D01*
X31770Y67453D01*
X31723Y67433D01*
X31716Y67426D01*
X31709D01*
X31634Y67460D01*
X31572Y67501D01*
X31545Y67522D01*
X31525Y67535D01*
X31511Y67542D01*
X31504Y67549D01*
X31415Y67617D01*
X31347Y67686D01*
X31313Y67713D01*
X31292Y67733D01*
X31279Y67747D01*
X31272Y67754D01*
X31190Y67843D01*
X31122Y67918D01*
X31094Y67952D01*
X31074Y67979D01*
X31060Y67993D01*
X31053Y68000D01*
X30978Y68089D01*
X30923Y68164D01*
X30903Y68191D01*
X30889Y68212D01*
X30876Y68225D01*
Y68232D01*
X30801Y68341D01*
X30725Y68437D01*
X30671Y68519D01*
X30616Y68587D01*
X30582Y68635D01*
X30548Y68676D01*
X30534Y68703D01*
X30527Y68710D01*
X30479Y68778D01*
X30439Y68833D01*
X30404Y68881D01*
X30370Y68915D01*
X30350Y68942D01*
X30329Y68970D01*
X30322Y68976D01*
X30316Y68983D01*
X30254Y69045D01*
X30213Y69079D01*
X30179Y69099D01*
X30172Y69106D01*
X30124Y69127D01*
X30090Y69134D01*
X30063Y69140D01*
X30049D01*
X30022Y69134D01*
X30001Y69113D01*
X29981Y69086D01*
X29967Y69058D01*
X29954Y69024D01*
X29940Y68997D01*
X29933Y68976D01*
Y68970D01*
X29913Y68901D01*
X29899Y68826D01*
X29878Y68751D01*
X29865Y68676D01*
X29858Y68615D01*
X29851Y68560D01*
X29844Y68526D01*
Y68512D01*
X29824Y68362D01*
X29810Y68287D01*
X29796Y68225D01*
X29783Y68177D01*
X29776Y68136D01*
X29769Y68109D01*
Y68102D01*
X29721Y67966D01*
X29694Y67911D01*
X29673Y67856D01*
X29653Y67815D01*
X29632Y67781D01*
X29626Y67761D01*
X29619Y67754D01*
X29537Y67651D01*
X29496Y67611D01*
X29462Y67576D01*
X29428Y67549D01*
X29400Y67528D01*
X29380Y67522D01*
X29373Y67515D01*
X29311Y67488D01*
X29250Y67467D01*
X29189Y67447D01*
X29127Y67440D01*
X29079Y67433D01*
X29032Y67426D01*
X28997D01*
X28902Y67433D01*
X28820Y67440D01*
X28786Y67447D01*
X28765D01*
X28752Y67453D01*
X28745D01*
X28663Y67474D01*
X28594Y67501D01*
X28567Y67515D01*
X28547Y67522D01*
X28533Y67528D01*
X28526D01*
X28451Y67563D01*
X28383Y67604D01*
X28355Y67617D01*
X28335Y67631D01*
X28328Y67638D01*
X28321D01*
X28246Y67686D01*
X28178Y67727D01*
X28157Y67747D01*
X28137Y67761D01*
X28123Y67774D01*
X28116D01*
X28014Y67843D01*
X27925Y67911D01*
X27891Y67945D01*
X27864Y67966D01*
X27850Y67979D01*
X27843Y67986D01*
X27741Y68075D01*
X27659Y68157D01*
X27624Y68191D01*
X27597Y68218D01*
X27584Y68232D01*
X27577Y68239D01*
X27481Y68341D01*
X27399Y68430D01*
X27372Y68464D01*
X27345Y68492D01*
X27331Y68505D01*
X27324Y68512D01*
X27235Y68608D01*
X27167Y68696D01*
X27140Y68724D01*
X27119Y68751D01*
X27112Y68765D01*
X27105Y68772D01*
X27078Y68806D01*
X27058Y68833D01*
X27044Y68860D01*
X27037Y68867D01*
X27010Y68915D01*
X26989Y68949D01*
X26976Y68976D01*
X26969Y68990D01*
X26948Y69038D01*
X26928Y69086D01*
X26921Y69113D01*
X26914Y69127D01*
X26901Y69174D01*
X26894Y69216D01*
Y69243D01*
Y69257D01*
Y69284D01*
X26901Y69304D01*
X26907Y69311D01*
Y69318D01*
X26928Y69352D01*
X26935Y69359D01*
X26941D01*
X26976Y69373D01*
X26983Y69379D01*
X26989D01*
X27017Y69386D01*
X27030D01*
X27064Y69379D01*
X27099Y69373D01*
X27119Y69359D01*
X27126Y69352D01*
X27160Y69325D01*
X27194Y69304D01*
X27222Y69277D01*
X27228Y69270D01*
X27262Y69236D01*
X27303Y69195D01*
X27324Y69174D01*
X27338Y69161D01*
X27379Y69113D01*
X27413Y69072D01*
X27440Y69045D01*
X27447Y69031D01*
X27590Y68894D01*
X27652Y68833D01*
X27707Y68778D01*
X27761Y68731D01*
X27795Y68696D01*
X27823Y68669D01*
X27829Y68662D01*
X27966Y68546D01*
X28034Y68492D01*
X28089Y68450D01*
X28137Y68410D01*
X28171Y68382D01*
X28198Y68369D01*
X28205Y68362D01*
X28335Y68273D01*
X28396Y68239D01*
X28451Y68212D01*
X28492Y68191D01*
X28526Y68170D01*
X28547Y68164D01*
X28553Y68157D01*
X28615Y68129D01*
X28670Y68116D01*
X28717Y68102D01*
X28765Y68089D01*
X28799D01*
X28827Y68082D01*
X28854D01*
X28922Y68089D01*
X28970Y68116D01*
X29004Y68136D01*
X29018Y68143D01*
X29059Y68198D01*
X29093Y68252D01*
X29114Y68300D01*
X29120Y68307D01*
Y68314D01*
X29141Y68396D01*
X29161Y68464D01*
X29168Y68498D01*
Y68519D01*
X29175Y68533D01*
Y68539D01*
X29189Y68628D01*
X29202Y68710D01*
Y68737D01*
X29209Y68765D01*
Y68778D01*
Y68785D01*
X29230Y68949D01*
X29236Y69017D01*
X29250Y69079D01*
X29257Y69134D01*
X29264Y69174D01*
X29270Y69202D01*
Y69209D01*
X29284Y69277D01*
X29305Y69345D01*
X29318Y69400D01*
X29339Y69448D01*
X29353Y69489D01*
X29366Y69516D01*
X29373Y69537D01*
X29380Y69543D01*
X29441Y69639D01*
X29503Y69707D01*
X29530Y69735D01*
X29557Y69755D01*
X29571Y69762D01*
X29578Y69769D01*
X29626Y69796D01*
X29680Y69816D01*
X29783Y69844D01*
X29831D01*
X29865Y69851D01*
X29899D01*
X30015Y69844D01*
X30063Y69837D01*
X30111Y69823D01*
X30145Y69816D01*
X30172Y69803D01*
X30193Y69796D01*
X30199D01*
X30295Y69755D01*
X30370Y69707D01*
X30404Y69694D01*
X30425Y69673D01*
X30439Y69666D01*
X30445Y69660D01*
X30527Y69591D01*
X30596Y69530D01*
X30623Y69495D01*
X30643Y69475D01*
X30657Y69461D01*
X30664Y69455D01*
X30739Y69366D01*
X30807Y69291D01*
X30828Y69257D01*
X30848Y69229D01*
X30862Y69216D01*
X30869Y69209D01*
X30930Y69134D01*
X30978Y69058D01*
X31005Y69031D01*
X31019Y69011D01*
X31026Y68997D01*
X31033Y68990D01*
X31094Y68908D01*
X31142Y68833D01*
X31169Y68806D01*
X31183Y68785D01*
X31190Y68772D01*
X31197Y68765D01*
X31251Y68690D01*
X31299Y68621D01*
X31319Y68594D01*
X31333Y68573D01*
X31340Y68567D01*
X31347Y68560D01*
X31395Y68492D01*
X31436Y68444D01*
X31463Y68410D01*
X31470Y68396D01*
X31463Y68450D01*
X31456Y68505D01*
X31442Y68553D01*
Y68560D01*
Y68567D01*
X31422Y68649D01*
X31402Y68717D01*
X31395Y68737D01*
Y68758D01*
X31388Y68772D01*
Y68778D01*
X31367Y68853D01*
X31347Y68922D01*
X31340Y68949D01*
Y68970D01*
X31333Y68976D01*
Y68983D01*
X31313Y69052D01*
X31299Y69106D01*
X31285Y69140D01*
Y69154D01*
X31265Y69222D01*
X31251Y69277D01*
X31238Y69311D01*
Y69325D01*
X31224Y69379D01*
X31210Y69427D01*
X31197Y69455D01*
Y69468D01*
X31176Y69516D01*
X31169Y69557D01*
X31163Y69584D01*
Y69598D01*
X31156Y69646D01*
X31149Y69694D01*
Y69721D01*
Y69735D01*
Y69789D01*
X31156Y69837D01*
X31163Y69864D01*
X31169Y69871D01*
X31183Y69912D01*
X31203Y69946D01*
X31217Y69967D01*
X31224Y69974D01*
X31244Y70008D01*
X31272Y70028D01*
X31292Y70035D01*
X31299Y70042D01*
X31333Y70056D01*
X31361Y70062D01*
X31456D01*
X31484Y70056D01*
X31490D01*
X31525Y70049D01*
X31559Y70042D01*
X31579Y70035D01*
X31586Y70028D01*
X31620Y70008D01*
X31654Y69987D01*
X31675Y69974D01*
X31681Y69967D01*
X31709Y69933D01*
X31736Y69892D01*
X31757Y69864D01*
X31763Y69858D01*
Y69851D01*
X31804Y69748D01*
X31839Y69660D01*
X31852Y69618D01*
X31866Y69591D01*
X31873Y69571D01*
Y69564D01*
X31907Y69455D01*
X31921Y69400D01*
X31934Y69352D01*
X31941Y69311D01*
X31948Y69284D01*
X31955Y69263D01*
Y69257D01*
X31969Y69178D01*
X31982Y69161D01*
X31989Y69154D01*
X31996Y69147D01*
X32009Y69120D01*
X32016Y69113D01*
X32071Y69045D01*
X32132Y68976D01*
X32160Y68949D01*
X32180Y68929D01*
X32194Y68915D01*
X32201Y68908D01*
X32289Y68819D01*
X32364Y68744D01*
X32399Y68717D01*
X32426Y68690D01*
X32440Y68676D01*
X32447Y68669D01*
X32542Y68580D01*
X32631Y68498D01*
X32665Y68471D01*
X32692Y68444D01*
X32706Y68430D01*
X32713Y68423D01*
X32802Y68341D01*
X32877Y68280D01*
X32904Y68259D01*
X32925Y68239D01*
X32938Y68232D01*
X32945Y68225D01*
X33054Y68136D01*
X33157Y68061D01*
X33246Y67993D01*
X33334Y67945D01*
X33403Y67897D01*
X33450Y67870D01*
X33485Y67849D01*
X33498Y67843D01*
X33594Y67795D01*
X33662Y67768D01*
X33690Y67761D01*
X33710Y67754D01*
X33724Y67747D01*
X33731D01*
X33799Y67740D01*
X33860Y67733D01*
X33922D01*
X33970Y67747D01*
X34011Y67768D01*
X34038Y67788D01*
X34045Y67802D01*
X34079Y67856D01*
X34106Y67918D01*
X34120Y67945D01*
X34127Y67966D01*
X34133Y67979D01*
Y67986D01*
X34154Y68075D01*
X34174Y68157D01*
X34181Y68191D01*
Y68218D01*
X34188Y68239D01*
Y68246D01*
X34195Y68355D01*
X34202Y68450D01*
Y68492D01*
Y68519D01*
Y68539D01*
Y68546D01*
Y68655D01*
X34195Y68758D01*
Y68799D01*
X34188Y68833D01*
Y68853D01*
Y68860D01*
X34174Y68997D01*
X34168Y69065D01*
X34154Y69127D01*
X34147Y69181D01*
X34140Y69222D01*
X34133Y69250D01*
Y69257D01*
X34120Y69345D01*
X34106Y69427D01*
X34099Y69455D01*
X34093Y69482D01*
Y69495D01*
Y69502D01*
X34079Y69598D01*
X34072Y69673D01*
Y69700D01*
Y69721D01*
Y69735D01*
Y69741D01*
X34079Y69823D01*
X34099Y69878D01*
X34133Y69919D01*
X34168Y69953D01*
X34209Y69967D01*
X34236Y69974D01*
X34263Y69981D01*
X34270D01*
X34338Y69974D01*
X34407Y69960D01*
X34461Y69940D01*
X34516Y69919D01*
X34557Y69892D01*
X34591Y69871D01*
X34612Y69858D01*
X34618Y69851D01*
X34673Y69803D01*
X34721Y69755D01*
X34755Y69707D01*
X34782Y69660D01*
X34803Y69625D01*
X34817Y69598D01*
X34830Y69577D01*
Y69571D01*
X34844Y69509D01*
X34857Y69434D01*
X34864Y69407D01*
Y69379D01*
X34871Y69366D01*
Y69359D01*
X34885Y69263D01*
X34894Y69207D01*
X34912Y69188D01*
X34974Y69120D01*
X35001Y69093D01*
X35021Y69072D01*
X35028Y69065D01*
X35035Y69058D01*
X35103Y68990D01*
X35158Y68929D01*
X35199Y68888D01*
X35206Y68881D01*
X35213Y68874D01*
X35281Y68813D01*
X35336Y68758D01*
X35383Y68717D01*
X35390Y68710D01*
X35397Y68703D01*
X35465Y68642D01*
X35520Y68594D01*
X35568Y68560D01*
X35575Y68553D01*
X35581Y68546D01*
X35650Y68492D01*
X35718Y68444D01*
X35739Y68423D01*
X35759Y68410D01*
X35773Y68403D01*
X35780Y68396D01*
X35855Y68348D01*
X35923Y68307D01*
X35943Y68287D01*
X35964Y68280D01*
X35978Y68266D01*
X35984D01*
X36053Y68225D01*
X36107Y68191D01*
X36148Y68170D01*
X36155Y68164D01*
X36162D01*
X36217Y68143D01*
X36258Y68136D01*
X36292Y68129D01*
X36299D01*
X36340Y68136D01*
X36374Y68157D01*
X36408Y68184D01*
X36435Y68218D01*
X36456Y68252D01*
X36469Y68280D01*
X36483Y68300D01*
Y68307D01*
X36503Y68382D01*
X36524Y68464D01*
X36538Y68546D01*
X36551Y68628D01*
X36565Y68696D01*
X36572Y68751D01*
X36579Y68792D01*
Y68806D01*
X36592Y68929D01*
X36599Y68983D01*
Y69024D01*
Y69065D01*
X36606Y69093D01*
Y69113D01*
Y69120D01*
Y69222D01*
X36613Y69304D01*
Y69339D01*
X36620Y69359D01*
Y69373D01*
Y69379D01*
X36626Y69461D01*
X36640Y69530D01*
X36647Y69557D01*
Y69577D01*
X36654Y69584D01*
Y69591D01*
X36674Y69666D01*
X36702Y69721D01*
X36722Y69762D01*
X36729Y69769D01*
Y69776D01*
X36749Y69803D01*
X36770Y69823D01*
X36790Y69837D01*
X36797Y69844D01*
X36831Y69864D01*
X36865Y69885D01*
X36886Y69892D01*
X36900Y69898D01*
X36941Y69919D01*
X36975Y69926D01*
X37002Y69933D01*
X37016D01*
X37057Y69940D01*
X37098Y69946D01*
X37166D01*
X37193Y69933D01*
X37255Y69912D01*
X37282Y69898D01*
X37303Y69885D01*
X37316Y69878D01*
X37323Y69871D01*
X37398Y69810D01*
X37473Y69741D01*
X37501Y69714D01*
X37521Y69687D01*
X37535Y69673D01*
X37542Y69666D01*
X37631Y69571D01*
X37706Y69475D01*
X37733Y69441D01*
X37760Y69407D01*
X37774Y69386D01*
X37781Y69379D01*
X37863Y69257D01*
X37904Y69202D01*
X37931Y69147D01*
X37958Y69106D01*
X37979Y69065D01*
X37993Y69045D01*
X37999Y69038D01*
X38047Y68949D01*
X38095Y68867D01*
X38109Y68833D01*
X38122Y68806D01*
X38136Y68792D01*
Y68785D01*
X38184Y68690D01*
X38232Y68615D01*
X38245Y68580D01*
X38259Y68560D01*
X38273Y68546D01*
Y68539D01*
X38313Y68464D01*
X38355Y68403D01*
X38382Y68362D01*
X38389Y68355D01*
Y68348D01*
X38402Y68321D01*
X38423Y68307D01*
X38443Y68280D01*
X38457Y68273D01*
X38464D01*
X38471Y68280D01*
Y68307D01*
X38477Y68328D01*
Y68334D01*
Y68389D01*
Y68444D01*
X38484Y68485D01*
Y68492D01*
Y68498D01*
Y68580D01*
Y68655D01*
Y68683D01*
Y68710D01*
Y68724D01*
Y68731D01*
Y68826D01*
Y68908D01*
X38491Y68936D01*
Y68963D01*
Y68976D01*
Y68983D01*
X38498Y69079D01*
Y69154D01*
X38505Y69181D01*
Y69202D01*
Y69216D01*
Y69222D01*
X38511Y69304D01*
X38518Y69359D01*
X38525Y69400D01*
X38532Y69414D01*
X38552Y69489D01*
X38573Y69557D01*
X38600Y69612D01*
X38628Y69660D01*
X38655Y69700D01*
X38675Y69728D01*
X38689Y69741D01*
X38696Y69748D01*
X38744Y69789D01*
X38798Y69823D01*
X38846Y69844D01*
X38894Y69864D01*
X38935Y69871D01*
X38969Y69878D01*
X39072D01*
X39133Y69864D01*
X39188Y69851D01*
X39235Y69837D01*
X39276Y69823D01*
X39311Y69810D01*
X39331Y69803D01*
X39338Y69796D01*
X39393Y69762D01*
X39447Y69728D01*
X39495Y69687D01*
X39536Y69653D01*
X39570Y69618D01*
X39597Y69591D01*
X39611Y69571D01*
X39618Y69564D01*
X39666Y69502D01*
X39714Y69441D01*
X39734Y69420D01*
X39748Y69400D01*
X39755Y69386D01*
X39761Y69379D01*
X39816Y69304D01*
X39871Y69229D01*
X39891Y69202D01*
X39905Y69181D01*
X39912Y69168D01*
X39919Y69161D01*
X39980Y69079D01*
X40028Y69004D01*
X40048Y68970D01*
X40062Y68949D01*
X40069Y68936D01*
X40076Y68929D01*
X40123Y68853D01*
X40164Y68792D01*
X40192Y68744D01*
X40199Y68737D01*
Y68731D01*
X40205Y68717D01*
X40219Y68690D01*
X40233Y68669D01*
X40240Y68662D01*
X40260Y68621D01*
X40281Y68580D01*
X40301Y68553D01*
X40308Y68546D01*
Y68539D01*
X40342Y68485D01*
X40369Y68437D01*
X40390Y68403D01*
X40397Y68396D01*
Y68389D01*
X40424Y68334D01*
X40451Y68287D01*
X40472Y68259D01*
X40479Y68246D01*
X40506Y68198D01*
X40526Y68164D01*
X40540Y68136D01*
X40547Y68129D01*
X40560Y68102D01*
X40574Y68082D01*
X40581Y68068D01*
X40574Y68123D01*
X40567Y68184D01*
X40560Y68212D01*
X40554Y68232D01*
Y68246D01*
Y68252D01*
X40533Y68348D01*
X40513Y68430D01*
X40506Y68464D01*
X40499Y68492D01*
X40492Y68512D01*
Y68519D01*
X40465Y68635D01*
X40458Y68683D01*
X40444Y68731D01*
X40438Y68772D01*
X40431Y68806D01*
X40424Y68826D01*
Y68833D01*
X40397Y68949D01*
X40390Y69004D01*
X40383Y69052D01*
X40369Y69093D01*
Y69120D01*
X40363Y69140D01*
Y69147D01*
X40342Y69257D01*
X40335Y69297D01*
X40328Y69339D01*
X40321Y69373D01*
X40315Y69400D01*
Y69414D01*
Y69420D01*
X40301Y69502D01*
X40294Y69564D01*
Y69605D01*
Y69618D01*
Y69680D01*
X40301Y69728D01*
X40308Y69762D01*
Y69776D01*
X40315Y69830D01*
X40328Y69878D01*
X40342Y69905D01*
X40349Y69912D01*
X40376Y69953D01*
X40397Y69981D01*
X40424Y70001D01*
X40431Y70008D01*
X40479Y70028D01*
X40526Y70035D01*
X40567Y70042D01*
X40581D01*
X40649Y70035D01*
X40711Y70028D01*
X40745Y70015D01*
X40752Y70008D01*
X40759D01*
X40806Y69981D01*
X40841Y69953D01*
X40868Y69926D01*
X40875Y69919D01*
X40902Y69885D01*
X40922Y69844D01*
X40936Y69823D01*
X40943Y69810D01*
X40957Y69769D01*
X40970Y69741D01*
X40977Y69714D01*
Y69707D01*
X40991Y69639D01*
X41004Y69577D01*
Y69550D01*
X41011Y69530D01*
Y69516D01*
Y69509D01*
X41018Y69427D01*
X41025Y69386D01*
X41073Y69379D01*
X41107Y69366D01*
X41134Y69345D01*
X41141Y69339D01*
X41230Y69250D01*
X41319Y69161D01*
X41360Y69127D01*
X41387Y69099D01*
X41407Y69086D01*
X41414Y69079D01*
X41524Y68976D01*
X41578Y68929D01*
X41626Y68888D01*
X41667Y68853D01*
X41694Y68826D01*
X41715Y68806D01*
X41722Y68799D01*
X41838Y68696D01*
X41892Y68649D01*
X41940Y68615D01*
X41974Y68580D01*
X42009Y68553D01*
X42029Y68539D01*
X42036Y68533D01*
X42152Y68444D01*
X42207Y68403D01*
X42254Y68369D01*
X42289Y68341D01*
X42323Y68321D01*
X42343Y68307D01*
X42350Y68300D01*
X42384Y68280D01*
X42412Y68266D01*
X42439Y68252D01*
X42446Y68246D01*
X42480Y68225D01*
X42514Y68212D01*
X42541Y68198D01*
X42548Y68191D01*
X42582Y68177D01*
X42616Y68164D01*
X42637Y68157D01*
X42644Y68150D01*
X42678Y68143D01*
X42712Y68136D01*
X42739D01*
X42780Y68143D01*
X42794Y68150D01*
X42801D01*
X42828Y68184D01*
X42835Y68191D01*
X42842Y68198D01*
X42869Y68239D01*
X42876Y68246D01*
Y68252D01*
X42890Y68287D01*
Y68300D01*
X42896Y68369D01*
X42903Y68437D01*
X42910Y68464D01*
Y68478D01*
Y68492D01*
Y68498D01*
X42917Y68573D01*
Y68642D01*
X42924Y68662D01*
Y68683D01*
Y68696D01*
Y68703D01*
Y68785D01*
Y68853D01*
Y68874D01*
Y68894D01*
Y68908D01*
Y68915D01*
Y68990D01*
Y69052D01*
Y69093D01*
Y69099D01*
Y69106D01*
X42917Y69257D01*
Y69325D01*
X42910Y69386D01*
Y69434D01*
X42903Y69475D01*
Y69502D01*
Y69509D01*
X42883Y69666D01*
X42869Y69741D01*
X42862Y69810D01*
X42855Y69864D01*
X42849Y69912D01*
X42842Y69940D01*
Y69953D01*
X42835Y69967D01*
Y69981D01*
X42828Y69994D01*
Y70001D01*
X42821Y70035D01*
Y70069D01*
X42814Y70097D01*
Y70103D01*
X42808Y70151D01*
X42801Y70192D01*
X42794Y70219D01*
Y70233D01*
X42787Y70281D01*
X42780Y70322D01*
X42774Y70349D01*
Y70363D01*
X42767Y70404D01*
X42760Y70438D01*
X42753Y70465D01*
Y70472D01*
X42746Y70506D01*
Y70527D01*
Y70534D01*
Y70540D01*
X42726Y70629D01*
X42712Y70718D01*
X42698Y70793D01*
X42685Y70855D01*
X42678Y70909D01*
X42671Y70943D01*
X42664Y70971D01*
Y70978D01*
X42650Y71046D01*
X42637Y71107D01*
X42623Y71155D01*
X42616Y71203D01*
X42610Y71244D01*
Y71271D01*
X42603Y71285D01*
Y71292D01*
X42582Y71381D01*
X42569Y71442D01*
X42562Y71483D01*
Y71497D01*
X42548Y71551D01*
X42541Y71592D01*
Y71613D01*
Y71620D01*
X42548Y71647D01*
X42555Y71674D01*
X42569Y71695D01*
X42575Y71702D01*
X42603Y71736D01*
X42623Y71763D01*
X42650Y71777D01*
X42657Y71784D01*
X42698Y71804D01*
X42739Y71825D01*
X42767Y71831D01*
X42780Y71838D01*
X42828Y71852D01*
X42876Y71865D01*
X42924D01*
X43006Y71859D01*
D02*
G37*
G36*
X73857Y71620D02*
X73973Y71613D01*
X74075Y71592D01*
X74171Y71579D01*
X74253Y71558D01*
X74314Y71538D01*
X74355Y71531D01*
X74362Y71524D01*
X74369D01*
X74478Y71483D01*
X74581Y71442D01*
X74683Y71401D01*
X74765Y71353D01*
X74834Y71319D01*
X74888Y71285D01*
X74922Y71264D01*
X74936Y71258D01*
X75032Y71189D01*
X75127Y71121D01*
X75216Y71053D01*
X75291Y70991D01*
X75353Y70937D01*
X75400Y70896D01*
X75428Y70868D01*
X75441Y70855D01*
X75523Y70766D01*
X75605Y70677D01*
X75680Y70595D01*
X75742Y70520D01*
X75790Y70452D01*
X75831Y70404D01*
X75858Y70370D01*
X75865Y70356D01*
X75913Y70281D01*
X75960Y70199D01*
X75981Y70165D01*
X75995Y70144D01*
X76001Y70124D01*
X76008Y70117D01*
X76056Y70015D01*
X76104Y69919D01*
X76124Y69878D01*
X76138Y69844D01*
X76145Y69823D01*
X76152Y69817D01*
X76200Y69694D01*
X76220Y69639D01*
X76240Y69584D01*
X76261Y69543D01*
X76268Y69502D01*
X76281Y69482D01*
Y69475D01*
X76322Y69345D01*
X76343Y69284D01*
X76363Y69229D01*
X76377Y69188D01*
X76391Y69154D01*
X76398Y69127D01*
Y69120D01*
X76432Y68997D01*
X76445Y68942D01*
X76452Y68894D01*
X76459Y68853D01*
X76466Y68819D01*
X76473Y68799D01*
Y68792D01*
X76486Y68690D01*
X76493Y68642D01*
Y68601D01*
X76500Y68573D01*
Y68546D01*
Y68533D01*
Y68526D01*
X76493Y68437D01*
X76486Y68355D01*
X76452Y68198D01*
X76398Y68061D01*
X76343Y67938D01*
X76288Y67836D01*
X76261Y67795D01*
X76234Y67761D01*
X76213Y67727D01*
X76200Y67706D01*
X76186Y67699D01*
Y67692D01*
X76063Y67570D01*
X75933Y67460D01*
X75803Y67371D01*
X75687Y67296D01*
X75578Y67235D01*
X75530Y67214D01*
X75489Y67194D01*
X75462Y67180D01*
X75434Y67167D01*
X75421Y67160D01*
X75414D01*
X75243Y67105D01*
X75168Y67085D01*
X75100Y67071D01*
X75038Y67057D01*
X74997Y67044D01*
X74963Y67037D01*
X74956D01*
X74786Y67009D01*
X74711Y67003D01*
X74642Y66996D01*
X74581Y66989D01*
X74369D01*
X74308Y66996D01*
X74198D01*
X74157Y67003D01*
X74123D01*
X73966Y67016D01*
X73891Y67023D01*
X73830Y67037D01*
X73775Y67044D01*
X73727Y67050D01*
X73700Y67057D01*
X73693D01*
X73529Y67085D01*
X73454Y67098D01*
X73386Y67112D01*
X73324Y67125D01*
X73283Y67132D01*
X73249Y67139D01*
X73242D01*
X73078Y67187D01*
X73010Y67207D01*
X72942Y67228D01*
X72887Y67248D01*
X72846Y67262D01*
X72819Y67276D01*
X72812D01*
X72668Y67337D01*
X72600Y67371D01*
X72545Y67399D01*
X72498Y67426D01*
X72457Y67447D01*
X72436Y67453D01*
X72429Y67460D01*
X72306Y67542D01*
X72259Y67576D01*
X72211Y67611D01*
X72177Y67645D01*
X72149Y67665D01*
X72136Y67679D01*
X72129Y67686D01*
X72088Y67788D01*
X72067Y67884D01*
X72061Y67925D01*
Y67959D01*
Y67979D01*
Y67986D01*
Y68007D01*
X72067Y68027D01*
X72074Y68041D01*
X72081Y68048D01*
X72101Y68075D01*
X72122Y68095D01*
X72136Y68109D01*
X72142Y68116D01*
X72170Y68136D01*
X72197Y68157D01*
X72224Y68164D01*
X72231Y68170D01*
X72265Y68184D01*
X72299Y68191D01*
X72354D01*
X72375Y68184D01*
X72395Y68177D01*
X72402Y68170D01*
X72436Y68157D01*
X72464Y68136D01*
X72484Y68123D01*
X72491Y68116D01*
X72525Y68095D01*
X72559Y68075D01*
X72586Y68061D01*
X72593Y68054D01*
X72627Y68027D01*
X72648Y68007D01*
X72662Y67993D01*
X72668Y67986D01*
X72743Y67938D01*
X72819Y67904D01*
X72846Y67884D01*
X72873Y67877D01*
X72887Y67863D01*
X72894D01*
X72989Y67822D01*
X73078Y67788D01*
X73112Y67774D01*
X73140Y67761D01*
X73153Y67754D01*
X73160D01*
X73256Y67720D01*
X73351Y67686D01*
X73386Y67679D01*
X73413Y67665D01*
X73433Y67658D01*
X73440D01*
X73549Y67631D01*
X73638Y67604D01*
X73679Y67597D01*
X73707Y67590D01*
X73727Y67583D01*
X73734D01*
X73843Y67563D01*
X73932Y67542D01*
X73973Y67535D01*
X74000D01*
X74021Y67528D01*
X74028D01*
X74130Y67515D01*
X74212Y67508D01*
X74294D01*
X74465Y67515D01*
X74547Y67522D01*
X74615Y67528D01*
X74670Y67535D01*
X74711Y67542D01*
X74745Y67549D01*
X74752D01*
X74902Y67590D01*
X74970Y67611D01*
X75025Y67638D01*
X75072Y67658D01*
X75107Y67672D01*
X75134Y67679D01*
X75141Y67686D01*
X75243Y67740D01*
X75332Y67795D01*
X75366Y67815D01*
X75393Y67836D01*
X75407Y67843D01*
X75414Y67849D01*
X75510Y67925D01*
X75585Y67993D01*
X75619Y68020D01*
X75639Y68041D01*
X75653Y68054D01*
X75660Y68061D01*
X75728Y68136D01*
X75783Y68212D01*
X75797Y68239D01*
X75810Y68259D01*
X75824Y68273D01*
Y68280D01*
X75858Y68369D01*
X75872Y68451D01*
X75879Y68485D01*
Y68512D01*
Y68526D01*
Y68533D01*
X75872Y68615D01*
X75865Y68696D01*
Y68724D01*
X75858Y68751D01*
Y68765D01*
Y68772D01*
X75837Y68874D01*
X75810Y68963D01*
X75803Y68997D01*
X75797Y69024D01*
X75790Y69045D01*
Y69052D01*
X75756Y69161D01*
X75742Y69216D01*
X75728Y69257D01*
X75714Y69297D01*
X75701Y69325D01*
X75694Y69345D01*
Y69352D01*
X75653Y69461D01*
X75633Y69516D01*
X75619Y69557D01*
X75605Y69591D01*
X75592Y69625D01*
X75585Y69639D01*
Y69646D01*
X75537Y69748D01*
X75496Y69830D01*
X75482Y69864D01*
X75469Y69892D01*
X75455Y69905D01*
Y69912D01*
X75407Y69994D01*
X75366Y70062D01*
X75339Y70103D01*
X75325Y70110D01*
Y70117D01*
X75216Y70254D01*
X75161Y70315D01*
X75107Y70377D01*
X75066Y70418D01*
X75032Y70459D01*
X75004Y70479D01*
X74997Y70486D01*
X74847Y70609D01*
X74779Y70663D01*
X74717Y70711D01*
X74663Y70745D01*
X74615Y70780D01*
X74588Y70793D01*
X74581Y70800D01*
X74417Y70889D01*
X74342Y70930D01*
X74273Y70964D01*
X74219Y70985D01*
X74178Y71005D01*
X74144Y71012D01*
X74137Y71019D01*
X74048Y71046D01*
X73973Y71073D01*
X73898Y71087D01*
X73836Y71094D01*
X73782Y71101D01*
X73741Y71107D01*
X73665D01*
X73631Y71101D01*
X73604Y71094D01*
X73590Y71087D01*
X73536Y71073D01*
X73495Y71053D01*
X73461Y71039D01*
X73447Y71032D01*
X73392Y71012D01*
X73344Y70991D01*
X73310Y70971D01*
X73297Y70964D01*
X73242Y70930D01*
X73201Y70903D01*
X73174Y70875D01*
X73160Y70868D01*
X73112Y70834D01*
X73071Y70807D01*
X73051Y70786D01*
X73044Y70780D01*
X73010Y70752D01*
X72983Y70725D01*
X72969Y70698D01*
X72962Y70691D01*
X72935Y70650D01*
X72907Y70609D01*
X72887Y70582D01*
X72880Y70575D01*
Y70568D01*
X72846Y70506D01*
X72805Y70438D01*
X72791Y70411D01*
X72778Y70384D01*
X72764Y70370D01*
Y70363D01*
X72696Y70226D01*
X72641Y70103D01*
X72607Y69987D01*
X72580Y69892D01*
X72566Y69810D01*
X72552Y69748D01*
Y69707D01*
Y69700D01*
Y69694D01*
X72559Y69591D01*
X72580Y69509D01*
X72593Y69468D01*
X72607Y69441D01*
X72614Y69427D01*
Y69420D01*
X72662Y69332D01*
X72716Y69257D01*
X72737Y69229D01*
X72757Y69209D01*
X72764Y69195D01*
X72771Y69188D01*
X72839Y69120D01*
X72901Y69065D01*
X72928Y69052D01*
X72948Y69038D01*
X72962Y69024D01*
X72969D01*
X73044Y68990D01*
X73099Y68970D01*
X73140Y68963D01*
X73181D01*
X73208Y68970D01*
X73222D01*
X73235Y68990D01*
Y69004D01*
Y69038D01*
Y69072D01*
Y69086D01*
Y69093D01*
X73228Y69120D01*
Y69147D01*
X73222Y69161D01*
Y69168D01*
X73208Y69195D01*
X73201Y69222D01*
X73194Y69243D01*
Y69250D01*
X73181Y69291D01*
X73167Y69325D01*
X73160Y69352D01*
X73153Y69366D01*
X73106Y69475D01*
X73085Y69523D01*
X73071Y69564D01*
X73058Y69591D01*
X73051Y69612D01*
X73044Y69625D01*
Y69632D01*
X73030Y69666D01*
X73017Y69700D01*
X73010Y69741D01*
X73003Y69762D01*
Y69769D01*
X73017Y69851D01*
X73044Y69905D01*
X73092Y69946D01*
X73140Y69981D01*
X73194Y69994D01*
X73242Y70001D01*
X73269Y70008D01*
X73317D01*
X73324Y70001D01*
X73358D01*
Y70028D01*
Y70062D01*
X73365Y70097D01*
X73372Y70110D01*
X73379Y70117D01*
X73392Y70144D01*
X73413Y70165D01*
X73427Y70179D01*
X73433Y70185D01*
X73529Y70254D01*
X73618Y70302D01*
X73652Y70315D01*
X73679Y70329D01*
X73700Y70336D01*
X73707D01*
X73823Y70363D01*
X73884Y70370D01*
X73939D01*
X73987Y70377D01*
X74062D01*
X74151Y70370D01*
X74232Y70349D01*
X74267Y70336D01*
X74294Y70322D01*
X74308Y70315D01*
X74314D01*
X74403Y70267D01*
X74478Y70219D01*
X74512Y70199D01*
X74533Y70179D01*
X74547Y70172D01*
X74553Y70165D01*
X74629Y70097D01*
X74697Y70035D01*
X74724Y70008D01*
X74745Y69987D01*
X74752Y69974D01*
X74758Y69967D01*
X74827Y69892D01*
X74881Y69823D01*
X74902Y69803D01*
X74915Y69782D01*
X74922Y69769D01*
X74929Y69762D01*
X75011Y69653D01*
X75045Y69598D01*
X75079Y69557D01*
X75100Y69523D01*
X75120Y69496D01*
X75127Y69475D01*
X75134Y69468D01*
X75182Y69373D01*
X75223Y69291D01*
X75236Y69257D01*
X75250Y69229D01*
X75257Y69216D01*
Y69209D01*
X75284Y69127D01*
X75312Y69052D01*
X75318Y69024D01*
Y69004D01*
X75325Y68990D01*
Y68983D01*
X75339Y68908D01*
X75346Y68840D01*
Y68819D01*
Y68799D01*
Y68785D01*
Y68778D01*
X75339Y68703D01*
X75318Y68642D01*
X75305Y68615D01*
X75298Y68594D01*
X75291Y68580D01*
Y68573D01*
X75243Y68498D01*
X75189Y68437D01*
X75148Y68389D01*
X75141Y68382D01*
X75134Y68375D01*
X75059Y68321D01*
X74991Y68273D01*
X74956Y68259D01*
X74936Y68246D01*
X74922Y68232D01*
X74915D01*
X74820Y68198D01*
X74738Y68184D01*
X74704Y68177D01*
X74656D01*
X74588Y68184D01*
X74519Y68198D01*
X74485D01*
X74465Y68205D01*
X74451Y68212D01*
X74444D01*
X74349Y68239D01*
X74267Y68266D01*
X74232Y68280D01*
X74205Y68287D01*
X74191Y68293D01*
X74185D01*
X74082Y68335D01*
X74000Y68375D01*
X73966Y68389D01*
X73939Y68403D01*
X73925Y68410D01*
X73918D01*
X73830Y68457D01*
X73754Y68498D01*
X73727Y68519D01*
X73707Y68526D01*
X73700Y68539D01*
X73693D01*
X73618Y68478D01*
X73549Y68423D01*
X73515Y68410D01*
X73495Y68396D01*
X73481Y68382D01*
X73474D01*
X73379Y68348D01*
X73290Y68328D01*
X73256D01*
X73228Y68321D01*
X73181D01*
X73140Y68328D01*
X73058Y68355D01*
X73023Y68362D01*
X72989Y68375D01*
X72969Y68382D01*
X72962D01*
X72907Y68396D01*
X72860Y68410D01*
X72832Y68416D01*
X72825D01*
X72785Y68430D01*
X72764Y68437D01*
X72750Y68444D01*
X72621Y68512D01*
X72566Y68546D01*
X72518Y68587D01*
X72484Y68615D01*
X72457Y68642D01*
X72436Y68656D01*
X72429Y68662D01*
X72334Y68772D01*
X72259Y68867D01*
X72231Y68908D01*
X72204Y68942D01*
X72197Y68963D01*
X72190Y68970D01*
X72122Y69099D01*
X72095Y69161D01*
X72074Y69216D01*
X72054Y69263D01*
X72040Y69297D01*
X72033Y69325D01*
Y69332D01*
X71999Y69475D01*
X71992Y69543D01*
X71985Y69598D01*
X71978Y69653D01*
Y69687D01*
Y69714D01*
Y69721D01*
X71985Y69823D01*
X71999Y69926D01*
X72013Y70021D01*
X72033Y70110D01*
X72061Y70192D01*
X72074Y70254D01*
X72088Y70295D01*
X72095Y70302D01*
Y70308D01*
X72136Y70418D01*
X72149Y70472D01*
X72170Y70513D01*
X72183Y70547D01*
X72197Y70582D01*
X72211Y70595D01*
Y70602D01*
X72265Y70705D01*
X72313Y70786D01*
X72334Y70821D01*
X72354Y70841D01*
X72361Y70855D01*
X72368Y70862D01*
X72464Y70985D01*
X72511Y71032D01*
X72552Y71080D01*
X72593Y71114D01*
X72621Y71148D01*
X72641Y71162D01*
X72648Y71169D01*
X72764Y71271D01*
X72819Y71312D01*
X72866Y71346D01*
X72907Y71374D01*
X72942Y71394D01*
X72962Y71408D01*
X72969Y71415D01*
X73099Y71483D01*
X73160Y71510D01*
X73215Y71531D01*
X73263Y71551D01*
X73304Y71565D01*
X73331Y71572D01*
X73338D01*
X73481Y71606D01*
X73549Y71613D01*
X73604Y71620D01*
X73659Y71627D01*
X73734D01*
X73857Y71620D01*
D02*
G37*
G36*
X32491Y79683D02*
X32630Y79675D01*
X32745Y79666D01*
X32843Y79658D01*
X32925Y79650D01*
X32974Y79642D01*
X32991D01*
X33138Y79617D01*
X33270Y79593D01*
X33401Y79568D01*
X33524Y79543D01*
X33622Y79519D01*
X33696Y79494D01*
X33745Y79486D01*
X33753Y79478D01*
X33762D01*
Y78445D01*
X33598Y78486D01*
X33442Y78510D01*
X33311Y78535D01*
X33196Y78559D01*
X33106Y78576D01*
X33040Y78584D01*
X32999Y78592D01*
X32983D01*
X32868Y78609D01*
X32753Y78617D01*
X32655Y78625D01*
X32564D01*
X32491Y78633D01*
X32384D01*
X32228Y78625D01*
X32163Y78617D01*
X32105D01*
X32056Y78609D01*
X32015Y78600D01*
X31990Y78592D01*
X31982D01*
X31851Y78559D01*
X31794Y78543D01*
X31744Y78518D01*
X31703Y78502D01*
X31679Y78486D01*
X31662Y78477D01*
X31654Y78469D01*
X31564Y78395D01*
X31498Y78305D01*
X31482Y78272D01*
X31466Y78240D01*
X31449Y78223D01*
Y78215D01*
X31425Y78149D01*
X31400Y78084D01*
X31375Y77953D01*
X31367Y77903D01*
Y77854D01*
Y77821D01*
Y77813D01*
X31375Y77715D01*
X31384Y77625D01*
X31408Y77534D01*
X31425Y77452D01*
X31449Y77387D01*
X31474Y77338D01*
X31482Y77305D01*
X31490Y77288D01*
X31539Y77190D01*
X31605Y77083D01*
X31671Y76977D01*
X31744Y76887D01*
X31810Y76796D01*
X31859Y76731D01*
X31892Y76690D01*
X31908Y76682D01*
Y76673D01*
X32031Y76534D01*
X32163Y76395D01*
X32302Y76255D01*
X32433Y76124D01*
X32556Y76017D01*
X32655Y75927D01*
X32696Y75894D01*
X32720Y75870D01*
X32737Y75853D01*
X32745Y75845D01*
X32958Y75657D01*
X33188Y75468D01*
X33417Y75271D01*
X33639Y75091D01*
X33737Y75009D01*
X33835Y74935D01*
X33917Y74869D01*
X33991Y74812D01*
X34049Y74763D01*
X34090Y74730D01*
X34122Y74705D01*
X34131Y74697D01*
Y73582D01*
X29940D01*
Y74632D01*
X32583D01*
X32327Y74837D01*
X32089Y75033D01*
X31867Y75214D01*
X31687Y75370D01*
X31523Y75509D01*
X31457Y75575D01*
X31400Y75624D01*
X31351Y75673D01*
X31302Y75706D01*
X31269Y75739D01*
X31244Y75763D01*
X31236Y75771D01*
X31228Y75780D01*
X31080Y75927D01*
X30941Y76067D01*
X30826Y76198D01*
X30728Y76304D01*
X30654Y76403D01*
X30596Y76477D01*
X30564Y76518D01*
X30555Y76534D01*
X30473Y76665D01*
X30400Y76788D01*
X30334Y76911D01*
X30293Y77010D01*
X30252Y77100D01*
X30227Y77165D01*
X30219Y77206D01*
X30211Y77223D01*
X30178Y77354D01*
X30154Y77477D01*
X30137Y77600D01*
X30121Y77707D01*
Y77805D01*
X30113Y77879D01*
Y77928D01*
Y77936D01*
Y77944D01*
X30121Y78108D01*
X30137Y78256D01*
X30162Y78395D01*
X30203Y78527D01*
X30244Y78641D01*
X30293Y78748D01*
X30342Y78846D01*
X30391Y78937D01*
X30449Y79010D01*
X30498Y79076D01*
X30547Y79133D01*
X30588Y79174D01*
X30629Y79215D01*
X30654Y79240D01*
X30670Y79248D01*
X30678Y79256D01*
X30785Y79330D01*
X30900Y79404D01*
X31023Y79461D01*
X31154Y79511D01*
X31400Y79584D01*
X31646Y79634D01*
X31761Y79658D01*
X31859Y79666D01*
X31958Y79675D01*
X32040Y79683D01*
X32105Y79691D01*
X32343D01*
X32491Y79683D01*
D02*
G37*
G36*
X74245Y78379D02*
X74401Y78363D01*
X74540Y78338D01*
X74663Y78313D01*
X74762Y78281D01*
X74827Y78256D01*
X74876Y78240D01*
X74893Y78231D01*
X75008Y78166D01*
X75090Y78100D01*
X75163Y78018D01*
X75204Y77944D01*
X75237Y77871D01*
X75262Y77813D01*
X75270Y77780D01*
Y78305D01*
X76500D01*
Y73582D01*
X75270D01*
Y76739D01*
X75229Y76862D01*
X75180Y76960D01*
X75131Y77042D01*
X75081Y77108D01*
X75040Y77157D01*
X74999Y77190D01*
X74975Y77206D01*
X74967Y77215D01*
X74885Y77256D01*
X74786Y77288D01*
X74696Y77313D01*
X74606Y77329D01*
X74524Y77338D01*
X74458Y77346D01*
X74401D01*
X74270Y77338D01*
X74163Y77313D01*
X74073Y77280D01*
X73999Y77247D01*
X73950Y77206D01*
X73909Y77174D01*
X73892Y77149D01*
X73884Y77141D01*
X73835Y77059D01*
X73802Y76960D01*
X73778Y76846D01*
X73761Y76747D01*
X73753Y76649D01*
X73745Y76567D01*
Y76534D01*
Y76509D01*
Y76501D01*
Y76493D01*
Y73582D01*
X72523D01*
Y76706D01*
X72482Y76837D01*
X72433Y76944D01*
X72375Y77026D01*
X72326Y77092D01*
X72277Y77149D01*
X72236Y77182D01*
X72211Y77198D01*
X72203Y77206D01*
X72113Y77256D01*
X72023Y77288D01*
X71924Y77313D01*
X71834Y77329D01*
X71752Y77338D01*
X71687Y77346D01*
X71629D01*
X71498Y77338D01*
X71383Y77313D01*
X71293Y77280D01*
X71219Y77247D01*
X71170Y77206D01*
X71129Y77174D01*
X71113Y77149D01*
X71104Y77141D01*
X71055Y77059D01*
X71022Y76960D01*
X70990Y76846D01*
X70973Y76747D01*
X70965Y76649D01*
X70957Y76567D01*
Y76534D01*
Y76509D01*
Y76501D01*
Y76493D01*
Y73582D01*
X69735D01*
Y76723D01*
Y76870D01*
X69751Y77018D01*
X69768Y77149D01*
X69792Y77264D01*
X69825Y77379D01*
X69858Y77485D01*
X69891Y77575D01*
X69924Y77657D01*
X69965Y77731D01*
X69997Y77797D01*
X70030Y77846D01*
X70063Y77887D01*
X70088Y77928D01*
X70104Y77953D01*
X70112Y77961D01*
X70120Y77969D01*
X70194Y78043D01*
X70284Y78108D01*
X70375Y78166D01*
X70473Y78215D01*
X70670Y78289D01*
X70875Y78338D01*
X70965Y78354D01*
X71055Y78363D01*
X71129Y78371D01*
X71195Y78379D01*
X71252Y78387D01*
X71334D01*
X71514Y78379D01*
X71678Y78363D01*
X71834Y78338D01*
X71965Y78305D01*
X72072Y78272D01*
X72154Y78248D01*
X72187Y78240D01*
X72211Y78231D01*
X72220Y78223D01*
X72228D01*
X72367Y78158D01*
X72482Y78076D01*
X72572Y77994D01*
X72638Y77912D01*
X72695Y77838D01*
X72728Y77772D01*
X72744Y77731D01*
X72753Y77723D01*
Y77715D01*
X72794Y77821D01*
X72859Y77912D01*
X72925Y78002D01*
X72999Y78067D01*
X73064Y78125D01*
X73122Y78166D01*
X73163Y78190D01*
X73179Y78199D01*
X73310Y78264D01*
X73458Y78305D01*
X73605Y78338D01*
X73753Y78363D01*
X73876Y78379D01*
X73933D01*
X73983Y78387D01*
X74073D01*
X74245Y78379D01*
D02*
G37*
G36*
X38206Y73582D02*
X36705D01*
X34639Y79601D01*
X35926D01*
X37426Y75045D01*
X38887Y79601D01*
X40240D01*
X38206Y73582D01*
D02*
G37*
G36*
X57009Y73582D02*
X55549D01*
X54705Y76749D01*
X53868Y73582D01*
X52417D01*
X51137Y78305D01*
X52384D01*
X53149Y74993D01*
X54032Y78305D01*
X55369D01*
X56239Y75011D01*
X56992Y78305D01*
X58263D01*
X57009Y73582D01*
D02*
G37*
G36*
X48513Y78379D02*
X48694Y78371D01*
X48858Y78354D01*
X48997Y78330D01*
X49112Y78305D01*
X49202Y78289D01*
X49235Y78281D01*
X49260D01*
X49268Y78272D01*
X49276D01*
X49424Y78223D01*
X49563Y78158D01*
X49686Y78092D01*
X49793Y78026D01*
X49875Y77969D01*
X49940Y77920D01*
X49973Y77887D01*
X49989Y77871D01*
X50096Y77756D01*
X50186Y77633D01*
X50260Y77510D01*
X50326Y77387D01*
X50375Y77280D01*
X50408Y77198D01*
X50424Y77165D01*
X50432Y77141D01*
X50440Y77124D01*
Y77116D01*
X50490Y76936D01*
X50522Y76739D01*
X50555Y76542D01*
X50572Y76354D01*
Y76272D01*
X50580Y76190D01*
Y76124D01*
X50588Y76058D01*
Y76009D01*
Y75976D01*
Y75952D01*
Y75944D01*
X50580Y75689D01*
X50563Y75460D01*
X50539Y75255D01*
X50531Y75165D01*
X50514Y75083D01*
X50498Y75009D01*
X50490Y74943D01*
X50473Y74886D01*
X50465Y74837D01*
X50457Y74804D01*
X50449Y74779D01*
X50440Y74763D01*
Y74755D01*
X50375Y74591D01*
X50301Y74443D01*
X50227Y74312D01*
X50153Y74205D01*
X50088Y74115D01*
X50039Y74049D01*
X50006Y74017D01*
X49989Y74000D01*
X49875Y73902D01*
X49752Y73820D01*
X49637Y73754D01*
X49522Y73697D01*
X49424Y73656D01*
X49342Y73631D01*
X49317Y73623D01*
X49292Y73615D01*
X49284Y73607D01*
X49276D01*
X49112Y73574D01*
X48948Y73549D01*
X48792Y73525D01*
X48636Y73516D01*
X48513Y73508D01*
X48456Y73500D01*
X48317D01*
X48112Y73508D01*
X47915Y73516D01*
X47743Y73533D01*
X47587Y73549D01*
X47464Y73566D01*
X47406D01*
X47365Y73574D01*
X47333Y73582D01*
X47308Y73590D01*
X47283D01*
X47119Y73631D01*
X46972Y73672D01*
X46849Y73713D01*
X46742Y73754D01*
X46660Y73787D01*
X46603Y73812D01*
X46562Y73828D01*
X46554Y73836D01*
Y74820D01*
X46644Y74796D01*
X46718Y74771D01*
X46791Y74755D01*
X46849Y74738D01*
X46898Y74722D01*
X46931Y74714D01*
X46955Y74705D01*
X46964D01*
X47087Y74673D01*
X47201Y74640D01*
X47242Y74623D01*
X47283Y74615D01*
X47308Y74607D01*
X47316D01*
X47464Y74574D01*
X47529Y74566D01*
X47595Y74550D01*
X47644Y74541D01*
X47693D01*
X47718Y74533D01*
X47726D01*
X47874Y74517D01*
X47948Y74517D01*
X48005Y74509D01*
X48251D01*
X48366Y74517D01*
X48464Y74533D01*
X48554Y74550D01*
X48710Y74591D01*
X48841Y74632D01*
X48940Y74681D01*
X49005Y74714D01*
X49046Y74746D01*
X49063Y74755D01*
X49153Y74853D01*
X49219Y74968D01*
X49276Y75091D01*
X49309Y75206D01*
X49333Y75304D01*
X49342Y75394D01*
X49350Y75427D01*
Y75452D01*
Y75460D01*
Y75468D01*
X46373Y75657D01*
X46357Y75788D01*
X46349Y75845D01*
X46340Y75903D01*
Y75944D01*
X46332Y75976D01*
Y76001D01*
Y76009D01*
X46324Y76132D01*
X46316Y76239D01*
Y76280D01*
Y76313D01*
Y76329D01*
Y76337D01*
Y76485D01*
X46332Y76632D01*
X46340Y76764D01*
X46357Y76878D01*
X46373Y76977D01*
X46381Y77051D01*
X46398Y77100D01*
Y77116D01*
X46431Y77247D01*
X46480Y77379D01*
X46529Y77485D01*
X46578Y77584D01*
X46627Y77666D01*
X46668Y77723D01*
X46693Y77756D01*
X46701Y77772D01*
X46791Y77871D01*
X46890Y77961D01*
X46996Y78043D01*
X47095Y78108D01*
X47177Y78158D01*
X47251Y78190D01*
X47300Y78215D01*
X47308Y78223D01*
X47316D01*
X47472Y78281D01*
X47636Y78322D01*
X47808Y78346D01*
X47964Y78371D01*
X48103Y78379D01*
X48161D01*
X48218Y78387D01*
X48317D01*
X48513Y78379D01*
D02*
G37*
G36*
X68415Y73582D02*
X67136D01*
Y75476D01*
X66455D01*
X66234Y75484D01*
X66029Y75493D01*
X65856Y75509D01*
X65701Y75534D01*
X65578Y75550D01*
X65528Y75558D01*
X65479Y75566D01*
X65446Y75575D01*
X65422D01*
X65414Y75583D01*
X65405D01*
X65250Y75632D01*
X65102Y75689D01*
X64979Y75747D01*
X64872Y75812D01*
X64790Y75862D01*
X64725Y75911D01*
X64692Y75944D01*
X64676Y75952D01*
X64569Y76050D01*
X64487Y76157D01*
X64413Y76272D01*
X64348Y76370D01*
X64307Y76460D01*
X64274Y76534D01*
X64257Y76583D01*
X64249Y76591D01*
Y76600D01*
X64200Y76755D01*
X64167Y76919D01*
X64143Y77083D01*
X64126Y77231D01*
X64118Y77370D01*
X64110Y77428D01*
Y77469D01*
Y77510D01*
Y77543D01*
Y77559D01*
Y77567D01*
X64118Y77756D01*
X64126Y77928D01*
X64143Y78084D01*
X64167Y78223D01*
X64192Y78330D01*
X64208Y78412D01*
X64216Y78436D01*
Y78461D01*
X64225Y78469D01*
Y78477D01*
X64274Y78617D01*
X64339Y78748D01*
X64405Y78855D01*
X64471Y78953D01*
X64528Y79027D01*
X64577Y79076D01*
X64610Y79117D01*
X64626Y79125D01*
X64741Y79215D01*
X64856Y79289D01*
X64979Y79355D01*
X65094Y79404D01*
X65200Y79437D01*
X65282Y79470D01*
X65315Y79478D01*
X65340D01*
X65348Y79486D01*
X65356D01*
X65537Y79527D01*
X65717Y79552D01*
X65906Y79576D01*
X66078Y79584D01*
X66225Y79593D01*
X66291Y79601D01*
X68415D01*
Y73582D01*
D02*
G37*
G36*
X42962Y78379D02*
X43036Y78371D01*
X43101D01*
X43151Y78363D01*
X43200Y78354D01*
X43224Y78346D01*
X43233D01*
X43380Y78313D01*
X43446Y78289D01*
X43511Y78264D01*
X43561Y78240D01*
X43602Y78223D01*
X43626Y78215D01*
X43634Y78207D01*
X43766Y78117D01*
X43831Y78067D01*
X43880Y78018D01*
X43921Y77977D01*
X43954Y77944D01*
X43979Y77920D01*
X43987Y77912D01*
X44036Y77838D01*
X44069Y77764D01*
X44085Y77715D01*
Y78305D01*
X45315D01*
Y73582D01*
X44085D01*
Y76370D01*
X44061Y76468D01*
X44036Y76550D01*
X44012Y76624D01*
X43979Y76690D01*
X43954Y76739D01*
X43930Y76780D01*
X43921Y76805D01*
X43913Y76813D01*
X43815Y76936D01*
X43766Y76977D01*
X43716Y77018D01*
X43684Y77051D01*
X43651Y77075D01*
X43634Y77083D01*
X43626Y77092D01*
X43503Y77157D01*
X43380Y77206D01*
X43339Y77223D01*
X43298Y77231D01*
X43274Y77239D01*
X43265D01*
X43118Y77264D01*
X43052Y77272D01*
X42987D01*
X42937Y77280D01*
X42667D01*
X42626Y78387D01*
X42814D01*
X42962Y78379D01*
D02*
G37*
G36*
X61256Y78379D02*
X61437Y78371D01*
X61601Y78354D01*
X61740Y78330D01*
X61855Y78305D01*
X61945Y78289D01*
X61978Y78281D01*
X62002D01*
X62011Y78272D01*
X62019D01*
X62166Y78223D01*
X62306Y78158D01*
X62429Y78092D01*
X62535Y78026D01*
X62617Y77969D01*
X62683Y77920D01*
X62716Y77887D01*
X62732Y77871D01*
X62839Y77756D01*
X62929Y77633D01*
X63003Y77510D01*
X63068Y77387D01*
X63118Y77280D01*
X63150Y77198D01*
X63167Y77165D01*
X63175Y77141D01*
X63183Y77124D01*
Y77116D01*
X63232Y76936D01*
X63265Y76739D01*
X63298Y76542D01*
X63314Y76354D01*
Y76272D01*
X63323Y76190D01*
Y76124D01*
X63331Y76058D01*
Y76009D01*
Y75976D01*
Y75952D01*
Y75944D01*
X63323Y75689D01*
X63306Y75460D01*
X63282Y75255D01*
X63273Y75165D01*
X63257Y75083D01*
X63241Y75009D01*
X63232Y74943D01*
X63216Y74886D01*
X63208Y74837D01*
X63200Y74804D01*
X63191Y74779D01*
X63183Y74763D01*
Y74755D01*
X63118Y74591D01*
X63044Y74443D01*
X62970Y74312D01*
X62896Y74205D01*
X62831Y74115D01*
X62781Y74049D01*
X62749Y74017D01*
X62732Y74000D01*
X62617Y73902D01*
X62494Y73820D01*
X62380Y73754D01*
X62265Y73697D01*
X62166Y73656D01*
X62084Y73631D01*
X62060Y73623D01*
X62035Y73615D01*
X62027Y73607D01*
X62019D01*
X61855Y73574D01*
X61691Y73549D01*
X61535Y73525D01*
X61379Y73516D01*
X61256Y73508D01*
X61199Y73500D01*
X61059D01*
X60863Y73508D01*
X60682Y73516D01*
X60518Y73533D01*
X60379Y73557D01*
X60264Y73574D01*
X60174Y73590D01*
X60141Y73598D01*
X60116D01*
X60108Y73607D01*
X60100D01*
X59944Y73656D01*
X59805Y73721D01*
X59682Y73787D01*
X59575Y73853D01*
X59493Y73910D01*
X59428Y73959D01*
X59395Y74000D01*
X59378Y74008D01*
X59272Y74123D01*
X59182Y74246D01*
X59108Y74377D01*
X59042Y74492D01*
X58993Y74599D01*
X58952Y74689D01*
X58944Y74722D01*
X58936Y74746D01*
X58927Y74755D01*
Y74763D01*
X58878Y74951D01*
X58837Y75148D01*
X58813Y75345D01*
X58788Y75534D01*
Y75616D01*
X58780Y75698D01*
Y75763D01*
X58772Y75829D01*
Y75878D01*
Y75911D01*
Y75935D01*
Y75944D01*
X58780Y76198D01*
X58796Y76419D01*
X58821Y76616D01*
X58845Y76788D01*
X58862Y76862D01*
X58878Y76928D01*
X58895Y76977D01*
X58903Y77026D01*
X58911Y77059D01*
X58919Y77083D01*
X58927Y77100D01*
Y77108D01*
X58993Y77280D01*
X59067Y77428D01*
X59141Y77559D01*
X59214Y77666D01*
X59280Y77756D01*
X59329Y77821D01*
X59362Y77854D01*
X59378Y77871D01*
X59493Y77969D01*
X59616Y78051D01*
X59739Y78125D01*
X59846Y78182D01*
X59952Y78223D01*
X60026Y78248D01*
X60059Y78264D01*
X60084D01*
X60092Y78272D01*
X60100D01*
X60264Y78313D01*
X60428Y78338D01*
X60592Y78363D01*
X60740Y78371D01*
X60871Y78379D01*
X60920Y78387D01*
X61059D01*
X61256Y78379D01*
D02*
G37*
G36*
X170000Y25685D02*
Y21000D01*
X152548D01*
Y25685D01*
X170000D01*
D02*
G37*
G36*
X148000Y21000D02*
X131463D01*
Y25685D01*
X148000D01*
Y21000D01*
D02*
G37*
G36*
X112478Y33222D02*
Y32733D01*
X111794Y32867D01*
Y30610D01*
X111205D01*
Y33391D01*
X111641D01*
X112478Y33222D01*
D02*
G37*
G36*
X110113D02*
Y32733D01*
X109429Y32867D01*
Y30610D01*
X108841D01*
Y33391D01*
X109276D01*
X110113Y33222D01*
D02*
G37*
G36*
X115159Y30610D02*
X114548D01*
Y31622D01*
X114246D01*
X113593Y30610D01*
X112875D01*
X113658Y31687D01*
X113562Y31721D01*
X113482Y31763D01*
X113417Y31809D01*
X113360Y31855D01*
X113318Y31897D01*
X113287Y31931D01*
X113272Y31954D01*
X113264Y31958D01*
Y31962D01*
X113222Y32042D01*
X113188Y32130D01*
X113165Y32222D01*
X113150Y32309D01*
X113142Y32386D01*
X113138Y32420D01*
X113135Y32451D01*
Y32474D01*
Y32493D01*
Y32504D01*
Y32508D01*
X113138Y32596D01*
X113146Y32672D01*
X113154Y32745D01*
X113165Y32802D01*
X113180Y32852D01*
X113188Y32886D01*
X113196Y32909D01*
X113199Y32917D01*
X113226Y32978D01*
X113257Y33031D01*
X113287Y33077D01*
X113318Y33115D01*
X113348Y33146D01*
X113371Y33169D01*
X113387Y33184D01*
X113394Y33188D01*
X113444Y33226D01*
X113501Y33257D01*
X113555Y33283D01*
X113608Y33306D01*
X113654Y33322D01*
X113692Y33333D01*
X113707Y33337D01*
X113719D01*
X113723Y33341D01*
X113727D01*
X113807Y33356D01*
X113887Y33371D01*
X113967Y33379D01*
X114044Y33383D01*
X114112Y33387D01*
X114139Y33391D01*
X115159D01*
Y30610D01*
D02*
G37*
%LPC*%
G36*
X61296Y69946D02*
X61276D01*
X61255Y69926D01*
X61242Y69898D01*
X61228Y69871D01*
Y69864D01*
X61221Y69823D01*
X61215Y69782D01*
Y69755D01*
Y69741D01*
Y69687D01*
X61228Y69625D01*
X61235Y69577D01*
X61249Y69530D01*
X61262Y69496D01*
X61276Y69468D01*
X61283Y69448D01*
X61290Y69441D01*
X61351Y69345D01*
X61413Y69257D01*
X61440Y69222D01*
X61460Y69195D01*
X61474Y69181D01*
X61481Y69174D01*
X61570Y69079D01*
X61652Y69004D01*
X61686Y68970D01*
X61713Y68949D01*
X61734Y68936D01*
X61740Y68929D01*
X61843Y68847D01*
X61938Y68778D01*
X61973Y68751D01*
X62000Y68731D01*
X62020Y68717D01*
X62027Y68710D01*
X62007Y68813D01*
X61993Y68901D01*
X61973Y68990D01*
X61952Y69065D01*
X61932Y69120D01*
X61918Y69168D01*
X61904Y69202D01*
Y69209D01*
X61870Y69291D01*
X61843Y69366D01*
X61809Y69434D01*
X61781Y69496D01*
X61754Y69543D01*
X61734Y69577D01*
X61727Y69598D01*
X61720Y69605D01*
X61679Y69666D01*
X61638Y69714D01*
X61597Y69755D01*
X61563Y69796D01*
X61536Y69823D01*
X61515Y69844D01*
X61501Y69851D01*
X61494Y69858D01*
X61453Y69885D01*
X61413Y69912D01*
X61344Y69933D01*
X61317Y69940D01*
X61296Y69946D01*
D02*
G37*
G36*
X55416Y69646D02*
X55382D01*
X55368Y69639D01*
X55354Y69632D01*
X55341Y69625D01*
Y69618D01*
X55313Y69584D01*
X55307Y69571D01*
Y69564D01*
X55286Y69523D01*
X55279Y69502D01*
Y69496D01*
X55265Y69455D01*
Y69441D01*
Y69434D01*
Y69345D01*
X55279Y69263D01*
X55293Y69181D01*
X55307Y69113D01*
X55320Y69058D01*
X55334Y69017D01*
X55341Y68983D01*
X55348Y68976D01*
X55416Y68819D01*
X55443Y68751D01*
X55477Y68690D01*
X55505Y68635D01*
X55525Y68594D01*
X55539Y68567D01*
X55546Y68560D01*
X55621Y68444D01*
X55655Y68389D01*
X55696Y68341D01*
X55730Y68300D01*
X55751Y68266D01*
X55771Y68246D01*
X55778Y68239D01*
X55880Y68136D01*
X55928Y68089D01*
X55969Y68048D01*
X56010Y68013D01*
X56037Y67986D01*
X56058Y67972D01*
X56065Y67966D01*
X56167Y67884D01*
X56263Y67822D01*
X56297Y67795D01*
X56324Y67781D01*
X56345Y67774D01*
X56352Y67768D01*
X56454Y67727D01*
X56536Y67706D01*
X56563D01*
X56590Y67699D01*
X56638D01*
X56659Y67706D01*
X56673Y67713D01*
X56679D01*
X56707Y67747D01*
X56713Y67754D01*
Y67761D01*
X56727Y67802D01*
X56734Y67815D01*
Y67822D01*
Y67870D01*
Y67891D01*
Y67897D01*
X56727Y68013D01*
X56700Y68116D01*
X56693Y68164D01*
X56679Y68198D01*
X56673Y68225D01*
Y68232D01*
X56625Y68375D01*
X56597Y68437D01*
X56570Y68498D01*
X56550Y68546D01*
X56529Y68580D01*
X56522Y68608D01*
X56515Y68615D01*
X56440Y68751D01*
X56406Y68813D01*
X56372Y68867D01*
X56345Y68908D01*
X56324Y68942D01*
X56310Y68963D01*
X56304Y68970D01*
X56263Y69031D01*
X56222Y69086D01*
X56181Y69134D01*
X56153Y69168D01*
X56126Y69202D01*
X56106Y69222D01*
X56092Y69236D01*
X56085Y69243D01*
X56017Y69311D01*
X55955Y69366D01*
X55901Y69420D01*
X55846Y69461D01*
X55805Y69496D01*
X55771Y69516D01*
X55751Y69530D01*
X55744Y69537D01*
X55682Y69571D01*
X55621Y69598D01*
X55559Y69618D01*
X55498Y69632D01*
X55450Y69639D01*
X55416Y69646D01*
D02*
G37*
G36*
X48169D02*
X48135D01*
X48121Y69639D01*
X48108Y69632D01*
X48094Y69625D01*
Y69618D01*
X48067Y69584D01*
X48060Y69571D01*
Y69564D01*
X48039Y69523D01*
X48033Y69502D01*
Y69496D01*
X48019Y69455D01*
Y69441D01*
Y69434D01*
Y69345D01*
X48033Y69263D01*
X48046Y69181D01*
X48060Y69113D01*
X48074Y69058D01*
X48087Y69017D01*
X48094Y68983D01*
X48101Y68976D01*
X48169Y68819D01*
X48197Y68751D01*
X48231Y68690D01*
X48258Y68635D01*
X48278Y68594D01*
X48292Y68567D01*
X48299Y68560D01*
X48374Y68444D01*
X48408Y68389D01*
X48449Y68341D01*
X48483Y68300D01*
X48504Y68266D01*
X48524Y68246D01*
X48531Y68239D01*
X48634Y68136D01*
X48681Y68089D01*
X48722Y68048D01*
X48763Y68013D01*
X48791Y67986D01*
X48811Y67972D01*
X48818Y67966D01*
X48921Y67884D01*
X49016Y67822D01*
X49050Y67795D01*
X49078Y67781D01*
X49098Y67774D01*
X49105Y67768D01*
X49207Y67727D01*
X49289Y67706D01*
X49317D01*
X49344Y67699D01*
X49392D01*
X49412Y67706D01*
X49426Y67713D01*
X49433D01*
X49460Y67747D01*
X49467Y67754D01*
Y67761D01*
X49481Y67802D01*
X49487Y67815D01*
Y67822D01*
Y67870D01*
Y67891D01*
Y67897D01*
X49481Y68013D01*
X49453Y68116D01*
X49446Y68164D01*
X49433Y68198D01*
X49426Y68225D01*
Y68232D01*
X49378Y68375D01*
X49351Y68437D01*
X49323Y68498D01*
X49303Y68546D01*
X49283Y68580D01*
X49276Y68608D01*
X49269Y68615D01*
X49194Y68751D01*
X49160Y68813D01*
X49125Y68867D01*
X49098Y68908D01*
X49078Y68942D01*
X49064Y68963D01*
X49057Y68970D01*
X49016Y69031D01*
X48975Y69086D01*
X48934Y69134D01*
X48907Y69168D01*
X48880Y69202D01*
X48859Y69222D01*
X48845Y69236D01*
X48838Y69243D01*
X48770Y69311D01*
X48709Y69366D01*
X48654Y69420D01*
X48599Y69461D01*
X48559Y69496D01*
X48524Y69516D01*
X48504Y69530D01*
X48497Y69537D01*
X48436Y69571D01*
X48374Y69598D01*
X48313Y69618D01*
X48251Y69632D01*
X48203Y69639D01*
X48169Y69646D01*
D02*
G37*
G36*
X44167Y69816D02*
X44153D01*
X44126Y69810D01*
X44105Y69803D01*
X44085Y69796D01*
X44078Y69789D01*
X44051Y69769D01*
X44023Y69748D01*
X44010Y69735D01*
X44003Y69728D01*
X43962Y69673D01*
X43955Y69653D01*
X43948Y69646D01*
X43935Y69618D01*
X43921Y69591D01*
Y69577D01*
Y69571D01*
Y69550D01*
Y69530D01*
X43928Y69516D01*
Y69509D01*
Y69461D01*
X43935Y69441D01*
Y69434D01*
X43941Y69407D01*
Y69379D01*
X43948Y69359D01*
Y69352D01*
X43955Y69304D01*
Y69291D01*
Y69284D01*
X43948Y69236D01*
X43941Y69188D01*
X43935Y69154D01*
X43928Y69147D01*
Y69140D01*
X43900Y69093D01*
X43866Y69058D01*
X43839Y69038D01*
X43832Y69031D01*
X43846Y68997D01*
X43866Y68970D01*
X43873Y68949D01*
X43880Y68942D01*
X43900Y68908D01*
X43914Y68874D01*
X43928Y68853D01*
X43935Y68847D01*
X43955Y68819D01*
X43975Y68792D01*
X43989Y68772D01*
X43996Y68765D01*
X44017Y68737D01*
X44030Y68717D01*
X44037Y68703D01*
X44044Y68696D01*
X44098Y68635D01*
X44160Y68573D01*
X44180Y68546D01*
X44201Y68526D01*
X44215Y68512D01*
X44221Y68505D01*
X44310Y68410D01*
X44399Y68314D01*
X44433Y68273D01*
X44467Y68239D01*
X44488Y68218D01*
X44495Y68212D01*
X44556Y68150D01*
X44618Y68095D01*
X44645Y68075D01*
X44665Y68054D01*
X44679Y68048D01*
X44686Y68041D01*
X44768Y67979D01*
X44850Y67925D01*
X44884Y67897D01*
X44911Y67877D01*
X44925Y67870D01*
X44932Y67863D01*
X45020Y67809D01*
X45096Y67768D01*
X45123Y67754D01*
X45137Y67740D01*
X45150Y67733D01*
X45157D01*
X45219Y67713D01*
X45273Y67699D01*
X45301Y67692D01*
X45314D01*
X45335Y67699D01*
X45355Y67720D01*
X45369Y67747D01*
X45376Y67781D01*
Y67815D01*
X45382Y67843D01*
Y67863D01*
Y67870D01*
X45376Y67952D01*
X45355Y68041D01*
X45328Y68136D01*
X45301Y68218D01*
X45273Y68300D01*
X45246Y68362D01*
X45225Y68403D01*
X45219Y68410D01*
Y68416D01*
X45178Y68498D01*
X45143Y68580D01*
X45130Y68608D01*
X45116Y68635D01*
X45103Y68649D01*
Y68655D01*
X45041Y68758D01*
X44986Y68853D01*
X44966Y68888D01*
X44945Y68915D01*
X44939Y68936D01*
X44932Y68942D01*
X44863Y69045D01*
X44802Y69134D01*
X44775Y69174D01*
X44761Y69202D01*
X44747Y69222D01*
X44741Y69229D01*
X44658Y69339D01*
X44624Y69386D01*
X44590Y69434D01*
X44570Y69468D01*
X44549Y69495D01*
X44536Y69509D01*
X44529Y69516D01*
X44454Y69605D01*
X44385Y69673D01*
X44358Y69694D01*
X44337Y69714D01*
X44331Y69721D01*
X44324Y69728D01*
X44290Y69755D01*
X44256Y69782D01*
X44201Y69803D01*
X44167Y69816D01*
D02*
G37*
G36*
X73898Y69810D02*
X73891D01*
X73857Y69776D01*
X73843Y69769D01*
Y69762D01*
X73809Y69735D01*
X73802Y69728D01*
X73795D01*
X73802Y69721D01*
X73809Y69714D01*
X73823Y69680D01*
X73843Y69646D01*
X73850Y69639D01*
Y69632D01*
X73877Y69577D01*
X73898Y69537D01*
X73905Y69509D01*
X73911Y69496D01*
X73918Y69455D01*
X73925Y69414D01*
Y69386D01*
Y69379D01*
X73905Y69093D01*
X73911Y69079D01*
X73918Y69058D01*
X73925Y69045D01*
X73932Y69038D01*
X73966Y69004D01*
X73980Y68990D01*
X73987Y68983D01*
X74034Y68942D01*
X74082Y68915D01*
X74116Y68894D01*
X74123Y68888D01*
X74130D01*
X74178Y68860D01*
X74226Y68833D01*
X74253Y68819D01*
X74267Y68813D01*
X74308Y68792D01*
X74349Y68778D01*
X74376Y68772D01*
X74383Y68765D01*
X74417Y68758D01*
X74437Y68751D01*
X74458D01*
X74526Y68758D01*
X74574Y68765D01*
X74601Y68772D01*
X74615D01*
X74642Y68799D01*
X74656Y68833D01*
X74663Y68860D01*
Y68874D01*
X74656Y68908D01*
X74649Y68942D01*
X74622Y69017D01*
X74608Y69045D01*
X74601Y69072D01*
X74588Y69093D01*
Y69099D01*
X74547Y69168D01*
X74512Y69229D01*
X74485Y69270D01*
X74478Y69277D01*
Y69284D01*
X74437Y69352D01*
X74403Y69400D01*
X74383Y69434D01*
X74376Y69448D01*
X74335Y69496D01*
X74308Y69537D01*
X74287Y69564D01*
X74280Y69571D01*
X74253Y69598D01*
X74239Y69618D01*
X74226Y69632D01*
X74185Y69666D01*
X74144Y69694D01*
X74116Y69707D01*
X74110Y69714D01*
X74075Y69741D01*
X74048Y69755D01*
X74034Y69769D01*
X74028D01*
X73987Y69782D01*
X73973Y69789D01*
X73966D01*
X73918Y69803D01*
X73898Y69810D01*
D02*
G37*
G36*
X48423Y77411D02*
X48218D01*
X48128Y77395D01*
X48054Y77387D01*
X47989Y77370D01*
X47939Y77354D01*
X47907Y77346D01*
X47882Y77329D01*
X47874D01*
X47767Y77264D01*
X47685Y77206D01*
X47636Y77157D01*
X47620Y77141D01*
Y77133D01*
X47562Y77034D01*
X47529Y76936D01*
X47513Y76895D01*
Y76862D01*
X47505Y76837D01*
Y76829D01*
X47488Y76706D01*
X47480Y76657D01*
X47472Y76608D01*
Y76575D01*
Y76550D01*
Y76534D01*
Y76526D01*
X49350Y76378D01*
X49333Y76526D01*
X49325Y76591D01*
X49317Y76657D01*
X49309Y76714D01*
X49301Y76755D01*
X49292Y76780D01*
Y76788D01*
X49268Y76862D01*
X49243Y76936D01*
X49210Y76993D01*
X49186Y77042D01*
X49161Y77083D01*
X49137Y77108D01*
X49128Y77124D01*
X49120Y77133D01*
X49022Y77223D01*
X48923Y77288D01*
X48882Y77313D01*
X48850Y77329D01*
X48825Y77338D01*
X48817D01*
X48735Y77362D01*
X48653Y77379D01*
X48571Y77395D01*
X48489Y77403D01*
X48423Y77411D01*
D02*
G37*
G36*
X67136Y78543D02*
X66471D01*
X66365Y78535D01*
X66258Y78527D01*
X66168Y78510D01*
X66078Y78494D01*
X66004Y78477D01*
X65938Y78453D01*
X65881Y78436D01*
X65783Y78395D01*
X65717Y78363D01*
X65676Y78338D01*
X65668Y78330D01*
X65627Y78289D01*
X65586Y78231D01*
X65520Y78117D01*
X65479Y77994D01*
X65446Y77862D01*
X65430Y77739D01*
X65414Y77641D01*
Y77608D01*
Y77575D01*
Y77559D01*
Y77551D01*
Y77444D01*
X65422Y77346D01*
X65430Y77256D01*
X65446Y77190D01*
X65455Y77133D01*
X65471Y77083D01*
X65479Y77059D01*
Y77051D01*
X65504Y76985D01*
X65537Y76919D01*
X65561Y76862D01*
X65594Y76821D01*
X65627Y76788D01*
X65643Y76764D01*
X65660Y76747D01*
X65668Y76739D01*
X65717Y76698D01*
X65774Y76673D01*
X65889Y76624D01*
X65938Y76608D01*
X65979Y76591D01*
X66012Y76583D01*
X66020D01*
X66111Y76567D01*
X66201Y76559D01*
X66299Y76542D01*
X66389D01*
X66471Y76534D01*
X67136D01*
Y78543D01*
D02*
G37*
G36*
X61166Y77411D02*
X60953D01*
X60863Y77403D01*
X60772Y77387D01*
X60707Y77379D01*
X60649Y77362D01*
X60608Y77346D01*
X60584Y77338D01*
X60576D01*
X60502Y77313D01*
X60444Y77272D01*
X60387Y77239D01*
X60346Y77198D01*
X60313Y77165D01*
X60289Y77133D01*
X60272Y77116D01*
X60264Y77108D01*
X60223Y77042D01*
X60182Y76969D01*
X60133Y76821D01*
X60116Y76755D01*
X60100Y76706D01*
X60092Y76673D01*
Y76657D01*
X60075Y76542D01*
X60059Y76427D01*
X60051Y76304D01*
X60043Y76190D01*
X60034Y76091D01*
Y76017D01*
Y75985D01*
Y75960D01*
Y75952D01*
Y75944D01*
Y75788D01*
X60043Y75640D01*
X60051Y75517D01*
X60059Y75411D01*
X60075Y75329D01*
X60084Y75263D01*
X60092Y75230D01*
Y75214D01*
X60116Y75115D01*
X60141Y75025D01*
X60166Y74951D01*
X60190Y74886D01*
X60215Y74837D01*
X60239Y74804D01*
X60248Y74779D01*
X60256Y74771D01*
X60354Y74673D01*
X60453Y74599D01*
X60502Y74574D01*
X60535Y74558D01*
X60559Y74541D01*
X60567D01*
X60641Y74517D01*
X60723Y74500D01*
X60805Y74492D01*
X60887Y74484D01*
X60953Y74476D01*
X61166D01*
X61256Y74484D01*
X61338Y74500D01*
X61412Y74509D01*
X61469Y74525D01*
X61510Y74533D01*
X61535Y74541D01*
X61543D01*
X61666Y74607D01*
X61724Y74648D01*
X61765Y74681D01*
X61797Y74722D01*
X61822Y74746D01*
X61838Y74763D01*
X61847Y74771D01*
X61888Y74837D01*
X61920Y74910D01*
X61978Y75058D01*
X61994Y75115D01*
X62011Y75165D01*
X62019Y75206D01*
Y75214D01*
X62035Y75329D01*
X62043Y75443D01*
X62060Y75566D01*
Y75681D01*
X62068Y75788D01*
Y75870D01*
Y75903D01*
Y75927D01*
Y75935D01*
Y75944D01*
Y76099D01*
X62060Y76239D01*
X62052Y76362D01*
X62043Y76460D01*
X62035Y76542D01*
X62027Y76608D01*
X62019Y76641D01*
Y76657D01*
X61994Y76755D01*
X61970Y76846D01*
X61945Y76928D01*
X61912Y76993D01*
X61888Y77042D01*
X61871Y77075D01*
X61863Y77100D01*
X61855Y77108D01*
X61806Y77165D01*
X61756Y77215D01*
X61707Y77256D01*
X61658Y77288D01*
X61617Y77305D01*
X61584Y77321D01*
X61560Y77338D01*
X61551D01*
X61469Y77362D01*
X61387Y77379D01*
X61305Y77395D01*
X61232Y77403D01*
X61166Y77411D01*
D02*
G37*
G36*
X155739Y24442D02*
X154727D01*
X155739D01*
D01*
D02*
G37*
G36*
X159173Y25131D02*
X157840D01*
X157800Y25126D01*
X157756D01*
X157707Y25121D01*
X157594Y25116D01*
X157475Y25101D01*
X157352Y25087D01*
X157229Y25062D01*
X157225D01*
X157215Y25057D01*
X157200Y25052D01*
X157175Y25047D01*
X157146Y25042D01*
X157116Y25028D01*
X157038Y25003D01*
X156949Y24969D01*
X156856Y24919D01*
X156762Y24865D01*
X156674Y24796D01*
X156669D01*
X156664Y24787D01*
X156634Y24762D01*
X156595Y24718D01*
X156541Y24654D01*
X156487Y24575D01*
X156428Y24482D01*
X156369Y24373D01*
X156319Y24245D01*
Y24240D01*
X156314Y24231D01*
X156309Y24211D01*
X156300Y24181D01*
X156290Y24147D01*
X156280Y24108D01*
X156270Y24058D01*
X156255Y23999D01*
X156246Y23940D01*
X156236Y23871D01*
X156226Y23798D01*
X156216Y23714D01*
X156206Y23630D01*
X156201Y23537D01*
X156196Y23443D01*
Y23537D01*
Y23252D01*
X156201Y23207D01*
Y23158D01*
X156206Y23099D01*
X156211Y23035D01*
X156226Y22897D01*
X156250Y22755D01*
X156280Y22612D01*
X156319Y22474D01*
Y22469D01*
X156324Y22459D01*
X156334Y22440D01*
X156344Y22415D01*
X156354Y22390D01*
X156369Y22356D01*
X156408Y22277D01*
X156462Y22189D01*
X156521Y22095D01*
X156590Y22007D01*
X156674Y21923D01*
X156678D01*
X156683Y21913D01*
X156698Y21903D01*
X156713Y21889D01*
X156762Y21854D01*
X156831Y21810D01*
X156910Y21761D01*
X157003Y21712D01*
X157111Y21667D01*
X157229Y21633D01*
X157234D01*
X157244Y21628D01*
X157259Y21623D01*
X157284Y21618D01*
X157313Y21613D01*
X157352Y21608D01*
X157392Y21598D01*
X157436Y21594D01*
X157544Y21574D01*
X157667Y21564D01*
X157800Y21554D01*
X157943Y21549D01*
X159173D01*
Y25131D01*
D02*
G37*
G36*
X169500D02*
X167286D01*
X168713D01*
Y22228D01*
X167286D01*
Y22238D01*
Y22228D01*
Y21549D01*
X169500D01*
Y25131D01*
D02*
G37*
G36*
X154701Y24442D02*
X153048D01*
X154086D01*
Y23409D01*
X153048D01*
Y21756D01*
Y22794D01*
X154086D01*
Y21756D01*
X154701D01*
Y22794D01*
X155739D01*
Y23443D01*
Y23409D01*
X154701D01*
Y24442D01*
D02*
G37*
G36*
X163296Y25131D02*
X159576D01*
X160905D01*
X159576Y21549D01*
X160408D01*
X160713Y22435D01*
X162169D01*
X162479Y21549D01*
X162146D01*
X163296D01*
X161958Y25131D01*
X163296D01*
D02*
G37*
G36*
X166873Y25185D02*
X163616D01*
X165146D01*
X165102Y25180D01*
X165057D01*
X165008Y25175D01*
X164900Y25165D01*
X164782Y25151D01*
X164664Y25131D01*
X164546Y25101D01*
X164541D01*
X164531Y25096D01*
X164516Y25092D01*
X164496Y25087D01*
X164437Y25062D01*
X164368Y25033D01*
X164285Y24993D01*
X164201Y24944D01*
X164113Y24880D01*
X164034Y24806D01*
X164024Y24796D01*
X163999Y24767D01*
X163965Y24723D01*
X163916Y24659D01*
X163867Y24575D01*
X163817Y24482D01*
X163768Y24368D01*
X163724Y24240D01*
Y24236D01*
X163719Y24226D01*
X163714Y24206D01*
X163709Y24177D01*
X163699Y24142D01*
X163689Y24098D01*
X163680Y24049D01*
X163670Y23994D01*
X163660Y23935D01*
X163650Y23866D01*
X163640Y23793D01*
X163630Y23709D01*
X163626Y23625D01*
X163621Y23537D01*
X163616Y23438D01*
Y23252D01*
X163621Y23202D01*
Y23148D01*
X163626Y23089D01*
X163630Y23020D01*
X163640Y22878D01*
X163660Y22730D01*
X163689Y22578D01*
X163724Y22435D01*
Y22430D01*
X163729Y22420D01*
X163734Y22400D01*
X163744Y22376D01*
X163753Y22346D01*
X163768Y22312D01*
X163803Y22233D01*
X163847Y22140D01*
X163896Y22046D01*
X163960Y21953D01*
X164034Y21869D01*
X164044Y21859D01*
X164068Y21835D01*
X164118Y21800D01*
X164177Y21756D01*
X164250Y21707D01*
X164339Y21657D01*
X164437Y21613D01*
X164546Y21579D01*
X164550D01*
X164560Y21574D01*
X164575D01*
X164600Y21569D01*
X164629Y21559D01*
X164664Y21554D01*
X164703Y21549D01*
X164747Y21539D01*
X164851Y21525D01*
X164969Y21515D01*
X165102Y21505D01*
X165244Y21500D01*
X165308D01*
X165343Y21505D01*
X165426D01*
X165475Y21510D01*
X165584Y21520D01*
X165702Y21534D01*
X165820Y21554D01*
X165938Y21579D01*
X165943D01*
X165953Y21584D01*
X165967Y21589D01*
X165987Y21594D01*
X166041Y21618D01*
X166115Y21648D01*
X166194Y21687D01*
X166277Y21736D01*
X166361Y21795D01*
X166445Y21869D01*
Y21874D01*
X166455Y21879D01*
X166479Y21908D01*
X166514Y21953D01*
X166563Y22021D01*
X166612Y22100D01*
X166666Y22199D01*
X166720Y22307D01*
X166764Y22435D01*
Y22440D01*
X166769Y22450D01*
X166774Y22469D01*
X166779Y22499D01*
X166789Y22533D01*
X166799Y22578D01*
X166809Y22627D01*
X166819Y22681D01*
X166828Y22745D01*
X166838Y22814D01*
X166848Y22887D01*
X166858Y22966D01*
X166863Y23055D01*
X166868Y23143D01*
X166873Y23340D01*
Y23434D01*
X166868Y23478D01*
Y23532D01*
X166863Y23591D01*
X166858Y23660D01*
X166848Y23798D01*
X166828Y23950D01*
X166799Y24098D01*
X166764Y24240D01*
Y24245D01*
X166760Y24255D01*
X166755Y24275D01*
X166745Y24299D01*
X166730Y24329D01*
X166715Y24363D01*
X166681Y24447D01*
X166637Y24536D01*
X166582Y24629D01*
X166518Y24723D01*
X166445Y24806D01*
X166440Y24811D01*
X166435Y24816D01*
X166405Y24841D01*
X166361Y24880D01*
X166302Y24924D01*
X166228Y24973D01*
X166145Y25018D01*
X166046Y25067D01*
X165938Y25101D01*
X165933D01*
X165923Y25106D01*
X165908Y25111D01*
X165884Y25116D01*
X165854Y25121D01*
X165820Y25126D01*
X165780Y25136D01*
X165736Y25146D01*
X165633Y25161D01*
X165515Y25170D01*
X165387Y25180D01*
X165244Y25185D01*
X166873D01*
D02*
G37*
%LPD*%
G36*
X158386Y22218D02*
X157943D01*
X157894Y22223D01*
X157835D01*
X157771Y22228D01*
X157697Y22238D01*
X157623Y22253D01*
X157554Y22267D01*
X157544Y22272D01*
X157525Y22277D01*
X157490Y22292D01*
X157446Y22312D01*
X157397Y22336D01*
X157348Y22366D01*
X157298Y22405D01*
X157249Y22450D01*
X157244Y22455D01*
X157229Y22474D01*
X157205Y22504D01*
X157180Y22543D01*
X157151Y22592D01*
X157121Y22651D01*
X157092Y22720D01*
X157067Y22799D01*
Y22804D01*
X157062Y22809D01*
X157057Y22838D01*
X157047Y22883D01*
X157038Y22946D01*
X157028Y23025D01*
X157018Y23119D01*
X157008Y23222D01*
Y23340D01*
Y23345D01*
Y23355D01*
Y23374D01*
Y23399D01*
Y23429D01*
X157013Y23463D01*
X157018Y23542D01*
X157023Y23630D01*
X157033Y23724D01*
X157052Y23817D01*
X157072Y23901D01*
Y23906D01*
X157077Y23911D01*
X157082Y23935D01*
X157097Y23980D01*
X157116Y24029D01*
X157141Y24083D01*
X157175Y24142D01*
X157210Y24201D01*
X157254Y24250D01*
X157259Y24255D01*
X157274Y24270D01*
X157303Y24295D01*
X157338Y24319D01*
X157382Y24349D01*
X157431Y24378D01*
X157490Y24403D01*
X157559Y24422D01*
X157569D01*
X157594Y24432D01*
X157628Y24437D01*
X157682Y24447D01*
X157741Y24457D01*
X157815Y24462D01*
X157894Y24472D01*
X158386D01*
Y22218D01*
D02*
G37*
G36*
X161943Y23084D02*
X160944D01*
X161407Y24447D01*
X161471D01*
X161943Y23084D01*
D02*
G37*
G36*
X165328Y24541D02*
X165387Y24536D01*
X165451Y24531D01*
X165520Y24516D01*
X165584Y24501D01*
X165648Y24477D01*
X165653Y24472D01*
X165672Y24467D01*
X165702Y24447D01*
X165736Y24427D01*
X165776Y24398D01*
X165815Y24359D01*
X165854Y24314D01*
X165889Y24265D01*
X165894Y24260D01*
X165903Y24240D01*
X165918Y24206D01*
X165938Y24167D01*
X165958Y24113D01*
X165977Y24049D01*
X165997Y23975D01*
X166012Y23891D01*
Y23886D01*
Y23881D01*
X166017Y23866D01*
Y23852D01*
X166022Y23803D01*
X166026Y23739D01*
X166036Y23655D01*
X166041Y23562D01*
X166046Y23458D01*
Y23340D01*
Y23335D01*
Y23325D01*
Y23311D01*
Y23286D01*
Y23256D01*
Y23222D01*
X166041Y23148D01*
X166036Y23060D01*
X166031Y22966D01*
X166022Y22868D01*
X166012Y22779D01*
Y22769D01*
X166007Y22740D01*
X165997Y22701D01*
X165982Y22651D01*
X165967Y22592D01*
X165943Y22528D01*
X165918Y22469D01*
X165889Y22415D01*
X165884Y22410D01*
X165874Y22390D01*
X165854Y22366D01*
X165825Y22336D01*
X165790Y22307D01*
X165751Y22272D01*
X165702Y22243D01*
X165648Y22213D01*
X165638Y22208D01*
X165618Y22204D01*
X165584Y22194D01*
X165539Y22184D01*
X165480Y22169D01*
X165411Y22159D01*
X165333Y22154D01*
X165244Y22149D01*
X165200D01*
X165156Y22154D01*
X165097Y22159D01*
X165033Y22164D01*
X164964Y22179D01*
X164900Y22194D01*
X164836Y22213D01*
X164831Y22218D01*
X164811Y22228D01*
X164782Y22243D01*
X164747Y22263D01*
X164708Y22292D01*
X164669Y22327D01*
X164629Y22366D01*
X164595Y22415D01*
X164590Y22420D01*
X164580Y22440D01*
X164565Y22469D01*
X164546Y22513D01*
X164526Y22563D01*
X164506Y22627D01*
X164487Y22701D01*
X164472Y22779D01*
Y22784D01*
Y22789D01*
X164467Y22804D01*
Y22819D01*
X164462Y22868D01*
X164452Y22937D01*
X164447Y23020D01*
X164442Y23114D01*
X164437Y23222D01*
Y23340D01*
Y23345D01*
Y23355D01*
Y23370D01*
Y23394D01*
Y23424D01*
Y23453D01*
X164442Y23532D01*
X164447Y23616D01*
X164452Y23709D01*
X164462Y23803D01*
X164472Y23891D01*
Y23896D01*
Y23901D01*
X164477Y23931D01*
X164487Y23970D01*
X164501Y24024D01*
X164516Y24083D01*
X164536Y24147D01*
X164565Y24206D01*
X164595Y24265D01*
X164600Y24270D01*
X164610Y24290D01*
X164629Y24314D01*
X164654Y24349D01*
X164688Y24383D01*
X164733Y24418D01*
X164782Y24447D01*
X164836Y24477D01*
X164841Y24482D01*
X164865Y24486D01*
X164900Y24496D01*
X164944Y24511D01*
X165003Y24526D01*
X165072Y24536D01*
X165156Y24541D01*
X165244Y24545D01*
X165284D01*
X165328Y24541D01*
D02*
G37*
%LPC*%
G36*
X133547Y23434D02*
X131963D01*
Y22833D01*
X133547D01*
Y23434D01*
D02*
G37*
G36*
X147500Y25131D02*
X145286D01*
X146713D01*
Y22228D01*
X145286D01*
Y22233D01*
Y21549D01*
X147500D01*
Y25131D01*
D02*
G37*
G36*
X141296D02*
X137576D01*
X138905D01*
X137576Y21549D01*
X138408D01*
X138713Y22435D01*
X140169D01*
X140479Y21549D01*
X140147D01*
X141296D01*
X139958Y25131D01*
X141296D01*
D02*
G37*
G36*
X137173D02*
X135840D01*
X135800Y25126D01*
X135756D01*
X135707Y25121D01*
X135594Y25116D01*
X135476Y25101D01*
X135353Y25087D01*
X135230Y25062D01*
X135225D01*
X135215Y25057D01*
X135200Y25052D01*
X135175Y25047D01*
X135146Y25042D01*
X135116Y25028D01*
X135038Y25003D01*
X134949Y24969D01*
X134856Y24919D01*
X134762Y24865D01*
X134674Y24796D01*
X134669D01*
X134664Y24787D01*
X134634Y24762D01*
X134595Y24718D01*
X134541Y24654D01*
X134487Y24575D01*
X134428Y24482D01*
X134369Y24373D01*
X134319Y24245D01*
Y24240D01*
X134314Y24231D01*
X134309Y24211D01*
X134300Y24181D01*
X134290Y24147D01*
X134280Y24108D01*
X134270Y24058D01*
X134255Y23999D01*
X134246Y23940D01*
X134236Y23871D01*
X134226Y23798D01*
X134216Y23714D01*
X134206Y23630D01*
X134201Y23537D01*
X134196Y23443D01*
Y23252D01*
X134201Y23207D01*
Y23158D01*
X134206Y23099D01*
X134211Y23035D01*
X134226Y22897D01*
X134250Y22755D01*
X134280Y22612D01*
X134319Y22474D01*
Y22469D01*
X134324Y22459D01*
X134334Y22440D01*
X134344Y22415D01*
X134354Y22390D01*
X134369Y22356D01*
X134408Y22277D01*
X134462Y22189D01*
X134521Y22095D01*
X134590Y22007D01*
X134674Y21923D01*
X134678D01*
X134683Y21913D01*
X134698Y21903D01*
X134713Y21889D01*
X134762Y21854D01*
X134831Y21810D01*
X134910Y21761D01*
X135003Y21712D01*
X135111Y21667D01*
X135230Y21633D01*
X135234D01*
X135244Y21628D01*
X135259Y21623D01*
X135284Y21618D01*
X135313Y21613D01*
X135353Y21608D01*
X135392Y21598D01*
X135436Y21594D01*
X135544Y21574D01*
X135667Y21564D01*
X135800Y21554D01*
X135943Y21549D01*
X137173D01*
Y25131D01*
D02*
G37*
G36*
X143244Y25185D02*
X143146D01*
X143102Y25180D01*
X143057D01*
X143008Y25175D01*
X142900Y25165D01*
X142782Y25151D01*
X142664Y25131D01*
X142546Y25101D01*
X142541D01*
X142531Y25096D01*
X142516Y25092D01*
X142496Y25087D01*
X142437Y25062D01*
X142368Y25033D01*
X142285Y24993D01*
X142201Y24944D01*
X142113Y24880D01*
X142034Y24806D01*
X142024Y24796D01*
X141999Y24767D01*
X141965Y24723D01*
X141916Y24659D01*
X141867Y24575D01*
X141817Y24482D01*
X141768Y24368D01*
X141724Y24240D01*
Y24236D01*
X141719Y24226D01*
X141714Y24206D01*
X141709Y24177D01*
X141699Y24142D01*
X141690Y24098D01*
X141680Y24049D01*
X141670Y23994D01*
X141660Y23935D01*
X141650Y23866D01*
X141640Y23793D01*
X141630Y23709D01*
X141625Y23625D01*
X141621Y23537D01*
X141616Y23438D01*
Y23252D01*
X141621Y23202D01*
Y23148D01*
X141625Y23089D01*
X141630Y23020D01*
X141640Y22878D01*
X141660Y22730D01*
X141690Y22578D01*
X141724Y22435D01*
Y22430D01*
X141729Y22420D01*
X141734Y22400D01*
X141744Y22376D01*
X141753Y22346D01*
X141768Y22312D01*
X141803Y22233D01*
X141847Y22140D01*
X141896Y22046D01*
X141960Y21953D01*
X142034Y21869D01*
X142044Y21859D01*
X142068Y21835D01*
X142118Y21800D01*
X142177Y21756D01*
X142250Y21707D01*
X142339Y21657D01*
X142437Y21613D01*
X142546Y21579D01*
X142551D01*
X142560Y21574D01*
X142575D01*
X142600Y21569D01*
X142629Y21559D01*
X142664Y21554D01*
X142703Y21549D01*
X142747Y21539D01*
X142851Y21525D01*
X142969Y21515D01*
X143102Y21505D01*
X143244Y21500D01*
X141616D01*
D01*
X144873D01*
Y23434D01*
X144868Y23478D01*
Y23532D01*
X144863Y23591D01*
X144858Y23660D01*
X144848Y23798D01*
X144828Y23950D01*
X144799Y24098D01*
X144764Y24240D01*
Y24245D01*
X144760Y24255D01*
X144755Y24275D01*
X144745Y24299D01*
X144730Y24329D01*
X144715Y24363D01*
X144681Y24447D01*
X144637Y24536D01*
X144582Y24629D01*
X144518Y24723D01*
X144445Y24806D01*
X144440Y24811D01*
X144435Y24816D01*
X144405Y24841D01*
X144361Y24880D01*
X144302Y24924D01*
X144228Y24973D01*
X144145Y25018D01*
X144046Y25067D01*
X143938Y25101D01*
X143933D01*
X143923Y25106D01*
X143908Y25111D01*
X143884Y25116D01*
X143854Y25121D01*
X143820Y25126D01*
X143781Y25136D01*
X143736Y25146D01*
X143633Y25161D01*
X143515Y25170D01*
X143387Y25180D01*
X143244Y25185D01*
D02*
G37*
%LPD*%
G36*
X139943Y23084D02*
X138944D01*
X139407Y24447D01*
X139471D01*
X139943Y23084D01*
D02*
G37*
G36*
X136386Y22218D02*
X135943D01*
X135894Y22223D01*
X135835D01*
X135771Y22228D01*
X135697Y22238D01*
X135623Y22253D01*
X135554Y22267D01*
X135544Y22272D01*
X135525Y22277D01*
X135490Y22292D01*
X135446Y22312D01*
X135397Y22336D01*
X135348Y22366D01*
X135298Y22405D01*
X135249Y22450D01*
X135244Y22455D01*
X135230Y22474D01*
X135205Y22504D01*
X135180Y22543D01*
X135151Y22592D01*
X135121Y22651D01*
X135092Y22720D01*
X135067Y22799D01*
Y22804D01*
X135062Y22809D01*
X135057Y22838D01*
X135047Y22883D01*
X135038Y22946D01*
X135028Y23025D01*
X135018Y23119D01*
X135008Y23222D01*
Y23340D01*
Y23345D01*
Y23355D01*
Y23374D01*
Y23399D01*
Y23429D01*
X135013Y23463D01*
X135018Y23542D01*
X135023Y23630D01*
X135033Y23724D01*
X135052Y23817D01*
X135072Y23901D01*
Y23906D01*
X135077Y23911D01*
X135082Y23935D01*
X135097Y23980D01*
X135116Y24029D01*
X135141Y24083D01*
X135175Y24142D01*
X135210Y24201D01*
X135254Y24250D01*
X135259Y24255D01*
X135274Y24270D01*
X135303Y24295D01*
X135338Y24319D01*
X135382Y24349D01*
X135431Y24378D01*
X135490Y24403D01*
X135559Y24422D01*
X135569D01*
X135594Y24432D01*
X135628Y24437D01*
X135682Y24447D01*
X135741Y24457D01*
X135815Y24462D01*
X135894Y24472D01*
X136386D01*
Y22218D01*
D02*
G37*
G36*
X143328Y24541D02*
X143387Y24536D01*
X143451Y24531D01*
X143520Y24516D01*
X143584Y24501D01*
X143648Y24477D01*
X143653Y24472D01*
X143672Y24467D01*
X143702Y24447D01*
X143736Y24427D01*
X143776Y24398D01*
X143815Y24359D01*
X143854Y24314D01*
X143889Y24265D01*
X143894Y24260D01*
X143904Y24240D01*
X143918Y24206D01*
X143938Y24167D01*
X143958Y24113D01*
X143977Y24049D01*
X143997Y23975D01*
X144012Y23891D01*
Y23886D01*
Y23881D01*
X144017Y23866D01*
Y23852D01*
X144022Y23803D01*
X144027Y23739D01*
X144036Y23655D01*
X144041Y23562D01*
X144046Y23458D01*
Y23340D01*
Y23335D01*
Y23325D01*
Y23311D01*
Y23286D01*
Y23256D01*
Y23222D01*
X144041Y23148D01*
X144036Y23060D01*
X144031Y22966D01*
X144022Y22868D01*
X144012Y22779D01*
Y22769D01*
X144007Y22740D01*
X143997Y22701D01*
X143982Y22651D01*
X143967Y22592D01*
X143943Y22528D01*
X143918Y22469D01*
X143889Y22415D01*
X143884Y22410D01*
X143874Y22390D01*
X143854Y22366D01*
X143825Y22336D01*
X143790Y22307D01*
X143751Y22272D01*
X143702Y22243D01*
X143648Y22213D01*
X143638Y22208D01*
X143618Y22204D01*
X143584Y22194D01*
X143539Y22184D01*
X143480Y22169D01*
X143412Y22159D01*
X143333Y22154D01*
X143244Y22149D01*
X143200D01*
X143156Y22154D01*
X143097Y22159D01*
X143033Y22164D01*
X142964Y22179D01*
X142900Y22194D01*
X142836Y22213D01*
X142831Y22218D01*
X142811Y22228D01*
X142782Y22243D01*
X142747Y22263D01*
X142708Y22292D01*
X142669Y22327D01*
X142629Y22366D01*
X142595Y22415D01*
X142590Y22420D01*
X142580Y22440D01*
X142565Y22469D01*
X142546Y22513D01*
X142526Y22563D01*
X142506Y22627D01*
X142487Y22701D01*
X142472Y22779D01*
Y22784D01*
Y22789D01*
X142467Y22804D01*
Y22819D01*
X142462Y22868D01*
X142452Y22937D01*
X142447Y23020D01*
X142442Y23114D01*
X142437Y23222D01*
Y23340D01*
Y23345D01*
Y23355D01*
Y23370D01*
Y23394D01*
Y23424D01*
Y23453D01*
X142442Y23532D01*
X142447Y23616D01*
X142452Y23709D01*
X142462Y23803D01*
X142472Y23891D01*
Y23896D01*
Y23901D01*
X142477Y23931D01*
X142487Y23970D01*
X142501Y24024D01*
X142516Y24083D01*
X142536Y24147D01*
X142565Y24206D01*
X142595Y24265D01*
X142600Y24270D01*
X142610Y24290D01*
X142629Y24314D01*
X142654Y24349D01*
X142688Y24383D01*
X142733Y24418D01*
X142782Y24447D01*
X142836Y24477D01*
X142841Y24482D01*
X142865Y24486D01*
X142900Y24496D01*
X142944Y24511D01*
X143003Y24526D01*
X143072Y24536D01*
X143156Y24541D01*
X143244Y24545D01*
X143284D01*
X143328Y24541D01*
D02*
G37*
G36*
X144873Y21500D02*
X143308D01*
X143343Y21505D01*
X143426D01*
X143475Y21510D01*
X143584Y21520D01*
X143702Y21534D01*
X143820Y21554D01*
X143938Y21579D01*
X143943D01*
X143953Y21584D01*
X143967Y21589D01*
X143987Y21594D01*
X144041Y21618D01*
X144115Y21648D01*
X144194Y21687D01*
X144277Y21736D01*
X144361Y21795D01*
X144445Y21869D01*
Y21874D01*
X144455Y21879D01*
X144479Y21908D01*
X144514Y21953D01*
X144563Y22021D01*
X144612Y22100D01*
X144666Y22199D01*
X144720Y22307D01*
X144764Y22435D01*
Y22440D01*
X144769Y22450D01*
X144774Y22469D01*
X144779Y22499D01*
X144789Y22533D01*
X144799Y22578D01*
X144809Y22627D01*
X144819Y22681D01*
X144828Y22745D01*
X144838Y22814D01*
X144848Y22887D01*
X144858Y22966D01*
X144863Y23055D01*
X144868Y23143D01*
X144873Y23340D01*
Y21500D01*
D02*
G37*
%LPC*%
G36*
X114548Y32909D02*
X114250D01*
X114197Y32905D01*
X114155D01*
X114116Y32901D01*
X114086Y32898D01*
X114063D01*
X114048Y32894D01*
X114044D01*
X114005Y32886D01*
X113971Y32879D01*
X113941Y32867D01*
X113914Y32860D01*
X113895Y32848D01*
X113879Y32840D01*
X113872Y32837D01*
X113868Y32833D01*
X113826Y32795D01*
X113795Y32756D01*
X113784Y32737D01*
X113776Y32722D01*
X113772Y32714D01*
Y32710D01*
X113761Y32680D01*
X113753Y32646D01*
X113746Y32581D01*
X113742Y32554D01*
Y32531D01*
Y32512D01*
Y32508D01*
Y32462D01*
X113746Y32420D01*
X113750Y32382D01*
X113757Y32351D01*
X113761Y32325D01*
X113769Y32306D01*
X113772Y32294D01*
Y32290D01*
X113799Y32233D01*
X113814Y32210D01*
X113830Y32191D01*
X113845Y32176D01*
X113856Y32164D01*
X113864Y32160D01*
X113868Y32157D01*
X113895Y32141D01*
X113921Y32126D01*
X113979Y32107D01*
X114005Y32099D01*
X114025Y32096D01*
X114040Y32092D01*
X114044D01*
X114086Y32088D01*
X114128Y32084D01*
X114174Y32080D01*
X114212D01*
X114250Y32076D01*
X114548D01*
Y32909D01*
D02*
G37*
%LPD*%
D15*
X96157Y20600D02*
Y29400D01*
X115646Y20600D02*
Y29400D01*
X96157Y20600D02*
X115646D01*
X96157Y29400D02*
X115646D01*
D144*
X84639Y68397D02*
X86528D01*
X84605Y68431D02*
X86460D01*
X84571Y68465D02*
X86427D01*
X84538Y68498D02*
X86427D01*
X84504Y68532D02*
X86393D01*
X84504Y68566D02*
X86325D01*
X84470Y68600D02*
X86325D01*
X84437Y68633D02*
X86292D01*
X84403Y68667D02*
X86258D01*
X84369Y68701D02*
X86224D01*
X84336Y68735D02*
X86190D01*
X84302Y68768D02*
X86157D01*
X84268Y68802D02*
X86123D01*
X84234Y68836D02*
X86089D01*
X84201Y68870D02*
X86056D01*
X84167Y68903D02*
X86022D01*
X84133Y68937D02*
X86022D01*
X84133Y68971D02*
X85988D01*
X84066Y69004D02*
X85954D01*
X84066Y69038D02*
X85921D01*
X83998Y69072D02*
X85887D01*
X83998Y69106D02*
X85853D01*
X83964Y69139D02*
X85820D01*
X83931Y69173D02*
X85786D01*
X85921Y67014D02*
X88450D01*
X85752Y67183D02*
X88619D01*
X85617Y67352D02*
X88754D01*
X85583Y67419D02*
X88788D01*
X85516Y67453D02*
X88855D01*
X85482Y67487D02*
X88855D01*
X85482Y67520D02*
X88889D01*
X85448Y67554D02*
X88889D01*
X85381Y67588D02*
X88956D01*
X85347Y67622D02*
X88990D01*
X85347Y67655D02*
X88990D01*
X85314Y67689D02*
X89024D01*
X85280Y67723D02*
X87135D01*
X85246Y67756D02*
X87101D01*
X85212Y67790D02*
X87101D01*
X85212Y67824D02*
X87068D01*
X85145Y67858D02*
X87000D01*
X85111Y67891D02*
X86966D01*
X85078Y67925D02*
X86966D01*
X85078Y67959D02*
X86933D01*
X85010Y67993D02*
X86899D01*
X84976Y68026D02*
X86831D01*
X84943Y68060D02*
X86831D01*
X84943Y68094D02*
X86798D01*
X84909Y68128D02*
X86764D01*
X84841Y68161D02*
X86730D01*
X84841Y68195D02*
X86696D01*
X84808Y68229D02*
X86663D01*
X84774Y68262D02*
X86629D01*
X84740Y68296D02*
X86595D01*
X84706Y68330D02*
X86562D01*
X84673Y68364D02*
X86562D01*
X82885Y70286D02*
X84740D01*
X82851Y70320D02*
X84706D01*
X82818Y70354D02*
X84673D01*
X82784Y70387D02*
X84673D01*
X82750Y70421D02*
X84639D01*
X82717Y70455D02*
X84571D01*
X82683Y70489D02*
X84538D01*
X82649Y70522D02*
X84538D01*
X82649Y70556D02*
X84504D01*
X82615Y70590D02*
X84437D01*
X82582Y70623D02*
X84403D01*
X82548Y70657D02*
X84403D01*
X82514Y70691D02*
X84369D01*
X82480Y70725D02*
X84336D01*
X82447Y70758D02*
X84302D01*
X82413Y70792D02*
X84268D01*
X82379Y70826D02*
X84234D01*
X82345Y70859D02*
X84201D01*
X82312Y70893D02*
X84167D01*
X82312Y70927D02*
X84133D01*
X82244Y70961D02*
X84133D01*
X82244Y70994D02*
X84066D01*
X82210Y71028D02*
X84032D01*
X82177Y71062D02*
X83998D01*
X82109Y71096D02*
X83998D01*
X82109Y71129D02*
X83964D01*
X82076Y71163D02*
X83931D01*
X82042Y71197D02*
X83897D01*
X82008Y71231D02*
X83863D01*
X81975Y71264D02*
X83829D01*
X81941Y71298D02*
X83796D01*
X81907Y71332D02*
X83762D01*
X83863Y69207D02*
X85752D01*
X83863Y69240D02*
X85718D01*
X83829Y69274D02*
X85685D01*
X83796Y69308D02*
X85651D01*
X83762Y69342D02*
X85617D01*
X83728Y69375D02*
X85583D01*
X83728Y69409D02*
X85550D01*
X83695Y69443D02*
X85516D01*
X83627Y69477D02*
X85482D01*
X83593Y69510D02*
X85482D01*
X83593Y69544D02*
X85448D01*
X83560Y69578D02*
X85415D01*
X83492Y69612D02*
X85381D01*
X83459Y69645D02*
X85347D01*
X83459Y69679D02*
X85314D01*
X83425Y69713D02*
X85280D01*
X83391Y69747D02*
X85246D01*
X83357Y69780D02*
X85212D01*
X83324Y69814D02*
X85179D01*
X83324Y69848D02*
X85145D01*
X83256Y69881D02*
X85111D01*
X83222Y69915D02*
X85078D01*
X83189Y69949D02*
X85078D01*
X83189Y69983D02*
X85044D01*
X83121Y70016D02*
X85010D01*
X83087Y70050D02*
X84943D01*
X83054Y70084D02*
X84943D01*
X83054Y70117D02*
X84909D01*
X83020Y70151D02*
X84875D01*
X82986Y70185D02*
X84808D01*
X82953Y70219D02*
X84808D01*
X82919Y70252D02*
X84774D01*
X86292Y66643D02*
X88181D01*
X86258Y66677D02*
X88181D01*
X86224Y66711D02*
X88214D01*
X86190Y66745D02*
X88214D01*
X86157Y66778D02*
X88282D01*
X86123Y66812D02*
X88315D01*
X86089Y66846D02*
X88315D01*
X86056Y66879D02*
X88349D01*
X86022Y66913D02*
X88383D01*
X86022Y66947D02*
X88417D01*
X85954Y66981D02*
X88450D01*
X85887Y67048D02*
X88518D01*
X85887Y67082D02*
X88518D01*
X85853Y67116D02*
X88551D01*
X85820Y67149D02*
X88585D01*
X85752Y67217D02*
X88653D01*
X85718Y67251D02*
X88653D01*
X85685Y67284D02*
X88687D01*
X85651Y67318D02*
X88720D01*
X85617Y67386D02*
X88788D01*
X87202Y67723D02*
X89057D01*
X87236Y67756D02*
X89091D01*
X87236Y67790D02*
X89125D01*
X87270Y67824D02*
X89125D01*
X87304Y67858D02*
X89159D01*
X87337Y67891D02*
X89192D01*
X87371Y67925D02*
X89226D01*
X87371Y67959D02*
X89260D01*
X87405Y67993D02*
X89294D01*
X87472Y68026D02*
X89294D01*
X87472Y68060D02*
X89327D01*
X87506Y68094D02*
X89361D01*
X87540Y68128D02*
X89395D01*
X87573Y68161D02*
X89429D01*
X87607Y68195D02*
X89462D01*
X87607Y68229D02*
X89462D01*
X87641Y68262D02*
X89530D01*
X87675Y68296D02*
X89530D01*
X87708Y68330D02*
X89563D01*
X87708Y68364D02*
X89597D01*
X87776Y68397D02*
X89631D01*
X87776Y68431D02*
X89665D01*
X87809Y68465D02*
X89665D01*
X87843Y68498D02*
X89698D01*
X87877Y68532D02*
X89732D01*
X87911Y68566D02*
X89766D01*
X87911Y68600D02*
X89799D01*
X87944Y68633D02*
X89799D01*
X87978Y68667D02*
X89833D01*
X88012Y68701D02*
X89867D01*
X88046Y68735D02*
X89901D01*
X88046Y68768D02*
X89934D01*
X88079Y68802D02*
X89968D01*
X88113Y68836D02*
X89968D01*
X88147Y68870D02*
X90002D01*
X88181Y68903D02*
X90036D01*
X88181Y68937D02*
X90069D01*
X88248Y68971D02*
X90103D01*
X88282Y69004D02*
X90103D01*
X88282Y69038D02*
X90137D01*
X88315Y69072D02*
X90204D01*
X88349Y69106D02*
X90204D01*
X88383Y69139D02*
X90238D01*
X88383Y69173D02*
X90238D01*
X88450Y69207D02*
X90305D01*
X88450Y69240D02*
X90339D01*
X88484Y69274D02*
X90339D01*
X88518Y69308D02*
X90373D01*
X88551Y69342D02*
X90407D01*
X88585Y69375D02*
X90440D01*
X88585Y69409D02*
X90474D01*
X88619Y69443D02*
X90474D01*
X88653Y69477D02*
X90508D01*
X88687Y69510D02*
X90541D01*
X88720Y69544D02*
X90575D01*
X88720Y69578D02*
X90609D01*
X88754Y69612D02*
X90609D01*
X88788Y69645D02*
X90643D01*
X88821Y69679D02*
X90676D01*
X88855Y69713D02*
X90710D01*
X88855Y69747D02*
X90744D01*
X88923Y69780D02*
X90778D01*
X88923Y69814D02*
X90778D01*
X88956Y69848D02*
X90811D01*
X88990Y69881D02*
X90879D01*
X89024Y69915D02*
X90879D01*
X89057Y69949D02*
X90912D01*
X89057Y69983D02*
X90912D01*
X89091Y70016D02*
X90980D01*
X89125Y70050D02*
X91014D01*
X89159Y70084D02*
X91014D01*
X89192Y70117D02*
X91048D01*
X89226Y70151D02*
X91081D01*
X89260Y70185D02*
X91115D01*
X89260Y70219D02*
X91149D01*
X89294Y70252D02*
X91149D01*
X89327Y70286D02*
X91182D01*
X89361Y70320D02*
X91216D01*
X89395Y70354D02*
X91250D01*
X89395Y70387D02*
X91284D01*
X89429Y70421D02*
X91284D01*
X89462Y70455D02*
X91317D01*
X89496Y70489D02*
X91351D01*
X89530Y70522D02*
X91385D01*
X89530Y70556D02*
X91418D01*
X89563Y70590D02*
X91452D01*
X89597Y70623D02*
X91452D01*
X89631Y70657D02*
X91486D01*
X89665Y70691D02*
X91553D01*
X89698Y70725D02*
X91553D01*
X89732Y70758D02*
X91553D01*
X89732Y70792D02*
X91587D01*
X89766Y70826D02*
X91655D01*
X89799Y70859D02*
X91688D01*
X89833Y70893D02*
X91688D01*
X89867Y70927D02*
X91688D01*
X89901Y70961D02*
X91756D01*
X89934Y70994D02*
X91790D01*
X89934Y71028D02*
X91823D01*
X89968Y71062D02*
X91823D01*
X90002Y71096D02*
X91857D01*
X90036Y71129D02*
X91891D01*
X90069Y71163D02*
X91924D01*
X90069Y71197D02*
X91958D01*
X90103Y71231D02*
X91958D01*
X90137Y71264D02*
X91992D01*
X90171Y71298D02*
X92026D01*
X80221Y73153D02*
X82042D01*
X80221Y73119D02*
X82109D01*
X80288Y73086D02*
X82109D01*
X80322Y73052D02*
X82143D01*
X80356Y73018D02*
X82177D01*
X80356Y72984D02*
X82244D01*
X80423Y72951D02*
X82244D01*
X80423Y72917D02*
X82278D01*
X80457Y72883D02*
X82312D01*
X80490Y72850D02*
X82345D01*
X80524Y72816D02*
X82379D01*
X80558Y72782D02*
X82413D01*
X80592Y72748D02*
X82413D01*
X80625Y72715D02*
X82480D01*
X80659Y72681D02*
X82514D01*
X80693Y72647D02*
X82514D01*
X80726Y72613D02*
X82548D01*
X80760Y72580D02*
X82615D01*
X80760Y72546D02*
X82649D01*
X80794Y72512D02*
X82649D01*
X80828Y72478D02*
X82683D01*
X80895Y72445D02*
X82717D01*
X80895Y72411D02*
X82750D01*
X80929Y72377D02*
X82784D01*
X80963Y72344D02*
X82818D01*
X80996Y72310D02*
X82851D01*
X81030Y72276D02*
X82885D01*
X81064Y72242D02*
X82919D01*
X81098Y72209D02*
X82919D01*
X81131Y72175D02*
X82986D01*
X81165Y72141D02*
X83020D01*
X81199Y72107D02*
X83054D01*
X79310Y74131D02*
X81165D01*
X79344Y74098D02*
X81165D01*
X79377Y74064D02*
X81199D01*
X79411Y74030D02*
X81232D01*
X79411Y73996D02*
X81266D01*
X79445Y73963D02*
X81300D01*
X79479Y73929D02*
X81334D01*
X79546Y73895D02*
X81367D01*
X79546Y73861D02*
X81401D01*
X79580Y73828D02*
X81435D01*
X79613Y73794D02*
X81468D01*
X79681Y73760D02*
X81502D01*
X79681Y73726D02*
X81536D01*
X79715Y73693D02*
X81536D01*
X79748Y73659D02*
X81603D01*
X79782Y73625D02*
X81603D01*
X79816Y73592D02*
X81637D01*
X79816Y73558D02*
X81671D01*
X79883Y73524D02*
X81705D01*
X79917Y73490D02*
X81738D01*
X79951Y73457D02*
X81772D01*
X79951Y73423D02*
X81806D01*
X79984Y73389D02*
X81840D01*
X80018Y73355D02*
X81873D01*
X80086Y73322D02*
X81907D01*
X80086Y73288D02*
X81941D01*
X80119Y73254D02*
X81975D01*
X80153Y73220D02*
X81975D01*
X80187Y73187D02*
X82008D01*
X81199Y72074D02*
X83054D01*
X81232Y72040D02*
X83121D01*
X81300Y72006D02*
X83155D01*
X81300Y71973D02*
X83189D01*
X81334Y71939D02*
X83189D01*
X81367Y71905D02*
X83222D01*
X81435Y71871D02*
X83256D01*
X81435Y71838D02*
X83290D01*
X81468Y71804D02*
X83324D01*
X81502Y71770D02*
X83357D01*
X81536Y71737D02*
X83391D01*
X81570Y71703D02*
X83425D01*
X81570Y71669D02*
X83459D01*
X81637Y71635D02*
X83492D01*
X81671Y71601D02*
X83526D01*
X81705Y71568D02*
X83526D01*
X81705Y71534D02*
X83560D01*
X81738Y71500D02*
X83593D01*
X79006Y74435D02*
X86393D01*
X81806Y71467D02*
X83627D01*
X79040Y74401D02*
X86393D01*
X79074Y74367D02*
X86393D01*
X81840Y71433D02*
X83661D01*
X79141Y74300D02*
X86393D01*
X79141Y74334D02*
X86393D01*
X81840Y71399D02*
X83695D01*
X79175Y74266D02*
X86393D01*
X81873Y71365D02*
X83728D01*
X79209Y74232D02*
X86393D01*
X79242Y74199D02*
X86393D01*
X79276Y74165D02*
X86393D01*
X84403Y74131D02*
X86393D01*
X78197Y75379D02*
X86393D01*
X78197Y75345D02*
X86393D01*
X78197Y75312D02*
X86393D01*
X78231Y75278D02*
X86393D01*
X78264Y75244D02*
X86393D01*
X78298Y75210D02*
X86393D01*
X78332Y75177D02*
X86393D01*
X78365Y75143D02*
X86393D01*
X78399Y75109D02*
X86393D01*
X78433Y75076D02*
X86393D01*
X78467Y75042D02*
X86393D01*
X78500Y75008D02*
X86393D01*
X78534Y74941D02*
X86393D01*
X78534Y74974D02*
X86393D01*
X78568Y74907D02*
X86393D01*
X78602Y74873D02*
X86393D01*
X78635Y74840D02*
X86393D01*
X78669Y74806D02*
X86393D01*
X78703Y74772D02*
X86393D01*
X78737Y74738D02*
X86393D01*
X78770Y74705D02*
X86393D01*
X78804Y74671D02*
X86393D01*
X78838Y74637D02*
X86393D01*
X78871Y74603D02*
X86393D01*
X78905Y74536D02*
X86393D01*
X78905Y74570D02*
X86393D01*
X78939Y74502D02*
X86393D01*
X79006Y74468D02*
X86393D01*
X81266Y75413D02*
X86359D01*
X88889Y78583D02*
X91250D01*
X88956Y78550D02*
X91284D01*
X88990Y78516D02*
X91351D01*
X85685Y81821D02*
X86831D01*
X85685Y81788D02*
X86899D01*
X85685Y81754D02*
X86933D01*
X85685Y81720D02*
X86966D01*
X85685Y81686D02*
X87000D01*
X85685Y81619D02*
X87101D01*
X85685Y81653D02*
X87101D01*
X85685Y81585D02*
X87169D01*
X85685Y81551D02*
X87202D01*
X85685Y81518D02*
X87270D01*
X85685Y81484D02*
X87304D01*
X85685Y81450D02*
X87337D01*
X85685Y81417D02*
X87371D01*
X85685Y81383D02*
X87472D01*
X85685Y81315D02*
X87506D01*
X85685Y81349D02*
X87506D01*
X85685Y81282D02*
X87573D01*
X85685Y81248D02*
X87641D01*
X85685Y81214D02*
X87675D01*
X85685Y81181D02*
X87708D01*
X85685Y81147D02*
X87742D01*
X85685Y81113D02*
X87809D01*
X85685Y81079D02*
X87843D01*
X85685Y81046D02*
X87911D01*
X85685Y81012D02*
X87944D01*
X85685Y80978D02*
X88012D01*
X85718Y80944D02*
X88046D01*
X85752Y80911D02*
X88079D01*
X85786Y80877D02*
X88113D01*
X85820Y80843D02*
X88181D01*
X85887Y80809D02*
X88214D01*
X85921Y80776D02*
X88248D01*
X85685Y82597D02*
X85786D01*
X85685Y82563D02*
X85853D01*
X85685Y82530D02*
X85887D01*
X85685Y82496D02*
X85887D01*
X85685Y82462D02*
X85988D01*
X85685Y82428D02*
X86022D01*
X85685Y82395D02*
X86056D01*
X85685Y82361D02*
X86089D01*
X85685Y82327D02*
X86157D01*
X85685Y82294D02*
X86190D01*
X85685Y82260D02*
X86258D01*
X85685Y82226D02*
X86292D01*
X85685Y82192D02*
X86359D01*
X85685Y82159D02*
X86393D01*
X85685Y82125D02*
X86427D01*
X85685Y82091D02*
X86460D01*
X85685Y82057D02*
X86528D01*
X85685Y82024D02*
X86562D01*
X85685Y81990D02*
X86595D01*
X85685Y81956D02*
X86663D01*
X85685Y81923D02*
X86696D01*
X85685Y81889D02*
X86764D01*
X85685Y81855D02*
X86798D01*
X87438Y79663D02*
X89766D01*
X87472Y79629D02*
X89833D01*
X87540Y79595D02*
X89867D01*
X87573Y79562D02*
X89934D01*
X87641Y79528D02*
X89934D01*
X87641Y79494D02*
X90036D01*
X87742Y79460D02*
X90069D01*
X87776Y79427D02*
X90103D01*
X87809Y79393D02*
X90137D01*
X87843Y79359D02*
X90204D01*
X87911Y79325D02*
X90238D01*
X87944Y79292D02*
X90272D01*
X87978Y79258D02*
X90339D01*
X88046Y79224D02*
X90373D01*
X88113Y79190D02*
X90440D01*
X88147Y79157D02*
X90474D01*
X88181Y79123D02*
X90508D01*
X88214Y79089D02*
X90575D01*
X88282Y79056D02*
X90609D01*
X88315Y79022D02*
X90643D01*
X88349Y78988D02*
X90676D01*
X88383Y78954D02*
X90744D01*
X88450Y78921D02*
X90778D01*
X88484Y78887D02*
X90845D01*
X88551Y78853D02*
X90879D01*
X88585Y78820D02*
X90946D01*
X88619Y78786D02*
X90980D01*
X88687Y78752D02*
X91014D01*
X88720Y78718D02*
X91048D01*
X88754Y78685D02*
X91115D01*
X88821Y78651D02*
X91149D01*
X88855Y78617D02*
X91182D01*
X85988Y80742D02*
X88315D01*
X86022Y80708D02*
X88349D01*
X86089Y80675D02*
X88417D01*
X86123Y80641D02*
X88450D01*
X86157Y80607D02*
X88484D01*
X86190Y80573D02*
X88551D01*
X86258Y80540D02*
X88585D01*
X86292Y80506D02*
X88619D01*
X86325Y80472D02*
X88653D01*
X86393Y80439D02*
X88720D01*
X86427Y80405D02*
X88754D01*
X86460Y80371D02*
X88821D01*
X86528Y80337D02*
X88855D01*
X86562Y80304D02*
X88923D01*
X86629Y80270D02*
X88956D01*
X86663Y80236D02*
X88990D01*
X86696Y80202D02*
X89024D01*
X86730Y80169D02*
X89091D01*
X86831Y80135D02*
X89125D01*
X86831Y80101D02*
X89192D01*
X86899Y80067D02*
X89226D01*
X86933Y80034D02*
X89294D01*
X87000Y80000D02*
X89327D01*
X87034Y79966D02*
X89361D01*
X87068Y79932D02*
X89395D01*
X87101Y79899D02*
X89462D01*
X87169Y79865D02*
X89530D01*
X87236Y79831D02*
X89530D01*
X87236Y79798D02*
X89597D01*
X87304Y79764D02*
X89665D01*
X87371Y79730D02*
X89698D01*
X87405Y79696D02*
X89732D01*
X89057Y78482D02*
X91385D01*
X89091Y78448D02*
X91418D01*
X89125Y78415D02*
X91486D01*
X89192Y78381D02*
X91520D01*
X89226Y78347D02*
X91553D01*
X89260Y78313D02*
X91587D01*
X89294Y78280D02*
X91688D01*
X89395Y78246D02*
X91688D01*
X89395Y78212D02*
X91756D01*
X89462Y78179D02*
X91790D01*
X89496Y78145D02*
X91857D01*
X89563Y78111D02*
X91891D01*
X89597Y78078D02*
X91924D01*
X89631Y78044D02*
X91958D01*
X89665Y78010D02*
X92026D01*
X89732Y77976D02*
X92093D01*
X90508Y77403D02*
X92869D01*
X90541Y77369D02*
X92903D01*
X90609Y77335D02*
X92936D01*
X90643Y77302D02*
X93004D01*
X90710Y77268D02*
X93037D01*
X90744Y77234D02*
X93071D01*
X90778Y77201D02*
X93139D01*
X90845Y77167D02*
X93172D01*
X90879Y77133D02*
X93206D01*
X90912Y77099D02*
X93274D01*
X90946Y77066D02*
X93307D01*
X91014Y77032D02*
X93375D01*
X91048Y76998D02*
X93409D01*
X91115Y76964D02*
X93442D01*
X91149Y76931D02*
X93510D01*
X91216Y76897D02*
X93543D01*
X91250Y76863D02*
X93577D01*
X91284Y76829D02*
X93611D01*
X91317Y76796D02*
X93678D01*
X91385Y76762D02*
X93712D01*
X91418Y76728D02*
X93779D01*
X91452Y76695D02*
X93813D01*
X91520Y76661D02*
X93847D01*
X91553Y76627D02*
X93914D01*
X91621Y76593D02*
X93948D01*
X91655Y76560D02*
X93982D01*
X91688Y76526D02*
X94049D01*
X91756Y76492D02*
X94117D01*
X91790Y76459D02*
X94117D01*
X91823Y76425D02*
X94184D01*
X91857Y76391D02*
X94252D01*
X91958Y76357D02*
X94285D01*
X89799Y77943D02*
X92093D01*
X89799Y77909D02*
X92160D01*
X89867Y77875D02*
X92228D01*
X89934Y77841D02*
X92262D01*
X89968Y77808D02*
X92295D01*
X90002Y77774D02*
X92329D01*
X90036Y77740D02*
X92397D01*
X90103Y77706D02*
X92464D01*
X90137Y77673D02*
X92498D01*
X90204Y77639D02*
X92532D01*
X90204Y77605D02*
X92599D01*
X90305Y77571D02*
X92633D01*
X90339Y77538D02*
X92666D01*
X90373Y77504D02*
X92700D01*
X90407Y77470D02*
X92768D01*
X90474Y77437D02*
X92801D01*
X99952Y70421D02*
X102347D01*
X99918Y70455D02*
X102279D01*
X99884Y70489D02*
X102245D01*
X99851Y70522D02*
X102212D01*
X99783Y70556D02*
X102178D01*
X99749Y70590D02*
X102111D01*
X99716Y70623D02*
X102077D01*
X99648Y70657D02*
X102043D01*
X99615Y70691D02*
X101976D01*
X99547Y70725D02*
X101942D01*
X99513Y70758D02*
X101874D01*
X99513Y70792D02*
X101841D01*
X99412Y70826D02*
X101807D01*
X99378Y70859D02*
X101740D01*
X99345Y70893D02*
X101706D01*
X99311Y70927D02*
X101672D01*
X99243Y70961D02*
X101638D01*
X99210Y70994D02*
X101537D01*
X99142Y71028D02*
X101537D01*
X99109Y71062D02*
X101470D01*
X99041Y71096D02*
X101436D01*
X99007Y71129D02*
X101368D01*
X98974Y71163D02*
X101335D01*
X98940Y71197D02*
X101301D01*
X98873Y71231D02*
X101267D01*
X98839Y71264D02*
X101200D01*
X98805Y71298D02*
X101132D01*
X98738Y71332D02*
X101132D01*
X98704Y71365D02*
X101065D01*
X98636Y71399D02*
X100997D01*
X98603Y71433D02*
X100964D01*
X98569Y71467D02*
X100930D01*
X101436Y69342D02*
X104404D01*
X101402Y69375D02*
X104404D01*
X101368Y69409D02*
X104404D01*
X101301Y69443D02*
X104370D01*
X101267Y69477D02*
X104370D01*
X101200Y69510D02*
X104370D01*
X101166Y69544D02*
X104370D01*
X101132Y69578D02*
X104370D01*
X101065Y69612D02*
X104337D01*
X101031Y69645D02*
X104337D01*
X100997Y69679D02*
X104303D01*
X100964Y69713D02*
X104303D01*
X100863Y69747D02*
X104303D01*
X100863Y69780D02*
X104269D01*
X100795Y69814D02*
X104269D01*
X100761Y69848D02*
X104235D01*
X100694Y69881D02*
X104235D01*
X100660Y69915D02*
X104235D01*
X100626Y69949D02*
X104235D01*
X100593Y69983D02*
X104235D01*
X100525Y70016D02*
X104235D01*
X100458Y70050D02*
X104202D01*
X100458Y70084D02*
X104202D01*
X100390Y70117D02*
X104202D01*
X100323Y70151D02*
X104168D01*
X100323Y70185D02*
X104168D01*
X100255Y70219D02*
X104134D01*
X100222Y70252D02*
X104134D01*
X100154Y70286D02*
X104134D01*
X100087Y70320D02*
X104101D01*
X100053Y70354D02*
X104101D01*
X100053Y70387D02*
X102380D01*
X98468Y71534D02*
X100829D01*
X98434Y71568D02*
X100761D01*
X98400Y71601D02*
X100728D01*
X98333Y71635D02*
X100694D01*
X98299Y71669D02*
X100626D01*
X98232Y71703D02*
X100593D01*
X98198Y71737D02*
X100559D01*
X98131Y71770D02*
X100525D01*
X98097Y71804D02*
X100458D01*
X98063Y71838D02*
X100424D01*
X98029Y71871D02*
X100357D01*
X97962Y71905D02*
X100323D01*
X97894Y71939D02*
X100255D01*
X97894Y71973D02*
X100222D01*
X97827Y72006D02*
X100188D01*
X97759Y72040D02*
X100154D01*
X97726Y72074D02*
X100087D01*
X97692Y72107D02*
X100053D01*
X97658Y72141D02*
X100019D01*
X97591Y72175D02*
X99952D01*
X97557Y72209D02*
X99918D01*
X97490Y72242D02*
X99851D01*
X97490Y72276D02*
X99817D01*
X97422Y72310D02*
X99783D01*
X97355Y72344D02*
X99716D01*
X97321Y72377D02*
X99682D01*
X97287Y72411D02*
X99648D01*
X97220Y72445D02*
X99615D01*
X97186Y72478D02*
X99547D01*
X97152Y72512D02*
X99513D01*
X97085Y72546D02*
X99446D01*
X97051Y72580D02*
X99412D01*
X98501Y71500D02*
X100896D01*
X102043Y71534D02*
X103729D01*
X102043Y71568D02*
X103729D01*
X102043Y71601D02*
X103729D01*
X102009Y71635D02*
X103696D01*
X102009Y71669D02*
X103696D01*
X102009Y71703D02*
X103696D01*
X101976Y71737D02*
X103696D01*
X101976Y71770D02*
X103696D01*
X101976Y71804D02*
X103662D01*
X101942Y71838D02*
X103662D01*
X101942Y71871D02*
X103628D01*
X101942Y71905D02*
X103628D01*
X101942Y71939D02*
X103595D01*
X101942Y71973D02*
X103595D01*
X101908Y72006D02*
X103595D01*
X101908Y72040D02*
X103595D01*
X101908Y72074D02*
X103561D01*
X101874Y72107D02*
X103561D01*
X101874Y72141D02*
X103561D01*
X101841Y72175D02*
X103561D01*
X101841Y72209D02*
X103527D01*
X101807Y72242D02*
X103527D01*
X101807Y72276D02*
X103527D01*
X101807Y72310D02*
X103527D01*
X101807Y72344D02*
X103493D01*
X101807Y72377D02*
X103493D01*
X101807Y72411D02*
X103460D01*
X101773Y72445D02*
X103460D01*
X101773Y72478D02*
X103460D01*
X101740Y72512D02*
X103426D01*
X101740Y72546D02*
X103426D01*
X101807Y69072D02*
X104505D01*
X101773Y69106D02*
X104505D01*
X101706Y69139D02*
X104472D01*
X101672Y69173D02*
X104472D01*
X101604Y69207D02*
X104472D01*
X101571Y69240D02*
X104438D01*
X101537Y69274D02*
X104438D01*
X101503Y69308D02*
X104438D01*
X102313Y70725D02*
X103965D01*
X102279Y70758D02*
X103965D01*
X102279Y70792D02*
X103965D01*
X102279Y70826D02*
X103965D01*
X102245Y70859D02*
X103965D01*
X102245Y70893D02*
X103965D01*
X102245Y70927D02*
X103932D01*
X102212Y70961D02*
X103932D01*
X102212Y70994D02*
X103898D01*
X102212Y71028D02*
X103898D01*
X102212Y71062D02*
X103898D01*
X102212Y71096D02*
X103864D01*
X102178Y71129D02*
X103864D01*
X102178Y71163D02*
X103831D01*
X102178Y71197D02*
X103831D01*
X102144Y71231D02*
X103831D01*
X102144Y71264D02*
X103831D01*
X102111Y71298D02*
X103831D01*
X102111Y71332D02*
X103831D01*
X102111Y71365D02*
X103797D01*
X102077Y71399D02*
X103797D01*
X102077Y71433D02*
X103763D01*
X102077Y71467D02*
X103763D01*
X102077Y71500D02*
X103763D01*
X102414Y68633D02*
X104640D01*
X102347Y68667D02*
X104640D01*
X102313Y68701D02*
X104606D01*
X102279Y68735D02*
X104606D01*
X102212Y68768D02*
X104606D01*
X102178Y68802D02*
X104573D01*
X102111Y68836D02*
X104573D01*
X102077Y68870D02*
X104573D01*
X102043Y68903D02*
X104539D01*
X101976Y68937D02*
X104539D01*
X101942Y68971D02*
X104539D01*
X101908Y69004D02*
X104505D01*
X101874Y69038D02*
X104505D01*
X102414Y70387D02*
X104101D01*
X102380Y70421D02*
X104101D01*
X102380Y70455D02*
X104101D01*
X102380Y70489D02*
X104067D01*
X102347Y70522D02*
X104067D01*
X102347Y70556D02*
X104033D01*
X102347Y70590D02*
X104033D01*
X102347Y70623D02*
X104033D01*
X102347Y70657D02*
X103999D01*
X102313Y70691D02*
X103999D01*
X95263Y77437D02*
X97119D01*
X95027Y74064D02*
X97388D01*
X95297Y77470D02*
X97152D01*
X95331Y77504D02*
X97186D01*
X95095Y74030D02*
X97456D01*
X95331Y77538D02*
X97220D01*
X95365Y77571D02*
X97220D01*
X95129Y73996D02*
X97490D01*
X95162Y73963D02*
X97490D01*
X95398Y77605D02*
X97287D01*
X95466Y77639D02*
X97287D01*
X95466Y77673D02*
X97321D01*
X95230Y73929D02*
X97591D01*
X95500Y77706D02*
X97355D01*
X95500Y77740D02*
X97388D01*
X95297Y73895D02*
X97624D01*
X95567Y77774D02*
X97422D01*
X95331Y73861D02*
X97658D01*
X95331Y73828D02*
X97692D01*
X95601Y77841D02*
X97456D01*
X95601Y77808D02*
X97456D01*
X95398Y73794D02*
X97759D01*
X95466Y73760D02*
X97793D01*
X95500Y73726D02*
X97861D01*
X95533Y73693D02*
X97894D01*
X95601Y73659D02*
X97962D01*
X95635Y73625D02*
X97996D01*
X95668Y73592D02*
X98029D01*
X95736Y73558D02*
X98063D01*
X95770Y73524D02*
X98131D01*
X95837Y73490D02*
X98164D01*
X95871Y73457D02*
X98198D01*
X95635Y77875D02*
X97490D01*
X95668Y77909D02*
X97523D01*
X95702Y77943D02*
X97557D01*
X95736Y77976D02*
X97591D01*
X95736Y78010D02*
X97624D01*
X95770Y78044D02*
X97624D01*
X95803Y78078D02*
X97658D01*
X95837Y78111D02*
X97692D01*
X95871Y78145D02*
X97726D01*
X95871Y78179D02*
X97759D01*
X95904Y78212D02*
X97759D01*
X95938Y78246D02*
X97793D01*
X95972Y78280D02*
X97827D01*
X96006Y78347D02*
X97827D01*
X96006Y78313D02*
X97827D01*
X96039Y78381D02*
X97793D01*
X96073Y78415D02*
X97793D01*
X96140Y78482D02*
X97759D01*
X96174Y78550D02*
X97759D01*
X96174Y78516D02*
X97759D01*
X96140Y78448D02*
X97793D01*
X96275Y78651D02*
X97726D01*
X96242Y78617D02*
X97759D01*
X96242Y78583D02*
X97759D01*
X96309Y78685D02*
X97726D01*
X96343Y78718D02*
X97726D01*
X96377Y78752D02*
X97692D01*
X96444Y78853D02*
X97658D01*
X96410Y78786D02*
X97692D01*
X96410Y78820D02*
X97692D01*
X96478Y78887D02*
X97658D01*
X96545Y78954D02*
X97624D01*
X95904Y73423D02*
X98265D01*
X95938Y73389D02*
X98299D01*
X96006Y73355D02*
X98367D01*
X96039Y73322D02*
X98400D01*
X96073Y73288D02*
X98434D01*
X96140Y73254D02*
X98501D01*
X96174Y73220D02*
X98535D01*
X96242Y73187D02*
X98569D01*
X96275Y73153D02*
X98603D01*
X96309Y73119D02*
X98704D01*
X96377Y73086D02*
X98704D01*
X96410Y73052D02*
X98771D01*
X96444Y73018D02*
X98805D01*
X96512Y72984D02*
X98873D01*
X96545Y72951D02*
X98906D01*
X96579Y72917D02*
X98940D01*
X96646Y72883D02*
X98974D01*
X96680Y72850D02*
X99075D01*
X96748Y72816D02*
X99109D01*
X96781Y72782D02*
X99109D01*
X96815Y72748D02*
X99176D01*
X96849Y72715D02*
X99243D01*
X96950Y72681D02*
X99277D01*
X96950Y72647D02*
X99311D01*
X96984Y72613D02*
X99345D01*
X100019Y78145D02*
X101706D01*
X100053Y78078D02*
X101706D01*
X100053Y78111D02*
X101706D01*
X100053Y78010D02*
X101740D01*
X100053Y78044D02*
X101740D01*
X100087Y77909D02*
X101773D01*
X100087Y77943D02*
X101773D01*
X96545Y78988D02*
X97624D01*
X96512Y78921D02*
X97658D01*
X96579Y79022D02*
X97624D01*
X96613Y79056D02*
X97624D01*
X99749D02*
X101402D01*
X99749Y79089D02*
X101402D01*
X99783Y78988D02*
X101436D01*
X99783Y79022D02*
X101436D01*
X99783Y78887D02*
X101470D01*
X99783Y78921D02*
X101470D01*
X99783Y78954D02*
X101470D01*
X99783Y78853D02*
X101503D01*
X99817Y78786D02*
X101503D01*
X99817Y78820D02*
X101503D01*
X99851Y78718D02*
X101537D01*
X99851Y78752D02*
X101537D01*
X99851Y78685D02*
X101537D01*
X99884Y78651D02*
X101537D01*
X99884Y78617D02*
X101537D01*
X99884Y78583D02*
X101571D01*
X99918Y78550D02*
X101571D01*
X99918Y78516D02*
X101571D01*
X99918Y78448D02*
X101604D01*
X99918Y78482D02*
X101604D01*
X99952Y78347D02*
X101638D01*
X99952Y78381D02*
X101638D01*
X99952Y78415D02*
X101638D01*
X99986Y78280D02*
X101672D01*
X99986Y78313D02*
X101672D01*
X100019Y78179D02*
X101672D01*
X100019Y78212D02*
X101672D01*
X100019Y78246D02*
X101672D01*
X96646Y79089D02*
X97624D01*
X96680Y79123D02*
X97591D01*
X96680Y79157D02*
X97591D01*
X96714Y79190D02*
X97591D01*
X96748Y79224D02*
X97557D01*
X96815Y79325D02*
X97523D01*
X96815Y79292D02*
X97523D01*
X96849Y79359D02*
X97523D01*
X96815Y79258D02*
X97557D01*
X96916Y79393D02*
X97490D01*
X96916Y79427D02*
X97490D01*
X96950Y79460D02*
X97490D01*
X96950Y79494D02*
X97490D01*
X97017Y79528D02*
X97490D01*
X97051Y79595D02*
X97456D01*
X97051Y79562D02*
X97456D01*
X97119Y79663D02*
X97422D01*
X97085Y79629D02*
X97456D01*
X97152Y79696D02*
X97422D01*
X97186Y79730D02*
X97422D01*
X97220Y79764D02*
X97388D01*
X97220Y79798D02*
X97388D01*
X97254Y79831D02*
X97355D01*
X97287Y79865D02*
X97355D01*
X98974Y81518D02*
X100660D01*
X99007Y81417D02*
X100694D01*
X99007Y81450D02*
X100694D01*
X99007Y81484D02*
X100694D01*
X99041Y81349D02*
X100728D01*
X99041Y81383D02*
X100728D01*
X99075Y81282D02*
X100728D01*
X99075Y81315D02*
X100728D01*
X98670Y82563D02*
X100323D01*
X98670Y82597D02*
X100323D01*
X98704Y82530D02*
X100357D01*
X98704Y82496D02*
X100357D01*
X98704Y82462D02*
X100390D01*
X98704Y82428D02*
X100390D01*
X98704Y82395D02*
X100390D01*
X98738Y82327D02*
X100424D01*
X98738Y82361D02*
X100424D01*
X98771Y82294D02*
X100424D01*
X98771Y82226D02*
X100458D01*
X98771Y82260D02*
X100458D01*
X98805Y82125D02*
X100458D01*
X98805Y82159D02*
X100458D01*
X98805Y82192D02*
X100458D01*
X98839Y82024D02*
X100491D01*
X98839Y82091D02*
X100491D01*
X98839Y82057D02*
X100491D01*
X98839Y81956D02*
X100525D01*
X98839Y81990D02*
X100525D01*
X98873Y81855D02*
X100559D01*
X98873Y81889D02*
X100559D01*
X98873Y81923D02*
X100559D01*
X98906Y81788D02*
X100593D01*
X98906Y81821D02*
X100593D01*
X98940Y81686D02*
X100593D01*
X98940Y81720D02*
X100593D01*
X98940Y81754D02*
X100593D01*
X98974Y81585D02*
X100626D01*
X98974Y81619D02*
X100626D01*
X98974Y81653D02*
X100626D01*
X98974Y81551D02*
X100660D01*
X99412Y80101D02*
X101099D01*
X99412Y80135D02*
X101099D01*
X99412Y80169D02*
X101099D01*
X99446Y80034D02*
X101132D01*
X99446Y80000D02*
X101132D01*
X99446Y80067D02*
X101132D01*
X99480Y79932D02*
X101132D01*
X99480Y79966D02*
X101132D01*
X99513Y79899D02*
X101166D01*
X99513Y79865D02*
X101166D01*
X99513Y79831D02*
X101200D01*
X99513Y79798D02*
X101200D01*
X99513Y79764D02*
X101200D01*
X99547Y79730D02*
X101234D01*
X99547Y79663D02*
X101234D01*
X99547Y79696D02*
X101234D01*
X99581Y79595D02*
X101267D01*
X99581Y79629D02*
X101267D01*
X99581Y79562D02*
X101267D01*
X99615Y79494D02*
X101267D01*
X99615Y79528D02*
X101267D01*
X99648Y79427D02*
X101301D01*
X99648Y79460D02*
X101301D01*
X99648Y79393D02*
X101301D01*
X99648Y79325D02*
X101335D01*
X99648Y79359D02*
X101335D01*
X99682Y79292D02*
X101368D01*
X99682Y79258D02*
X101368D01*
X99682Y79224D02*
X101368D01*
X99716Y79123D02*
X101402D01*
X99716Y79157D02*
X101402D01*
X99716Y79190D02*
X101402D01*
X99075Y81248D02*
X100761D01*
X99109Y81181D02*
X100761D01*
X99109Y81147D02*
X100761D01*
X99109Y81214D02*
X100761D01*
X99109Y81079D02*
X100795D01*
X99109Y81113D02*
X100795D01*
X99142Y80978D02*
X100829D01*
X99142Y81012D02*
X100829D01*
X99142Y81046D02*
X100829D01*
X99176Y80877D02*
X100863D01*
X99176Y80944D02*
X100863D01*
X99176Y80911D02*
X100863D01*
X99210Y80809D02*
X100863D01*
X99210Y80843D02*
X100863D01*
X99243Y80742D02*
X100896D01*
X99243Y80776D02*
X100896D01*
X99243Y80641D02*
X100930D01*
X99243Y80675D02*
X100930D01*
X99243Y80708D02*
X100930D01*
X99277Y80607D02*
X100930D01*
X99277Y80540D02*
X100964D01*
X99277Y80573D02*
X100964D01*
X99311Y80439D02*
X100997D01*
X99311Y80472D02*
X100997D01*
X99311Y80506D02*
X100997D01*
X99345Y80371D02*
X100997D01*
X99345Y80405D02*
X100997D01*
X99378Y80304D02*
X101031D01*
X99378Y80337D02*
X101031D01*
X99378Y80202D02*
X101065D01*
X99378Y80236D02*
X101065D01*
X99378Y80270D02*
X101065D01*
X101234Y74199D02*
X102920D01*
X101234Y74232D02*
X102886D01*
X101234Y74266D02*
X102886D01*
X101200Y74300D02*
X102886D01*
X101200Y74334D02*
X102886D01*
X101166Y74367D02*
X102886D01*
X101166Y74401D02*
X102886D01*
X101166Y74435D02*
X102852D01*
X101166Y74468D02*
X102852D01*
X101132Y74502D02*
X102819D01*
X101132Y74536D02*
X102819D01*
X101132Y74570D02*
X102819D01*
X101132Y74603D02*
X102785D01*
X101099Y74637D02*
X102785D01*
X101099Y74671D02*
X102751D01*
X101099Y74705D02*
X102751D01*
X101065Y74738D02*
X102751D01*
X101065Y74772D02*
X102751D01*
X101031Y74806D02*
X102751D01*
X101031Y74840D02*
X102751D01*
X101031Y74873D02*
X102718D01*
X100997Y74907D02*
X102718D01*
X100997Y74941D02*
X102684D01*
X100997Y74974D02*
X102684D01*
X100997Y75008D02*
X102684D01*
X100997Y75042D02*
X102650D01*
X100964Y75076D02*
X102650D01*
X100964Y75109D02*
X102616D01*
X100964Y75143D02*
X102616D01*
X100930Y75177D02*
X102616D01*
X100930Y75210D02*
X102616D01*
X100896Y75244D02*
X102616D01*
X101740Y72580D02*
X103426D01*
X101706Y72613D02*
X103426D01*
X101706Y72647D02*
X103392D01*
X101706Y72681D02*
X103392D01*
X101672Y72715D02*
X103392D01*
X101672Y72748D02*
X103358D01*
X101672Y72782D02*
X103358D01*
X101672Y72816D02*
X103358D01*
X101672Y72850D02*
X103325D01*
X101638Y72883D02*
X103325D01*
X101638Y72917D02*
X103291D01*
X101604Y72951D02*
X103291D01*
X101604Y72984D02*
X103291D01*
X101604Y73018D02*
X103291D01*
X101571Y73052D02*
X103291D01*
X101571Y73086D02*
X103257D01*
X101267Y74165D02*
X102920D01*
X101267Y74131D02*
X102954D01*
X101267Y74098D02*
X102954D01*
X101267Y74064D02*
X102954D01*
X101267Y74030D02*
X102987D01*
X101301Y73963D02*
X102987D01*
X101301Y73996D02*
X102987D01*
X101301Y73929D02*
X103021D01*
X101335Y73861D02*
X103021D01*
X101335Y73895D02*
X103021D01*
X101335Y73828D02*
X103021D01*
X101368Y73794D02*
X103055D01*
X101402Y73760D02*
X103055D01*
X101402Y73726D02*
X103055D01*
X101402Y73625D02*
X103089D01*
X101402Y73693D02*
X103089D01*
X101402Y73659D02*
X103089D01*
X101402Y73592D02*
X103122D01*
X101436Y73558D02*
X103122D01*
X101436Y73490D02*
X103156D01*
X101436Y73524D02*
X103156D01*
X101470Y73423D02*
X103156D01*
X101470Y73457D02*
X103156D01*
X101503Y73355D02*
X103156D01*
X101503Y73389D02*
X103156D01*
X101503Y73322D02*
X103190D01*
X101537Y73288D02*
X103190D01*
X101537Y73187D02*
X103224D01*
X101537Y73220D02*
X103224D01*
X101537Y73254D02*
X103224D01*
X101537Y73153D02*
X103257D01*
X101571Y73119D02*
X103257D01*
X100593Y76324D02*
X102279D01*
X100593Y76357D02*
X102245D01*
X100559Y76391D02*
X102245D01*
X100559Y76425D02*
X102212D01*
X100559Y76459D02*
X102212D01*
X100525Y76492D02*
X102212D01*
X100525Y76526D02*
X102212D01*
X100525Y76560D02*
X102212D01*
X100491Y76593D02*
X102178D01*
X100491Y76627D02*
X102178D01*
X100458Y76661D02*
X102178D01*
X100458Y76695D02*
X102144D01*
X100458Y76728D02*
X102144D01*
X100458Y76762D02*
X102144D01*
X100458Y76796D02*
X102111D01*
X100458Y76829D02*
X102111D01*
X100087Y77976D02*
X101773D01*
X100120Y77808D02*
X101807D01*
X100120Y77841D02*
X101807D01*
X100120Y77875D02*
X101807D01*
X100154Y77774D02*
X101807D01*
X100154Y77740D02*
X101841D01*
X100154Y77706D02*
X101841D01*
X100188Y77673D02*
X101841D01*
X100188Y77605D02*
X101874D01*
X100188Y77571D02*
X101874D01*
X100188Y77639D02*
X101874D01*
X100222Y77470D02*
X101908D01*
X100222Y77504D02*
X101908D01*
X100222Y77538D02*
X101908D01*
X100255Y77437D02*
X101942D01*
X100255Y77369D02*
X101942D01*
X100255Y77403D02*
X101942D01*
X100289Y77302D02*
X101942D01*
X100289Y77335D02*
X101942D01*
X100323Y77234D02*
X101976D01*
X100323Y77268D02*
X101976D01*
X100323Y77201D02*
X102009D01*
X100323Y77133D02*
X102009D01*
X100323Y77167D02*
X102009D01*
X100323Y77099D02*
X102043D01*
X100357Y77066D02*
X102043D01*
X100357Y77032D02*
X102043D01*
X100357Y76998D02*
X102077D01*
X100390Y76931D02*
X102077D01*
X100390Y76964D02*
X102077D01*
X100424Y76863D02*
X102077D01*
X100424Y76897D02*
X102077D01*
X100896Y75278D02*
X102583D01*
X100896Y75312D02*
X102583D01*
X100863Y75345D02*
X102583D01*
X100863Y75379D02*
X102549D01*
X100863Y75413D02*
X102549D01*
X100863Y75447D02*
X102515D01*
X100863Y75480D02*
X102515D01*
X100829Y75514D02*
X102515D01*
X100829Y75548D02*
X102515D01*
X100829Y75582D02*
X102481D01*
X100795Y75615D02*
X102481D01*
X100795Y75649D02*
X102481D01*
X100795Y75683D02*
X102481D01*
X100761Y75717D02*
X102448D01*
X100761Y75750D02*
X102448D01*
X100728Y75784D02*
X102448D01*
X100593Y76256D02*
X102279D01*
X100593Y76290D02*
X102279D01*
X100593Y76222D02*
X102313D01*
X100626Y76155D02*
X102313D01*
X100626Y76189D02*
X102313D01*
X100626Y76121D02*
X102347D01*
X100660Y76087D02*
X102347D01*
X100660Y76054D02*
X102347D01*
X100694Y76020D02*
X102347D01*
X100694Y75986D02*
X102347D01*
X100728Y75953D02*
X102380D01*
X100728Y75919D02*
X102380D01*
X100728Y75818D02*
X102414D01*
X100728Y75851D02*
X102414D01*
X100728Y75885D02*
X102414D01*
X90204Y71332D02*
X92059D01*
X90204Y71365D02*
X92093D01*
X90238Y71399D02*
X92127D01*
X90305Y71433D02*
X92127D01*
X90305Y71467D02*
X92160D01*
X90339Y71500D02*
X92228D01*
X90373Y71534D02*
X92228D01*
X90407Y71568D02*
X92228D01*
X90407Y71601D02*
X92262D01*
X90440Y71635D02*
X92329D01*
X90474Y71669D02*
X92363D01*
X90508Y71703D02*
X92363D01*
X90508Y71737D02*
X92363D01*
X90541Y71770D02*
X92430D01*
X90609Y71804D02*
X92464D01*
X90609Y71838D02*
X92498D01*
X90643Y71871D02*
X92498D01*
X90676Y71905D02*
X92532D01*
X90710Y71939D02*
X92565D01*
X90744Y71973D02*
X92599D01*
X90744Y72006D02*
X92633D01*
X90778Y72040D02*
X92633D01*
X90811Y72074D02*
X92666D01*
X90845Y72107D02*
X92700D01*
X90879Y72141D02*
X92734D01*
X90879Y72175D02*
X92768D01*
X90912Y72209D02*
X92768D01*
X90946Y72242D02*
X92801D01*
X90980Y72276D02*
X92835D01*
X91014Y72310D02*
X92869D01*
X91048Y72344D02*
X92903D01*
X91081Y72377D02*
X92903D01*
X91081Y72411D02*
X92936D01*
X91115Y72445D02*
X93004D01*
X91149Y72478D02*
X93037D01*
X91182Y72512D02*
X93037D01*
X91182Y72546D02*
X93071D01*
X91216Y72580D02*
X93105D01*
X91284Y72613D02*
X93139D01*
X91284Y72647D02*
X93172D01*
X91317Y72681D02*
X93172D01*
X91351Y72715D02*
X93206D01*
X91385Y72748D02*
X93240D01*
X91418Y72782D02*
X93274D01*
X91418Y72816D02*
X93307D01*
X91452Y72850D02*
X93307D01*
X91486Y72883D02*
X93341D01*
X91520Y72917D02*
X93375D01*
X91553Y72951D02*
X93409D01*
X91553Y72984D02*
X93442D01*
X91587Y73018D02*
X93442D01*
X91621Y73052D02*
X93476D01*
X91655Y73086D02*
X93510D01*
X91688Y73119D02*
X93543D01*
X91722Y73153D02*
X93577D01*
X91756Y73187D02*
X93577D01*
X91756Y73220D02*
X93611D01*
X91790Y73254D02*
X93678D01*
X91823Y73288D02*
X93712D01*
X91857Y73322D02*
X93712D01*
X91857Y73355D02*
X93746D01*
X91891Y73389D02*
X93779D01*
X91958Y73423D02*
X93813D01*
X91958Y73457D02*
X93847D01*
X91992Y73490D02*
X93847D01*
X92026Y73524D02*
X93881D01*
X92059Y73558D02*
X93914D01*
X92093Y73592D02*
X93948D01*
X92093Y73625D02*
X93982D01*
X92127Y73659D02*
X93982D01*
X92160Y73693D02*
X94016D01*
X92194Y73726D02*
X94049D01*
X92228Y73760D02*
X94083D01*
X92228Y73794D02*
X94117D01*
X92262Y73828D02*
X94117D01*
X92295Y73861D02*
X94151D01*
X92329Y73895D02*
X94184D01*
X92363Y73929D02*
X94218D01*
X92397Y73963D02*
X94252D01*
X92397Y73996D02*
X94252D01*
X94724Y74300D02*
X97085D01*
X92430Y74030D02*
X94285D01*
X92464Y74064D02*
X94319D01*
X92498Y74098D02*
X94353D01*
X92532Y74165D02*
X94387D01*
X92532Y74131D02*
X94387D01*
X92565Y74199D02*
X94420D01*
X92633Y74232D02*
X94488D01*
X92633Y74266D02*
X94521D01*
X94791D02*
X97085D01*
X92666Y74300D02*
X94521D01*
X92700Y74334D02*
X94521D01*
X92734Y74367D02*
X94589D01*
X93409Y75278D02*
X95736D01*
X93442Y75244D02*
X95803D01*
X93409Y75177D02*
X95871D01*
X93442Y75210D02*
X95837D01*
X93341Y75143D02*
X95938D01*
X93307Y75076D02*
X96006D01*
X93341Y75109D02*
X95972D01*
X93240Y75008D02*
X96107D01*
X93206Y74974D02*
X96140D01*
X93307Y75042D02*
X96073D01*
X93172Y74907D02*
X96242D01*
X93206Y74941D02*
X96208D01*
X93037Y74772D02*
X96410D01*
X93071Y74806D02*
X96377D01*
X93139Y74873D02*
X96309D01*
X93105Y74840D02*
X96343D01*
X92970Y74671D02*
X96545D01*
X92936Y74637D02*
X96579D01*
X93037Y74738D02*
X96478D01*
X93004Y74705D02*
X96545D01*
X92903Y74603D02*
X96680D01*
X92869Y74536D02*
X96748D01*
X92903Y74570D02*
X96714D01*
X92835Y74502D02*
X96781D01*
X92768Y74435D02*
X96882D01*
X92801Y74468D02*
X96849D01*
X92768Y74401D02*
X96916D01*
X94623Y74367D02*
X96950D01*
X94690Y74334D02*
X97051D01*
X91958Y76324D02*
X94319D01*
X92026Y76290D02*
X96174D01*
X92059Y76256D02*
X96140D01*
X92160Y76189D02*
X96107D01*
X92194Y76155D02*
X96073D01*
X92228Y76121D02*
X96039D01*
X92127Y76222D02*
X96140D01*
X92363Y76020D02*
X95972D01*
X92363Y76054D02*
X95972D01*
X92329Y76087D02*
X96006D01*
X92498Y75953D02*
X95871D01*
X92430Y75986D02*
X95938D01*
X92565Y75885D02*
X95837D01*
X92532Y75919D02*
X95871D01*
X92666Y75818D02*
X95770D01*
X92700Y75784D02*
X95736D01*
X92633Y75851D02*
X95837D01*
X92768Y75717D02*
X95702D01*
X92768Y75750D02*
X95736D01*
X92903Y75615D02*
X95601D01*
X92869Y75683D02*
X95668D01*
X92903Y75649D02*
X95635D01*
X92970Y75582D02*
X95601D01*
X93037Y75548D02*
X95567D01*
X93071Y75514D02*
X95533D01*
X93105Y75480D02*
X95500D01*
X93172Y75447D02*
X95500D01*
X93206Y75413D02*
X95567D01*
X93274Y75379D02*
X95601D01*
X93307Y75345D02*
X95635D01*
X93341Y75312D02*
X95702D01*
X94353Y76324D02*
X96208D01*
X94387Y76357D02*
X96242D01*
X94387Y76391D02*
X96275D01*
X94420Y76425D02*
X96275D01*
X94454Y76459D02*
X96309D01*
X94488Y76492D02*
X96343D01*
X94521Y76526D02*
X96377D01*
X94555Y76560D02*
X96410D01*
X94555Y76593D02*
X96410D01*
X94589Y76627D02*
X96444D01*
X94623Y76661D02*
X96512D01*
X94656Y76695D02*
X96512D01*
X94656Y76728D02*
X96545D01*
X94690Y76762D02*
X96545D01*
X94724Y76796D02*
X96613D01*
X94791Y76829D02*
X96646D01*
X94791Y76863D02*
X96646D01*
X94825Y76897D02*
X96680D01*
X94825Y76931D02*
X96714D01*
X94893Y76964D02*
X96748D01*
X94926Y77032D02*
X96781D01*
X94926Y76998D02*
X96781D01*
X94960Y77066D02*
X96815D01*
X94994Y77099D02*
X96849D01*
X95027Y77133D02*
X96882D01*
X95061Y77167D02*
X96916D01*
X95061Y77201D02*
X96950D01*
X95095Y77234D02*
X96950D01*
X95129Y77268D02*
X96984D01*
X95162Y77302D02*
X97017D01*
X95196Y77335D02*
X97051D01*
X95196Y77369D02*
X97085D01*
X95230Y77403D02*
X97085D01*
X94994Y74098D02*
X97321D01*
X94791Y74232D02*
X97152D01*
X94859Y74199D02*
X97220D01*
X94926Y74165D02*
X97254D01*
X94926Y74131D02*
X97287D01*
X103257Y67993D02*
X104809D01*
X103325Y67959D02*
X104842D01*
X103358Y67925D02*
X104842D01*
X103426Y67891D02*
X104842D01*
X103426Y67858D02*
X104842D01*
X103527Y67824D02*
X104876D01*
X103561Y67790D02*
X104876D01*
X103595Y67756D02*
X104910D01*
X103628Y67723D02*
X104910D01*
X103729Y67655D02*
X104910D01*
X103763Y67622D02*
X104910D01*
X103696Y67689D02*
X104910D01*
X103831Y67588D02*
X104910D01*
X104472Y67116D02*
X105045D01*
X103864Y67554D02*
X104944D01*
X103932Y67520D02*
X104944D01*
X103965Y67487D02*
X104977D01*
X103999Y67453D02*
X104977D01*
X104067Y67419D02*
X104977D01*
X104101Y67386D02*
X104977D01*
X104134Y67352D02*
X105011D01*
X104168Y67318D02*
X105011D01*
X104303Y67251D02*
X105045D01*
X104337Y67217D02*
X105045D01*
X104370Y67183D02*
X105045D01*
X104235Y67284D02*
X105045D01*
X104438Y67149D02*
X105045D01*
X102684Y68431D02*
X104674D01*
X102718Y68397D02*
X104708D01*
X102785Y68364D02*
X104708D01*
X102819Y68330D02*
X104708D01*
X102852Y68296D02*
X104741D01*
X102886Y68262D02*
X104741D01*
X102954Y68229D02*
X104741D01*
X103021Y68195D02*
X104775D01*
X103021Y68161D02*
X104775D01*
X103156Y68094D02*
X104775D01*
X103190Y68060D02*
X104775D01*
X103089Y68128D02*
X104775D01*
X103224Y68026D02*
X104809D01*
X102481Y68566D02*
X104640D01*
X102515Y68532D02*
X104640D01*
X102616Y68498D02*
X104674D01*
X102481Y68600D02*
X104640D01*
X102616Y68465D02*
X104674D01*
X104505Y67082D02*
X105079D01*
X104539Y67048D02*
X105079D01*
X104640Y67014D02*
X105112D01*
X104640Y66981D02*
X105112D01*
X104674Y66947D02*
X105112D01*
X104741Y66913D02*
X105146D01*
X104809Y66879D02*
X105146D01*
X104842Y66846D02*
X105146D01*
X104876Y66812D02*
X105180D01*
X104910Y66778D02*
X105180D01*
X104977Y66745D02*
X105180D01*
X105045Y66677D02*
X105180D01*
X105011Y66711D02*
X105180D01*
X105079Y66643D02*
X105180D01*
M02*
