G04*
G04 #@! TF.GenerationSoftware,Altium Limited,Altium Designer,22.2.1 (43)*
G04*
G04 Layer_Color=8421504*
%FSLAX25Y25*%
%MOIN*%
G70*
G04*
G04 #@! TF.SameCoordinates,5917ED16-7F16-4460-A846-6834CAD0EC44*
G04*
G04*
G04 #@! TF.FilePolarity,Positive*
G04*
G01*
G75*
%ADD24R,0.03000X0.03000*%
G04:AMPARAMS|DCode=25|XSize=40mil|YSize=35mil|CornerRadius=0mil|HoleSize=0mil|Usage=FLASHONLY|Rotation=180.000|XOffset=0mil|YOffset=0mil|HoleType=Round|Shape=Octagon|*
%AMOCTAGOND25*
4,1,8,-0.02000,0.00875,-0.02000,-0.00875,-0.01125,-0.01750,0.01125,-0.01750,0.02000,-0.00875,0.02000,0.00875,0.01125,0.01750,-0.01125,0.01750,-0.02000,0.00875,0.0*
%
%ADD25OCTAGOND25*%

%ADD26R,0.04000X0.03500*%
%ADD27R,0.15748X0.15748*%
%ADD28R,0.00787X0.02618*%
%ADD29R,0.02618X0.00787*%
%ADD30R,0.03000X0.03000*%
%ADD31R,0.04720X0.03150*%
%ADD32R,0.04720X0.02760*%
%ADD33R,0.02165X0.05906*%
%ADD34O,0.02165X0.05906*%
%ADD35R,0.12598X0.09055*%
%ADD36R,0.01968X0.04724*%
%ADD37R,0.05118X0.01181*%
%ADD38R,0.08661X0.07087*%
%ADD39R,0.01772X0.03937*%
%ADD40R,0.03543X0.11811*%
%ADD41R,0.03937X0.05118*%
G04:AMPARAMS|DCode=42|XSize=47.24mil|YSize=31.5mil|CornerRadius=0mil|HoleSize=0mil|Usage=FLASHONLY|Rotation=45.000|XOffset=0mil|YOffset=0mil|HoleType=Round|Shape=Rectangle|*
%AMROTATEDRECTD42*
4,1,4,-0.00557,-0.02784,-0.02784,-0.00557,0.00557,0.02784,0.02784,0.00557,-0.00557,-0.02784,0.0*
%
%ADD42ROTATEDRECTD42*%

G04:AMPARAMS|DCode=43|XSize=47.24mil|YSize=31.5mil|CornerRadius=0mil|HoleSize=0mil|Usage=FLASHONLY|Rotation=315.000|XOffset=0mil|YOffset=0mil|HoleType=Round|Shape=Rectangle|*
%AMROTATEDRECTD43*
4,1,4,-0.02784,0.00557,-0.00557,0.02784,0.02784,-0.00557,0.00557,-0.02784,-0.02784,0.00557,0.0*
%
%ADD43ROTATEDRECTD43*%

%ADD44R,0.05118X0.04724*%
%ADD45R,0.07874X0.03347*%
%ADD46R,0.07874X0.12598*%
%ADD47R,0.03937X0.03150*%
G04:AMPARAMS|DCode=48|XSize=39.37mil|YSize=31.5mil|CornerRadius=0mil|HoleSize=0mil|Usage=FLASHONLY|Rotation=180.000|XOffset=0mil|YOffset=0mil|HoleType=Round|Shape=Octagon|*
%AMOCTAGOND48*
4,1,8,-0.01968,0.00787,-0.01968,-0.00787,-0.01181,-0.01575,0.01181,-0.01575,0.01968,-0.00787,0.01968,0.00787,0.01181,0.01575,-0.01181,0.01575,-0.01968,0.00787,0.0*
%
%ADD48OCTAGOND48*%

%ADD49R,0.01181X0.05906*%
%ADD50R,0.07087X0.02165*%
%ADD51O,0.07087X0.02165*%
%ADD52R,0.04724X0.02559*%
%ADD53R,0.09843X0.04724*%
%ADD54R,0.20276X0.11811*%
G36*
X93630Y62107D02*
X92842D01*
Y64725D01*
X93630D01*
Y62107D01*
D02*
G37*
G36*
X92055D02*
X91267D01*
Y64725D01*
X92055D01*
Y62107D01*
D02*
G37*
G36*
X90480D02*
X89692D01*
Y64725D01*
X90480D01*
Y62107D01*
D02*
G37*
G36*
X88906D02*
X88118D01*
Y64725D01*
X88906D01*
Y62107D01*
D02*
G37*
G36*
X87331D02*
X86543D01*
Y64725D01*
X87331D01*
Y62107D01*
D02*
G37*
G36*
X85756D02*
X84968D01*
Y64725D01*
X85756D01*
Y62107D01*
D02*
G37*
G36*
X84181D02*
X83393D01*
Y64725D01*
X84181D01*
Y62107D01*
D02*
G37*
G36*
X82606D02*
X81818D01*
Y64725D01*
X82606D01*
Y62107D01*
D02*
G37*
G36*
X81032D02*
X80244D01*
Y64725D01*
X81032D01*
Y62107D01*
D02*
G37*
G36*
X79457D02*
X78669D01*
Y64725D01*
X79457D01*
Y62107D01*
D02*
G37*
G36*
X77882D02*
X77094D01*
Y64725D01*
X77882D01*
Y62107D01*
D02*
G37*
G36*
X76307D02*
X75519D01*
Y64725D01*
X76307D01*
Y62107D01*
D02*
G37*
G36*
X74732D02*
X73944D01*
Y64725D01*
X74732D01*
Y62107D01*
D02*
G37*
G36*
X73158D02*
X72370D01*
Y64725D01*
X73158D01*
Y62107D01*
D02*
G37*
G36*
X97724Y59843D02*
X95106D01*
Y60631D01*
X97724D01*
Y59843D01*
D02*
G37*
G36*
X70893D02*
X68275D01*
Y60631D01*
X70893D01*
Y59843D01*
D02*
G37*
G36*
X97724Y58268D02*
X95106D01*
Y59056D01*
X97724D01*
Y58268D01*
D02*
G37*
G36*
X70893D02*
X68275D01*
Y59056D01*
X70893D01*
Y58268D01*
D02*
G37*
G36*
X97724Y56693D02*
X95106D01*
Y57481D01*
X97724D01*
Y56693D01*
D02*
G37*
G36*
X70893D02*
X68275D01*
Y57481D01*
X70893D01*
Y56693D01*
D02*
G37*
G36*
X97724Y55119D02*
X95106D01*
Y55907D01*
X97724D01*
Y55119D01*
D02*
G37*
G36*
X70893D02*
X68275D01*
Y55907D01*
X70893D01*
Y55119D01*
D02*
G37*
G36*
X97724Y53544D02*
X95106D01*
Y54332D01*
X97724D01*
Y53544D01*
D02*
G37*
G36*
X70893D02*
X68275D01*
Y54332D01*
X70893D01*
Y53544D01*
D02*
G37*
G36*
X97724Y51969D02*
X95106D01*
Y52757D01*
X97724D01*
Y51969D01*
D02*
G37*
G36*
X70893D02*
X68275D01*
Y52757D01*
X70893D01*
Y51969D01*
D02*
G37*
G36*
X97724Y50394D02*
X95106D01*
Y51182D01*
X97724D01*
Y50394D01*
D02*
G37*
G36*
X70893D02*
X68275D01*
Y51182D01*
X70893D01*
Y50394D01*
D02*
G37*
G36*
X97724Y48819D02*
X95106D01*
Y49607D01*
X97724D01*
Y48819D01*
D02*
G37*
G36*
X70893D02*
X68275D01*
Y49607D01*
X70893D01*
Y48819D01*
D02*
G37*
G36*
X97724Y47245D02*
X95106D01*
Y48033D01*
X97724D01*
Y47245D01*
D02*
G37*
G36*
X70893D02*
X68275D01*
Y48033D01*
X70893D01*
Y47245D01*
D02*
G37*
G36*
X97724Y45670D02*
X95106D01*
Y46458D01*
X97724D01*
Y45670D01*
D02*
G37*
G36*
X70893D02*
X68275D01*
Y46458D01*
X70893D01*
Y45670D01*
D02*
G37*
G36*
X97724Y44095D02*
X95106D01*
Y44883D01*
X97724D01*
Y44095D01*
D02*
G37*
G36*
X70893D02*
X68275D01*
Y44883D01*
X70893D01*
Y44095D01*
D02*
G37*
G36*
X89299Y43702D02*
X76701D01*
Y56300D01*
X89299D01*
Y43702D01*
D02*
G37*
G36*
X97724Y42520D02*
X95106D01*
Y43308D01*
X97724D01*
Y42520D01*
D02*
G37*
G36*
X70893D02*
X68275D01*
Y43308D01*
X70893D01*
Y42520D01*
D02*
G37*
G36*
X97724Y40945D02*
X95106D01*
Y41733D01*
X97724D01*
Y40945D01*
D02*
G37*
G36*
X70893D02*
X68275D01*
Y41733D01*
X70893D01*
Y40945D01*
D02*
G37*
G36*
X202286Y43840D02*
X202895Y43231D01*
X203225Y42436D01*
Y41574D01*
X202895Y40779D01*
X202286Y40170D01*
X201491Y39840D01*
X197479D01*
X196684Y40170D01*
X196075Y40779D01*
X195745Y41574D01*
Y42436D01*
X196075Y43231D01*
X196684Y43840D01*
X197479Y44170D01*
X201491D01*
X202286Y43840D01*
D02*
G37*
G36*
X187316D02*
X187925Y43231D01*
X188255Y42436D01*
Y41574D01*
X187925Y40779D01*
X187316Y40170D01*
X186521Y39840D01*
X182509D01*
X181714Y40170D01*
X181105Y40779D01*
X180775Y41574D01*
Y42436D01*
X181105Y43231D01*
X181714Y43840D01*
X182509Y44170D01*
X186521D01*
X187316Y43840D01*
D02*
G37*
G36*
X15286D02*
X15895Y43231D01*
X16225Y42436D01*
Y41574D01*
X15895Y40779D01*
X15286Y40170D01*
X14491Y39840D01*
X10479D01*
X9684Y40170D01*
X9075Y40779D01*
X8745Y41574D01*
Y42436D01*
X9075Y43231D01*
X9684Y43840D01*
X10479Y44170D01*
X14491D01*
X15286Y43840D01*
D02*
G37*
G36*
X316D02*
X925Y43231D01*
X1255Y42436D01*
Y41574D01*
X925Y40779D01*
X316Y40170D01*
X-479Y39840D01*
X-4491D01*
X-5286Y40170D01*
X-5895Y40779D01*
X-6225Y41574D01*
Y42436D01*
X-5895Y43231D01*
X-5286Y43840D01*
X-4491Y44170D01*
X-479D01*
X316Y43840D01*
D02*
G37*
G36*
X97724Y39371D02*
X95106D01*
Y40159D01*
X97724D01*
Y39371D01*
D02*
G37*
G36*
X70893D02*
X68275D01*
Y40159D01*
X70893D01*
Y39371D01*
D02*
G37*
G36*
X93630Y35276D02*
X92842D01*
Y37894D01*
X93630D01*
Y35276D01*
D02*
G37*
G36*
X92055D02*
X91267D01*
Y37894D01*
X92055D01*
Y35276D01*
D02*
G37*
G36*
X90480D02*
X89692D01*
Y37894D01*
X90480D01*
Y35276D01*
D02*
G37*
G36*
X88906D02*
X88118D01*
Y37894D01*
X88906D01*
Y35276D01*
D02*
G37*
G36*
X87331D02*
X86543D01*
Y37894D01*
X87331D01*
Y35276D01*
D02*
G37*
G36*
X85756D02*
X84968D01*
Y37894D01*
X85756D01*
Y35276D01*
D02*
G37*
G36*
X84181D02*
X83393D01*
Y37894D01*
X84181D01*
Y35276D01*
D02*
G37*
G36*
X82606D02*
X81818D01*
Y37894D01*
X82606D01*
Y35276D01*
D02*
G37*
G36*
X81032D02*
X80244D01*
Y37894D01*
X81032D01*
Y35276D01*
D02*
G37*
G36*
X79457D02*
X78669D01*
Y37894D01*
X79457D01*
Y35276D01*
D02*
G37*
G36*
X77882D02*
X77094D01*
Y37894D01*
X77882D01*
Y35276D01*
D02*
G37*
G36*
X76307D02*
X75519D01*
Y37894D01*
X76307D01*
Y35276D01*
D02*
G37*
G36*
X74732D02*
X73944D01*
Y37894D01*
X74732D01*
Y35276D01*
D02*
G37*
G36*
X73158D02*
X72370D01*
Y37894D01*
X73158D01*
Y35276D01*
D02*
G37*
G36*
X186880Y34060D02*
X182160D01*
Y37200D01*
X186880D01*
Y34060D01*
D02*
G37*
G36*
X14840D02*
X10120D01*
Y37200D01*
X14840D01*
Y34060D01*
D02*
G37*
G36*
X186880Y29530D02*
X182160D01*
Y32280D01*
X186880D01*
Y29530D01*
D02*
G37*
G36*
X14840D02*
X10120D01*
Y32280D01*
X14840D01*
Y29530D01*
D02*
G37*
G36*
X186880Y25590D02*
X182160D01*
Y28350D01*
X186880D01*
Y25590D01*
D02*
G37*
G36*
X14840D02*
X10120D01*
Y28350D01*
X14840D01*
Y25590D01*
D02*
G37*
G36*
X186880Y21650D02*
X182160D01*
Y24410D01*
X186880D01*
Y21650D01*
D02*
G37*
G36*
X14840D02*
X10120D01*
Y24410D01*
X14840D01*
Y21650D01*
D02*
G37*
G36*
X186880Y17720D02*
X182160D01*
Y20470D01*
X186880D01*
Y17720D01*
D02*
G37*
G36*
X14840D02*
X10120D01*
Y20470D01*
X14840D01*
Y17720D01*
D02*
G37*
G36*
X186880Y12800D02*
X182160D01*
Y15940D01*
X186880D01*
Y12800D01*
D02*
G37*
G36*
X14840D02*
X10120D01*
Y15940D01*
X14840D01*
Y12800D01*
D02*
G37*
G36*
X202286Y9830D02*
X202895Y9221D01*
X203225Y8426D01*
Y7564D01*
X202895Y6769D01*
X202286Y6160D01*
X201491Y5830D01*
X197479D01*
X196684Y6160D01*
X196075Y6769D01*
X195745Y7564D01*
Y8426D01*
X196075Y9221D01*
X196684Y9830D01*
X197479Y10160D01*
X201491D01*
X202286Y9830D01*
D02*
G37*
G36*
X187316D02*
X187925Y9221D01*
X188255Y8426D01*
Y7564D01*
X187925Y6769D01*
X187316Y6160D01*
X186521Y5830D01*
X182509D01*
X181714Y6160D01*
X181105Y6769D01*
X180775Y7564D01*
Y8426D01*
X181105Y9221D01*
X181714Y9830D01*
X182509Y10160D01*
X186521D01*
X187316Y9830D01*
D02*
G37*
G36*
X15286D02*
X15895Y9221D01*
X16225Y8426D01*
Y7564D01*
X15895Y6769D01*
X15286Y6160D01*
X14491Y5830D01*
X10479D01*
X9684Y6160D01*
X9075Y6769D01*
X8745Y7564D01*
Y8426D01*
X9075Y9221D01*
X9684Y9830D01*
X10479Y10160D01*
X14491D01*
X15286Y9830D01*
D02*
G37*
G36*
X316D02*
X925Y9221D01*
X1255Y8426D01*
Y7564D01*
X925Y6769D01*
X316Y6160D01*
X-479Y5830D01*
X-4491D01*
X-5286Y6160D01*
X-5895Y6769D01*
X-6225Y7564D01*
Y8426D01*
X-5895Y9221D01*
X-5286Y9830D01*
X-4491Y10160D01*
X-479D01*
X316Y9830D01*
D02*
G37*
D24*
X23118Y113000D02*
D03*
X18000D02*
D03*
X70441Y11000D02*
D03*
X75559D02*
D03*
X109000Y35000D02*
D03*
X114118D02*
D03*
X82882Y91000D02*
D03*
X88000D02*
D03*
X54289Y64000D02*
D03*
X59407D02*
D03*
X54289Y58775D02*
D03*
X59407D02*
D03*
X54289Y53549D02*
D03*
X59407D02*
D03*
X64559Y28000D02*
D03*
X59441D02*
D03*
X54441Y34000D02*
D03*
X59559D02*
D03*
X48614Y40033D02*
D03*
X43496D02*
D03*
X38118Y40000D02*
D03*
X33000D02*
D03*
X114142Y30382D02*
D03*
X109024D02*
D03*
D25*
X6000Y113000D02*
D03*
X70000Y6000D02*
D03*
D26*
X12000Y113000D02*
D03*
X76000Y6000D02*
D03*
D27*
X83000Y50001D02*
D03*
D28*
X72764Y63416D02*
D03*
X74338D02*
D03*
X75913D02*
D03*
X77488D02*
D03*
X79063D02*
D03*
X80638D02*
D03*
X82212D02*
D03*
X83787D02*
D03*
X85362D02*
D03*
X86937D02*
D03*
X88512D02*
D03*
X90086D02*
D03*
X91661D02*
D03*
X93236D02*
D03*
Y36585D02*
D03*
X91661D02*
D03*
X90086D02*
D03*
X88512D02*
D03*
X86937D02*
D03*
X85362D02*
D03*
X83787D02*
D03*
X82212D02*
D03*
X80638D02*
D03*
X79063D02*
D03*
X77488D02*
D03*
X75913D02*
D03*
X74338D02*
D03*
X72764D02*
D03*
D29*
X96415Y60237D02*
D03*
Y58662D02*
D03*
Y57087D02*
D03*
Y55513D02*
D03*
Y53938D02*
D03*
Y52363D02*
D03*
Y50788D02*
D03*
Y49213D02*
D03*
Y47639D02*
D03*
Y46064D02*
D03*
Y44489D02*
D03*
Y42914D02*
D03*
Y41339D02*
D03*
Y39765D02*
D03*
X69584D02*
D03*
Y41339D02*
D03*
Y42914D02*
D03*
Y44489D02*
D03*
Y46064D02*
D03*
Y47639D02*
D03*
Y49213D02*
D03*
Y50788D02*
D03*
Y52363D02*
D03*
Y53938D02*
D03*
Y55513D02*
D03*
Y57087D02*
D03*
Y58662D02*
D03*
Y60237D02*
D03*
D30*
X27000Y21118D02*
D03*
Y16000D02*
D03*
X143000Y50441D02*
D03*
Y55559D02*
D03*
X154000Y38535D02*
D03*
Y33417D02*
D03*
X132000Y38559D02*
D03*
Y33441D02*
D03*
X127000Y38559D02*
D03*
Y33441D02*
D03*
X88098Y22615D02*
D03*
Y27733D02*
D03*
X82098Y22615D02*
D03*
Y27733D02*
D03*
X120000Y19559D02*
D03*
Y14441D02*
D03*
X127500Y84882D02*
D03*
Y90000D02*
D03*
X122000Y84882D02*
D03*
Y90000D02*
D03*
X101485Y80976D02*
D03*
Y75858D02*
D03*
X96485Y81000D02*
D03*
Y75882D02*
D03*
X91485D02*
D03*
Y81000D02*
D03*
X69000D02*
D03*
Y75882D02*
D03*
X64000D02*
D03*
Y81000D02*
D03*
X59000D02*
D03*
Y75882D02*
D03*
X50000D02*
D03*
Y81000D02*
D03*
X44322Y75882D02*
D03*
Y81000D02*
D03*
X38678Y75858D02*
D03*
Y80976D02*
D03*
X33000Y75858D02*
D03*
Y80976D02*
D03*
X59348Y42882D02*
D03*
Y48000D02*
D03*
X54290Y42882D02*
D03*
Y48000D02*
D03*
X27000Y45559D02*
D03*
Y40441D02*
D03*
X22000Y45559D02*
D03*
Y40441D02*
D03*
X133000Y90000D02*
D03*
X27000Y11118D02*
D03*
X133000Y84882D02*
D03*
X27000Y6000D02*
D03*
D31*
X12480Y35630D02*
D03*
Y14370D02*
D03*
X184520D02*
D03*
Y35630D02*
D03*
D32*
X12480Y30910D02*
D03*
Y26970D02*
D03*
Y23030D02*
D03*
Y19090D02*
D03*
X184520D02*
D03*
Y23030D02*
D03*
Y26970D02*
D03*
Y30910D02*
D03*
D33*
X32897Y47642D02*
D03*
D34*
X36834D02*
D03*
X40771D02*
D03*
X48645D02*
D03*
X44708D02*
D03*
X32897Y68527D02*
D03*
X36834D02*
D03*
X48645D02*
D03*
X44708D02*
D03*
X40771D02*
D03*
D35*
Y58084D02*
D03*
D36*
X143000Y42910D02*
D03*
X146740Y33910D02*
D03*
X139260D02*
D03*
D37*
X127941Y52231D02*
D03*
Y66011D02*
D03*
Y64042D02*
D03*
Y62074D02*
D03*
Y60105D02*
D03*
Y58137D02*
D03*
Y56168D02*
D03*
Y54200D02*
D03*
D38*
X118110Y72507D02*
D03*
X118110Y45735D02*
D03*
D39*
X113740Y11500D02*
D03*
X110000D02*
D03*
X106260D02*
D03*
Y22500D02*
D03*
X110000D02*
D03*
X113740D02*
D03*
D40*
X149694Y104146D02*
D03*
X112686D02*
D03*
D41*
X127252Y98437D02*
D03*
X135126D02*
D03*
X119379D02*
D03*
X143001D02*
D03*
D42*
X116702Y114422D02*
D03*
D43*
X145678Y114423D02*
D03*
D44*
X84134Y83346D02*
D03*
X75866D02*
D03*
Y76653D02*
D03*
X84134D02*
D03*
D45*
X35000Y26055D02*
D03*
Y17000D02*
D03*
Y7945D02*
D03*
D46*
X60500Y17000D02*
D03*
D47*
X40512Y88000D02*
D03*
D48*
X29488D02*
D03*
D49*
X57047Y93079D02*
D03*
X60984D02*
D03*
X62953D02*
D03*
X59016D02*
D03*
X70039D02*
D03*
X51142D02*
D03*
X68858D02*
D03*
X49961D02*
D03*
X73189D02*
D03*
X72008D02*
D03*
X66890D02*
D03*
X64921D02*
D03*
X55079D02*
D03*
X53110D02*
D03*
X47992D02*
D03*
X46811D02*
D03*
D50*
X84665Y112500D02*
D03*
D51*
Y107500D02*
D03*
X105335D02*
D03*
Y102500D02*
D03*
X84665D02*
D03*
Y97500D02*
D03*
X105335Y112500D02*
D03*
Y97500D02*
D03*
D52*
X21638Y97461D02*
D03*
X4708D02*
D03*
Y90539D02*
D03*
X21638D02*
D03*
X4708Y82075D02*
D03*
X21638D02*
D03*
Y105925D02*
D03*
X4708D02*
D03*
D53*
X153568Y64866D02*
D03*
Y74709D02*
D03*
Y82583D02*
D03*
Y92425D02*
D03*
D54*
X164986Y50299D02*
D03*
Y106992D02*
D03*
M02*
