M48
;Layer_Color=9474304
;FILE_FORMAT=2:5
INCH,LZ
;TYPE=PLATED
T3F00S00C0.02362
T5F00S00C0.02760
;TYPE=NON_PLATED
%
G90
G05
T03
G00X0068028Y0138339
M15
G01Y0134008
M16
G00X0068028Y0153102
M15
G01Y015074
M16
G00X0033972Y0153102
M15
G01Y015074
M16
G00X0033972Y0138339
M15
G01Y0134008
M16
T05
G00X-0002055Y004399
M15
G01X0001095
M16
G00X0012905Y004399
M15
G01X0016055
M16
G00X0223595Y009299
M15
G01X0220445
M16
G00X0238555Y009299
M15
G01X0235405
M16
G00X0238555Y012701
M15
G01X0235405
M16
G00X0223595Y012701
M15
G01X0220445
M16
G00X0012905Y007801
M15
G01X0016055
M16
G00X-0002055Y007801
M15
G01X0001095
M16
M17
M30
