G04*
G04 #@! TF.GenerationSoftware,Altium Limited,Altium Designer,22.2.1 (43)*
G04*
G04 Layer_Color=32896*
%FSLAX25Y25*%
%MOIN*%
G70*
G04*
G04 #@! TF.SameCoordinates,8776665F-13AD-43F5-9AD3-E0C3E71DBBC6*
G04*
G04*
G04 #@! TF.FilePolarity,Positive*
G04*
G01*
G75*
%ADD10C,0.01000*%
G36*
X130477Y118222D02*
Y117733D01*
X129794Y117867D01*
Y115610D01*
X129205D01*
Y118391D01*
X129641D01*
X130477Y118222D01*
D02*
G37*
G36*
X128113D02*
Y117733D01*
X127429Y117867D01*
Y115610D01*
X126841D01*
Y118391D01*
X127276D01*
X128113Y118222D01*
D02*
G37*
G36*
X133159Y115610D02*
X132548D01*
Y116622D01*
X132246D01*
X131593Y115610D01*
X130875D01*
X131658Y116687D01*
X131562Y116721D01*
X131482Y116763D01*
X131417Y116809D01*
X131360Y116855D01*
X131318Y116897D01*
X131287Y116931D01*
X131272Y116954D01*
X131264Y116958D01*
Y116962D01*
X131222Y117042D01*
X131188Y117130D01*
X131165Y117222D01*
X131150Y117309D01*
X131142Y117386D01*
X131138Y117420D01*
X131134Y117451D01*
Y117474D01*
Y117493D01*
Y117504D01*
Y117508D01*
X131138Y117596D01*
X131146Y117672D01*
X131154Y117745D01*
X131165Y117802D01*
X131180Y117852D01*
X131188Y117886D01*
X131196Y117909D01*
X131200Y117917D01*
X131226Y117978D01*
X131257Y118031D01*
X131287Y118077D01*
X131318Y118115D01*
X131349Y118146D01*
X131371Y118169D01*
X131387Y118184D01*
X131394Y118188D01*
X131444Y118226D01*
X131501Y118257D01*
X131555Y118283D01*
X131608Y118306D01*
X131654Y118322D01*
X131692Y118333D01*
X131708Y118337D01*
X131719D01*
X131723Y118341D01*
X131727D01*
X131807Y118356D01*
X131887Y118371D01*
X131967Y118379D01*
X132044Y118383D01*
X132113Y118387D01*
X132139Y118391D01*
X133159D01*
Y115610D01*
D02*
G37*
G36*
X18685Y51000D02*
X14000D01*
Y68152D01*
X18685D01*
Y51000D01*
D02*
G37*
G36*
X215685Y119427D02*
Y97000D01*
X211000D01*
Y119427D01*
X215685D01*
D02*
G37*
G36*
Y47000D02*
X211000D01*
Y69427D01*
X215685D01*
Y47000D01*
D02*
G37*
G36*
X184000Y130000D02*
X166548D01*
Y134685D01*
X184000D01*
Y130000D01*
D02*
G37*
G36*
X205000D02*
X188463D01*
Y134685D01*
X205000D01*
Y130000D01*
D02*
G37*
G36*
X97709Y110558D02*
Y109536D01*
X97138D01*
Y110569D01*
X96193Y112120D01*
X96833D01*
X97408Y111087D01*
X97429D01*
X97983Y112120D01*
X98647D01*
X97709Y110558D01*
D02*
G37*
G36*
X105750Y109536D02*
X105189D01*
Y111502D01*
X105168D01*
X104273Y109536D01*
X103492D01*
Y112120D01*
X104050D01*
Y110270D01*
X104071D01*
X104884Y112120D01*
X105750D01*
Y109536D01*
D02*
G37*
G36*
X101806Y112155D02*
X101909Y112148D01*
X102001Y112138D01*
X102079Y112127D01*
X102115Y112120D01*
X102147Y112113D01*
X102175Y112106D01*
X102197Y112102D01*
X102214Y112099D01*
X102228Y112095D01*
X102236Y112092D01*
X102239D01*
X102324Y112063D01*
X102402Y112028D01*
X102470Y111992D01*
X102530Y111953D01*
X102580Y111921D01*
X102615Y111893D01*
X102626Y111882D01*
X102637Y111875D01*
X102640Y111871D01*
X102644Y111868D01*
X102704Y111804D01*
X102754Y111737D01*
X102800Y111669D01*
X102836Y111605D01*
X102864Y111545D01*
X102878Y111520D01*
X102885Y111499D01*
X102892Y111481D01*
X102900Y111467D01*
X102903Y111460D01*
Y111456D01*
X102931Y111357D01*
X102953Y111250D01*
X102971Y111144D01*
X102981Y111048D01*
X102985Y111002D01*
X102988Y110959D01*
Y110924D01*
X102992Y110892D01*
Y110863D01*
Y110845D01*
Y110831D01*
Y110828D01*
Y110753D01*
X102988Y110682D01*
X102985Y110615D01*
X102978Y110551D01*
X102971Y110491D01*
X102963Y110437D01*
X102956Y110388D01*
X102946Y110341D01*
X102938Y110299D01*
X102931Y110263D01*
X102924Y110231D01*
X102917Y110206D01*
X102910Y110189D01*
X102907Y110171D01*
X102903Y110164D01*
Y110160D01*
X102867Y110068D01*
X102825Y109986D01*
X102786Y109919D01*
X102743Y109862D01*
X102708Y109816D01*
X102679Y109784D01*
X102658Y109763D01*
X102651Y109759D01*
Y109756D01*
X102587Y109706D01*
X102520Y109663D01*
X102452Y109628D01*
X102388Y109599D01*
X102335Y109578D01*
X102310Y109571D01*
X102289Y109564D01*
X102271Y109560D01*
X102260Y109557D01*
X102253Y109553D01*
X102250D01*
X102157Y109536D01*
X102065Y109521D01*
X101976Y109514D01*
X101891Y109507D01*
X101856Y109503D01*
X101820D01*
X101788Y109500D01*
X101625D01*
X101540Y109503D01*
X101462Y109511D01*
X101391Y109518D01*
X101330Y109521D01*
X101309Y109525D01*
X101288Y109528D01*
X101270D01*
X101259Y109532D01*
X101249D01*
X101167Y109546D01*
X101096Y109557D01*
X101032Y109571D01*
X100975Y109585D01*
X100933Y109596D01*
X100901Y109607D01*
X100883Y109610D01*
X100876Y109614D01*
Y111030D01*
X101841D01*
Y110554D01*
X101401D01*
Y109997D01*
X101447Y109986D01*
X101490Y109983D01*
X101508Y109979D01*
X101522Y109976D01*
X101533D01*
X101582Y109972D01*
X101746D01*
X101810Y109979D01*
X101863Y109983D01*
X101912Y109990D01*
X101948Y109997D01*
X101976Y110001D01*
X101994Y110008D01*
X102001D01*
X102048Y110025D01*
X102090Y110047D01*
X102126Y110068D01*
X102157Y110089D01*
X102182Y110111D01*
X102200Y110128D01*
X102211Y110139D01*
X102214Y110143D01*
X102243Y110182D01*
X102268Y110224D01*
X102289Y110267D01*
X102307Y110309D01*
X102317Y110345D01*
X102328Y110373D01*
X102331Y110395D01*
X102335Y110402D01*
X102346Y110469D01*
X102356Y110540D01*
X102363Y110611D01*
X102367Y110679D01*
Y110735D01*
X102371Y110764D01*
Y110785D01*
Y110803D01*
Y110817D01*
Y110824D01*
Y110828D01*
X102367Y110916D01*
X102363Y110995D01*
X102356Y111066D01*
X102349Y111122D01*
X102342Y111172D01*
X102335Y111207D01*
X102331Y111218D01*
X102328Y111229D01*
Y111232D01*
Y111236D01*
X102310Y111293D01*
X102289Y111346D01*
X102268Y111389D01*
X102246Y111428D01*
X102228Y111456D01*
X102214Y111477D01*
X102204Y111492D01*
X102200Y111495D01*
X102165Y111531D01*
X102129Y111559D01*
X102090Y111584D01*
X102055Y111602D01*
X102023Y111616D01*
X101998Y111626D01*
X101984Y111634D01*
X101976D01*
X101923Y111648D01*
X101866Y111655D01*
X101813Y111662D01*
X101763Y111669D01*
X101717D01*
X101685Y111673D01*
X101590D01*
X101529Y111669D01*
X101472Y111665D01*
X101419Y111662D01*
X101376Y111655D01*
X101345Y111651D01*
X101323Y111648D01*
X101316D01*
X101252Y111637D01*
X101196Y111626D01*
X101142Y111612D01*
X101093Y111598D01*
X101053Y111587D01*
X101025Y111577D01*
X101007Y111573D01*
X101000Y111570D01*
Y112063D01*
X101046Y112081D01*
X101093Y112092D01*
X101114Y112095D01*
X101128Y112099D01*
X101139Y112102D01*
X101142D01*
X101202Y112113D01*
X101234Y112120D01*
X101259Y112124D01*
X101284Y112127D01*
X101302D01*
X101313Y112130D01*
X101316D01*
X101384Y112141D01*
X101416Y112145D01*
X101444Y112148D01*
X101469D01*
X101487Y112152D01*
X101504D01*
X101575Y112155D01*
X101607Y112159D01*
X101696D01*
X101806Y112155D01*
D02*
G37*
G36*
X110500Y109536D02*
X108903D01*
Y110025D01*
X109932D01*
Y112120D01*
X110500D01*
Y109536D01*
D02*
G37*
G36*
X100340D02*
X98742D01*
Y110025D01*
X99772D01*
Y112120D01*
X100340D01*
Y109536D01*
D02*
G37*
G36*
X94940D02*
X94372D01*
Y110476D01*
X94092D01*
X93485Y109536D01*
X92817D01*
X93545Y110537D01*
X93456Y110569D01*
X93382Y110608D01*
X93322Y110650D01*
X93268Y110693D01*
X93229Y110732D01*
X93201Y110764D01*
X93187Y110785D01*
X93180Y110789D01*
Y110792D01*
X93141Y110867D01*
X93109Y110948D01*
X93087Y111034D01*
X93073Y111115D01*
X93066Y111186D01*
X93062Y111218D01*
X93059Y111247D01*
Y111268D01*
Y111286D01*
Y111296D01*
Y111300D01*
X93062Y111381D01*
X93069Y111452D01*
X93077Y111520D01*
X93087Y111573D01*
X93101Y111619D01*
X93109Y111651D01*
X93116Y111673D01*
X93119Y111680D01*
X93144Y111737D01*
X93173Y111786D01*
X93201Y111829D01*
X93229Y111864D01*
X93258Y111893D01*
X93279Y111914D01*
X93293Y111928D01*
X93300Y111932D01*
X93346Y111967D01*
X93400Y111996D01*
X93449Y112021D01*
X93499Y112042D01*
X93542Y112056D01*
X93577Y112067D01*
X93591Y112070D01*
X93602D01*
X93606Y112074D01*
X93609D01*
X93684Y112088D01*
X93758Y112102D01*
X93833Y112109D01*
X93904Y112113D01*
X93968Y112116D01*
X93993Y112120D01*
X94940D01*
Y109536D01*
D02*
G37*
G36*
X92519D02*
X90886D01*
Y110025D01*
X91951D01*
Y110622D01*
X91010D01*
Y111094D01*
X91951D01*
Y111630D01*
X90936D01*
Y112120D01*
X92519D01*
Y109536D01*
D02*
G37*
G36*
X88270D02*
X87702D01*
Y112120D01*
X88270D01*
Y109536D01*
D02*
G37*
G36*
X85196Y111626D02*
X84514D01*
Y109536D01*
X83953D01*
Y111626D01*
X83275D01*
Y112120D01*
X85196D01*
Y111626D01*
D02*
G37*
G36*
X80140Y109536D02*
X79572D01*
Y110476D01*
X79292D01*
X78685Y109536D01*
X78017D01*
X78745Y110537D01*
X78657Y110568D01*
X78582Y110608D01*
X78522Y110650D01*
X78468Y110693D01*
X78429Y110732D01*
X78401Y110764D01*
X78387Y110785D01*
X78380Y110789D01*
Y110792D01*
X78341Y110867D01*
X78309Y110948D01*
X78287Y111034D01*
X78273Y111115D01*
X78266Y111186D01*
X78263Y111218D01*
X78259Y111247D01*
Y111268D01*
Y111286D01*
Y111296D01*
Y111300D01*
X78263Y111381D01*
X78270Y111452D01*
X78277Y111520D01*
X78287Y111573D01*
X78302Y111619D01*
X78309Y111651D01*
X78316Y111673D01*
X78319Y111680D01*
X78344Y111737D01*
X78373Y111786D01*
X78401Y111829D01*
X78429Y111864D01*
X78458Y111893D01*
X78479Y111914D01*
X78493Y111928D01*
X78500Y111932D01*
X78547Y111967D01*
X78600Y111996D01*
X78649Y112021D01*
X78699Y112042D01*
X78742Y112056D01*
X78777Y112067D01*
X78791Y112070D01*
X78802D01*
X78806Y112074D01*
X78809D01*
X78884Y112088D01*
X78958Y112102D01*
X79033Y112109D01*
X79104Y112113D01*
X79168Y112116D01*
X79193Y112120D01*
X80140D01*
Y109536D01*
D02*
G37*
G36*
X107532Y112155D02*
X107624Y112148D01*
X107710Y112141D01*
X107784Y112130D01*
X107816Y112124D01*
X107845Y112116D01*
X107870Y112113D01*
X107891Y112109D01*
X107908Y112106D01*
X107919Y112102D01*
X107926Y112099D01*
X107930D01*
X108008Y112074D01*
X108079Y112038D01*
X108139Y112006D01*
X108193Y111971D01*
X108235Y111939D01*
X108267Y111910D01*
X108288Y111893D01*
X108292Y111889D01*
X108296Y111886D01*
X108349Y111825D01*
X108395Y111758D01*
X108434Y111690D01*
X108466Y111626D01*
X108491Y111566D01*
X108501Y111541D01*
X108512Y111520D01*
X108519Y111502D01*
X108523Y111488D01*
X108526Y111481D01*
Y111477D01*
X108551Y111374D01*
X108572Y111268D01*
X108587Y111158D01*
X108594Y111058D01*
X108597Y111009D01*
X108601Y110966D01*
Y110927D01*
X108604Y110895D01*
Y110867D01*
Y110845D01*
Y110831D01*
Y110828D01*
X108601Y110686D01*
X108597Y110622D01*
X108594Y110558D01*
X108587Y110501D01*
X108579Y110448D01*
X108572Y110398D01*
X108565Y110352D01*
X108558Y110313D01*
X108551Y110277D01*
X108544Y110246D01*
X108537Y110221D01*
X108533Y110199D01*
X108530Y110185D01*
X108526Y110178D01*
Y110175D01*
X108494Y110082D01*
X108455Y110004D01*
X108416Y109933D01*
X108381Y109876D01*
X108345Y109827D01*
X108320Y109795D01*
X108302Y109773D01*
X108296Y109770D01*
Y109766D01*
X108235Y109713D01*
X108175Y109670D01*
X108114Y109635D01*
X108058Y109607D01*
X108004Y109585D01*
X107965Y109567D01*
X107951Y109564D01*
X107940Y109560D01*
X107933Y109557D01*
X107930D01*
X107845Y109539D01*
X107759Y109525D01*
X107674Y109514D01*
X107596Y109507D01*
X107561Y109503D01*
X107500D01*
X107475Y109500D01*
X107429D01*
X107326Y109503D01*
X107230Y109511D01*
X107145Y109518D01*
X107071Y109528D01*
X107039Y109536D01*
X107010Y109539D01*
X106985Y109543D01*
X106964Y109550D01*
X106947Y109553D01*
X106936D01*
X106929Y109557D01*
X106925D01*
X106847Y109582D01*
X106776Y109614D01*
X106712Y109649D01*
X106659Y109685D01*
X106616Y109717D01*
X106581Y109741D01*
X106563Y109759D01*
X106556Y109766D01*
X106503Y109827D01*
X106456Y109894D01*
X106421Y109961D01*
X106389Y110029D01*
X106364Y110086D01*
X106354Y110111D01*
X106346Y110132D01*
X106339Y110150D01*
X106336Y110164D01*
X106332Y110171D01*
Y110175D01*
X106307Y110277D01*
X106286Y110388D01*
X106272Y110494D01*
X106265Y110597D01*
X106261Y110647D01*
X106258Y110689D01*
Y110728D01*
X106254Y110764D01*
Y110789D01*
Y110810D01*
Y110824D01*
Y110828D01*
Y110899D01*
X106258Y110970D01*
X106261Y111034D01*
X106265Y111094D01*
X106272Y111154D01*
X106279Y111207D01*
X106286Y111257D01*
X106293Y111300D01*
X106300Y111339D01*
X106307Y111374D01*
X106315Y111406D01*
X106322Y111431D01*
X106325Y111452D01*
X106329Y111467D01*
X106332Y111474D01*
Y111477D01*
X106364Y111570D01*
X106400Y111651D01*
X106435Y111719D01*
X106471Y111779D01*
X106506Y111825D01*
X106531Y111857D01*
X106549Y111879D01*
X106556Y111886D01*
X106613Y111939D01*
X106677Y111985D01*
X106737Y112021D01*
X106797Y112049D01*
X106847Y112070D01*
X106890Y112088D01*
X106904Y112092D01*
X106914Y112095D01*
X106922Y112099D01*
X106925D01*
X107010Y112120D01*
X107096Y112134D01*
X107181Y112145D01*
X107259Y112152D01*
X107294Y112155D01*
X107326D01*
X107358Y112159D01*
X107429D01*
X107532Y112155D01*
D02*
G37*
G36*
X89637D02*
X89715Y112152D01*
X89786Y112145D01*
X89853Y112130D01*
X89917Y112120D01*
X89974Y112106D01*
X90027Y112088D01*
X90073Y112074D01*
X90116Y112056D01*
X90151Y112042D01*
X90183Y112024D01*
X90208Y112013D01*
X90229Y112003D01*
X90244Y111992D01*
X90251Y111989D01*
X90254Y111985D01*
X90297Y111950D01*
X90336Y111910D01*
X90368Y111868D01*
X90396Y111822D01*
X90421Y111772D01*
X90443Y111726D01*
X90460Y111676D01*
X90471Y111630D01*
X90482Y111584D01*
X90489Y111541D01*
X90496Y111502D01*
X90499Y111470D01*
X90503Y111442D01*
Y111421D01*
Y111406D01*
Y111403D01*
Y111339D01*
X90499Y111282D01*
X90492Y111229D01*
X90485Y111186D01*
X90482Y111151D01*
X90474Y111126D01*
X90471Y111112D01*
Y111105D01*
X90457Y111062D01*
X90439Y111023D01*
X90418Y110987D01*
X90400Y110959D01*
X90382Y110934D01*
X90368Y110916D01*
X90357Y110906D01*
X90354Y110902D01*
X90322Y110874D01*
X90286Y110845D01*
X90251Y110821D01*
X90215Y110799D01*
X90183Y110785D01*
X90158Y110771D01*
X90144Y110764D01*
X90137Y110760D01*
X90084Y110739D01*
X90024Y110721D01*
X89967Y110703D01*
X89910Y110689D01*
X89864Y110675D01*
X89825Y110664D01*
X89811Y110661D01*
X89800D01*
X89793Y110657D01*
X89789D01*
X89736Y110643D01*
X89690Y110629D01*
X89647Y110618D01*
X89615Y110604D01*
X89587Y110597D01*
X89569Y110590D01*
X89555Y110583D01*
X89551D01*
X89520Y110572D01*
X89491Y110558D01*
X89466Y110544D01*
X89445Y110533D01*
X89431Y110522D01*
X89420Y110515D01*
X89413Y110512D01*
X89410Y110508D01*
X89377Y110476D01*
X89353Y110448D01*
X89342Y110426D01*
X89338Y110419D01*
Y110416D01*
X89328Y110377D01*
X89324Y110334D01*
X89321Y110317D01*
Y110306D01*
Y110295D01*
Y110292D01*
X89324Y110235D01*
X89328Y110210D01*
X89331Y110189D01*
X89335Y110171D01*
X89338Y110157D01*
X89342Y110150D01*
Y110146D01*
X89363Y110103D01*
X89388Y110075D01*
X89410Y110054D01*
X89416Y110050D01*
X89420Y110047D01*
X89466Y110025D01*
X89512Y110008D01*
X89530Y110004D01*
X89548Y110001D01*
X89559Y109997D01*
X89562D01*
X89594Y109994D01*
X89630Y109990D01*
X89665Y109986D01*
X89701D01*
X89729Y109983D01*
X89850D01*
X89882Y109986D01*
X89938D01*
X89960Y109990D01*
X89977D01*
X90052Y109997D01*
X90087Y110001D01*
X90116Y110004D01*
X90144Y110008D01*
X90162Y110011D01*
X90180D01*
X90247Y110022D01*
X90279Y110029D01*
X90308Y110032D01*
X90329Y110036D01*
X90347Y110040D01*
X90357Y110043D01*
X90361D01*
X90418Y110057D01*
X90443Y110064D01*
X90464Y110072D01*
X90482Y110079D01*
X90496Y110082D01*
X90503Y110086D01*
X90506D01*
Y109589D01*
X90457Y109578D01*
X90403Y109567D01*
X90350Y109557D01*
X90301Y109546D01*
X90254Y109539D01*
X90215Y109532D01*
X90201D01*
X90190Y109528D01*
X90183D01*
X90105Y109518D01*
X90031Y109511D01*
X89960Y109507D01*
X89892Y109503D01*
X89836Y109500D01*
X89754D01*
X89658Y109503D01*
X89566Y109507D01*
X89484Y109518D01*
X89410Y109532D01*
X89338Y109546D01*
X89275Y109560D01*
X89218Y109578D01*
X89168Y109599D01*
X89126Y109617D01*
X89086Y109635D01*
X89058Y109649D01*
X89030Y109663D01*
X89012Y109678D01*
X88998Y109688D01*
X88990Y109692D01*
X88987Y109695D01*
X88948Y109734D01*
X88912Y109777D01*
X88880Y109823D01*
X88852Y109869D01*
X88831Y109919D01*
X88813Y109965D01*
X88785Y110061D01*
X88774Y110103D01*
X88767Y110143D01*
X88763Y110182D01*
X88760Y110210D01*
X88756Y110238D01*
Y110256D01*
Y110270D01*
Y110274D01*
Y110341D01*
X88760Y110402D01*
X88767Y110455D01*
X88771Y110501D01*
X88778Y110537D01*
X88785Y110565D01*
X88788Y110579D01*
Y110586D01*
X88802Y110632D01*
X88817Y110675D01*
X88838Y110714D01*
X88856Y110746D01*
X88873Y110775D01*
X88888Y110792D01*
X88898Y110806D01*
X88902Y110810D01*
X88934Y110845D01*
X88973Y110877D01*
X89012Y110902D01*
X89047Y110927D01*
X89079Y110948D01*
X89108Y110963D01*
X89126Y110970D01*
X89133Y110973D01*
X89189Y110998D01*
X89253Y111023D01*
X89317Y111044D01*
X89374Y111066D01*
X89427Y111080D01*
X89452Y111087D01*
X89470Y111090D01*
X89487Y111094D01*
X89498Y111098D01*
X89505Y111101D01*
X89509D01*
X89559Y111112D01*
X89605Y111122D01*
X89644Y111133D01*
X89676Y111144D01*
X89704Y111151D01*
X89722Y111158D01*
X89736Y111161D01*
X89740D01*
X89772Y111172D01*
X89796Y111186D01*
X89821Y111197D01*
X89839Y111207D01*
X89857Y111215D01*
X89867Y111222D01*
X89871Y111229D01*
X89875D01*
X89903Y111257D01*
X89921Y111282D01*
X89931Y111300D01*
X89935Y111303D01*
Y111307D01*
X89942Y111343D01*
X89946Y111378D01*
X89949Y111396D01*
Y111406D01*
Y111413D01*
Y111417D01*
X89946Y111474D01*
X89935Y111520D01*
X89917Y111559D01*
X89899Y111587D01*
X89885Y111609D01*
X89867Y111623D01*
X89857Y111630D01*
X89853Y111634D01*
X89811Y111651D01*
X89761Y111665D01*
X89708Y111676D01*
X89654Y111683D01*
X89608Y111687D01*
X89569Y111690D01*
X89473D01*
X89441Y111687D01*
X89392D01*
X89374Y111683D01*
X89360D01*
X89292Y111676D01*
X89260Y111673D01*
X89236Y111669D01*
X89211Y111665D01*
X89193D01*
X89182Y111662D01*
X89179D01*
X89115Y111651D01*
X89086Y111644D01*
X89065Y111641D01*
X89044Y111637D01*
X89030Y111634D01*
X89019Y111630D01*
X89015D01*
X88966Y111619D01*
X88927Y111609D01*
X88912Y111605D01*
X88898Y111602D01*
X88895Y111598D01*
X88891D01*
Y112063D01*
X88934Y112077D01*
X88976Y112092D01*
X89022Y112102D01*
X89065Y112113D01*
X89104Y112120D01*
X89136Y112127D01*
X89157Y112130D01*
X89165D01*
X89228Y112141D01*
X89296Y112148D01*
X89363Y112152D01*
X89424Y112155D01*
X89477Y112159D01*
X89555D01*
X89637Y112155D01*
D02*
G37*
G36*
X86342D02*
X86420Y112152D01*
X86491Y112145D01*
X86559Y112130D01*
X86623Y112120D01*
X86680Y112106D01*
X86733Y112088D01*
X86779Y112074D01*
X86822Y112056D01*
X86857Y112042D01*
X86889Y112024D01*
X86914Y112013D01*
X86935Y112003D01*
X86949Y111992D01*
X86956Y111989D01*
X86960Y111985D01*
X87002Y111950D01*
X87042Y111910D01*
X87074Y111868D01*
X87102Y111822D01*
X87127Y111772D01*
X87148Y111726D01*
X87166Y111676D01*
X87177Y111630D01*
X87187Y111584D01*
X87194Y111541D01*
X87201Y111502D01*
X87205Y111470D01*
X87208Y111442D01*
Y111421D01*
Y111406D01*
Y111403D01*
Y111339D01*
X87205Y111282D01*
X87198Y111229D01*
X87191Y111186D01*
X87187Y111151D01*
X87180Y111126D01*
X87177Y111112D01*
Y111105D01*
X87162Y111062D01*
X87145Y111023D01*
X87123Y110987D01*
X87106Y110959D01*
X87088Y110934D01*
X87074Y110916D01*
X87063Y110906D01*
X87059Y110902D01*
X87027Y110874D01*
X86992Y110845D01*
X86956Y110821D01*
X86921Y110799D01*
X86889Y110785D01*
X86864Y110771D01*
X86850Y110764D01*
X86843Y110760D01*
X86790Y110739D01*
X86729Y110721D01*
X86672Y110703D01*
X86616Y110689D01*
X86569Y110675D01*
X86530Y110664D01*
X86516Y110661D01*
X86506D01*
X86498Y110657D01*
X86495D01*
X86442Y110643D01*
X86396Y110629D01*
X86353Y110618D01*
X86321Y110604D01*
X86293Y110597D01*
X86275Y110590D01*
X86261Y110583D01*
X86257D01*
X86225Y110572D01*
X86197Y110558D01*
X86172Y110544D01*
X86150Y110533D01*
X86136Y110522D01*
X86126Y110515D01*
X86119Y110512D01*
X86115Y110508D01*
X86083Y110476D01*
X86058Y110448D01*
X86048Y110426D01*
X86044Y110419D01*
Y110416D01*
X86033Y110377D01*
X86030Y110334D01*
X86026Y110317D01*
Y110306D01*
Y110295D01*
Y110292D01*
X86030Y110235D01*
X86033Y110210D01*
X86037Y110189D01*
X86041Y110171D01*
X86044Y110157D01*
X86048Y110150D01*
Y110146D01*
X86069Y110103D01*
X86094Y110075D01*
X86115Y110054D01*
X86122Y110050D01*
X86126Y110047D01*
X86172Y110025D01*
X86218Y110008D01*
X86236Y110004D01*
X86253Y110001D01*
X86264Y109997D01*
X86268D01*
X86300Y109994D01*
X86335Y109990D01*
X86371Y109986D01*
X86406D01*
X86435Y109983D01*
X86555D01*
X86587Y109986D01*
X86644D01*
X86665Y109990D01*
X86683D01*
X86758Y109997D01*
X86793Y110001D01*
X86822Y110004D01*
X86850Y110008D01*
X86868Y110011D01*
X86885D01*
X86953Y110022D01*
X86985Y110029D01*
X87013Y110032D01*
X87034Y110036D01*
X87052Y110040D01*
X87063Y110043D01*
X87066D01*
X87123Y110057D01*
X87148Y110064D01*
X87169Y110072D01*
X87187Y110079D01*
X87201Y110082D01*
X87208Y110086D01*
X87212D01*
Y109589D01*
X87162Y109578D01*
X87109Y109567D01*
X87056Y109557D01*
X87006Y109546D01*
X86960Y109539D01*
X86921Y109532D01*
X86907D01*
X86896Y109528D01*
X86889D01*
X86811Y109518D01*
X86736Y109511D01*
X86665Y109507D01*
X86598Y109503D01*
X86541Y109500D01*
X86459D01*
X86364Y109503D01*
X86271Y109507D01*
X86190Y109518D01*
X86115Y109532D01*
X86044Y109546D01*
X85980Y109560D01*
X85923Y109578D01*
X85874Y109599D01*
X85831Y109617D01*
X85792Y109635D01*
X85764Y109649D01*
X85735Y109663D01*
X85717Y109678D01*
X85703Y109688D01*
X85696Y109692D01*
X85693Y109695D01*
X85654Y109734D01*
X85618Y109777D01*
X85586Y109823D01*
X85558Y109869D01*
X85536Y109919D01*
X85519Y109965D01*
X85490Y110061D01*
X85480Y110103D01*
X85473Y110143D01*
X85469Y110182D01*
X85465Y110210D01*
X85462Y110238D01*
Y110256D01*
Y110270D01*
Y110274D01*
Y110341D01*
X85465Y110402D01*
X85473Y110455D01*
X85476Y110501D01*
X85483Y110537D01*
X85490Y110565D01*
X85494Y110579D01*
Y110586D01*
X85508Y110632D01*
X85522Y110675D01*
X85544Y110714D01*
X85561Y110746D01*
X85579Y110775D01*
X85593Y110792D01*
X85604Y110806D01*
X85607Y110810D01*
X85639Y110845D01*
X85678Y110877D01*
X85717Y110902D01*
X85753Y110927D01*
X85785Y110948D01*
X85813Y110963D01*
X85831Y110970D01*
X85838Y110973D01*
X85895Y110998D01*
X85959Y111023D01*
X86023Y111044D01*
X86080Y111066D01*
X86133Y111080D01*
X86158Y111087D01*
X86175Y111090D01*
X86193Y111094D01*
X86204Y111098D01*
X86211Y111101D01*
X86214D01*
X86264Y111112D01*
X86310Y111122D01*
X86349Y111133D01*
X86381Y111144D01*
X86410Y111151D01*
X86427Y111158D01*
X86442Y111161D01*
X86445D01*
X86477Y111172D01*
X86502Y111186D01*
X86527Y111197D01*
X86545Y111207D01*
X86562Y111215D01*
X86573Y111222D01*
X86576Y111229D01*
X86580D01*
X86608Y111257D01*
X86626Y111282D01*
X86637Y111300D01*
X86640Y111303D01*
Y111307D01*
X86648Y111343D01*
X86651Y111378D01*
X86655Y111396D01*
Y111406D01*
Y111413D01*
Y111417D01*
X86651Y111474D01*
X86640Y111520D01*
X86623Y111559D01*
X86605Y111587D01*
X86591Y111609D01*
X86573Y111623D01*
X86562Y111630D01*
X86559Y111634D01*
X86516Y111651D01*
X86466Y111665D01*
X86413Y111676D01*
X86360Y111683D01*
X86314Y111687D01*
X86275Y111690D01*
X86179D01*
X86147Y111687D01*
X86097D01*
X86080Y111683D01*
X86065D01*
X85998Y111676D01*
X85966Y111673D01*
X85941Y111669D01*
X85916Y111665D01*
X85899D01*
X85888Y111662D01*
X85884D01*
X85820Y111651D01*
X85792Y111644D01*
X85771Y111641D01*
X85749Y111637D01*
X85735Y111634D01*
X85725Y111630D01*
X85721D01*
X85671Y111619D01*
X85632Y111609D01*
X85618Y111605D01*
X85604Y111602D01*
X85600Y111598D01*
X85597D01*
Y112063D01*
X85639Y112077D01*
X85682Y112092D01*
X85728Y112102D01*
X85771Y112113D01*
X85810Y112120D01*
X85842Y112127D01*
X85863Y112130D01*
X85870D01*
X85934Y112141D01*
X86001Y112148D01*
X86069Y112152D01*
X86129Y112155D01*
X86182Y112159D01*
X86261D01*
X86342Y112155D01*
D02*
G37*
G36*
X81923D02*
X82015Y112148D01*
X82100Y112141D01*
X82174Y112130D01*
X82206Y112124D01*
X82235Y112116D01*
X82260Y112113D01*
X82281Y112109D01*
X82299Y112106D01*
X82310Y112102D01*
X82316Y112099D01*
X82320D01*
X82398Y112074D01*
X82469Y112038D01*
X82529Y112006D01*
X82583Y111971D01*
X82625Y111939D01*
X82657Y111910D01*
X82679Y111893D01*
X82682Y111889D01*
X82686Y111886D01*
X82739Y111825D01*
X82785Y111758D01*
X82824Y111690D01*
X82856Y111626D01*
X82881Y111566D01*
X82892Y111541D01*
X82902Y111520D01*
X82909Y111502D01*
X82913Y111488D01*
X82916Y111481D01*
Y111477D01*
X82941Y111374D01*
X82963Y111268D01*
X82977Y111158D01*
X82984Y111058D01*
X82987Y111009D01*
X82991Y110966D01*
Y110927D01*
X82995Y110895D01*
Y110867D01*
Y110845D01*
Y110831D01*
Y110828D01*
X82991Y110686D01*
X82987Y110622D01*
X82984Y110558D01*
X82977Y110501D01*
X82970Y110448D01*
X82963Y110398D01*
X82956Y110352D01*
X82948Y110313D01*
X82941Y110277D01*
X82934Y110246D01*
X82927Y110221D01*
X82924Y110199D01*
X82920Y110185D01*
X82916Y110178D01*
Y110175D01*
X82885Y110082D01*
X82845Y110004D01*
X82806Y109933D01*
X82771Y109876D01*
X82736Y109827D01*
X82711Y109795D01*
X82693Y109773D01*
X82686Y109770D01*
Y109766D01*
X82625Y109713D01*
X82565Y109670D01*
X82505Y109635D01*
X82448Y109607D01*
X82395Y109585D01*
X82356Y109567D01*
X82341Y109564D01*
X82331Y109560D01*
X82324Y109557D01*
X82320D01*
X82235Y109539D01*
X82150Y109525D01*
X82064Y109514D01*
X81986Y109507D01*
X81951Y109503D01*
X81890Y109503D01*
X81866Y109500D01*
X81820D01*
X81717Y109503D01*
X81621Y109511D01*
X81536Y109518D01*
X81461Y109528D01*
X81429Y109536D01*
X81401Y109539D01*
X81376Y109543D01*
X81354Y109550D01*
X81337Y109553D01*
X81326D01*
X81319Y109557D01*
X81315D01*
X81237Y109582D01*
X81166Y109614D01*
X81102Y109649D01*
X81049Y109685D01*
X81007Y109716D01*
X80971Y109741D01*
X80953Y109759D01*
X80946Y109766D01*
X80893Y109827D01*
X80847Y109894D01*
X80811Y109961D01*
X80779Y110029D01*
X80755Y110086D01*
X80744Y110111D01*
X80737Y110132D01*
X80730Y110150D01*
X80726Y110164D01*
X80723Y110171D01*
Y110175D01*
X80698Y110277D01*
X80676Y110388D01*
X80662Y110494D01*
X80655Y110597D01*
X80652Y110647D01*
X80648Y110689D01*
Y110728D01*
X80645Y110764D01*
Y110789D01*
Y110810D01*
Y110824D01*
Y110828D01*
Y110899D01*
X80648Y110970D01*
X80652Y111034D01*
X80655Y111094D01*
X80662Y111154D01*
X80669Y111207D01*
X80676Y111257D01*
X80684Y111300D01*
X80691Y111339D01*
X80698Y111374D01*
X80705Y111406D01*
X80712Y111431D01*
X80716Y111452D01*
X80719Y111467D01*
X80723Y111474D01*
Y111477D01*
X80755Y111570D01*
X80790Y111651D01*
X80826Y111719D01*
X80861Y111779D01*
X80897Y111825D01*
X80921Y111857D01*
X80939Y111879D01*
X80946Y111886D01*
X81003Y111939D01*
X81067Y111985D01*
X81127Y112021D01*
X81188Y112049D01*
X81237Y112070D01*
X81280Y112088D01*
X81294Y112092D01*
X81305Y112095D01*
X81312Y112099D01*
X81315D01*
X81401Y112120D01*
X81486Y112134D01*
X81571Y112145D01*
X81649Y112152D01*
X81685Y112155D01*
X81717D01*
X81749Y112159D01*
X81820D01*
X81923Y112155D01*
D02*
G37*
%LPC*%
G36*
X132548Y117909D02*
X132250D01*
X132196Y117905D01*
X132155D01*
X132116Y117902D01*
X132086Y117898D01*
X132063D01*
X132047Y117894D01*
X132044D01*
X132006Y117886D01*
X131971Y117879D01*
X131941Y117867D01*
X131914Y117859D01*
X131895Y117848D01*
X131879Y117840D01*
X131872Y117837D01*
X131868Y117833D01*
X131826Y117795D01*
X131795Y117756D01*
X131784Y117737D01*
X131776Y117722D01*
X131772Y117714D01*
Y117710D01*
X131761Y117680D01*
X131753Y117646D01*
X131746Y117581D01*
X131742Y117554D01*
Y117531D01*
Y117512D01*
Y117508D01*
Y117462D01*
X131746Y117420D01*
X131750Y117382D01*
X131757Y117351D01*
X131761Y117325D01*
X131769Y117306D01*
X131772Y117294D01*
Y117290D01*
X131799Y117233D01*
X131815Y117210D01*
X131830Y117191D01*
X131845Y117176D01*
X131857Y117164D01*
X131864Y117160D01*
X131868Y117157D01*
X131895Y117141D01*
X131922Y117126D01*
X131979Y117107D01*
X132006Y117099D01*
X132025Y117095D01*
X132040Y117092D01*
X132044D01*
X132086Y117088D01*
X132128Y117084D01*
X132174Y117080D01*
X132212D01*
X132250Y117076D01*
X132548D01*
Y117909D01*
D02*
G37*
G36*
X18131Y67652D02*
X14549D01*
Y66570D01*
X17275Y65330D01*
Y65301D01*
X14549D01*
Y64523D01*
X18131D01*
Y65724D01*
X15568Y66850D01*
Y66880D01*
X18131D01*
Y67652D01*
D02*
G37*
G36*
Y63731D02*
X14549D01*
Y62944D01*
X18131D01*
Y63731D01*
D02*
G37*
G36*
Y60927D02*
X14549D01*
X15543D01*
X15494Y60922D01*
X15435Y60917D01*
X15366Y60912D01*
X15292Y60902D01*
X15213Y60882D01*
X15140Y60863D01*
X15130Y60858D01*
X15110Y60853D01*
X15071Y60838D01*
X15026Y60814D01*
X14977Y60784D01*
X14923Y60750D01*
X14869Y60705D01*
X14815Y60651D01*
X14810Y60646D01*
X14795Y60622D01*
X14771Y60587D01*
X14741Y60543D01*
X14712Y60484D01*
X14677Y60415D01*
X14648Y60331D01*
X14618Y60238D01*
Y60233D01*
X14613Y60228D01*
Y60213D01*
X14608Y60194D01*
X14603Y60169D01*
X14598Y60135D01*
X14589Y60100D01*
X14584Y60061D01*
X14569Y59967D01*
X14559Y59854D01*
X14554Y59731D01*
X14549Y59588D01*
Y58270D01*
X18131D01*
Y59579D01*
X18126Y59618D01*
Y59711D01*
X18116Y59810D01*
X18106Y59918D01*
X18092Y60026D01*
X18072Y60130D01*
Y60135D01*
X18067Y60140D01*
Y60154D01*
X18062Y60174D01*
X18047Y60218D01*
X18028Y60277D01*
X18003Y60346D01*
X17969Y60415D01*
X17934Y60484D01*
X17890Y60543D01*
X17885Y60548D01*
X17870Y60568D01*
X17841Y60592D01*
X17806Y60627D01*
X17767Y60661D01*
X17713Y60695D01*
X17654Y60730D01*
X17590Y60755D01*
X17580Y60759D01*
X17555Y60764D01*
X17521Y60774D01*
X17467Y60789D01*
X17408Y60799D01*
X17334Y60809D01*
X17255Y60814D01*
X17167Y60818D01*
X17162D01*
X17157D01*
X17142D01*
X17122D01*
X17068Y60814D01*
X17004Y60804D01*
X16930Y60789D01*
X16852Y60769D01*
X16773Y60745D01*
X16699Y60705D01*
X16689Y60700D01*
X16670Y60686D01*
X16635Y60656D01*
X16596Y60612D01*
X16557Y60558D01*
X16512Y60484D01*
X16468Y60400D01*
X16434Y60297D01*
X16414D01*
Y60302D01*
X16404Y60326D01*
X16394Y60356D01*
X16379Y60395D01*
X16355Y60445D01*
X16325Y60499D01*
X16291Y60553D01*
X16251Y60612D01*
X16197Y60671D01*
X16138Y60730D01*
X16070Y60779D01*
X15996Y60828D01*
X15907Y60868D01*
X15809Y60902D01*
X15700Y60922D01*
X15582Y60927D01*
X18131D01*
D02*
G37*
G36*
X15666Y57596D02*
X14500D01*
X15523D01*
X15484Y57591D01*
X15445Y57586D01*
X15391Y57581D01*
X15336Y57571D01*
X15277Y57556D01*
X15145Y57517D01*
X15081Y57493D01*
X15012Y57463D01*
X14948Y57424D01*
X14884Y57379D01*
X14825Y57330D01*
X14771Y57276D01*
X14766Y57271D01*
X14761Y57261D01*
X14746Y57242D01*
X14726Y57217D01*
X14707Y57178D01*
X14687Y57138D01*
X14662Y57084D01*
X14638Y57025D01*
X14608Y56956D01*
X14584Y56878D01*
X14564Y56789D01*
X14544Y56691D01*
X14525Y56587D01*
X14510Y56474D01*
X14505Y56346D01*
X14500Y56213D01*
Y56248D01*
Y56100D01*
X14505Y56021D01*
X14510Y55928D01*
X14515Y55830D01*
X14525Y55726D01*
X14539Y55618D01*
Y55608D01*
X14544Y55593D01*
Y55574D01*
X14554Y55520D01*
X14564Y55456D01*
X14579Y55387D01*
X14593Y55313D01*
X14608Y55239D01*
X14623Y55170D01*
X15312D01*
Y55175D01*
X15307Y55185D01*
X15302Y55205D01*
X15292Y55229D01*
X15282Y55259D01*
X15272Y55293D01*
X15253Y55372D01*
Y55377D01*
X15248Y55392D01*
X15243Y55416D01*
X15238Y55446D01*
X15233Y55485D01*
X15223Y55529D01*
X15209Y55623D01*
Y55648D01*
X15204Y55672D01*
X15199Y55712D01*
X15194Y55751D01*
X15189Y55800D01*
X15179Y55903D01*
Y55928D01*
X15174Y55958D01*
Y56036D01*
X15169Y56081D01*
Y56248D01*
X15174Y56287D01*
Y56336D01*
X15179Y56386D01*
X15184Y56435D01*
X15189Y56479D01*
Y56484D01*
X15194Y56499D01*
X15199Y56523D01*
X15204Y56548D01*
X15228Y56612D01*
X15258Y56676D01*
X15263Y56681D01*
X15268Y56691D01*
X15297Y56720D01*
X15336Y56755D01*
X15395Y56784D01*
X15400D01*
X15410Y56789D01*
X15430Y56794D01*
X15454Y56799D01*
X15484Y56804D01*
X15518Y56809D01*
X15597Y56814D01*
X15602D01*
X15617D01*
X15632D01*
X15656Y56809D01*
X15715Y56804D01*
X15769Y56789D01*
X15774D01*
X15784Y56784D01*
X15814Y56769D01*
X15853Y56735D01*
X15897Y56691D01*
X15902Y56686D01*
X15907Y56676D01*
X15917Y56661D01*
X15932Y56641D01*
X15947Y56612D01*
X15966Y56577D01*
X15986Y56538D01*
X16001Y56494D01*
Y56489D01*
X16010Y56469D01*
X16020Y56445D01*
X16030Y56405D01*
X16050Y56361D01*
X16065Y56302D01*
X16084Y56238D01*
X16104Y56164D01*
Y56159D01*
X16109Y56149D01*
Y56135D01*
X16114Y56115D01*
X16128Y56061D01*
X16148Y55997D01*
X16168Y55918D01*
X16193Y55839D01*
X16217Y55756D01*
X16247Y55682D01*
X16251Y55672D01*
X16261Y55652D01*
X16281Y55618D01*
X16301Y55574D01*
X16330Y55525D01*
X16365Y55475D01*
X16404Y55426D01*
X16443Y55382D01*
X16448Y55377D01*
X16463Y55362D01*
X16488Y55343D01*
X16522Y55318D01*
X16562Y55293D01*
X16611Y55264D01*
X16665Y55239D01*
X16724Y55220D01*
X16734D01*
X16753Y55215D01*
X16788Y55205D01*
X16837Y55200D01*
X16896Y55190D01*
X16970Y55180D01*
X17049Y55175D01*
X17137D01*
X17142D01*
X17162D01*
X17191D01*
X17231Y55180D01*
X17275Y55185D01*
X17329Y55195D01*
X17388Y55205D01*
X17452Y55220D01*
X17516Y55234D01*
X17585Y55259D01*
X17649Y55288D01*
X17718Y55323D01*
X17782Y55362D01*
X17841Y55406D01*
X17895Y55461D01*
X17944Y55520D01*
X17949Y55525D01*
X17954Y55534D01*
X17969Y55554D01*
X17983Y55584D01*
X17998Y55618D01*
X18023Y55662D01*
X18042Y55712D01*
X18067Y55771D01*
X18087Y55835D01*
X18111Y55908D01*
X18131Y55987D01*
X18146Y56076D01*
X18165Y56169D01*
X18175Y56267D01*
X18180Y56376D01*
X18185Y56489D01*
Y56597D01*
X18180Y56671D01*
X18175Y56755D01*
X18170Y56848D01*
X18160Y56941D01*
X18146Y57030D01*
Y57040D01*
X18141Y57069D01*
X18131Y57114D01*
X18121Y57168D01*
X18106Y57227D01*
X18092Y57291D01*
X18072Y57350D01*
X18052Y57409D01*
X17408D01*
Y57404D01*
X17413Y57399D01*
X17418Y57379D01*
X17423Y57360D01*
X17437Y57306D01*
X17452Y57237D01*
Y57232D01*
X17457Y57217D01*
X17462Y57197D01*
X17467Y57168D01*
X17472Y57138D01*
X17481Y57099D01*
X17496Y57010D01*
Y57006D01*
X17501Y56991D01*
Y56966D01*
X17506Y56932D01*
X17511Y56897D01*
X17516Y56853D01*
X17526Y56760D01*
Y56740D01*
X17531Y56715D01*
Y56646D01*
X17536Y56602D01*
Y56469D01*
X17531Y56415D01*
X17526Y56351D01*
X17516Y56277D01*
X17501Y56204D01*
X17481Y56135D01*
X17457Y56076D01*
X17452Y56071D01*
X17442Y56056D01*
X17423Y56031D01*
X17393Y56012D01*
X17354Y55987D01*
X17300Y55962D01*
X17235Y55948D01*
X17157Y55943D01*
X17152D01*
X17142D01*
X17127D01*
X17103Y55948D01*
X17053Y55953D01*
X17004Y55962D01*
X16999D01*
X16994Y55967D01*
X16970Y55982D01*
X16935Y56007D01*
X16896Y56046D01*
Y56051D01*
X16886Y56056D01*
X16876Y56071D01*
X16867Y56095D01*
X16852Y56120D01*
X16837Y56154D01*
X16817Y56189D01*
X16803Y56233D01*
Y56238D01*
X16798Y56258D01*
X16788Y56282D01*
X16778Y56322D01*
X16763Y56366D01*
X16748Y56420D01*
X16734Y56484D01*
X16719Y56553D01*
Y56558D01*
X16714Y56568D01*
X16709Y56582D01*
X16704Y56607D01*
X16699Y56632D01*
X16689Y56666D01*
X16670Y56740D01*
X16640Y56818D01*
X16611Y56907D01*
X16576Y56996D01*
X16542Y57074D01*
X16537Y57084D01*
X16527Y57109D01*
X16507Y57148D01*
X16478Y57192D01*
X16443Y57242D01*
X16409Y57296D01*
X16365Y57350D01*
X16316Y57394D01*
X16311Y57399D01*
X16291Y57414D01*
X16266Y57433D01*
X16227Y57458D01*
X16183Y57483D01*
X16128Y57512D01*
X16070Y57532D01*
X16005Y57552D01*
X15996D01*
X15976Y57556D01*
X15937Y57566D01*
X15887Y57576D01*
X15823Y57581D01*
X15750Y57591D01*
X15666Y57596D01*
D02*
G37*
G36*
X18131Y54506D02*
X14500D01*
Y51500D01*
Y52907D01*
X14505Y52873D01*
X14510Y52784D01*
X14515Y52686D01*
X14525Y52578D01*
X14539Y52464D01*
X14559Y52356D01*
Y52351D01*
X14564Y52346D01*
Y52332D01*
X14569Y52312D01*
X14584Y52258D01*
X14608Y52194D01*
X14633Y52120D01*
X14667Y52041D01*
X14712Y51963D01*
X14761Y51889D01*
X14766Y51879D01*
X14785Y51859D01*
X14820Y51825D01*
X14864Y51780D01*
X14918Y51731D01*
X14982Y51687D01*
X15056Y51638D01*
X15140Y51598D01*
X15145D01*
X15149Y51594D01*
X15164Y51589D01*
X15184Y51584D01*
X15233Y51569D01*
X15307Y51549D01*
X15391Y51530D01*
X15494Y51515D01*
X15607Y51505D01*
X15735Y51500D01*
X18131D01*
Y52376D01*
Y52287D01*
X15823D01*
X15819D01*
X15794D01*
X15764D01*
X15725Y52292D01*
X15681D01*
X15637Y52302D01*
X15538Y52317D01*
X15533D01*
X15518Y52322D01*
X15494Y52332D01*
X15464Y52341D01*
X15400Y52376D01*
X15366Y52400D01*
X15331Y52430D01*
X15327Y52435D01*
X15317Y52445D01*
X15302Y52464D01*
X15287Y52489D01*
X15263Y52518D01*
X15243Y52558D01*
X15223Y52602D01*
X15209Y52651D01*
Y52656D01*
X15204Y52676D01*
X15199Y52705D01*
X15189Y52750D01*
X15184Y52799D01*
X15174Y52863D01*
X15169Y52932D01*
Y53045D01*
X15174Y53084D01*
Y53133D01*
X15179Y53193D01*
X15189Y53251D01*
X15199Y53311D01*
X15213Y53365D01*
Y53370D01*
X15223Y53389D01*
X15233Y53414D01*
X15248Y53448D01*
X15287Y53517D01*
X15312Y53557D01*
X15341Y53586D01*
X15346Y53591D01*
X15356Y53601D01*
X15376Y53611D01*
X15400Y53630D01*
X15430Y53645D01*
X15464Y53665D01*
X15548Y53694D01*
X15553D01*
X15568Y53699D01*
X15597Y53704D01*
X15627Y53714D01*
X15671Y53719D01*
X15715Y53724D01*
X15769Y53729D01*
X15823D01*
X18131D01*
Y54506D01*
D02*
G37*
%LPD*%
G36*
X17162Y60041D02*
X17235Y60026D01*
X17270Y60017D01*
X17304Y60002D01*
X17309D01*
X17319Y59997D01*
X17334Y59987D01*
X17354Y59972D01*
X17393Y59933D01*
X17432Y59874D01*
Y59869D01*
X17442Y59859D01*
X17447Y59839D01*
X17457Y59815D01*
X17467Y59780D01*
X17477Y59741D01*
X17486Y59697D01*
X17491Y59648D01*
Y59643D01*
X17496Y59623D01*
Y59593D01*
X17501Y59554D01*
Y59510D01*
X17506Y59451D01*
Y59057D01*
X16655D01*
Y59436D01*
X16660Y59485D01*
Y59539D01*
X16670Y59648D01*
Y59652D01*
X16675Y59672D01*
X16680Y59697D01*
X16684Y59726D01*
X16704Y59800D01*
X16734Y59874D01*
Y59879D01*
X16744Y59889D01*
X16753Y59903D01*
X16768Y59923D01*
X16812Y59967D01*
X16867Y60002D01*
X16871D01*
X16881Y60007D01*
X16901Y60017D01*
X16926Y60026D01*
X16955Y60031D01*
X16994Y60041D01*
X17034Y60046D01*
X17083D01*
X17088D01*
X17108D01*
X17132D01*
X17162Y60041D01*
D02*
G37*
G36*
X15705Y60125D02*
X15774Y60115D01*
X15843Y60095D01*
X15848D01*
X15858Y60090D01*
X15873Y60080D01*
X15892Y60071D01*
X15942Y60036D01*
X15966Y60012D01*
X15986Y59982D01*
X15991Y59977D01*
X15996Y59967D01*
X16005Y59948D01*
X16015Y59923D01*
X16030Y59894D01*
X16040Y59854D01*
X16050Y59810D01*
X16060Y59761D01*
Y59756D01*
X16065Y59736D01*
X16070Y59707D01*
X16074Y59667D01*
Y59618D01*
X16079Y59559D01*
X16084Y59490D01*
Y59057D01*
X15179D01*
Y59490D01*
X15184Y59539D01*
Y59593D01*
X15189Y59648D01*
X15194Y59707D01*
X15199Y59761D01*
Y59766D01*
X15204Y59785D01*
X15209Y59810D01*
X15213Y59839D01*
X15238Y59913D01*
X15253Y59948D01*
X15268Y59982D01*
Y59987D01*
X15277Y59997D01*
X15302Y60026D01*
X15346Y60066D01*
X15376Y60080D01*
X15405Y60095D01*
X15410D01*
X15420Y60100D01*
X15440Y60105D01*
X15469Y60115D01*
X15499Y60120D01*
X15538Y60125D01*
X15582Y60130D01*
X15632D01*
X15637D01*
X15651D01*
X15676D01*
X15705Y60125D01*
D02*
G37*
G36*
X15651Y54501D02*
X15617D01*
X15543Y54491D01*
X15454Y54482D01*
X15356Y54462D01*
X15263Y54437D01*
X15169Y54403D01*
X15164D01*
X15159Y54398D01*
X15130Y54383D01*
X15086Y54363D01*
X15031Y54329D01*
X14972Y54290D01*
X14903Y54240D01*
X14840Y54181D01*
X14780Y54112D01*
X14775Y54103D01*
X14756Y54078D01*
X14731Y54039D01*
X14697Y53980D01*
X14662Y53911D01*
X14628Y53832D01*
X14593Y53743D01*
X14564Y53640D01*
Y53635D01*
X14559Y53625D01*
Y53611D01*
X14554Y53591D01*
X14549Y53566D01*
X14544Y53532D01*
X14534Y53453D01*
X14520Y53360D01*
X14510Y53251D01*
X14505Y53133D01*
X14500Y53001D01*
Y54506D01*
X15681D01*
X15651Y54501D01*
D02*
G37*
%LPC*%
G36*
X215131Y118927D02*
X214447D01*
Y117987D01*
X211549D01*
Y118927D01*
Y117209D01*
X214447D01*
Y116265D01*
X211549D01*
X215131D01*
Y118927D01*
D02*
G37*
G36*
Y115793D02*
X211500D01*
X212681D01*
X212651Y115788D01*
X212617D01*
X212543Y115778D01*
X212455Y115768D01*
X212356Y115748D01*
X212263Y115724D01*
X212169Y115689D01*
X212164D01*
X212159Y115684D01*
X212130Y115670D01*
X212086Y115650D01*
X212031Y115615D01*
X211972Y115576D01*
X211903Y115527D01*
X211840Y115468D01*
X211780Y115399D01*
X211775Y115389D01*
X211756Y115365D01*
X211731Y115325D01*
X211697Y115266D01*
X211662Y115197D01*
X211628Y115119D01*
X211594Y115030D01*
X211564Y114927D01*
Y114922D01*
X211559Y114912D01*
Y114897D01*
X211554Y114877D01*
X211549Y114853D01*
X211544Y114818D01*
X211534Y114740D01*
X211520Y114646D01*
X211510Y114538D01*
X211505Y114420D01*
X211500Y114287D01*
Y114331D01*
Y114194D01*
X211505Y114159D01*
X211510Y114071D01*
X211515Y113972D01*
X211525Y113864D01*
X211539Y113751D01*
X211559Y113643D01*
Y113638D01*
X211564Y113633D01*
Y113618D01*
X211569Y113598D01*
X211584Y113544D01*
X211608Y113480D01*
X211633Y113406D01*
X211667Y113328D01*
X211712Y113249D01*
X211761Y113175D01*
X211766Y113165D01*
X211785Y113146D01*
X211820Y113111D01*
X211864Y113067D01*
X211918Y113018D01*
X211982Y112973D01*
X212056Y112924D01*
X212140Y112885D01*
X212144D01*
X212149Y112880D01*
X212164Y112875D01*
X212184Y112870D01*
X212233Y112855D01*
X212307Y112836D01*
X212390Y112816D01*
X212494Y112801D01*
X212607Y112791D01*
X212735Y112786D01*
X215131D01*
Y115793D01*
D02*
G37*
G36*
X215185Y112103D02*
D01*
Y110572D01*
X215180Y110617D01*
Y110661D01*
X215175Y110710D01*
X215165Y110818D01*
X215151Y110936D01*
X215131Y111055D01*
X215101Y111173D01*
Y111178D01*
X215096Y111187D01*
X215092Y111202D01*
X215087Y111222D01*
X215062Y111281D01*
X215033Y111350D01*
X214993Y111433D01*
X214944Y111517D01*
X214880Y111606D01*
X214806Y111684D01*
X214796Y111694D01*
X214767Y111719D01*
X214723Y111753D01*
X214659Y111802D01*
X214575Y111852D01*
X214481Y111901D01*
X214368Y111950D01*
X214240Y111994D01*
X214235D01*
X214226Y111999D01*
X214206Y112004D01*
X214177Y112009D01*
X214142Y112019D01*
X214098Y112029D01*
X214049Y112039D01*
X213994Y112048D01*
X213935Y112058D01*
X213866Y112068D01*
X213793Y112078D01*
X213709Y112088D01*
X213625Y112093D01*
X213537Y112098D01*
X213439Y112103D01*
X213251D01*
X213202Y112098D01*
X213148D01*
X213089Y112093D01*
X213020Y112088D01*
X212878Y112078D01*
X212730Y112058D01*
X212578Y112029D01*
X212435Y111994D01*
X212430D01*
X212420Y111989D01*
X212400Y111985D01*
X212376Y111975D01*
X212346Y111965D01*
X212312Y111950D01*
X212233Y111916D01*
X212140Y111871D01*
X212046Y111822D01*
X211953Y111758D01*
X211869Y111684D01*
X211859Y111674D01*
X211835Y111650D01*
X211800Y111601D01*
X211756Y111542D01*
X211707Y111468D01*
X211657Y111379D01*
X211613Y111281D01*
X211579Y111173D01*
Y111168D01*
X211574Y111158D01*
Y111143D01*
X211569Y111119D01*
X211559Y111089D01*
X211554Y111055D01*
X211549Y111015D01*
X211539Y110971D01*
X211525Y110868D01*
X211515Y110750D01*
X211505Y110617D01*
X211500Y110474D01*
Y108845D01*
Y110410D01*
X211505Y110376D01*
Y110292D01*
X211510Y110243D01*
X211520Y110135D01*
X211534Y110017D01*
X211554Y109898D01*
X211579Y109780D01*
Y109775D01*
X211584Y109766D01*
X211589Y109751D01*
X211594Y109731D01*
X211618Y109677D01*
X211648Y109603D01*
X211687Y109525D01*
X211736Y109441D01*
X211795Y109357D01*
X211869Y109274D01*
X211874D01*
X211879Y109264D01*
X211908Y109239D01*
X211953Y109205D01*
X212021Y109155D01*
X212100Y109106D01*
X212199Y109052D01*
X212307Y108998D01*
X212435Y108954D01*
X212440D01*
X212450Y108949D01*
X212469Y108944D01*
X212499Y108939D01*
X212533Y108929D01*
X212578Y108919D01*
X212627Y108909D01*
X212681Y108900D01*
X212745Y108890D01*
X212814Y108880D01*
X212887Y108870D01*
X212966Y108860D01*
X213055Y108855D01*
X213143Y108850D01*
X213340Y108845D01*
X211500D01*
X213434D01*
X213478Y108850D01*
X213532D01*
X213591Y108855D01*
X213660Y108860D01*
X213798Y108870D01*
X213950Y108890D01*
X214098Y108919D01*
X214240Y108954D01*
X214245D01*
X214255Y108959D01*
X214275Y108964D01*
X214300Y108973D01*
X214329Y108988D01*
X214363Y109003D01*
X214447Y109037D01*
X214536Y109082D01*
X214629Y109136D01*
X214723Y109200D01*
X214806Y109274D01*
X214811Y109279D01*
X214816Y109283D01*
X214841Y109313D01*
X214880Y109357D01*
X214924Y109416D01*
X214973Y109490D01*
X215018Y109574D01*
X215067Y109672D01*
X215101Y109780D01*
Y109785D01*
X215106Y109795D01*
X215111Y109810D01*
X215116Y109834D01*
X215121Y109864D01*
X215126Y109898D01*
X215136Y109938D01*
X215146Y109982D01*
X215160Y110085D01*
X215170Y110203D01*
X215180Y110331D01*
X215185Y110474D01*
Y112103D01*
D02*
G37*
G36*
X215131Y106927D02*
D01*
Y105579D01*
X215126Y105618D01*
Y105711D01*
X215116Y105810D01*
X215106Y105918D01*
X215092Y106026D01*
X215072Y106130D01*
Y106135D01*
X215067Y106140D01*
Y106154D01*
X215062Y106174D01*
X215047Y106218D01*
X215028Y106277D01*
X215003Y106346D01*
X214969Y106415D01*
X214934Y106484D01*
X214890Y106543D01*
X214885Y106548D01*
X214870Y106568D01*
X214841Y106592D01*
X214806Y106627D01*
X214767Y106661D01*
X214713Y106695D01*
X214654Y106730D01*
X214590Y106755D01*
X214580Y106759D01*
X214555Y106764D01*
X214521Y106774D01*
X214467Y106789D01*
X214408Y106799D01*
X214334Y106809D01*
X214255Y106814D01*
X214167Y106818D01*
X214162D01*
X214157D01*
X214142D01*
X214122D01*
X214068Y106814D01*
X214004Y106804D01*
X213931Y106789D01*
X213852Y106769D01*
X213773Y106745D01*
X213699Y106705D01*
X213689Y106700D01*
X213670Y106686D01*
X213635Y106656D01*
X213596Y106612D01*
X213557Y106558D01*
X213512Y106484D01*
X213468Y106400D01*
X213434Y106297D01*
X213414D01*
Y106302D01*
X213404Y106326D01*
X213394Y106356D01*
X213379Y106395D01*
X213355Y106445D01*
X213325Y106499D01*
X213291Y106553D01*
X213251Y106612D01*
X213197Y106671D01*
X213138Y106730D01*
X213070Y106779D01*
X212996Y106828D01*
X212907Y106868D01*
X212809Y106902D01*
X212701Y106922D01*
X212582Y106927D01*
X211549D01*
X212543D01*
X212494Y106922D01*
X212435Y106917D01*
X212366Y106912D01*
X212292Y106902D01*
X212213Y106882D01*
X212140Y106863D01*
X212130Y106858D01*
X212110Y106853D01*
X212071Y106838D01*
X212026Y106814D01*
X211977Y106784D01*
X211923Y106750D01*
X211869Y106705D01*
X211815Y106651D01*
X211810Y106646D01*
X211795Y106622D01*
X211771Y106587D01*
X211741Y106543D01*
X211712Y106484D01*
X211677Y106415D01*
X211648Y106331D01*
X211618Y106238D01*
Y106233D01*
X211613Y106228D01*
Y106213D01*
X211608Y106194D01*
X211603Y106169D01*
X211598Y106135D01*
X211589Y106100D01*
X211584Y106061D01*
X211569Y105967D01*
X211559Y105854D01*
X211554Y105731D01*
X211549Y105588D01*
Y104270D01*
X215131D01*
Y106927D01*
D02*
G37*
G36*
X215185Y103596D02*
D01*
Y102597D01*
X215180Y102671D01*
X215175Y102755D01*
X215170Y102848D01*
X215160Y102942D01*
X215146Y103030D01*
Y103040D01*
X215141Y103069D01*
X215131Y103114D01*
X215121Y103168D01*
X215106Y103227D01*
X215092Y103291D01*
X215072Y103350D01*
X215052Y103409D01*
X214408D01*
Y103404D01*
X214413Y103399D01*
X214418Y103379D01*
X214422Y103360D01*
X214437Y103306D01*
X214452Y103237D01*
Y103232D01*
X214457Y103217D01*
X214462Y103197D01*
X214467Y103168D01*
X214472Y103138D01*
X214481Y103099D01*
X214496Y103010D01*
Y103006D01*
X214501Y102991D01*
Y102966D01*
X214506Y102932D01*
X214511Y102897D01*
X214516Y102853D01*
X214526Y102760D01*
Y102740D01*
X214531Y102715D01*
Y102646D01*
X214536Y102602D01*
Y102469D01*
X214531Y102415D01*
X214526Y102351D01*
X214516Y102277D01*
X214501Y102204D01*
X214481Y102135D01*
X214457Y102076D01*
X214452Y102071D01*
X214442Y102056D01*
X214422Y102031D01*
X214393Y102012D01*
X214354Y101987D01*
X214300Y101962D01*
X214235Y101948D01*
X214157Y101943D01*
X214152D01*
X214142D01*
X214127D01*
X214103Y101948D01*
X214054Y101953D01*
X214004Y101962D01*
X213999D01*
X213994Y101967D01*
X213970Y101982D01*
X213935Y102007D01*
X213896Y102046D01*
Y102051D01*
X213886Y102056D01*
X213876Y102071D01*
X213866Y102095D01*
X213852Y102120D01*
X213837Y102154D01*
X213817Y102189D01*
X213803Y102233D01*
Y102238D01*
X213798Y102258D01*
X213788Y102282D01*
X213778Y102322D01*
X213763Y102366D01*
X213748Y102420D01*
X213734Y102484D01*
X213719Y102553D01*
Y102558D01*
X213714Y102568D01*
X213709Y102582D01*
X213704Y102607D01*
X213699Y102632D01*
X213689Y102666D01*
X213670Y102740D01*
X213640Y102819D01*
X213611Y102907D01*
X213576Y102996D01*
X213542Y103074D01*
X213537Y103084D01*
X213527Y103109D01*
X213507Y103148D01*
X213478Y103192D01*
X213443Y103242D01*
X213409Y103296D01*
X213365Y103350D01*
X213316Y103394D01*
X213311Y103399D01*
X213291Y103414D01*
X213266Y103434D01*
X213227Y103458D01*
X213183Y103483D01*
X213128Y103512D01*
X213070Y103532D01*
X213005Y103552D01*
X212996D01*
X212976Y103557D01*
X212937Y103566D01*
X212887Y103576D01*
X212824Y103581D01*
X212750Y103591D01*
X212666Y103596D01*
X215185D01*
X212523D01*
X212484Y103591D01*
X212445Y103586D01*
X212390Y103581D01*
X212336Y103571D01*
X212277Y103557D01*
X212144Y103517D01*
X212081Y103493D01*
X212012Y103463D01*
X211948Y103424D01*
X211884Y103379D01*
X211825Y103330D01*
X211771Y103276D01*
X211766Y103271D01*
X211761Y103261D01*
X211746Y103242D01*
X211726Y103217D01*
X211707Y103178D01*
X211687Y103138D01*
X211662Y103084D01*
X211638Y103025D01*
X211608Y102956D01*
X211584Y102878D01*
X211564Y102789D01*
X211544Y102691D01*
X211525Y102587D01*
X211510Y102474D01*
X211505Y102346D01*
X211500Y102213D01*
Y102100D01*
X211505Y102022D01*
X211510Y101928D01*
X211515Y101830D01*
X211525Y101726D01*
X211539Y101618D01*
Y101608D01*
X211544Y101593D01*
Y101574D01*
X211554Y101520D01*
X211564Y101456D01*
X211579Y101387D01*
X211594Y101313D01*
X211608Y101239D01*
X211623Y101170D01*
X212312D01*
Y101175D01*
X212307Y101185D01*
X212302Y101205D01*
X212292Y101229D01*
X212282Y101259D01*
X212272Y101293D01*
X212253Y101372D01*
Y101377D01*
X212248Y101392D01*
X212243Y101416D01*
X212238Y101446D01*
X212233Y101485D01*
X212223Y101530D01*
X212209Y101623D01*
Y101648D01*
X212204Y101672D01*
X212199Y101711D01*
X212194Y101751D01*
X212189Y101800D01*
X212179Y101903D01*
Y101928D01*
X212174Y101957D01*
Y102036D01*
X212169Y102081D01*
Y102248D01*
X212174Y102287D01*
Y102336D01*
X212179Y102386D01*
X212184Y102435D01*
X212189Y102479D01*
Y102484D01*
X212194Y102499D01*
X212199Y102523D01*
X212204Y102548D01*
X212228Y102612D01*
X212258Y102676D01*
X212263Y102681D01*
X212267Y102691D01*
X212297Y102720D01*
X212336Y102755D01*
X212395Y102784D01*
X212400D01*
X212410Y102789D01*
X212430Y102794D01*
X212455Y102799D01*
X212484Y102804D01*
X212518Y102809D01*
X212597Y102814D01*
X212602D01*
X212617D01*
X212632D01*
X212656Y102809D01*
X212715Y102804D01*
X212769Y102789D01*
X212774D01*
X212784Y102784D01*
X212814Y102769D01*
X212853Y102735D01*
X212897Y102691D01*
X212902Y102686D01*
X212907Y102676D01*
X212917Y102661D01*
X212932Y102641D01*
X212947Y102612D01*
X212966Y102577D01*
X212986Y102538D01*
X213001Y102494D01*
Y102489D01*
X213010Y102469D01*
X213020Y102445D01*
X213030Y102405D01*
X213050Y102361D01*
X213065Y102302D01*
X213084Y102238D01*
X213104Y102164D01*
Y102159D01*
X213109Y102149D01*
Y102135D01*
X213114Y102115D01*
X213128Y102061D01*
X213148Y101997D01*
X213168Y101918D01*
X213193Y101839D01*
X213217Y101756D01*
X213247Y101682D01*
X213251Y101672D01*
X213261Y101653D01*
X213281Y101618D01*
X213301Y101574D01*
X213330Y101525D01*
X213365Y101475D01*
X213404Y101426D01*
X213443Y101382D01*
X213448Y101377D01*
X213463Y101362D01*
X213488Y101342D01*
X213522Y101318D01*
X213562Y101293D01*
X213611Y101264D01*
X213665Y101239D01*
X213724Y101219D01*
X213734D01*
X213753Y101215D01*
X213788Y101205D01*
X213837Y101200D01*
X213896Y101190D01*
X213970Y101180D01*
X214049Y101175D01*
X214137D01*
X214142D01*
X214162D01*
X214191D01*
X214231Y101180D01*
X214275Y101185D01*
X214329Y101195D01*
X214388Y101205D01*
X214452Y101219D01*
X214516Y101234D01*
X214585Y101259D01*
X214649Y101288D01*
X214718Y101323D01*
X214782Y101362D01*
X214841Y101407D01*
X214895Y101461D01*
X214944Y101520D01*
X214949Y101525D01*
X214954Y101534D01*
X214969Y101554D01*
X214983Y101584D01*
X214998Y101618D01*
X215023Y101662D01*
X215042Y101711D01*
X215067Y101771D01*
X215087Y101834D01*
X215111Y101908D01*
X215131Y101987D01*
X215146Y102076D01*
X215165Y102169D01*
X215175Y102268D01*
X215180Y102376D01*
X215185Y102489D01*
Y101170D01*
X215185D01*
X215185D01*
Y103596D01*
D02*
G37*
G36*
X215131Y100506D02*
X211500D01*
X212681D01*
X212651Y100501D01*
X212617D01*
X212543Y100491D01*
X212455Y100481D01*
X212356Y100462D01*
X212263Y100437D01*
X212169Y100403D01*
X212164D01*
X212159Y100398D01*
X212130Y100383D01*
X212086Y100363D01*
X212031Y100329D01*
X211972Y100290D01*
X211903Y100240D01*
X211840Y100181D01*
X211780Y100112D01*
X211775Y100103D01*
X211756Y100078D01*
X211731Y100039D01*
X211697Y99980D01*
X211662Y99911D01*
X211628Y99832D01*
X211594Y99743D01*
X211564Y99640D01*
Y99635D01*
X211559Y99625D01*
Y99611D01*
X211554Y99591D01*
X211549Y99566D01*
X211544Y99532D01*
X211534Y99453D01*
X211520Y99360D01*
X211510Y99252D01*
X211505Y99133D01*
X211500Y99001D01*
Y98907D01*
X211505Y98873D01*
X211510Y98784D01*
X211515Y98686D01*
X211525Y98577D01*
X211539Y98464D01*
X211559Y98356D01*
Y98351D01*
X211564Y98346D01*
Y98331D01*
X211569Y98312D01*
X211584Y98258D01*
X211608Y98194D01*
X211633Y98120D01*
X211667Y98041D01*
X211712Y97962D01*
X211761Y97889D01*
X211766Y97879D01*
X211785Y97859D01*
X211820Y97825D01*
X211864Y97780D01*
X211918Y97731D01*
X211982Y97687D01*
X212056Y97638D01*
X212140Y97598D01*
X212144D01*
X212149Y97593D01*
X212164Y97589D01*
X212184Y97584D01*
X212233Y97569D01*
X212307Y97549D01*
X212390Y97530D01*
X212494Y97515D01*
X212607Y97505D01*
X212735Y97500D01*
X215131D01*
Y98317D01*
Y98287D01*
X212824D01*
X212819D01*
X212794D01*
X212764D01*
X212725Y98292D01*
X212681D01*
X212636Y98302D01*
X212538Y98317D01*
X212533D01*
X212518Y98322D01*
X212494Y98331D01*
X212464Y98341D01*
X212400Y98376D01*
X212366Y98400D01*
X212332Y98430D01*
X212327Y98435D01*
X212317Y98445D01*
X212302Y98464D01*
X212287Y98489D01*
X212263Y98518D01*
X212243Y98558D01*
X212223Y98602D01*
X212209Y98651D01*
Y98656D01*
X212204Y98676D01*
X212199Y98705D01*
X212189Y98750D01*
X212184Y98799D01*
X212174Y98863D01*
X212169Y98932D01*
Y99045D01*
X212174Y99084D01*
Y99133D01*
X212179Y99193D01*
X212189Y99252D01*
X212199Y99311D01*
X212213Y99365D01*
Y99370D01*
X212223Y99389D01*
X212233Y99414D01*
X212248Y99448D01*
X212287Y99517D01*
X212312Y99557D01*
X212341Y99586D01*
X212346Y99591D01*
X212356Y99601D01*
X212376Y99611D01*
X212400Y99630D01*
X212430Y99645D01*
X212464Y99665D01*
X212548Y99694D01*
X212553D01*
X212568Y99699D01*
X212597Y99704D01*
X212627Y99714D01*
X212671Y99719D01*
X212715Y99724D01*
X212769Y99729D01*
X212824D01*
X215131D01*
Y99311D01*
Y100506D01*
D02*
G37*
%LPD*%
G36*
Y113574D02*
X212824D01*
X212819D01*
X212794D01*
X212764D01*
X212725Y113579D01*
X212681D01*
X212636Y113588D01*
X212538Y113603D01*
X212533D01*
X212518Y113608D01*
X212494Y113618D01*
X212464Y113628D01*
X212400Y113662D01*
X212366Y113687D01*
X212332Y113716D01*
X212327Y113721D01*
X212317Y113731D01*
X212302Y113751D01*
X212287Y113775D01*
X212263Y113805D01*
X212243Y113844D01*
X212223Y113889D01*
X212209Y113938D01*
Y113943D01*
X212204Y113962D01*
X212199Y113992D01*
X212189Y114036D01*
X212184Y114085D01*
X212174Y114149D01*
X212169Y114218D01*
Y114331D01*
X212174Y114371D01*
Y114420D01*
X212179Y114479D01*
X212189Y114538D01*
X212199Y114597D01*
X212213Y114651D01*
Y114656D01*
X212223Y114676D01*
X212233Y114700D01*
X212248Y114735D01*
X212287Y114804D01*
X212312Y114843D01*
X212341Y114873D01*
X212346Y114877D01*
X212356Y114887D01*
X212376Y114897D01*
X212400Y114917D01*
X212430Y114932D01*
X212464Y114951D01*
X212548Y114981D01*
X212553D01*
X212568Y114986D01*
X212597Y114991D01*
X212627Y115000D01*
X212671Y115005D01*
X212715Y115010D01*
X212769Y115015D01*
X212824D01*
X215131D01*
Y113574D01*
D02*
G37*
G36*
X213532Y111276D02*
X213616Y111271D01*
X213709Y111266D01*
X213803Y111256D01*
X213891Y111247D01*
X213896D01*
X213901D01*
X213931Y111242D01*
X213970Y111232D01*
X214024Y111217D01*
X214083Y111202D01*
X214147Y111182D01*
X214206Y111153D01*
X214265Y111124D01*
X214270Y111119D01*
X214290Y111109D01*
X214314Y111089D01*
X214349Y111064D01*
X214383Y111030D01*
X214418Y110986D01*
X214447Y110936D01*
X214477Y110882D01*
X214481Y110878D01*
X214486Y110853D01*
X214496Y110818D01*
X214511Y110774D01*
X214526Y110715D01*
X214536Y110646D01*
X214541Y110563D01*
X214545Y110474D01*
Y110435D01*
X214541Y110390D01*
X214536Y110331D01*
X214531Y110267D01*
X214516Y110198D01*
X214501Y110135D01*
X214477Y110071D01*
X214472Y110066D01*
X214467Y110046D01*
X214447Y110017D01*
X214427Y109982D01*
X214398Y109943D01*
X214358Y109903D01*
X214314Y109864D01*
X214265Y109829D01*
X214260Y109825D01*
X214240Y109815D01*
X214206Y109800D01*
X214167Y109780D01*
X214112Y109761D01*
X214049Y109741D01*
X213975Y109721D01*
X213891Y109706D01*
X213886D01*
X213881D01*
X213866Y109702D01*
X213852D01*
X213803Y109697D01*
X213739Y109692D01*
X213655Y109682D01*
X213562Y109677D01*
X213458Y109672D01*
X213340D01*
X213335D01*
X213325D01*
X213311D01*
X213286D01*
X213256D01*
X213222D01*
X213148Y109677D01*
X213060Y109682D01*
X212966Y109687D01*
X212868Y109697D01*
X212779Y109706D01*
X212769D01*
X212740Y109711D01*
X212701Y109721D01*
X212651Y109736D01*
X212592Y109751D01*
X212528Y109775D01*
X212469Y109800D01*
X212415Y109829D01*
X212410Y109834D01*
X212390Y109844D01*
X212366Y109864D01*
X212336Y109894D01*
X212307Y109928D01*
X212272Y109967D01*
X212243Y110017D01*
X212213Y110071D01*
X212209Y110080D01*
X212204Y110100D01*
X212194Y110135D01*
X212184Y110179D01*
X212169Y110238D01*
X212159Y110307D01*
X212154Y110386D01*
X212149Y110474D01*
Y110518D01*
X212154Y110563D01*
X212159Y110622D01*
X212164Y110686D01*
X212179Y110755D01*
X212194Y110818D01*
X212213Y110882D01*
X212218Y110887D01*
X212228Y110907D01*
X212243Y110936D01*
X212263Y110971D01*
X212292Y111010D01*
X212327Y111050D01*
X212366Y111089D01*
X212415Y111124D01*
X212420Y111128D01*
X212440Y111138D01*
X212469Y111153D01*
X212513Y111173D01*
X212563Y111192D01*
X212627Y111212D01*
X212701Y111232D01*
X212779Y111247D01*
X212784D01*
X212789D01*
X212804Y111251D01*
X212819D01*
X212868Y111256D01*
X212937Y111266D01*
X213020Y111271D01*
X213114Y111276D01*
X213222Y111281D01*
X213340D01*
X213345D01*
X213355D01*
X213370D01*
X213394D01*
X213424D01*
X213453D01*
X213532Y111276D01*
D02*
G37*
G36*
X214162Y106041D02*
X214235Y106026D01*
X214270Y106017D01*
X214304Y106002D01*
X214309D01*
X214319Y105997D01*
X214334Y105987D01*
X214354Y105972D01*
X214393Y105933D01*
X214432Y105874D01*
Y105869D01*
X214442Y105859D01*
X214447Y105839D01*
X214457Y105815D01*
X214467Y105780D01*
X214477Y105741D01*
X214486Y105697D01*
X214491Y105648D01*
Y105643D01*
X214496Y105623D01*
Y105593D01*
X214501Y105554D01*
Y105510D01*
X214506Y105451D01*
Y105057D01*
X213655D01*
Y105436D01*
X213660Y105485D01*
Y105539D01*
X213670Y105648D01*
Y105652D01*
X213675Y105672D01*
X213680Y105697D01*
X213685Y105726D01*
X213704Y105800D01*
X213734Y105874D01*
Y105879D01*
X213743Y105889D01*
X213753Y105903D01*
X213768Y105923D01*
X213812Y105967D01*
X213866Y106002D01*
X213871D01*
X213881Y106007D01*
X213901Y106017D01*
X213926Y106026D01*
X213955Y106031D01*
X213994Y106041D01*
X214034Y106046D01*
X214083D01*
X214088D01*
X214108D01*
X214132D01*
X214162Y106041D01*
D02*
G37*
G36*
X212705Y106125D02*
X212774Y106115D01*
X212843Y106095D01*
X212848D01*
X212858Y106090D01*
X212873Y106080D01*
X212892Y106071D01*
X212942Y106036D01*
X212966Y106012D01*
X212986Y105982D01*
X212991Y105977D01*
X212996Y105967D01*
X213005Y105948D01*
X213015Y105923D01*
X213030Y105894D01*
X213040Y105854D01*
X213050Y105810D01*
X213060Y105761D01*
Y105756D01*
X213065Y105736D01*
X213070Y105707D01*
X213074Y105667D01*
Y105618D01*
X213079Y105559D01*
X213084Y105490D01*
Y105057D01*
X212179D01*
Y105490D01*
X212184Y105539D01*
Y105593D01*
X212189Y105648D01*
X212194Y105707D01*
X212199Y105761D01*
Y105766D01*
X212204Y105785D01*
X212209Y105810D01*
X212213Y105839D01*
X212238Y105913D01*
X212253Y105948D01*
X212267Y105982D01*
Y105987D01*
X212277Y105997D01*
X212302Y106026D01*
X212346Y106066D01*
X212376Y106080D01*
X212405Y106095D01*
X212410D01*
X212420Y106100D01*
X212440Y106105D01*
X212469Y106115D01*
X212499Y106120D01*
X212538Y106125D01*
X212582Y106130D01*
X212632D01*
X212636D01*
X212651D01*
X212676D01*
X212705Y106125D01*
D02*
G37*
%LPC*%
G36*
X215131Y68927D02*
X214447D01*
Y67987D01*
X211549D01*
Y68927D01*
D01*
Y66265D01*
Y67210D01*
X214447D01*
Y66265D01*
X211549D01*
X215131D01*
Y68927D01*
D02*
G37*
G36*
Y65793D02*
X211500D01*
Y64194D01*
X211505Y64159D01*
X211510Y64071D01*
X211515Y63972D01*
X211525Y63864D01*
X211539Y63751D01*
X211559Y63643D01*
Y63638D01*
X211564Y63633D01*
Y63618D01*
X211569Y63598D01*
X211584Y63544D01*
X211608Y63480D01*
X211633Y63406D01*
X211667Y63328D01*
X211712Y63249D01*
X211761Y63175D01*
X211766Y63165D01*
X211785Y63146D01*
X211820Y63111D01*
X211864Y63067D01*
X211918Y63018D01*
X211982Y62973D01*
X212056Y62924D01*
X212140Y62885D01*
X212144D01*
X212149Y62880D01*
X212164Y62875D01*
X212184Y62870D01*
X212233Y62855D01*
X212307Y62836D01*
X212390Y62816D01*
X212494Y62801D01*
X212607Y62791D01*
X212735Y62786D01*
X215131D01*
Y63574D01*
X212824D01*
X212819D01*
X212794D01*
X212764D01*
X212725Y63579D01*
X212681D01*
X212636Y63588D01*
X212538Y63603D01*
X212533D01*
X212518Y63608D01*
X212494Y63618D01*
X212464Y63628D01*
X212400Y63662D01*
X212366Y63687D01*
X212332Y63716D01*
X212327Y63721D01*
X212317Y63731D01*
X212302Y63751D01*
X212287Y63775D01*
X212263Y63805D01*
X212243Y63844D01*
X212223Y63889D01*
X212209Y63938D01*
Y63943D01*
X212204Y63962D01*
X212199Y63992D01*
X212189Y64036D01*
X212184Y64085D01*
X212174Y64149D01*
X212169Y64218D01*
Y64331D01*
X212174Y64371D01*
Y64420D01*
X212179Y64479D01*
X212189Y64538D01*
X212199Y64597D01*
X212213Y64651D01*
Y64656D01*
X212223Y64676D01*
X212233Y64700D01*
X212248Y64735D01*
X212287Y64804D01*
X212312Y64843D01*
X212341Y64872D01*
X212346Y64877D01*
X212356Y64887D01*
X212376Y64897D01*
X212400Y64917D01*
X212430Y64932D01*
X212464Y64951D01*
X212548Y64981D01*
X212553D01*
X212568Y64986D01*
X212597Y64991D01*
X212627Y65000D01*
X212671Y65005D01*
X212715Y65010D01*
X212769Y65015D01*
X212824D01*
X215131D01*
Y65793D01*
D02*
G37*
G36*
X215185Y62103D02*
D01*
Y60572D01*
X215180Y60617D01*
Y60661D01*
X215175Y60710D01*
X215165Y60818D01*
X215151Y60936D01*
X215131Y61055D01*
X215101Y61173D01*
Y61178D01*
X215096Y61187D01*
X215092Y61202D01*
X215087Y61222D01*
X215062Y61281D01*
X215033Y61350D01*
X214993Y61433D01*
X214944Y61517D01*
X214880Y61606D01*
X214806Y61684D01*
X214796Y61694D01*
X214767Y61719D01*
X214723Y61753D01*
X214659Y61802D01*
X214575Y61852D01*
X214481Y61901D01*
X214368Y61950D01*
X214240Y61994D01*
X214235D01*
X214226Y61999D01*
X214206Y62004D01*
X214177Y62009D01*
X214142Y62019D01*
X214098Y62029D01*
X214049Y62039D01*
X213994Y62048D01*
X213935Y62058D01*
X213866Y62068D01*
X213793Y62078D01*
X213709Y62088D01*
X213625Y62093D01*
X213537Y62098D01*
X213439Y62103D01*
X215185D01*
X211500D01*
X213251D01*
X213202Y62098D01*
X213148D01*
X213089Y62093D01*
X213020Y62088D01*
X212878Y62078D01*
X212730Y62058D01*
X212578Y62029D01*
X212435Y61994D01*
X212430D01*
X212420Y61989D01*
X212400Y61984D01*
X212376Y61975D01*
X212346Y61965D01*
X212312Y61950D01*
X212233Y61916D01*
X212140Y61871D01*
X212046Y61822D01*
X211953Y61758D01*
X211869Y61684D01*
X211859Y61674D01*
X211835Y61650D01*
X211800Y61601D01*
X211756Y61542D01*
X211707Y61468D01*
X211657Y61379D01*
X211613Y61281D01*
X211579Y61173D01*
Y61168D01*
X211574Y61158D01*
Y61143D01*
X211569Y61119D01*
X211559Y61089D01*
X211554Y61055D01*
X211549Y61015D01*
X211539Y60971D01*
X211525Y60868D01*
X211515Y60750D01*
X211505Y60617D01*
X211500Y60474D01*
Y58846D01*
Y60410D01*
X211505Y60376D01*
Y60292D01*
X211510Y60243D01*
X211520Y60135D01*
X211534Y60017D01*
X211554Y59898D01*
X211579Y59780D01*
Y59775D01*
X211584Y59766D01*
X211589Y59751D01*
X211594Y59731D01*
X211618Y59677D01*
X211648Y59603D01*
X211687Y59525D01*
X211736Y59441D01*
X211795Y59357D01*
X211869Y59274D01*
X211874D01*
X211879Y59264D01*
X211908Y59239D01*
X211953Y59205D01*
X212021Y59155D01*
X212100Y59106D01*
X212199Y59052D01*
X212307Y58998D01*
X212435Y58954D01*
X212440D01*
X212450Y58949D01*
X212469Y58944D01*
X212499Y58939D01*
X212533Y58929D01*
X212578Y58919D01*
X212627Y58909D01*
X212681Y58900D01*
X212745Y58890D01*
X212814Y58880D01*
X212887Y58870D01*
X212966Y58860D01*
X213055Y58855D01*
X213143Y58850D01*
X213340Y58846D01*
X213434D01*
X213478Y58850D01*
X213532D01*
X213591Y58855D01*
X213660Y58860D01*
X213798Y58870D01*
X213950Y58890D01*
X214098Y58919D01*
X214240Y58954D01*
X214245D01*
X214255Y58959D01*
X214275Y58964D01*
X214300Y58973D01*
X214329Y58988D01*
X214363Y59003D01*
X214447Y59037D01*
X214536Y59082D01*
X214629Y59136D01*
X214723Y59200D01*
X214806Y59274D01*
X214811Y59279D01*
X214816Y59283D01*
X214841Y59313D01*
X214880Y59357D01*
X214924Y59416D01*
X214973Y59490D01*
X215018Y59574D01*
X215067Y59672D01*
X215101Y59780D01*
Y59785D01*
X215106Y59795D01*
X215111Y59810D01*
X215116Y59834D01*
X215121Y59864D01*
X215126Y59898D01*
X215136Y59938D01*
X215146Y59982D01*
X215160Y60085D01*
X215170Y60203D01*
X215180Y60331D01*
X215185Y60474D01*
Y62103D01*
D02*
G37*
G36*
X215131Y56927D02*
D01*
Y55579D01*
X215126Y55618D01*
Y55712D01*
X215116Y55810D01*
X215106Y55918D01*
X215092Y56026D01*
X215072Y56130D01*
Y56135D01*
X215067Y56139D01*
Y56154D01*
X215062Y56174D01*
X215047Y56218D01*
X215028Y56277D01*
X215003Y56346D01*
X214969Y56415D01*
X214934Y56484D01*
X214890Y56543D01*
X214885Y56548D01*
X214870Y56568D01*
X214841Y56592D01*
X214806Y56627D01*
X214767Y56661D01*
X214713Y56695D01*
X214654Y56730D01*
X214590Y56754D01*
X214580Y56759D01*
X214555Y56764D01*
X214521Y56774D01*
X214467Y56789D01*
X214408Y56799D01*
X214334Y56809D01*
X214255Y56814D01*
X214167Y56818D01*
X214162D01*
X214157D01*
X214142D01*
X214122D01*
X214068Y56814D01*
X214004Y56804D01*
X213931Y56789D01*
X213852Y56769D01*
X213773Y56745D01*
X213699Y56705D01*
X213689Y56700D01*
X213670Y56686D01*
X213635Y56656D01*
X213596Y56612D01*
X213557Y56558D01*
X213512Y56484D01*
X213468Y56400D01*
X213434Y56297D01*
X213414D01*
Y56302D01*
X213404Y56327D01*
X213394Y56356D01*
X213379Y56395D01*
X213355Y56445D01*
X213325Y56499D01*
X213291Y56553D01*
X213251Y56612D01*
X213197Y56671D01*
X213138Y56730D01*
X213070Y56779D01*
X212996Y56828D01*
X212907Y56868D01*
X212809Y56902D01*
X212701Y56922D01*
X212582Y56927D01*
X215131D01*
X211549D01*
X212543D01*
X212494Y56922D01*
X212435Y56917D01*
X212366Y56912D01*
X212292Y56902D01*
X212213Y56882D01*
X212140Y56863D01*
X212130Y56858D01*
X212110Y56853D01*
X212071Y56838D01*
X212026Y56814D01*
X211977Y56784D01*
X211923Y56750D01*
X211869Y56705D01*
X211815Y56651D01*
X211810Y56646D01*
X211795Y56622D01*
X211771Y56587D01*
X211741Y56543D01*
X211712Y56484D01*
X211677Y56415D01*
X211648Y56331D01*
X211618Y56238D01*
Y56233D01*
X211613Y56228D01*
Y56213D01*
X211608Y56194D01*
X211603Y56169D01*
X211598Y56135D01*
X211589Y56100D01*
X211584Y56061D01*
X211569Y55967D01*
X211559Y55854D01*
X211554Y55731D01*
X211549Y55589D01*
Y54270D01*
X215131D01*
Y56927D01*
D02*
G37*
G36*
X212666Y53596D02*
X211500D01*
X212523D01*
X212484Y53591D01*
X212445Y53586D01*
X212390Y53581D01*
X212336Y53571D01*
X212277Y53557D01*
X212144Y53517D01*
X212081Y53493D01*
X212012Y53463D01*
X211948Y53424D01*
X211884Y53379D01*
X211825Y53330D01*
X211771Y53276D01*
X211766Y53271D01*
X211761Y53261D01*
X211746Y53242D01*
X211726Y53217D01*
X211707Y53178D01*
X211687Y53138D01*
X211662Y53084D01*
X211638Y53025D01*
X211608Y52956D01*
X211584Y52878D01*
X211564Y52789D01*
X211544Y52691D01*
X211525Y52587D01*
X211510Y52474D01*
X211505Y52346D01*
X211500Y52213D01*
Y52100D01*
X211505Y52021D01*
X211510Y51928D01*
X211515Y51830D01*
X211525Y51726D01*
X211539Y51618D01*
Y51608D01*
X211544Y51593D01*
Y51574D01*
X211554Y51520D01*
X211564Y51456D01*
X211579Y51387D01*
X211594Y51313D01*
X211608Y51239D01*
X211623Y51170D01*
X212312D01*
Y51175D01*
X212307Y51185D01*
X212302Y51205D01*
X212292Y51229D01*
X212282Y51259D01*
X212272Y51293D01*
X212253Y51372D01*
Y51377D01*
X212248Y51392D01*
X212243Y51416D01*
X212238Y51446D01*
X212233Y51485D01*
X212223Y51530D01*
X212209Y51623D01*
Y51648D01*
X212204Y51672D01*
X212199Y51711D01*
X212194Y51751D01*
X212189Y51800D01*
X212179Y51903D01*
Y51928D01*
X212174Y51957D01*
Y52036D01*
X212169Y52081D01*
Y52248D01*
X212174Y52287D01*
Y52336D01*
X212179Y52386D01*
X212184Y52435D01*
X212189Y52479D01*
Y52484D01*
X212194Y52499D01*
X212199Y52523D01*
X212204Y52548D01*
X212228Y52612D01*
X212258Y52676D01*
X212263Y52681D01*
X212267Y52691D01*
X212297Y52720D01*
X212336Y52755D01*
X212395Y52784D01*
X212400D01*
X212410Y52789D01*
X212430Y52794D01*
X212455Y52799D01*
X212484Y52804D01*
X212518Y52809D01*
X212597Y52814D01*
X212602D01*
X212617D01*
X212632D01*
X212656Y52809D01*
X212715Y52804D01*
X212769Y52789D01*
X212774D01*
X212784Y52784D01*
X212814Y52769D01*
X212853Y52735D01*
X212897Y52691D01*
X212902Y52686D01*
X212907Y52676D01*
X212917Y52661D01*
X212932Y52641D01*
X212947Y52612D01*
X212966Y52577D01*
X212986Y52538D01*
X213001Y52494D01*
Y52489D01*
X213010Y52469D01*
X213020Y52445D01*
X213030Y52405D01*
X213050Y52361D01*
X213065Y52302D01*
X213084Y52238D01*
X213104Y52164D01*
Y52159D01*
X213109Y52149D01*
Y52135D01*
X213114Y52115D01*
X213128Y52061D01*
X213148Y51997D01*
X213168Y51918D01*
X213193Y51839D01*
X213217Y51756D01*
X213247Y51682D01*
X213251Y51672D01*
X213261Y51652D01*
X213281Y51618D01*
X213301Y51574D01*
X213330Y51525D01*
X213365Y51475D01*
X213404Y51426D01*
X213443Y51382D01*
X213448Y51377D01*
X213463Y51362D01*
X213488Y51342D01*
X213522Y51318D01*
X213562Y51293D01*
X213611Y51264D01*
X213665Y51239D01*
X213724Y51219D01*
X213734D01*
X213753Y51215D01*
X213788Y51205D01*
X213837Y51200D01*
X213896Y51190D01*
X213970Y51180D01*
X214049Y51175D01*
X214137D01*
X214142D01*
X214162D01*
X214191D01*
X214231Y51180D01*
X214275Y51185D01*
X214329Y51195D01*
X214388Y51205D01*
X214452Y51219D01*
X214516Y51234D01*
X214585Y51259D01*
X214649Y51288D01*
X214718Y51323D01*
X214782Y51362D01*
X214841Y51407D01*
X214895Y51461D01*
X214944Y51520D01*
X214949Y51525D01*
X214954Y51534D01*
X214969Y51554D01*
X214983Y51584D01*
X214998Y51618D01*
X215023Y51662D01*
X215042Y51711D01*
X215067Y51771D01*
X215087Y51834D01*
X215111Y51908D01*
X215131Y51987D01*
X215146Y52076D01*
X215165Y52169D01*
X215175Y52267D01*
X215180Y52376D01*
X215185Y52489D01*
Y51259D01*
Y52489D01*
Y52632D01*
Y52597D01*
X215180Y52671D01*
X215175Y52755D01*
X215170Y52848D01*
X215160Y52942D01*
X215146Y53030D01*
Y53040D01*
X215141Y53069D01*
X215131Y53114D01*
X215121Y53168D01*
X215106Y53227D01*
X215092Y53291D01*
X215072Y53350D01*
X215052Y53409D01*
X214408D01*
Y53404D01*
X214413Y53399D01*
X214418Y53379D01*
X214422Y53360D01*
X214437Y53306D01*
X214452Y53237D01*
Y53232D01*
X214457Y53217D01*
X214462Y53197D01*
X214467Y53168D01*
X214472Y53138D01*
X214481Y53099D01*
X214496Y53010D01*
Y53005D01*
X214501Y52991D01*
Y52966D01*
X214506Y52932D01*
X214511Y52897D01*
X214516Y52853D01*
X214526Y52759D01*
Y52740D01*
X214531Y52715D01*
Y52646D01*
X214536Y52602D01*
Y52469D01*
X214531Y52415D01*
X214526Y52351D01*
X214516Y52277D01*
X214501Y52204D01*
X214481Y52135D01*
X214457Y52076D01*
X214452Y52071D01*
X214442Y52056D01*
X214422Y52031D01*
X214393Y52012D01*
X214354Y51987D01*
X214300Y51962D01*
X214235Y51948D01*
X214157Y51943D01*
X214152D01*
X214142D01*
X214127D01*
X214103Y51948D01*
X214054Y51953D01*
X214004Y51962D01*
X213999D01*
X213994Y51967D01*
X213970Y51982D01*
X213935Y52007D01*
X213896Y52046D01*
Y52051D01*
X213886Y52056D01*
X213876Y52071D01*
X213866Y52095D01*
X213852Y52120D01*
X213837Y52154D01*
X213817Y52189D01*
X213803Y52233D01*
Y52238D01*
X213798Y52258D01*
X213788Y52282D01*
X213778Y52322D01*
X213763Y52366D01*
X213748Y52420D01*
X213734Y52484D01*
X213719Y52553D01*
Y52558D01*
X213714Y52568D01*
X213709Y52582D01*
X213704Y52607D01*
X213699Y52632D01*
X213689Y52666D01*
X213670Y52740D01*
X213640Y52819D01*
X213611Y52907D01*
X213576Y52996D01*
X213542Y53074D01*
X213537Y53084D01*
X213527Y53109D01*
X213507Y53148D01*
X213478Y53192D01*
X213443Y53242D01*
X213409Y53296D01*
X213365Y53350D01*
X213316Y53394D01*
X213311Y53399D01*
X213291Y53414D01*
X213266Y53434D01*
X213227Y53458D01*
X213183Y53483D01*
X213128Y53512D01*
X213070Y53532D01*
X213005Y53552D01*
X212996D01*
X212976Y53557D01*
X212937Y53566D01*
X212887Y53576D01*
X212824Y53581D01*
X212750Y53591D01*
X212666Y53596D01*
D02*
G37*
G36*
X215131Y50506D02*
X211500D01*
X212681D01*
X212651Y50501D01*
X212617D01*
X212543Y50491D01*
X212455Y50481D01*
X212356Y50462D01*
X212263Y50437D01*
X212169Y50403D01*
X212164D01*
X212159Y50398D01*
X212130Y50383D01*
X212086Y50363D01*
X212031Y50329D01*
X211972Y50290D01*
X211903Y50240D01*
X211840Y50181D01*
X211780Y50112D01*
X211775Y50103D01*
X211756Y50078D01*
X211731Y50039D01*
X211697Y49980D01*
X211662Y49911D01*
X211628Y49832D01*
X211594Y49744D01*
X211564Y49640D01*
Y49635D01*
X211559Y49625D01*
Y49611D01*
X211554Y49591D01*
X211549Y49566D01*
X211544Y49532D01*
X211534Y49453D01*
X211520Y49360D01*
X211510Y49251D01*
X211505Y49133D01*
X211500Y49001D01*
Y48907D01*
X211505Y48873D01*
X211510Y48784D01*
X211515Y48686D01*
X211525Y48577D01*
X211539Y48464D01*
X211559Y48356D01*
Y48351D01*
X211564Y48346D01*
Y48331D01*
X211569Y48312D01*
X211584Y48258D01*
X211608Y48194D01*
X211633Y48120D01*
X211667Y48041D01*
X211712Y47962D01*
X211761Y47889D01*
X211766Y47879D01*
X211785Y47859D01*
X211820Y47825D01*
X211864Y47780D01*
X211918Y47731D01*
X211982Y47687D01*
X212056Y47638D01*
X212140Y47598D01*
X212144D01*
X212149Y47594D01*
X212164Y47589D01*
X212184Y47584D01*
X212233Y47569D01*
X212307Y47549D01*
X212390Y47530D01*
X212494Y47515D01*
X212607Y47505D01*
X212735Y47500D01*
X215131D01*
Y48317D01*
Y48287D01*
X212824D01*
X212819D01*
X212794D01*
X212764D01*
X212725Y48292D01*
X212681D01*
X212636Y48302D01*
X212538Y48317D01*
X212533D01*
X212518Y48322D01*
X212494Y48331D01*
X212464Y48341D01*
X212400Y48376D01*
X212366Y48400D01*
X212332Y48430D01*
X212327Y48435D01*
X212317Y48445D01*
X212302Y48464D01*
X212287Y48489D01*
X212263Y48518D01*
X212243Y48558D01*
X212223Y48602D01*
X212209Y48651D01*
Y48656D01*
X212204Y48676D01*
X212199Y48705D01*
X212189Y48750D01*
X212184Y48799D01*
X212174Y48863D01*
X212169Y48932D01*
Y49045D01*
X212174Y49084D01*
Y49133D01*
X212179Y49193D01*
X212189Y49251D01*
X212199Y49311D01*
X212213Y49365D01*
Y49370D01*
X212223Y49389D01*
X212233Y49414D01*
X212248Y49448D01*
X212287Y49517D01*
X212312Y49557D01*
X212341Y49586D01*
X212346Y49591D01*
X212356Y49601D01*
X212376Y49611D01*
X212400Y49630D01*
X212430Y49645D01*
X212464Y49665D01*
X212548Y49694D01*
X212553D01*
X212568Y49699D01*
X212597Y49704D01*
X212627Y49714D01*
X212671Y49719D01*
X212715Y49724D01*
X212769Y49729D01*
X212824D01*
X215131D01*
Y49311D01*
Y50506D01*
D02*
G37*
%LPD*%
G36*
X212651Y65788D02*
X212617D01*
X212543Y65778D01*
X212455Y65768D01*
X212356Y65748D01*
X212263Y65724D01*
X212169Y65689D01*
X212164D01*
X212159Y65684D01*
X212130Y65670D01*
X212086Y65650D01*
X212031Y65615D01*
X211972Y65576D01*
X211903Y65527D01*
X211840Y65468D01*
X211780Y65399D01*
X211775Y65389D01*
X211756Y65364D01*
X211731Y65325D01*
X211697Y65266D01*
X211662Y65197D01*
X211628Y65118D01*
X211594Y65030D01*
X211564Y64927D01*
Y64922D01*
X211559Y64912D01*
Y64897D01*
X211554Y64877D01*
X211549Y64853D01*
X211544Y64818D01*
X211534Y64740D01*
X211520Y64646D01*
X211510Y64538D01*
X211505Y64420D01*
X211500Y64287D01*
Y65793D01*
X212681D01*
X212651Y65788D01*
D02*
G37*
G36*
X213532Y61276D02*
X213616Y61271D01*
X213709Y61266D01*
X213803Y61256D01*
X213891Y61247D01*
X213896D01*
X213901D01*
X213931Y61242D01*
X213970Y61232D01*
X214024Y61217D01*
X214083Y61202D01*
X214147Y61182D01*
X214206Y61153D01*
X214265Y61124D01*
X214270Y61119D01*
X214290Y61109D01*
X214314Y61089D01*
X214349Y61064D01*
X214383Y61030D01*
X214418Y60986D01*
X214447Y60936D01*
X214477Y60882D01*
X214481Y60878D01*
X214486Y60853D01*
X214496Y60818D01*
X214511Y60774D01*
X214526Y60715D01*
X214536Y60646D01*
X214541Y60563D01*
X214545Y60474D01*
Y60435D01*
X214541Y60390D01*
X214536Y60331D01*
X214531Y60267D01*
X214516Y60198D01*
X214501Y60135D01*
X214477Y60071D01*
X214472Y60066D01*
X214467Y60046D01*
X214447Y60017D01*
X214427Y59982D01*
X214398Y59943D01*
X214358Y59903D01*
X214314Y59864D01*
X214265Y59829D01*
X214260Y59825D01*
X214240Y59815D01*
X214206Y59800D01*
X214167Y59780D01*
X214112Y59761D01*
X214049Y59741D01*
X213975Y59721D01*
X213891Y59706D01*
X213886D01*
X213881D01*
X213866Y59702D01*
X213852D01*
X213803Y59697D01*
X213739Y59692D01*
X213655Y59682D01*
X213562Y59677D01*
X213458Y59672D01*
X213340D01*
X213335D01*
X213325D01*
X213311D01*
X213286D01*
X213256D01*
X213222D01*
X213148Y59677D01*
X213060Y59682D01*
X212966Y59687D01*
X212868Y59697D01*
X212779Y59706D01*
X212769D01*
X212740Y59711D01*
X212701Y59721D01*
X212651Y59736D01*
X212592Y59751D01*
X212528Y59775D01*
X212469Y59800D01*
X212415Y59829D01*
X212410Y59834D01*
X212390Y59844D01*
X212366Y59864D01*
X212336Y59894D01*
X212307Y59928D01*
X212272Y59967D01*
X212243Y60017D01*
X212213Y60071D01*
X212209Y60080D01*
X212204Y60100D01*
X212194Y60135D01*
X212184Y60179D01*
X212169Y60238D01*
X212159Y60307D01*
X212154Y60386D01*
X212149Y60474D01*
Y60518D01*
X212154Y60563D01*
X212159Y60622D01*
X212164Y60686D01*
X212179Y60755D01*
X212194Y60818D01*
X212213Y60882D01*
X212218Y60887D01*
X212228Y60907D01*
X212243Y60936D01*
X212263Y60971D01*
X212292Y61010D01*
X212327Y61050D01*
X212366Y61089D01*
X212415Y61124D01*
X212420Y61128D01*
X212440Y61138D01*
X212469Y61153D01*
X212513Y61173D01*
X212563Y61192D01*
X212627Y61212D01*
X212701Y61232D01*
X212779Y61247D01*
X212784D01*
X212789D01*
X212804Y61251D01*
X212819D01*
X212868Y61256D01*
X212937Y61266D01*
X213020Y61271D01*
X213114Y61276D01*
X213222Y61281D01*
X213340D01*
X213345D01*
X213355D01*
X213370D01*
X213394D01*
X213424D01*
X213453D01*
X213532Y61276D01*
D02*
G37*
G36*
X214162Y56041D02*
X214235Y56026D01*
X214270Y56016D01*
X214304Y56002D01*
X214309D01*
X214319Y55997D01*
X214334Y55987D01*
X214354Y55972D01*
X214393Y55933D01*
X214432Y55874D01*
Y55869D01*
X214442Y55859D01*
X214447Y55839D01*
X214457Y55815D01*
X214467Y55780D01*
X214477Y55741D01*
X214486Y55697D01*
X214491Y55647D01*
Y55643D01*
X214496Y55623D01*
Y55593D01*
X214501Y55554D01*
Y55510D01*
X214506Y55451D01*
Y55057D01*
X213655D01*
Y55436D01*
X213660Y55485D01*
Y55539D01*
X213670Y55647D01*
Y55652D01*
X213675Y55672D01*
X213680Y55697D01*
X213685Y55726D01*
X213704Y55800D01*
X213734Y55874D01*
Y55879D01*
X213743Y55889D01*
X213753Y55903D01*
X213768Y55923D01*
X213812Y55967D01*
X213866Y56002D01*
X213871D01*
X213881Y56007D01*
X213901Y56016D01*
X213926Y56026D01*
X213955Y56031D01*
X213994Y56041D01*
X214034Y56046D01*
X214083D01*
X214088D01*
X214108D01*
X214132D01*
X214162Y56041D01*
D02*
G37*
G36*
X212705Y56125D02*
X212774Y56115D01*
X212843Y56095D01*
X212848D01*
X212858Y56090D01*
X212873Y56081D01*
X212892Y56071D01*
X212942Y56036D01*
X212966Y56012D01*
X212986Y55982D01*
X212991Y55977D01*
X212996Y55967D01*
X213005Y55948D01*
X213015Y55923D01*
X213030Y55893D01*
X213040Y55854D01*
X213050Y55810D01*
X213060Y55761D01*
Y55756D01*
X213065Y55736D01*
X213070Y55707D01*
X213074Y55667D01*
Y55618D01*
X213079Y55559D01*
X213084Y55490D01*
Y55057D01*
X212179D01*
Y55490D01*
X212184Y55539D01*
Y55593D01*
X212189Y55647D01*
X212194Y55707D01*
X212199Y55761D01*
Y55766D01*
X212204Y55785D01*
X212209Y55810D01*
X212213Y55839D01*
X212238Y55913D01*
X212253Y55948D01*
X212267Y55982D01*
Y55987D01*
X212277Y55997D01*
X212302Y56026D01*
X212346Y56066D01*
X212376Y56081D01*
X212405Y56095D01*
X212410D01*
X212420Y56100D01*
X212440Y56105D01*
X212469Y56115D01*
X212499Y56120D01*
X212538Y56125D01*
X212582Y56130D01*
X212632D01*
X212636D01*
X212651D01*
X212676D01*
X212705Y56125D01*
D02*
G37*
%LPC*%
G36*
X169739Y133442D02*
X167048D01*
X168086D01*
Y132409D01*
X167048D01*
Y130756D01*
Y131794D01*
X168086D01*
Y130756D01*
X168701D01*
Y131794D01*
X169739D01*
Y132443D01*
Y132409D01*
X168701D01*
Y133442D01*
X169739D01*
D01*
D02*
G37*
G36*
X183500Y134131D02*
X181286D01*
Y130549D01*
X183500D01*
Y134131D01*
D02*
G37*
G36*
X177296D02*
D01*
Y130549D01*
X175958Y134131D01*
X173576D01*
X174905D01*
X173576Y130549D01*
X174408D01*
X174713Y131435D01*
X176169D01*
X176479Y130549D01*
X174846D01*
X177296D01*
Y134131D01*
D02*
G37*
G36*
X173173D02*
X171840D01*
X171800Y134126D01*
X171756D01*
X171707Y134121D01*
X171594Y134116D01*
X171476Y134101D01*
X171353Y134087D01*
X171230Y134062D01*
X171225D01*
X171215Y134057D01*
X171200Y134052D01*
X171175Y134047D01*
X171146Y134042D01*
X171116Y134028D01*
X171038Y134003D01*
X170949Y133969D01*
X170856Y133919D01*
X170762Y133865D01*
X170674Y133796D01*
X170669D01*
X170664Y133787D01*
X170634Y133762D01*
X170595Y133718D01*
X170541Y133654D01*
X170487Y133575D01*
X170428Y133482D01*
X170369Y133373D01*
X170319Y133245D01*
Y133240D01*
X170314Y133231D01*
X170309Y133211D01*
X170300Y133181D01*
X170290Y133147D01*
X170280Y133108D01*
X170270Y133058D01*
X170255Y132999D01*
X170246Y132940D01*
X170236Y132871D01*
X170226Y132798D01*
X170216Y132714D01*
X170206Y132630D01*
X170201Y132537D01*
X170196Y132443D01*
Y132252D01*
X170201Y132207D01*
Y132158D01*
X170206Y132099D01*
X170211Y132035D01*
X170226Y131897D01*
X170250Y131755D01*
X170280Y131612D01*
X170319Y131474D01*
Y131469D01*
X170324Y131459D01*
X170334Y131440D01*
X170344Y131415D01*
X170354Y131391D01*
X170369Y131356D01*
X170408Y131277D01*
X170462Y131189D01*
X170521Y131095D01*
X170590Y131007D01*
X170674Y130923D01*
X170678D01*
X170683Y130913D01*
X170698Y130903D01*
X170713Y130889D01*
X170762Y130854D01*
X170831Y130810D01*
X170910Y130761D01*
X171003Y130712D01*
X171111Y130667D01*
X171230Y130633D01*
X171234D01*
X171244Y130628D01*
X171259Y130623D01*
X171284Y130618D01*
X171313Y130613D01*
X171353Y130608D01*
X171392Y130598D01*
X171436Y130594D01*
X171544Y130574D01*
X171667Y130564D01*
X171800Y130554D01*
X171943Y130549D01*
X170196D01*
X173173D01*
Y134131D01*
D02*
G37*
G36*
X180873Y134185D02*
X177616D01*
D01*
X179146D01*
X179102Y134180D01*
X179057D01*
X179008Y134175D01*
X178900Y134165D01*
X178782Y134151D01*
X178664Y134131D01*
X178546Y134101D01*
X178541D01*
X178531Y134097D01*
X178516Y134092D01*
X178496Y134087D01*
X178437Y134062D01*
X178368Y134033D01*
X178285Y133993D01*
X178201Y133944D01*
X178113Y133880D01*
X178034Y133806D01*
X178024Y133796D01*
X177999Y133767D01*
X177965Y133723D01*
X177916Y133659D01*
X177867Y133575D01*
X177817Y133482D01*
X177768Y133368D01*
X177724Y133240D01*
Y133236D01*
X177719Y133226D01*
X177714Y133206D01*
X177709Y133177D01*
X177699Y133142D01*
X177690Y133098D01*
X177680Y133049D01*
X177670Y132994D01*
X177660Y132935D01*
X177650Y132867D01*
X177640Y132793D01*
X177630Y132709D01*
X177626Y132625D01*
X177621Y132537D01*
X177616Y132439D01*
Y132252D01*
X177621Y132202D01*
Y132148D01*
X177626Y132089D01*
X177630Y132020D01*
X177640Y131878D01*
X177660Y131730D01*
X177690Y131578D01*
X177724Y131435D01*
Y131430D01*
X177729Y131420D01*
X177734Y131400D01*
X177744Y131376D01*
X177753Y131346D01*
X177768Y131312D01*
X177803Y131233D01*
X177847Y131140D01*
X177896Y131046D01*
X177960Y130953D01*
X178034Y130869D01*
X178044Y130859D01*
X178068Y130835D01*
X178118Y130800D01*
X178177Y130756D01*
X178250Y130707D01*
X178339Y130657D01*
X178437Y130613D01*
X178546Y130579D01*
X178551D01*
X178560Y130574D01*
X178575D01*
X178600Y130569D01*
X178629Y130559D01*
X178664Y130554D01*
X178703Y130549D01*
X178747Y130539D01*
X178851Y130525D01*
X178969Y130515D01*
X179102Y130505D01*
X179244Y130500D01*
X179308D01*
X179343Y130505D01*
X179426D01*
X179475Y130510D01*
X179584Y130520D01*
X179702Y130534D01*
X179820Y130554D01*
X179938Y130579D01*
X179943D01*
X179953Y130584D01*
X179967Y130589D01*
X179987Y130594D01*
X180041Y130618D01*
X180115Y130648D01*
X180194Y130687D01*
X180277Y130736D01*
X180361Y130795D01*
X180445Y130869D01*
Y130874D01*
X180455Y130879D01*
X180479Y130908D01*
X180514Y130953D01*
X180563Y131021D01*
X180612Y131100D01*
X180666Y131199D01*
X180720Y131307D01*
X180764Y131435D01*
Y131440D01*
X180769Y131450D01*
X180774Y131469D01*
X180779Y131499D01*
X180789Y131533D01*
X180799Y131578D01*
X180809Y131627D01*
X180819Y131681D01*
X180828Y131745D01*
X180838Y131814D01*
X180848Y131887D01*
X180858Y131966D01*
X180863Y132055D01*
X180868Y132143D01*
X180873Y132340D01*
Y132434D01*
X180868Y132478D01*
Y132532D01*
X180863Y132591D01*
X180858Y132660D01*
X180848Y132798D01*
X180828Y132950D01*
X180799Y133098D01*
X180764Y133240D01*
Y133245D01*
X180760Y133255D01*
X180755Y133275D01*
X180745Y133300D01*
X180730Y133329D01*
X180715Y133363D01*
X180681Y133447D01*
X180637Y133536D01*
X180582Y133629D01*
X180518Y133723D01*
X180445Y133806D01*
X180440Y133811D01*
X180435Y133816D01*
X180405Y133841D01*
X180361Y133880D01*
X180302Y133924D01*
X180228Y133974D01*
X180145Y134018D01*
X180046Y134067D01*
X179938Y134101D01*
X179933D01*
X179923Y134106D01*
X179908Y134111D01*
X179884Y134116D01*
X179854Y134121D01*
X179820Y134126D01*
X179780Y134136D01*
X179736Y134146D01*
X179633Y134160D01*
X179515Y134170D01*
X179387Y134180D01*
X179244Y134185D01*
X180873D01*
D01*
D02*
G37*
%LPD*%
G36*
X182713Y131228D02*
X181286D01*
Y134131D01*
X182713D01*
Y131228D01*
D02*
G37*
G36*
X175943Y132084D02*
X174944D01*
X175407Y133447D01*
X175471D01*
X175943Y132084D01*
D02*
G37*
G36*
X172386Y131218D02*
X171943D01*
X171894Y131223D01*
X171835D01*
X171771Y131228D01*
X171697Y131238D01*
X171623Y131253D01*
X171554Y131267D01*
X171544Y131272D01*
X171525Y131277D01*
X171490Y131292D01*
X171446Y131312D01*
X171397Y131336D01*
X171348Y131366D01*
X171298Y131405D01*
X171249Y131450D01*
X171244Y131455D01*
X171230Y131474D01*
X171205Y131504D01*
X171180Y131543D01*
X171151Y131592D01*
X171121Y131651D01*
X171092Y131720D01*
X171067Y131799D01*
Y131804D01*
X171062Y131809D01*
X171057Y131838D01*
X171047Y131883D01*
X171038Y131947D01*
X171028Y132025D01*
X171018Y132119D01*
X171008Y132222D01*
Y132340D01*
Y132345D01*
Y132355D01*
Y132375D01*
Y132399D01*
Y132429D01*
X171013Y132463D01*
X171018Y132542D01*
X171023Y132630D01*
X171033Y132724D01*
X171052Y132817D01*
X171072Y132901D01*
Y132906D01*
X171077Y132911D01*
X171082Y132935D01*
X171097Y132980D01*
X171116Y133029D01*
X171141Y133083D01*
X171175Y133142D01*
X171210Y133201D01*
X171254Y133250D01*
X171259Y133255D01*
X171274Y133270D01*
X171303Y133295D01*
X171338Y133319D01*
X171382Y133349D01*
X171431Y133378D01*
X171490Y133403D01*
X171559Y133423D01*
X171569D01*
X171594Y133432D01*
X171628Y133437D01*
X171682Y133447D01*
X171741Y133457D01*
X171815Y133462D01*
X171894Y133472D01*
X172386D01*
Y131218D01*
D02*
G37*
G36*
X179328Y133541D02*
X179387Y133536D01*
X179451Y133531D01*
X179520Y133516D01*
X179584Y133501D01*
X179648Y133477D01*
X179653Y133472D01*
X179672Y133467D01*
X179702Y133447D01*
X179736Y133427D01*
X179776Y133398D01*
X179815Y133359D01*
X179854Y133314D01*
X179889Y133265D01*
X179894Y133260D01*
X179903Y133240D01*
X179918Y133206D01*
X179938Y133167D01*
X179958Y133113D01*
X179977Y133049D01*
X179997Y132975D01*
X180012Y132891D01*
Y132886D01*
Y132881D01*
X180017Y132867D01*
Y132852D01*
X180022Y132803D01*
X180026Y132739D01*
X180036Y132655D01*
X180041Y132562D01*
X180046Y132458D01*
Y132340D01*
Y132335D01*
Y132325D01*
Y132311D01*
Y132286D01*
Y132256D01*
Y132222D01*
X180041Y132148D01*
X180036Y132060D01*
X180031Y131966D01*
X180022Y131868D01*
X180012Y131779D01*
Y131769D01*
X180007Y131740D01*
X179997Y131701D01*
X179982Y131651D01*
X179967Y131592D01*
X179943Y131528D01*
X179918Y131469D01*
X179889Y131415D01*
X179884Y131410D01*
X179874Y131391D01*
X179854Y131366D01*
X179825Y131336D01*
X179790Y131307D01*
X179751Y131272D01*
X179702Y131243D01*
X179648Y131213D01*
X179638Y131209D01*
X179618Y131204D01*
X179584Y131194D01*
X179539Y131184D01*
X179480Y131169D01*
X179411Y131159D01*
X179333Y131154D01*
X179244Y131149D01*
X179200D01*
X179156Y131154D01*
X179097Y131159D01*
X179033Y131164D01*
X178964Y131179D01*
X178900Y131194D01*
X178836Y131213D01*
X178831Y131218D01*
X178811Y131228D01*
X178782Y131243D01*
X178747Y131263D01*
X178708Y131292D01*
X178669Y131327D01*
X178629Y131366D01*
X178595Y131415D01*
X178590Y131420D01*
X178580Y131440D01*
X178565Y131469D01*
X178546Y131514D01*
X178526Y131563D01*
X178506Y131627D01*
X178487Y131701D01*
X178472Y131779D01*
Y131784D01*
Y131789D01*
X178467Y131804D01*
Y131819D01*
X178462Y131868D01*
X178452Y131937D01*
X178447Y132020D01*
X178442Y132114D01*
X178437Y132222D01*
Y132340D01*
Y132345D01*
Y132355D01*
Y132370D01*
Y132394D01*
Y132424D01*
Y132453D01*
X178442Y132532D01*
X178447Y132616D01*
X178452Y132709D01*
X178462Y132803D01*
X178472Y132891D01*
Y132896D01*
Y132901D01*
X178477Y132931D01*
X178487Y132970D01*
X178501Y133024D01*
X178516Y133083D01*
X178536Y133147D01*
X178565Y133206D01*
X178595Y133265D01*
X178600Y133270D01*
X178610Y133290D01*
X178629Y133314D01*
X178654Y133349D01*
X178688Y133383D01*
X178733Y133418D01*
X178782Y133447D01*
X178836Y133477D01*
X178841Y133482D01*
X178865Y133486D01*
X178900Y133496D01*
X178944Y133511D01*
X179003Y133526D01*
X179072Y133536D01*
X179156Y133541D01*
X179244Y133545D01*
X179284D01*
X179328Y133541D01*
D02*
G37*
%LPC*%
G36*
X190547Y132434D02*
X188963D01*
Y131833D01*
X190547D01*
Y132434D01*
D02*
G37*
G36*
X201873Y134185D02*
X198616D01*
D01*
X200146D01*
X200101Y134180D01*
X200057D01*
X200008Y134175D01*
X199900Y134165D01*
X199782Y134151D01*
X199664Y134131D01*
X199546Y134101D01*
X199541D01*
X199531Y134097D01*
X199516Y134092D01*
X199496Y134087D01*
X199437Y134062D01*
X199368Y134033D01*
X199285Y133993D01*
X199201Y133944D01*
X199113Y133880D01*
X199034Y133806D01*
X199024Y133796D01*
X198999Y133767D01*
X198965Y133723D01*
X198916Y133659D01*
X198867Y133575D01*
X198817Y133482D01*
X198768Y133368D01*
X198724Y133240D01*
Y133236D01*
X198719Y133226D01*
X198714Y133206D01*
X198709Y133177D01*
X198699Y133142D01*
X198689Y133098D01*
X198680Y133049D01*
X198670Y132994D01*
X198660Y132935D01*
X198650Y132867D01*
X198640Y132793D01*
X198630Y132709D01*
X198626Y132625D01*
X198621Y132537D01*
X198616Y132439D01*
Y132252D01*
X198621Y132202D01*
Y132148D01*
X198626Y132089D01*
X198630Y132020D01*
X198640Y131878D01*
X198660Y131730D01*
X198689Y131578D01*
X198724Y131435D01*
Y131430D01*
X198729Y131420D01*
X198734Y131400D01*
X198744Y131376D01*
X198753Y131346D01*
X198768Y131312D01*
X198803Y131233D01*
X198847Y131140D01*
X198896Y131046D01*
X198960Y130953D01*
X199034Y130869D01*
X199044Y130859D01*
X199068Y130835D01*
X199118Y130800D01*
X199177Y130756D01*
X199250Y130707D01*
X199339Y130657D01*
X199437Y130613D01*
X199546Y130579D01*
X199550D01*
X199560Y130574D01*
X199575D01*
X199600Y130569D01*
X199629Y130559D01*
X199664Y130554D01*
X199703Y130549D01*
X199747Y130539D01*
X199851Y130525D01*
X199969Y130515D01*
X200101Y130505D01*
X200244Y130500D01*
X200308D01*
X200343Y130505D01*
X200426D01*
X200475Y130510D01*
X200584Y130520D01*
X200702Y130534D01*
X200820Y130554D01*
X200938Y130579D01*
X200943D01*
X200953Y130584D01*
X200967Y130589D01*
X200987Y130594D01*
X201041Y130618D01*
X201115Y130648D01*
X201194Y130687D01*
X201277Y130736D01*
X201361Y130795D01*
X201445Y130869D01*
Y130874D01*
X201454Y130879D01*
X201479Y130908D01*
X201514Y130953D01*
X201563Y131021D01*
X201612Y131100D01*
X201666Y131199D01*
X201720Y131307D01*
X201764Y131435D01*
Y131440D01*
X201769Y131450D01*
X201774Y131469D01*
X201779Y131499D01*
X201789Y131533D01*
X201799Y131578D01*
X201809Y131627D01*
X201819Y131681D01*
X201828Y131745D01*
X201838Y131814D01*
X201848Y131887D01*
X201858Y131966D01*
X201863Y132055D01*
X201868Y132143D01*
X201873Y132340D01*
Y130707D01*
Y132434D01*
X201868Y132478D01*
Y132532D01*
X201863Y132591D01*
X201858Y132660D01*
X201848Y132798D01*
X201828Y132950D01*
X201799Y133098D01*
X201764Y133240D01*
Y133245D01*
X201760Y133255D01*
X201755Y133275D01*
X201745Y133300D01*
X201730Y133329D01*
X201715Y133363D01*
X201681Y133447D01*
X201637Y133536D01*
X201582Y133629D01*
X201519Y133723D01*
X201445Y133806D01*
X201440Y133811D01*
X201435Y133816D01*
X201405Y133841D01*
X201361Y133880D01*
X201302Y133924D01*
X201228Y133974D01*
X201145Y134018D01*
X201046Y134067D01*
X200938Y134101D01*
X200933D01*
X200923Y134106D01*
X200908Y134111D01*
X200884Y134116D01*
X200854Y134121D01*
X200820Y134126D01*
X200781Y134136D01*
X200736Y134146D01*
X200633Y134160D01*
X200515Y134170D01*
X200387Y134180D01*
X200244Y134185D01*
X201873D01*
D01*
D02*
G37*
G36*
X204500Y134131D02*
X202286D01*
Y130549D01*
X204500D01*
Y134131D01*
D02*
G37*
G36*
X198296D02*
D01*
Y130549D01*
X196958Y134131D01*
X194576D01*
X195905D01*
X194576Y130549D01*
X195408D01*
X195713Y131435D01*
X197169D01*
X197479Y130549D01*
X195846D01*
X198296D01*
Y134131D01*
D02*
G37*
G36*
X194173D02*
X192840D01*
X192800Y134126D01*
X192756D01*
X192707Y134121D01*
X192594Y134116D01*
X192475Y134101D01*
X192352Y134087D01*
X192229Y134062D01*
X192225D01*
X192215Y134057D01*
X192200Y134052D01*
X192175Y134047D01*
X192146Y134042D01*
X192116Y134028D01*
X192038Y134003D01*
X191949Y133969D01*
X191856Y133919D01*
X191762Y133865D01*
X191674Y133796D01*
X191669D01*
X191664Y133787D01*
X191634Y133762D01*
X191595Y133718D01*
X191541Y133654D01*
X191487Y133575D01*
X191428Y133482D01*
X191368Y133373D01*
X191319Y133245D01*
Y133240D01*
X191314Y133231D01*
X191309Y133211D01*
X191300Y133181D01*
X191290Y133147D01*
X191280Y133108D01*
X191270Y133058D01*
X191255Y132999D01*
X191245Y132940D01*
X191236Y132871D01*
X191226Y132798D01*
X191216Y132714D01*
X191206Y132630D01*
X191201Y132537D01*
X191196Y132443D01*
Y132252D01*
X191201Y132207D01*
Y132158D01*
X191206Y132099D01*
X191211Y132035D01*
X191226Y131897D01*
X191250Y131755D01*
X191280Y131612D01*
X191319Y131474D01*
Y131469D01*
X191324Y131459D01*
X191334Y131440D01*
X191344Y131415D01*
X191354Y131391D01*
X191368Y131356D01*
X191408Y131277D01*
X191462Y131189D01*
X191521Y131095D01*
X191590Y131007D01*
X191674Y130923D01*
X191679D01*
X191683Y130913D01*
X191698Y130903D01*
X191713Y130889D01*
X191762Y130854D01*
X191831Y130810D01*
X191910Y130761D01*
X192003Y130712D01*
X192111Y130667D01*
X192229Y130633D01*
X192234D01*
X192244Y130628D01*
X192259Y130623D01*
X192284Y130618D01*
X192313Y130613D01*
X192352Y130608D01*
X192392Y130598D01*
X192436Y130594D01*
X192544Y130574D01*
X192667Y130564D01*
X192800Y130554D01*
X192943Y130549D01*
X191196D01*
X194173D01*
Y134131D01*
D02*
G37*
%LPD*%
G36*
X200328Y133541D02*
X200387Y133536D01*
X200451Y133531D01*
X200520Y133516D01*
X200584Y133501D01*
X200648Y133477D01*
X200653Y133472D01*
X200672Y133467D01*
X200702Y133447D01*
X200736Y133427D01*
X200776Y133398D01*
X200815Y133359D01*
X200854Y133314D01*
X200889Y133265D01*
X200894Y133260D01*
X200904Y133240D01*
X200918Y133206D01*
X200938Y133167D01*
X200958Y133113D01*
X200977Y133049D01*
X200997Y132975D01*
X201012Y132891D01*
Y132886D01*
Y132881D01*
X201017Y132867D01*
Y132852D01*
X201022Y132803D01*
X201027Y132739D01*
X201036Y132655D01*
X201041Y132562D01*
X201046Y132458D01*
Y132340D01*
Y132335D01*
Y132325D01*
Y132311D01*
Y132286D01*
Y132256D01*
Y132222D01*
X201041Y132148D01*
X201036Y132060D01*
X201031Y131966D01*
X201022Y131868D01*
X201012Y131779D01*
Y131769D01*
X201007Y131740D01*
X200997Y131701D01*
X200982Y131651D01*
X200967Y131592D01*
X200943Y131528D01*
X200918Y131469D01*
X200889Y131415D01*
X200884Y131410D01*
X200874Y131391D01*
X200854Y131366D01*
X200825Y131336D01*
X200790Y131307D01*
X200751Y131272D01*
X200702Y131243D01*
X200648Y131213D01*
X200638Y131209D01*
X200618Y131204D01*
X200584Y131194D01*
X200539Y131184D01*
X200480Y131169D01*
X200412Y131159D01*
X200333Y131154D01*
X200244Y131149D01*
X200200D01*
X200156Y131154D01*
X200097Y131159D01*
X200033Y131164D01*
X199964Y131179D01*
X199900Y131194D01*
X199836Y131213D01*
X199831Y131218D01*
X199811Y131228D01*
X199782Y131243D01*
X199747Y131263D01*
X199708Y131292D01*
X199669Y131327D01*
X199629Y131366D01*
X199595Y131415D01*
X199590Y131420D01*
X199580Y131440D01*
X199565Y131469D01*
X199546Y131514D01*
X199526Y131563D01*
X199506Y131627D01*
X199486Y131701D01*
X199472Y131779D01*
Y131784D01*
Y131789D01*
X199467Y131804D01*
Y131819D01*
X199462Y131868D01*
X199452Y131937D01*
X199447Y132020D01*
X199442Y132114D01*
X199437Y132222D01*
Y132340D01*
Y132345D01*
Y132355D01*
Y132370D01*
Y132394D01*
Y132424D01*
Y132453D01*
X199442Y132532D01*
X199447Y132616D01*
X199452Y132709D01*
X199462Y132803D01*
X199472Y132891D01*
Y132896D01*
Y132901D01*
X199477Y132931D01*
X199486Y132970D01*
X199501Y133024D01*
X199516Y133083D01*
X199536Y133147D01*
X199565Y133206D01*
X199595Y133265D01*
X199600Y133270D01*
X199609Y133290D01*
X199629Y133314D01*
X199654Y133349D01*
X199688Y133383D01*
X199732Y133418D01*
X199782Y133447D01*
X199836Y133477D01*
X199841Y133482D01*
X199865Y133486D01*
X199900Y133496D01*
X199944Y133511D01*
X200003Y133526D01*
X200072Y133536D01*
X200156Y133541D01*
X200244Y133545D01*
X200284D01*
X200328Y133541D01*
D02*
G37*
G36*
X203713Y131228D02*
X202286D01*
Y134131D01*
X203713D01*
Y131228D01*
D02*
G37*
G36*
X196943Y132084D02*
X195944D01*
X196407Y133447D01*
X196471D01*
X196943Y132084D01*
D02*
G37*
G36*
X193386Y131218D02*
X192943D01*
X192894Y131223D01*
X192835D01*
X192771Y131228D01*
X192697Y131238D01*
X192623Y131253D01*
X192554Y131267D01*
X192544Y131272D01*
X192525Y131277D01*
X192490Y131292D01*
X192446Y131312D01*
X192397Y131336D01*
X192348Y131366D01*
X192298Y131405D01*
X192249Y131450D01*
X192244Y131455D01*
X192229Y131474D01*
X192205Y131504D01*
X192180Y131543D01*
X192151Y131592D01*
X192121Y131651D01*
X192092Y131720D01*
X192067Y131799D01*
Y131804D01*
X192062Y131809D01*
X192057Y131838D01*
X192048Y131883D01*
X192038Y131947D01*
X192028Y132025D01*
X192018Y132119D01*
X192008Y132222D01*
Y132340D01*
Y132345D01*
Y132355D01*
Y132375D01*
Y132399D01*
Y132429D01*
X192013Y132463D01*
X192018Y132542D01*
X192023Y132630D01*
X192033Y132724D01*
X192052Y132817D01*
X192072Y132901D01*
Y132906D01*
X192077Y132911D01*
X192082Y132935D01*
X192097Y132980D01*
X192116Y133029D01*
X192141Y133083D01*
X192175Y133142D01*
X192210Y133201D01*
X192254Y133250D01*
X192259Y133255D01*
X192274Y133270D01*
X192303Y133295D01*
X192338Y133319D01*
X192382Y133349D01*
X192431Y133378D01*
X192490Y133403D01*
X192559Y133423D01*
X192569D01*
X192594Y133432D01*
X192628Y133437D01*
X192682Y133447D01*
X192741Y133457D01*
X192815Y133462D01*
X192894Y133472D01*
X193386D01*
Y131218D01*
D02*
G37*
%LPC*%
G36*
X94372Y111673D02*
X94095D01*
X94046Y111669D01*
X94007D01*
X93971Y111665D01*
X93943Y111662D01*
X93922D01*
X93907Y111658D01*
X93904D01*
X93868Y111651D01*
X93836Y111644D01*
X93808Y111634D01*
X93783Y111626D01*
X93765Y111616D01*
X93751Y111609D01*
X93744Y111605D01*
X93740Y111602D01*
X93701Y111566D01*
X93673Y111531D01*
X93662Y111513D01*
X93655Y111499D01*
X93652Y111492D01*
Y111488D01*
X93641Y111460D01*
X93634Y111428D01*
X93627Y111367D01*
X93623Y111343D01*
Y111321D01*
Y111303D01*
Y111300D01*
Y111257D01*
X93627Y111218D01*
X93630Y111183D01*
X93638Y111154D01*
X93641Y111129D01*
X93648Y111112D01*
X93652Y111101D01*
Y111098D01*
X93677Y111044D01*
X93691Y111023D01*
X93705Y111005D01*
X93719Y110991D01*
X93730Y110980D01*
X93737Y110977D01*
X93740Y110973D01*
X93765Y110959D01*
X93790Y110945D01*
X93843Y110927D01*
X93868Y110920D01*
X93886Y110916D01*
X93900Y110913D01*
X93904D01*
X93943Y110909D01*
X93982Y110906D01*
X94024Y110902D01*
X94060D01*
X94095Y110899D01*
X94372D01*
Y111673D01*
D02*
G37*
G36*
X79572Y111673D02*
X79295D01*
X79246Y111669D01*
X79207D01*
X79171Y111665D01*
X79143Y111662D01*
X79122D01*
X79107Y111658D01*
X79104D01*
X79068Y111651D01*
X79036Y111644D01*
X79008Y111634D01*
X78983Y111626D01*
X78965Y111616D01*
X78951Y111609D01*
X78944Y111605D01*
X78940Y111602D01*
X78901Y111566D01*
X78873Y111531D01*
X78862Y111513D01*
X78855Y111499D01*
X78852Y111492D01*
Y111488D01*
X78841Y111460D01*
X78834Y111428D01*
X78827Y111367D01*
X78823Y111342D01*
Y111321D01*
Y111303D01*
Y111300D01*
Y111257D01*
X78827Y111218D01*
X78830Y111183D01*
X78838Y111154D01*
X78841Y111129D01*
X78848Y111112D01*
X78852Y111101D01*
Y111098D01*
X78877Y111044D01*
X78891Y111023D01*
X78905Y111005D01*
X78919Y110991D01*
X78930Y110980D01*
X78937Y110977D01*
X78940Y110973D01*
X78965Y110959D01*
X78990Y110945D01*
X79043Y110927D01*
X79068Y110920D01*
X79086Y110916D01*
X79100Y110913D01*
X79104D01*
X79143Y110909D01*
X79182Y110906D01*
X79224Y110902D01*
X79260D01*
X79295Y110899D01*
X79572D01*
Y111673D01*
D02*
G37*
G36*
X107458Y111697D02*
X107429D01*
X107365Y111694D01*
X107305Y111690D01*
X107255Y111683D01*
X107213Y111673D01*
X107181Y111662D01*
X107156Y111655D01*
X107138Y111651D01*
X107135Y111648D01*
X107096Y111626D01*
X107060Y111605D01*
X107028Y111580D01*
X107003Y111555D01*
X106985Y111531D01*
X106971Y111513D01*
X106964Y111499D01*
X106961Y111495D01*
X106939Y111452D01*
X106918Y111410D01*
X106904Y111364D01*
X106893Y111321D01*
X106883Y111282D01*
X106876Y111254D01*
X106872Y111232D01*
Y111229D01*
Y111225D01*
X106865Y111161D01*
X106858Y111094D01*
X106854Y111027D01*
X106851Y110966D01*
X106847Y110909D01*
Y110888D01*
Y110867D01*
Y110849D01*
Y110838D01*
Y110831D01*
Y110828D01*
Y110742D01*
X106851Y110664D01*
X106854Y110597D01*
X106858Y110537D01*
X106865Y110487D01*
X106868Y110451D01*
Y110441D01*
X106872Y110430D01*
Y110426D01*
Y110423D01*
X106883Y110366D01*
X106897Y110313D01*
X106911Y110267D01*
X106925Y110231D01*
X106939Y110199D01*
X106950Y110178D01*
X106957Y110164D01*
X106961Y110160D01*
X106985Y110125D01*
X107014Y110096D01*
X107042Y110072D01*
X107071Y110050D01*
X107096Y110036D01*
X107117Y110025D01*
X107131Y110018D01*
X107135Y110015D01*
X107181Y110001D01*
X107227Y109990D01*
X107277Y109979D01*
X107323Y109976D01*
X107365Y109972D01*
X107397Y109969D01*
X107429D01*
X107493Y109972D01*
X107550Y109976D01*
X107600Y109983D01*
X107642Y109994D01*
X107674Y110001D01*
X107699Y110008D01*
X107713Y110011D01*
X107720Y110015D01*
X107759Y110036D01*
X107795Y110057D01*
X107823Y110082D01*
X107848Y110103D01*
X107870Y110125D01*
X107884Y110143D01*
X107891Y110157D01*
X107894Y110160D01*
X107916Y110199D01*
X107933Y110242D01*
X107951Y110288D01*
X107962Y110331D01*
X107972Y110366D01*
X107980Y110395D01*
X107983Y110416D01*
Y110423D01*
X107990Y110487D01*
X107997Y110558D01*
X108001Y110625D01*
X108004Y110689D01*
X108008Y110742D01*
Y110767D01*
Y110789D01*
Y110806D01*
Y110817D01*
Y110824D01*
Y110828D01*
Y110913D01*
X108004Y110987D01*
X108001Y111055D01*
X107994Y111115D01*
X107990Y111161D01*
X107987Y111197D01*
Y111207D01*
X107983Y111218D01*
Y111222D01*
Y111225D01*
X107972Y111286D01*
X107958Y111339D01*
X107944Y111385D01*
X107930Y111424D01*
X107916Y111452D01*
X107905Y111477D01*
X107898Y111492D01*
X107894Y111495D01*
X107870Y111531D01*
X107841Y111563D01*
X107813Y111591D01*
X107784Y111612D01*
X107759Y111626D01*
X107738Y111641D01*
X107724Y111644D01*
X107720Y111648D01*
X107674Y111665D01*
X107628Y111676D01*
X107578Y111687D01*
X107532Y111690D01*
X107490Y111694D01*
X107458Y111697D01*
D02*
G37*
G36*
X81848Y111697D02*
X81820D01*
X81756Y111694D01*
X81695Y111690D01*
X81646Y111683D01*
X81603Y111673D01*
X81571Y111662D01*
X81546Y111655D01*
X81528Y111651D01*
X81525Y111648D01*
X81486Y111626D01*
X81450Y111605D01*
X81418Y111580D01*
X81394Y111555D01*
X81376Y111531D01*
X81362Y111513D01*
X81354Y111499D01*
X81351Y111495D01*
X81330Y111452D01*
X81308Y111410D01*
X81294Y111364D01*
X81283Y111321D01*
X81273Y111282D01*
X81266Y111254D01*
X81262Y111232D01*
Y111229D01*
Y111225D01*
X81255Y111161D01*
X81248Y111094D01*
X81244Y111027D01*
X81241Y110966D01*
X81237Y110909D01*
Y110888D01*
Y110867D01*
Y110849D01*
Y110838D01*
Y110831D01*
Y110828D01*
Y110742D01*
X81241Y110664D01*
X81244Y110597D01*
X81248Y110537D01*
X81255Y110487D01*
X81259Y110451D01*
Y110441D01*
X81262Y110430D01*
Y110426D01*
Y110423D01*
X81273Y110366D01*
X81287Y110313D01*
X81301Y110267D01*
X81315Y110231D01*
X81330Y110199D01*
X81340Y110178D01*
X81347Y110164D01*
X81351Y110160D01*
X81376Y110125D01*
X81404Y110096D01*
X81433Y110072D01*
X81461Y110050D01*
X81486Y110036D01*
X81507Y110025D01*
X81521Y110018D01*
X81525Y110015D01*
X81571Y110001D01*
X81617Y109990D01*
X81667Y109979D01*
X81713Y109976D01*
X81756Y109972D01*
X81788Y109969D01*
X81820D01*
X81884Y109972D01*
X81940Y109976D01*
X81990Y109983D01*
X82033Y109994D01*
X82064Y110001D01*
X82089Y110008D01*
X82104Y110011D01*
X82111Y110015D01*
X82150Y110036D01*
X82185Y110057D01*
X82214Y110082D01*
X82239Y110103D01*
X82260Y110125D01*
X82274Y110143D01*
X82281Y110157D01*
X82285Y110160D01*
X82306Y110199D01*
X82324Y110242D01*
X82341Y110288D01*
X82352Y110331D01*
X82363Y110366D01*
X82370Y110395D01*
X82373Y110416D01*
Y110423D01*
X82380Y110487D01*
X82388Y110558D01*
X82391Y110625D01*
X82395Y110689D01*
X82398Y110742D01*
Y110767D01*
Y110789D01*
Y110806D01*
Y110817D01*
Y110824D01*
Y110828D01*
Y110913D01*
X82395Y110987D01*
X82391Y111055D01*
X82384Y111115D01*
X82380Y111161D01*
X82377Y111197D01*
Y111207D01*
X82373Y111218D01*
Y111222D01*
Y111225D01*
X82363Y111286D01*
X82349Y111339D01*
X82334Y111385D01*
X82320Y111424D01*
X82306Y111452D01*
X82295Y111477D01*
X82288Y111492D01*
X82285Y111495D01*
X82260Y111531D01*
X82231Y111563D01*
X82203Y111591D01*
X82174Y111612D01*
X82150Y111626D01*
X82128Y111641D01*
X82114Y111644D01*
X82111Y111648D01*
X82064Y111665D01*
X82018Y111676D01*
X81969Y111687D01*
X81923Y111690D01*
X81880Y111694D01*
X81848Y111697D01*
D02*
G37*
%LPD*%
D10*
X113657Y106100D02*
Y114900D01*
X133146Y106100D02*
Y114900D01*
X113657Y106100D02*
X133146D01*
X113657Y114900D02*
X133146D01*
M02*
