G04*
G04 #@! TF.GenerationSoftware,Altium Limited,Altium Designer,22.2.1 (43)*
G04*
G04 Layer_Color=16711935*
%FSLAX25Y25*%
%MOIN*%
G70*
G04*
G04 #@! TF.SameCoordinates,8776665F-13AD-43F5-9AD3-E0C3E71DBBC6*
G04*
G04*
G04 #@! TF.FilePolarity,Negative*
G04*
G01*
G75*
%ADD83C,0.06706*%
%ADD84R,0.06706X0.06706*%
%ADD85O,0.07880X0.04730*%
%ADD86R,0.07493X0.07493*%
%ADD87C,0.07493*%
%ADD88R,0.07099X0.07099*%
%ADD89C,0.07099*%
%ADD90C,0.20800*%
%ADD91C,0.03359*%
%ADD92O,0.04737X0.07099*%
%ADD93O,0.04737X0.09068*%
%ADD94C,0.05721*%
%ADD95R,0.09855X0.09855*%
%ADD96C,0.09855*%
%ADD140R,0.06300X0.07000*%
D83*
X57400Y64657D02*
D03*
X65274D02*
D03*
X49526Y84342D02*
D03*
X57400D02*
D03*
X49526Y64657D02*
D03*
D84*
X65274Y84342D02*
D03*
D85*
X236980Y127010D02*
D03*
Y92990D02*
D03*
X222020Y127010D02*
D03*
Y92990D02*
D03*
X-480Y43990D02*
D03*
Y78010D02*
D03*
X14480Y43990D02*
D03*
Y78010D02*
D03*
D86*
X7000Y92000D02*
D03*
X18000D02*
D03*
D87*
X7000Y102000D02*
D03*
Y112000D02*
D03*
Y122000D02*
D03*
X18000Y102000D02*
D03*
Y112000D02*
D03*
Y122000D02*
D03*
D88*
X148500Y6900D02*
D03*
D89*
Y16900D02*
D03*
X158500Y6900D02*
D03*
Y16900D02*
D03*
X168500Y6900D02*
D03*
Y16900D02*
D03*
X178500Y6900D02*
D03*
Y16900D02*
D03*
X188500Y6900D02*
D03*
Y16900D02*
D03*
X198500Y6900D02*
D03*
Y16900D02*
D03*
D90*
X220472Y15748D02*
D03*
X15748Y142252D02*
D03*
X220472Y141732D02*
D03*
X15748Y15748D02*
D03*
D91*
X62378Y138142D02*
D03*
X39622D02*
D03*
D92*
X33972Y151921D02*
D03*
X68028D02*
D03*
D93*
X33972Y136173D02*
D03*
X68028D02*
D03*
D94*
X207000Y48000D02*
D03*
Y67291D02*
D03*
D95*
X196100Y144100D02*
D03*
D96*
X176100D02*
D03*
D140*
X129012Y110500D02*
D03*
X117791D02*
D03*
M02*
