G04*
G04 #@! TF.GenerationSoftware,Altium Limited,Altium Designer,22.2.1 (43)*
G04*
G04 Layer_Color=255*
%FSLAX25Y25*%
%MOIN*%
G70*
G04*
G04 #@! TF.SameCoordinates,8776665F-13AD-43F5-9AD3-E0C3E71DBBC6*
G04*
G04*
G04 #@! TF.FilePolarity,Positive*
G04*
G01*
G75*
%ADD118C,0.05906*%
%ADD119R,0.05906X0.05906*%
%ADD120O,0.07480X0.04330*%
%ADD121R,0.06693X0.06693*%
%ADD122C,0.06693*%
%ADD123R,0.06299X0.06299*%
%ADD124C,0.06299*%
%ADD125C,0.20000*%
%ADD126C,0.02559*%
%ADD127O,0.03937X0.06299*%
%ADD128O,0.03937X0.08268*%
%ADD129C,0.04921*%
%ADD130R,0.09055X0.09055*%
%ADD131C,0.09055*%
%ADD135R,0.05500X0.06200*%
D118*
X57400Y64657D02*
D03*
X65274D02*
D03*
X49526Y84342D02*
D03*
X57400D02*
D03*
X49526Y64657D02*
D03*
D119*
X65274Y84342D02*
D03*
D120*
X236980Y127010D02*
D03*
Y92990D02*
D03*
X222020Y127010D02*
D03*
Y92990D02*
D03*
X-480Y43990D02*
D03*
Y78010D02*
D03*
X14480Y43990D02*
D03*
Y78010D02*
D03*
D121*
X7000Y92000D02*
D03*
X18000D02*
D03*
D122*
X7000Y102000D02*
D03*
Y112000D02*
D03*
Y122000D02*
D03*
X18000Y102000D02*
D03*
Y112000D02*
D03*
Y122000D02*
D03*
D123*
X148500Y6900D02*
D03*
D124*
Y16900D02*
D03*
X158500Y6900D02*
D03*
Y16900D02*
D03*
X168500Y6900D02*
D03*
Y16900D02*
D03*
X178500Y6900D02*
D03*
Y16900D02*
D03*
X188500Y6900D02*
D03*
Y16900D02*
D03*
X198500Y6900D02*
D03*
Y16900D02*
D03*
D125*
X220472Y15748D02*
D03*
X15748Y142252D02*
D03*
X220472Y141732D02*
D03*
X15748Y15748D02*
D03*
D126*
X62378Y138142D02*
D03*
X39622D02*
D03*
D127*
X33972Y151921D02*
D03*
X68028D02*
D03*
D128*
X33972Y136173D02*
D03*
X68028D02*
D03*
D129*
X207000Y48000D02*
D03*
Y67291D02*
D03*
D130*
X196100Y144100D02*
D03*
D131*
X176100D02*
D03*
D135*
X129012Y110500D02*
D03*
X117791D02*
D03*
M02*
